<svg width="362" height="249" fill="none" xmlns="http://www.w3.org/2000/svg"><g filter="url(#filter0_d)"><rect x="21" y="16" width="277" height="176" rx="7" fill="#fff"/></g><path d="M281.096 141.504v-75.2a6 6 0 00-6-6H151.679a6 6 0 00-6 6v75.2h135.417z" fill="url(#paint0_linear)"/><path d="M261.395 141.572h-21.156l40.843-41.458v21.474l-19.687 19.984zm-53.019 0h7.191l65.526-66.512v-7.3l-72.717 73.812zm-62.697-50.836v7.3l37.082-37.64h-7.191l-29.891 30.34zm74.207-30.33h-31.337L145.69 103.91v31.81l74.196-75.314z" fill="url(#paint1_linear)" fill-opacity=".3"/><rect x="153.067" y="66.872" width="120.672" height="64.03" rx="8" fill="#FBFBFB"/><path d="M39.144 45.927c-.518 0-.97-.107-1.354-.322a2.22 2.22 0 01-.88-.909c-.209-.397-.313-.861-.313-1.391v-4.402h1.297v2.679h.01c.145-.221.347-.395.605-.521.265-.126.55-.19.852-.19.474 0 .884.105 1.231.313.347.208.615.495.805.861.195.36.293.78.293 1.26 0 .505-.1.956-.303 1.353a2.22 2.22 0 01-.861.928c-.379.227-.84.34-1.382.34zm0-1.108c.385 0 .684-.135.899-.407.22-.277.331-.615.331-1.013 0-.397-.11-.732-.331-1.003-.215-.278-.514-.417-.9-.417-.384 0-.687.14-.908.417-.215.271-.322.606-.322 1.003 0 .398.107.736.322 1.013.22.272.524.407.909.407zm5.962 1.108c-.442 0-.827-.114-1.155-.34a2.297 2.297 0 01-.767-.91 3.005 3.005 0 01-.265-1.268c0-.474.101-.903.303-1.288.208-.385.505-.688.89-.909.385-.227.846-.34 1.382-.34.543 0 1 .113 1.373.34.372.228.656.534.852.919.195.385.293.81.293 1.278v2.404h-1.297v-.804h-.019a2.09 2.09 0 01-.596.653c-.246.177-.578.265-.994.265zm.369-1.108c.379 0 .675-.139.89-.416.22-.278.331-.616.331-1.013 0-.392-.11-.723-.331-.994-.215-.278-.511-.417-.89-.417-.385 0-.688.14-.909.417-.22.271-.331.602-.331.994 0 .397.11.735.331 1.013.221.277.524.416.909.416zm4.333.994v-2.868c0-.379.091-.726.274-1.041a1.95 1.95 0 01.786-.748c.347-.19.764-.284 1.25-.284.347 0 .66.06.937.18.278.12.514.284.71.492h.01c.201-.208.441-.373.719-.492.284-.12.6-.18.947-.18.485 0 .899.094 1.24.284.347.183.612.432.795.748.183.315.275.662.275 1.04v2.87h-1.297v-2.87a.902.902 0 00-.303-.68.983.983 0 00-.71-.285c-.278 0-.518.095-.72.284a.915.915 0 00-.293.682v2.868H53.13v-2.868a.902.902 0 00-.303-.682.983.983 0 00-.71-.284c-.278 0-.518.095-.72.284a.915.915 0 00-.293.682v2.868h-1.297zm12.238.114c-.517 0-.969-.107-1.354-.322a2.222 2.222 0 01-.88-.909c-.208-.397-.313-.861-.313-1.391v-4.402h1.297v2.679h.01c.145-.221.347-.395.606-.521a1.96 1.96 0 01.852-.19c.473 0 .883.105 1.23.313.348.208.616.495.805.861.196.36.293.78.293 1.26 0 .505-.1.956-.302 1.353a2.22 2.22 0 01-.862.928c-.378.227-.84.34-1.382.34zm0-1.108c.385 0 .685-.135.9-.407.22-.277.33-.615.33-1.013 0-.397-.11-.732-.33-1.003-.215-.278-.515-.417-.9-.417s-.688.14-.909.417c-.214.271-.322.606-.322 1.003 0 .398.108.736.322 1.013.221.272.524.407.909.407zm6.379 1.108c-.499 0-.944-.11-1.335-.331a2.57 2.57 0 01-.928-.91 2.486 2.486 0 01-.34-1.287c0-.473.113-.9.34-1.278.227-.385.537-.688.928-.909a2.61 2.61 0 011.335-.34c.498 0 .943.113 1.335.34.39.221.7.524.927.91.228.378.341.804.341 1.277 0 .474-.113.903-.34 1.288a2.564 2.564 0 01-.928.909 2.68 2.68 0 01-1.335.33zm0-1.108c.397 0 .71-.135.937-.407a1.52 1.52 0 00.35-1.013c0-.397-.116-.732-.35-1.003-.227-.278-.54-.417-.937-.417-.398 0-.713.14-.947.417-.227.271-.34.606-.34 1.003 0 .398.113.736.34 1.013.234.272.55.407.947.407zm6.438 1.108a2.67 2.67 0 01-1.335-.331c-.39-.228-.7-.53-.927-.91a2.486 2.486 0 01-.341-1.287 2.476 2.476 0 011.268-2.187 2.61 2.61 0 011.335-.34c.499 0 .944.113 1.335.34.391.221.7.524.928.91.227.378.34.804.34 1.277 0 .474-.113.903-.34 1.288a2.563 2.563 0 01-.928.909c-.391.22-.836.33-1.335.33zm0-1.108c.398 0 .71-.135.938-.407.233-.277.35-.615.35-1.013 0-.397-.117-.732-.35-1.003-.228-.278-.54-.417-.938-.417-.397 0-.713.14-.946.417-.228.271-.341.606-.341 1.003 0 .398.113.736.34 1.013.234.272.55.407.947.407z" fill="#009F10" fill-opacity=".27"/><rect x="93.239" y="40.135" width="188.396" height="5.336" rx="2.668" fill="#DBEEEB"/><g filter="url(#filter1_d)"><rect x="153.376" y="67.08" width="119.821" height="66.523" rx="4" fill="#fff"/><rect x="153.876" y="67.58" width="118.821" height="65.523" rx="3.5" stroke="#3CC932" stroke-dasharray="6 6"/></g><path d="M78.07 57.862h-38.7a2 2 0 00-2 2v18.083a2 2 0 002 2h38.7a2 2 0 002-2V59.862a2 2 0 00-2-2zm.184 26.318H39.492a1.803 1.803 0 000 3.606h38.762a1.803 1.803 0 000-3.605zm-5.416 6.13H39.492a1.803 1.803 0 000 3.606h33.346a1.803 1.803 0 000-3.606zm53.652-32.447h-38.7a2 2 0 00-2 2v18.083a2 2 0 002 2h38.7a2 2 0 002-2V59.863a2 2 0 00-2-2zm.183 26.319h-39.08a1.803 1.803 0 000 3.605h39.08a1.803 1.803 0 100-3.605zm-5.734 6.129H87.593a1.803 1.803 0 000 3.606h33.346a1.803 1.803 0 100-3.606z" fill="#DBEEEB"/><path d="M61.73 69.6l-4.779 2.76v-5.518L61.73 69.6zm48.419 0l-4.778 2.76v-5.518l4.778 2.758z" fill="#fff"/><path d="M78.07 101.184h-38.7a2 2 0 00-2 2v18.083a2 2 0 002 2h38.7a2 2 0 002-2v-18.083a2 2 0 00-2-2zm.184 26.237H39.492a1.803 1.803 0 000 3.605h38.762a1.802 1.802 0 100-3.605zm-5.416 6.129H39.492a1.803 1.803 0 000 3.606h33.346a1.803 1.803 0 000-3.606zm53.652-32.365h-38.7a2 2 0 00-2 2v18.083a2 2 0 002 2h38.7a2 2 0 002-2v-18.083a2 2 0 00-2-2zm.183 26.261h-39.08a1.803 1.803 0 000 3.606h39.08a1.803 1.803 0 100-3.606zm-5.734 6.129H87.593a1.803 1.803 0 000 3.605h33.346a1.802 1.802 0 100-3.605z" fill="#DBEEEB"/><path d="M61.73 112.512l-4.779 2.758v-5.517l4.778 2.759zm48.419 0l-4.778 2.758v-5.517l4.778 2.759z" fill="#fff"/><path d="M78.07 143.872h-38.7a2 2 0 00-2 2v18.083a2 2 0 002 2h38.7a2 2 0 002-2v-18.083a2 2 0 00-2-2zm.184 26.237H39.492a1.802 1.802 0 100 3.605h38.762a1.803 1.803 0 000-3.605zm-5.416 6.129H39.492a1.803 1.803 0 000 3.606h33.346a1.803 1.803 0 000-3.606zm53.652-32.367h-38.7a2 2 0 00-2 2v18.083a2 2 0 002 2h38.7a2 2 0 002-2v-18.083a2 2 0 00-2-2zm.183 26.262h-39.08a1.803 1.803 0 000 3.606h39.08a1.803 1.803 0 000-3.606zm-5.734 6.129H87.593a1.803 1.803 0 000 3.605h33.346a1.802 1.802 0 100-3.605z" fill="#DBEEEB"/><path d="M61.73 155.198l-4.779 2.759v-5.517l4.778 2.758zm48.419 0l-4.778 2.759v-5.517l4.778 2.758z" fill="#fff"/><path d="M21 23a7 7 0 017-7h264a7 7 0 017 7v7H21v-7z" fill="url(#paint2_linear)"/><circle cx="37" cy="23" r="2" fill="#6AC2FC"/><circle cx="44" cy="23" r="2" fill="#F1EE33" fill-opacity=".8"/><circle cx="51" cy="23" r="2" fill="#89E23A"/><path d="M184.39 104h-2.62v-7h2.62c1.133 0 2.057.327 2.77.98.713.653 1.07 1.493 1.07 2.52 0 1.033-.357 1.877-1.07 2.53-.707.647-1.63.97-2.77.97zm-1.18-5.71v4.42h1.06c.78 0 1.387-.193 1.82-.58.44-.393.66-.937.66-1.63 0-.693-.22-1.233-.66-1.62-.433-.393-1.04-.59-1.82-.59h-1.06zm7.654 5.71h-1.41v-4.99h1.41v.84a1.9 1.9 0 01.7-.68 2.01 2.01 0 011.04-.29c.08 0 .133.003.16.01v1.38a1.834 1.834 0 00-.44-.05c-.327 0-.627.087-.9.26-.267.167-.454.37-.56.61V104zm3.878-2.5c0 .4.13.733.39 1s.59.4.99.4.73-.133.99-.4c.26-.273.39-.607.39-1 0-.4-.13-.73-.39-.99-.26-.267-.59-.4-.99-.4s-.73.133-.99.4c-.26.26-.39.59-.39.99zm-1.39 0c0-.74.26-1.36.78-1.86.514-.507 1.177-.76 1.99-.76.814 0 1.477.253 1.99.76.52.507.78 1.127.78 1.86 0 .747-.26 1.373-.78 1.88-.52.5-1.183.75-1.99.75-.806 0-1.47-.25-1.99-.75-.52-.507-.78-1.133-.78-1.88zm9.63-2.62c.68 0 1.24.253 1.68.76.447.493.67 1.117.67 1.87 0 .74-.223 1.363-.67 1.87-.44.5-1 .75-1.68.75-.7 0-1.246-.247-1.64-.74V106h-1.41v-6.99h1.41v.61c.374-.493.92-.74 1.64-.74zm-.4 1.23c-.266 0-.51.07-.73.21-.22.14-.39.32-.51.54v1.3a1.386 1.386 0 001.24.74c.4 0 .724-.133.97-.4a1.4 1.4 0 00.38-.99c0-.393-.126-.727-.38-1-.246-.267-.57-.4-.97-.4zm7.864 3.89h-1.44v-7h1.44v2.62h3.16V97h1.43v7h-1.43v-3.07h-3.16V104zm8.498.13c-.78 0-1.436-.24-1.97-.72-.533-.48-.8-1.117-.8-1.91 0-.74.24-1.36.72-1.86.48-.507 1.107-.76 1.88-.76.72 0 1.297.257 1.73.77.434.513.65 1.137.65 1.87v.37h-3.58c.074.333.257.59.55.77.3.18.674.27 1.12.27.554 0 1.087-.147 1.6-.44v1.13c-.446.34-1.08.51-1.9.51zm-1.37-3.14h2.19a1.01 1.01 0 00-.31-.71c-.186-.193-.433-.29-.74-.29a1.12 1.12 0 00-.78.28 1.08 1.08 0 00-.36.72zm6.073 3.01h-1.41v-4.99h1.41v.84c.153-.267.387-.493.7-.68a2.01 2.01 0 011.04-.29c.08 0 .133.003.16.01v1.38a1.828 1.828 0 00-.44-.05c-.327 0-.627.087-.9.26-.267.167-.453.37-.56.61V104zm5.258.13c-.78 0-1.436-.24-1.97-.72-.533-.48-.8-1.117-.8-1.91 0-.74.24-1.36.72-1.86.48-.507 1.107-.76 1.88-.76.72 0 1.297.257 1.73.77.434.513.65 1.137.65 1.87v.37h-3.58c.074.333.257.59.55.77.3.18.674.27 1.12.27.554 0 1.087-.147 1.6-.44v1.13c-.446.34-1.08.51-1.9.51zm-1.37-3.14h2.19a1.01 1.01 0 00-.31-.71c-.186-.193-.433-.29-.74-.29a1.12 1.12 0 00-.78.28 1.08 1.08 0 00-.36.72z" fill="#1E4843" fill-opacity=".6"/><path d="M361.951 100.432V41a3 3 0 00-3-3H242a3 3 0 00-3 3v59.432h122.951z" fill="url(#paint3_linear)"/><path d="M344.063 100.485h-19.208l37.084-31.877V85.12l-17.876 15.366zm-48.138 0h6.53l59.494-51.14v-5.612l-66.024 56.752zM239 61.398v5.613l33.669-28.94h-6.53L239 61.398zm67.376-23.32h-28.453l-38.913 33.45v24.457l67.366-57.906z" fill="url(#paint4_linear)" fill-opacity=".3"/><path d="M245.971 95.782c-.335 0-.627-.066-.876-.198a1.394 1.394 0 01-.569-.558 1.74 1.74 0 01-.203-.856v-2.705h.84v1.647h.006a.946.946 0 01.392-.32c.171-.078.355-.117.551-.117.306 0 .572.064.796.192.225.128.399.305.521.53.127.22.19.479.19.773 0 .31-.065.588-.196.832-.127.24-.312.431-.558.57-.245.14-.543.21-.894.21zm0-.68c.249 0 .443-.084.582-.25a.937.937 0 00.214-.623.914.914 0 00-.214-.617c-.139-.17-.333-.256-.582-.256-.249 0-.445.085-.588.256a.93.93 0 00-.208.617c0 .244.069.451.208.622.143.167.339.25.588.25zm3.858.68c-.286 0-.535-.07-.747-.21a1.425 1.425 0 01-.496-.558 1.76 1.76 0 01-.172-.78c0-.29.065-.554.196-.79.135-.237.327-.424.576-.56a1.8 1.8 0 01.894-.209c.351 0 .647.07.888.21.241.14.425.327.552.564.126.237.19.498.19.785v1.478h-.84v-.494h-.012a1.306 1.306 0 01-.386.401c-.159.109-.373.163-.643.163zm.239-.68a.702.702 0 00.576-.257.936.936 0 00.214-.622.906.906 0 00-.214-.611.704.704 0 00-.576-.256c-.249 0-.445.085-.588.256a.907.907 0 00-.215.61c0 .245.072.453.215.623.143.171.339.256.588.256zm2.804.61V93.95a1.208 1.208 0 01.686-1.1 1.74 1.74 0 01.808-.174c.225 0 .427.037.607.11.179.074.332.175.459.303h.006c.131-.128.286-.229.466-.302.183-.074.388-.11.612-.11.315 0 .582.057.803.174a1.2 1.2 0 01.692 1.1v1.762h-.839V93.95a.544.544 0 00-.196-.419.656.656 0 00-.46-.174.674.674 0 00-.465.174.548.548 0 00-.19.42v1.762h-.839V93.95a.544.544 0 00-.196-.419.656.656 0 00-.46-.174.674.674 0 00-.465.174.548.548 0 00-.19.42v1.762h-.839zm7.918.07c-.335 0-.627-.066-.876-.198a1.394 1.394 0 01-.569-.558 1.74 1.74 0 01-.203-.856v-2.705h.84v1.647h.006a.946.946 0 01.392-.32c.171-.078.355-.117.551-.117.306 0 .572.064.796.192.225.128.399.305.521.53.127.22.19.479.19.773 0 .31-.065.588-.196.832-.127.24-.312.431-.557.57-.245.14-.544.21-.895.21zm0-.68c.249 0 .443-.084.582-.25a.938.938 0 00.215-.623.915.915 0 00-.215-.617c-.139-.17-.333-.256-.582-.256-.249 0-.445.085-.588.256a.93.93 0 00-.208.617c0 .244.069.451.208.622.143.167.339.25.588.25zm4.128.68c-.323 0-.611-.068-.864-.204a1.622 1.622 0 01-.6-.558 1.47 1.47 0 01-.221-.791c0-.291.074-.553.221-.786a1.56 1.56 0 01.6-.558c.253-.14.541-.21.864-.21.322 0 .61.07.863.21.254.135.454.322.601.558.147.233.22.495.22.786 0 .29-.073.554-.22.79a1.617 1.617 0 01-.601.56 1.797 1.797 0 01-.863.203zm0-.68c.257 0 .459-.084.606-.25a.907.907 0 00.227-.623.885.885 0 00-.227-.617c-.147-.17-.349-.256-.606-.256-.258 0-.462.085-.613.256a.899.899 0 00-.22.617.92.92 0 00.22.622c.151.167.355.25.613.25zm4.166.68c-.323 0-.611-.068-.864-.204a1.622 1.622 0 01-.6-.558 1.47 1.47 0 01-.221-.791c0-.291.074-.553.221-.786a1.56 1.56 0 01.6-.558c.253-.14.541-.21.864-.21.322 0 .61.07.863.21.254.135.454.322.601.558.147.233.22.495.22.786 0 .29-.073.554-.22.79a1.617 1.617 0 01-.601.56 1.797 1.797 0 01-.863.203zm0-.68c.257 0 .459-.084.606-.25a.907.907 0 00.227-.623.885.885 0 00-.227-.617c-.147-.17-.349-.256-.606-.256-.258 0-.462.085-.613.256a.899.899 0 00-.22.617.92.92 0 00.22.622c.151.167.355.25.613.25z" fill="#7BE159" fill-opacity=".8"/><path d="M362 100.443H239v5.905a3 3 0 003 3h117a3 3 0 003-3v-5.905z" fill="#1E4843"/><path d="M358.652 103.464h-33.664a.47.47 0 01-.477-.461.47.47 0 01.477-.461h33.664a.47.47 0 01.477.461.477.477 0 01-.477.461z" fill="#fff"/><path d="M324.979 103.464h-82.455a.47.47 0 01-.477-.461.47.47 0 01.477-.461h82.455a.47.47 0 01.477.461.47.47 0 01-.477.461z" fill="#03D218"/><path d="M325.991 103.003c0 .537-.448.97-1.003.97-.555 0-1.003-.433-1.003-.97 0-.536.448-.969 1.003-.969.545 0 1.003.433 1.003.969z" fill="#FFFDFF"/><path d="M248.257 105.574h.643v2.127h-.643v-2.127zm-1.236 2.127h.642v-2.127h-.642v2.127zm6.113-2.127v.856l-1.353-.856v2.127l1.353-.856v.856h.643v-2.127h-.643zm-10.99 0v2.127h.642v-.856l1.353.856v-2.127l-1.353.856v-.856h-.642zm106.987.575l-.064-.147s.149-.333.133-.343l-.197-.19c-.016-.011-.353.137-.353.137l-.155-.063s-.139-.338-.155-.338h-.277c-.022 0-.144.338-.144.338l-.155.063s-.342-.142-.358-.132l-.198.19c-.016.011.145.338.145.338l-.065.147s-.347.132-.347.148v.269c0 .021.347.142.347.142l.065.148s-.15.332-.134.343l.198.19c.01.01.347-.137.347-.137l.155.063s.138.338.154.338h.278c.022 0 .144-.338.144-.338l.155-.063s.342.142.358.132l.198-.19c.016-.016-.145-.338-.145-.338l.064-.148s.348-.131.348-.153v-.269c.005-.01-.342-.137-.342-.137zm-.513.285a.402.402 0 01-.406.396.4.4 0 01-.406-.396c0-.216.182-.39.406-.39a.394.394 0 01.406.39zm5.736.869h-3.073v-1.749h3.073v1.749zm-2.846-.197h2.62v-1.36h-2.62v1.36zm5.974-1.622h.748v.728h.218v-.939h-.966v.211zm-1.173.729v-.728h.753v-.211h-.971v.939h.218zm1.921.406v.727h-.748v.211h.966v-.938h-.218zm-1.168.727h-.753v-.727h-.218v.938h.971v-.211z" fill="#fff"/><path d="M298.509 84.597l.012.25-.012-.25zm16.558-12.282c-2.007 7.783-9.874 11.714-16.57 12.033l.024.5c6.823-.326 14.948-4.335 17.03-12.408l-.484-.125zm-16.57 12.033c-3.477.165-6.747-.469-9.139-2.07-2.379-1.591-3.916-4.154-3.916-7.919h-.5c0 3.923 1.613 6.646 4.138 8.335 2.511 1.68 5.9 2.322 9.441 2.153l-.024-.5zm-13.055-9.989c0-1.863.693-3.953 1.89-6.05 1.195-2.094 2.885-4.18 4.856-6.03 3.951-3.708 8.986-6.429 13.38-6.429v-.5c-4.575 0-9.727 2.815-13.722 6.565-2.002 1.879-3.725 4.003-4.948 6.146-1.222 2.141-1.956 4.318-1.956 6.298h.5zm20.126-18.509c3.251 0 6.127 2.137 7.947 5.29 1.819 3.151 2.557 7.279 1.552 11.175l.484.125c1.04-4.032.276-8.293-1.603-11.55-1.877-3.252-4.894-5.54-8.38-5.54v.5z" fill="#fff" fill-opacity=".2"/><path d="M299.118 80.29l.012.25-.012-.25zm11.368-8.507c-1.376 5.334-6.772 8.038-11.38 8.258l.024.499c4.734-.226 10.39-3.008 11.84-8.632l-.484-.125zm-11.38 8.258c-2.393.114-4.634-.323-6.269-1.417-1.622-1.085-2.672-2.832-2.672-5.409h-.5c0 2.736 1.127 4.642 2.894 5.824 1.754 1.174 4.114 1.618 6.571 1.501l-.024-.5zm-8.941-6.826c0-1.27.473-2.7 1.296-4.142.822-1.44 1.984-2.875 3.342-4.15 2.723-2.556 6.185-4.421 9.193-4.421v-.5c-3.189 0-6.768 1.96-9.535 4.557-1.389 1.303-2.584 2.777-3.434 4.266-.849 1.486-1.362 3.004-1.362 4.39h.5zm13.831-12.713c2.211 0 4.176 1.453 5.425 3.617 1.248 2.161 1.754 4.993 1.065 7.664l.484.125c.724-2.807.192-5.773-1.116-8.039-1.306-2.263-3.413-3.867-5.858-3.867v.5z" fill="#fff"/><path d="M308.355 71.621c-1.062 4.119-5.216 6.18-8.727 6.348-3.645.174-6.917-1.325-6.917-5.318 0-3.993 5.925-9.744 10.584-9.744 3.499 0 6.122 4.596 5.06 8.715z" fill="url(#paint5_linear)"/><path d="M302.18 70.765l-2.249 1.256V69.51l2.249 1.255z" fill="#05B514"/><g clip-path="url(#clip0)"><path d="M336.497 78.865l-7.244-9.94-2.865 12.797 3.589-2.64.983 5.383 2.182-.688-1.312-5.448 4.667.536z" fill="#fff"/><path d="M337.646 79.898l-8.937-13.304-3.254 16.456 4.073-2.86 1.013 5.306 3.388-.875-1.014-5.308 4.731.585zm-4.878 3.938l-1.461.378-1.098-5.751-3.308 2.323 2.299-11.622 6.312 9.396-3.842-.475 1.098 5.751z" fill="#6B6B6B"/></g><path d="M347.337 82.374h-2.216a.4.4 0 01-.4-.4v-2.216a.721.721 0 00-1.442 0v2.216a.4.4 0 01-.4.4h-2.216a.72.72 0 000 1.442h2.216a.4.4 0 01.4.4v2.216a.721.721 0 001.442 0v-2.216a.4.4 0 01.4-.4h2.216a.72.72 0 000-1.442z" fill="#fff" stroke="#6B6B6B" stroke-width=".6"/><g filter="url(#filter2_d)"><rect x="133" y="209" width="214.667" height="28" rx="4" fill="#fff"/><rect x="142.643" y="219.81" width="168.119" height="6.571" rx="3.286" fill="#42F4DF" fill-opacity=".15"/><rect x="142.643" y="219.81" width="78.309" height="6.571" rx="3.286" fill="url(#paint6_linear)"/><path d="M329 218.597a.665.665 0 01-.677-.678v-1.242c0-.383.293-.677.677-.677.384 0 .677.294.677.677v1.242a.679.679 0 01-.677.678z" fill="#82E828" fill-opacity=".5"/><path d="M329 230a.665.665 0 01-.677-.677v-1.242c0-.384.293-.678.677-.678.384 0 .677.294.677.678v1.242A.665.665 0 01329 230z" fill="#3ED01F"/><path d="M326.449 219.274a.682.682 0 01-.588-.339l-.609-1.061a.691.691 0 01.248-.926.693.693 0 01.926.249l.61 1.061a.693.693 0 01-.249.926.839.839 0 01-.338.09z" fill="#82E828" fill-opacity=".38"/><path d="M332.161 229.142a.68.68 0 01-.587-.339l-.61-1.061a.693.693 0 01.249-.926.693.693 0 01.926.249l.609 1.061a.691.691 0 01-.248.926.635.635 0 01-.339.09z" fill="#3ED01F"/><path d="M324.597 221.126a.637.637 0 01-.339-.091l-1.061-.609a.693.693 0 01-.249-.926.691.691 0 01.926-.248l1.061.609c.317.181.429.61.249.926a.68.68 0 01-.587.339z" fill="#82E828" fill-opacity=".3"/><path d="M334.487 226.839a.637.637 0 01-.339-.091l-1.083-.609a.692.692 0 01-.249-.926.691.691 0 01.926-.248l1.061.609c.316.181.429.61.249.926a.621.621 0 01-.565.339z" fill="#82E828"/><path d="M323.919 223.677h-1.242A.665.665 0 01322 223c0-.384.294-.678.677-.678h1.242c.384 0 .678.294.678.678a.679.679 0 01-.678.677z" fill="#82E828" fill-opacity=".3"/><path d="M335.323 223.677h-1.242a.665.665 0 01-.678-.677c0-.384.294-.678.678-.678h1.242c.383 0 .677.294.677.678a.665.665 0 01-.677.677z" fill="#82E828"/><path d="M323.513 226.839a.68.68 0 01-.587-.339.691.691 0 01.248-.926l1.061-.609a.691.691 0 01.926.248.691.691 0 01-.248.926l-1.062.609a.54.54 0 01-.338.091z" fill="#3ED01F"/><path d="M333.403 221.126a.68.68 0 01-.587-.339.692.692 0 01.249-.926l1.061-.609a.691.691 0 01.926.248.693.693 0 01-.249.926l-1.061.609a.637.637 0 01-.339.091z" fill="#82E828"/><path d="M325.839 229.142a.635.635 0 01-.339-.09.691.691 0 01-.248-.926l.609-1.061a.693.693 0 01.926-.249c.316.181.429.61.249.926l-.61 1.061a.68.68 0 01-.587.339z" fill="#3ED01F"/><path d="M331.552 219.274a.635.635 0 01-.339-.09.693.693 0 01-.249-.926l.61-1.061a.693.693 0 01.926-.249c.316.181.429.61.248.926l-.609 1.061c-.136.204-.362.339-.587.339z" fill="#82E828" fill-opacity=".7"/></g><defs><linearGradient id="paint0_linear" x1="186.909" y1="52.853" x2="311.297" y2="143.48" gradientUnits="userSpaceOnUse"><stop stop-color="#DFF2EE"/><stop offset="1" stop-color="#E2F2EF"/></linearGradient><linearGradient id="paint1_linear" x1="159.296" y1="67.862" x2="283.372" y2="129.303" gradientUnits="userSpaceOnUse"><stop stop-color="#fff"/><stop offset="1" stop-color="#fff" stop-opacity=".96"/></linearGradient><linearGradient id="paint2_linear" x1="21" y1="30" x2="299" y2="30" gradientUnits="userSpaceOnUse"><stop stop-color="#39CA21"/><stop offset="1" stop-color="#6BDD24"/></linearGradient><linearGradient id="paint3_linear" x1="276.435" y1="32.272" x2="375.782" y2="117.747" gradientUnits="userSpaceOnUse"><stop stop-color="#01B213"/><stop offset="1" stop-color="#78EE1B" stop-opacity=".52"/></linearGradient><linearGradient id="paint4_linear" x1="251.364" y1="43.812" x2="355.897" y2="104.938" gradientUnits="userSpaceOnUse"><stop stop-color="#30CE2D"/><stop offset="1" stop-color="#3DCA33" stop-opacity=".96"/></linearGradient><linearGradient id="paint5_linear" x1="300.652" y1="62.907" x2="297.199" y2="79.406" gradientUnits="userSpaceOnUse"><stop stop-color="#fff"/><stop offset="1" stop-color="#fff"/></linearGradient><linearGradient id="paint6_linear" x1="142.643" y1="223.096" x2="211.095" y2="223.096" gradientUnits="userSpaceOnUse"><stop stop-color="#42F4DF" stop-opacity=".38"/><stop offset=".984" stop-color="#20B7D9" stop-opacity=".63"/></linearGradient><filter id="filter0_d" x="0" y="0" width="319" height="218" filterUnits="userSpaceOnUse" color-interpolation-filters="sRGB"><feFlood flood-opacity="0" result="BackgroundImageFix"/><feColorMatrix in="SourceAlpha" values="0 0 0 0 0 0 0 0 0 0 0 0 0 0 0 0 0 0 127 0"/><feOffset dy="5"/><feGaussianBlur stdDeviation="10.5"/><feColorMatrix values="0 0 0 0 0.623529 0 0 0 0 0.698039 0 0 0 0 0.686275 0 0 0 0.2 0"/><feBlend in2="BackgroundImageFix" result="effect1_dropShadow"/><feBlend in="SourceGraphic" in2="effect1_dropShadow" result="shape"/></filter><filter id="filter1_d" x="123.376" y="32.08" width="209.821" height="156.523" filterUnits="userSpaceOnUse" color-interpolation-filters="sRGB"><feFlood flood-opacity="0" result="BackgroundImageFix"/><feColorMatrix in="SourceAlpha" values="0 0 0 0 0 0 0 0 0 0 0 0 0 0 0 0 0 0 127 0"/><feOffset dx="15" dy="10"/><feGaussianBlur stdDeviation="22.5"/><feColorMatrix values="0 0 0 0 0.624167 0 0 0 0 0.7 0 0 0 0 0.686212 0 0 0 0.27 0"/><feBlend in2="BackgroundImageFix" result="effect1_dropShadow"/><feBlend in="SourceGraphic" in2="effect1_dropShadow" result="shape"/></filter><filter id="filter2_d" x="123" y="205" width="230.667" height="44" filterUnits="userSpaceOnUse" color-interpolation-filters="sRGB"><feFlood flood-opacity="0" result="BackgroundImageFix"/><feColorMatrix in="SourceAlpha" values="0 0 0 0 0 0 0 0 0 0 0 0 0 0 0 0 0 0 127 0"/><feOffset dx="-2" dy="4"/><feGaussianBlur stdDeviation="4"/><feColorMatrix values="0 0 0 0 0.623529 0 0 0 0 0.698039 0 0 0 0 0.686275 0 0 0 0.25 0"/><feBlend in2="BackgroundImageFix" result="effect1_dropShadow"/><feBlend in="SourceGraphic" in2="effect1_dropShadow" result="shape"/></filter><clipPath id="clip0"><path fill="#fff" transform="rotate(11.024 -178.033 1722.807) skewX(-.115)" d="M0 0h16.723v18.16H0z"/></clipPath></defs></svg>