<svg width="355" height="234" fill="none" xmlns="http://www.w3.org/2000/svg"><g filter="url(#filter0_d)"><rect x="21" y="32" width="277" height="176" rx="7" fill="#fff"/></g><rect x="153.067" y="82.872" width="120.672" height="64.03" rx="8" fill="#FBFBFB"/><path d="M39.144 61.927c-.518 0-.969-.107-1.354-.322a2.22 2.22 0 01-.88-.909c-.209-.397-.313-.861-.313-1.391v-4.402h1.297v2.679h.01c.145-.221.347-.395.605-.521.266-.126.55-.19.852-.19.474 0 .884.105 1.231.313.347.208.616.495.805.861.195.36.293.78.293 1.26 0 .505-.1.956-.303 1.353a2.22 2.22 0 01-.861.928c-.379.227-.84.34-1.382.34zm0-1.108c.385 0 .684-.135.9-.407.22-.277.33-.615.33-1.013 0-.397-.11-.732-.33-1.003-.215-.278-.515-.417-.9-.417s-.688.14-.91.417c-.214.271-.321.606-.321 1.003 0 .398.107.736.322 1.013.22.272.524.407.909.407zm5.962 1.108c-.442 0-.827-.114-1.155-.34a2.297 2.297 0 01-.767-.91 3.005 3.005 0 01-.265-1.268c0-.474.101-.903.303-1.288.208-.385.505-.688.89-.909.385-.227.846-.34 1.382-.34.543 0 1 .113 1.373.34.372.228.656.534.852.919.195.385.293.81.293 1.278v2.404h-1.297v-.804h-.019a2.09 2.09 0 01-.596.653c-.246.177-.578.265-.994.265zm.37-1.108c.378 0 .674-.139.889-.416.22-.278.331-.616.331-1.013 0-.392-.11-.723-.331-.994-.215-.278-.511-.417-.89-.417-.385 0-.688.14-.909.417-.22.271-.331.602-.331.994 0 .397.11.735.331 1.013.221.277.524.416.91.416zm4.332.994v-2.868c0-.379.092-.726.275-1.041.183-.316.444-.565.785-.748.347-.19.764-.284 1.25-.284.347 0 .66.06.937.18.278.12.514.284.71.492h.01c.202-.208.441-.373.719-.492.284-.12.6-.18.947-.18.486 0 .899.094 1.24.284.347.183.612.432.795.748.183.315.275.662.275 1.04v2.87h-1.297v-2.87a.902.902 0 00-.303-.68.983.983 0 00-.71-.285c-.278 0-.518.095-.72.284a.915.915 0 00-.293.682v2.868H53.13v-2.868a.902.902 0 00-.303-.682.984.984 0 00-.71-.284c-.278 0-.518.095-.72.284a.915.915 0 00-.293.682v2.868h-1.297zm12.238.114c-.517 0-.969-.107-1.354-.322a2.222 2.222 0 01-.88-.909c-.208-.397-.313-.861-.313-1.391v-4.402h1.297v2.679h.01c.145-.221.347-.395.606-.521a1.96 1.96 0 01.852-.19c.473 0 .883.105 1.23.313.348.208.616.495.805.861.196.36.294.78.294 1.26 0 .505-.101.956-.303 1.353a2.22 2.22 0 01-.862.928c-.378.227-.84.34-1.382.34zm0-1.108c.385 0 .685-.135.9-.407.22-.277.33-.615.33-1.013 0-.397-.11-.732-.33-1.003-.215-.278-.515-.417-.9-.417s-.688.14-.909.417c-.214.271-.322.606-.322 1.003 0 .398.108.736.322 1.013.221.272.524.407.91.407zm6.379 1.108c-.499 0-.944-.11-1.335-.331a2.57 2.57 0 01-.928-.91 2.486 2.486 0 01-.34-1.287 2.476 2.476 0 011.268-2.187 2.61 2.61 0 011.335-.34c.499 0 .944.113 1.335.34.391.221.7.524.927.91.228.378.341.804.341 1.277 0 .474-.113.903-.34 1.288a2.563 2.563 0 01-.928.909 2.68 2.68 0 01-1.335.33zm0-1.108c.398 0 .71-.135.937-.407a1.52 1.52 0 00.35-1.013c0-.397-.116-.732-.35-1.003-.227-.278-.54-.417-.937-.417-.398 0-.713.14-.947.417-.227.271-.34.606-.34 1.003 0 .398.113.736.34 1.013.234.272.55.407.947.407zm6.438 1.108c-.498 0-.943-.11-1.334-.331a2.555 2.555 0 01-.928-.91 2.486 2.486 0 01-.341-1.287 2.472 2.472 0 011.269-2.187c.39-.227.836-.34 1.334-.34.499 0 .944.113 1.335.34.392.221.7.524.928.91.227.378.34.804.34 1.277 0 .474-.113.903-.34 1.288a2.563 2.563 0 01-.928.909c-.391.22-.836.33-1.335.33zm0-1.108c.398 0 .71-.135.938-.407.233-.277.35-.615.35-1.013 0-.397-.117-.732-.35-1.003-.228-.278-.54-.417-.938-.417-.397 0-.713.14-.946.417-.228.271-.341.606-.341 1.003 0 .398.114.736.34 1.013.234.272.55.407.947.407z" fill="#009F10" fill-opacity=".27"/><rect x="93.239" y="56.135" width="188.396" height="5.336" rx="2.668" fill="#F1F2F4"/><circle cx="273.425" cy="185.015" r="9.03" fill="url(#paint0_linear)"/><path d="M276.283 180.363h-6.294c-.821 0-1.094.821-1.094 1.094-.092 1.825-.219 5.692 0 6.568.218.875.912 1.094 1.094 1.094h4.926l2.736 1.095v-8.757c0-.875-.912-1.094-1.368-1.094z" fill="#fff"/><path d="M270.263 186.656c.456.365 1.696 1.095 3.01 1.095 1.313 0 2.371-.73 2.736-1.095" stroke="#8720FC"/><path d="M66.125 73.862H39.371a2 2 0 00-2 2v18.083a2 2 0 002 2h26.754a2 2 0 002-2V75.862a2 2 0 00-2-2z" fill="url(#paint1_linear)"/><path d="M66.313 100.181h-26.91a1.802 1.802 0 100 3.605h26.91a1.803 1.803 0 000-3.605z" fill="url(#paint2_linear)"/><path d="M62.412 106.311h-23.01a1.802 1.802 0 100 3.605h23.01a1.803 1.803 0 000-3.605z" fill="url(#paint3_linear)"/><path d="M54.915 85.6l-3.441 2.76v-5.518l3.441 2.758z" fill="#fff"/><path d="M66.125 117.185H39.371a2 2 0 00-2 2v18.083a2 2 0 002 2h26.754a2 2 0 002-2v-18.083a2 2 0 00-2-2z" fill="url(#paint4_linear)"/><path d="M66.313 143.421h-26.91a1.803 1.803 0 000 3.605h26.91a1.802 1.802 0 100-3.605z" fill="url(#paint5_linear)"/><path d="M62.412 149.551h-23.01a1.802 1.802 0 100 3.605h23.01a1.803 1.803 0 000-3.605z" fill="url(#paint6_linear)"/><path d="M54.915 128.512l-3.441 2.758v-5.517l3.441 2.759z" fill="#fff"/><path d="M66.125 159.872H39.371a2 2 0 00-2 2v18.083a2 2 0 002 2h26.754a2 2 0 002-2v-18.083a2 2 0 00-2-2z" fill="url(#paint7_linear)"/><path d="M66.313 186.108h-26.91a1.803 1.803 0 000 3.606h26.91a1.803 1.803 0 000-3.606z" fill="url(#paint8_linear)"/><path d="M62.412 192.238h-23.01a1.803 1.803 0 000 3.605h23.01a1.802 1.802 0 100-3.605z" fill="url(#paint9_linear)"/><path d="M54.915 171.198l-3.441 2.759v-5.518l3.441 2.759z" fill="#fff"/><path d="M101 73.862H74.245a2 2 0 00-2 2v18.083a2 2 0 002 2H101a2 2 0 002-2V75.862a2 2 0 00-2-2z" fill="url(#paint10_linear)"/><path d="M101.187 100.181H74.048a1.803 1.803 0 000 3.606h27.139a1.803 1.803 0 100-3.606z" fill="url(#paint11_linear)"/><path d="M97.057 106.311H74.048a1.803 1.803 0 000 3.605h23.01a1.802 1.802 0 100-3.605z" fill="url(#paint12_linear)"/><path d="M89.79 85.6l-3.442 2.76v-5.518L89.79 85.6z" fill="#fff"/><path d="M101 117.185H74.245a2 2 0 00-2 2v18.083a2 2 0 002 2H101a2 2 0 002-2v-18.083a2 2 0 00-2-2z" fill="url(#paint13_linear)"/><path d="M101.187 143.446H74.048a1.803 1.803 0 000 3.606h27.139a1.803 1.803 0 000-3.606z" fill="url(#paint14_linear)"/><path d="M97.057 149.575H74.048a1.803 1.803 0 000 3.605h23.01a1.802 1.802 0 100-3.605z" fill="url(#paint15_linear)"/><path d="M89.79 128.512l-3.442 2.758v-5.517l3.442 2.759z" fill="#fff"/><path d="M101 159.871H74.245a2 2 0 00-2 2v18.083a2 2 0 002 2H101a2 2 0 002-2v-18.083a2 2 0 00-2-2z" fill="url(#paint16_linear)"/><path d="M101.187 186.133H74.048a1.803 1.803 0 000 3.605h27.139a1.802 1.802 0 100-3.605z" fill="url(#paint17_linear)"/><path d="M97.057 192.261H74.048a1.803 1.803 0 000 3.606h23.01a1.803 1.803 0 100-3.606z" fill="url(#paint18_linear)"/><path d="M89.79 171.198l-3.442 2.759v-5.518l3.442 2.759z" fill="#fff"/><path d="M136 73.862h-26.755a2 2 0 00-2 2v18.083a2 2 0 002 2H136a2 2 0 002-2V75.862a2 2 0 00-2-2z" fill="url(#paint19_linear)"/><path d="M136.187 100.181h-27.139a1.803 1.803 0 100 3.606h27.139a1.803 1.803 0 100-3.606z" fill="url(#paint20_linear)"/><path d="M132.057 106.311h-23.009a1.803 1.803 0 100 3.605h23.009a1.802 1.802 0 100-3.605z" fill="url(#paint21_linear)"/><path d="M124.79 85.6l-3.442 2.76v-5.518l3.442 2.758z" fill="#fff"/><path d="M136 117.185h-26.755a2 2 0 00-2 2v18.083a2 2 0 002 2H136a2 2 0 002-2v-18.083a2 2 0 00-2-2z" fill="url(#paint22_linear)"/><path d="M136.187 143.446h-27.139a1.803 1.803 0 100 3.606h27.139a1.803 1.803 0 000-3.606z" fill="url(#paint23_linear)"/><path d="M132.057 149.575h-23.009a1.803 1.803 0 100 3.605h23.009a1.802 1.802 0 100-3.605z" fill="url(#paint24_linear)"/><path d="M124.79 128.512l-3.442 2.758v-5.517l3.442 2.759z" fill="#fff"/><path d="M136 159.871h-26.755a2 2 0 00-2 2v18.083a2 2 0 002 2H136a2 2 0 002-2v-18.083a2 2 0 00-2-2z" fill="url(#paint25_linear)"/><path d="M136.187 186.133h-27.139a1.803 1.803 0 100 3.605h27.139a1.802 1.802 0 100-3.605z" fill="url(#paint26_linear)"/><path d="M132.057 192.261h-23.009a1.803 1.803 0 000 3.606h23.009a1.803 1.803 0 100-3.606z" fill="url(#paint27_linear)"/><path d="M124.79 171.198l-3.442 2.759v-5.518l3.442 2.759z" fill="#fff"/><path d="M21 39a7 7 0 017-7h264a7 7 0 017 7v7H21v-7z" fill="url(#paint28_linear)"/><circle cx="37" cy="39" r="2" fill="#6AC2FC"/><circle cx="44" cy="39" r="2" fill="#F1EE33" fill-opacity=".8"/><circle cx="51" cy="39" r="2" fill="#89E23A"/><path d="M269.951 136.432V77a3 3 0 00-3-3H150a3 3 0 00-3 3v59.432h122.951z" fill="url(#paint29_linear)"/><path d="M252.063 136.485h-19.208l37.084-31.877v16.511l-17.876 15.366zm-48.138 0h6.53l59.494-51.14v-5.612l-66.024 56.752zM147 97.398v5.613l33.669-28.94h-6.53L147 97.398zm67.376-23.32h-28.453l-38.913 33.45v24.457l67.366-57.906z" fill="url(#paint30_linear)" fill-opacity=".3"/><path d="M270 136.443H147v5.905a3 3 0 003 3h117a3 3 0 003-3v-5.905z" fill="#4D2A71"/><path d="M266.652 139.464h-33.664a.47.47 0 01-.477-.461.47.47 0 01.477-.461h33.664a.47.47 0 01.477.461.477.477 0 01-.477.461z" fill="#fff"/><path d="M232.979 139.464h-82.455a.47.47 0 01-.477-.461.47.47 0 01.477-.461h82.455a.47.47 0 01.477.461.47.47 0 01-.477.461z" fill="#03D218"/><path d="M233.991 139.003c0 .537-.448.97-1.003.97-.555 0-1.002-.433-1.002-.97 0-.536.447-.969 1.002-.969.545 0 1.003.433 1.003.969z" fill="#FFFDFF"/><path d="M156.257 141.574h.643v2.127h-.643v-2.127zm-1.236 2.127h.642v-2.127h-.642v2.127zm6.113-2.127v.856l-1.353-.856v2.127l1.353-.856v.856h.643v-2.127h-.643zm-10.99 0v2.127h.642v-.856l1.353.856v-2.127l-1.353.856v-.856h-.642zm106.987.575l-.064-.147s.149-.333.133-.343l-.197-.19c-.016-.011-.353.137-.353.137l-.155-.063s-.138-.338-.154-.338h-.278c-.022 0-.144.338-.144.338l-.155.063s-.342-.142-.358-.132l-.198.19c-.016.011.145.338.145.338l-.064.147s-.348.132-.348.148v.269c0 .021.348.142.348.142l.064.148s-.15.332-.134.343l.198.19c.01.01.347-.137.347-.137l.155.063s.138.338.155.338h.277c.022 0 .144-.338.144-.338l.155-.063s.342.142.358.132l.198-.19c.016-.016-.145-.338-.145-.338l.065-.148s.347-.131.347-.153v-.269c.005-.01-.342-.137-.342-.137zm-.513.285a.402.402 0 01-.406.396.398.398 0 01-.405-.396c0-.216.181-.39.405-.39a.394.394 0 01.406.39zm5.736.869h-3.073v-1.749h3.073v1.749zm-2.846-.197h2.62v-1.36h-2.62v1.36zm5.974-1.622h.747v.728h.219v-.939h-.966v.211zm-1.173.729v-.728h.753v-.211h-.971v.939h.218zm1.92.406v.727h-.747v.211h.966v-.938h-.219zm-1.167.727h-.753v-.727h-.218v.938h.971v-.211z" fill="#fff"/><g clip-path="url(#clip0)" fill="#D2D5F6"><path d="M194.252 185.774h-4.313c-.701-2.334-2.846-4.049-5.405-4.049s-4.702 1.715-5.404 4.049h-20.51a1.62 1.62 0 000 3.239h20.51c.701 2.334 2.845 4.049 5.404 4.049 2.559 0 4.702-1.715 5.405-4.049h4.313a1.62 1.62 0 100-3.239zm-9.718 4.049a2.432 2.432 0 01-2.429-2.43 2.432 2.432 0 012.429-2.429c1.34 0 2.43 1.09 2.43 2.429 0 1.34-1.09 2.43-2.43 2.43zm9.718-29.964h-4.313c-.703-2.333-2.846-4.049-5.405-4.049s-4.702 1.716-5.404 4.049h-20.51a1.62 1.62 0 000 3.24h20.51c.702 2.334 2.845 4.049 5.404 4.049 2.559 0 4.702-1.715 5.405-4.049h4.313a1.62 1.62 0 100-3.24zm-9.718 4.05a2.432 2.432 0 01-2.429-2.43 2.432 2.432 0 012.429-2.429c1.34 0 2.43 1.09 2.43 2.429 0 1.34-1.09 2.43-2.43 2.43zm9.718 8.907h-20.509c-.703-2.334-2.846-4.049-5.405-4.049s-4.702 1.715-5.405 4.049h-4.313a1.62 1.62 0 000 3.239h4.313c.703 2.334 2.846 4.05 5.405 4.05s4.702-1.716 5.404-4.05h20.51a1.619 1.619 0 100-3.239zm-25.914 4.049c-1.34 0-2.43-1.09-2.43-2.429 0-1.34 1.09-2.43 2.43-2.43a2.432 2.432 0 012.429 2.43 2.432 2.432 0 01-2.429 2.429z"/></g><g clip-path="url(#clip1)" fill="#D2D5F6"><path d="M249.058 185.774h-4.313c-.702-2.334-2.846-4.049-5.405-4.049s-4.702 1.715-5.405 4.049h-20.51a1.62 1.62 0 000 3.239h20.51c.701 2.334 2.846 4.049 5.405 4.049s4.702-1.715 5.405-4.049h4.313a1.62 1.62 0 000-3.239zm-9.718 4.049c-1.34 0-2.43-1.09-2.43-2.43a2.432 2.432 0 012.43-2.429 2.432 2.432 0 012.429 2.429c0 1.34-1.09 2.43-2.429 2.43zm9.718-29.964h-4.313c-.703-2.333-2.846-4.049-5.405-4.049s-4.702 1.716-5.405 4.049h-20.51a1.62 1.62 0 000 3.24h20.51c.703 2.334 2.846 4.049 5.405 4.049s4.702-1.715 5.405-4.049h4.313a1.62 1.62 0 000-3.24zm-9.718 4.05c-1.34 0-2.43-1.09-2.43-2.43a2.432 2.432 0 012.43-2.429 2.432 2.432 0 012.429 2.429c0 1.34-1.09 2.43-2.429 2.43zm9.718 8.907h-20.51c-.703-2.334-2.846-4.049-5.405-4.049s-4.702 1.715-5.405 4.049h-4.313a1.62 1.62 0 000 3.239h4.313c.703 2.334 2.846 4.05 5.405 4.05s4.702-1.716 5.405-4.05h20.51a1.619 1.619 0 100-3.239zm-25.915 4.049a2.432 2.432 0 01-2.429-2.429c0-1.34 1.09-2.43 2.429-2.43 1.34 0 2.43 1.09 2.43 2.43a2.432 2.432 0 01-2.43 2.429z"/></g><g filter="url(#filter1_d)"><rect x="197" y="20" width="134" height="92" rx="6" fill="#fff"/></g><path fill="#FF8D7E" d="M209.117 36.058h11.404v10.691h-11.404z"/><path fill="#FFF97B" d="M225.511 36.058h11.404v10.691h-11.404z"/><path fill="#7DEA80" d="M241.904 36.058h11.404v10.691h-11.404z"/><path fill="#00DE7E" d="M258.298 36.058h11.404v10.691h-11.404z"/><path fill="#00E6FF" d="M274.691 36.058h11.404v10.691h-11.404z"/><path fill="#FF96BF" d="M291.085 36.058h11.404v10.691h-11.404z"/><path fill="#FF97FB" d="M307.479 36.058h11.404v10.691h-11.404z"/><path fill="#FF1900" d="M209.117 51.738h11.404v10.691h-11.404z"/><path fill="#FFF000" d="M225.511 51.738h11.404v10.691h-11.404z"/><path fill="#82E300" d="M241.904 51.738h11.404v10.691h-11.404z"/><path fill="#00DB3C" d="M258.298 51.738h11.404v10.691h-11.404z"/><path fill="#007CF8" d="M274.691 51.738h11.404v10.691h-11.404z"/><path fill="#8284BD" d="M291.085 51.738h11.404v10.691h-11.404z"/><path fill="#FF2DFF" d="M307.479 51.738h11.404v10.691h-11.404z"/><path fill="#890D11" d="M209.117 67.419h11.404V78.11h-11.404z"/><path fill="#FF890D" d="M225.511 67.419h11.404V78.11h-11.404z"/><path fill="#016C0B" d="M241.904 67.419h11.404V78.11h-11.404z"/><path fill="#025B3E" d="M258.298 67.419h11.404V78.11h-11.404z"/><path stroke="#fff" d="M289.103 65.617h15.655v14.614h-15.655z"/><path stroke="#4351FC" d="M289.103 65.617h15.655v14.614h-15.655z"/><path fill="#4351FC" d="M274.691 67.419h11.404V78.11h-11.404z"/><path fill="#8720FC" d="M291.085 67.419h11.404V78.11h-11.404z"/><path fill="#85177E" d="M307.479 67.419h11.404V78.11h-11.404z"/><path fill="#460B07" d="M209.117 83.1h11.404v10.691h-11.404z"/><path fill="#7C4104" d="M225.511 83.1h11.404v10.691h-11.404z"/><path fill="#0A3206" d="M241.904 83.1h11.404v10.691h-11.404z"/><path fill="#013133" d="M258.298 83.1h11.404v10.691h-11.404z"/><path fill="#0708A5" d="M274.691 83.1h11.404v10.691h-11.404z"/><path fill="#000" d="M291.085 83.1h11.404v10.691h-11.404z"/><path fill="#fff" stroke="#E3E6F2" d="M307.979 83.6h10.404v9.691h-10.404z"/><defs><linearGradient id="paint0_linear" x1="266.037" y1="177.08" x2="273.425" y2="194.045" gradientUnits="userSpaceOnUse"><stop stop-color="#8720FC"/><stop offset="1" stop-color="#8720FC"/></linearGradient><linearGradient id="paint1_linear" x1="52.748" y1="73.862" x2="52.748" y2="95.945" gradientUnits="userSpaceOnUse"><stop stop-color="#D2D5F7"/><stop offset="1" stop-color="#D0D3F2"/></linearGradient><linearGradient id="paint2_linear" x1="52.858" y1="100.181" x2="52.858" y2="103.786" gradientUnits="userSpaceOnUse"><stop stop-color="#D2D5F7"/><stop offset="1" stop-color="#D0D3F2"/></linearGradient><linearGradient id="paint3_linear" x1="50.907" y1="106.311" x2="50.907" y2="109.916" gradientUnits="userSpaceOnUse"><stop stop-color="#D2D5F7"/><stop offset="1" stop-color="#D0D3F2"/></linearGradient><linearGradient id="paint4_linear" x1="52.748" y1="117.185" x2="52.748" y2="139.268" gradientUnits="userSpaceOnUse"><stop stop-color="#D2D5F7"/><stop offset="1" stop-color="#D0D3F2"/></linearGradient><linearGradient id="paint5_linear" x1="52.858" y1="143.421" x2="52.858" y2="147.026" gradientUnits="userSpaceOnUse"><stop stop-color="#D2D5F7"/><stop offset="1" stop-color="#D0D3F2"/></linearGradient><linearGradient id="paint6_linear" x1="50.907" y1="149.551" x2="50.907" y2="153.156" gradientUnits="userSpaceOnUse"><stop stop-color="#D2D5F7"/><stop offset="1" stop-color="#D0D3F2"/></linearGradient><linearGradient id="paint7_linear" x1="52.748" y1="159.872" x2="52.748" y2="181.955" gradientUnits="userSpaceOnUse"><stop stop-color="#D2D5F7"/><stop offset="1" stop-color="#D0D3F2"/></linearGradient><linearGradient id="paint8_linear" x1="52.858" y1="186.108" x2="52.858" y2="189.714" gradientUnits="userSpaceOnUse"><stop stop-color="#D2D5F7"/><stop offset="1" stop-color="#D0D3F2"/></linearGradient><linearGradient id="paint9_linear" x1="50.907" y1="192.238" x2="50.907" y2="195.843" gradientUnits="userSpaceOnUse"><stop stop-color="#D2D5F7"/><stop offset="1" stop-color="#D0D3F2"/></linearGradient><linearGradient id="paint10_linear" x1="87.623" y1="73.862" x2="87.623" y2="95.945" gradientUnits="userSpaceOnUse"><stop stop-color="#D2D5F7"/><stop offset="1" stop-color="#D0D3F2"/></linearGradient><linearGradient id="paint11_linear" x1="87.618" y1="100.181" x2="87.618" y2="103.787" gradientUnits="userSpaceOnUse"><stop stop-color="#D2D5F7"/><stop offset="1" stop-color="#D0D3F2"/></linearGradient><linearGradient id="paint12_linear" x1="85.553" y1="106.311" x2="85.553" y2="109.916" gradientUnits="userSpaceOnUse"><stop stop-color="#D2D5F7"/><stop offset="1" stop-color="#D0D3F2"/></linearGradient><linearGradient id="paint13_linear" x1="87.623" y1="117.185" x2="87.623" y2="139.268" gradientUnits="userSpaceOnUse"><stop stop-color="#D2D5F7"/><stop offset="1" stop-color="#D0D3F2"/></linearGradient><linearGradient id="paint14_linear" x1="87.618" y1="143.446" x2="87.618" y2="147.052" gradientUnits="userSpaceOnUse"><stop stop-color="#D2D5F7"/><stop offset="1" stop-color="#D0D3F2"/></linearGradient><linearGradient id="paint15_linear" x1="85.553" y1="149.575" x2="85.553" y2="153.18" gradientUnits="userSpaceOnUse"><stop stop-color="#D2D5F7"/><stop offset="1" stop-color="#D0D3F2"/></linearGradient><linearGradient id="paint16_linear" x1="87.623" y1="159.871" x2="87.623" y2="181.954" gradientUnits="userSpaceOnUse"><stop stop-color="#D2D5F7"/><stop offset="1" stop-color="#D0D3F2"/></linearGradient><linearGradient id="paint17_linear" x1="87.618" y1="186.133" x2="87.618" y2="189.738" gradientUnits="userSpaceOnUse"><stop stop-color="#D2D5F7"/><stop offset="1" stop-color="#D0D3F2"/></linearGradient><linearGradient id="paint18_linear" x1="85.553" y1="192.261" x2="85.553" y2="195.867" gradientUnits="userSpaceOnUse"><stop stop-color="#D2D5F7"/><stop offset="1" stop-color="#D0D3F2"/></linearGradient><linearGradient id="paint19_linear" x1="122.623" y1="73.862" x2="122.623" y2="95.945" gradientUnits="userSpaceOnUse"><stop stop-color="#D2D5F7"/><stop offset="1" stop-color="#D0D3F2"/></linearGradient><linearGradient id="paint20_linear" x1="122.618" y1="100.181" x2="122.618" y2="103.787" gradientUnits="userSpaceOnUse"><stop stop-color="#D2D5F7"/><stop offset="1" stop-color="#D0D3F2"/></linearGradient><linearGradient id="paint21_linear" x1="120.553" y1="106.311" x2="120.553" y2="109.916" gradientUnits="userSpaceOnUse"><stop stop-color="#D2D5F7"/><stop offset="1" stop-color="#D0D3F2"/></linearGradient><linearGradient id="paint22_linear" x1="122.623" y1="117.185" x2="122.623" y2="139.268" gradientUnits="userSpaceOnUse"><stop stop-color="#D2D5F7"/><stop offset="1" stop-color="#D0D3F2"/></linearGradient><linearGradient id="paint23_linear" x1="122.618" y1="143.446" x2="122.618" y2="147.052" gradientUnits="userSpaceOnUse"><stop stop-color="#D2D5F7"/><stop offset="1" stop-color="#D0D3F2"/></linearGradient><linearGradient id="paint24_linear" x1="120.553" y1="149.575" x2="120.553" y2="153.18" gradientUnits="userSpaceOnUse"><stop stop-color="#D2D5F7"/><stop offset="1" stop-color="#D0D3F2"/></linearGradient><linearGradient id="paint25_linear" x1="122.623" y1="159.871" x2="122.623" y2="181.954" gradientUnits="userSpaceOnUse"><stop stop-color="#D2D5F7"/><stop offset="1" stop-color="#D0D3F2"/></linearGradient><linearGradient id="paint26_linear" x1="122.618" y1="186.133" x2="122.618" y2="189.738" gradientUnits="userSpaceOnUse"><stop stop-color="#D2D5F7"/><stop offset="1" stop-color="#D0D3F2"/></linearGradient><linearGradient id="paint27_linear" x1="120.553" y1="192.261" x2="120.553" y2="195.867" gradientUnits="userSpaceOnUse"><stop stop-color="#D2D5F7"/><stop offset="1" stop-color="#D0D3F2"/></linearGradient><linearGradient id="paint28_linear" x1="21" y1="46" x2="299" y2="46" gradientUnits="userSpaceOnUse"><stop stop-color="#8720FC"/><stop offset="1" stop-color="#AF7AEC"/></linearGradient><linearGradient id="paint29_linear" x1="184.435" y1="68.272" x2="283.782" y2="153.747" gradientUnits="userSpaceOnUse"><stop stop-color="#BABEE8"/><stop offset=".719" stop-color="#D8DBF8"/><stop offset="1" stop-color="#E3E6FE"/></linearGradient><linearGradient id="paint30_linear" x1="159.364" y1="79.811" x2="263.897" y2="140.938" gradientUnits="userSpaceOnUse"><stop stop-color="#A5ADF0"/><stop offset="1" stop-color="#8F99F0" stop-opacity=".96"/></linearGradient><clipPath id="clip0"><path fill="#fff" transform="translate(157 155)" d="M0 0h38.872v38.872H0z"/></clipPath><clipPath id="clip1"><path fill="#fff" transform="translate(211.805 155)" d="M0 0h38.872v38.872H0z"/></clipPath><filter id="filter0_d" x="0" y="16" width="319" height="218" filterUnits="userSpaceOnUse" color-interpolation-filters="sRGB"><feFlood flood-opacity="0" result="BackgroundImageFix"/><feColorMatrix in="SourceAlpha" values="0 0 0 0 0 0 0 0 0 0 0 0 0 0 0 0 0 0 127 0"/><feOffset dy="5"/><feGaussianBlur stdDeviation="10.5"/><feColorMatrix values="0 0 0 0 0.623529 0 0 0 0 0.698039 0 0 0 0 0.686275 0 0 0 0.2 0"/><feBlend in2="BackgroundImageFix" result="effect1_dropShadow"/><feBlend in="SourceGraphic" in2="effect1_dropShadow" result="shape"/></filter><filter id="filter1_d" x="173" y="0" width="182" height="140" filterUnits="userSpaceOnUse" color-interpolation-filters="sRGB"><feFlood flood-opacity="0" result="BackgroundImageFix"/><feColorMatrix in="SourceAlpha" values="0 0 0 0 0 0 0 0 0 0 0 0 0 0 0 0 0 0 127 0"/><feOffset dy="4"/><feGaussianBlur stdDeviation="12"/><feColorMatrix values="0 0 0 0 0 0 0 0 0 0 0 0 0 0 0 0 0 0 0.14 0"/><feBlend in2="BackgroundImageFix" result="effect1_dropShadow"/><feBlend in="SourceGraphic" in2="effect1_dropShadow" result="shape"/></filter></defs></svg>