<svg width="352" height="218" fill="none" xmlns="http://www.w3.org/2000/svg"><g filter="url(#filter0_d)"><rect x="39" y="16" width="276.642" height="176" rx="7" fill="#fff"/></g><path d="M299.096 139.504v-75.2a6 6 0 00-6-6H169.679a6 6 0 00-6 6v75.2h135.417z" fill="url(#paint0_linear)"/><path d="M279.395 139.572h-21.156l40.843-41.458v21.474l-19.687 19.984zm-53.019 0h7.191l65.526-66.512v-7.3l-72.717 73.812zm-62.697-50.836v7.3l37.082-37.64h-7.191l-29.891 30.34zm74.207-30.33h-31.337L163.69 101.91v31.81l74.196-75.314z" fill="url(#paint1_linear)" fill-opacity=".3"/><rect x="171.067" y="64.872" width="120.672" height="64.03" rx="8" fill="#FBFBFB"/><path fill="url(#paint2_linear)" fill-opacity=".8" d="M162.448 145.73h136.679v31.194H162.448z"/><path d="M57.144 43.927c-.518 0-.969-.107-1.354-.322a2.22 2.22 0 01-.88-.909c-.209-.397-.313-.861-.313-1.391v-4.402h1.297v2.679h.01c.145-.221.347-.395.605-.521.266-.126.55-.19.852-.19.474 0 .884.105 1.231.313.347.208.616.495.805.861.195.36.293.78.293 1.26 0 .505-.1.956-.303 1.353a2.22 2.22 0 01-.861.928c-.379.227-.84.34-1.382.34zm0-1.108c.385 0 .684-.135.9-.407.22-.277.33-.615.33-1.013 0-.397-.11-.732-.33-1.003-.215-.278-.515-.417-.9-.417s-.688.14-.91.417c-.214.271-.321.606-.321 1.003 0 .398.107.736.322 1.013.22.272.524.407.909.407zm5.962 1.108c-.442 0-.827-.114-1.155-.34a2.297 2.297 0 01-.767-.91 3.005 3.005 0 01-.265-1.268c0-.474.101-.903.303-1.288.208-.385.505-.688.89-.909.385-.227.846-.34 1.382-.34.543 0 1 .113 1.373.34.372.228.656.534.852.919.195.385.293.81.293 1.278v2.404h-1.297v-.804h-.019a2.09 2.09 0 01-.596.653c-.246.177-.578.265-.994.265zm.37-1.108c.378 0 .674-.139.889-.416.22-.278.331-.616.331-1.013 0-.392-.11-.723-.331-.994-.215-.278-.511-.417-.89-.417-.385 0-.688.14-.909.417-.22.271-.331.602-.331.994 0 .397.11.735.331 1.013.221.277.524.416.91.416zm4.332.994v-2.868c0-.379.091-.726.274-1.041.184-.316.445-.565.786-.748.347-.19.764-.284 1.25-.284.347 0 .66.06.937.18.278.12.514.284.71.492h.01c.201-.208.441-.373.719-.492.284-.12.6-.18.947-.18.486 0 .899.094 1.24.284.347.183.612.432.795.748.183.315.275.662.275 1.04v2.87h-1.297v-2.87a.902.902 0 00-.303-.68.983.983 0 00-.71-.285c-.278 0-.518.095-.72.284a.915.915 0 00-.293.682v2.868H71.13v-2.868a.902.902 0 00-.303-.682.984.984 0 00-.71-.284c-.278 0-.518.095-.72.284a.915.915 0 00-.293.682v2.868h-1.297zm12.238.114c-.517 0-.969-.107-1.354-.322a2.222 2.222 0 01-.88-.909c-.208-.397-.313-.861-.313-1.391v-4.402h1.297v2.679h.01c.145-.221.347-.395.606-.521a1.96 1.96 0 01.852-.19c.473 0 .883.105 1.23.313.348.208.616.495.805.861.196.36.294.78.294 1.26 0 .505-.101.956-.303 1.353a2.22 2.22 0 01-.862.928c-.379.227-.84.34-1.382.34zm0-1.108c.385 0 .685-.135.9-.407.22-.277.33-.615.33-1.013 0-.397-.11-.732-.33-1.003-.215-.278-.515-.417-.9-.417s-.688.14-.909.417c-.214.271-.322.606-.322 1.003 0 .398.108.736.322 1.013.221.272.524.407.91.407zm6.379 1.108c-.499 0-.944-.11-1.335-.331a2.57 2.57 0 01-.928-.91 2.486 2.486 0 01-.34-1.287 2.476 2.476 0 011.268-2.187 2.61 2.61 0 011.335-.34c.499 0 .944.113 1.335.34.391.221.7.524.927.91.228.378.341.804.341 1.277 0 .474-.113.903-.34 1.288a2.563 2.563 0 01-.928.909 2.68 2.68 0 01-1.335.33zm0-1.108c.398 0 .71-.135.937-.407a1.52 1.52 0 00.35-1.013c0-.397-.116-.732-.35-1.003-.227-.278-.54-.417-.937-.417-.398 0-.713.14-.947.417-.227.271-.34.606-.34 1.003 0 .398.113.736.34 1.013.234.272.55.407.947.407zm6.438 1.108c-.498 0-.943-.11-1.334-.331a2.555 2.555 0 01-.928-.91 2.486 2.486 0 01-.341-1.287 2.472 2.472 0 011.269-2.187c.39-.227.836-.34 1.334-.34.499 0 .944.113 1.335.34.392.221.7.524.928.91.227.378.34.804.34 1.277 0 .474-.113.903-.34 1.288a2.563 2.563 0 01-.928.909c-.391.22-.836.33-1.335.33zm0-1.108c.398 0 .71-.135.938-.407.233-.277.35-.615.35-1.013 0-.397-.117-.732-.35-1.003-.228-.278-.54-.417-.938-.417-.397 0-.713.14-.946.417-.228.271-.341.606-.341 1.003 0 .398.114.736.34 1.013.234.272.55.407.947.407z" fill="#009F10" fill-opacity=".27"/><rect x="111.239" y="38.135" width="188.396" height="5.336" rx="2.668" fill="#DBEEEB"/><circle cx="291.425" cy="167.015" r="9.03" fill="url(#paint3_linear)"/><path d="M294.283 162.363h-6.294c-.821 0-1.094.821-1.094 1.094-.092 1.825-.219 5.692 0 6.568.218.875.912 1.094 1.094 1.094h4.926l2.736 1.095v-8.757c0-.875-.912-1.094-1.368-1.094z" fill="#fff"/><path d="M288.263 168.656c.456.365 1.696 1.095 3.01 1.095 1.313 0 2.371-.73 2.736-1.095" stroke="#27B9ED"/><g filter="url(#filter1_d)"><rect x="171.375" y="65.08" width="119.821" height="66.523" rx="4" fill="#fff"/></g><path d="M285.186 120.709V69.495H177.388v51.214h107.798z" fill="#EAF5F3"/><path d="M269.503 120.702h-16.841l32.514-26.156v13.548l-15.673 12.608zm-42.206 0h5.725l52.162-41.962v-4.606l-57.887 46.568zM177.386 88.63v4.605l29.52-23.747h-5.725L177.386 88.63zm59.074-19.135h-24.947L177.395 96.94v20.068l59.065-47.514z" fill="#fff" fill-opacity=".4"/><path d="M285.184 120.702H177.386v6.493h107.798v-6.493z" fill="#1E4843"/><path d="M282.249 122.903h-29.502c-.231 0-.418-.151-.418-.336 0-.185.187-.336.418-.336h29.502c.231 0 .418.151.418.336-.008.185-.187.336-.418.336z" fill="#fff"/><path d="M252.738 122.904h-72.263c-.23 0-.418-.151-.418-.336 0-.185.188-.336.418-.336h72.263c.231 0 .418.151.418.336 0 .185-.187.336-.418.336z" fill="#03D218"/><path d="M253.626 122.568c0 .391-.393.707-.879.707s-.879-.316-.879-.707c0-.391.393-.707.879-.707.478 0 .879.316.879.707z" fill="#FFFDFF"/><path d="M185.5 124.441h.563v1.551h-.563v-1.551zm-1.084 1.551h.564v-1.551h-.564v1.551zm5.358-1.551v.624l-1.186-.624v1.551l1.186-.625v.625h.563v-1.551h-.563zm-9.632 0v1.551h.563v-.625l1.186.625v-1.551l-1.186.624v-.624h-.563z" fill="#fff"/><path d="M280.658 125.017v-.302h.576v-.274h-.858v.576h.282zm1.04-.301h.577v.302h.281v-.577h-.858v.275zm-.464 1.05h-.576v-.295h-.282v.57h.858v-.275z" fill="#FFFDFF"/><path d="M282.275 125.471v.295h-.577v.275h.858v-.57h-.281z" fill="#fff"/><path d="M101.071 55.862h-38.7a2 2 0 00-2 2v18.083a2 2 0 002 2h38.7a2 2 0 002-2V57.862a2 2 0 00-2-2zm.183 26.318H62.492a1.803 1.803 0 100 3.606h38.762a1.803 1.803 0 000-3.605zm-5.416 6.13H62.492a1.803 1.803 0 100 3.606h33.346a1.803 1.803 0 000-3.606zm53.652-32.448h-38.699a2 2 0 00-2 2v18.083a2 2 0 002 2h38.699a2 2 0 002-2V57.863a2 2 0 00-2-2zm.183 26.32h-39.08a1.802 1.802 0 000 3.605h39.08a1.803 1.803 0 100-3.605zm-5.733 6.129h-33.347a1.802 1.802 0 000 3.606h33.347a1.802 1.802 0 000-3.606z" fill="#DBEEEB"/><path d="M84.73 67.6l-4.779 2.76v-5.518L84.73 67.6zm48.419 0l-4.778 2.76v-5.518l4.778 2.758z" fill="#fff"/><path d="M101.071 99.184h-38.7a2 2 0 00-2 2v18.083a2 2 0 002 2h38.7a2 2 0 002-2v-18.083a2 2 0 00-2-2zm.183 26.237H62.492a1.802 1.802 0 100 3.605h38.762a1.803 1.803 0 000-3.605zm-5.416 6.129H62.492a1.803 1.803 0 100 3.606h33.346a1.803 1.803 0 000-3.606zm53.652-32.365h-38.699a2 2 0 00-2 2v18.083a2 2 0 002 2h38.699a2 2 0 002-2v-18.083a2 2 0 00-2-2zm.183 26.261h-39.08a1.803 1.803 0 100 3.606h39.08a1.803 1.803 0 000-3.606zm-5.734 6.129h-33.346a1.803 1.803 0 100 3.605h33.346a1.802 1.802 0 100-3.605z" fill="#DBEEEB"/><path d="M84.73 110.512l-4.779 2.758v-5.517l4.779 2.759zm48.419 0l-4.778 2.758v-5.517l4.778 2.759z" fill="#fff"/><path d="M101.071 141.872h-38.7a2 2 0 00-2 2v18.083a2 2 0 002 2h38.7a2 2 0 002-2v-18.083a2 2 0 00-2-2zm.183 26.236H62.492a1.803 1.803 0 100 3.606h38.762a1.803 1.803 0 000-3.606zm-5.416 6.13H62.492a1.803 1.803 0 100 3.605h33.346a1.802 1.802 0 100-3.605zm53.652-32.367h-38.699a2 2 0 00-2 2v18.083a2 2 0 002 2h38.699a2 2 0 002-2v-18.083a2 2 0 00-2-2zm.183 26.262h-39.08a1.803 1.803 0 100 3.605h39.08a1.802 1.802 0 100-3.605zm-5.734 6.129h-33.346a1.802 1.802 0 100 3.605h33.346a1.803 1.803 0 100-3.605z" fill="#DBEEEB"/><path d="M84.73 153.198l-4.779 2.759v-5.518l4.779 2.759zm48.419 0l-4.778 2.759v-5.518l4.778 2.759z" fill="#fff"/><path d="M292.951 125.432V66a3 3 0 00-3-3H173a3 3 0 00-3 3v59.432h122.951z" fill="url(#paint4_linear)"/><path d="M275.063 125.485h-19.208l37.084-31.877v16.511l-17.876 15.366zm-48.138 0h6.53l59.494-51.14v-5.612l-66.024 56.752zM170 86.398v5.613l33.669-28.94h-6.53L170 86.398zm67.376-23.32h-28.453l-38.913 33.45v24.457l67.366-57.906z" fill="url(#paint5_linear)" fill-opacity=".3"/><path d="M176.971 120.782c-.335 0-.627-.066-.876-.198a1.396 1.396 0 01-.569-.558 1.745 1.745 0 01-.203-.856v-2.705h.84v1.647h.006a.94.94 0 01.392-.32c.171-.078.355-.117.551-.117.306 0 .572.064.796.192.225.128.399.305.521.53.127.221.19.479.19.773 0 .311-.065.588-.196.832a1.397 1.397 0 01-.557.571c-.245.139-.544.209-.895.209zm0-.681c.249 0 .443-.083.582-.25a.937.937 0 00.215-.622.915.915 0 00-.215-.617c-.139-.171-.333-.256-.582-.256-.249 0-.445.085-.588.256a.93.93 0 00-.208.617c0 .244.069.451.208.622.143.167.339.25.588.25zm3.858.681c-.286 0-.535-.07-.747-.209a1.427 1.427 0 01-.496-.559 1.76 1.76 0 01-.172-.78c0-.29.065-.554.196-.791a1.44 1.44 0 01.576-.558c.249-.14.547-.21.894-.21.351 0 .647.07.888.21.241.139.425.327.552.564.126.237.19.498.19.785v1.478h-.84v-.494h-.012a1.301 1.301 0 01-.386.401c-.159.109-.373.163-.643.163zm.239-.681c.245 0 .437-.085.576-.256a.935.935 0 00.214-.622.906.906 0 00-.214-.611c-.139-.171-.331-.256-.576-.256-.249 0-.445.085-.588.256a.906.906 0 00-.214.611c0 .244.071.452.214.622.143.171.339.256.588.256zm2.804.611v-1.763c0-.232.059-.446.177-.64.119-.194.288-.347.509-.459.224-.117.494-.175.808-.175.225 0 .427.037.607.111.179.073.332.174.459.302h.006c.131-.128.286-.229.466-.302.183-.074.388-.111.612-.111.315 0 .582.058.803.175a1.202 1.202 0 01.692 1.099v1.763h-.839v-1.763a.545.545 0 00-.196-.419.657.657 0 00-.46-.174.677.677 0 00-.465.174.549.549 0 00-.19.419v1.763h-.839v-1.763a.545.545 0 00-.196-.419.657.657 0 00-.46-.174.677.677 0 00-.465.174.549.549 0 00-.19.419v1.763h-.839zm7.918.07c-.335 0-.627-.066-.876-.198a1.396 1.396 0 01-.569-.558 1.744 1.744 0 01-.202-.856v-2.705h.839v1.647h.006a.94.94 0 01.392-.32c.171-.078.355-.117.551-.117.306 0 .572.064.796.192.225.128.399.305.521.53.127.221.19.479.19.773 0 .311-.065.588-.196.832a1.397 1.397 0 01-.557.571c-.245.139-.544.209-.895.209zm0-.681c.249 0 .443-.083.582-.25a.937.937 0 00.215-.622.915.915 0 00-.215-.617c-.139-.171-.333-.256-.582-.256-.249 0-.445.085-.588.256a.93.93 0 00-.208.617c0 .244.069.451.208.622.143.167.339.25.588.25zm4.128.681c-.323 0-.611-.068-.864-.204a1.613 1.613 0 01-.6-.558 1.47 1.47 0 01-.221-.791c0-.291.074-.553.221-.786.147-.236.347-.423.6-.558.253-.14.541-.21.864-.21.322 0 .61.07.863.21.254.135.454.322.601.558.147.233.22.495.22.786 0 .291-.073.554-.22.791a1.609 1.609 0 01-.601.558 1.795 1.795 0 01-.863.204zm0-.681c.257 0 .459-.083.606-.25a.907.907 0 00.227-.622.885.885 0 00-.227-.617c-.147-.171-.349-.256-.606-.256-.258 0-.462.085-.613.256a.899.899 0 00-.22.617.92.92 0 00.22.622c.151.167.355.25.613.25zm4.166.681c-.323 0-.611-.068-.864-.204a1.613 1.613 0 01-.6-.558 1.47 1.47 0 01-.221-.791c0-.291.074-.553.221-.786.147-.236.347-.423.6-.558.253-.14.541-.21.864-.21.322 0 .61.07.863.21.254.135.454.322.601.558.147.233.22.495.22.786 0 .291-.073.554-.22.791a1.609 1.609 0 01-.601.558 1.795 1.795 0 01-.863.204zm0-.681c.257 0 .459-.083.606-.25a.907.907 0 00.227-.622.885.885 0 00-.227-.617c-.147-.171-.349-.256-.606-.256-.258 0-.462.085-.613.256a.899.899 0 00-.22.617.92.92 0 00.22.622c.151.167.355.25.613.25z" fill="#7BE159" fill-opacity=".8"/><path d="M293 125.443H170v5.905a3 3 0 003 3h117a3 3 0 003-3v-5.905z" fill="#1E4843"/><path d="M289.652 128.464h-33.664a.47.47 0 01-.477-.461.47.47 0 01.477-.461h33.664a.47.47 0 01.477.461.477.477 0 01-.477.461z" fill="#fff"/><path d="M255.979 128.464h-82.455a.47.47 0 01-.477-.461.47.47 0 01.477-.461h82.455a.47.47 0 01.477.461.47.47 0 01-.477.461z" fill="#03D218"/><path d="M256.991 128.003c0 .537-.448.97-1.003.97-.555 0-1.002-.433-1.002-.97 0-.536.447-.969 1.002-.969.545 0 1.003.433 1.003.969z" fill="#FFFDFF"/><path d="M179.257 130.574h.643v2.127h-.643v-2.127zm-1.236 2.127h.642v-2.127h-.642v2.127zm6.113-2.127v.856l-1.353-.856v2.127l1.353-.856v.856h.643v-2.127h-.643zm-10.99 0v2.127h.642v-.856l1.353.856v-2.127l-1.353.856v-.856h-.642zm106.987.575l-.064-.147s.149-.333.133-.343l-.197-.19c-.016-.011-.353.137-.353.137l-.155-.063s-.138-.338-.154-.338h-.278c-.022 0-.144.338-.144.338l-.155.063s-.342-.142-.358-.132l-.198.19c-.016.011.145.338.145.338l-.064.147s-.348.132-.348.148v.269c0 .021.348.142.348.142l.064.148s-.15.332-.134.343l.198.19c.01.01.347-.137.347-.137l.155.063s.138.338.155.338h.277c.022 0 .144-.338.144-.338l.155-.063s.342.142.358.132l.198-.19c.016-.016-.145-.338-.145-.338l.065-.148s.347-.131.347-.153v-.269c.005-.01-.342-.137-.342-.137zm-.513.285a.402.402 0 01-.406.396.398.398 0 01-.405-.396c0-.216.181-.39.405-.39a.394.394 0 01.406.39zm5.736.869h-3.073v-1.749h3.073v1.749zm-2.846-.197h2.62v-1.36h-2.62v1.36zm5.974-1.622h.747v.728h.219v-.939h-.966v.211zm-1.173.729v-.728h.753v-.211h-.971v.939h.218zm1.92.406v.727h-.747v.211h.966v-.938h-.219zm-1.167.727h-.753v-.727h-.218v.938h.971v-.211z" fill="#fff"/><path d="M229.509 109.597l.012.25-.012-.25zm16.558-12.282c-2.007 7.783-9.874 11.714-16.57 12.033l.024.499c6.823-.325 14.948-4.334 17.03-12.407l-.484-.125zm-16.57 12.033c-3.477.165-6.747-.469-9.139-2.069-2.379-1.592-3.916-4.155-3.916-7.92h-.5c0 3.923 1.613 6.646 4.138 8.335 2.511 1.68 5.9 2.322 9.441 2.153l-.024-.499zm-13.055-9.989c0-1.863.693-3.953 1.89-6.05 1.195-2.094 2.885-4.18 4.856-6.03 3.951-3.708 8.986-6.429 13.38-6.429v-.5c-4.575 0-9.727 2.815-13.722 6.565-2.002 1.879-3.725 4.003-4.948 6.146-1.222 2.141-1.956 4.318-1.956 6.298h.5zm20.126-18.509c3.251 0 6.127 2.137 7.947 5.29 1.819 3.151 2.557 7.279 1.552 11.175l.484.125c1.04-4.032.276-8.293-1.603-11.55-1.877-3.252-4.894-5.54-8.38-5.54v.5z" fill="#fff" fill-opacity=".2"/><path d="M230.118 105.29l.012.25-.012-.25zm11.368-8.507c-1.376 5.334-6.772 8.038-11.38 8.258l.024.499c4.734-.225 10.39-3.008 11.84-8.632l-.484-.125zm-11.38 8.258c-2.393.114-4.634-.324-6.269-1.417-1.622-1.085-2.671-2.832-2.671-5.409h-.5c0 2.736 1.126 4.642 2.893 5.824 1.754 1.174 4.114 1.618 6.571 1.501l-.024-.499zm-8.94-6.826c0-1.27.472-2.7 1.295-4.142.822-1.44 1.985-2.875 3.342-4.15 2.723-2.556 6.185-4.421 9.193-4.421v-.5c-3.189 0-6.768 1.96-9.535 4.557-1.388 1.303-2.584 2.777-3.434 4.266-.849 1.486-1.361 3.004-1.361 4.39h.5zm13.83-12.713c2.211 0 4.176 1.453 5.425 3.617 1.248 2.161 1.754 4.993 1.065 7.664l.484.125c.724-2.807.192-5.773-1.116-8.039-1.306-2.263-3.413-3.867-5.858-3.867v.5z" fill="#fff"/><path d="M239.355 96.621c-1.062 4.119-5.216 6.181-8.727 6.348-3.645.174-6.917-1.325-6.917-5.318 0-3.993 5.925-9.744 10.584-9.744 3.499 0 6.122 4.596 5.06 8.715z" fill="url(#paint6_linear)"/><path d="M233.18 95.765l-2.249 1.256V94.51l2.249 1.255z" fill="#05B514"/><g filter="url(#filter2_d)"><rect x="13" y="54" width="124.222" height="114" rx="4" fill="#fff"/></g><path d="M77.231 103.094l2.083 4.165H97.41l-2.083-4.165H77.231zm-3.369 0H55.765l-2.082 4.165H71.78l2.082-4.165z" fill="#F0DE00"/><path d="M76.588 106.464v9.124h-2.082v-9.124l-1.439 2.877h-15.22V126h16.659v-7.288h2.082V126h16.658v-16.659h-15.22l-1.438-2.877zm-10.411 17.453H59.93v-2.082h6.247v2.082zm0-4.164H59.93v-2.082h6.247v2.082zm4.164 4.164H68.26v-2.082h2.082v2.082z" fill="url(#paint7_linear)"/><path d="M52.852 81.66L54 79.699l-2.033-.881L50.5 77l-1.467 1.817-2.033.881 1.148 1.963.169 2.339 2.183-.557 2.183.557.17-2.34zM98.317 84l2.183-.557 2.183.557.169-2.34L104 79.699l-2.033-.881L100.5 77l-1.467 1.817-2.033.881 1.148 1.963.169 2.339z" fill="#FFEC00"/><path d="M56.229 88.344a23.109 23.109 0 015.231 4.798l4.124 5.152-.852-6.821a13.375 13.375 0 00-5.22-8.993l-.997-.748-3.052 6.102.766.51zm30.133 3.128l-.853 6.822 4.125-5.154a23.106 23.106 0 015.231-4.797l.764-.51-3.051-6.103-.998.75a13.368 13.368 0 00-5.218 8.992zm-6.651 7.458h2.083v-4.362c0-5 1.762-9.868 4.965-13.711l-1.6-1.333a23.544 23.544 0 00-5.448 15.044v4.363zm-10.411 0h2.082v-4.362a23.547 23.547 0 00-5.446-15.044l-1.6 1.333A21.46 21.46 0 0169.3 94.569v4.362zm5.206-13.534h2.082v13.535h-2.082V85.396z" fill="#4CB0FD" fill-opacity=".3"/><path d="M71.462 78l4.038-1.03L79.538 78l.316-4.34L82 69.992l-3.794-1.643L75.5 65l-2.706 3.349L69 69.992l2.146 3.668.316 4.34z" fill="#FFEC00"/><rect x="35" y="137" width="81" height="18.149" rx="9.075" fill="url(#paint8_linear)"/><path d="M60.989 149h-1.296v-6.3h2.754c.678 0 1.212.177 1.602.531.396.348.594.804.594 1.368 0 .57-.198 1.029-.594 1.377-.39.354-.924.531-1.602.531h-1.458V149zm0-5.166v1.566h1.368c.312 0 .555-.066.729-.198.174-.138.261-.333.261-.585 0-.252-.087-.444-.261-.576-.174-.138-.417-.207-.729-.207h-1.368zm7.625 3.537v-2.862h1.269V149h-1.27v-.54a1.956 1.956 0 01-1.502.657c-.516 0-.918-.162-1.206-.486-.288-.33-.432-.786-.432-1.368v-2.754h1.269v2.493c0 .324.078.564.234.72a.859.859 0 00.62.234c.193 0 .382-.054.568-.162a1.33 1.33 0 00.45-.423zm5.257 1.746c-.648 0-1.14-.222-1.476-.666V149h-1.27v-6.3h1.27v2.358c.354-.444.846-.666 1.476-.666.612 0 1.116.228 1.512.684.402.444.603 1.002.603 1.674 0 .672-.201 1.236-.603 1.692-.396.45-.9.675-1.512.675zm-.36-1.107c.36 0 .65-.12.873-.36.228-.246.342-.546.342-.9 0-.348-.114-.645-.342-.891-.222-.24-.513-.36-.873-.36-.24 0-.46.063-.657.189a1.25 1.25 0 00-.46.477v1.17c.109.198.262.36.46.486s.417.189.657.189zm4.604 1.107c-.372 0-.666-.099-.882-.297-.21-.204-.315-.519-.315-.945V142.7h1.269v4.842c0 .3.135.45.405.45a.618.618 0 00.324-.081v1.044c-.216.108-.483.162-.801.162zm3-.117h-1.269v-4.491h1.27V149zm-1.395-5.679c0-.216.072-.396.216-.54.15-.15.33-.225.54-.225.21 0 .387.075.531.225.15.144.225.324.225.54 0 .21-.075.39-.225.54a.722.722 0 01-.53.216.752.752 0 01-.54-.216.752.752 0 01-.217-.54zm4.356 5.796c-.798 0-1.428-.141-1.89-.423v-1.125c.216.144.489.267.819.369.336.096.675.144 1.017.144.516 0 .774-.126.774-.378 0-.12-.075-.213-.225-.279a1.204 1.204 0 00-.234-.081l-.333-.081a6.343 6.343 0 00-.198-.045 2.442 2.442 0 01-.162-.054c-.534-.144-.912-.315-1.134-.513-.216-.204-.324-.498-.324-.882 0-.426.174-.762.522-1.008.354-.246.84-.369 1.458-.369.684 0 1.245.138 1.683.414v1.08c-.534-.312-1.077-.468-1.63-.468-.48 0-.72.12-.72.36 0 .048.013.093.037.135a.51.51 0 00.08.081l.136.081.198.063c.096.024.159.042.189.054l.477.099c.498.114.867.285 1.107.513.24.222.36.525.36.909 0 .42-.183.759-.55 1.017-.365.258-.851.387-1.457.387zm4.218-2.979V149h-1.269v-6.3h1.27v2.358a1.962 1.962 0 011.502-.666c.516 0 .918.165 1.206.495.288.324.432.777.432 1.359V149h-1.269v-2.493c0-.324-.08-.564-.243-.72a.828.828 0 00-.612-.234 1.12 1.12 0 00-.576.171 1.273 1.273 0 00-.44.414z" fill="#fff"/><path d="M38 22a7 7 0 017-7h264a7 7 0 017 7v7H38v-7z" fill="url(#paint9_linear)"/><circle cx="54" cy="22" r="2" fill="#6AC2FC"/><circle cx="61" cy="22" r="2" fill="#F1EE33" fill-opacity=".8"/><circle cx="68" cy="22" r="2" fill="#89E23A"/><defs><linearGradient id="paint0_linear" x1="204.91" y1="50.853" x2="329.297" y2="141.48" gradientUnits="userSpaceOnUse"><stop stop-color="#DFF2EE"/><stop offset="1" stop-color="#E2F2EF"/></linearGradient><linearGradient id="paint1_linear" x1="177.297" y1="65.862" x2="301.372" y2="127.303" gradientUnits="userSpaceOnUse"><stop stop-color="#fff"/><stop offset="1" stop-color="#fff" stop-opacity=".96"/></linearGradient><linearGradient id="paint2_linear" x1="230.787" y1="145.73" x2="230.787" y2="176.924" gradientUnits="userSpaceOnUse"><stop stop-color="#E1F1EE"/><stop offset="1" stop-color="#E1F1EE" stop-opacity="0"/></linearGradient><linearGradient id="paint3_linear" x1="284.037" y1="159.08" x2="291.425" y2="176.045" gradientUnits="userSpaceOnUse"><stop stop-color="#6DEEFF"/><stop offset="1" stop-color="#31C0FA"/></linearGradient><linearGradient id="paint4_linear" x1="207.435" y1="57.272" x2="306.782" y2="142.747" gradientUnits="userSpaceOnUse"><stop stop-color="#01B213"/><stop offset="1" stop-color="#78EE1B" stop-opacity=".52"/></linearGradient><linearGradient id="paint5_linear" x1="182.364" y1="68.811" x2="286.897" y2="129.938" gradientUnits="userSpaceOnUse"><stop stop-color="#30CE2D"/><stop offset="1" stop-color="#3DCA33" stop-opacity=".96"/></linearGradient><linearGradient id="paint6_linear" x1="231.652" y1="87.907" x2="228.199" y2="104.406" gradientUnits="userSpaceOnUse"><stop stop-color="#fff"/><stop offset="1" stop-color="#fff"/></linearGradient><linearGradient id="paint7_linear" x1="55.5" y1="117" x2="97.5" y2="119.5" gradientUnits="userSpaceOnUse"><stop stop-color="#FFEC00"/><stop offset="1" stop-color="#F5F13C" stop-opacity=".39"/></linearGradient><linearGradient id="paint8_linear" x1="27.438" y1="137" x2="113.764" y2="153.991" gradientUnits="userSpaceOnUse"><stop stop-color="#7FE425"/><stop offset="1" stop-color="#21C11F"/></linearGradient><linearGradient id="paint9_linear" x1="38" y1="29" x2="316" y2="29" gradientUnits="userSpaceOnUse"><stop stop-color="#39CA21"/><stop offset="1" stop-color="#6BDD24"/></linearGradient><filter id="filter0_d" x="18" y="0" width="318.642" height="218" filterUnits="userSpaceOnUse" color-interpolation-filters="sRGB"><feFlood flood-opacity="0" result="BackgroundImageFix"/><feColorMatrix in="SourceAlpha" values="0 0 0 0 0 0 0 0 0 0 0 0 0 0 0 0 0 0 127 0"/><feOffset dy="5"/><feGaussianBlur stdDeviation="10.5"/><feColorMatrix values="0 0 0 0 0.623529 0 0 0 0 0.698039 0 0 0 0 0.686275 0 0 0 0.2 0"/><feBlend in2="BackgroundImageFix" result="effect1_dropShadow"/><feBlend in="SourceGraphic" in2="effect1_dropShadow" result="shape"/></filter><filter id="filter1_d" x="141.375" y="30.08" width="209.821" height="156.523" filterUnits="userSpaceOnUse" color-interpolation-filters="sRGB"><feFlood flood-opacity="0" result="BackgroundImageFix"/><feColorMatrix in="SourceAlpha" values="0 0 0 0 0 0 0 0 0 0 0 0 0 0 0 0 0 0 127 0"/><feOffset dx="15" dy="10"/><feGaussianBlur stdDeviation="22.5"/><feColorMatrix values="0 0 0 0 0.624167 0 0 0 0 0.7 0 0 0 0 0.686212 0 0 0 0.27 0"/><feBlend in2="BackgroundImageFix" result="effect1_dropShadow"/><feBlend in="SourceGraphic" in2="effect1_dropShadow" result="shape"/></filter><filter id="filter2_d" x="0" y="43" width="154.222" height="144" filterUnits="userSpaceOnUse" color-interpolation-filters="sRGB"><feFlood flood-opacity="0" result="BackgroundImageFix"/><feColorMatrix in="SourceAlpha" values="0 0 0 0 0 0 0 0 0 0 0 0 0 0 0 0 0 0 127 0"/><feOffset dx="2" dy="4"/><feGaussianBlur stdDeviation="7.5"/><feColorMatrix values="0 0 0 0 0.45098 0 0 0 0 0.694118 0 0 0 0 0.658824 0 0 0 0.3 0"/><feBlend in2="BackgroundImageFix" result="effect1_dropShadow"/><feBlend in="SourceGraphic" in2="effect1_dropShadow" result="shape"/></filter></defs></svg>