<svg width="1440" height="669" fill="none" xmlns="http://www.w3.org/2000/svg"><path d="M454 590.5C242 576 52.438 645.999-11 667.554V292.268L1440 267v265.813c-41.5 59.244-249.11 131.396-334 134.741-306 12.059-441.079-62.628-652-77.054z" fill="url(#paint0_linear)"/><path d="M1440 127.5c-139.5 84.5-331 112.706-831-40-215.605-65.848-513.765-51.995-636.742-25-20.83 4.573 0 252.289 0 252.289v235.275C271.5 489 438 505.564 553 533.5c243 59.029 480 84.5 617.5 72.501C1316.7 593.242 1440 533.5 1440 533.5v-406z" fill="url(#paint1_linear)"/><mask id="a" maskUnits="userSpaceOnUse" x="-37" y="0" width="1492" height="649"><path d="M1455 70.845c-55.56 18.493-233.15 243.944-859.278 60.305C379.397 67.703 95.235-22.066-27.742 4.93c-20.83 4.572 0 309.859 0 309.859v235.276c328.386-76.97 451.519-2.533 623.464 50.191 257.282 78.893 403.742 43.821 532.328 20.243 144.35-26.471 326.95 0 326.95 0V70.845z" fill="url(#paint2_linear)"/></mask><g mask="url(#a)"><mask id="b" maskUnits="userSpaceOnUse" x="-265" y="-99" width="890" height="648"><path d="M164.549-19.585C-140.909 112.934-265-15.684-265-66.014V443.53c137.892 93.92 308.352 126.969 471.353 91.387L625 443.529v-478.33s-70.149-154.111-460.451 15.216z" fill="url(#paint3_linear)"/></mask><g mask="url(#b)"><path fill-rule="evenodd" clip-rule="evenodd" d="M23.363 52.187C7.566 61.37-8.047 72.19-23.193 84.302c1.129 29.596 2.38 58.947 3.632 81.683 3.423 66.333 12.265 179.94 13.774 199.159 1.697 2.571 1.217 8.422.239 10.446.25 9.193 2.606 95.057 5.217 172.6a293.404 293.404 0 0023.704-.576c-.436-63.243-1.184-127.254-1.184-127.254l.144-.068c-.11-1.807-.565-10.293.022-17.88l.245.04a7.076 7.076 0 01-.079-.609s.993-101.976.993-210.789c0-42.337-.05-92.346-.151-138.867zM36.284 404.88c.622 4.113.296 14.097-.03 16.902l-.005.004c-.032 2.495-.269 21.528-.533 67.436 5.153-14.043 12.385-31.141 20.18-44.607 11.713-20.235 33.551-45.34 47.122-58.16-4.541 17.763-14.62 50.899-28.259 73.521-10.842 17.982-27.375 34.855-36.487 44.155l-.001.001c-.974.993-1.862 1.901-2.65 2.713l-.03 5.807c-.04 8.03-.058 19.647-.059 33.875 101.21-11.446 215.179-83.671 245.357-221.599C312.52 180.355 234.405 19 130.202 19c-5.512 0-11.084.319-16.702.94-21.638 45.34-41.66 88.31-62.524 133.528-3.393 7.197-6.751 14.494-10.124 21.825v.001l-.004.007-.008.017a5206.876 5206.876 0 01-4.74 10.281 44380.141 44380.141 0 00-.02 112.55c3.973-10.935 10.544-26.416 17.63-38.059 8.883-14.597 25.257-32.568 35.39-41.696-3.592 12.925-11.47 37.007-21.8 53.316-8.211 12.965-20.576 25.006-27.391 31.643-1.637 1.594-2.954 2.877-3.816 3.785.092 65.961.327 97.269.327 97.269s-.033.182-.136.473zm-.161-235.913a2288.139 2288.139 0 018.84-19.036C65.04 106.459 84.452 64.763 105.27 21.058c-22.614 3.64-45.86 11.976-68.88 23.953-.107 37.11-.205 79.315-.267 123.956zm-80.127 210.1l.094.027c-.1.157-.147.244-.147.244s1.133 18.524 2.887 47.539a13999.62 13999.62 0 01-8.442-28.951c-3.252-11.292-5.49-18.737-5.98-20.221-8.123-25.022-23.925-80.881-23.949-81.542l-.252.114c-1.926-9.081-6.252-27.588-10.625-41.658-5.16-16.601-18.566-37.555-26.185-47.457 1.562 14.189 6.432 38.735 12.609 54.488 5.244 13.374 13.394 27.832 19.29 36.846l-.42.19c.044.115.597 2.069 1.522 5.339 2.467 8.721 7.583 26.803 12.76 44.336-9.244-8.109-25.438-21.702-38.972-31.374-6.269-4.48-14.059-8.543-22.17-12.055-2.05-8.628-4.113-17.338-6.194-26.149-3.407-14.412-6.639-28.51-9.965-43.022v-.001l-.203-.887c23.264-43.778 55.943-86.592 93.123-122.398 3.804 89.519 10.041 233.656 11.035 256.615a4.202 4.202 0 01-.118-.008c0-.285-1.25 5.982.25 9.97l.052.015zm-92.793-76.142c-12.989-5.219-26.192-8.989-34.824-10.785 9.464 10.58 25.829 25.996 41.12 37.222 9.561 40.033 18.906 78.65 28.406 117.612a248.552 248.552 0 00-11.261-5.144c3.79 6.072 9.196 13.786 15.283 21.623a51066.69 51066.69 0 007.895 32.267 6160.622 6160.622 0 006.939 28.425v.002l2.19 8.916C-141.882 508.821-185 454.323-185 361.071c0-37.41 12.569-79.216 33.634-120.407 2.982 12.999 5.923 25.772 9.046 38.937 1.854 7.847 3.694 15.618 5.523 23.324zm50.76 191.976a43983.75 43983.75 0 01-5.798-23.675c6.414 7.727 13.197 15.078 19.423 20.551 11.049 9.711 25.72 19.003 36.641 25.029.56 9.39 1.129 18.979 1.703 28.671-14.69-2.18-28.838-5.678-42.19-10.58-.945-3.862-1.893-7.719-2.84-11.569v-.006l-.001-.001v-.003c-2.341-9.525-4.672-19.007-6.937-28.417zm26.43-20.662c9.368 8.561 17.136 18.416 22.868 26.34-.998-16.708-1.95-32.558-2.817-46.954-3.515-11.788-7.977-27.018-13.345-45.344l-.003-.011-.006-.019v-.001l-2.285-7.801c-1.182-4.11-2.25-7.893-3.142-11.046-1.371-4.855-2.321-8.218-2.614-8.983-1.971-5.91-4.348-13.558-6.832-21.801-12.382-3.339-34.128-11.405-51.1-21.48a125.708 125.708 0 01-6.401-4.087 25132.324 25132.324 0 0028.126 116.386c12.313 6.307 26.744 14.927 37.55 24.801z" fill="url(#paint4_linear)" fill-opacity=".52"/></g></g><defs><linearGradient id="paint0_linear" x1="-11" y1="595.92" x2="1438.35" y2="541.609" gradientUnits="userSpaceOnUse"><stop stop-color="#EBF9FD"/><stop offset="1" stop-color="#EBFDF5"/></linearGradient><linearGradient id="paint1_linear" x1="-7" y1="273.569" x2="1471.71" y2="395.907" gradientUnits="userSpaceOnUse"><stop stop-color="#01B213"/><stop offset="1" stop-color="#85E948"/></linearGradient><linearGradient id="paint2_linear" x1="-19" y1="268.306" x2="1455.05" y2="274.722" gradientUnits="userSpaceOnUse"><stop stop-color="#01B213"/><stop offset="1" stop-color="#91ED58"/></linearGradient><linearGradient id="paint3_linear" x1="-271.181" y1="187.977" x2="707.347" y2="187.855" gradientUnits="userSpaceOnUse"><stop offset=".601" stop-color="#01B213"/><stop offset="1" stop-color="#74D355"/></linearGradient><linearGradient id="paint4_linear" x1="-142.47" y1="509.767" x2="331.445" y2="170.129" gradientUnits="userSpaceOnUse"><stop stop-color="#fff" stop-opacity=".66"/><stop offset=".922" stop-color="#fff" stop-opacity="0"/></linearGradient></defs></svg>