<svg width="1054" height="816" fill="none" xmlns="http://www.w3.org/2000/svg"><path opacity=".25" d="M597.374 901.009C923.979 937.977 1266.03 452.79 886.401 392.47c-495.297-60.104-416.165-262.861-611.356-283.447C-79.095 71.672-73.395 359.6-73.782 359.517-196.91 705.703 163.261 924.905 597.374 901.009z" fill="url(#paint0_linear)"/><path d="M829.258 861.496c-61.712 64.169-516.947-2.822-647.415-3.855-132.653-1.082-326.014-55.717-417.065-246.523-57.257-120.381-71.671-308.054 60.087-477.824C-64.118-9.788 120.84 41.954 226.5 163c129.642 148.519 247.022 156.524 455.827 238.153 208.805 81.628 198.807 308.676 146.931 460.343z" fill="url(#paint1_linear)"/><defs><linearGradient id="paint0_linear" x1="708.202" y1="800.36" x2="296.968" y2="-42.105" gradientUnits="userSpaceOnUse"><stop stop-color="#28FEFE" stop-opacity=".3"/><stop offset="1" stop-color="#31C7CD"/></linearGradient><linearGradient id="paint1_linear" x1="401.877" y1="264.234" x2="-13.301" y2="923.003" gradientUnits="userSpaceOnUse"><stop stop-color="#83F12C" stop-opacity=".6"/><stop offset="1" stop-color="#01B213"/></linearGradient></defs></svg>