<svg width="871" height="820" fill="none" xmlns="http://www.w3.org/2000/svg"><path opacity=".35" d="M432.838 365.084c-148.067-4.583-259.106 284.929-71.137 284.93 157.884-6.827 161.439 73.161 249.842 75.081 117.409 2.782 153.371-165.781 153.549-165.755 35-194.075-139.672-227.873-332.254-194.256z" fill="url(#paint0_linear)"/><path d="M578.999 193.5C378 109.04 11.886 332.138 177 452.499 374.5 596.468 326.12 633.378 413.686 689.84c116.165 75.196 229.955-48.62 230.118-48.486C791.091 490.199 791.61 282.839 578.999 193.5z" fill="url(#paint1_linear)"/><g opacity=".36"><mask id="a" fill="#fff"><path d="M594.5 168.5C350.199 65.019-43.691 300.577 129.003 444.97 343.04 623.93 302.929 648.342 403.978 712.721c134.055 85.729 261.062-48.774 261.25-48.622C829.821 500.079 838.802 271.982 594.5 168.5z"/></mask><path d="M594.5 168.5l-.195.461.195-.461zM129.003 444.97l.321-.384-.321.384zm274.975 267.751l.269-.421v-.001l-.269.422zm261.25-48.622l-.313.389.349.281.317-.316-.353-.354zM594.695 168.04a339.34 339.34 0 00-1.389-.585l-.386.923c.463.193.924.387 1.385.583l.39-.921zm-4.178-1.731c-.932-.378-1.865-.75-2.801-1.118l-.366.931c.933.366 1.863.737 2.791 1.114l.376-.927zm-5.614-2.207c-.94-.358-1.882-.712-2.826-1.061l-.346.939c.94.347 1.879.699 2.815 1.056l.357-.934zm-5.663-2.092c-.948-.34-1.897-.674-2.849-1.004l-.327.945c.948.329 1.895.662 2.839 1l.337-.941zm-5.708-1.979c-.955-.32-1.911-.636-2.868-.946l-.309.951c.955.31 1.908.624 2.859.943l.318-.948zm-5.737-1.861c-.958-.301-1.918-.597-2.879-.888l-.29.957a288 288 0 012.87.885l.299-.954zm-5.769-1.748c-.965-.282-1.931-.56-2.899-.833l-.272.963c.965.272 1.929.548 2.891.83l.28-.96zm-5.809-1.639c-.971-.264-1.944-.523-2.918-.778l-.254.967c.972.254 1.942.513 2.91.776l.262-.965zm-5.847-1.53c-.977-.246-1.956-.488-2.937-.725l-.235.972c.977.236 1.954.477 2.928.723l.244-.97zm-5.865-1.42c-.977-.226-1.956-.449-2.936-.667l-.217.976c.977.217 1.952.439 2.927.666l.226-.975zm-5.879-1.309c-.983-.21-1.967-.415-2.952-.616l-.2.979c.982.201 1.963.406 2.943.615l.209-.978zm-5.912-1.207c-.987-.192-1.977-.38-2.967-.564l-.183.983c.988.183 1.974.371 2.959.563l.191-.982zm-5.942-1.104a356.43 356.43 0 00-2.982-.514l-.165.986c.992.167 1.983.338 2.973.513l.174-.985zm-5.958-1.001c-.989-.157-1.98-.311-2.973-.46l-.148.988c.989.149 1.977.303 2.964.46l.157-.988zm-5.952-.896a324.77 324.77 0 00-2.986-.412l-.132.991c.993.133 1.986.27 2.977.411l.141-.99zm-5.977-.8c-.998-.125-1.998-.246-2.998-.363l-.116.993c.997.117 1.994.238 2.989.363l.125-.993zm-6.001-.702c-1.001-.11-2.004-.215-3.008-.316l-.1.995c1.001.101 2.001.206 3 .315l.108-.994zm-6.018-.607c-.998-.093-1.996-.182-2.995-.267l-.085.997c.997.084 1.993.173 2.988.265l.092-.995zm-5.996-.51c-1-.077-2.002-.151-3.004-.22l-.069.997c.999.07 1.998.143 2.997.22l.076-.997zm-6.013-.418c-1.003-.062-2.008-.12-3.013-.175l-.054.999c1.003.054 2.004.112 3.006.174l.061-.998zm-6.029-.327c-1.006-.047-2.013-.09-3.02-.129l-.039.999c1.005.039 2.009.082 3.012.129l.047-.999zm-6.043-.237c-1.004-.032-2.008-.06-3.013-.085l-.025 1c1.003.025 2.005.053 3.006.085l.032-1zm-6.022-.148a431.29 431.29 0 00-3.012-.041l-.01 1c1.002.01 2.004.024 3.005.041l.017-1zm-6.026-.061c-1.005-.003-2.01-.002-3.016.002l.004 1a431.23 431.23 0 013.009-.002l.003-1zm-6.034.025c-1.007.011-2.013.026-3.02.044l.018 1c1.004-.018 2.009-.033 3.013-.044l-.011-1zm-6.042.109c-1.007.025-2.014.054-3.021.086l.032.999c1.005-.032 2.009-.06 3.014-.085l-.025-1zm-6.029.192c-1.003.039-2.007.081-3.01.126l.046.999c1.001-.045 2.001-.087 3.002-.126l-.038-.999zm-6.02.273c-1.003.052-2.007.108-3.01.167l.058.998c1.002-.059 2.003-.114 3.004-.166l-.052-.999zm-6.021.354c-1.004.065-2.008.134-3.012.207l.072.997c1.002-.072 2.003-.141 3.005-.206l-.065-.998zm-6.023.433c-1.003.079-2.007.161-3.01.246l.084.997a506.72 506.72 0 013.005-.246l-.079-.997zm-6.015.512c-1 .091-2 .186-3 .284l.097.995c.998-.097 1.996-.192 2.994-.283l-.091-.996zm-5.999.587c-1 .105-1.999.212-2.998.323l.11.994a427.15 427.15 0 012.992-.322l-.104-.995zm-5.994.664c-.999.117-1.997.237-2.995.36l.122.993a497.2 497.2 0 012.989-.36l-.116-.993zm-5.989.739c-.997.129-1.994.262-2.991.397l.135.991a486.62 486.62 0 012.985-.396l-.129-.992zm-5.98.813c-.996.142-1.991.286-2.985.434l.147.989c.992-.147 1.985-.292 2.978-.433l-.14-.99zm-5.967.886c-.994.153-1.987.31-2.98.47l.159.987c.991-.159 1.982-.316 2.973-.469l-.152-.988zm-5.956.957c-.992.166-1.983.334-2.973.506l.17.985c.989-.171 1.978-.339 2.968-.504l-.165-.987zm-5.943 1.029c-.99.177-1.979.358-2.967.541l.182.983c.987-.183 1.974-.363 2.961-.54l-.176-.984zm-5.929 1.099c-.988.189-1.975.381-2.961.576l.194.981c.984-.195 1.969-.386 2.955-.575l-.188-.982zm-5.921 1.169c-.987.201-1.972.405-2.957.611l.206.979c.982-.206 1.966-.409 2.95-.61l-.199-.98zm-5.908 1.239c-.983.212-1.966.427-2.947.645l.217.976c.979-.217 1.96-.432 2.941-.643l-.211-.978zm-5.889 1.307c-.98.223-1.958.449-2.936.678l.227.973c.976-.228 1.953-.454 2.931-.676l-.222-.975zm-5.868 1.372c-.976.235-1.951.472-2.925.711l.239.971c.972-.239 1.945-.476 2.92-.709l-.234-.973zm-5.855 1.441c-.978.246-1.954.496-2.929.747l.25.969c.973-.252 1.948-.5 2.923-.746l-.244-.97zm-5.852 1.511c-.973.257-1.945.517-2.916.779l.261.966a460.56 460.56 0 012.911-.778l-.256-.967zm-5.825 1.575c-.969.267-1.936.538-2.903.811l.272.962c.965-.272 1.93-.542 2.897-.81l-.266-.963zm-5.798 1.638c-.964.278-1.926.559-2.888.842l.283.959c.96-.283 1.92-.563 2.883-.841l-.278-.96zm-5.771 1.701c-.967.291-1.933.584-2.898.88l.294.956c.963-.295 1.927-.588 2.892-.879l-.288-.957zm-5.787 1.776c-.962.302-1.922.606-2.881.912l.305.952c.957-.305 1.915-.609 2.875-.909l-.299-.955zm-5.753 1.838c-.956.312-1.911.626-2.864.942l.315.949c.952-.316 1.904-.629 2.859-.94l-.31-.951zm-5.718 1.898c-.95.322-1.899.645-2.846.972l.326.945a451.54 451.54 0 012.84-.969l-.32-.948zm-5.682 1.957c-.951.334-1.901.67-2.849 1.009l.337.942c.946-.338 1.894-.674 2.843-1.007l-.331-.944zm-5.7 2.036c-.949.345-1.896.693-2.841 1.042l.347.938c.944-.349 1.889-.696 2.836-1.04l-.342-.94zm-5.671 2.099c-.942.354-1.882.711-2.82 1.071l.358.934c.936-.359 1.874-.715 2.814-1.069l-.352-.936zm-5.629 2.156c-.934.364-1.867.73-2.797 1.099l.368.93c.929-.368 1.86-.734 2.792-1.097l-.363-.932zm-5.583 2.212c-.931.375-1.86.752-2.786 1.132l.379.925c.925-.379 1.851-.755 2.78-1.129l-.373-.928zm-5.594 2.291c-.933.389-1.865.78-2.795 1.173l.39.921a582.81 582.81 0 012.79-1.171l-.385-.923zm-5.577 2.36c-.925.398-1.848.799-2.769 1.201l.4.917c.919-.402 1.841-.802 2.764-1.199l-.395-.919zm-5.525 2.416c-.917.407-1.831.816-2.743 1.227l.411.912c.91-.411 1.823-.819 2.738-1.225l-.406-.914zm-5.472 2.468c-.908.416-1.813.835-2.716 1.255l.422.906c.901-.419 1.805-.836 2.71-1.251l-.416-.91zm-5.472 2.548c-.916.433-1.83.869-2.741 1.307l.433.901c.909-.437 1.821-.872 2.736-1.304l-.428-.904zm-5.467 2.626c-.906.443-1.81.887-2.711 1.333l.444.896c.899-.445 1.801-.889 2.705-1.33l-.438-.899zm-5.406 2.679c-.895.451-1.788.904-2.679 1.359l.455.89c.889-.454 1.78-.906 2.674-1.355l-.45-.894zm-5.342 2.73c-.884.459-1.767.921-2.646 1.384l.466.885a438.77 438.77 0 012.641-1.381l-.461-.888zm-5.336 2.812c-.895.479-1.787.961-2.677 1.444l.478.878a481.97 481.97 0 012.671-1.44l-.472-.882zm-5.336 2.9c-.883.488-1.763.977-2.64 1.469l.489.872c.875-.49 1.753-.979 2.635-1.465l-.484-.876zm-5.263 2.95c-.87.496-1.738.994-2.603 1.494l.501.865c.862-.498 1.728-.995 2.597-1.49l-.495-.869zm-5.187 2.999c-.859.504-1.715 1.01-2.567 1.518l.512.859c.85-.507 1.704-1.012 2.561-1.515l-.506-.862zm-5.187 3.092c-.87.527-1.736 1.056-2.598 1.587l.524.851c.86-.529 1.724-1.057 2.592-1.582l-.518-.856zm-5.176 3.185c-.855.534-1.707 1.071-2.555 1.61l.536.844a425.19 425.19 0 012.549-1.606l-.53-.848zm-5.089 3.232c-.84.542-1.678 1.086-2.511 1.633l.548.836c.832-.545 1.667-1.088 2.506-1.629l-.543-.84zm-5 3.277c-.836.557-1.668 1.116-2.496 1.677l.56.828c.827-.559 1.657-1.117 2.491-1.672l-.555-.833zm-5.022 3.401c-.837.576-1.671 1.155-2.5 1.735l.574.819c.827-.578 1.658-1.155 2.493-1.731l-.567-.823zm-4.975 3.482c-.82.584-1.637 1.17-2.449 1.758l.586.81a380.82 380.82 0 012.443-1.753l-.58-.815zm-4.872 3.527c-.804.592-1.602 1.185-2.397 1.78l.599.8c.793-.593 1.59-1.185 2.391-1.775l-.593-.805zm-4.767 3.57c-.815.621-1.625 1.243-2.43 1.868l.613.79a335.96 335.96 0 012.423-1.862l-.606-.796zm-4.834 3.75c-.796.629-1.588 1.26-2.374 1.893l.626.779c.785-.631 1.574-1.26 2.368-1.887l-.62-.785zm-4.719 3.796c-.776.636-1.547 1.274-2.313 1.914l.64.767c.764-.637 1.533-1.273 2.307-1.908l-.634-.773zm-4.596 3.838c-.756.643-1.507 1.287-2.252 1.934l.655.755a309.14 309.14 0 012.245-1.928l-.648-.761zm-4.55 3.946c-.766.678-1.527 1.358-2.281 2.039l.67.742c.752-.679 1.51-1.356 2.274-2.032l-.663-.749zm-4.527 4.088c-.743.684-1.48 1.371-2.21 2.059l.685.728c.728-.686 1.462-1.37 2.203-2.052l-.678-.735zm-4.384 4.127c-.719.691-1.432 1.383-2.138 2.077l.701.714c.704-.692 1.414-1.382 2.13-2.07l-.693-.721zm-4.239 4.164c-.726.73-1.446 1.461-2.159 2.194l.717.697c.71-.73 1.427-1.458 2.151-2.185l-.709-.706zm-4.279 4.4c-.699.737-1.392 1.475-2.077 2.215l.733.679c.683-.736 1.373-1.472 2.07-2.206l-.726-.688zm-4.113 4.438c-.671.743-1.335 1.487-1.992 2.233l.75.661c.654-.742 1.315-1.483 1.984-2.223l-.742-.671zm-3.942 4.474c-.657.765-1.307 1.532-1.949 2.301l.768.641c.639-.765 1.286-1.529 1.94-2.291l-.759-.651zm-3.903 4.673c-.643.793-1.278 1.586-1.904 2.381l.785.619c.624-.791 1.255-1.581 1.896-2.369l-.777-.631zm-3.759 4.77c-.61.798-1.211 1.597-1.804 2.397l.803.595c.59-.796 1.189-1.591 1.795-2.384l-.794-.608zm-3.557 4.801c-.583.813-1.158 1.627-1.723 2.442l.822.57c.562-.811 1.133-1.62 1.713-2.429l-.812-.583zm-3.457 4.989c-.568.849-1.127 1.701-1.676 2.553l.841.541c.546-.847 1.101-1.693 1.666-2.539l-.831-.555zm-3.292 5.113c-.529.854-1.048 1.71-1.557 2.566l.86.511c.506-.851 1.021-1.702 1.547-2.551l-.85-.526zm-3.053 5.138a155.63 155.63 0 00-1.46 2.625l.879.477c.473-.87.956-1.739 1.45-2.607l-.869-.495zm-2.901 5.342c-.47.907-.927 1.815-1.373 2.724l.898.44c.442-.902.897-1.803 1.363-2.704l-.889-.46zm-2.675 5.451c-.423.91-.833 1.821-1.232 2.733l.916.4c.396-.904.803-1.808 1.223-2.712l-.907-.421zm-2.392 5.469c-.388.945-.763 1.89-1.125 2.836l.934.357c.359-.938.73-1.876 1.116-2.813l-.925-.38zm-2.183 5.707c-.34.958-.665 1.917-.977 2.875l.95.31c.31-.951.633-1.901.97-2.851l-.943-.334zm-1.873 5.752c-.285.96-.555 1.919-.813 2.879l.966.259c.255-.951.524-1.902.806-2.853l-.959-.285zm-1.551 5.8c-.237.995-.459 1.99-.665 2.985l.979.203c.204-.985.424-1.971.659-2.956l-.973-.232zm-1.239 5.97c-.175.995-.336 1.99-.48 2.985l.99.144c.142-.985.301-1.97.475-2.955l-.985-.174zm-.867 5.969a95.084 95.084 0 00-.294 2.995l.997.082c.08-.988.178-1.975.29-2.964l-.993-.113zm-.493 6.03a91.775 91.775 0 00-.099 3.033l1 .016a90.69 90.69 0 01.098-3l-1-.049zm-.097 6.062c.018 1.009.053 2.017.105 3.025l.998-.052a87.95 87.95 0 01-.103-2.991l-1 .018zm.312 6.042a88.79 88.79 0 00.31 2.999l.993-.12a86.537 86.537 0 01-.306-2.965l-.997.086zm.725 5.992c.155.997.329 1.993.52 2.987l.982-.189a86.186 86.186 0 01-.514-2.952l-.988.154zm1.145 5.966c.226.99.47 1.979.732 2.966l.966-.256c-.258-.976-.5-1.954-.723-2.933l-.975.223zm1.544 5.835c.288.955.593 1.908.915 2.86l.948-.321a88.517 88.517 0 01-.905-2.828l-.958.289zm1.934 5.711c.356.948.73 1.895 1.122 2.84l.924-.382a91.683 91.683 0 01-1.11-2.81l-.936.352zm2.349 5.671c.407.899.83 1.797 1.27 2.693l.898-.44a95.843 95.843 0 01-1.257-2.666l-.911.413zm2.62 5.342c.467.882.949 1.761 1.447 2.639l.87-.494c-.494-.869-.97-1.74-1.432-2.612l-.884.467zm2.989 5.266c.53.873 1.076 1.745 1.639 2.615l.839-.543a108.525 108.525 0 01-1.623-2.591l-.855.519zm3.347 5.177a113.46 113.46 0 001.689 2.391l.809-.587c-.572-.788-1.13-1.578-1.674-2.37l-.824.566zm3.462 4.772c.605.791 1.224 1.581 1.858 2.368l.779-.626a120.512 120.512 0 01-1.843-2.35l-.794.608zm3.801 4.725a127.26 127.26 0 002.03 2.345l.748-.663c-.686-.774-1.357-1.55-2.014-2.327l-.764.645zm4.115 4.644c.654.705 1.32 1.408 1.998 2.109l.719-.695a137.497 137.497 0 01-1.984-2.094l-.733.68zm4.069 4.207c.702.698 1.416 1.393 2.143 2.087l.691-.723c-.722-.689-1.432-1.38-2.13-2.073l-.704.709zm4.36 4.163c.751.69 1.515 1.378 2.291 2.064l.662-.75c-.771-.682-1.53-1.365-2.277-2.051l-.676.737zm4.656 4.115c.399.341.802.681 1.208 1.02l.642-.767c-.404-.337-.805-.675-1.202-1.014l-.648.761zm1.208 1.02l1.19.996.642-.767-1.19-.996-.642.767zm3.554 2.977l2.343 1.969.644-.765-2.344-1.97-.643.766zm4.666 3.925l2.302 1.944.645-.764-2.302-1.944-.645.764zm4.583 3.875l2.261 1.918.648-.762-2.262-1.919-.647.763zm4.502 3.824l2.234 1.905.649-.76a1339.23 1339.23 0 00-2.235-1.906l-.648.761zm4.586 3.917c.781.668 1.557 1.334 2.33 1.997l.651-.758-2.33-1.999-.651.76zm4.637 3.981c.765.659 1.527 1.315 2.285 1.97l.653-.757-2.285-1.971-.653.758zm4.547 3.925l2.24 1.943.656-.755a3223.5 3223.5 0 00-2.241-1.944l-.655.756zm4.458 3.871c.748.651 1.491 1.299 2.231 1.946l.658-.754-2.232-1.946-.657.754zm4.558 3.981l2.303 2.02.66-.752-2.304-2.021-.659.753zm4.581 4.024l2.253 1.99.663-.75-2.255-1.99-.661.75zm4.483 3.964l2.205 1.959.665-.747-2.207-1.96-.663.748zm4.387 3.904c.769.686 1.533 1.37 2.293 2.05l.667-.745c-.76-.681-1.525-1.365-2.294-2.051l-.666.746zm4.578 4.101c.758.681 1.511 1.359 2.259 2.034l.67-.742a1969.34 1969.34 0 00-2.26-2.036l-.669.744zm4.492 4.052l2.206 2 .672-.74-2.207-2.002-.671.742zm4.386 3.985c.724.659 1.443 1.317 2.158 1.971l.675-.738c-.715-.655-1.435-1.312-2.159-1.972l-.674.739zm4.441 4.064l2.254 2.075.678-.735c-.747-.689-1.499-1.381-2.256-2.076l-.676.736zm4.479 4.131c.737.682 1.469 1.362 2.196 2.038l.681-.732c-.728-.677-1.46-1.357-2.198-2.04l-.679.734zm4.365 4.058c.718.67 1.431 1.337 2.14 2.002l.684-.73c-.71-.665-1.424-1.333-2.142-2.003l-.682.731zm4.35 4.078c.751.706 1.496 1.409 2.236 2.109l.687-.727c-.74-.7-1.486-1.404-2.238-2.111l-.685.729zm4.441 4.198c.73.693 1.455 1.383 2.175 2.069l.69-.723c-.72-.687-1.446-1.377-2.176-2.071l-.689.725zm4.318 4.119c.709.679 1.414 1.356 2.113 2.029l.694-.72c-.7-.674-1.405-1.351-2.115-2.031l-.692.722zm4.302 4.14c.74.716 1.474 1.429 2.203 2.137l.697-.717a944.845 944.845 0 00-2.205-2.138l-.695.718zm4.374 4.252c.717.701 1.43 1.398 2.136 2.092l.701-.714c-.707-.694-1.42-1.392-2.139-2.094l-.698.716zm4.24 4.163c.704.694 1.402 1.384 2.094 2.071l.704-.71a833.928 833.928 0 00-2.095-2.073l-.703.712zm4.285 4.249c.724.722 1.442 1.44 2.154 2.154l.708-.706a876.49 876.49 0 00-2.156-2.156l-.706.708zm4.272 4.283c.701.706 1.395 1.408 2.084 2.106l.711-.702c-.689-.699-1.384-1.401-2.085-2.108l-.71.704zm4.132 4.188c.727.742 1.448 1.479 2.162 2.211l.716-.698c-.715-.733-1.436-1.471-2.164-2.213l-.714.7zm4.286 4.396c.702.725 1.397 1.444 2.087 2.16l.72-.694c-.69-.716-1.386-1.437-2.089-2.161l-.718.695zm4.135 4.292c.687.718 1.367 1.43 2.041 2.138l.724-.689a745.924 745.924 0 00-2.043-2.14l-.722.691zm4.162 4.374c.7.741 1.393 1.476 2.079 2.207l.729-.684a764.636 764.636 0 00-2.082-2.21l-.726.687zm4.118 4.385c.674.722 1.34 1.439 2 2.151l.734-.68a849.496 849.496 0 00-2.002-2.153l-.732.682zm4.067 4.388c.694.754 1.381 1.503 2.061 2.247l.739-.675a1409.39 1409.39 0 00-2.064-2.25l-.736.678zm4.081 4.463c.666.734 1.325 1.463 1.977 2.186l.743-.669a790.292 790.292 0 00-1.98-2.189l-.74.672zm3.995 4.432c.685.765 1.362 1.525 2.031 2.279l.748-.665c-.671-.754-1.349-1.515-2.034-2.281l-.745.667zm4.019 4.524c.655.742 1.303 1.48 1.945 2.212l.752-.659a891.195 891.195 0 00-1.947-2.215l-.75.662zm3.942 4.5a884.19 884.19 0 011.99 2.298l.757-.653a887.133 887.133 0 00-1.993-2.301l-.754.656zm3.935 4.56a800.86 800.86 0 011.914 2.242l.762-.648c-.632-.742-1.27-1.49-1.916-2.244l-.76.65zm3.899 4.584c.654.774 1.301 1.542 1.94 2.304l.766-.642a808.83 808.83 0 00-1.942-2.307l-.764.645zm3.836 4.572c.653.784 1.298 1.562 1.936 2.333l.771-.638c-.639-.772-1.285-1.55-1.939-2.335l-.768.64zm3.864 4.669c.635.772 1.263 1.538 1.884 2.298l.774-.633c-.621-.76-1.25-1.527-1.886-2.3l-.772.635zm3.785 4.629c.644.792 1.28 1.578 1.91 2.357l.778-.629c-.631-.78-1.268-1.566-1.913-2.359l-.775.631zm3.781 4.674l1.884 2.344.78-.626c-.622-.775-1.25-1.557-1.885-2.345l-.779.627zm3.777 4.707l1.858 2.325.782-.623c-.614-.769-1.233-1.545-1.859-2.326l-.781.624zm3.742 4.687l1.881 2.359.781-.624-1.88-2.359-.782.624zm3.732 4.68l1.898 2.375.781-.625-1.897-2.374-.782.624zm3.776 4.717c.63.784 1.256 1.562 1.88 2.334l.778-.628a1047.24 1047.24 0 01-1.878-2.332l-.78.626zm3.784 4.683c.633.778 1.263 1.55 1.893 2.316l.773-.634a641.348 641.348 0 01-1.89-2.313l-.776.631zm3.815 4.647c.642.774 1.285 1.544 1.927 2.31l.766-.643a533.194 533.194 0 01-1.924-2.306l-.769.639zm3.866 4.604c.653.767 1.307 1.53 1.964 2.289l.756-.654a402.829 402.829 0 01-1.958-2.283l-.762.648zm3.939 4.555c.663.753 1.329 1.504 1.999 2.251l.745-.667a303.99 303.99 0 01-1.993-2.245l-.751.661zm4.021 4.486c.676.739 1.356 1.475 2.042 2.21l.731-.683a246.627 246.627 0 01-2.035-2.202l-.738.675zm4.108 4.398a266.68 266.68 0 002.101 2.176l.715-.699a264.59 264.59 0 01-2.093-2.167l-.723.69zm4.206 4.306c.709.709 1.426 1.417 2.151 2.124l.698-.715c-.722-.705-1.436-1.41-2.142-2.116l-.707.707zm4.315 4.211a244.1 244.1 0 002.189 2.059l.681-.732a257.313 257.313 0 01-2.18-2.051l-.69.724zm4.433 4.119c.729.661 1.467 1.322 2.216 1.985l.662-.749c-.745-.66-1.48-1.319-2.206-1.977l-.672.741zm4.491 3.974c.756.654 1.523 1.308 2.3 1.964l.645-.764a249.89 249.89 0 01-2.292-1.956l-.653.756zm4.59 3.876a284.91 284.91 0 002.355 1.92l.628-.779a263.807 263.807 0 01-2.346-1.913l-.637.772zm4.704 3.794a304.53 304.53 0 002.355 1.839l.612-.792a284.563 284.563 0 01-2.347-1.832l-.62.785zm4.776 3.69a326.21 326.21 0 002.4 1.798l.596-.803c-.809-.6-1.606-1.197-2.393-1.793l-.603.798zm4.803 3.565c.812.592 1.635 1.186 2.469 1.782l.582-.813a348.363 348.363 0 01-2.462-1.777l-.589.808zm4.931 3.527c.801.563 1.613 1.128 2.435 1.696l.568-.823a334.6 334.6 0 01-2.428-1.692l-.575.819zm4.933 3.408c.838.57 1.686 1.142 2.546 1.718l.556-.832a411.993 411.993 0 01-2.54-1.712l-.562.826zm4.995 3.345c.826.545 1.662 1.092 2.509 1.643l.545-.838a459.88 459.88 0 01-2.503-1.64l-.551.835zm5.079 3.303l1.309.837.538-.844c-.439-.279-.874-.557-1.307-.835l-.54.842zm1.309.836c.432.277.865.552 1.298.824l.532-.846c-.43-.271-.861-.545-1.292-.82l-.538.842zm3.893 2.43c.865.527 1.73 1.044 2.594 1.553l.507-.862c-.86-.506-1.72-1.021-2.581-1.545l-.52.854zm5.186 3.051c.863.491 1.726.973 2.589 1.446l.481-.876c-.859-.471-1.717-.951-2.576-1.439l-.494.869zm5.252 2.881c.902.476 1.802.943 2.703 1.4l.453-.891c-.896-.455-1.792-.92-2.688-1.394l-.468.885zm5.402 2.745a199.7 199.7 0 002.696 1.289l.424-.906c-.893-.418-1.787-.846-2.681-1.282l-.439.899zm5.389 2.524c.934.419 1.867.828 2.8 1.228l.393-.919c-.927-.398-1.855-.805-2.783-1.222l-.41.913zm5.594 2.398c.931.38 1.861.751 2.791 1.113l.362-.932c-.924-.36-1.849-.729-2.774-1.107l-.379.926zm5.576 2.169c.946.35 1.892.69 2.837 1.021l.33-.944c-.939-.329-1.879-.667-2.82-1.015l-.347.938zm5.713 1.999c.958.317 1.914.623 2.87.921l.297-.955c-.95-.296-1.901-.601-2.853-.915l-.314.949zm5.733 1.783c.962.281 1.922.551 2.881.813l.263-.965a168.95 168.95 0 01-2.864-.808l-.28.96zm5.822 1.586c.979.248 1.956.486 2.933.714l.228-.973c-.971-.228-1.943-.464-2.916-.711l-.245.97zm5.858 1.371a165 165 0 002.924.602l.193-.982c-.968-.19-1.937-.389-2.907-.598l-.21.978zm5.912 1.16c.994.177 1.987.343 2.978.501l.157-.988c-.985-.156-1.972-.322-2.96-.498l-.175.985zm5.947.944c.989.139 1.976.268 2.962.388l.12-.993c-.979-.119-1.96-.248-2.943-.385l-.139.99zm5.979.727c1.004.104 2.006.198 3.006.283l.085-.996c-.994-.084-1.99-.178-2.988-.281l-.103.994zm6 .511c.998.067 1.994.124 2.988.173l.049-.999c-.988-.048-1.978-.106-2.97-.172l-.067.998zm6.017.294c1.008.032 2.013.054 3.016.067l.014-1c-.998-.013-1.997-.035-2.999-.066l-.031.999zm6.019.08c1.002-.004 2.002-.017 3-.039l-.022-1c-.992.022-1.986.035-2.982.039l.004 1zm6.026-.131c1.006-.04 2.01-.088 3.011-.145l-.057-.998c-.995.056-1.993.104-2.993.143l.039 1zm6.005-.34c1.002-.073 2.002-.155 2.998-.246l-.09-.996c-.991.09-1.985.172-2.981.245l.073.997zm6.007-.544c1-.107 1.997-.223 2.991-.346l-.123-.993c-.989.123-1.981.238-2.975.345l.107.994zm5.964-.74c.997-.14 1.992-.289 2.983-.445l-.155-.987c-.986.155-1.975.302-2.968.442l.14.99zm5.962-.937c.99-.172 1.976-.352 2.959-.538l-.187-.983c-.978.186-1.959.364-2.943.535l.171.986zm5.897-1.12c.99-.203 1.976-.414 2.959-.633l-.216-.976c-.978.217-1.96.427-2.944.63l.201.979zm5.898-1.308c.975-.232 1.947-.471 2.916-.716l-.246-.969c-.963.244-1.931.481-2.902.712l.232.973zm5.823-1.476c.976-.262 1.947-.531 2.914-.806l-.274-.962c-.962.274-1.929.541-2.899.803l.259.965zm5.803-1.651c.959-.287 1.914-.581 2.864-.881l-.3-.953c-.947.298-1.897.59-2.851.876l.287.958zm5.738-1.808c.957-.316 1.91-.638 2.858-.966l-.326-.945c-.944.326-1.893.647-2.846.961l.314.95zm5.69-1.965c.943-.34 1.882-.686 2.815-1.036l-.351-.936c-.93.349-1.864.692-2.803 1.031l.339.941zm5.642-2.118c.938-.365 1.87-.736 2.798-1.111l-.376-.927c-.923.374-1.852.743-2.785 1.107l.363.931zm5.564-2.251c.932-.391 1.859-.786 2.78-1.186l-.398-.917c-.917.398-1.84.792-2.768 1.181l.386.922zm5.542-2.404c.915-.41 1.824-.824 2.728-1.242l-.42-.908c-.9.417-1.806.829-2.717 1.238l.409.912zm5.447-2.519c.914-.436 1.823-.876 2.725-1.32l-.441-.897c-.899.442-1.804.88-2.715 1.314l.431.903zm5.414-2.659c.891-.451 1.777-.904 2.655-1.361l-.46-.887c-.876.454-1.758.906-2.646 1.355l.451.893zm5.345-2.777c.889-.474 1.772-.952 2.648-1.431l-.481-.878c-.872.478-1.752.954-2.638 1.427l.471.882zm5.254-2.877a281.84 281.84 0 002.638-1.5l-.499-.867c-.868.5-1.745.999-2.628 1.495l.489.872zm5.244-3.019c.861-.508 1.714-1.017 2.56-1.527l-.517-.856a312.81 312.81 0 01-2.551 1.522l.508.861zm5.145-3.106c.863-.533 1.716-1.066 2.561-1.6l-.534-.845c-.842.532-1.693 1.063-2.552 1.594l.525.851zm5.069-3.202c.857-.553 1.704-1.106 2.541-1.659l-.551-.834c-.834.55-1.678 1.102-2.532 1.653l.542.84zm5.052-3.333a287.77 287.77 0 002.449-1.669l-.566-.823a331.47 331.47 0 01-2.442 1.663l.559.829zm4.956-3.412c.829-.582 1.646-1.162 2.451-1.739l-.583-.813c-.802.576-1.617 1.154-2.443 1.734l.575.818zm4.861-3.485c.833-.609 1.652-1.214 2.457-1.815l-.598-.802c-.802.599-1.619 1.203-2.449 1.81l.59.807zm4.831-3.604c.818-.623 1.621-1.24 2.407-1.85l-.613-.79c-.784.608-1.584 1.224-2.4 1.844l.606.796zm4.775-3.707c.796-.63 1.575-1.252 2.334-1.865l-.628-.779c-.757.612-1.533 1.232-2.327 1.86l.621.784zm4.692-3.788c.782-.644 1.541-1.275 2.278-1.894l-.643-.766c-.735.617-1.492 1.247-2.27 1.888l.635.772zm4.611-3.874c.78-.668 1.53-1.318 2.25-1.948l-.659-.753c-.717.628-1.465 1.276-2.242 1.942l.651.759zm4.518-3.954a272.89 272.89 0 002.253-2.037l-.675-.738c-.702.642-1.45 1.319-2.244 2.029l.666.746zm4.43-4.05c.807-.756 1.527-1.44 2.157-2.045l-.692-.721a269.52 269.52 0 01-2.148 2.036l.683.73zm4.384-4.214c.325-.321.566-.562.733-.725a9.784 9.784 0 01.204-.198l.006-.006.002-.002-.004.004-.02.015c-.006.004-.034.024-.074.042a.494.494 0 01-.522-.064l.627-.779a.499.499 0 00-.526-.064c-.042.02-.072.041-.081.047a.633.633 0 00-.052.041l-.067.061-.195.19-.734.727.703.711zm.991-.969l1.074-1.074-.708-.706c-.356.357-.714.715-1.072 1.071l.706.709zm3.209-3.226c.709-.719 1.415-1.439 2.118-2.16l-.717-.698c-.701.72-1.405 1.438-2.113 2.156l.712.702zm4.217-4.327c.697-.723 1.391-1.448 2.081-2.174l-.724-.689c-.689.724-1.382 1.447-2.077 2.169l.72.694zm4.145-4.354a465.08 465.08 0 002.046-2.188l-.733-.681c-.677.729-1.358 1.457-2.041 2.184l.728.685zm4.085-4.395c.685-.745 1.367-1.492 2.045-2.24l-.74-.672c-.678.747-1.358 1.492-2.042 2.236l.737.676zm4.071-4.487c.673-.75 1.342-1.501 2.008-2.254l-.749-.662c-.664.75-1.332 1.5-2.003 2.249l.744.667zm3.997-4.514c.659-.754 1.316-1.51 1.969-2.266l-.757-.654c-.652.755-1.307 1.509-1.965 2.262l.753.658zm3.92-4.539a575.27 575.27 0 001.941-2.291l-.765-.644c-.642.763-1.288 1.525-1.937 2.286l.761.649zm3.888-4.618c.646-.777 1.288-1.555 1.927-2.333l-.773-.635c-.637.777-1.278 1.554-1.923 2.329l.769.639zm3.835-4.673c.632-.781 1.261-1.562 1.887-2.345l-.781-.625c-.625.781-1.252 1.562-1.883 2.341l.777.629zm3.754-4.697a443.24 443.24 0 001.847-2.357l-.789-.614c-.611.785-1.225 1.569-1.843 2.352l.785.619zm3.686-4.735c.617-.804 1.23-1.608 1.84-2.413l-.797-.603c-.609.803-1.221 1.605-1.836 2.406l.793.61zm3.658-4.831a445.4 445.4 0 001.798-2.423l-.805-.593c-.594.807-1.192 1.613-1.794 2.418l.801.598zm3.575-4.852c.588-.811 1.174-1.623 1.755-2.435l-.813-.582c-.58.811-1.164 1.62-1.751 2.429l.809.588zm3.489-4.875c.581-.822 1.158-1.646 1.731-2.47l-.821-.571c-.572.823-1.148 1.644-1.727 2.465l.817.576zm3.453-4.965c.571-.833 1.137-1.667 1.7-2.501l-.829-.559c-.561.832-1.127 1.664-1.696 2.494l.825.566zm3.378-5.007c.556-.836 1.108-1.673 1.656-2.51l-.837-.548c-.547.836-1.097 1.671-1.652 2.505l.833.553zm3.289-5.026c.541-.839 1.078-1.679 1.611-2.52l-.844-.535c-.532.838-1.068 1.676-1.607 2.514l.84.541zm3.225-5.086c.536-.857 1.067-1.716 1.595-2.576l-.853-.523c-.526.858-1.056 1.714-1.59 2.57l.848.529zm3.165-5.156c.52-.861 1.036-1.723 1.548-2.585l-.86-.51c-.511.86-1.025 1.719-1.544 2.578l.856.517zm3.071-5.174c.504-.864 1.005-1.728 1.501-2.593l-.868-.498c-.495.863-.994 1.725-1.496 2.587l.863.504zm2.986-5.206c.497-.883.99-1.766 1.479-2.65l-.875-.484c-.488.882-.98 1.763-1.475 2.643l.871.491zm2.933-5.303c.481-.885.957-1.77 1.43-2.656l-.883-.471c-.471.884-.946 1.767-1.426 2.65l.879.477zm2.834-5.317c.464-.887.924-1.775 1.38-2.664l-.89-.456c-.454.886-.913 1.772-1.376 2.657l.886.463zm2.735-5.331c.455-.905.905-1.809 1.351-2.714l-.897-.442c-.445.902-.894 1.805-1.348 2.706l.894.45zm2.679-5.437c.438-.908.872-1.816 1.301-2.725l-.904-.428c-.428.907-.861 1.813-1.298 2.719l.901.434zm2.577-5.454c.42-.91.837-1.821 1.249-2.732l-.911-.412a331.72 331.72 0 01-1.246 2.724l.908.42zm2.472-5.466c.407-.921.81-1.842 1.208-2.764l-.918-.397c-.397.92-.799 1.838-1.205 2.757l.915.404zm2.398-5.552c.393-.93.78-1.86 1.163-2.79l-.925-.381c-.382.928-.768 1.855-1.159 2.782l.921.389zm2.298-5.583c.374-.931.743-1.863 1.108-2.794l-.931-.365c-.364.929-.732 1.858-1.105 2.787l.928.372zm2.188-5.591c.357-.938.71-1.877 1.058-2.816l-.937-.347c-.347.936-.699 1.871-1.056 2.807l.935.356zm2.1-5.664c.342-.949.68-1.899 1.012-2.849l-.944-.331c-.331.947-.668 1.894-1.009 2.841l.941.339zm1.996-5.701c.323-.95.641-1.901.954-2.852l-.95-.313c-.312.948-.629 1.896-.951 2.844l.947.321zm1.88-5.706c.304-.955.604-1.91.899-2.866l-.955-.295c-.294.953-.593 1.905-.897 2.857l.953.304zm1.78-5.768c.288-.967.572-1.935.85-2.902l-.961-.277c-.277.965-.56 1.929-.847 2.894l.958.285zm1.67-5.805c.268-.968.531-1.936.789-2.904l-.966-.257c-.257.964-.519 1.929-.787 2.894l.964.267zm1.548-5.808c.249-.971.492-1.942.73-2.914l-.971-.238c-.237.968-.48 1.936-.728 2.904l.969.248zm1.438-5.862c.23-.982.456-1.965.676-2.947l-.976-.219c-.219.979-.444 1.959-.674 2.938l.974.228zm1.319-5.894c.21-.982.414-1.965.612-2.947l-.98-.198c-.198.979-.401 1.958-.61 2.936l.978.209zm1.192-5.892c.189-.986.372-1.972.55-2.958l-.984-.178c-.177.983-.36 1.965-.548 2.948l.982.188zm1.072-5.942c.168-.995.331-1.989.489-2.983l-.988-.156c-.157.99-.319 1.981-.487 2.972l.986.167zm.944-5.964c.147-.994.287-1.987.423-2.98l-.991-.134c-.135.989-.275 1.978-.421 2.968l.989.146zm.811-5.957c.125-.998.244-1.996.357-2.993l-.993-.113c-.113.993-.232 1.987-.356 2.982l.992.124zm.682-6.002c.103-1.003.199-2.005.29-3.007l-.996-.091c-.09.998-.187 1.997-.289 2.996l.995.102zm.546-6.011c.079-1.001.153-2.001.221-3.001l-.998-.068c-.068.996-.141 1.993-.22 2.99l.997.079zm.406-6c.057-1.006.108-2.011.152-3.016l-.999-.044a252.678 252.678 0 01-.151 3.004l.998.056zm.269-6.037c.033-1.007.06-2.012.081-3.018l-1-.02a251.675 251.675 0 01-.081 3.005l1 .033zm.125-6.031c.009-1.004.012-2.008.009-3.01l-1 .003c.003.998 0 1.998-.009 2.998l1 .009zm-.018-6.016a253.572 253.572 0 00-.065-3.023l-.999.027c.027 1.003.049 2.007.064 3.011l1-.015zm-.166-6.042c-.04-1.005-.086-2.01-.138-3.014l-.998.052c.052 1 .097 2.001.137 3.002l.999-.04zm-.313-6.022a249.608 249.608 0 00-.212-3.004l-.997.077c.076.996.147 1.993.211 2.991l.998-.064zm-.462-6.007c-.09-1.003-.186-2.005-.289-3.006l-.994.102c.102.997.197 1.995.287 2.993l.996-.089zm-.615-6.006a230.65 230.65 0 00-.364-2.994l-.992.127c.127.993.248 1.987.363 2.982l.993-.115zm-.766-5.982c-.14-.994-.287-1.988-.44-2.981l-.988.152c.152.989.298 1.979.438 2.969l.99-.14zm-.919-5.958c-.166-.992-.338-1.982-.517-2.972l-.984.178c.178.985.35 1.972.515 2.959l.986-.165zm-1.073-5.936c-.192-.987-.39-1.973-.594-2.957l-.979.203c.203.98.401 1.962.591 2.945l.982-.191zm-1.227-5.907c-.218-.982-.442-1.963-.672-2.942l-.973.229c.229.975.452 1.951.668 2.929l.977-.216zm-1.381-5.869c-.243-.975-.492-1.948-.748-2.92l-.967.255c.255.967.503 1.936.745 2.906l.97-.241zm-1.534-5.831c-.269-.969-.544-1.937-.826-2.903l-.96.28c.281.962.555 1.925.822 2.89l.964-.267zm-1.69-5.798c-.294-.961-.595-1.92-.902-2.878l-.952.305c.305.954.605 1.909.897 2.866l.957-.293zm-1.839-5.737c-.319-.952-.644-1.902-.976-2.85l-.944.33c.331.944.654 1.89.972 2.838l.948-.318zm-1.991-5.691c-.344-.945-.696-1.889-1.054-2.831l-.934.355c.356.938.706 1.878 1.049 2.819l.939-.343zm-2.147-5.653c-.368-.932-.742-1.863-1.124-2.792l-.925.38c.38.925.753 1.851 1.119 2.779l.93-.367zm-2.283-5.565c-.393-.923-.792-1.844-1.198-2.764l-.914.404c.404.916.801 1.833 1.192 2.752l.92-.392zm-2.434-5.517c-.419-.916-.844-1.831-1.276-2.743l-.904.427c.43.909.853 1.819 1.27 2.731l.91-.415zm-2.59-5.476c-.438-.897-.883-1.792-1.334-2.685l-.893.451c.449.889.892 1.78 1.329 2.673l.898-.439zm-2.706-5.358c-.464-.889-.934-1.776-1.41-2.662l-.881.474c.475.882.943 1.765 1.404 2.651l.887-.463zm-2.858-5.313c-.489-.882-.984-1.762-1.486-2.64l-.868.496c.499.875.993 1.751 1.48 2.629l.874-.485zm-3.007-5.263a252.033 252.033 0 00-1.534-2.569l-.855.518c.515.851 1.024 1.704 1.527 2.559l.862-.508zm-3.105-5.128c-.53-.85-1.066-1.7-1.608-2.547l-.843.54a228.48 228.48 0 011.602 2.536l.849-.529zm-3.254-5.082a240.457 240.457 0 00-1.683-2.524l-.828.56a261.11 261.11 0 011.676 2.513l.835-.549zm-3.396-5.026a245.626 245.626 0 00-1.718-2.445l-.815.58c.577.81 1.147 1.621 1.711 2.435l.822-.57zm-3.472-4.878a251.371 251.371 0 00-1.791-2.421l-.8.599c.6.802 1.195 1.606 1.783 2.412l.808-.59zm-3.617-4.831c-.615-.801-1.236-1.6-1.863-2.397l-.786.618c.625.794 1.243 1.59 1.856 2.388l.793-.609zm-3.756-4.776a268.36 268.36 0 00-1.885-2.312l-.771.637c.631.765 1.257 1.533 1.877 2.302l.779-.627zm-3.804-4.611a257.422 257.422 0 00-1.954-2.288l-.756.654c.654.757 1.303 1.517 1.946 2.279l.764-.645zm-3.942-4.564c-.669-.756-1.343-1.51-2.023-2.263l-.742.671c.678.75 1.349 1.501 2.016 2.255l.749-.663zm-4.082-4.513c-.674-.73-1.354-1.457-2.039-2.182l-.727.687c.683.723 1.36 1.447 2.032 2.173l.734-.678zm-4.103-4.343a281.803 281.803 0 00-2.098-2.148l-.712.702c.702.712 1.399 1.425 2.09 2.141l.72-.695zm-4.228-4.285c-.716-.71-1.437-1.418-2.164-2.124l-.697.718c.724.703 1.443 1.409 2.156 2.116l.705-.71zm-4.361-4.235a289.41 289.41 0 00-2.198-2.069l-.682.732a288.61 288.61 0 012.191 2.061l.689-.724zm-4.388-4.088c-.735-.671-1.476-1.34-2.221-2.007l-.667.745a332.3 332.3 0 012.214 2l.674-.738zm-4.474-4.002a318.26 318.26 0 00-2.283-1.983l-.652.759c.764.656 1.523 1.315 2.276 1.976l.659-.752zm-4.599-3.953a328.28 328.28 0 00-2.346-1.957l-.637.771a305.65 305.65 0 012.339 1.951l.644-.765zm-4.658-3.848c-.77-.623-1.545-1.245-2.325-1.865l-.622.783c.778.618 1.55 1.238 2.318 1.859l.629-.777zm-4.679-3.718a305.817 305.817 0 00-2.384-1.841l-.607.794c.797.61 1.589 1.222 2.376 1.836l.615-.789zm-4.797-3.67a336.608 336.608 0 00-2.443-1.816l-.593.805c.817.602 1.629 1.205 2.436 1.811l.6-.8zm-4.916-3.62a346.912 346.912 0 00-2.417-1.731l-.578.816c.807.573 1.611 1.148 2.409 1.725l.586-.81zm-4.854-3.444a366.97 366.97 0 00-2.465-1.702l-.564.826c.824.563 1.643 1.129 2.458 1.696l.571-.82zm-4.957-3.391a367.582 367.582 0 00-2.521-1.678l-.55.835c.842.556 1.68 1.113 2.513 1.673l.558-.83zm-5.069-3.343a344.413 344.413 0 00-2.576-1.654l-.537.844a354.28 354.28 0 012.569 1.649l.544-.839zm-5.101-3.245a387.444 387.444 0 00-2.529-1.566l-.523.852c.845.519 1.686 1.039 2.522 1.562l.53-.848zm-5.083-3.12a399.574 399.574 0 00-2.58-1.543l-.51.86c.862.511 1.72 1.024 2.574 1.539l.516-.856zm-5.186-3.074a412.455 412.455 0 00-2.632-1.519l-.497.868c.88.503 1.755 1.008 2.626 1.515l.503-.864zm-5.291-3.026c-.878-.494-1.761-.986-2.647-1.475l-.484.875c.885.489 1.765.979 2.641 1.471l.49-.871zm-5.247-2.899c-.871-.473-1.746-.943-2.624-1.412l-.471.882c.876.468 1.749.937 2.618 1.409l.477-.879zm-5.273-2.814c-.887-.465-1.778-.928-2.672-1.39l-.459.889c.893.461 1.782.923 2.667 1.387l.464-.886zm-5.369-2.768c-.903-.458-1.81-.914-2.721-1.368l-.446.896c.909.452 1.814.907 2.715 1.364l.452-.892zm-5.467-2.723c-.897-.439-1.797-.876-2.702-1.312l-.433.902c.902.434 1.801.87 2.695 1.308l.44-.898zm-5.378-2.589c-.896-.424-1.796-.846-2.7-1.267l-.422.907c.902.42 1.8.841 2.694 1.264l.428-.904zm-5.421-2.522c-.911-.417-1.826-.832-2.745-1.245l-.41.912a434 434 0 012.739 1.242l.416-.909zm-5.511-2.479c-.926-.41-1.856-.818-2.79-1.223l-.398.917c.931.405 1.859.812 2.783 1.22l.405-.914zm-5.602-2.435c-.47-.201-.942-.402-1.415-.602l-.39.921c.472.199.943.4 1.412.6l.393-.919zm-1.61-.142l-.39.921.39-.921zM129.003 444.97l.641-.767-.641.767zm274.975 267.751l.539-.842-.002-.001-.537.843zm261.25-48.622l-.627.779.698.562.635-.633-.706-.708zm-70.338-496.52a290.21 290.21 0 00-1.392-.585l-.77 1.846c.461.192.922.386 1.382.581l.78-1.842zm-4.185-1.734c-.934-.378-1.869-.751-2.806-1.119l-.732 1.861c.931.366 1.86.737 2.787 1.112l.751-1.854zm-5.624-2.21c-.942-.359-1.885-.713-2.83-1.063l-.694 1.877c.939.346 1.876.698 2.811 1.054l.713-1.868zm-5.672-2.096c-.95-.34-1.901-.675-2.854-1.005l-.655 1.889c.947.329 1.892.661 2.835.999l.674-1.883zm-5.718-1.982c-.956-.321-1.914-.637-2.873-.948l-.617 1.903c.953.309 1.904.623 2.854.941l.636-1.896zm-5.746-1.864a290.8 290.8 0 00-2.884-.889l-.58 1.914c.957.289 1.912.584 2.865.883l.599-1.908zm-5.778-1.751c-.967-.283-1.935-.561-2.904-.834l-.543 1.925c.963.272 1.925.548 2.885.829l.562-1.92zm-5.818-1.641c-.973-.265-1.948-.525-2.924-.78l-.506 1.935c.97.254 1.938.512 2.905.775l.525-1.93zm-5.857-1.533c-.979-.247-1.959-.489-2.942-.726l-.47 1.944c.976.236 1.951.476 2.924.721l.488-1.939zm-5.874-1.422c-.979-.227-1.959-.45-2.94-.668l-.435 1.952c.976.217 1.95.439 2.922.665l.453-1.949zm-5.888-1.311c-.984-.21-1.969-.416-2.956-.617l-.4 1.959c.981.201 1.961.405 2.939.614l.417-1.956zm-5.92-1.208a324.5 324.5 0 00-2.972-.566l-.365 1.966c.986.184 1.971.371 2.954.563l.383-1.963zm-5.951-1.106c-.994-.176-1.989-.348-2.986-.515l-.331 1.972c.991.167 1.981.337 2.969.512l.348-1.969zm-5.966-1.003a418.77 418.77 0 00-2.977-.461l-.298 1.978c.988.149 1.975.302 2.961.459l.314-1.976zm-5.961-.898c-.995-.141-1.992-.278-2.989-.412l-.265 1.983c.992.132 1.983.269 2.973.41l.281-1.981zm-5.985-.8c-1-.125-2-.246-3.001-.364l-.233 1.987c.996.116 1.991.237 2.985.362l.249-1.985zm-6.008-.703c-1.004-.11-2.008-.215-3.013-.316l-.2 1.989c.999.101 1.998.206 2.996.315l.217-1.988zm-6.027-.608a370.96 370.96 0 00-2.999-.267l-.169 1.993c.995.084 1.99.173 2.983.265l.185-1.991zm-6.003-.511c-1.002-.077-2.005-.15-3.008-.22l-.139 1.995c.998.069 1.996.143 2.993.219l.154-1.994zm-6.021-.418c-1.005-.062-2.01-.12-3.016-.175l-.109 1.997c1.001.055 2.002.113 3.002.174l.123-1.996zm-6.037-.327c-1.007-.047-2.015-.09-3.023-.13l-.079 1.998c1.004.04 2.007.083 3.009.13l.093-1.998zm-6.05-.238a432.22 432.22 0 00-3.017-.085l-.049 2c1.001.024 2.002.053 3.002.084l.064-1.999zm-6.029-.147c-1.005-.018-2.01-.032-3.016-.042l-.02 2c1.001.01 2.001.024 3.001.041l.035-1.999zm-6.033-.062a434.347 434.347 0 00-3.02.002l.008 2c1.002-.004 2.004-.005 3.006-.002l.006-2zm-6.042.025c-1.007.011-2.015.026-3.023.044l.036 2a432.19 432.19 0 013.009-.044l-.022-2zm-6.048.109c-1.008.025-2.017.054-3.025.086l.064 1.999c1.004-.032 2.007-.06 3.011-.085l-.05-2zm-6.037.192a433.16 433.16 0 00-3.012.127l.09 1.998c1-.046 2-.088 2.999-.126l-.077-1.999zm-6.026.274c-1.004.052-2.009.108-3.014.167l.118 1.996c1-.058 2-.114 3-.166l-.104-1.997zm-6.028.354c-1.005.066-2.01.135-3.014.207l.143 1.995a436.17 436.17 0 013.001-.206l-.13-1.996zm-6.029.434a516.76 516.76 0 00-3.014.246l.17 1.993c1-.085 2-.167 3.001-.245l-.157-1.994zm-6.022.512c-1.001.092-2.002.186-3.003.284l.195 1.991c.997-.098 1.994-.192 2.99-.283l-.182-1.992zm-6.005.588c-1.001.105-2.001.212-3.001.323l.22 1.988c.996-.111 1.992-.218 2.989-.322l-.208-1.989zm-6.001.665c-.999.117-1.999.237-2.998.36l.245 1.985c.995-.123 1.99-.242 2.986-.359l-.233-1.986zm-5.994.739c-.999.13-1.997.262-2.995.398l.27 1.982c.994-.135 1.988-.267 2.982-.396l-.257-1.984zm-5.987.814c-.996.142-1.992.286-2.988.434l.294 1.979c.991-.148 1.983-.292 2.976-.433l-.282-1.98zm-5.973.887c-.994.153-1.988.31-2.982.47l.317 1.975c.99-.16 1.98-.316 2.971-.469l-.306-1.976zm-5.961.958c-.993.166-1.985.335-2.977.506l.341 1.971a495.68 495.68 0 012.965-.504l-.329-1.973zm-5.95 1.03c-.99.177-1.98.358-2.969.541l.365 1.967a495.2 495.2 0 012.957-.54l-.353-1.968zm-5.934 1.1c-.989.189-1.977.381-2.964.576l.388 1.962c.983-.194 1.967-.385 2.952-.574l-.376-1.964zm-5.927 1.17c-.987.201-1.974.405-2.959.612l.41 1.957c.982-.205 1.965-.409 2.948-.609l-.399-1.96zm-5.914 1.241c-.984.212-1.967.427-2.949.645l.433 1.952c.978-.217 1.958-.431 2.938-.642l-.422-1.955zm-5.894 1.307c-.981.224-1.96.45-2.939.679l.455 1.947c.975-.228 1.952-.453 2.928-.676l-.444-1.95zm-5.873 1.374c-.977.235-1.953.472-2.929.712l.478 1.942c.972-.239 1.944-.476 2.917-.709l-.466-1.945zm-5.862 1.442c-.978.247-1.955.496-2.931.748l.5 1.937c.972-.251 1.946-.5 2.92-.745l-.489-1.94zm-5.857 1.512c-.974.258-1.946.518-2.918.781l.522 1.93c.968-.261 1.937-.521 2.907-.777l-.511-1.934zm-5.83 1.577c-.97.268-1.938.538-2.905.812l.543 1.924c.964-.272 1.929-.542 2.895-.809l-.533-1.927zm-5.803 1.639c-.965.279-1.929.56-2.891.843l.565 1.919c.959-.283 1.919-.563 2.88-.84l-.554-1.922zm-5.777 1.703c-.968.291-1.935.585-2.9.881l.587 1.912a511.02 511.02 0 012.889-.878l-.576-1.915zm-5.792 1.778c-.963.302-1.924.606-2.884.913l.609 1.905c.956-.306 1.914-.609 2.873-.909l-.598-1.909zm-5.759 1.84c-.957.312-1.912.626-2.866.942l.63 1.899c.95-.316 1.902-.629 2.855-.939l-.619-1.902zm-5.724 1.9c-.951.321-1.9.645-2.848.972l.652 1.891c.944-.325 1.89-.648 2.837-.969l-.641-1.894zm-5.686 1.959c-.953.334-1.903.67-2.852 1.009l.673 1.883a592.97 592.97 0 012.841-1.005l-.662-1.887zm-5.706 2.037c-.949.346-1.897.693-2.843 1.043l.694 1.876c.942-.349 1.887-.695 2.833-1.039l-.684-1.88zm-5.676 2.101c-.943.355-1.884.712-2.823 1.072l.716 1.867c.935-.358 1.872-.714 2.811-1.067l-.704-1.872zm-5.634 2.158c-.935.364-1.869.731-2.8 1.1l.736 1.86c.928-.368 1.858-.733 2.79-1.096l-.726-1.864zm-5.589 2.214c-.932.376-1.861.753-2.789 1.133l.758 1.851c.924-.379 1.85-.755 2.778-1.129l-.747-1.855zm-5.599 2.293c-.935.39-1.867.781-2.798 1.175l.78 1.842a430.11 430.11 0 012.787-1.17l-.769-1.847zm-5.582 2.363c-.927.398-1.851.799-2.772 1.202l.801 1.833c.918-.402 1.838-.801 2.761-1.198l-.79-1.837zm-5.531 2.418c-.918.407-1.833.817-2.746 1.229l.823 1.823c.909-.411 1.821-.819 2.734-1.225l-.811-1.827zm-5.478 2.471c-.908.416-1.814.835-2.718 1.256l.844 1.813c.9-.419 1.803-.836 2.708-1.251l-.834-1.818zm-5.477 2.55c-.917.434-1.832.87-2.744 1.308l.866 1.803c.909-.437 1.82-.871 2.733-1.303l-.855-1.808zm-5.472 2.629c-.907.443-1.812.887-2.714 1.334l.888 1.792a423.82 423.82 0 012.703-1.328l-.877-1.798zm-5.411 2.682c-.897.451-1.791.904-2.682 1.36l.91 1.781a476 476 0 012.671-1.355l-.899-1.786zm-5.348 2.732c-.886.46-1.769.922-2.649 1.386l.932 1.769c.877-.462 1.756-.922 2.638-1.379l-.921-1.776zm-5.342 2.815c-.896.48-1.789.962-2.679 1.446l.955 1.757c.886-.482 1.776-.962 2.668-1.439l-.944-1.764zm-5.341 2.903c-.885.489-1.766.979-2.644 1.471l.978 1.744c.874-.49 1.752-.978 2.632-1.464l-.966-1.751zm-5.269 2.954c-.872.496-1.74.994-2.606 1.495l1.001 1.731c.862-.498 1.726-.994 2.595-1.488l-.99-1.738zm-5.193 3.002c-.86.504-1.717 1.011-2.57 1.52l1.024 1.718c.849-.507 1.702-1.011 2.558-1.514l-1.012-1.724zm-5.193 3.096c-.871.527-1.738 1.056-2.601 1.588l1.048 1.703c.859-.529 1.722-1.056 2.589-1.581l-1.036-1.71zm-5.182 3.188c-.856.535-1.709 1.072-2.558 1.612l1.072 1.688c.845-.537 1.694-1.072 2.547-1.604l-1.061-1.696zm-5.095 3.235c-.842.544-1.68 1.089-2.514 1.636l1.096 1.672c.831-.544 1.665-1.087 2.503-1.627l-1.085-1.681zm-5.006 3.282c-.837.558-1.67 1.117-2.499 1.679l1.121 1.656c.825-.559 1.654-1.115 2.487-1.67l-1.109-1.665zm-5.028 3.405c-.839.577-1.673 1.156-2.503 1.738l1.146 1.638c.826-.578 1.657-1.154 2.491-1.729l-1.134-1.647zm-4.982 3.487c-.821.585-1.639 1.171-2.452 1.76l1.173 1.62c.808-.585 1.622-1.169 2.439-1.751l-1.16-1.629zm-4.879 3.531c-.804.593-1.604 1.187-2.4 1.783l1.199 1.6c.791-.592 1.587-1.183 2.387-1.772l-1.186-1.611zm-4.773 3.576c-.816.621-1.627 1.245-2.433 1.87l1.226 1.58a334.94 334.94 0 012.419-1.86l-1.212-1.59zm-4.841 3.754a359.36 359.36 0 00-2.378 1.896l1.254 1.558c.783-.63 1.571-1.258 2.364-1.884l-1.24-1.57zm-4.726 3.802a318.77 318.77 0 00-2.317 1.917l1.282 1.535c.762-.636 1.53-1.271 2.303-1.905l-1.268-1.547zm-4.603 3.844a288.74 288.74 0 00-2.255 1.937l1.31 1.511c.742-.643 1.489-1.285 2.241-1.925l-1.296-1.523zm-4.557 3.953c-.768.679-1.529 1.36-2.285 2.042l1.34 1.484c.751-.677 1.507-1.354 2.27-2.028l-1.325-1.498zm-4.535 4.094c-.744.686-1.482 1.373-2.214 2.062l1.371 1.457c.727-.684 1.46-1.367 2.199-2.048l-1.356-1.471zm-4.392 4.134a282.86 282.86 0 00-2.142 2.082l1.402 1.426a278.61 278.61 0 012.126-2.066l-1.386-1.442zm-4.246 4.173c-.728.731-1.449 1.463-2.163 2.198l1.433 1.394a258.66 258.66 0 012.147-2.181l-1.417-1.411zm-4.287 4.408c-.701.738-1.395 1.478-2.082 2.219l1.467 1.359c.681-.735 1.37-1.469 2.065-2.201l-1.45-1.377zm-4.122 4.447c-.672.744-1.338 1.49-1.996 2.237l1.5 1.322c.653-.74 1.313-1.48 1.98-2.218l-1.484-1.341zm-3.95 4.483c-.659.767-1.31 1.536-1.953 2.306l1.534 1.282c.638-.763 1.283-1.525 1.937-2.285l-1.518-1.303zm-3.912 4.684c-.645.794-1.281 1.59-1.909 2.387l1.571 1.238c.622-.789 1.252-1.578 1.891-2.364l-1.553-1.261zm-3.768 4.782c-.612.799-1.215 1.6-1.809 2.402l1.607 1.191c.588-.794 1.185-1.587 1.791-2.379l-1.589-1.214zm-3.566 4.813c-.585.815-1.161 1.631-1.728 2.448l1.644 1.14c.56-.809 1.13-1.616 1.709-2.423l-1.625-1.165zm-3.467 5.002c-.57.852-1.13 1.705-1.68 2.56l1.681 1.083a171.62 171.62 0 011.662-2.532l-1.663-1.111zm-3.301 5.128c-.531.857-1.051 1.715-1.562 2.574l1.72 1.021c.504-.848 1.018-1.696 1.542-2.543l-1.7-1.052zm-3.062 5.154c-.499.877-.988 1.754-1.465 2.633l1.757.955c.471-.867.953-1.733 1.446-2.599l-1.738-.989zm-2.912 5.36c-.47.91-.93 1.821-1.377 2.732l1.796.881c.44-.899.894-1.797 1.358-2.694l-1.777-.919zm-2.684 5.47c-.424.913-.836 1.827-1.236 2.742l1.832.802c.394-.901.8-1.802 1.218-2.702l-1.814-.842zm-2.4 5.489c-.39.948-.767 1.897-1.13 2.847l1.868.715c.357-.935.728-1.869 1.111-2.802l-1.85-.76zm-2.192 5.731c-.341.961-.668 1.924-.982 2.886l1.902.62c.308-.947.63-1.893.965-2.839l-1.885-.667zm-1.881 5.776c-.286.964-.558 1.928-.816 2.892l1.931.517c.254-.947.521-1.893.802-2.84l-1.917-.569zm-1.559 5.826c-.238 1-.46 2-.668 3l1.959.406c.203-.981.421-1.962.655-2.942l-1.946-.464zm-1.244 5.999c-.177 1-.338 2-.483 3l1.979.288c.142-.98.3-1.96.474-2.94l-1.97-.348zm-.872 6a95.15 95.15 0 00-.295 3.01l1.993.164c.08-.982.177-1.965.289-2.948l-1.987-.226zm-.495 6.062a91.922 91.922 0 00-.1 3.049l2 .032a90.12 90.12 0 01.097-2.983l-1.997-.098zm-.098 6.095a90.74 90.74 0 00.105 3.041l1.998-.103a87.468 87.468 0 01-.103-2.974l-2 .036zm.314 6.076c.087 1.006.19 2.012.312 3.016l1.986-.24a86.25 86.25 0 01-.305-2.947l-1.993.171zm.729 6.027c.156 1.002.33 2.003.522 3.003l1.965-.377a85.501 85.501 0 01-.511-2.935l-1.976.309zm1.152 5.999c.227.996.472 1.99.736 2.983l1.933-.513a86.118 86.118 0 01-.72-2.915l-1.95.445zm1.553 5.868c.29.96.596 1.919.92 2.876l1.894-.641a88.844 88.844 0 01-.9-2.812l-1.914.577zm1.944 5.743a91.86 91.86 0 001.128 2.856l1.848-.765a91.98 91.98 0 01-1.104-2.795l-1.872.704zm2.361 5.701c.41.904.836 1.807 1.278 2.708l1.795-.882a95.074 95.074 0 01-1.25-2.651l-1.823.825zm2.635 5.37a101.6 101.6 0 001.453 2.651l1.74-.987a98.513 98.513 0 01-1.425-2.599l-1.768.935zm3.002 5.291c.533.878 1.082 1.754 1.647 2.628l1.679-1.087a105.547 105.547 0 01-1.616-2.578l-1.71 1.037zm3.363 5.201c.551.803 1.117 1.603 1.696 2.402l1.619-1.174c-.57-.785-1.125-1.572-1.667-2.36l-1.648 1.132zm3.476 4.792c.608.795 1.23 1.588 1.866 2.379l1.558-1.254a123.364 123.364 0 01-1.835-2.339l-1.589 1.214zm3.817 4.745a135.78 135.78 0 002.037 2.354l1.497-1.327a127.614 127.614 0 01-2.006-2.318l-1.528 1.291zm4.131 4.661c.656.708 1.324 1.413 2.005 2.117l1.437-1.391c-.671-.693-1.33-1.389-1.976-2.086l-1.466 1.36zm4.082 4.222c.705.7 1.422 1.398 2.151 2.094l1.381-1.447c-.72-.687-1.427-1.376-2.122-2.066l-1.41 1.419zm4.375 4.176c.753.692 1.519 1.382 2.298 2.07l1.324-1.498c-.769-.68-1.525-1.362-2.269-2.045l-1.353 1.473zm4.669 4.128c.401.342.805.682 1.213 1.023l1.282-1.534c-.402-.337-.802-.674-1.198-1.012l-1.297 1.523zm1.213 1.023l1.189.995 1.284-1.533-1.191-.996-1.282 1.534zm3.553 2.976l2.343 1.969 1.287-1.531a4637.2 4637.2 0 00-2.345-1.97l-1.285 1.532zm4.665 3.924l2.301 1.943 1.291-1.527-2.303-1.945-1.289 1.529zm4.582 3.874c.757.641 1.51 1.281 2.26 1.918l1.295-1.524c-.75-.638-1.505-1.278-2.262-1.92l-1.293 1.526zm4.501 3.824l2.233 1.905 1.299-1.521-2.236-1.907-1.296 1.523zm4.585 3.916c.78.668 1.557 1.333 2.329 1.997l1.303-1.518-2.331-1.999-1.301 1.52zm4.636 3.98c.765.658 1.526 1.315 2.284 1.969l1.307-1.514c-.758-.655-1.52-1.312-2.286-1.971l-1.305 1.516zm4.546 3.924c.75.65 1.497 1.297 2.239 1.942l1.312-1.51-2.242-1.944-1.309 1.512zm4.457 3.87c.747.651 1.491 1.299 2.23 1.945l1.316-1.506-2.233-1.947-1.313 1.508zm4.557 3.98l2.302 2.019 1.32-1.502-2.304-2.022-1.318 1.505zm4.579 4.023l2.253 1.989 1.325-1.498-2.256-1.991-1.322 1.5zm4.482 3.963c.739.655 1.474 1.308 2.205 1.959l1.329-1.494c-.732-.651-1.467-1.305-2.207-1.961l-1.327 1.496zm4.386 3.903c.768.686 1.533 1.369 2.292 2.05l1.335-1.49-2.295-2.052-1.332 1.492zm4.577 4.1c.757.681 1.51 1.358 2.258 2.034l1.34-1.486-2.261-2.035-1.337 1.487zm4.49 4.05l2.206 2 1.344-1.48a982.785 982.785 0 00-2.208-2.002l-1.342 1.482zm4.385 3.984c.724.66 1.443 1.317 2.157 1.971l1.351-1.476-2.16-1.973-1.348 1.478zm4.44 4.063l2.253 2.074 1.356-1.47-2.256-2.077-1.353 1.473zm4.477 4.13c.737.682 1.469 1.361 2.196 2.037l1.362-1.465c-.729-.677-1.461-1.357-2.199-2.04l-1.359 1.468zm4.363 4.056l2.14 2.001 1.367-1.459c-.709-.665-1.423-1.333-2.142-2.004l-1.365 1.462zm4.349 4.077c.751.706 1.496 1.409 2.236 2.108l1.374-1.453-2.239-2.112-1.371 1.457zm4.44 4.197c.73.693 1.454 1.382 2.173 2.068l1.381-1.447c-.721-.687-1.446-1.378-2.177-2.071l-1.377 1.45zm4.316 4.117c.709.679 1.413 1.355 2.113 2.028l1.387-1.441c-.701-.674-1.406-1.351-2.116-2.031l-1.384 1.444zm4.3 4.139c.74.716 1.474 1.427 2.203 2.136l1.394-1.435c-.73-.709-1.465-1.422-2.207-2.139l-1.39 1.438zm4.372 4.249c.718.701 1.43 1.398 2.136 2.092l1.401-1.427c-.707-.695-1.421-1.393-2.139-2.096l-1.398 1.431zm4.239 4.162c.703.693 1.401 1.383 2.093 2.07l1.408-1.42c-.693-.688-1.392-1.379-2.096-2.074l-1.405 1.424zm4.283 4.247c.724.722 1.441 1.439 2.153 2.153l1.416-1.412c-.713-.715-1.432-1.434-2.157-2.157l-1.412 1.416zm4.271 4.282l2.082 2.104 1.423-1.404a810.932 810.932 0 00-2.086-2.109l-1.419 1.409zm4.129 4.186c.727.741 1.447 1.477 2.161 2.209l1.432-1.396a863.524 863.524 0 00-2.165-2.214l-1.428 1.401zm4.284 4.393c.702.724 1.397 1.443 2.085 2.158l1.441-1.387a796.02 796.02 0 00-2.09-2.162l-1.436 1.391zm4.133 4.29c.686.717 1.366 1.429 2.04 2.137l1.449-1.379c-.675-.709-1.357-1.423-2.044-2.141l-1.445 1.383zm4.159 4.372c.7.74 1.393 1.475 2.079 2.205l1.458-1.369a935.232 935.232 0 00-2.083-2.21l-1.454 1.374zm4.117 4.383c.673.721 1.339 1.437 1.999 2.149l1.466-1.36a1064.04 1064.04 0 00-2.003-2.154l-1.462 1.365zm4.064 4.384c.694.754 1.381 1.503 2.06 2.246l1.477-1.349c-.682-.745-1.37-1.496-2.066-2.251l-1.471 1.354zm4.078 4.461a964.4 964.4 0 011.977 2.185l1.485-1.339a791.135 791.135 0 00-1.981-2.19l-1.481 1.344zm3.993 4.43c.685.764 1.361 1.523 2.031 2.277l1.495-1.329c-.671-.755-1.35-1.516-2.036-2.282l-1.49 1.334zm4.017 4.52c.655.743 1.303 1.48 1.943 2.211l1.505-1.317a741.31 741.31 0 00-1.948-2.217l-1.5 1.323zm3.939 4.498c.671.772 1.334 1.537 1.989 2.297l1.514-1.307a886.54 886.54 0 00-1.993-2.302l-1.51 1.312zm3.934 4.558c.644.752 1.282 1.499 1.912 2.24l1.524-1.296a804.56 804.56 0 00-1.918-2.246l-1.518 1.302zm3.896 4.581c.654.774 1.3 1.541 1.939 2.303l1.532-1.285c-.64-.764-1.287-1.533-1.943-2.309l-1.528 1.291zm3.834 4.569c.652.784 1.297 1.561 1.935 2.332l1.541-1.276a950.361 950.361 0 00-1.94-2.336l-1.536 1.28zm3.862 4.667c.634.772 1.262 1.537 1.883 2.297l1.548-1.266c-.622-.761-1.251-1.528-1.887-2.302l-1.544 1.271zm3.783 4.627c.643.791 1.28 1.576 1.91 2.355l1.555-1.258c-.631-.78-1.269-1.566-1.914-2.359l-1.551 1.262zm3.779 4.671c.635.788 1.262 1.569 1.884 2.343l1.56-1.251c-.622-.776-1.251-1.557-1.886-2.346l-1.558 1.254zm3.777 4.707l1.857 2.324 1.563-1.247-1.858-2.327-1.562 1.25zm3.741 4.686l1.881 2.358 1.563-1.246-1.88-2.359-1.564 1.247zm3.733 4.68l1.898 2.376 1.561-1.25c-.628-.785-1.26-1.576-1.896-2.374l-1.563 1.248zm3.776 4.719c.63.784 1.257 1.562 1.881 2.335l1.556-1.257a1046.5 1046.5 0 01-1.877-2.331l-1.56 1.253zm3.786 4.685c.633.778 1.264 1.55 1.894 2.318l1.546-1.269a741.46 741.46 0 01-1.888-2.311l-1.552 1.262zm3.818 4.65a524.15 524.15 0 001.929 2.312l1.532-1.286c-.641-.763-1.281-1.53-1.922-2.303l-1.539 1.277zm3.87 4.609c.654.768 1.309 1.532 1.966 2.292l1.513-1.308a447.176 447.176 0 01-1.956-2.28l-1.523 1.296zm3.945 4.561a328.81 328.81 0 002.002 2.255l1.489-1.335a327.647 327.647 0 01-1.989-2.241l-1.502 1.321zm4.027 4.493c.677.74 1.358 1.478 2.045 2.214l1.462-1.365c-.682-.73-1.359-1.463-2.031-2.198l-1.476 1.349zm4.115 4.407c.695.728 1.397 1.454 2.105 2.179l1.431-1.397a280.64 280.64 0 01-2.089-2.163l-1.447 1.381zm4.215 4.313c.71.711 1.428 1.42 2.155 2.129l1.396-1.431c-.72-.703-1.432-1.407-2.137-2.112l-1.414 1.414zm4.323 4.22c.723.688 1.453 1.375 2.194 2.063l1.361-1.465a240.996 240.996 0 01-2.175-2.046l-1.38 1.448zm4.442 4.127c.731.663 1.471 1.325 2.22 1.989l1.326-1.498a231.194 231.194 0 01-2.202-1.972l-1.344 1.481zm4.5 3.983c.758.654 1.526 1.31 2.304 1.968l1.29-1.529a248.823 248.823 0 01-2.287-1.953l-1.307 1.514zm4.599 3.882c.776.64 1.562 1.281 2.359 1.924l1.256-1.557a262.908 262.908 0 01-2.342-1.91l-1.273 1.543zm4.713 3.802c.775.612 1.561 1.225 2.358 1.841l1.223-1.582a301.142 301.142 0 01-2.342-1.83l-1.239 1.571zm4.783 3.695c.791.599 1.591 1.199 2.404 1.802l1.191-1.606a322.891 322.891 0 01-2.388-1.79l-1.207 1.594zm4.811 3.572c.813.592 1.637 1.187 2.473 1.784l1.163-1.627c-.831-.594-1.65-1.185-2.459-1.774l-1.177 1.617zm4.937 3.531c.803.563 1.615 1.13 2.439 1.699l1.137-1.646a368.792 368.792 0 01-2.426-1.69l-1.15 1.637zm4.94 3.413c.839.57 1.688 1.143 2.549 1.719l1.112-1.662a425.547 425.547 0 01-2.536-1.711l-1.125 1.654zm5.001 3.348c.827.546 1.664 1.094 2.511 1.645l1.091-1.677a407.01 407.01 0 01-2.501-1.637l-1.101 1.669zm5.084 3.307l1.311.837 1.074-1.686c-.438-.279-.873-.557-1.305-.835l-1.08 1.684zm1.309.837c.434.277.868.552 1.302.825l1.065-1.693c-.43-.27-.86-.543-1.289-.817l-1.078 1.685zm3.904 2.435c.866.528 1.733 1.047 2.599 1.557l1.015-1.724a201.032 201.032 0 01-2.575-1.541l-1.039 1.708zm5.197 3.059c.866.492 1.731.975 2.596 1.45l.962-1.754c-.856-.469-1.712-.948-2.569-1.435l-.989 1.739zm5.267 2.888c.903.477 1.807.945 2.709 1.404l.906-1.783c-.893-.454-1.787-.917-2.681-1.39l-.934 1.769zm5.416 2.752c.901.44 1.802.871 2.703 1.292l.848-1.811a185.2 185.2 0 01-2.674-1.278l-.877 1.797zm5.403 2.531c.937.42 1.873.831 2.808 1.231l.787-1.838c-.924-.396-1.85-.802-2.776-1.218l-.819 1.825zm5.61 2.405c.934.381 1.866.753 2.798 1.116l.725-1.864c-.921-.359-1.843-.726-2.766-1.104l-.757 1.852zm5.591 2.175c.95.351 1.898.692 2.846 1.024l.66-1.888a173.09 173.09 0 01-2.812-1.012l-.694 1.876zm5.73 2.005c.96.317 1.92.625 2.878.923l.594-1.91c-.947-.294-1.895-.598-2.845-.912l-.627 1.899zm5.75 1.788c.964.281 1.928.553 2.889.815l.526-1.929a167.92 167.92 0 01-2.855-.806l-.56 1.92zm5.839 1.59c.982.249 1.963.488 2.942.717l.455-1.947c-.967-.227-1.936-.463-2.906-.708l-.491 1.938zm5.875 1.376c.98.21 1.957.412 2.934.603l.385-1.962c-.964-.19-1.931-.388-2.898-.596l-.421 1.955zm5.931 1.163c.997.177 1.993.345 2.987.502l.313-1.975c-.982-.156-1.966-.321-2.951-.496l-.349 1.969zm5.964.947c.992.139 1.983.269 2.971.389l.242-1.985c-.977-.119-1.955-.247-2.935-.385l-.278 1.981zm5.998.73c1.006.104 2.011.198 3.014.284l.17-1.993c-.991-.084-1.984-.178-2.979-.281l-.205 1.99zm6.017.512c1.001.067 2 .125 2.997.173l.098-1.997c-.985-.048-1.972-.106-2.961-.172l-.134 1.996zm6.036.295c1.01.031 2.019.054 3.025.067l.026-2c-.994-.013-1.991-.035-2.989-.066l-.062 1.999zm6.036.08c1.005-.004 2.008-.017 3.009-.039l-.044-2c-.989.022-1.98.035-2.974.039l.009 2zm6.044-.132c1.009-.039 2.015-.088 3.019-.144l-.113-1.997a172.4 172.4 0 01-2.985.143l.079 1.998zm6.022-.34c1.005-.074 2.007-.156 3.006-.247l-.18-1.991a192.1 192.1 0 01-2.973.244l.147 1.994zm6.023-.545c1.003-.108 2.003-.224 3-.348l-.247-1.985c-.986.123-1.975.237-2.966.344l.213 1.989zm5.98-.743c1.001-.141 1.998-.289 2.992-.446l-.311-1.975c-.983.154-1.97.301-2.959.441l.278 1.98zm5.978-.94c.993-.172 1.982-.352 2.967-.539l-.373-1.965c-.975.185-1.954.363-2.936.534l.342 1.97zm5.913-1.122c.992-.204 1.981-.416 2.967-.634l-.434-1.953c-.975.216-1.954.426-2.936.628l.403 1.959zm5.912-1.311c.979-.233 1.953-.472 2.924-.718l-.492-1.939c-.961.243-1.926.48-2.894.711l.462 1.946zm5.838-1.48c.978-.263 1.951-.532 2.921-.808l-.548-1.924c-.96.273-1.924.54-2.892.801l.519 1.931zm5.817-1.655c.961-.288 1.918-.582 2.87-.883l-.601-1.907c-.944.297-1.892.589-2.844.875l.575 1.915zm5.75-1.812c.96-.317 1.915-.64 2.866-.969l-.653-1.89c-.942.326-1.889.646-2.84.96l.627 1.899zm5.704-1.97c.945-.341 1.885-.687 2.821-1.038l-.703-1.872c-.927.348-1.86.691-2.796 1.028l.678 1.882zm5.654-2.122a217.93 217.93 0 002.803-1.114l-.75-1.854c-.922.373-1.848.742-2.78 1.105l.727 1.863zm5.576-2.256c.934-.391 1.862-.787 2.785-1.188l-.796-1.835c-.915.398-1.836.79-2.763 1.179l.774 1.844zm5.552-2.408c.917-.411 1.828-.827 2.734-1.245l-.84-1.816c-.898.416-1.802.828-2.712 1.236l.818 1.825zm5.458-2.525a266.17 266.17 0 002.731-1.322l-.882-1.795c-.897.441-1.801.878-2.71 1.312l.861 1.805zm5.425-2.664c.893-.451 1.78-.906 2.66-1.363l-.922-1.775a260.5 260.5 0 01-2.641 1.353l.903 1.785zm5.354-2.782c.891-.475 1.776-.953 2.653-1.434l-.961-1.754c-.871.477-1.749.952-2.634 1.424l.942 1.764zm5.264-2.882c.889-.499 1.769-1 2.643-1.503l-.998-1.733c-.867.499-1.742.997-2.624 1.492l.979 1.744zm5.253-3.024c.863-.509 1.717-1.019 2.564-1.53l-1.034-1.712c-.841.508-1.689 1.014-2.546 1.519l1.016 1.723zm5.154-3.112c.864-.533 1.719-1.068 2.565-1.602l-1.068-1.691c-.841.531-1.69 1.062-2.548 1.592l1.051 1.701zm5.078-3.207a322.47 322.47 0 002.545-1.661l-1.102-1.67c-.833.55-1.676 1.101-2.528 1.651l1.085 1.68zm5.059-3.339c.828-.558 1.646-1.115 2.454-1.671l-1.134-1.647c-.802.552-1.615 1.105-2.438 1.66l1.118 1.658zm4.965-3.417c.83-.583 1.648-1.164 2.454-1.742l-1.165-1.625c-.801.574-1.614 1.152-2.439 1.731l1.15 1.636zm4.869-3.49c.834-.61 1.654-1.217 2.461-1.818l-1.197-1.603c-.801.598-1.616 1.2-2.445 1.806l1.181 1.615zm4.838-3.61c.819-.624 1.623-1.242 2.411-1.853l-1.226-1.58c-.783.608-1.582 1.222-2.397 1.842l1.212 1.591zm4.782-3.712c.798-.632 1.577-1.255 2.338-1.869l-1.256-1.557c-.756.611-1.53 1.23-2.323 1.857l1.241 1.569zm4.7-3.795a307.08 307.08 0 002.281-1.897l-1.286-1.532c-.733.616-1.489 1.245-2.266 1.885l1.271 1.544zm4.619-3.88c.78-.67 1.532-1.321 2.253-1.952l-1.317-1.505a295.12 295.12 0 01-2.238 1.938l1.302 1.519zm4.525-3.961c.799-.714 1.551-1.395 2.257-2.041l-1.349-1.476c-.701.641-1.448 1.317-2.241 2.026l1.333 1.491zm4.439-4.058c.808-.757 1.53-1.442 2.161-2.049l-1.385-1.443c-.626.601-1.341 1.281-2.143 2.031l1.367 1.461zm4.393-4.223l.733-.725a12.525 12.525 0 01.187-.183s-.025.022-.063.049c-.013.009-.069.049-.151.087a1.001 1.001 0 01-1.046-.128l1.254-1.558a.996.996 0 00-1.208-.036c-.044.031-.078.06-.09.07a12.562 12.562 0 00-.287.274c-.165.163-.417.414-.735.727l1.406 1.423zm.993-.971c.359-.358.718-.716 1.075-1.075l-1.416-1.412a360.2 360.2 0 01-1.071 1.07l1.412 1.417zm3.212-3.229c.71-.72 1.416-1.44 2.12-2.162l-1.433-1.396c-.7.719-1.404 1.437-2.111 2.153l1.424 1.405zm4.221-4.331c.698-.724 1.392-1.449 2.084-2.176l-1.449-1.379c-.689.724-1.381 1.446-2.075 2.168l1.44 1.387zm4.149-4.359c.686-.728 1.368-1.458 2.048-2.189l-1.465-1.362a592.12 592.12 0 01-2.039 2.181l1.456 1.37zm4.089-4.398a471.53 471.53 0 002.047-2.243l-1.481-1.344a467.81 467.81 0 01-2.039 2.234l1.473 1.353zm4.076-4.492c.673-.751 1.343-1.503 2.009-2.256l-1.497-1.326a460.43 460.43 0 01-2.002 2.247l1.49 1.335zm4-4.519c.66-.755 1.318-1.511 1.972-2.269l-1.514-1.307a453.08 453.08 0 01-1.964 2.26l1.506 1.316zm3.924-4.544c.651-.763 1.299-1.528 1.944-2.293l-1.53-1.288a508.57 508.57 0 01-1.935 2.283l1.521 1.298zm3.893-4.623a518.31 518.31 0 001.929-2.335l-1.546-1.269a514.17 514.17 0 01-1.921 2.326l1.538 1.278zm3.838-4.677c.633-.782 1.263-1.564 1.889-2.348l-1.562-1.249c-.624.78-1.251 1.56-1.881 2.338l1.554 1.259zm3.759-4.702c.619-.786 1.236-1.572 1.849-2.36l-1.578-1.228c-.611.784-1.224 1.567-1.842 2.349l1.571 1.239zm3.69-4.741c.617-.804 1.231-1.609 1.841-2.415l-1.594-1.207c-.608.802-1.219 1.603-1.834 2.404l1.587 1.218zm3.662-4.835c.603-.808 1.203-1.617 1.8-2.427l-1.611-1.186a484.8 484.8 0 01-1.791 2.416l1.602 1.197zm3.578-4.859a439.58 439.58 0 001.758-2.437l-1.627-1.164c-.579.81-1.162 1.618-1.749 2.426l1.618 1.175zm3.494-4.88c.581-.823 1.158-1.647 1.732-2.472l-1.642-1.142c-.571.821-1.146 1.642-1.724 2.461l1.634 1.153zm3.457-4.971a441.76 441.76 0 001.702-2.503l-1.658-1.119a476.53 476.53 0 01-1.694 2.492l1.65 1.13zm3.382-5.012c.556-.837 1.109-1.675 1.657-2.513l-1.673-1.096c-.546.835-1.096 1.669-1.65 2.502l1.666 1.107zm3.293-5.032c.541-.84 1.079-1.681 1.613-2.523l-1.689-1.071c-.532.838-1.067 1.675-1.606 2.511l1.682 1.083zm3.229-5.092c.536-.859 1.068-1.719 1.596-2.579l-1.705-1.046c-.525.856-1.055 1.712-1.588 2.566l1.697 1.059zm3.168-5.163c.521-.862 1.037-1.724 1.55-2.588l-1.72-1.021c-.51.86-1.024 1.718-1.542 2.576l1.712 1.033zm3.075-5.18c.505-.865 1.006-1.731 1.502-2.597l-1.735-.995c-.494.862-.992 1.723-1.494 2.584l1.727 1.008zm2.989-5.213c.498-.883.992-1.768 1.481-2.652l-1.75-.969c-.487.881-.978 1.76-1.473 2.639l1.742.982zm2.937-5.309c.482-.886.959-1.773 1.432-2.66l-1.765-.941c-.471.883-.945 1.765-1.424 2.647l1.757.954zm2.838-5.324c.465-.889.926-1.778 1.382-2.668l-1.78-.913c-.454.885-.912 1.77-1.374 2.654l1.772.927zm2.739-5.339c.455-.905.906-1.811 1.352-2.717l-1.794-.884c-.444.901-.892 1.802-1.345 2.703l1.787.898zm2.682-5.443c.439-.91.873-1.82 1.303-2.73l-1.808-.854c-.428.905-.86 1.81-1.296 2.714l1.801.87zm2.58-5.462c.422-.912.839-1.823 1.251-2.735l-1.822-.825c-.41.907-.825 1.814-1.244 2.72l1.815.84zm2.476-5.473c.408-.923.811-1.846 1.21-2.769l-1.836-.793c-.397.918-.798 1.836-1.203 2.753l1.829.809zm2.402-5.561c.393-.931.781-1.862 1.164-2.794l-1.849-.761c-.381.926-.767 1.852-1.158 2.778l1.843.777zm2.301-5.591c.375-.932.744-1.865 1.11-2.798l-1.863-.729a308.9 308.9 0 01-1.103 2.782l1.856.745zm2.191-5.599c.358-.94.711-1.88 1.06-2.82l-1.875-.695c-.347.935-.698 1.869-1.054 2.803l1.869.712zm2.103-5.672c.343-.951.681-1.903 1.014-2.854l-1.887-.661c-.332.946-.668 1.891-1.008 2.837l1.881.678zm1.999-5.71c.324-.952.642-1.904.956-2.857l-1.899-.625c-.312.946-.629 1.893-.95 2.839l1.893.643zm1.883-5.715c.305-.956.606-1.913.901-2.87l-1.911-.59a335.15 335.15 0 01-.895 2.852l1.905.608zm1.783-5.777c.289-.969.573-1.938.852-2.907l-1.922-.553c-.277.963-.559 1.926-.847 2.889l1.917.571zm1.673-5.815c.268-.969.532-1.939.79-2.908l-1.932-.515c-.257.963-.519 1.926-.786 2.889l1.928.534zm1.55-5.817c.249-.973.493-1.946.732-2.919l-1.942-.476c-.238.966-.48 1.933-.727 2.899l1.937.496zm1.441-5.871c.231-.985.456-1.969.677-2.953l-1.952-.437c-.219.978-.443 1.955-.672 2.933l1.947.457zm1.321-5.905c.21-.984.414-1.968.613-2.952l-1.96-.396c-.198.977-.4 1.954-.609 2.931l1.956.417zm1.194-5.902c.189-.988.373-1.976.551-2.963l-1.968-.355c-.177.98-.36 1.961-.547 2.942l1.964.376zm1.074-5.953c.169-.996.332-1.992.49-2.988l-1.976-.312c-.156.988-.318 1.977-.486 2.966l1.972.334zm.946-5.974c.147-.995.288-1.99.423-2.985l-1.982-.27a251.26 251.26 0 01-.42 2.963l1.979.292zm.812-5.968c.125-1 .244-2 .358-2.999l-1.987-.226c-.113.992-.231 1.984-.355 2.977l1.984.248zm.683-6.014c.103-1.004.2-2.008.291-3.012l-1.992-.181c-.09.996-.186 1.993-.288 2.99l1.989.203zm.547-6.022c.08-1.002.153-2.005.221-3.007l-1.995-.135c-.067.994-.141 1.989-.22 2.984l1.994.158zm.408-6.011c.056-1.008.107-2.015.152-3.022l-1.998-.089c-.045.999-.095 1.999-.151 2.999l1.997.112zm.269-6.049c.033-1.008.06-2.016.081-3.023l-2-.042a274.35 274.35 0 01-.08 3l1.999.065zm.125-6.043c.009-1.006.012-2.011.009-3.016l-2 .006c.003.997 0 1.994-.009 2.992l2 .018zm-.018-6.028a254.58 254.58 0 00-.065-3.029l-1.999.055c.027 1.001.049 2.002.064 3.005l2-.031zm-.166-6.054c-.04-1.007-.086-2.014-.138-3.02l-1.998.104c.052.998.098 1.996.138 2.996l1.998-.08zm-.314-6.035a250.443 250.443 0 00-.213-3.009l-1.994.153c.077.994.147 1.989.211 2.985l1.996-.129zm-.463-6.018c-.09-1.005-.187-2.009-.289-3.012l-1.99.203c.102.995.197 1.99.287 2.987l1.992-.178zm-.616-6.019a231.58 231.58 0 00-.365-3l-1.984.254c.127.991.248 1.982.362 2.975l1.987-.229zm-.768-5.994c-.141-.997-.288-1.993-.441-2.988l-1.977.305c.152.986.298 1.973.438 2.962l1.98-.279zm-.921-5.972c-.166-.993-.339-1.986-.518-2.978l-1.968.356c.177.983.349 1.967.514 2.953l1.972-.331zm-1.075-5.948c-.192-.989-.391-1.977-.596-2.964l-1.958.407c.203.978.4 1.957.591 2.938l1.963-.381zm-1.23-5.92c-.218-.984-.442-1.967-.673-2.949l-1.947.458c.229.973.451 1.948.667 2.923l1.953-.432zm-1.384-5.882c-.243-.977-.493-1.952-.749-2.926l-1.934.509c.254.965.501 1.932.743 2.9l1.94-.483zm-1.537-5.844c-.27-.971-.545-1.941-.828-2.909l-1.92.56c.28.96.553 1.921.82 2.884l1.928-.535zm-1.694-5.81c-.295-.963-.596-1.925-.904-2.885l-1.904.61c.305.952.603 1.905.895 2.86l1.913-.585zm-1.843-5.75c-.319-.954-.645-1.906-.978-2.856l-1.888.66c.33.942.653 1.886.97 2.831l1.896-.635zm-1.995-5.703c-.345-.947-.697-1.893-1.056-2.838l-1.87.71c.356.936.705 1.874 1.047 2.813l1.879-.685zm-2.152-5.666c-.369-.934-.744-1.866-1.126-2.797l-1.85.759c.378.923.751 1.847 1.116 2.773l1.86-.735zm-2.288-5.577c-.393-.925-.793-1.848-1.2-2.77l-1.83.808c.403.913.8 1.829 1.19 2.745l1.84-.783zm-2.439-5.529c-.42-.918-.846-1.835-1.279-2.749l-1.808.855c.429.907.852 1.815 1.268 2.725l1.819-.831zm-2.596-5.488c-.439-.898-.885-1.795-1.337-2.69l-1.785.901c.448.888.89 1.777 1.326 2.668l1.796-.879zm-2.712-5.369c-.464-.891-.935-1.78-1.413-2.667l-1.761.947c.473.88.94 1.761 1.401 2.645l1.773-.925zm-2.864-5.324c-.49-.884-.986-1.766-1.489-2.646l-1.736.992c.498.873.99 1.747 1.476 2.624l1.749-.97zm-3.013-5.274c-.506-.86-1.019-1.719-1.537-2.575l-1.711 1.036c.514.849 1.022 1.7 1.524 2.553l1.724-1.014zm-3.112-5.139a247.184 247.184 0 00-1.611-2.552l-1.685 1.078c.539.842 1.072 1.686 1.599 2.531l1.697-1.057zm-3.26-5.093a252.348 252.348 0 00-1.686-2.529l-1.658 1.12c.564.834 1.122 1.67 1.673 2.508l1.671-1.099zm-3.403-5.036a246.687 246.687 0 00-1.722-2.45l-1.629 1.16c.575.808 1.144 1.618 1.708 2.43l1.643-1.14zm-3.48-4.888a252.204 252.204 0 00-1.793-2.426l-1.602 1.198c.6.801 1.193 1.603 1.78 2.407l1.615-1.179zm-3.623-4.84a258.732 258.732 0 00-1.867-2.403l-1.572 1.237c.623.792 1.241 1.587 1.852 2.383l1.587-1.217zm-3.764-4.786a269.253 269.253 0 00-1.888-2.316l-1.543 1.273c.63.764 1.255 1.53 1.874 2.298l1.557-1.255zm-3.811-4.62a276.18 276.18 0 00-1.957-2.292l-1.514 1.308c.654.756 1.301 1.514 1.943 2.274l1.528-1.29zm-3.95-4.572a249.465 249.465 0 00-2.027-2.267l-1.483 1.341c.676.748 1.347 1.499 2.012 2.251l1.498-1.325zm-4.089-4.522c-.675-.73-1.356-1.459-2.043-2.185l-1.453 1.374c.682.721 1.358 1.444 2.028 2.169l1.468-1.358zm-4.111-4.35a282.707 282.707 0 00-2.101-2.152l-1.424 1.404c.701.711 1.397 1.423 2.087 2.137l1.438-1.389zm-4.235-4.293c-.717-.711-1.44-1.42-2.168-2.127l-1.393 1.434c.723.703 1.44 1.407 2.152 2.113l1.409-1.42zm-4.369-4.243a292.782 292.782 0 00-2.202-2.072l-1.363 1.464c.734.684 1.463 1.37 2.187 2.058l1.378-1.45zm-4.395-4.094a270.474 270.474 0 00-2.225-2.011l-1.333 1.491c.742.663 1.478 1.329 2.21 1.997l1.348-1.477zm-4.481-4.009a319.33 319.33 0 00-2.287-1.986l-1.304 1.517c.763.656 1.52 1.313 2.273 1.973l1.318-1.504zm-4.606-3.959a329.664 329.664 0 00-2.351-1.961l-1.274 1.542c.784.648 1.563 1.297 2.336 1.949l1.289-1.53zm-4.666-3.854a292.345 292.345 0 00-2.328-1.868l-1.245 1.566c.776.616 1.548 1.235 2.314 1.856l1.259-1.554zm-4.686-3.724a301.343 301.343 0 00-2.388-1.844l-1.215 1.588c.796.609 1.587 1.22 2.373 1.833l1.23-1.577zm-4.805-3.676a337.713 337.713 0 00-2.447-1.819l-1.186 1.611c.816.6 1.627 1.203 2.433 1.808l1.2-1.6zm-4.923-3.626a347.682 347.682 0 00-2.42-1.732l-1.158 1.631c.807.572 1.609 1.146 2.406 1.723l1.172-1.622zm-4.861-3.448c-.818-.57-1.641-1.138-2.468-1.704l-1.13 1.65c.823.563 1.641 1.128 2.455 1.695l1.143-1.641zm-4.964-3.396a368.458 368.458 0 00-2.524-1.68l-1.102 1.669a341.64 341.64 0 012.51 1.671l1.116-1.66zm-5.076-3.348a357.318 357.318 0 00-2.58-1.656l-1.073 1.688c.86.547 1.715 1.096 2.566 1.647l1.087-1.679zm-5.108-3.249c-.84-.525-1.684-1.048-2.532-1.568l-1.046 1.704c.843.518 1.683 1.038 2.518 1.56l1.06-1.696zm-5.09-3.124a374.986 374.986 0 00-2.583-1.545l-1.02 1.721c.861.51 1.718 1.022 2.57 1.536l1.033-1.712zm-5.193-3.078a387.46 387.46 0 00-2.635-1.521l-.993 1.736c.878.503 1.752 1.007 2.622 1.513l1.006-1.728zm-5.297-3.03c-.879-.494-1.763-.987-2.651-1.477l-.966 1.751c.883.488 1.762.978 2.637 1.469l.98-1.743zm-5.254-2.902c-.871-.474-1.747-.945-2.627-1.414l-.942 1.764c.876.467 1.747.936 2.615 1.407l.954-1.757zm-5.279-2.817c-.887-.466-1.779-.93-2.675-1.392l-.917 1.778c.892.459 1.78.921 2.663 1.385l.929-1.771zm-5.375-2.772c-.904-.458-1.812-.915-2.725-1.369l-.891 1.79c.908.452 1.812.907 2.712 1.363l.904-1.784zm-5.473-2.726c-.898-.44-1.799-.877-2.705-1.313l-.867 1.802c.901.434 1.799.87 2.693 1.307l.879-1.796zm-5.385-2.592c-.896-.424-1.797-.847-2.702-1.268l-.843 1.813c.9.419 1.797.84 2.69 1.263l.855-1.808zm-5.426-2.525a464.14 464.14 0 00-2.747-1.246l-.821 1.824c.916.411 1.828.825 2.736 1.241l.832-1.819zm-5.517-2.482c-.927-.41-1.858-.818-2.792-1.224l-.798 1.834c.931.405 1.858.811 2.781 1.219l.809-1.829zm-5.607-2.437l-1.417-.603-.78 1.842 1.411.6.786-1.839z" fill="#3CCB21" mask="url(#a)"/></g><path d="M152.492 326.847c-8.893 0-17.029 4.529-21.76 12.113a3.927 3.927 0 001.248 5.406 3.916 3.916 0 005.399-1.251c3.289-5.274 8.94-8.422 15.113-8.422 6.174 0 11.823 3.148 15.114 8.422a3.911 3.911 0 005.398 1.251 3.926 3.926 0 001.247-5.406c-4.73-7.584-12.863-12.113-21.759-12.113z" fill="#fff"/><path d="M189.403 329.517C181.393 316.669 167.597 309 152.499 309c-15.098 0-28.892 7.669-36.904 20.517a3.925 3.925 0 001.248 5.404 3.917 3.917 0 005.399-1.249c6.569-10.536 17.881-16.826 30.257-16.826 12.376 0 23.688 6.29 30.258 16.826a3.913 3.913 0 005.397 1.249 3.924 3.924 0 001.249-5.404zM152.501 359a6.45 6.45 0 006.447-6.456 6.452 6.452 0 00-6.447-6.456 6.452 6.452 0 00-6.447 6.456 6.45 6.45 0 006.447 6.456z" fill="#fff"/><path d="M322.424 556.594s-35.582-40.555-12.816-40.555c6.901-2.83 4.929-10.401 12.816-19.288 7.887-8.887 13.802-4.987 18.49-7.036 3.264-11.134 8.673-21.419 15.574-30.288 14.363-18.399 13.151-44.724-3.264-61.331l-8.766-8.869 4.01-8.209 16.601-12.738 29.191 26.514c.093.094.093.094.186.094 6.902 6.228 17.534 5.19 23.316-2.076 6.622-8.303 16.694-13.681 28.072-13.681 12.591 0 23.689 6.605 30.124 16.512 4.757-2.642 10.166-4.152 15.948-4.152 13.803 0 25.648 8.681 30.404 20.947 6.808-2.925 14.269-4.529 22.197-4.529 25.367 0 46.818 16.89 53.999 40.195 6.994-2.17 14.549-3.302 22.29-3.208 38.517.755 69.574 33.119 69.201 72.181-.373 39.063 1.975 85.895-36.823 85.895-37.118 0-71.473-12.467-99.077-53.36-1.479-5.486-10.464-2.345-20.097-7.332-11.52-5.963-12-10-16.82-15.5 0 4.5.108 10.63 0 12-3.68 46.799-40.382 68.5-90.185 68.5-22.29 0-42.621-8.114-58.382-21.701h-24.155c-11.19-5.547-11.19-12.529-11.19-12.529-8.872-19.465-10.844-16.456-10.844-16.456z" fill="url(#paint2_linear)"/><path opacity=".5" d="M460.805 490.42c1.359-.824 2.669-1.508 4.076-2.251-4.344-12.413-1.497-26.754 7.055-38.691-4.529-.903-8.434-3.403-10.839-7.366a14.926 14.926 0 01-1.377-2.927c-5.086-14.95-19.053-25.066-36.24-27.365l-8.959-1.205 3.644-10.619 6.72 1.013c19.721 2.975 41.578-4.529 56.243-19.953 2.081-2.258 4.698-4.288 7.512-5.995 10.186-6.179 21.862-6.622 30.448-2.093 3.837-10.958 11.96-21.196 23.505-28.199 18.433-11.181 40.038-10.788 54.053-.59 4.234-9.649 11.78-18.431 22.16-24.728 14.747-8.945 31.477-10.463 44.784-5.589l53.97 88.973 14.719 24.266s10.942 108.248-37.648 140.141c-31.363 20.586-94.283 13.795-94.283 13.795-98.816 30.117-148.898-6.274-161.262-26.657-12.559-20.485-2.825-49.072 21.719-63.96z" fill="url(#paint3_linear)"/><path d="M429.3 514.246v106.273c0 4.869-4.701 10.913-9.066 11.165l-38.614 1.51H273.332c-5.876.42-9.989-5.792-10.493-10.493 0-.335-.839-108.706-.839-108.706 0-1.931.839-3.694 1.763-5.205 0-.084.168-.084.168-.084 1.595-2.518 4.449-4.197 7.555-4.113l17.292.084 132.547.755c4.449-.084 7.975 3.946 7.975 8.814z" fill="#fff"/><path d="M421.409 505.348l-149.84-.839c-5.036 0-9.066 4.197-9.066 9.485v6.884l166.713-.168v-6.38c.084-4.952-3.442-8.982-7.807-8.982z" fill="#D1E8E3"/><path d="M278.705 512.819c0 1.595-1.343 2.854-2.938 2.854-1.595 0-2.938-1.259-2.938-2.854 0-1.595 1.343-2.854 2.938-2.854 1.595 0 2.938 1.259 2.938 2.854zm10.241 0c0 1.595-1.343 2.854-2.938 2.854-1.595 0-2.938-1.259-2.938-2.854 0-1.595 1.343-2.854 2.938-2.854 1.595.084 2.938 1.343 2.938 2.854zm10.157.084a2.83 2.83 0 01-2.854 2.854c-1.595 0-2.938-1.259-2.938-2.854 0-1.595 1.259-2.854 2.938-2.854a2.83 2.83 0 012.854 2.854z" fill="#fff"/><path d="M420.066 621.023H273.081v-83.02l146.985-1.259v84.279z" fill="#D1E8E3"/><path d="M398.616 621H375.65l44.338-41.879v21.692L398.616 621zm-57.555 0h7.807L420 553.813v-7.373L341.061 621zM273 569.648v7.374L313.255 539h-7.807L273 569.648zm80.556-30.637h-34.019l-46.525 43.945v32.132l80.544-76.077z" fill="#E2F1EE"/><path opacity=".5" d="M352.072 528.349l-78.992.336v4.868l78.992-.503v-4.701zm59.599-.336v4.617l8.395-.084v-4.533h-8.395z" fill="#fff"/><mask id="b" maskUnits="userSpaceOnUse" x="273" y="536" width="148" height="86"><path d="M420.067 621.023H273.081v-83.021l146.986-1.259v84.28z" fill="#D1E8E3"/></mask><g mask="url(#b)"><path d="M329.17 608.083c-17.571-3.175-21.435-5.491-23.257-9.952-2.625-6.349.802-14.846 5.322-21.281 3.937-5.576 6.343-9.008 6.197-12.869-.146-3.174.708-3.62-.932-7.481-.729-1.716-1.11-4.882-.526-9 .583-4.118 3.645-7.448 5.103-8.399 4.01-2.613 3.423-4.286 6.423-6.601 4.447-3.432 5-4 9.5-5 4.5-1.001 9.959.538 10.98 1.139 3.28 1.63 4.593 1.282 8.457 2.312 3.135.858 5.832 2.402 7.655 5.148 4.156 6.091 1.895 8.84 4.885 16.304 4.301 10.467 10.717 9.351 11.811 17.673.583 4.376-.948 6.349.218 13.041.802 4.547 1.823 5.319 1.969 7.979.51 7.635-6.854 14.413-8.239 15.614-8.821 7.807-21.07 5.834-45.566 1.373z" fill="url(#paint4_linear)"/><path d="M299.7 653.904c-3.6-9.2 1.4-23.404 1.8-26.404 1.8-11.9 2.81-18.5 4.9-21.996 10.7-17.9 26.9-17.7 39.1-17.7 6 0 12.2-.1 19.7 2.7 0 0 6 2.2 11 5.9 15 10.9 16.8 41.596 14.7 60.4-7.7 8.8-15.6-2.1-50.2 3.7-14 2.4-28.8 6.2-37.6-1.4-1.3-1.3-2.5-3-3.4-5.2z" fill="url(#paint5_linear)"/><path d="M339.2 566.304s2.6 19.2-10.5 23c-1.5.4-2 2.4-.8 3.5l16 15.6c1 .9 2.5.9 3.4-.2l14.4-16.7c.9-1.1.5-2.8-.8-3.3-4.6-1.8-12.9-6.9-11.1-20.9l-10.6-1z" fill="#FFB48D"/><path d="M329.002 556.741c0 .213 3.98 20.259 14.215 20.259 9.666 0 13.304-14.608 14.442-21.432l.341-3.519c-.683.213-2.275.64-4.208.107-.455-.107-3.184-.853-4.207-3.199-1.137-2.559 1.023-4.479-.228-6.718-.682-1.279-2.16-1.919-3.184-2.239.683 1.066 2.161 3.412 1.365 5.438-.569 1.386-2.047 2.772-5.345 3.519-9.552 2.346-13.304 3.199-13.191 7.784z" fill="#FFB48D"/><path d="M332.4 557.804s-4.7-4.1-5.1-1.6c-.8 5.2 3.1 8.1 5.3 6.6 2.2-1.6-.2-5-.2-5zm22.3.201s4.6-4 5-1.5c.8 5.2-3.1 8-5.2 6.4-2.1-1.6.2-4.9.2-4.9z" fill="#FFB48D"/></g><path d="M328.501 607.913c-17.571-3.174-21.435-5.491-23.257-9.952-2.625-6.349.802-14.846 5.322-21.281 3.937-5.576 6.343-9.008 6.197-12.869-.146-3.174.708-3.62-.932-7.481-.729-1.716-1.109-4.882-.526-9s3.645-7.448 5.103-8.399c4.01-2.613 3.423-4.286 6.423-6.601 4.447-3.432 5-4 9.5-5 4.5-1.001 9.959.538 10.98 1.139 3.28 1.63 4.593 1.282 8.457 2.312 3.135.858 5.832 2.402 7.655 5.148 4.156 6.091 1.896 8.84 4.885 16.304 4.301 10.467 10.717 9.351 11.811 17.673.583 4.376-.948 6.349.218 13.041.802 4.547 1.823 5.319 1.969 7.979.51 7.635-6.853 14.413-8.239 15.614-8.821 7.807-21.07 5.834-45.566 1.373z" fill="url(#paint6_linear)"/><path d="M308.613 616.776c-2.859-4.005-1.112-10.274-.794-11.58 1.429-5.18 4.843-8.358 6.114-9.49 8.496-7.793 21.359-7.706 31.046-7.706 4.765 0 9.688-.043 15.643 1.176 0 0 4.764.957 8.734 2.568 11.911 4.745 21.28 20.331 11.672 26.295-6.114 3.831-12.387-.914-39.86 1.611-11.116 1.045-22.868 2.699-29.856-.61-1.032-.566-1.985-1.306-2.699-2.264z" fill="url(#paint7_linear)"/><path d="M338.531 566.134s2.6 19.2-10.5 23c-1.5.4-2 2.4-.8 3.5l16 15.6c1 .9 2.5.9 3.4-.2l14.4-16.7c.9-1.1.5-2.8-.8-3.3-4.6-1.8-12.9-6.9-11.1-20.9l-10.6-1z" fill="#FFB48D"/><path d="M328.333 556.571c0 .213 3.98 20.259 14.215 20.259 9.666 0 13.305-14.608 14.442-21.432l.341-3.519c-.682.213-2.274.64-4.208.107-.455-.107-3.184-.853-4.207-3.199-1.137-2.559 1.023-4.479-.228-6.718-.682-1.279-2.16-1.919-3.184-2.239.683 1.066 2.161 3.412 1.365 5.438-.569 1.386-2.047 2.772-5.345 3.519-9.552 2.346-13.304 3.199-13.191 7.784z" fill="#FFB48D"/><path d="M331.731 557.634s-4.7-4.1-5.1-1.6c-.8 5.2 3.1 8.1 5.3 6.6 2.2-1.6-.2-5-.2-5zm22.3.201s4.6-4 5-1.5c.8 5.2-3.1 8-5.2 6.4-2.1-1.6.2-4.9.2-4.9z" fill="#FFB48D"/><path d="M207.3 405.8v126.6c0 5.8-5.6 13-10.8 13.3l-46 1.8h-129c-7 .5-11.9-6.9-12.5-12.5 0-.4-1-129.5-1-129.5 0-2.3 1-4.4 2.1-6.2 0-.1.2-.1.2-.1 1.9-3 5.3-5 9-4.9l20.6.1 157.9.9c5.3-.1 9.5 4.7 9.5 10.5z" fill="#fff"/><path d="M197.9 395.2l-178.5-1c-6 0-10.8 5-10.8 11.3v8.2l198.6-.2v-7.6c.1-5.9-4.1-10.7-9.3-10.7z" fill="#D1E8E3"/><path d="M27.9 404.1c0 1.9-1.6 3.4-3.5 3.4s-3.5-1.5-3.5-3.4 1.6-3.4 3.5-3.4 3.5 1.5 3.5 3.4zm12.2 0c0 1.9-1.6 3.4-3.5 3.4s-3.5-1.5-3.5-3.4 1.6-3.4 3.5-3.4c1.9.1 3.5 1.6 3.5 3.4zm12.1.1c0 1.9-1.5 3.4-3.4 3.4s-3.5-1.5-3.5-3.4 1.5-3.4 3.5-3.4c1.9 0 3.4 1.5 3.4 3.4z" fill="#fff"/><path d="M196.3 533H21.2v-98.9l175.1-1.5V533z" fill="#D1E8E3"/><path d="M170.543 533h-27.341l52.784-50.051v25.925L170.543 533zm-68.518 0h9.294L196 452.704v-8.813L102.025 533zM21 471.629v8.812L68.922 435H59.63L21 471.629zm95.9-36.616H76.402l-55.388 52.52v38.401l95.886-90.921z" fill="#E2F1EE"/><path opacity=".5" d="M115.3 422.6l-94.1.4v5.8l94.1-.6v-5.6zm71-.4v5.5l10-.1v-5.4h-10z" fill="#fff"/><path d="M99.8 452.501s3 21.7-1.2 23.9l11.9 12.7 11.9-15.6s-4.5-3.3-3.3-21.2l-19.3.2z" fill="#FFB48D"/><path d="M92.7 421.401c-.4.6-6.1 28.1 13.3 30.8 19.2 2.6 20-17.5 19.8-26-.2-8.5-9-11.6-14-12.2-5-.7-17.5 5.3-19.1 7.4z" fill="#FFB48D"/><path d="M91.6 437.401s-1-4.5-4.3-1.7 2 10.2 6.3 9.9l-2-8.2zm33.6-3.4c-.5.4-2.1 10.8-2.1 10.8s2.8.3 4.7-3.5c2-3.7 3-11.1-2.6-7.3z" fill="#FFB48D"/><path d="M128.5 415.001c-2-3.3-2.9-2.7-4.3-5.9-1.2-2.7-2.6-2.301-4.2-4.601-1.3-2-8.7-1.5-9.3-1.5 3.1.1-4.4.1 0 0-3.8-.1-3.2.7-8.2-1.5-4.9-2.2-9.5-1.1-12.5 3-2.3 3.1-1.5.601-4.5 4.601-2.1 2.8-3 3.2-4 5.9-1 2.5 0 7.2.5 9 1.2 4.3.1 3.1 3.5 7.7 1.5 2 3.6 5.1 5.8 9.1.9 2.4 2 5.999 3.2 10.699 1.1 4.3 4.5 5.101 5.5 6.501 3.5 4.7 8.2 4.2 11.5 4 3.8-.3 6.2-1.601 8.5-5.001 1.3-1.8 3.5-2.399 3.8-6.799.2-3.1.7-7.4 1.6-12.7 0 0 .4-2.4 1.5-5.4 1.4-3.7 1-3.801 2.6-7.601 1.4-3.2.6-6.799-1-9.499zm-11.6 28.1c-2.4.7-3.9.1-7.2 0-6.4-.3-8.5 2.7-11.5 1.4-1.3-.5-4.2-2.1-4.8-5-.4-1.9-.6-4.6-.2-7.6.5-3.7 1.1-8 4.1-9.9 4.3-2.8 9.8 1.9 13.8-1.1 1.5-1.2 2.1-3 2.4-4.3.9.3 7.8 2.8 10.3 10.2 1.6 4.6.7 8.6-.1 10.9-1.4 2.1-3.6 4.5-6.8 5.4z" fill="#26264F"/><path d="M103.6 447.801c2.5.7 6.2 1.2 10.4-.4.4-.2.8.3.4.6-1.5 1.1-3.7 2.2-6 2.1-2-.1-3.8-.9-5.2-1.6-.3-.3 0-.8.4-.7z" fill="#FFB48D"/><mask id="c" maskUnits="userSpaceOnUse" x="21" y="432" width="176" height="102"><path d="M196.3 533.001H21.2v-98.9l175.1-1.5v100.4z" fill="#D1E8E3"/></mask><g mask="url(#c)"><path d="M113.39 545.266c-43.045 2.508-58.483 9.531-65.476-.501-6.538-9.331.867-41.833 8.586-51.765 12.169-15.551 29.465-18.866 55.346-20.27 23.974-1.305 36.803 2.134 48.154 13.27 10.534 10.234 18.956 42.11 12.417 52.544-6.084 9.632-19.161 4.415-59.027 6.722z" fill="url(#paint8_linear)"/><path d="M95.91 473.512l-5.5 1.5c-1.4.4-2 2-1.2 3.1 3.8 5.8 13.699 20.2 19.899 21.7 6.4 1.6 18.2-17.2 22.2-23.8.7-1.1.1-2.6-1.1-3l-4-1.2c-3.3-1-6.7-1.3-10.1-1l-15 1.5c-1.8.4-3.5.8-5.2 1.2z" fill="url(#paint9_linear)"/><path d="M100.009 452.112s3 21.7-1.2 23.9l11.9 12.7 11.9-15.6s-4.5-3.3-3.3-21.2l-19.3.2z" fill="#FFB48D"/><path d="M92.91 421.012c-.4.6-6.1 28.1 13.299 30.8 19.2 2.6 20-17.5 19.8-26-.2-8.5-9-11.6-14-12.2-5-.7-17.5 5.3-19.1 7.4z" fill="#FFB48D"/><path d="M91.81 437.012s-1-4.5-4.3-1.7 2 10.2 6.3 9.9l-2-8.2zm33.599-3.4c-.5.4-2.1 10.8-2.1 10.8s2.8.3 4.7-3.5c2-3.7 3-11.1-2.6-7.3z" fill="#FFB48D"/><path d="M128.709 414.612c-2-3.3-2.9-2.7-4.3-5.9-1.2-2.7-2.6-2.3-4.2-4.6-1.3-2-8.7-1.5-9.3-1.5 3.1.1-4.4.1 0 0-3.8-.1-3.2.699-8.2-1.501-4.9-2.2-9.5-1.099-12.5 3.001-2.3 3.1-1.5.6-4.5 4.6-2.1 2.8-3 3.2-4 5.9-1 2.5 0 7.2.5 9 1.2 4.3.1 3.1 3.5 7.7 1.5 2 3.6 5.1 5.8 9.1.9 2.4 2 5.999 3.2 10.699 1.1 4.3 4.5 5.101 5.5 6.501 3.5 4.7 8.2 4.2 11.5 4 3.8-.3 6.2-1.601 8.5-5.001 1.3-1.8 3.5-2.399 3.8-6.799.2-3.1.7-7.4 1.6-12.7 0 0 .4-2.4 1.5-5.4 1.4-3.7 1-3.801 2.6-7.601 1.4-3.2.6-6.799-1-9.499zm-11.6 28.1c-2.4.7-3.9.1-7.2 0-6.4-.3-8.5 2.7-11.5 1.4-1.3-.5-4.2-2.1-4.8-5-.4-1.9-.6-4.6-.2-7.6.5-3.7 1.1-8 4.1-9.9 4.3-2.8 9.8 1.9 13.8-1.1 1.5-1.2 2.1-3 2.4-4.3.9.3 7.8 2.8 10.3 10.2 1.6 4.6.7 8.6-.1 10.9-1.4 2.1-3.6 4.5-6.8 5.4z" fill="#26264F"/><path d="M103.809 447.412c2.5.7 6.2 1.2 10.4-.4.4-.2.8.3.4.6-1.5 1.1-3.7 2.2-6 2.1-2-.1-3.8-.9-5.2-1.6-.3-.3 0-.8.4-.7z" fill="url(#paint10_linear)"/></g><path d="M347.419 413.087c-4.719-8.301-7.103-17.95-6.817-27.48.041-4.769 2.84-7.134 5.724-11.155 2.669-3.822 6.732-6.753 11.327-8 1.673-4.49 4.947-8.078 8.989-10.595 4.248-2.507 6.842-4.881 11.567-4.67 9.439.628 18.74 3.947 26.485 9.478-2.023-.712-4.499-.615-6.401.337 6.707 5.693 12.744 12.393 17.516 19.659-2.574-1.982-5.786-3.577-8.825-4.543 6.168 8.159 10.833 17.494 13.402 27.566-2.553-2.395-5.117-4.584-7.67-6.98 5.196 11.019 6.814 23.538 4.551 35.47l.389.432-.411-.018-.021.414-.39-.433c-12.001 1.125-24.199-1.908-34.593-7.972 2.121 2.791 4.036 5.573 6.157 8.365-9.495-3.535-18.472-9.122-25.937-16.093a27.969 27.969 0 003.638 9.29c-6.923-5.495-12.96-12.195-17.732-19.461-.918 1.826-1.241 4.094-.948 6.389z" fill="#FCF16E"/><path d="M349.694 399.916c-3.399-5.96-5.09-13.089-4.932-20.135.182-3.519 2.127-5.299 4.126-8.114 1.999-2.816 4.993-4.964 8.333-5.852 1.198-3.266 3.608-6.063 6.58-7.798 2.973-1.735 4.918-3.515 8.41-3.359a39.142 39.142 0 0119.413 6.881c-1.622-.487-3.277-.353-4.747.203 4.933 4.162 9.218 8.917 12.843 14.472a21.06 21.06 0 00-6.414-3.397c4.631 6.015 7.987 12.803 9.873 20.148-1.969-1.748-3.732-3.486-5.712-5.026 3.702 8.048 4.876 17.228 3.399 25.875l.195.217-.205-.01-.011.207-.195-.216c-8.682.651-17.841-1.417-25.229-5.896 1.537 2.143 3.084 4.079 4.415 6.213-7.072-2.597-13.454-6.615-18.95-11.839.488 2.511 1.398 4.833 2.74 6.76-4.944-3.954-9.423-8.925-13.059-14.274-.918 1.827-1.209 3.473-.873 4.94z" fill="#FFED10"/><path d="M354.088 394.305c-2.652-4.475-3.822-9.713-3.75-15.104.139-2.69 1.641-3.868 2.992-6.09 1.555-2.212 3.695-3.777 6.204-4.495.95-2.447 2.7-4.443 5.035-5.791 2.335-1.349 3.642-2.742 6.302-2.416 5.126.435 10.187 2.113 14.557 5.212-1.222-.262-2.455-.317-3.514.259 3.754 3.071 7.065 6.745 9.532 10.797-1.384-1.099-3.191-2.009-4.813-2.497 3.474 4.512 5.888 9.598 7.459 15.062l-4.122-3.918c2.782 5.933 3.662 12.818 2.498 19.404l.195.217-.205-.01-.011.207-.195-.216c-6.617.535-13.332-1.009-18.925-4.37l3.474 4.511c-5.256-1.893-10.037-5.011-14.159-8.929.315 1.881 1.051 3.574 2.003 5.068-3.754-3.071-7.064-6.745-9.748-10.599-.886 1.205-.95 2.447-.809 3.698z" fill="#FFEE18"/><path d="M263.523 417.082l6.603-84.973 56.632 4.754.744-57.269 84.546 1.709 4.882 30.756-86.477 29.086-37.033 83.96-29.897-8.023z" fill="url(#paint11_linear)"/><path opacity=".2" d="M327.368 279.595l25.691.459c10.829 14.552 19.932 29.541 27.175 44.276l-49.745 16.827-20.63 46.606c-14.018-8.86-28.108-19.611-41.591-32.222l1.721-23.428 56.634 4.754.745-57.272z" fill="#000"/><path d="M242.316 242.016c27.557-2.717 65.732 16.484 97.147 51.167 15.945 17.696 27.723 36.921 34.789 55.079a130.706 130.706 0 01-17.899 20.133 130.1 130.1 0 01-21.603 16.022c-17.254-8.833-35.11-22.496-51.054-40.191-31.424-34.513-46.711-74.825-41.38-102.21z" fill="#fff"/><path opacity=".3" d="M242.316 242.016c27.557-2.717 65.732 16.484 97.147 51.167 15.945 17.696 27.723 36.921 34.789 55.079a130.706 130.706 0 01-17.899 20.133 130.1 130.1 0 01-21.603 16.022c-17.254-8.833-35.11-22.496-51.054-40.191-31.424-34.513-46.711-74.825-41.38-102.21z" fill="#889B99"/><path d="M368.566 335.122c-1.686 6.27-4.891 12.302-8.58 17.797-5.331 7.652-11.977 14.387-18.615 20.952 1.297 1.258 2.772 2.353 4.257 3.277-3.538 2.586-7.238 4.994-10.928 7.23a157.362 157.362 0 01-21.933-13.669c.15-2.909.81-5.795 1.639-8.674 2.597-7.43 7.348-13.736 12.091-19.87 4.555-5.8 9.62-11.577 16.42-14.704 6.452-2.971 13.576-2.482 20.674-1.48 1.879 3.171 3.597 6.164 4.975 9.141z" fill="#889B99"/><path d="M198.637 193.756c35.774-3.552 85.907 21.5 126.654 66.721 20.776 23.058 36.171 48.106 45.332 71.847-6.781 9.305-14.564 18.223-23.502 26.403-8.937 8.179-18.321 15.138-28.333 21.04-22.567-11.471-45.656-29.313-66.602-52.378-40.738-45.393-60.494-98.086-53.549-133.633z" fill="#fff"/><path d="M231.914 233.692c-9.653 8.835-16.837 19.325-21.677 30.605-11.605-25.911-15.939-50.812-12.194-70.548 20.37-2.009 45.208 5.103 70.327 19.949-13.126 3.533-25.561 10.185-36.456 19.994z" fill="url(#paint12_linear)"/><path d="M411.833 307.483c1.838 12.921 4.028 12.846 6.738 12.45 2.711-.396 4.937-1.155 3.09-13.906-1.838-12.921-6.828-32.999-9.539-32.604-2.71.396-2.136 21.31-.289 34.06zM289.201 418.891c12.632 3.152 12.342 5.396 11.685 8.144-.658 2.748-1.629 4.962-14.09 1.818-12.632-3.152-32.052-10.244-31.394-12.992.657-2.749 21.167-.122 33.799 3.03z" fill="#fff"/><path opacity=".1" d="M198.369 195.453c11.546 36.69 37.686 80.717 75.178 122.336 18.666 20.72 38.322 38.741 57.637 53.489-4.063 2.905-8.288 5.631-12.503 8.186-22.547-11.463-45.615-29.293-66.543-52.343-40.067-44.476-59.859-96.107-53.769-131.668z" fill="#000"/><path d="M260.506 290.75c-14.331-.619-25.323-12.863-24.551-27.348.773-14.484 13.016-25.725 27.348-25.106 14.331.618 25.323 12.862 24.55 27.347-.772 14.485-13.016 25.726-27.347 25.107z" fill="#8EE4FF"/><path opacity=".3" d="M240.137 250.117l44.927 1.902c2.459 4.983 3.347 10.597 2.544 15.965l-51.905-2.198a29.108 29.108 0 014.434-15.669zm-.278 28.645c-2.044-3.249-3.217-6.812-3.7-10.521l51.092 2.179c-.879 3.651-2.601 7.091-4.815 10.158l-42.577-1.816z" fill="#fff"/><path opacity=".1" d="M244.555 245.033a25.88 25.88 0 0126.222-5.385c-5.618.443-10.997 2.784-15.622 6.872-10.694 9.829-11.578 26.428-1.969 36.962a24.972 24.972 0 0010.478 6.971c-7.665.698-15.477-2.213-21.078-8.458-9.609-10.535-8.725-27.134 1.969-36.962z" fill="#000"/><path d="M281.903 286.694c12.333-11.353 13.388-30.576 2.345-42.738-11.034-12.333-29.999-13.129-42.163-1.769-12.333 11.353-13.387 30.577-2.344 42.738 10.864 12.326 29.829 13.122 42.162 1.769zm-34.71-38.615c9.116-8.391 23.001-7.809 30.987 1.3 8.155 9.115 7.383 23.19-1.723 31.41-9.116 8.391-23.001 7.808-30.987-1.3-7.995-8.937-7.214-23.183 1.723-31.41z" fill="url(#paint13_linear)"/><defs><linearGradient id="paint0_linear" x1="492.92" y1="321.037" x2="635.537" y2="748.377" gradientUnits="userSpaceOnUse"><stop stop-color="#28FEFE" stop-opacity=".3"/><stop offset="1" stop-color="#30B3C7"/></linearGradient><linearGradient id="paint1_linear" x1="384.146" y1="133.935" x2="436.614" y2="712.309" gradientUnits="userSpaceOnUse"><stop stop-color="#39CA21" stop-opacity=".77"/><stop offset="1" stop-color="#8DFF33" stop-opacity=".68"/></linearGradient><linearGradient id="paint2_linear" x1="661.5" y1="553" x2="374" y2="428" gradientUnits="userSpaceOnUse"><stop stop-color="#fff" stop-opacity=".75"/><stop offset="1" stop-color="#fff"/></linearGradient><linearGradient id="paint3_linear" x1="683.921" y1="347.557" x2="413.1" y2="511.831" gradientUnits="userSpaceOnUse"><stop stop-color="#fff"/><stop offset="1" stop-color="#fff" stop-opacity=".26"/></linearGradient><linearGradient id="paint4_linear" x1="370.469" y1="515.339" x2="343.139" y2="560.821" gradientUnits="userSpaceOnUse"><stop stop-color="#AB316D"/><stop offset="1" stop-color="#792D3D"/></linearGradient><linearGradient id="paint5_linear" x1="354.579" y1="697.091" x2="340.568" y2="595.513" gradientUnits="userSpaceOnUse"><stop offset=".004" stop-color="#E38DDD"/><stop offset="1" stop-color="#9571F6"/></linearGradient><linearGradient id="paint6_linear" x1="369.8" y1="515.169" x2="342.47" y2="560.651" gradientUnits="userSpaceOnUse"><stop stop-color="#AB316D"/><stop offset="1" stop-color="#792D3D"/></linearGradient><linearGradient id="paint7_linear" x1="352" y1="630" x2="351.791" y2="596.464" gradientUnits="userSpaceOnUse"><stop offset=".004" stop-color="#A175F2"/><stop offset="1" stop-color="#AA78EF"/></linearGradient><linearGradient id="paint8_linear" x1="56" y1="484.5" x2="178.44" y2="534.87" gradientUnits="userSpaceOnUse"><stop stop-color="#1392E8"/><stop offset=".499" stop-color="#39A6F0"/><stop offset="1" stop-color="#5FBAF8"/></linearGradient><linearGradient id="paint9_linear" x1="109.197" y1="528.132" x2="110.552" y2="454.182" gradientUnits="userSpaceOnUse"><stop stop-color="#DBEEEB"/><stop offset=".555" stop-color="#DBEEEB"/><stop offset="1" stop-color="#DBEEEB"/></linearGradient><linearGradient id="paint10_linear" x1="113.227" y1="411.4" x2="109.555" y2="443.097" gradientUnits="userSpaceOnUse"><stop stop-color="#FFC444"/><stop offset=".996" stop-color="#F36F56"/></linearGradient><linearGradient id="paint11_linear" x1="356.972" y1="370.466" x2="297.123" y2="305.076" gradientUnits="userSpaceOnUse"><stop stop-color="#76D5DC"/><stop offset="1" stop-color="#76D5DC"/></linearGradient><linearGradient id="paint12_linear" x1="247.662" y1="190.612" x2="190.369" y2="242.237" gradientUnits="userSpaceOnUse"><stop stop-color="#76D5DC"/><stop offset=".901" stop-color="#76D5DC"/></linearGradient><linearGradient id="paint13_linear" x1="284.199" y1="243.917" x2="239.037" y2="284.32" gradientUnits="userSpaceOnUse"><stop stop-color="#A2E799"/><stop offset="1" stop-color="#A2E799"/></linearGradient></defs></svg>