<svg width="648" height="866" fill="none" xmlns="http://www.w3.org/2000/svg"><path opacity=".13" d="M467.984 167.027c-176.999-80.191-434.7 209.82-232.595 315.157 194.755 71.079 157.955 171.396 264.052 218.268 140.789 62.539 249.559-117.123 249.761-117 142.133-221.436-30.663-360.875-281.218-416.425z" fill="url(#paint0_linear)"/><g opacity=".3"><mask id="a" fill="#fff"><path d="M463.284 112.74C254.333 45.48-3.866 351.301 163.023 487.825c12.903 10.555 28.471 17.317 43.838 23.621 203.116 83.316 163.218 189.765 283.767 243.814 165.829 74.77 299.608-135.854 299.845-135.706 171.362-273.477-31.297-442.111-327.189-506.814z"/></mask><path d="M463.284 112.74l-.155.475.023.007.023.005.109-.487zm27.344 642.52l.208-.455h-.001l-.207.455zm299.845-135.706l-.267.424.425.264.266-.425-.424-.263zm-627.45-131.729l.319-.387-.319.387zm43.838 23.621l.192-.462-.192.462zM463.44 112.264c-.482-.155-.965-.308-1.448-.46l-.304.953c.481.151.961.303 1.441.458l.311-.951zm-4.35-1.344c-.968-.287-1.937-.566-2.907-.838l-.274.962c.965.27 1.929.548 2.892.833l.289-.957zm-5.82-1.628c-.972-.256-1.944-.504-2.918-.744l-.244.969c.968.239 1.936.486 2.903.741l.259-.966zm-5.841-1.442c-.975-.225-1.951-.442-2.928-.652l-.215.977c.972.208 1.943.424 2.913.648l.23-.973zm-5.886-1.263c-.99-.197-1.981-.386-2.972-.567l-.185.982c.987.18 1.972.368 2.957.564l.2-.979zm-5.948-1.089c-.993-.166-1.986-.324-2.98-.475l-.155.987c.989.15 1.978.308 2.965.473l.17-.985zm-5.963-.905c-.995-.136-1.99-.265-2.986-.386l-.125.992c.991.12 1.981.248 2.971.383l.14-.989zm-5.975-.726a204.038 204.038 0 00-3.008-.298l-.096.995c.998.091 1.996.19 2.993.296l.111-.993zm-6.018-.551a202.129 202.129 0 00-3.012-.209l-.066.997c.999.062 1.998.131 2.997.208l.081-.996zm-6.025-.374c-1.005-.048-2.01-.088-3.015-.122l-.037.998c1 .034 2 .074 3 .121l.052-.997zm-6.031-.2a216.626 216.626 0 00-3.016-.036l-.009.999c1.001.004 2.001.016 3.002.035l.023-.998zm-6.034-.029c-1.005.009-2.011.025-3.017.049l.019.998a231.48 231.48 0 013.004-.049l-.006-.998zm-6.034.139c-1.006.037-2.011.081-3.017.132l.047.998a215.34 215.34 0 013.003-.132l-.033-.998zm-6.033.306c-1.005.064-2.01.135-3.015.214l.074.995c1-.078 2.001-.149 3.002-.213l-.061-.996zm-6.02.467a232.49 232.49 0 00-3.001.293l.101.994c.995-.104 1.991-.202 2.987-.292l-.087-.995zm-5.999.626c-.999.117-1.998.241-2.996.372l.126.99c.994-.13 1.988-.253 2.983-.37l-.113-.992zm-5.99.782c-.997.144-1.995.293-2.991.449l.151.987c.993-.155 1.985-.305 2.979-.447l-.139-.989zm-5.979.937c-.989.167-1.978.341-2.966.521l.176.982c.984-.179 1.969-.352 2.954-.519l-.164-.984zm-5.927 1.079c-.987.192-1.973.391-2.958.595l.2.978c.981-.204 1.963-.401 2.946-.593l-.188-.98zm-5.912 1.227c-.984.216-1.967.438-2.949.667l.224.972a248.84 248.84 0 012.937-.664l-.212-.975zm-5.894 1.37c-.978.239-1.956.485-2.933.736l.246.967c.973-.25 1.948-.495 2.922-.734l-.235-.969zm-5.845 1.503c-.969.262-1.938.529-2.905.802l.268.96c.964-.271 1.929-.537 2.895-.798l-.258-.964zm-5.805 1.636c-.966.284-1.931.574-2.894.869l.29.954c.96-.293 1.921-.582 2.883-.865l-.279-.958zm-5.782 1.77c-.962.307-1.922.618-2.881.935l.311.948c.956-.316 1.913-.626 2.871-.931l-.301-.952zm-5.745 1.898c-.949.325-1.897.655-2.843.991l.332.941c.943-.334 1.887-.664 2.833-.987l-.322-.945zm-5.68 2.013c-.944.346-1.887.697-2.828 1.053l.351.934c.939-.355 1.878-.705 2.819-1.05l-.342-.937zm-5.649 2.137c-.939.367-1.877.738-2.813 1.115l.371.926c.933-.376 1.867-.746 2.803-1.111l-.361-.93zm-5.618 2.259c-.929.385-1.857.775-2.783 1.169l.39.918c.923-.393 1.848-.781 2.774-1.165l-.381-.922zm-5.548 2.364c-.921.402-1.84.81-2.757 1.223l.408.91c.915-.411 1.831-.818 2.748-1.219l-.399-.914zm-5.504 2.474c-.915.422-1.827.849-2.738 1.28l.426.902c.908-.43 1.818-.855 2.729-1.276l-.417-.906zm-5.466 2.588c-.908.44-1.814.885-2.718 1.335l.444.893c.901-.448 1.804-.891 2.709-1.331l-.435-.897zm-5.413 2.691c-.895.456-1.788.916-2.68 1.38l.461.885c.889-.463 1.779-.922 2.671-1.376l-.452-.889zm-5.348 2.787c-.888.473-1.774.95-2.658 1.432l.477.876c.881-.48 1.765-.956 2.65-1.428l-.469-.88zm-5.305 2.89c-.88.491-1.759.985-2.635 1.484l.494.867c.873-.497 1.749-.99 2.627-1.479l-.486-.872zm-5.258 2.993c-.87.505-1.737 1.014-2.602 1.527l.509.858c.863-.512 1.728-1.019 2.594-1.523l-.501-.862zm-5.189 3.078c-.86.521-1.718 1.046-2.574 1.574l.525.849c.853-.527 1.709-1.051 2.566-1.57l-.517-.853zm-5.136 3.172c-.852.537-1.701 1.078-2.549 1.622l.54.839c.845-.543 1.692-1.082 2.541-1.617l-.532-.844zm-5.084 3.267c-.843.552-1.684 1.108-2.522 1.667l.554.829c.836-.558 1.675-1.112 2.515-1.662l-.547-.834zm-5.026 3.354a377.68 377.68 0 00-2.488 1.707l.569.82c.825-.571 1.652-1.139 2.481-1.703l-.562-.824zm-4.961 3.437a330.99 330.99 0 00-2.46 1.751l.583.81c.815-.586 1.633-1.168 2.453-1.747l-.576-.814zm-4.905 3.523c-.812.595-1.623 1.192-2.43 1.794l.597.799c.805-.599 1.613-1.196 2.423-1.788l-.59-.805zm-4.845 3.608c-.802.608-1.602 1.219-2.399 1.834l.61.789c.795-.613 1.593-1.223 2.393-1.829l-.604-.794zm-4.783 3.688a329.79 329.79 0 00-2.367 1.874l.623.779c.785-.627 1.572-1.25 2.361-1.869l-.617-.784zm-4.719 3.767c-.781.635-1.56 1.272-2.335 1.913l.637.768c.773-.639 1.549-1.275 2.328-1.907l-.63-.774zm-4.654 3.845c-.77.647-1.537 1.297-2.301 1.95l.649.757a428.3 428.3 0 012.296-1.945l-.644-.762zm-4.59 3.923c-.761.66-1.519 1.324-2.273 1.991l.662.747a328.58 328.58 0 012.267-1.987l-.656-.751zm-4.528 4.001c-.749.673-1.495 1.348-2.237 2.027l.674.735a387.08 387.08 0 012.231-2.021l-.668-.741zm-4.456 4.072c-.737.684-1.47 1.371-2.201 2.061l.687.724c.729-.688 1.46-1.374 2.195-2.056l-.681-.729zm-4.382 4.139c-.727.699-1.451 1.4-2.172 2.104l.699.712c.719-.702 1.441-1.401 2.166-2.098l-.693-.718zm-4.327 4.226c-.715.71-1.427 1.423-2.135 2.138l.711.701a356.79 356.79 0 012.129-2.133l-.705-.706zm-4.25 4.292c-.702.721-1.4 1.444-2.095 2.17l.723.688c.693-.724 1.389-1.445 2.089-2.164l-.717-.694zm-4.169 4.354a353.72 353.72 0 00-2.053 2.199l.734.676c.679-.734 1.362-1.465 2.048-2.193l-.729-.682zm-4.101 4.429c-.679.746-1.355 1.495-2.027 2.247l.746.663c.67-.749 1.344-1.496 2.022-2.241l-.741-.669zm-4.033 4.507c-.665.756-1.326 1.514-1.984 2.275l.758.65a320.74 320.74 0 011.978-2.268l-.752-.657zm-3.945 4.563a323.16 323.16 0 00-1.938 2.302l.768.637c.641-.767 1.285-1.532 1.933-2.295l-.763-.644zm-3.854 4.616c-.642.782-1.279 1.566-1.913 2.353l.779.624c.632-.785 1.268-1.567 1.908-2.347l-.774-.63zm-3.803 4.719c-.625.791-1.247 1.583-1.865 2.378l.791.61c.615-.792 1.235-1.583 1.859-2.371l-.785-.617zm-3.706 4.769c-.609.798-1.214 1.599-1.815 2.401l.801.596c.599-.8 1.203-1.598 1.81-2.395l-.796-.602zm-3.606 4.815c-.594.808-1.184 1.618-1.769 2.43l.812.581c.583-.809 1.171-1.617 1.764-2.423l-.807-.588zm-3.534 4.9c-.583.825-1.162 1.652-1.737 2.481l.823.565c.573-.826 1.15-1.65 1.732-2.473l-.818-.573zm-3.447 4.972c-.566.832-1.127 1.665-1.683 2.501l.833.55c.555-.833 1.114-1.664 1.678-2.493l-.828-.558zm-3.339 5.011c-.547.839-1.089 1.679-1.627 2.52l.843.535c.537-.839 1.077-1.677 1.623-2.512l-.839-.543zm-3.239 5.07a304.69 304.69 0 00-1.598 2.581l.855.518a266.31 266.31 0 011.592-2.573l-.849-.526zm-3.165 5.171c-.518.865-1.03 1.731-1.538 2.598l.865.501c.506-.865 1.016-1.728 1.532-2.59l-.859-.509zm-3.045 5.205c-.497.87-.989 1.741-1.476 2.614l.874.483c.485-.87.976-1.738 1.472-2.606l-.87-.491zm-2.922 5.235c-.485.89-.964 1.78-1.438 2.672l.884.465c.473-.889.95-1.777 1.433-2.663l-.879-.474zm-2.847 5.359c-.464.897-.923 1.794-1.376 2.693l.894.446c.452-.896.909-1.79 1.371-2.684l-.889-.455zm-2.718 5.392c-.442.901-.879 1.803-1.309 2.705l.904.426c.429-.899.863-1.797 1.304-2.695l-.899-.436zm-2.584 5.416c-.422.912-.839 1.824-1.25 2.738l.913.405c.41-.91.825-1.819 1.246-2.727l-.909-.416zm-2.481 5.517c-.404.927-.802 1.855-1.194 2.783l.922.384c.391-.924.787-1.849 1.19-2.772l-.918-.395zm-2.352 5.571c-.379.93-.753 1.86-1.12 2.791l.932.362c.365-.927.737-1.854 1.115-2.78l-.927-.373zm-2.202 5.586c-.355.933-.704 1.866-1.046 2.8l.94.34c.341-.93.688-1.86 1.042-2.789l-.936-.351zm-2.075 5.665c-.336.955-.666 1.911-.988 2.866l.949.316c.321-.952.649-1.904.984-2.855l-.945-.327zm-1.936 5.735c-.309.956-.611 1.913-.906 2.87l.957.29c.293-.953.594-1.905.902-2.857l-.953-.303zm-1.771 5.741c-.282.957-.556 1.914-.823 2.871l.964.265c.266-.953.539-1.906.819-2.859l-.96-.277zm-1.619 5.8c-.259.98-.51 1.959-.754 2.938l.972.237c.242-.974.492-1.949.75-2.924l-.968-.251zm-1.463 5.876c-.229.979-.45 1.958-.663 2.937l.978.208c.212-.974.433-1.948.66-2.922l-.975-.223zm-1.281 5.871a191.84 191.84 0 00-.571 2.933l.984.18c.182-.973.371-1.945.568-2.919l-.981-.194zm-1.105 5.916a184.32 184.32 0 00-.487 2.992l.99.148c.153-.991.314-1.984.484-2.976l-.987-.164zm-.924 5.981c-.138.996-.267 1.991-.388 2.985l.994.116c.12-.988.249-1.978.386-2.968l-.992-.133zm-.725 5.966c-.104.993-.199 1.985-.286 2.976l.998.082c.086-.985.181-1.971.284-2.959l-.996-.099zm-.524 5.996a171.256 171.256 0 00-.186 3.022l1 .048c.053-1 .114-2.002.184-3.004l-.998-.066zm-.317 6.037c-.035 1.004-.06 2.007-.077 3.008l1.002.012c.016-.995.041-1.992.076-2.99l-1.001-.03zm-.098 6.008c.002 1 .013 1.998.034 2.995l1.001-.025a155.04 155.04 0 01-.034-2.976l-1.001.006zm.126 6.022c.04 1.007.09 2.013.149 3.017l1-.063a157.04 157.04 0 01-.149-2.998l-1 .044zm.358 6.024c.079 1.001.168 2 .267 2.997l.997-.103c-.099-.99-.187-1.982-.266-2.976l-.998.082zm.594 5.983c.119.995.249 1.989.388 2.981l.992-.143c-.139-.985-.267-1.972-.386-2.961l-.994.123zm.839 5.964c.16.992.331 1.982.513 2.97l.985-.184c-.18-.981-.35-1.964-.51-2.949l-.988.163zm1.087 5.927c.203.983.415 1.964.638 2.942l.977-.225c-.222-.971-.433-1.945-.634-2.922l-.981.205zm1.339 5.87c.244.972.498 1.942.763 2.909l.966-.267c-.263-.96-.515-1.923-.758-2.888l-.971.246zm1.59 5.799c.286.961.583 1.919.89 2.874l.954-.309c-.306-.948-.6-1.899-.884-2.853l-.96.288zm1.846 5.731c.329.95.67 1.897 1.021 2.841l.939-.351a131.69 131.69 0 01-1.014-2.82l-.946.33zm2.107 5.663c.368.925.747 1.847 1.137 2.766l.923-.392c-.387-.912-.763-1.827-1.129-2.746l-.931.372zm2.338 5.512c.411.912.833 1.821 1.265 2.727l.905-.432c-.43-.9-.849-1.802-1.257-2.707l-.913.412zm2.597 5.435c.455.899.921 1.795 1.398 2.688l.884-.473c-.474-.886-.936-1.775-1.388-2.668l-.894.453zm2.855 5.343c.486.862.982 1.72 1.488 2.575l.863-.511c-.503-.848-.996-1.701-1.478-2.556l-.873.492zm3.041 5.13c.528.848 1.067 1.693 1.616 2.534l.84-.548a133.06 133.06 0 01-1.605-2.516l-.851.53zm3.297 5.046a140 140 0 001.746 2.491l.815-.583a143.284 143.284 0 01-1.733-2.473l-.828.565zm3.541 4.938c.59.786 1.19 1.569 1.801 2.348l.79-.616a143.054 143.054 0 01-1.788-2.333l-.803.601zm3.662 4.676c.631.772 1.272 1.54 1.923 2.305l.764-.648c-.646-.76-1.283-1.523-1.909-2.29l-.778.633zm3.908 4.588c.671.757 1.354 1.511 2.046 2.261l.738-.679a146.054 146.054 0 01-2.033-2.245l-.751.663zm4.152 4.495c.676.703 1.362 1.403 2.057 2.099l.711-.706c-.69-.692-1.372-1.387-2.044-2.086l-.724.693zm4.172 4.178c.714.689 1.438 1.374 2.171 2.056l.685-.732a156.301 156.301 0 01-2.158-2.043l-.698.719zm4.4 4.09c.752.675 1.515 1.345 2.286 2.012l.658-.756a164.657 164.657 0 01-2.273-2l-.671.744zm4.631 4.001c.396.33.794.658 1.195.986l.637-.773c-.399-.326-.795-.653-1.188-.981l-.644.768zm1.195.986c.405.332.813.659 1.223.983l.624-.783c-.406-.321-.81-.645-1.21-.973l-.637.773zm3.717 2.888c.842.621 1.694 1.229 2.554 1.824l.573-.822a101.816 101.816 0 01-2.529-1.806l-.598.804zm5.16 3.57c.876.57 1.761 1.127 2.653 1.673l.526-.851a121.127 121.127 0 01-2.63-1.659l-.549.837zm5.347 3.278c.904.523 1.814 1.036 2.731 1.54l.486-.875c-.91-.5-1.814-1.01-2.712-1.529l-.505.864zm5.493 3.021c.925.484 1.856.959 2.79 1.426l.452-.893c-.929-.464-1.854-.937-2.774-1.418l-.468.885zm5.604 2.804c.941.452 1.886.896 2.833 1.334l.425-.906a219.8 219.8 0 01-2.821-1.328l-.437.9zm5.684 2.63c.953.427 1.908.848 2.864 1.264l.404-.916c-.954-.415-1.906-.834-2.855-1.259l-.413.911zm5.74 2.5c.96.408 1.922.812 2.883 1.214l.39-.922c-.96-.4-1.919-.804-2.877-1.211l-.396.919zm5.773 2.412l1.446.594.384-.924c-.481-.197-.963-.395-1.444-.594l-.386.924zm1.446.594l1.417.583.386-.923-1.419-.584-.384.924zm4.226 1.751c.931.39 1.857.781 2.778 1.171l.395-.919c-.922-.391-1.85-.782-2.782-1.173l-.391.921zm5.524 2.345c.911.392 1.816.785 2.716 1.177l.404-.915c-.901-.393-1.808-.786-2.72-1.179l-.4.917zm5.401 2.357c.89.394 1.775.788 2.655 1.182l.414-.911c-.882-.395-1.768-.79-2.66-1.184l-.409.913zm5.41 2.427c.924.421 1.843.841 2.755 1.263l.424-.907c-.914-.422-1.834-.843-2.76-1.265l-.419.909zm5.477 2.528c.901.423 1.797.845 2.688 1.269l.434-.902c-.893-.424-1.79-.848-2.694-1.271l-.428.904zm5.343 2.54c.88.424 1.754.849 2.623 1.274l.444-.897c-.871-.426-1.747-.852-2.628-1.277l-.439.9zm5.293 2.59c.911.452 1.815.905 2.714 1.359l.455-.892c-.901-.454-1.807-.908-2.72-1.361l-.449.894zm5.393 2.72c.887.455 1.768.909 2.644 1.365l.466-.886c-.878-.456-1.761-.912-2.649-1.367l-.461.888zm5.252 2.732c.864.456 1.722.913 2.574 1.37l.477-.88c-.854-.458-1.714-.916-2.579-1.373l-.472.883zm5.2 2.79a459.7 459.7 0 012.655 1.458l.489-.873c-.881-.488-1.768-.975-2.661-1.462l-.483.877zm5.272 2.92c.867.488 1.727.976 2.581 1.464l.501-.866c-.856-.49-1.718-.979-2.587-1.468l-.495.87zm5.124 2.932c.841.489 1.677.979 2.506 1.469l.514-.859c-.832-.492-1.67-.983-2.513-1.474l-.507.864zm5.117 3.026c.865.52 1.724 1.04 2.575 1.561l.526-.851a359.38 359.38 0 00-2.581-1.566l-.52.856zm5.111 3.126c.839.522 1.671 1.044 2.497 1.567l.539-.844a375.23 375.23 0 00-2.503-1.571l-.533.848zm4.956 3.136c.845.544 1.683 1.089 2.514 1.633l.552-.835a355.864 355.864 0 00-2.521-1.637l-.545.839zm5.03 3.297a379.53 379.53 0 012.475 1.666l.566-.826a411.035 411.035 0 00-2.482-1.671l-.559.831zm4.909 3.335c.805.557 1.603 1.113 2.394 1.671l.58-.817a345.937 345.937 0 00-2.401-1.675l-.573.821zm4.836 3.406c.82.588 1.633 1.177 2.44 1.766l.594-.807c-.809-.59-1.624-1.181-2.447-1.771l-.587.812zm4.837 3.534c.792.59 1.577 1.18 2.355 1.77l.608-.796c-.78-.592-1.568-1.184-2.362-1.775l-.601.801zm4.669 3.542a281.89 281.89 0 012.383 1.86l.623-.785c-.79-.622-1.586-1.244-2.39-1.865l-.616.79zm4.73 3.726c.774.623 1.542 1.245 2.303 1.869l.637-.773c-.763-.625-1.533-1.25-2.31-1.875l-.63.779zm4.564 3.738c.762.637 1.517 1.273 2.266 1.91l.652-.761a386.899 386.899 0 00-2.273-1.916l-.645.767zm4.548 3.873c.754.654 1.5 1.309 2.239 1.964l.667-.748c-.742-.657-1.49-1.314-2.246-1.971l-.66.755zm4.436 3.928c.729.659 1.451 1.318 2.166 1.977l.681-.735a285.518 285.518 0 00-2.174-1.983l-.673.741zm4.374 4.031c.728.685 1.45 1.37 2.164 2.055l.695-.722c-.716-.687-1.44-1.374-2.171-2.061l-.688.728zm4.285 4.109c.701.686 1.394 1.371 2.081 2.056l.71-.707a291.87 291.87 0 00-2.088-2.063l-.703.714zm4.204 4.196c.701.713 1.394 1.426 2.081 2.139l.724-.693a297.893 297.893 0 00-2.088-2.147l-.717.701zm4.12 4.278a302.12 302.12 0 012.004 2.142l.736-.679a303.856 303.856 0 00-2.009-2.15l-.731.687zm4.037 4.359c.671.739 1.335 1.478 1.992 2.216l.75-.665a286.189 286.189 0 00-1.999-2.223l-.743.672zm3.946 4.43c.65.744 1.294 1.488 1.931 2.231l.762-.651a297.083 297.083 0 00-1.937-2.238l-.756.658zm3.873 4.516a338.49 338.49 0 011.904 2.283l.774-.637c-.63-.763-1.267-1.526-1.91-2.29l-.768.644zm3.773 4.564a343.8 343.8 0 011.864 2.316l.785-.624a373.277 373.277 0 00-1.87-2.323l-.779.631zm3.718 4.659c.613.78 1.22 1.56 1.821 2.339l.794-.611a395.047 395.047 0 00-1.825-2.346l-.79.618zm3.61 4.675c.607.798 1.208 1.596 1.805 2.393l.803-.6a443.822 443.822 0 00-1.809-2.399l-.799.606zm3.58 4.782c.587.796 1.17 1.59 1.747 2.384l.812-.589a481.256 481.256 0 00-1.751-2.389l-.808.594zm3.488 4.791c.583.811 1.161 1.621 1.736 2.43l.818-.58c-.576-.81-1.155-1.621-1.739-2.434l-.815.584zm3.447 4.853c.567.808 1.131 1.615 1.692 2.421l.824-.572a912.097 912.097 0 00-1.695-2.425l-.821.576zm3.395 4.88c.564.819 1.125 1.636 1.683 2.452l.828-.566c-.558-.816-1.12-1.634-1.685-2.454l-.826.568zm3.349 4.895c.561.824 1.119 1.647 1.674 2.468l.831-.56c-.556-.822-1.114-1.646-1.675-2.471l-.83.563zm3.341 4.938c.553.821 1.105 1.641 1.654 2.459l.833-.558-1.655-2.46-.832.559zm3.312 4.928l1.663 2.476.832-.558-1.662-2.476-.833.558zm3.32 4.941c.553.822 1.106 1.643 1.659 2.461l.832-.56a1312.15 1312.15 0 01-1.659-2.46l-.832.559zm3.332 4.932c.558.822 1.116 1.641 1.674 2.459l.829-.565a808.381 808.381 0 01-1.673-2.456l-.83.562zm3.353 4.906c.566.82 1.132 1.638 1.699 2.453l.824-.571a659.249 659.249 0 01-1.697-2.45l-.826.568zm3.406 4.892c.571.811 1.143 1.619 1.718 2.425l.816-.581a549.152 549.152 0 01-1.714-2.42l-.82.576zm3.457 4.846c.583.805 1.168 1.607 1.756 2.407l.808-.593c-.586-.797-1.17-1.597-1.751-2.4l-.813.586zm3.53 4.797c.595.795 1.193 1.587 1.796 2.376l.797-.607a319.36 319.36 0 01-1.79-2.369l-.803.6zm3.615 4.736c.611.783 1.225 1.564 1.845 2.341l.785-.623c-.617-.774-1.23-1.552-1.838-2.333l-.792.615zm3.713 4.66a228.53 228.53 0 001.896 2.297l.77-.641a226.683 226.683 0 01-1.888-2.288l-.778.632zm3.824 4.576c.645.753 1.296 1.502 1.953 2.248l.754-.66a227.383 227.383 0 01-1.945-2.239l-.762.651zm3.936 4.469c.667.736 1.341 1.47 2.021 2.2l.735-.682a205.942 205.942 0 01-2.012-2.189l-.744.671zm4.072 4.367a188.34 188.34 0 002.074 2.128l.714-.703a205.025 205.025 0 01-2.064-2.117l-.724.692zm4.193 4.234c.711.697 1.43 1.389 2.157 2.079l.692-.726a175.507 175.507 0 01-2.146-2.067l-.703.714zm4.324 4.099c.731.67 1.469 1.337 2.216 2l.667-.747c-.742-.66-1.477-1.322-2.203-1.989l-.68.736zm4.483 3.978c.745.64 1.499 1.276 2.262 1.908l.642-.769a184.3 184.3 0 01-2.25-1.897l-.654.758zm4.569 3.789c.777.623 1.564 1.243 2.36 1.859l.616-.79a178.81 178.81 0 01-2.347-1.848l-.629.779zm4.734 3.664c.786.588 1.582 1.173 2.386 1.753l.59-.809a171.254 171.254 0 01-2.374-1.744l-.602.8zm4.829 3.485c.823.574 1.655 1.144 2.498 1.71l.562-.829c-.838-.563-1.666-1.13-2.485-1.7l-.575.819zm4.95 3.329c.826.537 1.662 1.07 2.507 1.599l.536-.846a198.033 198.033 0 01-2.495-1.59l-.548.837zm5.072 3.178c.85.514 1.709 1.024 2.578 1.531l.508-.863a188.567 188.567 0 01-2.564-1.523l-.522.855zm5.133 2.996c.861.484 1.731.966 2.61 1.445l.483-.878a196.79 196.79 0 01-2.598-1.437l-.495.87zm5.278 2.87c.874.458 1.757.914 2.649 1.366l.456-.891a215.87 215.87 0 01-2.636-1.359l-.469.884zm5.285 2.679c.888.435 1.786.866 2.692 1.295l.432-.903a208.77 208.77 0 01-2.679-1.289l-.445.897zm5.439 2.571c.463.211.928.421 1.395.631l.414-.911c-.465-.209-.928-.418-1.389-.628l-.42.908zm1.394.631c.465.209.93.417 1.395.622l.409-.913c-.463-.205-.925-.411-1.388-.62l-.416.911zm4.18 1.827c.927.393 1.854.777 2.779 1.152l.381-.925c-.921-.373-1.842-.755-2.765-1.146l-.395.919zm5.552 2.252c.923.358 1.846.707 2.767 1.048l.351-.937c-.916-.339-1.833-.686-2.752-1.042l-.366.931zm5.527 2.044c.957.337 1.913.665 2.868.984l.322-.947c-.95-.317-1.901-.643-2.853-.979l-.337.942zm5.74 1.917c.956.301 1.911.594 2.864.878l.29-.957c-.948-.282-1.898-.573-2.848-.874l-.306.953zm5.721 1.702c.951.266 1.901.523 2.849.771l.258-.966c-.943-.247-1.887-.502-2.833-.766l-.274.961zm5.754 1.505c.982.239 1.963.469 2.942.69l.225-.974c-.974-.22-1.949-.448-2.926-.686l-.241.97zm5.876 1.325c.977.202 1.952.395 2.925.579l.191-.981c-.968-.183-1.937-.375-2.908-.576l-.208.978zm5.842 1.105c.983.168 1.966.328 2.946.478l.157-.987c-.975-.15-1.952-.308-2.93-.476l-.173.985zm5.936.909c.994.134 1.987.259 2.979.375l.121-.992c-.986-.115-1.973-.239-2.962-.373l-.138.99zm5.948.696c.988.098 1.974.187 2.958.267l.086-.996c-.979-.079-1.959-.168-2.941-.265l-.103.994zm5.94.482c1.005.064 2.008.118 3.01.164l.05-.998a168.65 168.65 0 01-2.993-.162l-.067.996zm6.009.273c.998.028 1.994.046 2.988.056l.014-.999c-.988-.009-1.978-.028-2.97-.055l-.032.998zm5.963.059c1.001-.008 2-.025 2.997-.05l-.021-.998c-.991.025-1.984.041-2.979.049l.003.999zm6.004-.153c1.001-.043 1.999-.095 2.995-.156l-.057-.996c-.99.06-1.982.111-2.977.154l.039.998zm5.977-.362a181.66 181.66 0 002.968-.258l-.091-.994c-.982.094-1.965.179-2.951.256l.074.996zm5.957-.569c.996-.112 1.99-.233 2.982-.362l-.126-.99c-.986.128-1.974.248-2.965.36l.109.992zm5.95-.773c.987-.146 1.972-.299 2.954-.46l-.159-.986c-.976.161-1.956.313-2.937.458l.142.988zm5.897-.968c.987-.179 1.971-.366 2.953-.56l-.191-.98c-.977.194-1.956.379-2.937.557l.175.983zm5.892-1.167c.976-.21 1.951-.427 2.923-.652l-.223-.973c-.967.224-1.936.44-2.907.649l.207.976zm5.831-1.35c.969-.241 1.936-.489 2.901-.744l-.253-.965c-.96.254-1.922.501-2.886.74l.238.969zm5.797-1.534c.962-.271 1.922-.549 2.88-.833l-.283-.957c-.952.283-1.907.56-2.865.829l.268.961zm5.743-1.708c.952-.299 1.901-.604 2.848-.916l-.311-.948c-.942.31-1.886.614-2.833.911l.296.953zm5.69-1.876c.945-.327 1.888-.661 2.827-1.001l-.338-.938c-.935.338-1.873.67-2.814.995l.325.944zm5.638-2.04c.934-.353 1.865-.712 2.793-1.077l-.364-.928c-.924.363-1.851.72-2.78 1.071l.351.934zm5.571-2.191c.927-.379 1.85-.764 2.77-1.155l-.389-.918c-.916.389-1.835.772-2.757 1.149l.376.924zm5.522-2.344c.914-.403 1.825-.811 2.733-1.224l-.412-.908c-.905.411-1.812.818-2.722 1.218l.401.914zm5.449-2.481c.904-.426 1.806-.857 2.704-1.294l-.436-.897c-.894.434-1.792.864-2.693 1.288l.425.903zm5.394-2.621c.894-.448 1.784-.901 2.671-1.358l-.457-.887c-.884.456-1.771.907-2.661 1.353l.447.892zm5.323-2.746c.88-.468 1.758-.941 2.632-1.418l-.478-.875c-.871.475-1.745.946-2.622 1.411l.468.882zm5.26-2.871c.873-.489 1.742-.983 2.608-1.481l-.498-.865c-.863.497-1.729.988-2.598 1.476l.488.87zm5.195-2.988c.859-.507 1.714-1.018 2.566-1.532l-.516-.854c-.849.513-1.701 1.022-2.557 1.527l.507.859zm5.122-3.096c.852-.527 1.701-1.058 2.546-1.593l-.535-.842c-.842.533-1.687 1.062-2.536 1.587l.525.848zm5.069-3.209c.838-.542 1.671-1.088 2.502-1.637l-.552-.832c-.827.548-1.658 1.092-2.493 1.632l.543.837zm4.981-3.296c.832-.562 1.661-1.128 2.485-1.696l-.567-.821c-.822.567-1.648 1.131-2.477 1.691l.559.826zm4.946-3.412c.817-.575 1.63-1.153 2.439-1.734l-.583-.81c-.806.579-1.617 1.156-2.431 1.729l.575.815zm4.854-3.485c.808-.591 1.611-1.185 2.411-1.781l-.598-.799c-.797.594-1.598 1.186-2.403 1.776l.59.804zm4.813-3.59c.796-.605 1.589-1.212 2.377-1.822l-.612-.788c-.786.608-1.576 1.214-2.37 1.817l.605.793zm4.729-3.658c.783-.616 1.561-1.234 2.335-1.854l-.625-.778c-.772.618-1.548 1.235-2.328 1.849l.618.783zm4.68-3.748c.777-.634 1.55-1.269 2.318-1.905l-.638-.767c-.766.634-1.537 1.268-2.312 1.899l.632.773zm4.61-3.819c.76-.64 1.515-1.281 2.265-1.923l-.65-.757c-.749.641-1.502 1.28-2.259 1.918l.644.762zm4.548-3.891c.759-.66 1.512-1.32 2.262-1.982l-.662-.746c-.748.659-1.5 1.318-2.256 1.976l.656.752zm4.494-3.968a394.86 394.86 0 002.204-1.99l-.673-.736c-.728.662-1.461 1.324-2.198 1.985l.667.741zm4.419-4.02c.741-.684 1.476-1.368 2.207-2.053l-.684-.726c-.729.682-1.462 1.365-2.201 2.047l.678.732zm4.381-4.105c.72-.684 1.434-1.368 2.143-2.051l-.694-.717a422.2 422.2 0 01-2.138 2.046l.689.722zm4.296-4.141a434.29 434.29 0 002.151-2.118l-.704-.707a431.92 431.92 0 01-2.147 2.113l.7.712zm4.267-4.23c.7-.703 1.393-1.405 2.081-2.105l-.715-.697c-.685.699-1.377 1.399-2.075 2.1l.709.702zm4.18-4.257c.704-.728 1.402-1.453 2.094-2.177l-.723-.687c-.69.722-1.387 1.446-2.09 2.172l.719.692zm4.149-4.34c.678-.719 1.349-1.435 2.014-2.149l-.732-.678c-.664.712-1.334 1.427-2.01 2.144l.728.683zm4.074-4.375c.685-.745 1.362-1.487 2.032-2.225l-.741-.669a388.05 388.05 0 01-2.028 2.22l.737.674zm4.018-4.428c.665-.742 1.322-1.48 1.971-2.213l-.75-.659c-.647.732-1.303 1.468-1.966 2.208l.745.664zm3.982-4.501c.662-.758 1.315-1.51 1.959-2.257l-.758-.649c-.643.745-1.294 1.496-1.955 2.252l.754.654zm3.864-4.48a444.63 444.63 0 001.972-2.33l-.766-.64c-.646.768-1.302 1.543-1.968 2.325l.762.645zm3.9-4.637c.632-.762 1.254-1.515 1.864-2.26l-.774-.63c-.609.743-1.229 1.495-1.86 2.255l.77.635zm3.784-4.616c.642-.793 1.271-1.576 1.887-2.347l-.782-.62c-.615.769-1.242 1.55-1.883 2.342l.778.625zm3.697-4.626c.647-.821 1.279-1.627 1.894-2.418l-.79-.61a467.8 467.8 0 01-1.89 2.413l.786.615zm3.718-4.777c.615-.8 1.211-1.583 1.79-2.346l-.798-.6a467.64 467.64 0 01-1.786 2.341l.794.605zm3.629-4.791c.593-.794 1.164-1.564 1.712-2.308l-.807-.589c-.546.742-1.116 1.51-1.707 2.303l.802.594zm3.552-4.826c.597-.824 1.16-1.608 1.69-2.35l-.815-.577c-.528.74-1.09 1.522-1.686 2.344l.811.583zm3.463-4.855c.651-.928 1.227-1.76 1.729-2.488l-.825-.563c-.5.726-1.075 1.555-1.724 2.481l.82.57zm3.413-4.959l.558-.825.138-.199.017-.024.006-.008-.004.006-.018.02c-.006.005-.031.032-.069.059-.018.012-.065.044-.133.066a.505.505 0 01-.419-.051l.533-.848a.503.503 0 00-.554.016c-.041.028-.068.056-.076.064a.647.647 0 00-.043.05c-.018.022-.036.048-.054.072l-.151.217-.561.829.83.556zm.767-1.117l.819-1.311-.85-.524c-.271.436-.544.872-.818 1.308l.849.527zm2.44-3.928c.537-.871 1.07-1.742 1.599-2.611l-.856-.516c-.528.868-1.06 1.737-1.595 2.607l.852.52zm3.174-5.215c.521-.868 1.039-1.734 1.553-2.599l-.861-.506a610.82 610.82 0 01-1.55 2.594l.858.511zm3.083-5.19c.506-.863 1.009-1.725 1.507-2.585l-.866-.497c-.498.859-.999 1.719-1.505 2.58l.864.502zm2.992-5.164c.492-.859.979-1.716 1.463-2.573l-.872-.487c-.483.855-.97 1.71-1.46 2.567l.869.493zm2.903-5.139c.495-.889.987-1.777 1.474-2.663l-.877-.478c-.487.885-.977 1.771-1.472 2.659l.875.482zm2.947-5.36c.486-.898.969-1.794 1.447-2.689l-.883-.467c-.478.893-.959 1.788-1.445 2.684l.881.472zm2.87-5.372c.47-.893.936-1.784 1.398-2.675l-.889-.456c-.461.889-.926 1.779-1.395 2.67l.886.461zm2.771-5.343c.453-.888.903-1.775 1.348-2.661l-.894-.445a511.32 511.32 0 01-1.346 2.656l.892.45zm2.672-5.315c.438-.883.871-1.766 1.3-2.647l-.9-.433c-.429.879-.861 1.76-1.297 2.641l.897.439zm2.607-5.353c.444-.927.884-1.853 1.319-2.777l-.907-.421c-.434.922-.872 1.846-1.315 2.771l.903.427zm2.61-5.546c.426-.922.847-1.842 1.264-2.761l-.912-.409c-.416.917-.836 1.835-1.261 2.755l.909.415zm2.502-5.514c.408-.917.811-1.832 1.211-2.746l-.918-.395c-.398.911-.801 1.824-1.208 2.738l.915.403zm2.395-5.483c.39-.911.776-1.821 1.157-2.73l-.923-.382c-.381.906-.766 1.814-1.155 2.723l.921.389zm2.288-5.451c.386-.939.767-1.876 1.144-2.812l-.929-.369c-.376.934-.756 1.869-1.141 2.805l.926.376zm2.277-5.661c.373-.948.741-1.895 1.104-2.84l-.934-.354c-.363.943-.73 1.887-1.102 2.833l.932.361zm2.18-5.671c.353-.942.702-1.883 1.046-2.822l-.941-.339c-.343.936-.691 1.875-1.043 2.814l.938.347zm2.063-5.636c.334-.936.663-1.871.988-2.805l-.946-.323c-.324.93-.652 1.863-.986 2.797l.944.331zm1.947-5.601c.321-.947.637-1.892.947-2.836l-.951-.308c-.31.941-.624 1.884-.944 2.828l.948.316zm1.894-5.754c.31-.971.615-1.94.915-2.908l-.957-.291c-.299.965-.603 1.931-.912 2.899l.954.3zm1.798-5.807c.29-.964.574-1.927.853-2.888l-.962-.274c-.278.958-.561 1.918-.85 2.88l.959.282zm1.674-5.768c.268-.958.532-1.914.79-2.869l-.967-.256c-.257.952-.52 1.905-.787 2.86l.964.265zm1.549-5.729c.253-.97.501-1.938.743-2.905l-.972-.238c-.241.963-.488 1.929-.74 2.896l.969.247zm1.472-5.877c.237-.99.469-1.977.695-2.962l-.976-.219a284.62 284.62 0 01-.693 2.952l.974.229zm1.357-5.914c.215-.981.425-1.962.629-2.94l-.981-.2c-.203.976-.412 1.953-.626 2.931l.978.209zm1.224-5.87c.193-.975.381-1.948.563-2.919l-.985-.18c-.181.968-.368 1.938-.56 2.909l.982.19zm1.092-5.828c.177-1.002.348-2.002.514-3l-.988-.159c-.165.995-.336 1.991-.512 2.99l.986.169zm.995-6.009c.155-1 .303-1.999.446-2.996l-.991-.138c-.142.994-.291 1.989-.445 2.986l.99.148zm.857-5.982c.131-.993.256-1.984.376-2.974l-.994-.115c-.119.986-.244 1.973-.375 2.963l.993.126zm.716-5.936c.108-.985.21-1.969.306-2.95l-.996-.093c-.096.977-.198 1.957-.305 2.939l.995.104zm.583-5.95c.087-1.014.168-2.025.243-3.035l-.998-.069a263.2 263.2 0 01-.243 3.022l.998.082zm.45-6.057c.063-1.005.119-2.008.17-3.009l-1-.046c-.051.997-.107 1.996-.169 2.997l.999.058zm.303-6.006c.038-.997.07-1.992.096-2.985l-1.001-.022c-.026.989-.058 1.98-.096 2.973l1.001.034zm.156-5.957c.014-1.006.022-2.009.024-3.009l-1.001.002c-.002.997-.01 1.996-.024 2.997l1.001.01zm.01-6.046c-.011-1.01-.028-2.018-.052-3.023l-1.001.027c.023 1.002.041 2.005.052 3.011l1.001-.015zm-.142-6.034c-.037-1.001-.08-2-.129-2.997l-1 .053c.049.993.092 1.988.128 2.985l1.001-.041zm-.295-5.981c-.061-.992-.129-1.982-.203-2.97l-.999.078c.074.984.142 1.97.203 2.958l.999-.066zm-.448-5.979a227.619 227.619 0 00-.286-3.013l-.996.105c.101.997.196 1.997.284 3l.998-.092zm-.611-6.012c-.115-.998-.236-1.993-.363-2.986l-.993.131c.127.989.247 1.98.361 2.973l.995-.118zm-.765-5.957c-.14-.988-.287-1.974-.44-2.958l-.99.157c.153.98.299 1.961.439 2.945l.991-.144zm-.919-5.906c-.169-.995-.344-1.987-.525-2.978l-.985.184c.181.986.355 1.974.523 2.965l.987-.171zm-1.089-5.941c-.195-.985-.396-1.969-.603-2.949l-.98.21c.207.976.407 1.955.6 2.936l.983-.197zm-1.245-5.884c-.22-.976-.447-1.949-.68-2.921l-.974.237c.232.966.458 1.936.677 2.907l.977-.223zm-1.398-5.827c-.247-.971-.501-1.94-.761-2.906l-.967.263c.259.961.511 1.926.757 2.893l.971-.25zm-1.563-5.81c-.274-.965-.554-1.928-.84-2.889l-.96.288c.285.957.564 1.916.837 2.877l.963-.276zm-1.719-5.764c-.299-.955-.605-1.909-.917-2.86l-.952.315c.311.946.615 1.895.913 2.847l.956-.302zm-1.872-5.705c-.324-.946-.655-1.89-.992-2.831l-.943.339c.335.937.665 1.877.988 2.819l.947-.327zm-2.024-5.654a238.17 238.17 0 00-1.07-2.808l-.934.364c.361.93.716 1.862 1.065 2.796l.939-.352zm-2.177-5.601c-.376-.929-.757-1.855-1.145-2.779l-.923.389c.385.92.765 1.842 1.139 2.766l.929-.376zm-2.326-5.543c-.399-.919-.805-1.835-1.217-2.749l-.914.413c.41.91.815 1.822 1.213 2.737l.918-.401zm-2.469-5.477c-.422-.906-.851-1.809-1.285-2.71l-.903.436c.433.897.86 1.796 1.28 2.698l.908-.424zm-2.606-5.404c-.447-.896-.899-1.789-1.357-2.68l-.891.458c.456.888.906 1.777 1.351 2.669l.897-.447zm-2.749-5.346c-.47-.886-.946-1.769-1.428-2.651l-.879.481c.479.878.953 1.758 1.421 2.64l.886-.47zm-2.889-5.285c-.489-.868-.983-1.734-1.483-2.597l-.868.502c.498.86.99 1.722 1.477 2.587l.874-.492zm-3.001-5.18a243.123 243.123 0 00-1.551-2.568l-.855.523c.521.85 1.036 1.703 1.545 2.558l.861-.513zm-3.136-5.122a236.053 236.053 0 00-1.618-2.54l-.842.543c.542.841 1.08 1.684 1.612 2.53l.848-.533zm-3.269-5.066c-.552-.833-1.11-1.664-1.673-2.492l-.829.562c.56.825 1.116 1.653 1.665 2.483l.837-.553zm-3.366-4.954a240.058 240.058 0 00-1.724-2.448l-.817.581c.578.81 1.151 1.623 1.718 2.438l.823-.571zm-3.481-4.883a273.995 273.995 0 00-1.788-2.42l-.804.599a272.04 272.04 0 011.782 2.411l.81-.59zm-3.607-4.826c-.612-.8-1.229-1.598-1.851-2.393l-.79.616c.619.793 1.234 1.587 1.844 2.384l.797-.607zm-3.703-4.735a312.494 312.494 0 00-1.877-2.323l-.778.633a270.44 270.44 0 011.871 2.315l.784-.625zm-3.785-4.633c-.64-.767-1.286-1.533-1.936-2.296l-.764.649c.648.76 1.291 1.523 1.93 2.288l.77-.641zm-3.902-4.579a323.53 323.53 0 00-1.994-2.269l-.751.664c.667.751 1.33 1.505 1.988 2.262l.757-.657zm-4.014-4.521a293.154 293.154 0 00-2.01-2.196l-.737.678c.672.728 1.34 1.458 2.003 2.19l.744-.672zm-4.047-4.38a300.08 300.08 0 00-2.064-2.171l-.725.692c.691.719 1.377 1.441 2.058 2.164l.731-.685zm-4.156-4.329a285.094 285.094 0 00-2.118-2.146l-.712.706c.709.711 1.413 1.423 2.112 2.139l.718-.699zm-4.263-4.278c-.717-.706-1.438-1.41-2.163-2.111l-.698.718c.723.7 1.441 1.401 2.156 2.105l.705-.712zm-4.311-4.17c-.72-.685-1.445-1.367-2.173-2.048l-.686.731a323.72 323.72 0 012.167 2.041l.692-.724zm-4.372-4.083a310.71 310.71 0 00-2.223-2.022l-.673.742c.743.67 1.482 1.342 2.217 2.017l.679-.737zm-4.47-4.033a368.435 368.435 0 00-2.273-1.998l-.661.753c.76.662 1.515 1.327 2.266 1.993l.668-.748zm-4.563-3.978a353.484 353.484 0 00-2.266-1.927l-.648.763c.757.639 1.51 1.28 2.259 1.922l.655-.758zm-4.554-3.842a365.51 365.51 0 00-2.311-1.903l-.636.773a394.4 394.4 0 012.305 1.899l.642-.769zm-4.645-3.795a373.121 373.121 0 00-2.356-1.88l-.624.783c.787.623 1.57 1.248 2.35 1.875l.63-.778zm-4.735-3.748c-.796-.621-1.596-1.24-2.401-1.857l-.612.793c.802.615 1.6 1.232 2.395 1.852l.618-.788zm-4.772-3.663a370.254 370.254 0 00-2.385-1.788l-.601.801c.797.593 1.59 1.187 2.379 1.784l.607-.797zm-4.79-3.566a408.156 408.156 0 00-2.426-1.766l-.589.809c.81.586 1.616 1.173 2.42 1.762l.595-.805zm-4.872-3.522a468.77 468.77 0 00-2.467-1.744l-.579.818a414.65 414.65 0 012.462 1.74l.584-.814zm-4.954-3.477c-.824-.57-1.651-1.138-2.481-1.704l-.567.826c.828.564 1.653 1.131 2.475 1.699l.573-.821zm-4.945-3.372a446.66 446.66 0 00-2.484-1.659l-.557.833c.83.55 1.656 1.101 2.478 1.654l.563-.828zm-4.986-3.306a454.782 454.782 0 00-2.521-1.637l-.546.839c.841.543 1.68 1.087 2.515 1.634l.552-.836zm-5.061-3.264c-.85-.54-1.702-1.079-2.558-1.616l-.536.846c.854.536 1.705 1.073 2.553 1.613l.541-.843zm-5.135-3.221a453.162 453.162 0 00-2.542-1.563l-.526.852c.849.518 1.695 1.038 2.538 1.56l.53-.849zm-5.091-3.109a526.755 526.755 0 00-2.565-1.536l-.515.859c.856.509 1.709 1.02 2.56 1.532l.52-.855zm-5.147-3.061c-.864-.507-1.73-1.012-2.6-1.516l-.505.864c.867.503 1.732 1.007 2.594 1.513l.511-.861zm-5.216-3.021c-.875-.501-1.752-.999-2.633-1.496l-.496.87c.879.496 1.755.993 2.628 1.493l.501-.867zm-5.282-2.981a497.9 497.9 0 00-2.602-1.44l-.486.875c.868.477 1.734.956 2.597 1.437l.491-.872zm-5.219-2.871c-.875-.475-1.753-.949-2.633-1.421l-.477.88c.879.472 1.755.944 2.628 1.419l.482-.878zm-5.281-2.832c-.885-.469-1.773-.936-2.664-1.402l-.468.885c.889.465 1.776.931 2.659 1.4l.473-.883zm-5.342-2.794c-.896-.462-1.794-.923-2.694-1.383l-.459.89c.899.458 1.795.919 2.689 1.38l.464-.887zm-5.403-2.756c-.885-.445-1.771-.889-2.66-1.332l-.45.894c.887.442 1.772.885 2.655 1.33l.455-.892zm-5.334-2.654c-.894-.44-1.79-.877-2.689-1.314l-.441.898c.897.436 1.791.873 2.684 1.312l.446-.896zm-5.391-2.618c-.903-.434-1.808-.865-2.716-1.296l-.433.903c.906.429 1.81.86 2.712 1.293l.437-.9zm-5.446-2.582c-.912-.427-1.826-.853-2.743-1.277l-.425.906c.916.424 1.829.849 2.74 1.275l.428-.904zm-5.5-2.545c-.905-.414-1.812-.826-2.721-1.236l-.416.91c.908.41 1.813.821 2.716 1.234l.421-.908zm-5.441-2.458c-.91-.406-1.821-.811-2.734-1.214l-.408.914c.912.402 1.821.806 2.729 1.211l.413-.911zm-5.48-2.418c-.918-.4-1.838-.799-2.759-1.196l-.401.917c.921.396 1.839.795 2.755 1.194l.405-.915zm-5.531-2.383c-.925-.395-1.853-.787-2.783-1.179l-.393.92c.929.391 1.855.784 2.78 1.177l.396-.918zm-5.579-2.349c-.926-.385-1.853-.768-2.783-1.15l-.385.923c.928.382 1.855.765 2.779 1.149l.389-.922zm-5.543-2.278a639.65 639.65 0 00-2.771-1.12l-.377.927c.924.371 1.847.744 2.767 1.118l.381-.925zm-5.553-2.231c-.929-.369-1.861-.737-2.794-1.103l-.37.93c.932.365 1.862.732 2.79 1.101l.374-.928zm-5.599-2.198c-.937-.363-1.875-.725-2.816-1.086l-.363.932c.94.361 1.877.722 2.813 1.085l.366-.931zm-5.643-2.164c-.945-.358-1.891-.714-2.839-1.069l-.355.935c.947.354 1.891.71 2.835 1.068l.359-.934zm-5.639-2.112a620.02 620.02 0 00-2.801-1.032l-.349.937c.935.343 1.867.686 2.798 1.031l.352-.936zm-5.613-2.056c-.939-.34-1.88-.679-2.823-1.016l-.341.94c.941.337 1.881.675 2.818 1.015l.346-.939zm-5.655-2.024c-.946-.334-1.894-.668-2.843-1l-.335.943c.948.332 1.895.664 2.839.999l.339-.942zm-5.696-1.991c-.952-.33-1.906-.658-2.862-.984l-.328.944c.954.327 1.907.654 2.859.983l.331-.943zm-5.729-1.958c-.941-.318-1.883-.635-2.827-.95l-.322.947c.943.315 1.884.631 2.824.949l.325-.946zm-5.664-1.892c-.947-.312-1.895-.624-2.845-.934l-.315.949c.949.31 1.896.621 2.842.933l.318-.948zm-5.7-1.86c-.954-.308-1.908-.614-2.864-.919l-.309.951c.955.305 1.909.611 2.861.918l.312-.95zm-5.738-1.83c-.959-.303-1.92-.604-2.882-.904l-.302.953c.961.3 1.921.601 2.879.903l.305-.952zm-5.773-1.8c-.962-.296-1.925-.591-2.89-.885l-.296.955c.964.294 1.926.589 2.887.885l.299-.955zm-5.747-1.75c-.954-.287-1.909-.572-2.865-.857l-.29.957c.955.284 1.909.57 2.862.857l.293-.957zm-5.738-1.707c-.96-.282-1.92-.563-2.882-.843l-.284.959c.961.28 1.921.56 2.879.842l.287-.958zm-5.772-1.678c-.965-.277-1.931-.553-2.898-.827l-.278.96c.967.274 1.932.55 2.895.827l.281-.96zm-5.804-1.648c-.97-.272-1.941-.543-2.914-.813l-.272.962c.972.27 1.942.541 2.911.813l.275-.962zm-5.831-1.617c-.959-.263-1.919-.525-2.881-.785l-.266.964c.961.26 1.92.521 2.878.784l.269-.963zm-5.77-1.563c-.964-.258-1.929-.515-2.896-.771l-.26.966c.965.255 1.93.512 2.893.77l.263-.965zm-5.799-1.534c-.969-.253-1.94-.506-2.911-.757l-.255.967c.971.251 1.94.503 2.908.756l.258-.966zm-5.829-1.506c-.974-.248-1.949-.496-2.926-.742l-.249.968c.975.246 1.95.493 2.923.742l.252-.968zm-5.858-1.477c-.979-.244-1.959-.486-2.94-.728l-.243.97c.98.241 1.959.484 2.936.727l.247-.969zm-5.847-1.439c-.968-.235-1.937-.469-2.908-.702l-.238.971c.969.233 1.938.467 2.905.702l.241-.971zm-5.823-1.398c-.973-.231-1.946-.46-2.921-.689l-.233.972 2.919.688.235-.971zm-5.849-1.371c-.977-.226-1.956-.451-2.935-.675l-.227.974c.978.223 1.955.448 2.931.674l.231-.973zm-5.876-1.343c-.981-.221-1.964-.442-2.947-.661l-.222.975c.982.219 1.964.439 2.944.66l.225-.974zm-5.901-1.315l-1.481-.325-.219.975 1.481.325.219-.975zm-1.591.163l-.311.95.046.015.047.01.218-.975zm27.344 642.52l.416-.91-.002-.001-.414.911zm299.845-135.706l-.533.848.849.528.532-.85-.848-.526zm-627.45-131.729l.637-.774-.637.774zm43.838 23.621l.384-.924-.384.924zm256.735-399.657c-.484-.156-.968-.309-1.452-.461l-.608 1.906c.479.15.958.302 1.437.456l.623-1.901zm-4.361-1.348c-.971-.288-1.942-.567-2.915-.839l-.548 1.923c.962.269 1.924.546 2.885.831l.578-1.915zm-5.835-1.632c-.975-.256-1.95-.505-2.926-.746l-.489 1.939c.967.239 1.932.485 2.896.738l.519-1.931zm-5.856-1.445c-.978-.226-1.957-.444-2.936-.654l-.429 1.953c.969.208 1.938.423 2.906.647l.459-1.946zm-5.901-1.267c-.993-.197-1.986-.387-2.98-.569l-.369 1.965c.984.18 1.967.368 2.95.563l.399-1.959zm-5.963-1.091a191.13 191.13 0 00-2.987-.477l-.31 1.975c.986.149 1.972.307 2.957.472l.34-1.97zm-5.978-.908a200.74 200.74 0 00-2.994-.386l-.25 1.982c.989.12 1.977.248 2.964.383l.28-1.979zm-5.99-.728c-1.005-.107-2.01-.206-3.015-.298l-.191 1.989c.995.091 1.99.189 2.985.295l.221-1.986zm-6.032-.552a204.136 204.136 0 00-3.02-.209l-.132 1.993c.997.062 1.993.131 2.99.208l.162-1.992zm-6.04-.375a217.975 217.975 0 00-3.022-.122l-.075 1.996c.998.034 1.996.074 2.993.121l.104-1.995zm-6.045-.201a203.256 203.256 0 00-3.024-.035l-.018 1.997c.999.005 1.997.017 2.995.035l.047-1.997zm-6.048-.029c-1.008.01-2.016.026-3.024.049l.038 1.997a213.8 213.8 0 012.996-.048l-.01-1.998zm-6.048.14c-1.008.037-2.016.082-3.024.133l.093 1.994c.999-.05 1.998-.094 2.996-.131l-.065-1.996zm-6.047.306c-1.007.065-2.015.136-3.022.215l.148 1.991a230.49 230.49 0 012.995-.213l-.121-1.993zm-6.034.469c-1.002.091-2.005.189-3.007.294l.201 1.986c.993-.103 1.986-.2 2.98-.291l-.174-1.989zm-6.012.627c-1.001.118-2.002.242-3.002.373l.252 1.98c.992-.129 1.984-.253 2.977-.369l-.227-1.984zm-6.002.784c-1 .144-1.999.294-2.998.45l.303 1.973c.99-.155 1.981-.304 2.972-.446l-.277-1.977zm-5.992.938c-.991.168-1.982.342-2.972.523l.352 1.964c.982-.178 1.965-.351 2.948-.518l-.328-1.969zm-5.939 1.082c-.989.193-1.977.392-2.964.596l.4 1.956c.979-.203 1.959-.401 2.94-.592l-.376-1.96zm-5.924 1.229c-.985.217-1.97.44-2.955.669l.447 1.945c.977-.227 1.954-.449 2.932-.664l-.424-1.95zm-5.905 1.373c-.981.24-1.961.486-2.94.738l.493 1.934c.972-.25 1.944-.494 2.917-.733l-.47-1.939zm-5.856 1.506c-.972.262-1.942.53-2.912.803l.538 1.922c.962-.271 1.925-.537 2.889-.797l-.515-1.928zm-5.817 1.64c-.968.284-1.934.574-2.899.87l.58 1.909c.958-.294 1.918-.582 2.878-.864l-.559-1.915zm-5.792 1.773c-.964.306-1.926.619-2.887.936l.623 1.896a298.59 298.59 0 012.865-.93l-.601-1.902zm-5.755 1.901c-.951.326-1.901.656-2.849.993l.664 1.881c.941-.333 1.884-.662 2.828-.985l-.643-1.889zm-5.69 2.017c-.946.346-1.891.698-2.834 1.055l.703 1.867c.937-.355 1.875-.704 2.814-1.048l-.683-1.874zm-5.66 2.14c-.941.367-1.88.74-2.818 1.117l.742 1.852c.932-.375 1.865-.744 2.799-1.109l-.723-1.86zm-5.627 2.263c-.931.386-1.86.776-2.788 1.171l.78 1.836c.922-.392 1.845-.78 2.769-1.163l-.761-1.844zm-5.558 2.367c-.922.404-1.842.812-2.761 1.226l.817 1.82c.912-.411 1.827-.816 2.743-1.217l-.799-1.829zm-5.513 2.479c-.916.423-1.83.85-2.742 1.282l.852 1.804c.907-.429 1.815-.854 2.725-1.274l-.835-1.812zm-5.475 2.592c-.909.441-1.816.887-2.722 1.337l.888 1.787c.9-.447 1.801-.89 2.705-1.329l-.871-1.795zm-5.421 2.696c-.897.456-1.791.917-2.684 1.382l.921 1.769c.888-.462 1.777-.92 2.667-1.373l-.904-1.778zm-5.357 2.791c-.889.473-1.777.952-2.662 1.434l.955 1.752c.88-.48 1.762-.955 2.645-1.426l-.938-1.76zm-5.313 2.895c-.881.491-1.761.986-2.639 1.485l.987 1.734c.873-.496 1.747-.989 2.623-1.477l-.971-1.742zm-5.266 2.996c-.871.506-1.739 1.016-2.606 1.531l1.019 1.715c.861-.511 1.725-1.018 2.59-1.521l-1.003-1.725zm-5.196 3.083c-.862.522-1.721 1.048-2.579 1.577l1.05 1.697a318.99 318.99 0 012.563-1.568l-1.034-1.706zm-5.144 3.178c-.853.537-1.704 1.078-2.552 1.624l1.079 1.677c.844-.542 1.69-1.08 2.538-1.614l-1.065-1.687zm-5.092 3.271c-.844.553-1.686 1.109-2.526 1.67l1.11 1.658c.834-.557 1.671-1.111 2.511-1.66l-1.095-1.668zm-5.032 3.359c-.833.566-1.664 1.136-2.492 1.71l1.138 1.639a319.32 319.32 0 012.477-1.701l-1.123-1.648zm-4.97 3.442c-.823.581-1.644 1.165-2.463 1.753l1.167 1.619c.813-.584 1.63-1.166 2.449-1.743l-1.153-1.629zm-4.911 3.528c-.814.595-1.625 1.194-2.434 1.796l1.194 1.599c.804-.599 1.611-1.194 2.42-1.786l-1.18-1.609zm-4.852 3.613c-.803.608-1.604 1.221-2.402 1.836l1.22 1.578c.794-.612 1.591-1.221 2.39-1.826l-1.208-1.588zm-4.789 3.693c-.793.622-1.584 1.248-2.371 1.877l1.247 1.557c.783-.625 1.569-1.247 2.358-1.866l-1.234-1.568zm-4.726 3.773c-.782.635-1.562 1.273-2.339 1.915l1.274 1.536c.773-.638 1.548-1.273 2.326-1.905l-1.261-1.546zm-4.66 3.849c-.771.648-1.54 1.299-2.305 1.953l1.299 1.515c.761-.651 1.525-1.298 2.292-1.942l-1.286-1.526zm-4.597 3.929a308.98 308.98 0 00-2.276 1.994l1.324 1.493c.752-.665 1.506-1.326 2.264-1.984l-1.312-1.503zm-4.535 4.007c-.749.673-1.496 1.35-2.24 2.03l1.35 1.47c.739-.676 1.482-1.349 2.228-2.019l-1.338-1.481zm-4.462 4.077c-.737.685-1.472 1.373-2.203 2.064l1.374 1.448a326.27 326.27 0 012.191-2.053l-1.362-1.459zm-4.388 4.145c-.728.7-1.453 1.402-2.175 2.107l1.399 1.424c.717-.701 1.438-1.399 2.162-2.095l-1.386-1.436zm-4.332 4.232c-.716.711-1.429 1.425-2.138 2.141l1.422 1.401a355.73 355.73 0 012.126-2.13l-1.41-1.412zm-4.256 4.298c-.703.722-1.402 1.446-2.098 2.172l1.446 1.377c.691-.723 1.387-1.443 2.086-2.16l-1.434-1.389zm-4.175 4.36c-.689.731-1.375 1.466-2.057 2.202l1.469 1.352a324.9 324.9 0 012.045-2.19l-1.457-1.364zm-4.107 4.435c-.68.748-1.357 1.498-2.03 2.25l1.492 1.326a351.19 351.19 0 012.019-2.237l-1.481-1.339zm-4.039 4.514a326.81 326.81 0 00-1.986 2.278l1.514 1.3c.655-.757 1.313-1.512 1.975-2.264l-1.503-1.314zm-3.95 4.569c-.651.766-1.298 1.535-1.942 2.305l1.537 1.274c.64-.766 1.283-1.53 1.93-2.291l-1.525-1.288zm-3.86 4.623c-.643.783-1.281 1.569-1.916 2.356l1.559 1.247c.631-.783 1.266-1.564 1.905-2.342l-1.548-1.261zm-3.808 4.726a300.27 300.27 0 00-1.868 2.381l1.581 1.22c.615-.791 1.234-1.581 1.857-2.368l-1.57-1.233zm-3.712 4.775c-.61.8-1.216 1.602-1.818 2.406l1.603 1.191c.598-.799 1.201-1.596 1.807-2.391l-1.592-1.206zm-3.611 4.823c-.595.809-1.186 1.621-1.773 2.434l1.625 1.162c.583-.809 1.17-1.615 1.761-2.42l-1.613-1.176zm-3.539 4.907c-.585.827-1.165 1.655-1.74 2.485l1.645 1.131c.572-.824 1.149-1.648 1.73-2.469l-1.635-1.147zm-3.453 4.98c-.567.833-1.129 1.668-1.686 2.504l1.667 1.101c.554-.831 1.112-1.661 1.675-2.489l-1.656-1.116zm-3.344 5.019c-.548.84-1.092 1.681-1.63 2.524l1.687 1.069a334.24 334.24 0 011.62-2.508l-1.677-1.085zm-3.245 5.078c-.538.86-1.071 1.722-1.6 2.585l1.709 1.035c.525-.857 1.054-1.714 1.589-2.568l-1.698-1.052zm-3.17 5.179c-.518.866-1.032 1.734-1.54 2.603l1.729 1.001c.505-.863 1.015-1.725 1.53-2.585l-1.719-1.019zm-3.05 5.214c-.498.871-.991 1.744-1.479 2.618l1.749.966c.485-.868.975-1.735 1.469-2.601l-1.739-.983zm-2.927 5.244c-.485.891-.965 1.783-1.44 2.677l1.769.929c.471-.887.948-1.773 1.43-2.658l-1.759-.948zm-2.852 5.368c-.465.899-.924 1.798-1.378 2.698l1.788.891c.451-.893.907-1.786 1.369-2.678l-1.779-.911zm-2.723 5.402c-.443.903-.88 1.806-1.311 2.71l1.808.852c.428-.897.862-1.794 1.301-2.69l-1.798-.872zm-2.588 5.426c-.424.913-.841 1.828-1.253 2.743l1.827.811c.408-.908.823-1.816 1.243-2.722l-1.817-.832zm-2.486 5.527c-.405.929-.804 1.859-1.197 2.789l1.846.769c.389-.924.785-1.846 1.187-2.768l-1.836-.79zm-2.356 5.582c-.381.932-.755 1.864-1.123 2.797l1.864.724c.365-.925.736-1.85 1.113-2.774l-1.854-.747zm-2.207 5.597c-.356.935-.705 1.871-1.048 2.807l1.88.678c.341-.928.687-1.856 1.04-2.783l-1.872-.702zm-2.079 5.677c-.337.957-.667 1.915-.991 2.873l1.898.63c.321-.95.648-1.899.982-2.848l-1.889-.655zm-1.94 5.748c-.31.958-.613 1.917-.909 2.876l1.914.58c.293-.95.593-1.901.901-2.851l-1.906-.605zm-1.776 5.753c-.282.959-.557 1.919-.825 2.878l1.929.529c.266-.951.538-1.902.818-2.852l-1.922-.555zm-1.622 5.814c-.26.982-.512 1.963-.756 2.945l1.944.474c.242-.973.491-1.945.748-2.918l-1.936-.501zm-1.467 5.89c-.229.981-.451 1.962-.665 2.943l1.957.417c.212-.971.432-1.943.659-2.915l-1.951-.445zm-1.284 5.885c-.198.981-.389 1.961-.573 2.941l1.969.358c.181-.97.37-1.94.567-2.911l-1.963-.388zm-1.108 5.931c-.171 1-.333 2.001-.488 3l1.979.296c.153-.989.314-1.978.484-2.969l-1.975-.327zm-.926 5.997c-.138.999-.268 1.996-.389 2.993l1.988.232c.12-.986.248-1.973.385-2.96l-1.984-.265zm-.727 5.982c-.104.996-.2 1.99-.287 2.984l1.995.166c.086-.983.181-1.966.284-2.951l-1.992-.199zm-.526 6.013a172.862 172.862 0 00-.186 3.031l2 .096c.052-.997.114-1.996.184-2.995l-1.998-.132zm-.317 6.055a160.496 160.496 0 00-.077 3.017l2.002.024c.016-.992.042-1.986.076-2.981l-2.001-.06zm-.099 6.026c.002 1.003.014 2.005.034 3.005l2.003-.05c-.021-.988-.032-1.977-.034-2.967l-2.003.012zm.126 6.041c.041 1.01.091 2.019.151 3.027l1.999-.127c-.059-.994-.109-1.99-.149-2.988l-2.001.088zm.36 6.044c.079 1.004.169 2.006.268 3.006l1.993-.205a153.41 153.41 0 01-.265-2.967l-1.996.166zm.596 6.002c.12.999.249 1.996.389 2.991l1.984-.285c-.138-.982-.266-1.966-.384-2.951l-1.989.245zm.842 5.984c.161.996.332 1.989.514 2.981l1.97-.368a144.22 144.22 0 01-.507-2.939l-1.977.326zm1.091 5.948c.203.987.416 1.971.64 2.953l1.953-.451a137.03 137.03 0 01-.631-2.911l-1.962.409zm1.343 5.892c.245.975.5 1.948.766 2.918l1.932-.534c-.262-.956-.514-1.915-.755-2.877l-1.943.493zm1.596 5.819c.287.964.585 1.926.894 2.885l1.907-.618a131.28 131.28 0 01-.881-2.843l-1.92.576zm1.853 5.752c.33.954.672 1.904 1.024 2.851l1.878-.702c-.347-.933-.684-1.869-1.009-2.808l-1.893.659zm2.115 5.684c.369.928.75 1.854 1.141 2.776l1.845-.784c-.386-.909-.76-1.821-1.124-2.736l-1.862.744zm2.346 5.532c.412.916.836 1.828 1.27 2.738l1.809-.866c-.428-.896-.845-1.794-1.252-2.697l-1.827.825zm2.607 5.455c.456.903.924 1.802 1.402 2.698l1.769-.945c-.472-.883-.933-1.769-1.382-2.658l-1.789.905zm2.865 5.363c.488.865.986 1.726 1.494 2.585l1.725-1.022c-.501-.846-.992-1.695-1.472-2.547l-1.747.984zm3.052 5.148c.53.852 1.071 1.699 1.622 2.543l1.68-1.095a132.026 132.026 0 01-1.599-2.506l-1.703 1.058zm3.309 5.065c.574.837 1.158 1.67 1.753 2.5l1.63-1.167a136.976 136.976 0 01-1.727-2.464l-1.656 1.131zm3.554 4.955c.592.789 1.194 1.575 1.807 2.357l1.58-1.234a142.017 142.017 0 01-1.782-2.324l-1.605 1.201zm3.675 4.692c.632.775 1.275 1.546 1.929 2.313l1.529-1.296a153.344 153.344 0 01-1.904-2.282l-1.554 1.265zm3.92 4.604c.674.76 1.358 1.516 2.053 2.268l1.476-1.357a145.171 145.171 0 01-2.027-2.238l-1.502 1.327zm4.166 4.509c.678.706 1.366 1.408 2.064 2.106l1.422-1.412c-.689-.69-1.368-1.383-2.038-2.08l-1.448 1.386zm4.185 4.191c.716.692 1.442 1.379 2.178 2.063l1.369-1.464a155.097 155.097 0 01-2.152-2.037l-1.395 1.438zm4.413 4.103c.755.677 1.52 1.349 2.294 2.018l1.315-1.512a163.752 163.752 0 01-2.267-1.994l-1.342 1.488zm4.645 4.013c.397.33.796.66 1.198.989l1.274-1.547a198.67 198.67 0 01-1.184-.977l-1.288 1.535zm1.198.989c.407.333.817.662 1.23.988l1.247-1.567a99.828 99.828 0 01-1.203-.968l-1.274 1.547zm3.737 2.903c.847.624 1.702 1.235 2.566 1.832l1.146-1.643a98.964 98.964 0 01-2.516-1.797l-1.196 1.608zm5.184 3.587c.881.572 1.769 1.132 2.664 1.68l1.053-1.703c-.88-.539-1.754-1.09-2.619-1.652l-1.098 1.675zm5.369 3.291c.908.525 1.821 1.04 2.741 1.545l.972-1.75a139.824 139.824 0 01-2.702-1.523l-1.011 1.728zm5.512 3.031c.928.486 1.861.962 2.798 1.431l.904-1.786a179.63 179.63 0 01-2.766-1.414l-.936 1.769zm5.619 2.812c.944.453 1.891.899 2.84 1.338l.849-1.813c-.942-.435-1.88-.877-2.814-1.325l-.875 1.8zm5.696 2.636c.955.427 1.912.849 2.87 1.266l.807-1.832c-.953-.414-1.903-.833-2.85-1.257l-.827 1.823zm5.749 2.503c.962.409 1.924.814 2.886 1.215l.78-1.842c-.959-.401-1.917-.804-2.875-1.211l-.791 1.838zm5.778 2.414l1.447.595.768-1.848-1.444-.593-.771 1.846zm1.447.595l1.415.582.773-1.845-1.42-.585-.768 1.848zm4.222 1.75c.931.389 1.856.779 2.776 1.17l.791-1.838c-.923-.392-1.851-.783-2.785-1.174l-.782 1.842zm5.52 2.343c.91.392 1.814.783 2.714 1.176l.809-1.83c-.903-.394-1.81-.788-2.723-1.18l-.8 1.834zm5.396 2.355c.89.393 1.774.787 2.653 1.181l.827-1.822c-.882-.396-1.769-.791-2.661-1.186l-.819 1.827zm5.406 2.425c.923.42 1.841.84 2.752 1.261l.848-1.813c-.915-.423-1.836-.845-2.762-1.266l-.838 1.818zm5.471 2.525c.901.422 1.796.845 2.686 1.268l.868-1.804c-.894-.425-1.792-.849-2.696-1.272l-.858 1.808zm5.339 2.538c.878.423 1.752.848 2.62 1.272l.888-1.794c-.872-.426-1.748-.852-2.631-1.277l-.877 1.799zm5.287 2.587c.91.452 1.814.905 2.712 1.357l.91-1.783c-.902-.454-1.81-.909-2.723-1.362l-.899 1.788zm5.388 2.718c.886.453 1.766.908 2.641 1.363l.932-1.772c-.879-.457-1.762-.913-2.652-1.369l-.921 1.778zm5.246 2.728c.863.456 1.72.912 2.571 1.369l.955-1.76c-.855-.459-1.716-.917-2.583-1.374l-.943 1.765zm5.194 2.787c.891.485 1.775.971 2.653 1.457l.977-1.747c-.881-.488-1.769-.976-2.664-1.464l-.966 1.754zm5.267 2.917c.865.487 1.724.975 2.577 1.463l1.002-1.734c-.857-.49-1.72-.98-2.589-1.469l-.99 1.74zm5.117 2.928c.841.489 1.675.978 2.504 1.468l1.026-1.719a381.22 381.22 0 00-2.516-1.475l-1.014 1.726zm5.111 3.022c.864.52 1.722 1.04 2.572 1.56l1.053-1.703a401.388 401.388 0 00-2.586-1.568l-1.039 1.711zm5.105 3.123a372.54 372.54 0 012.494 1.565l1.078-1.688a376.436 376.436 0 00-2.507-1.573l-1.065 1.696zm4.949 3.132c.844.543 1.68 1.087 2.511 1.631l1.104-1.671a395.949 395.949 0 00-2.524-1.639l-1.091 1.679zm5.023 3.293c.831.554 1.655 1.108 2.472 1.663l1.132-1.652a369.78 369.78 0 00-2.485-1.673l-1.119 1.662zm4.903 3.33c.803.555 1.6 1.112 2.391 1.668l1.159-1.633c-.795-.56-1.596-1.119-2.405-1.678l-1.145 1.643zm4.829 3.401c.819.587 1.631 1.175 2.436 1.763l1.188-1.613c-.81-.591-1.627-1.183-2.451-1.774l-1.173 1.624zm4.829 3.529c.791.588 1.575 1.177 2.352 1.767l1.216-1.592c-.781-.593-1.57-1.185-2.366-1.778l-1.202 1.603zm4.662 3.536c.801.619 1.594 1.238 2.38 1.857l1.245-1.569c-.79-.623-1.588-1.246-2.394-1.869l-1.231 1.581zm4.723 3.721c.773.621 1.54 1.243 2.299 1.865l1.275-1.546a335.535 335.535 0 00-2.314-1.877l-1.26 1.558zm4.557 3.732c.761.635 1.515 1.271 2.262 1.907l1.303-1.522c-.751-.64-1.51-1.28-2.276-1.919l-1.289 1.534zm4.541 3.866c.752.653 1.497 1.307 2.235 1.96l1.333-1.495a301.885 301.885 0 00-2.25-1.974l-1.318 1.509zm4.428 3.922c.728.658 1.449 1.315 2.163 1.973l1.362-1.469a284.763 284.763 0 00-2.178-1.987l-1.347 1.483zm4.367 4.024c.727.684 1.447 1.367 2.16 2.051l1.391-1.442a271.26 271.26 0 00-2.175-2.065l-1.376 1.456zm4.278 4.103c.699.684 1.392 1.368 2.077 2.052l1.42-1.415a315.456 315.456 0 00-2.092-2.066l-1.405 1.429zm4.197 4.188c.699.712 1.392 1.424 2.077 2.136l1.447-1.387c-.69-.716-1.387-1.433-2.091-2.15l-1.433 1.401zm4.113 4.271c.673.713 1.34 1.426 2 2.139l1.474-1.359a358.286 358.286 0 00-2.013-2.153l-1.461 1.373zm4.03 4.352c.67.738 1.333 1.475 1.989 2.212l1.5-1.329a309.19 309.19 0 00-2.002-2.227l-1.487 1.344zm3.94 4.423c.649.743 1.291 1.485 1.928 2.227l1.524-1.301c-.64-.747-1.287-1.494-1.94-2.242l-1.512 1.316zm3.867 4.509c.64.761 1.274 1.521 1.901 2.28l1.548-1.274a346.8 346.8 0 00-1.913-2.294l-1.536 1.288zm3.767 4.557a343 343 0 011.862 2.313l1.569-1.248a374.39 374.39 0 00-1.873-2.326l-1.558 1.261zm3.714 4.653c.611.779 1.217 1.558 1.818 2.336l1.589-1.223a365.955 365.955 0 00-1.828-2.348l-1.579 1.235zm3.604 4.668a394.43 394.43 0 011.803 2.391l1.607-1.199c-.599-.8-1.203-1.601-1.812-2.402l-1.598 1.21zm3.577 4.777c.586.795 1.168 1.589 1.745 2.382l1.622-1.178a482.056 482.056 0 00-1.752-2.392l-1.615 1.188zm3.484 4.786c.582.81 1.16 1.619 1.734 2.427l1.636-1.158a535.912 535.912 0 00-1.741-2.437l-1.629 1.168zm3.443 4.848c.568.808 1.131 1.614 1.691 2.42l1.647-1.143a539.964 539.964 0 00-1.696-2.427l-1.642 1.15zm3.393 4.877c.564.818 1.125 1.635 1.682 2.45l1.656-1.13a910.564 910.564 0 00-1.686-2.456l-1.652 1.136zm3.348 4.892c.56.824 1.117 1.647 1.673 2.468l1.661-1.122c-.556-.822-1.114-1.646-1.675-2.471l-1.659 1.125zm3.339 4.936l1.654 2.46 1.665-1.117-1.656-2.461-1.663 1.118zm3.312 4.928l1.663 2.476 1.665-1.116-1.663-2.476-1.665 1.116zm3.32 4.941c.553.823 1.107 1.644 1.66 2.462l1.662-1.12a2085.93 2085.93 0 01-1.658-2.46l-1.664 1.118zm3.333 4.934c.558.822 1.116 1.642 1.675 2.46l1.657-1.13a699.018 699.018 0 01-1.672-2.454l-1.66 1.124zm3.355 4.909c.566.821 1.133 1.639 1.7 2.455l1.647-1.143c-.566-.814-1.131-1.63-1.694-2.448l-1.653 1.136zm3.409 4.896c.571.812 1.144 1.621 1.719 2.427l1.634-1.162a475.172 475.172 0 01-1.712-2.417l-1.641 1.152zm3.461 4.852c.583.805 1.169 1.609 1.758 2.409l1.616-1.186a387.28 387.28 0 01-1.748-2.397l-1.626 1.174zm3.534 4.803c.596.796 1.196 1.589 1.799 2.38l1.595-1.214a348.826 348.826 0 01-1.788-2.366l-1.606 1.2zm3.621 4.743a297.38 297.38 0 001.848 2.346l1.57-1.246a271.8 271.8 0 01-1.834-2.33l-1.584 1.23zm3.72 4.669c.628.77 1.261 1.538 1.899 2.302l1.541-1.282a240.134 240.134 0 01-1.884-2.284l-1.556 1.264zm3.832 4.585c.646.755 1.299 1.506 1.958 2.254l1.507-1.322c-.653-.741-1.3-1.485-1.941-2.233l-1.524 1.301zm3.945 4.479c.668.739 1.344 1.474 2.026 2.205l1.469-1.363a205.818 205.818 0 01-2.007-2.184l-1.488 1.342zm4.081 4.378c.686.715 1.38 1.426 2.08 2.133l1.428-1.406c-.693-.7-1.379-1.404-2.059-2.111l-1.449 1.384zm4.204 4.245c.714.699 1.435 1.393 2.164 2.084l1.383-1.45a182.472 182.472 0 01-2.141-2.062l-1.406 1.428zm4.337 4.111c.732.671 1.472 1.34 2.221 2.005l1.335-1.495a168.487 168.487 0 01-2.197-1.983l-1.359 1.473zm4.494 3.988c.748.641 1.504 1.279 2.269 1.914l1.284-1.538a175.964 175.964 0 01-2.243-1.892l-1.31 1.516zm4.582 3.8c.78.625 1.569 1.246 2.367 1.864l1.232-1.58a184.755 184.755 0 01-2.341-1.843l-1.258 1.559zm4.747 3.674c.789.59 1.587 1.176 2.394 1.758l1.178-1.619a176.316 176.316 0 01-2.366-1.739l-1.206 1.6zm4.843 3.495c.825.575 1.66 1.146 2.505 1.714l1.124-1.658a173.372 173.372 0 01-2.478-1.695l-1.151 1.639zm4.963 3.338c.829.538 1.667 1.073 2.515 1.604l1.07-1.693a186.145 186.145 0 01-2.487-1.586l-1.098 1.675zm5.086 3.186c.852.515 1.714 1.027 2.585 1.535l1.016-1.725a187.542 187.542 0 01-2.557-1.519l-1.044 1.709zm5.146 3.004c.863.486 1.735.969 2.617 1.448l.965-1.754c-.873-.475-1.737-.953-2.591-1.434l-.991 1.74zm5.292 2.877c.875.46 1.76.916 2.654 1.369l.914-1.781c-.886-.449-1.763-.901-2.63-1.356l-.938 1.768zm5.297 2.685c.89.436 1.789.869 2.698 1.298l.864-1.805c-.9-.426-1.791-.855-2.673-1.286l-.889 1.793zm5.451 2.577c.464.212.93.423 1.398.633l.828-1.823c-.465-.208-.926-.417-1.386-.627l-.84 1.817zm1.396.632c.467.21.933.418 1.399.624l.817-1.827c-.461-.204-.923-.41-1.384-.618l-.832 1.821zm4.191 1.832c.929.394 1.858.779 2.786 1.155l.761-1.851c-.918-.372-1.838-.753-2.758-1.143l-.789 1.839zm5.566 2.257c.926.359 1.85.709 2.774 1.051l.703-1.873c-.914-.338-1.829-.684-2.745-1.04l-.732 1.862zm5.541 2.05a192 192 0 002.876.987l.643-1.895c-.947-.316-1.895-.641-2.845-.976l-.674 1.884zm5.756 1.922c.959.302 1.916.596 2.872.88l.58-1.914c-.945-.281-1.892-.571-2.84-.871l-.612 1.905zm5.737 1.707c.954.267 1.906.524 2.857.773l.516-1.932c-.94-.246-1.882-.501-2.825-.764l-.548 1.923zm5.77 1.509c.985.24 1.969.471 2.951.692l.449-1.948c-.971-.219-1.943-.447-2.917-.684l-.483 1.94zm5.893 1.328c.98.203 1.958.397 2.934.582l.381-1.963c-.965-.182-1.931-.374-2.899-.574l-.416 1.955zm5.859 1.109c.987.169 1.972.329 2.955.479l.313-1.974c-.972-.149-1.946-.307-2.921-.474l-.347 1.969zm5.953.912c.998.134 1.994.26 2.988.376l.242-1.984c-.983-.115-1.967-.239-2.953-.372l-.277 1.98zm5.966.698c.991.098 1.98.187 2.968.267l.171-1.99c-.976-.08-1.954-.168-2.933-.265l-.206 1.988zm5.958.483c1.008.064 2.015.119 3.019.165l.1-1.996c-.993-.045-1.988-.099-2.984-.162l-.135 1.993zm6.027.274c1.001.028 2 .046 2.997.056l.028-1.997a172.76 172.76 0 01-2.961-.055l-.064 1.996zm5.981.059a166.79 166.79 0 003.006-.05l-.043-1.996c-.988.025-1.978.041-2.97.049l.007 1.997zm6.022-.153a186.22 186.22 0 003.003-.156l-.113-1.994c-.987.06-1.977.112-2.968.154l.078 1.996zm5.994-.364c.994-.077 1.987-.164 2.977-.258l-.183-1.988c-.978.093-1.959.178-2.942.255l.148 1.991zm5.974-.57c.999-.113 1.996-.234 2.991-.363l-.251-1.98c-.984.127-1.969.247-2.957.359l.217 1.984zm5.967-.775c.99-.146 1.977-.3 2.962-.462l-.317-1.97c-.974.16-1.95.312-2.929.456l.284 1.976zm5.913-.971c.99-.179 1.977-.366 2.962-.561l-.383-1.96c-.973.193-1.95.379-2.929.556l.35 1.965zm5.908-1.17c.98-.21 1.957-.428 2.931-.654l-.445-1.946c-.964.224-1.931.44-2.9.648l.414 1.952zm5.847-1.353c.972-.242 1.941-.49 2.908-.746l-.506-1.931c-.957.254-1.916.5-2.878.738l.476 1.939zm5.812-1.539c.965-.271 1.927-.549 2.887-.835l-.565-1.914c-.95.283-1.903.559-2.858.827l.536 1.922zm5.758-1.712c.954-.299 1.905-.605 2.854-.918l-.622-1.896c-.939.309-1.881.613-2.826.909l.594 1.905zm5.703-1.881a198.2 198.2 0 002.834-1.003l-.676-1.877c-.933.338-1.869.669-2.807.994l.649 1.886zm5.652-2.044c.936-.354 1.869-.713 2.799-1.079l-.728-1.858c-.922.363-1.846.719-2.774 1.069l.703 1.868zm5.584-2.196c.928-.38 1.853-.766 2.776-1.157l-.778-1.838c-.915.389-1.832.771-2.752 1.147l.754 1.848zm5.533-2.35c.917-.403 1.83-.812 2.74-1.226l-.826-1.816c-.902.41-1.807.816-2.716 1.216l.802 1.826zm5.461-2.486c.906-.427 1.809-.859 2.71-1.296l-.872-1.795c-.892.434-1.788.862-2.687 1.285l.849 1.806zm5.405-2.626c.896-.449 1.788-.903 2.677-1.361l-.915-1.773a254.2 254.2 0 01-2.655 1.35l.893 1.784zm5.333-2.752c.883-.468 1.762-.942 2.638-1.42l-.956-1.751c-.869.474-1.741.944-2.617 1.409l.935 1.762zm5.271-2.876c.874-.49 1.745-.985 2.612-1.484l-.995-1.729c-.861.495-1.725.986-2.593 1.473l.976 1.74zm5.204-2.994c.861-.507 1.718-1.019 2.571-1.535l-1.032-1.707c-.848.512-1.699 1.021-2.553 1.524l1.014 1.718zm5.132-3.101a287.43 287.43 0 002.55-1.596l-1.069-1.684c-.84.532-1.684 1.06-2.532 1.584l1.051 1.696zm5.077-3.214a292.04 292.04 0 002.506-1.64l-1.102-1.663c-.826.546-1.656 1.089-2.489 1.629l1.085 1.674zm4.99-3.302c.833-.563 1.663-1.129 2.489-1.699l-1.135-1.641c-.821.566-1.645 1.129-2.473 1.688l1.119 1.652zm4.954-3.418c.818-.576 1.632-1.154 2.442-1.736l-1.165-1.619c-.806.578-1.615 1.153-2.427 1.725l1.15 1.63zm4.861-3.49c.809-.592 1.614-1.187 2.415-1.784l-1.196-1.598a338.31 338.31 0 01-2.4 1.774l1.181 1.608zm4.82-3.595c.798-.606 1.591-1.214 2.381-1.825l-1.224-1.576a313.73 313.73 0 01-2.366 1.814l1.209 1.587zm4.737-3.664a366.17 366.17 0 002.337-1.856l-1.25-1.555c-.77.617-1.545 1.232-2.324 1.846l1.237 1.565zm4.686-3.753a341.75 341.75 0 002.321-1.908l-1.276-1.534a343.49 343.49 0 01-2.309 1.897l1.264 1.545zm4.616-3.824a368.92 368.92 0 002.268-1.925l-1.3-1.514c-.748.64-1.5 1.278-2.256 1.915l1.288 1.524zm4.554-3.896c.76-.661 1.515-1.322 2.265-1.984l-1.324-1.493c-.747.658-1.498 1.316-2.253 1.973l1.312 1.504zm4.5-3.973c.741-.664 1.476-1.328 2.206-1.992l-1.346-1.474c-.727.662-1.459 1.323-2.195 1.983l1.335 1.483zm4.425-4.025c.741-.685 1.478-1.37 2.209-2.055l-1.368-1.453c-.728.681-1.461 1.363-2.199 2.045l1.358 1.463zm4.386-4.11c.72-.685 1.436-1.37 2.145-2.054l-1.389-1.433c-.706.681-1.418 1.362-2.135 2.044l1.379 1.443zm4.3-4.146a484.87 484.87 0 002.154-2.12l-1.409-1.414c-.708.703-1.423 1.406-2.144 2.111l1.399 1.423zm4.273-4.235c.7-.704 1.394-1.406 2.083-2.107l-1.429-1.395c-.685.698-1.376 1.398-2.073 2.098l1.419 1.404zm4.184-4.262c.705-.728 1.404-1.455 2.097-2.179l-1.447-1.375c-.689.721-1.385 1.444-2.088 2.169l1.438 1.385zm4.153-4.345c.679-.719 1.352-1.437 2.017-2.151l-1.465-1.356c-.662.711-1.331 1.425-2.007 2.142l1.455 1.365zm4.079-4.38c.686-.746 1.364-1.488 2.035-2.227l-1.483-1.337c-.667.736-1.343 1.475-2.025 2.218l1.473 1.346zm4.023-4.432c.666-.743 1.323-1.481 1.972-2.215l-1.499-1.318c-.647.731-1.301 1.466-1.964 2.205l1.491 1.328zm3.986-4.506c.663-.759 1.316-1.512 1.961-2.259l-1.516-1.299c-.642.744-1.293 1.494-1.953 2.25l1.508 1.308zm3.868-4.484a438.1 438.1 0 001.974-2.333l-1.532-1.28c-.645.767-1.3 1.542-1.966 2.323l1.524 1.29zm3.904-4.643c.633-.762 1.255-1.516 1.867-2.262l-1.549-1.26c-.608.742-1.228 1.493-1.858 2.252l1.54 1.27zm3.788-4.62c.643-.794 1.273-1.578 1.89-2.35l-1.565-1.24c-.614.768-1.241 1.548-1.881 2.339l1.556 1.251zm3.701-4.631a470.65 470.65 0 001.896-2.421l-1.58-1.22c-.613.788-1.243 1.592-1.888 2.41l1.572 1.231zm3.722-4.782c.615-.802 1.213-1.585 1.792-2.349l-1.596-1.2c-.577.761-1.171 1.541-1.784 2.339l1.588 1.21zm3.633-4.797c.594-.795 1.165-1.566 1.714-2.311l-1.613-1.178c-.546.742-1.114 1.509-1.705 2.301l1.604 1.188zm3.556-4.832c.598-.825 1.162-1.61 1.692-2.352l-1.63-1.154c-.527.739-1.088 1.52-1.683 2.34l1.621 1.166zm3.468-4.861c.651-.929 1.229-1.762 1.731-2.492l-1.65-1.125c-.499.725-1.073 1.553-1.721 2.477l1.64 1.14zm3.418-4.966l.557-.823.131-.19.008-.011s-.022.028-.056.063a.996.996 0 01-.408.253 1.007 1.007 0 01-.837-.102l1.065-1.696a1.001 1.001 0 00-1.107.032c-.08.055-.133.111-.147.125-.039.04-.068.077-.078.088-.025.032-.049.066-.068.092a217.168 217.168 0 00-.719 1.057l1.659 1.112zm.776-1.132c.275-.437.548-.875.82-1.312l-1.7-1.049c-.271.436-.543.872-.817 1.308l1.697 1.053zm2.443-3.931c.537-.872 1.07-1.743 1.599-2.613l-1.711-1.031c-.527.867-1.059 1.735-1.594 2.604l1.706 1.04zm3.176-5.22c.522-.868 1.04-1.735 1.554-2.6l-1.722-1.013c-.512.863-1.028 1.726-1.548 2.591l1.716 1.022zm3.086-5.194c.507-.864 1.009-1.726 1.509-2.588l-1.733-.994a589.34 589.34 0 01-1.504 2.578l1.728 1.004zm2.995-5.169c.492-.86.98-1.718 1.464-2.575l-1.744-.975c-.482.854-.969 1.709-1.458 2.565l1.738.985zm2.905-5.144c.496-.889.988-1.778 1.476-2.666l-1.755-.954a509.11 509.11 0 01-1.47 2.655l1.749.965zm2.95-5.365c.487-.898.97-1.796 1.449-2.692l-1.767-.933c-.477.892-.958 1.786-1.443 2.681l1.761.944zm2.873-5.377c.47-.894.937-1.787 1.399-2.678l-1.778-.912c-.46.888-.925 1.777-1.394 2.667l1.773.923zm2.774-5.349c.454-.889.904-1.777 1.35-2.664l-1.79-.889c-.444.883-.892 1.767-1.344 2.652l1.784.901zm2.675-5.32c.438-.885.872-1.768 1.301-2.65l-1.8-.867c-.428.879-.86 1.758-1.296 2.639l1.795.878zm2.61-5.359c.444-.928.884-1.855 1.32-2.781l-1.813-.842c-.433.921-.871 1.844-1.314 2.768l1.807.855zm2.613-5.553c.426-.922.848-1.844 1.265-2.764l-1.824-.817c-.415.916-.835 1.833-1.26 2.752l1.819.829zm2.504-5.52c.409-.918.813-1.834 1.213-2.749l-1.836-.791c-.398.91-.8 1.822-1.206 2.735l1.829.805zm2.398-5.49c.391-.912.777-1.823 1.159-2.732l-1.847-.765c-.38.905-.764 1.811-1.153 2.719l1.841.778zm2.291-5.457c.387-.94.768-1.879 1.145-2.816l-1.858-.737c-.375.932-.755 1.866-1.139 2.802l1.852.751zm2.28-5.668c.374-.95.742-1.897 1.106-2.844l-1.87-.708c-.362.942-.728 1.885-1.1 2.829l1.864.723zm2.182-5.679c.354-.943.703-1.885 1.048-2.826l-1.881-.678c-.343.936-.69 1.873-1.042 2.811l1.875.693zm2.066-5.643c.335-.938.665-1.874.99-2.809l-1.892-.647c-.323.929-.651 1.86-.984 2.793l1.886.663zm1.951-5.609c.321-.948.637-1.895.948-2.84l-1.902-.616c-.31.94-.624 1.881-.943 2.824l1.897.632zm1.896-5.762c.31-.973.616-1.943.916-2.913l-1.913-.582c-.299.964-.602 1.929-.911 2.896l1.908.599zm1.801-5.815c.29-.966.574-1.931.854-2.893l-1.924-.548c-.278.957-.561 1.915-.849 2.875l1.919.566zm1.676-5.777c.269-.959.533-1.917.792-2.874l-1.934-.512c-.257.95-.519 1.902-.786 2.856l1.928.53zm1.552-5.738c.253-.972.501-1.942.744-2.91l-1.943-.476c-.241.962-.488 1.926-.739 2.891l1.938.495zm1.474-5.887c.237-.991.47-1.98.696-2.967l-1.952-.438c-.225.981-.456 1.963-.692 2.948l1.948.457zm1.359-5.923c.216-.983.426-1.965.63-2.945l-1.961-.399c-.203.973-.411 1.949-.625 2.926l1.956.418zm1.226-5.88c.194-.977.381-1.952.564-2.925l-1.969-.359c-.181.967-.367 1.935-.559 2.905l1.964.379zm1.094-5.838c.177-1.004.349-2.006.515-3.006l-1.976-.317c-.165.992-.335 1.987-.511 2.984l1.972.339zm.997-6.02c.155-1.002.304-2.003.447-3.002l-1.983-.274c-.142.991-.29 1.985-.443 2.98l1.979.296zm.858-5.993c.132-.995.257-1.988.377-2.979l-1.989-.23c-.118.983-.243 1.969-.373 2.957l1.985.252zm.718-5.947c.108-.987.21-1.972.306-2.956l-1.993-.186c-.095.976-.197 1.954-.304 2.934l1.991.208zm.583-5.962c.088-1.015.169-2.028.245-3.04l-1.998-.139a241.457 241.457 0 01-.242 3.016l1.995.163zm.452-6.068c.063-1.007.119-2.012.17-3.015l-2-.092c-.051.995-.107 1.992-.169 2.991l1.999.116zm.303-6.018c.038-.999.071-1.996.097-2.991l-2.002-.044c-.026.987-.058 1.976-.096 2.967l2.001.068zm.157-5.969c.014-1.008.022-2.013.024-3.016l-2.003.005c-.002.995-.01 1.992-.024 2.991l2.003.02zm.01-6.059a233.79 233.79 0 00-.053-3.029l-2.002.055c.024.999.041 2.001.052 3.004l2.003-.03zm-.143-6.046a228.849 228.849 0 00-.129-3.003l-2 .106c.049.99.091 1.983.128 2.978l2.001-.081zm-.295-5.993c-.062-.995-.13-1.987-.204-2.977l-1.997.157c.074.981.141 1.965.202 2.951l1.999-.131zm-.45-5.993a230.149 230.149 0 00-.286-3.019l-1.993.209c.101.996.196 1.993.284 2.994l1.995-.184zm-.611-6.025c-.115-1-.237-1.997-.365-2.992l-1.986.262c.127.986.247 1.975.361 2.966l1.99-.236zm-.767-5.97c-.141-.991-.288-1.979-.441-2.964l-1.979.314c.152.977.297 1.956.437 2.938l1.983-.288zm-.921-5.919c-.169-.997-.345-1.992-.527-2.984l-1.97.367c.181.983.354 1.969.522 2.958l1.975-.341zm-1.092-5.954c-.195-.988-.396-1.973-.604-2.956l-1.96.42c.206.974.406 1.95.599 2.929l1.965-.393zm-1.247-5.898a221.9 221.9 0 00-.682-2.927l-1.948.473c.232.964.457 1.931.676 2.901l1.954-.447zm-1.402-5.839c-.248-.974-.502-1.945-.762-2.913l-1.935.525c.259.96.51 1.922.756 2.886l1.941-.498zm-1.566-5.823c-.274-.968-.555-1.933-.842-2.896l-1.92.577c.285.954.563 1.91.835 2.869l1.927-.55zm-1.723-5.777c-.3-.958-.606-1.914-.919-2.867l-1.904.629c.31.944.614 1.891.911 2.84l1.912-.602zm-1.876-5.718c-.325-.949-.657-1.894-.995-2.838l-1.886.679c.335.935.664 1.872.986 2.812l1.895-.653zm-2.029-5.667c-.351-.94-.709-1.878-1.072-2.814l-1.868.729c.36.927.715 1.857 1.063 2.789l1.877-.704zm-2.182-5.613a217.17 217.17 0 00-1.147-2.785l-1.847.777c.385.918.763 1.838 1.136 2.761l1.858-.753zm-2.33-5.555c-.401-.921-.808-1.839-1.221-2.755l-1.827.825c.41.908.813 1.818 1.21 2.731l1.838-.801zm-2.475-5.49c-.423-.907-.852-1.812-1.288-2.715l-1.805.872c.432.895.857 1.792 1.277 2.692l1.816-.849zm-2.612-5.415c-.447-.898-.9-1.793-1.359-2.686l-1.783.918c.455.885.905 1.773 1.348 2.663l1.794-.895zm-2.755-5.357c-.47-.888-.947-1.773-1.43-2.656l-1.759.962c.478.875.951 1.753 1.418 2.634l1.771-.94zm-2.894-5.296c-.49-.87-.986-1.737-1.487-2.602l-1.735 1.004c.497.858.989 1.719 1.474 2.582l1.748-.984zm-3.007-5.19c-.512-.86-1.03-1.718-1.554-2.574l-1.711 1.046c.52.849 1.034 1.7 1.542 2.553l1.723-1.025zm-3.142-5.133c-.535-.85-1.075-1.699-1.622-2.545l-1.685 1.086c.542.84 1.078 1.681 1.609 2.525l1.698-1.066zm-3.276-5.075a265.45 265.45 0 00-1.676-2.498l-1.659 1.125c.559.824 1.114 1.65 1.662 2.479l1.673-1.106zm-3.372-4.964c-.571-.82-1.147-1.638-1.728-2.453l-1.634 1.162c.577.809 1.149 1.621 1.715 2.434l1.647-1.143zm-3.488-4.892c-.592-.81-1.189-1.619-1.791-2.424l-1.608 1.197c.598.8 1.191 1.603 1.779 2.407l1.62-1.18zm-3.614-4.835c-.613-.802-1.23-1.6-1.854-2.397l-1.581 1.232a270.71 270.71 0 011.841 2.38l1.594-1.215zm-3.709-4.743a273.291 273.291 0 00-1.881-2.327l-1.555 1.265c.628.768 1.251 1.539 1.868 2.311l1.568-1.249zm-3.791-4.641a298.703 298.703 0 00-1.94-2.3l-1.528 1.297c.647.759 1.289 1.521 1.926 2.284l1.542-1.281zm-3.909-4.587c-.661-.76-1.327-1.518-1.998-2.273l-1.502 1.328c.667.75 1.328 1.503 1.985 2.258l1.515-1.313zm-4.021-4.528a294.237 294.237 0 00-2.013-2.201l-1.475 1.357a313.29 313.29 0 012 2.186l1.488-1.342zm-4.053-4.388a301.09 301.09 0 00-2.068-2.174l-1.449 1.384c.689.718 1.374 1.438 2.054 2.161l1.463-1.371zm-4.163-4.336c-.702-.718-1.41-1.434-2.121-2.148l-1.424 1.411c.708.709 1.411 1.421 2.109 2.135l1.436-1.398zm-4.27-4.284a309.383 309.383 0 00-2.165-2.114l-1.398 1.436c.722.699 1.44 1.399 2.153 2.102l1.41-1.424zm-4.317-4.177a388.45 388.45 0 00-2.176-2.05l-1.372 1.461c.725.677 1.446 1.357 2.164 2.038l1.384-1.449zm-4.378-4.088c-.738-.677-1.48-1.352-2.226-2.025l-1.347 1.484c.742.669 1.48 1.34 2.214 2.014l1.359-1.473zm-4.477-4.038a369.237 369.237 0 00-2.275-2.001l-1.322 1.506c.758.661 1.513 1.324 2.263 1.99l1.334-1.495zm-4.569-3.985a359.047 359.047 0 00-2.268-1.929l-1.297 1.527c.755.638 1.507 1.278 2.256 1.919l1.309-1.517zm-4.56-3.846a312.672 312.672 0 00-2.314-1.906l-1.273 1.547c.772.63 1.539 1.262 2.302 1.896l1.285-1.537zm-4.65-3.8c-.783-.63-1.569-1.257-2.36-1.883l-1.249 1.567a337.97 337.97 0 012.348 1.873l1.261-1.557zm-4.741-3.753a413.406 413.406 0 00-2.404-1.859l-1.226 1.585c.802.614 1.599 1.231 2.393 1.85l1.237-1.576zm-4.779-3.667a401.113 401.113 0 00-2.387-1.791l-1.202 1.602a490.05 490.05 0 012.376 1.782l1.213-1.593zm-4.795-3.571c-.806-.591-1.616-1.18-2.429-1.768l-1.179 1.619c.809.585 1.615 1.171 2.417 1.76l1.191-1.611zm-4.878-3.525c-.82-.584-1.643-1.166-2.47-1.747l-1.157 1.635c.823.578 1.642 1.157 2.458 1.739l1.169-1.627zm-4.96-3.482c-.824-.57-1.652-1.138-2.483-1.705l-1.135 1.65c.827.564 1.651 1.13 2.472 1.698l1.146-1.643zm-4.95-3.376a565.039 565.039 0 00-2.486-1.66l-1.114 1.665c.828.549 1.653 1.1 2.475 1.653l1.125-1.658zm-4.991-3.309c-.839-.548-1.68-1.094-2.524-1.639l-1.093 1.679a452.21 452.21 0 012.514 1.632l1.103-1.672zm-5.066-3.267c-.851-.541-1.705-1.08-2.561-1.618l-1.072 1.692c.854.535 1.704 1.072 2.551 1.611l1.082-1.685zm-5.14-3.225a454.444 454.444 0 00-2.546-1.564l-1.051 1.704c.848.518 1.693 1.037 2.536 1.559l1.061-1.699zm-5.096-3.112a527.92 527.92 0 00-2.568-1.537l-1.031 1.717c.855.509 1.708 1.019 2.558 1.531l1.041-1.711zm-5.153-3.064a591.76 591.76 0 00-2.602-1.517l-1.011 1.728a463.32 463.32 0 012.592 1.512l1.021-1.723zm-5.221-3.024c-.875-.5-1.754-.999-2.635-1.497l-.992 1.74c.878.495 1.754.992 2.626 1.491l1.001-1.734zm-5.287-2.983c-.865-.482-1.733-.963-2.604-1.442l-.972 1.75c.867.477 1.732.956 2.594 1.436l.982-1.744zm-5.223-2.873c-.876-.476-1.754-.95-2.635-1.423l-.955 1.76c.878.471 1.754.944 2.626 1.418l.964-1.755zm-5.286-2.835c-.886-.469-1.775-.937-2.666-1.403l-.936 1.77c.889.464 1.774.93 2.657 1.398l.945-1.765zm-5.347-2.796c-.896-.463-1.795-.925-2.696-1.384l-.918 1.779c.899.458 1.794.918 2.687 1.379l.927-1.774zm-5.407-2.759c-.885-.445-1.773-.89-2.662-1.333l-.9 1.788c.886.442 1.771.885 2.653 1.329l.909-1.784zm-5.339-2.656c-.894-.44-1.791-.878-2.69-1.315l-.883 1.796c.896.436 1.79.873 2.682 1.311l.891-1.792zm-5.394-2.62c-.904-.434-1.81-.866-2.718-1.297l-.866 1.805c.905.429 1.808.86 2.709 1.292l.875-1.8zm-5.45-2.584c-.913-.428-1.828-.854-2.746-1.278l-.849 1.812c.915.424 1.827.848 2.737 1.275l.858-1.809zm-5.505-2.547c-.905-.414-1.813-.826-2.722-1.237l-.833 1.82c.907.409 1.812.82 2.714 1.233l.841-1.816zm-5.445-2.46a684.27 684.27 0 00-2.736-1.214l-.817 1.827c.912.402 1.821.805 2.728 1.21l.825-1.823zm-5.484-2.42c-.918-.4-1.839-.799-2.761-1.197l-.801 1.834c.92.397 1.838.794 2.753 1.194l.809-1.831zm-5.534-2.385c-.927-.394-1.855-.787-2.786-1.179l-.785 1.841c.928.39 1.854.782 2.778 1.176l.793-1.838zm-5.584-2.35c-.926-.385-1.854-.769-2.785-1.151l-.769 1.847c.927.381 1.853.764 2.777 1.148l.777-1.844zm-5.546-2.28a696.62 696.62 0 00-2.773-1.12l-.755 1.853a693.1 693.1 0 012.766 1.117l.762-1.85zm-5.557-2.232c-.93-.369-1.862-.737-2.796-1.104l-.74 1.859c.932.366 1.861.733 2.788 1.101l.748-1.856zm-5.603-2.199c-.937-.364-1.876-.726-2.818-1.087l-.725 1.865c.939.36 1.876.721 2.811 1.084l.732-1.862zm-5.647-2.166c-.945-.358-1.891-.715-2.84-1.07l-.711 1.87c.946.355 1.89.711 2.833 1.068l.718-1.868zm-5.642-2.114c-.932-.345-1.867-.689-2.803-1.032l-.697 1.875c.934.342 1.866.685 2.796 1.03l.704-1.873zm-5.617-2.056c-.94-.341-1.881-.679-2.824-1.017l-.683 1.88c.941.337 1.88.675 2.817 1.014l.69-1.877zm-5.658-2.025c-.947-.335-1.895-.669-2.845-1.001l-.669 1.885c.947.332 1.893.664 2.837.998l.677-1.882zm-5.699-1.993c-.953-.33-1.908-.658-2.864-.985l-.656 1.89c.954.326 1.906.653 2.857.982l.663-1.887zm-5.733-1.959c-.941-.318-1.884-.635-2.828-.95l-.643 1.894c.942.314 1.883.63 2.822.948l.649-1.892zm-5.666-1.893c-.948-.313-1.897-.624-2.848-.935l-.63 1.899c.949.31 1.896.62 2.841.933l.637-1.897zm-5.704-1.862c-.954-.307-1.909-.614-2.866-.919l-.617 1.903c.954.304 1.907.61 2.859.917l.624-1.901zm-5.741-1.831c-.96-.302-1.921-.603-2.884-.903l-.604 1.906c.96.3 1.92.6 2.877.902l.611-1.905zm-5.776-1.8c-.963-.296-1.927-.591-2.892-.885l-.592 1.91c.963.293 1.925.588 2.885.884l.599-1.909zm-5.75-1.751c-.955-.287-1.91-.573-2.867-.857l-.58 1.914c.955.284 1.909.569 2.861.856l.586-1.913zm-5.742-1.708c-.96-.282-1.921-.563-2.883-.843l-.568 1.918c.961.279 1.92.559 2.877.841l.574-1.916zm-5.774-1.679c-.966-.277-1.932-.553-2.9-.828l-.556 1.921c.966.275 1.931.55 2.894.827l.562-1.92zm-5.808-1.649c-.97-.272-1.942-.543-2.915-.813l-.544 1.924c.971.27 1.941.54 2.91.812l.549-1.923zm-5.833-1.618c-.96-.263-1.921-.524-2.883-.785l-.532 1.928c.96.26 1.919.521 2.877.784l.538-1.927zm-5.773-1.563c-.965-.258-1.93-.515-2.898-.771l-.52 1.93c.965.256 1.929.512 2.891.77l.527-1.929zm-5.802-1.535c-.97-.254-1.941-.506-2.913-.757l-.509 1.934c.97.25 1.939.502 2.906.755l.516-1.932zm-5.832-1.507c-.975-.248-1.95-.496-2.927-.742l-.498 1.937c.974.245 1.948.492 2.921.741l.504-1.936zm-5.861-1.477a842.24 842.24 0 00-2.941-.728l-.487 1.939c.979.241 1.958.483 2.935.727l.493-1.938zm-5.849-1.44c-.969-.235-1.939-.47-2.91-.703l-.476 1.942c.969.233 1.937.467 2.904.702l.482-1.941zm-5.826-1.399c-.973-.231-1.948-.46-2.923-.689l-.466 1.944 2.918.688.471-1.943zm-5.852-1.371a897.23 897.23 0 00-2.936-.676l-.455 1.947 2.93.674.461-1.945zm-5.878-1.344c-.982-.222-1.965-.442-2.949-.661l-.445 1.949c.983.219 1.964.439 2.944.66l.45-1.948zm-5.904-1.316l-1.482-.325-.437 1.951 1.48.325.439-1.951z" fill="#3CCB21" mask="url(#a)"/></g><defs><linearGradient id="paint0_linear" x1="198.47" y1="237.161" x2="322.497" y2="610.316" gradientUnits="userSpaceOnUse"><stop stop-color="#28FEFE" stop-opacity=".3"/><stop offset="1" stop-color="#33C9E0"/></linearGradient></defs></svg>