<svg width="360" height="783" fill="none" xmlns="http://www.w3.org/2000/svg"><path opacity=".25" d="M188.11 692.47c251.278 28.442 514.443-344.842 222.367-391.25C29.414 254.978 90.296 98.985-59.877 83.146-332.339 54.41-327.953 275.931-328.25 275.867c-94.731 266.342 182.37 434.988 516.36 416.603z" fill="url(#paint0_linear)"/><path d="M366.514 662.071c-47.48 49.369-397.72-2.171-498.097-2.966-102.058-.833-250.823-42.867-320.874-189.665-44.052-92.617-55.141-237.006 46.228-367.62 85.413-110.082 227.712-70.274 309.003 22.854C2.516 238.939 92.825 245.098 253.47 307.9c160.646 62.802 152.954 237.484 113.044 354.171z" fill="url(#paint1_linear)"/><defs><linearGradient id="paint0_linear" x1="273.377" y1="615.035" x2="-43.01" y2="-33.125" gradientUnits="userSpaceOnUse"><stop stop-color="#28FEFE" stop-opacity=".3"/><stop offset="1" stop-color="#31C7CD"/></linearGradient><linearGradient id="paint1_linear" x1="37.703" y1="202.56" x2="-281.719" y2="709.392" gradientUnits="userSpaceOnUse"><stop stop-color="#83F12C" stop-opacity=".6"/><stop offset="1" stop-color="#01B213"/></linearGradient></defs></svg>