<svg width="360" height="815" fill="none" xmlns="http://www.w3.org/2000/svg"><path opacity=".13" d="M391.436 157.395C224.849 81.922-17.69 354.871 172.524 454.011c183.297 66.897 148.663 161.312 248.518 205.427 132.506 58.859 234.877-110.232 235.067-110.117 133.771-208.409-28.86-339.644-264.673-391.926z" fill="url(#paint0_linear)"/><g opacity=".3"><mask id="a" fill="#fff"><path d="M387.012 106.302C190.841 43.155-51.449 329.403 103.255 458.361c12.807 10.675 28.455 17.419 43.808 23.762 189.596 78.328 152.502 178.152 265.684 228.898C568.82 781.393 694.728 583.16 694.951 583.299c161.281-257.388-29.455-416.101-307.939-476.997z"/></mask><path d="M387.012 106.302l-.155.475.023.007.023.005.109-.487zm25.735 604.719l.208-.455h-.001l-.207.455zm282.204-127.722l-.266.424.424.264.267-.425-.425-.263zM103.255 458.361l-.322.383.322-.383zm43.808 23.762l-.194.461.194-.461zm240.105-376.297c-.481-.154-.962-.307-1.443-.458l-.304.953c.479.15.957.302 1.436.456l.311-.951zm-4.335-1.336c-.964-.285-1.93-.561-2.897-.829l-.272.962c.962.267 1.922.541 2.882.824l.287-.957zm-5.8-1.609a190.23 190.23 0 00-2.909-.73l-.24.97c.965.234 1.929.477 2.893.727l.256-.967zm-5.823-1.412c-.973-.22-1.948-.431-2.923-.634l-.209.977c.97.202 1.939.413 2.907.631l.225-.974zm-5.881-1.227c-.987-.189-1.975-.37-2.964-.544l-.177.984c.983.172 1.966.353 2.947.541l.194-.981zm-5.931-1.039c-.99-.157-1.98-.306-2.971-.447l-.145.989c.985.14 1.97.288 2.955.444l.161-.986zm-5.945-.847c-.992-.125-1.984-.243-2.977-.352l-.115.992c.988.11 1.975.226 2.962.35l.13-.99zm-5.97-.66c-.999-.094-1.999-.18-2.999-.26l-.083.996c.995.079 1.989.165 2.983.259l.099-.994zm-5.999-.473c-1.001-.064-2.002-.12-3.003-.167l-.052.997c.996.048 1.992.103 2.987.167l.068-.997zm-6.007-.289a199.199 199.199 0 00-3.005-.076l-.022.999c.997.017 1.994.043 2.99.075l.037-.998zm-6.01-.107c-1.002-.002-2.004.002-3.007.014l.008.999c.998-.012 1.995-.017 2.992-.014l.007-.999zm-6.013.072c-1.002.027-2.004.061-3.006.103l.037.997c.997-.04 1.994-.075 2.992-.101l-.023-.999zm-6.012.248c-1.002.056-2.003.12-3.005.19l.067.996c.996-.07 1.993-.133 2.99-.188l-.052-.998zm-6.005.421c-.998.084-1.994.175-2.991.273l.094.994c.992-.097 1.984-.188 2.977-.272l-.08-.995zm-5.979.588c-.996.112-1.992.231-2.987.357l.122.99a217.77 217.77 0 012.973-.354l-.108-.993zm-5.971.754c-.994.14-1.987.285-2.981.438l.149.987a230.62 230.62 0 012.968-.436l-.136-.989zm-5.958.916c-.987.166-1.972.337-2.957.516l.175.982c.98-.177 1.962-.348 2.943-.513l-.161-.985zm-5.909 1.069c-.983.191-1.965.389-2.947.593l.2.978c.978-.204 1.956-.4 2.935-.59l-.188-.981zm-5.89 1.224c-.98.216-1.96.439-2.938.668l.225.973c.974-.229 1.95-.451 2.926-.666l-.213-.975zm-5.872 1.375c-.972.24-1.944.487-2.915.74l.25.966c.966-.252 1.934-.498 2.902-.737l-.237-.969zm-5.814 1.514c-.966.264-1.93.533-2.894.809l.273.96c.96-.275 1.92-.544 2.882-.806l-.261-.963zm-5.781 1.655c-.962.287-1.922.581-2.881.88l.295.953c.956-.298 1.912-.59 2.87-.877l-.284-.956zm-5.755 1.796c-.956.31-1.91.626-2.863.948l.317.946c.95-.321 1.9-.636 2.852-.945l-.306-.949zm-5.7 1.924c-.944.331-1.887.667-2.828 1.009l.339.938c.938-.341 1.877-.676 2.818-1.005l-.329-.942zm-5.649 2.05c-.939.353-1.877.711-2.813 1.075l.36.93c.933-.362 1.867-.719 2.802-1.07l-.349-.935zm-5.617 2.181c-.933.374-1.865.754-2.795 1.139l.38.922c.927-.383 1.855-.762 2.785-1.134l-.37-.927zm-5.566 2.302c-.92.392-1.839.789-2.756 1.191l.4.914c.914-.401 1.829-.796 2.746-1.187l-.39-.918zm-5.502 2.413c-.914.412-1.826.83-2.736 1.252l.419.905c.907-.421 1.816-.837 2.727-1.247l-.41-.91zm-5.462 2.533c-.907.432-1.812.869-2.716 1.311l.438.896c.9-.44 1.803-.875 2.706-1.306l-.428-.901zm-5.417 2.649c-.894.448-1.786.901-2.676 1.359l.456.887c.887-.456 1.776-.908 2.667-1.355l-.447-.891zm-5.342 2.746c-.886.467-1.771.939-2.653 1.415l.473.878c.88-.475 1.762-.945 2.645-1.41l-.465-.883zm-5.295 2.857c-.879.485-1.756.975-2.631 1.469l.491.868c.872-.492 1.746-.98 2.622-1.464l-.482-.873zm-5.248 2.964c-.868.502-1.734 1.007-2.597 1.517l.508.859c.86-.508 1.723-1.012 2.588-1.512l-.499-.864zm-5.177 3.057c-.858.518-1.713 1.04-2.567 1.566l.524.849c.851-.525 1.704-1.045 2.559-1.561l-.516-.854zm-5.12 3.156a320.24 320.24 0 00-2.54 1.616l.54.838c.841-.54 1.685-1.077 2.532-1.61l-.532-.844zm-5.066 3.255c-.84.551-1.677 1.105-2.511 1.663l.555.829c.832-.557 1.667-1.109 2.504-1.658l-.548-.834zm-5.002 3.346c-.828.565-1.653 1.134-2.476 1.706l.571.819a317.77 317.77 0 012.468-1.701l-.563-.824zm-4.937 3.436a350.64 350.64 0 00-2.446 1.751l.586.808c.81-.586 1.623-1.168 2.438-1.747l-.578-.812zm-4.876 3.525c-.808.595-1.613 1.194-2.415 1.796l.6.797c.8-.6 1.603-1.197 2.408-1.79l-.593-.803zm-4.813 3.614c-.797.609-1.59 1.222-2.381 1.838l.614.786c.789-.614 1.58-1.225 2.374-1.833l-.607-.791zm-4.746 3.698c-.786.623-1.569 1.25-2.348 1.88l.628.775a384.01 384.01 0 012.341-1.875l-.621-.78zm-4.679 3.781a356.51 356.51 0 00-2.313 1.92l.642.764c.766-.642 1.535-1.28 2.306-1.915l-.635-.769zm-4.609 3.861c-.764.651-1.525 1.306-2.282 1.964l.655.752c.756-.656 1.514-1.309 2.276-1.958l-.649-.758zm-4.547 3.948c-.752.664-1.501 1.331-2.246 2.002l.669.74c.743-.668 1.49-1.334 2.239-1.996l-.662-.746zm-4.473 4.023c-.739.677-1.475 1.357-2.208 2.039l.682.729c.731-.681 1.465-1.359 2.202-2.033l-.676-.735zm-4.396 4.096c-.727.69-1.451 1.383-2.172 2.079l.695.716c.719-.694 1.441-1.384 2.166-2.072l-.689-.723zm-4.331 4.182c-.717.703-1.429 1.41-2.139 2.12l.708.703c.707-.707 1.418-1.412 2.132-2.113l-.701-.71zm-4.257 4.256a353.92 353.92 0 00-2.096 2.153l.72.691c.693-.718 1.39-1.433 2.09-2.146l-.714-.698zm-4.172 4.323a325.34 325.34 0 00-2.053 2.185l.732.678c.679-.729 1.362-1.455 2.048-2.179l-.727-.684zm-4.097 4.399c-.679.742-1.354 1.487-2.026 2.234l.745.665c.669-.745 1.342-1.488 2.019-2.227l-.738-.672zm-4.028 4.483a351.9 351.9 0 00-1.979 2.263l.757.651a297.44 297.44 0 011.973-2.256l-.751-.658zm-3.934 4.541a296.17 296.17 0 00-1.931 2.291l.768.638c.638-.764 1.28-1.526 1.925-2.285l-.762-.644zm-3.845 4.604c-.639.78-1.273 1.561-1.903 2.345l.78.623c.628-.782 1.261-1.561 1.897-2.338l-.774-.63zm-3.782 4.703c-.621.788-1.239 1.578-1.852 2.371l.792.608c.611-.79 1.227-1.578 1.846-2.364l-.786-.615zm-3.679 4.754c-.604.796-1.204 1.595-1.8 2.395l.803.593c.594-.798 1.192-1.594 1.795-2.388l-.798-.6zm-3.573 4.803c-.594.814-1.184 1.63-1.769 2.449l.815.577c.583-.816 1.17-1.629 1.763-2.441l-.809-.585zm-3.512 4.913c-.576.823-1.148 1.649-1.715 2.476l.826.561c.565-.824 1.135-1.647 1.71-2.468l-.82-.569zm-3.401 4.962c-.557.83-1.11 1.663-1.657 2.497l.837.544c.545-.831 1.096-1.66 1.651-2.488l-.831-.553zm-3.286 5.003c-.542.845-1.08 1.692-1.613 2.54l.848.527a298.25 298.25 0 011.608-2.531l-.843-.536zm-3.207 5.108a276.51 276.51 0 00-1.564 2.578l.86.509a274.26 274.26 0 011.557-2.568l-.853-.519zm-3.095 5.164c-.506.863-1.006 1.728-1.5 2.595l.87.491c.492-.863.99-1.725 1.494-2.585l-.864-.501zm-2.968 5.198c-.487.874-.968 1.749-1.444 2.626l.88.473c.475-.874.954-1.746 1.44-2.617l-.876-.482zm-2.872 5.295c-.47.891-.935 1.782-1.394 2.676l.89.452c.458-.89.92-1.778 1.39-2.666l-.886-.462zm-2.753 5.358c-.448.895-.889 1.792-1.324 2.689l.9.432c.435-.894.874-1.787 1.32-2.679l-.896-.442zm-2.612 5.384c-.426.903-.845 1.807-1.258 2.712l.911.411c.412-.901.83-1.802 1.253-2.702l-.906-.421zm-2.5 5.476c-.407.922-.808 1.845-1.202 2.768l.92.389c.394-.92.793-1.839 1.199-2.758l-.916-.399zM69 282.324c-.382.925-.757 1.851-1.125 2.777l.93.365c.367-.922.74-1.844 1.12-2.765l-.925-.377zm-2.211 5.558c-.357.932-.708 1.865-1.051 2.799l.94.34c.342-.929.69-1.858 1.046-2.786l-.935-.353zm-2.08 5.649c-.335.95-.663 1.901-.984 2.852l.948.316c.32-.947.647-1.894.981-2.84l-.944-.328zm-1.927 5.707c-.307.952-.606 1.904-.899 2.856l.958.289c.29-.948.589-1.896.894-2.843l-.953-.302zm-1.754 5.713c-.28.961-.553 1.922-.818 2.883l.965.262c.264-.957.535-1.913.814-2.87l-.961-.275zm-1.602 5.808c-.253.974-.499 1.949-.736 2.923l.973.232c.236-.969.48-1.939.732-2.909l-.969-.246zM58 316.605c-.222.974-.435 1.948-.641 2.922l.98.202c.204-.969.417-1.937.637-2.907l-.976-.217zm-1.233 5.842c-.193.987-.377 1.974-.552 2.961l.986.17c.174-.981.357-1.963.548-2.945l-.983-.186zm-1.056 5.94c-.16.992-.31 1.984-.452 2.976l.991.137c.141-.986.291-1.972.45-2.959l-.989-.154zm-.852 5.948c-.124.989-.24 1.979-.346 2.967l.995.103c.106-.983.221-1.966.345-2.95l-.994-.12zm-.64 5.934c-.09 1.006-.172 2.01-.244 3.014l.999.067c.071-.998.152-1.996.242-2.996l-.997-.085zm-.43 6.022a158.699 158.699 0 00-.13 3.001l1 .03c.034-.993.077-1.987.13-2.982l-1-.049zm-.203 5.995c-.015.996-.02 1.992-.015 2.985l1.002-.009c-.005-.987 0-1.976.014-2.966l-1.001-.01zm.03 5.989c.025 1.005.06 2.009.105 3.011l1-.049c-.044-.996-.08-1.993-.104-2.991l-1.001.029zm.272 6.012c.066.999.142 1.996.229 2.991l.998-.091a142.31 142.31 0 01-.228-2.969l-.999.069zm.52 5.97c.108.993.226 1.983.354 2.972l.993-.133a138.61 138.61 0 01-.352-2.95l-.995.111zm.775 5.95c.151.99.313 1.978.486 2.964l.987-.176c-.172-.979-.333-1.959-.483-2.943l-.99.155zm1.037 5.914c.195.981.4 1.96.618 2.936l.977-.22c-.215-.968-.42-1.94-.612-2.914l-.983.198zm1.301 5.857c.239.969.489 1.936.75 2.9l.967-.264a125.24 125.24 0 01-.744-2.878l-.973.242zm1.567 5.783c.283.959.578 1.914.884 2.867l.954-.309a126.91 126.91 0 01-.878-2.844l-.96.286zm1.837 5.715c.33.947.67 1.89 1.022 2.831l.939-.353a126.02 126.02 0 01-1.014-2.808l-.947.33zm2.107 5.625c.37.921.752 1.84 1.145 2.755l.92-.396c-.39-.908-.768-1.82-1.136-2.734l-.93.375zm2.358 5.491c.416.908.844 1.814 1.283 2.715l.9-.439c-.435-.895-.859-1.793-1.272-2.694l-.91.418zm2.635 5.41c.462.895.936 1.785 1.421 2.672l.88-.481c-.482-.88-.952-1.764-1.41-2.651l-.89.46zm2.874 5.255c.496.857 1.003 1.711 1.521 2.562l.856-.522a127.49 127.49 0 01-1.508-2.541l-.868.501zm3.11 5.101c.54.843 1.092 1.682 1.656 2.518l.831-.56a134.125 134.125 0 01-1.644-2.498l-.844.54zm3.381 5.012a133.5 133.5 0 001.764 2.429l.805-.597a131.47 131.47 0 01-1.75-2.411l-.819.579zm3.553 4.781c.607.781 1.225 1.557 1.854 2.33l.779-.631a133.095 133.095 0 01-1.841-2.313l-.792.614zm3.773 4.637c.65.765 1.312 1.526 1.985 2.283l.75-.664a138.118 138.118 0 01-1.97-2.267l-.765.648zm4.035 4.542c.673.725 1.356 1.446 2.049 2.163l.722-.694a147.103 147.103 0 01-2.034-2.149l-.737.68zm4.118 4.262c.7.695 1.41 1.387 2.13 2.075l.694-.722c-.715-.684-1.42-1.371-2.116-2.062l-.708.709zm4.32 4.127c.74.68 1.49 1.356 2.251 2.029l.666-.749c-.756-.668-1.502-1.34-2.237-2.016l-.68.736zm4.564 4.033c.391.332.784.663 1.18.992l.644-.767c-.393-.328-.784-.657-1.172-.987l-.652.762zm1.18.992c.402.336.808.668 1.216.996l.63-.779a85.96 85.96 0 01-1.202-.984l-.644.767zm3.699 2.921a95.622 95.622 0 002.545 1.842l.577-.818a97.633 97.633 0 01-2.519-1.823l-.603.799zm5.145 3.604c.875.574 1.758 1.136 2.649 1.685l.53-.849a113.193 113.193 0 01-2.626-1.671l-.553.835zm5.342 3.3c.903.526 1.813 1.042 2.73 1.548l.487-.874a144.143 144.143 0 01-2.71-1.537l-.507.863zm5.493 3.035c.925.486 1.856.963 2.791 1.432l.453-.893c-.93-.466-1.855-.94-2.775-1.423l-.469.884zm5.606 2.813c.942.453 1.887.899 2.836 1.338l.425-.906c-.945-.437-1.886-.881-2.823-1.331l-.438.899zm5.688 2.638c.953.427 1.909.849 2.866 1.267l.404-.916c-.954-.416-1.906-.836-2.856-1.262l-.414.911zm5.743 2.507c.961.41 1.923.816 2.884 1.219l.392-.921c-.96-.402-1.92-.808-2.879-1.217l-.397.919zm5.774 2.424l1.446.598.387-.923a882.26 882.26 0 01-1.445-.598l-.388.923zm1.446.598l1.414.586.389-.922-1.416-.587-.387.923zm4.217 1.761c.929.393 1.852.785 2.77 1.179l.398-.918c-.919-.394-1.844-.788-2.774-1.18l-.394.919zm5.506 2.36c.906.394 1.807.789 2.703 1.184l.408-.914c-.897-.395-1.8-.791-2.708-1.186l-.403.916zm5.374 2.371c.898.402 1.79.805 2.677 1.208l.418-.909a493.59 493.59 0 00-2.682-1.21l-.413.911zm5.445 2.476c.916.423 1.827.846 2.731 1.27l.429-.904c-.906-.425-1.818-.849-2.737-1.273l-.423.907zm5.427 2.544c.893.426 1.78.851 2.661 1.277l.44-.899c-.883-.427-1.771-.853-2.666-1.279l-.435.901zm5.288 2.557c.888.436 1.77.873 2.646 1.31l.451-.893c-.878-.438-1.762-.876-2.652-1.313l-.445.896zm5.359 2.675c.898.456 1.79.912 2.675 1.368l.463-.887a392.55 392.55 0 00-2.681-1.371l-.457.89zm5.313 2.74c.873.457 1.739.915 2.6 1.374l.474-.882c-.862-.459-1.731-.918-2.606-1.377l-.468.885zm5.163 2.751c.889.481 1.771.963 2.647 1.446l.487-.875c-.878-.484-1.762-.967-2.653-1.449l-.481.878zm5.285 2.912c.872.489 1.738.979 2.598 1.469l.5-.867c-.862-.492-1.73-.983-2.605-1.473l-.493.871zm5.156 2.941c.846.491 1.686.983 2.519 1.475l.513-.86c-.835-.493-1.677-.986-2.526-1.478l-.506.863zm5.081 3.001c.868.522 1.729 1.045 2.583 1.567l.526-.851a393.138 393.138 0 00-2.59-1.572l-.519.856zm5.124 3.138c.84.523 1.673 1.048 2.499 1.572l.541-.843a352.252 352.252 0 00-2.507-1.577l-.533.848zm4.958 3.148c.841.544 1.675 1.088 2.502 1.633l.554-.834a303.068 303.068 0 00-2.509-1.638l-.547.839zm5.012 3.302c.829.557 1.651 1.115 2.466 1.673l.569-.824a322.12 322.12 0 00-2.474-1.678l-.561.829zm4.889 3.348c.801.558 1.594 1.117 2.381 1.677l.583-.814a320.277 320.277 0 00-2.388-1.682l-.576.819zm4.837 3.441c.814.591 1.62 1.181 2.419 1.773l.599-.803c-.802-.593-1.61-1.186-2.427-1.778l-.591.808zm4.793 3.547c.783.592 1.56 1.184 2.329 1.777l.614-.792a316.54 316.54 0 00-2.337-1.782l-.606.797zm4.674 3.6c.793.624 1.579 1.247 2.356 1.871l.63-.779c-.78-.626-1.569-1.252-2.365-1.877l-.621.785zm4.667 3.744c.763.625 1.518 1.25 2.266 1.875l.645-.767c-.75-.627-1.508-1.254-2.273-1.881l-.638.773zm4.517 3.775c.768.656 1.528 1.312 2.281 1.967l.661-.753a311.11 311.11 0 00-2.29-1.974l-.652.76zm4.516 3.936c.737.656 1.467 1.312 2.189 1.969l.677-.739a290.42 290.42 0 00-2.198-1.977l-.668.747zm4.358 3.96c.739.686 1.471 1.372 2.194 2.059l.692-.726a317.194 317.194 0 00-2.202-2.065l-.684.732zm4.343 4.117a318 318 0 012.103 2.059l.707-.71c-.696-.689-1.4-1.378-2.111-2.067l-.699.718zm4.196 4.15c.707.715 1.407 1.429 2.099 2.143l.721-.695a264.215 264.215 0 00-2.106-2.151l-.714.703zm4.154 4.286c.677.714 1.348 1.427 2.011 2.141l.736-.681a304.477 304.477 0 00-2.019-2.149l-.728.689zm4.03 4.336c.674.74 1.34 1.479 2 2.219l.749-.666c-.661-.742-1.33-1.484-2.006-2.226l-.743.673zm3.958 4.436c.648.742 1.289 1.483 1.924 2.223l.762-.65c-.637-.743-1.28-1.487-1.93-2.231l-.756.658zm3.865 4.511c.64.762 1.274 1.524 1.901 2.285l.775-.635c-.63-.764-1.265-1.528-1.908-2.293l-.768.643zm3.764 4.568c.627.775 1.248 1.549 1.862 2.323l.786-.622a312.356 312.356 0 00-1.868-2.33l-.78.629zm3.707 4.668c.609.78 1.212 1.56 1.81 2.34l.796-.609a330.395 330.395 0 00-1.815-2.347l-.791.616zm3.6 4.694c.603.798 1.199 1.596 1.791 2.393l.806-.596a393.653 393.653 0 00-1.796-2.4l-.801.603zm3.551 4.781c.583.796 1.16 1.59 1.733 2.384l.813-.585a420.591 420.591 0 00-1.736-2.39l-.81.591zm3.476 4.817c.577.809 1.15 1.618 1.718 2.426l.82-.577a526.374 526.374 0 00-1.72-2.43l-.818.581zm3.411 4.844a734.69 734.69 0 011.701 2.453l.825-.568a645.209 645.209 0 00-1.702-2.457l-.824.572zm3.386 4.906c.558.816 1.113 1.631 1.666 2.444l.83-.563a1080.71 1080.71 0 00-1.668-2.446l-.828.565zm3.338 4.91l1.665 2.469.832-.559c-.553-.822-1.109-1.645-1.666-2.47l-.831.56zm3.318 4.927l1.66 2.472.832-.558-1.659-2.472-.833.558zm3.32 4.945l1.656 2.46.832-.559-1.655-2.46-.833.559zm3.322 4.927c.558.824 1.115 1.646 1.673 2.465l.829-.563c-.557-.819-1.114-1.64-1.671-2.463l-.831.561zm3.349 4.916c.563.819 1.126 1.636 1.691 2.45l.824-.57a804.339 804.339 0 01-1.688-2.447l-.827.567zm3.395 4.894c.57.812 1.141 1.621 1.715 2.428l.818-.58a420.87 420.87 0 01-1.711-2.423l-.822.575zm3.45 4.848c.581.806 1.166 1.608 1.753 2.408l.809-.592a351.087 351.087 0 01-1.749-2.402l-.813.586zm3.526 4.799c.594.795 1.193 1.587 1.795 2.375l.798-.607a277.017 277.017 0 01-1.79-2.368l-.803.6zm3.616 4.733c.611.783 1.227 1.563 1.848 2.339l.784-.625c-.619-.773-1.232-1.55-1.841-2.33l-.791.616zm3.72 4.652a218.04 218.04 0 001.904 2.292l.768-.643a226.859 226.859 0 01-1.895-2.283l-.777.634zm3.842 4.564a227.2 227.2 0 001.962 2.235l.75-.665a202.868 202.868 0 01-1.952-2.224l-.76.654zm3.961 4.445c.673.733 1.353 1.463 2.041 2.189l.729-.687a187.666 187.666 0 01-2.03-2.178l-.74.676zm4.1 4.329c.692.708 1.393 1.412 2.101 2.113l.707-.71a179.889 179.889 0 01-2.09-2.102l-.718.699zm4.251 4.204c.712.681 1.432 1.358 2.161 2.032l.682-.734a180.56 180.56 0 01-2.149-2.02l-.694.722zm4.367 4.034a168.22 168.22 0 002.259 1.98l.656-.757a166.256 166.256 0 01-2.246-1.968l-.669.745zm4.525 3.895c.759.63 1.527 1.257 2.306 1.88l.628-.78a165.887 165.887 0 01-2.292-1.869l-.642.769zm4.669 3.737c.781.602 1.571 1.201 2.372 1.796l.6-.802a177.284 177.284 0 01-2.358-1.785l-.614.791zm4.768 3.544c.808.579 1.627 1.154 2.455 1.725l.572-.822a178.17 178.17 0 01-2.441-1.715l-.586.812zm4.939 3.406c.815.541 1.638 1.078 2.472 1.612l.543-.842c-.829-.53-1.648-1.064-2.457-1.602l-.558.832zm5.004 3.201c.854.526 1.718 1.049 2.593 1.567l.514-.858c-.87-.516-1.729-1.036-2.578-1.559l-.529.85zm5.137 3.048c.853.488 1.716.972 2.589 1.452l.486-.874c-.868-.478-1.726-.96-2.575-1.445l-.5.867zm5.238 2.883c.879.467 1.769.929 2.669 1.389l.459-.89c-.895-.457-1.78-.917-2.655-1.381l-.473.882zm5.295 2.705c.885.436 1.779.868 2.684 1.297l.433-.902a195.5 195.5 0 01-2.671-1.291l-.446.896zm5.427 2.574c.462.211.927.422 1.394.631l.414-.911c-.465-.209-.928-.418-1.388-.628l-.42.908zm1.393.631c.469.211.938.42 1.407.627l.408-.914c-.466-.205-.933-.413-1.399-.624l-.416.911zm4.215 1.839c.935.394 1.869.779 2.802 1.154l.378-.926c-.927-.374-1.856-.756-2.786-1.149l-.394.921zm5.598 2.252c.93.356 1.86.704 2.788 1.042l.347-.939c-.923-.336-1.847-.681-2.773-1.036l-.362.933zm5.606 2.041c.968.334 1.935.658 2.9.972l.315-.949c-.96-.313-1.922-.635-2.884-.967l-.331.944zm5.793 1.885c.963.295 1.924.58 2.885.855l.28-.96c-.955-.274-1.91-.557-2.868-.85l-.297.955zm5.761 1.652c.969.259 1.936.508 2.902.748l.245-.969a177.28 177.28 0 01-2.884-.744l-.263.965zm5.871 1.456c.989.226 1.975.441 2.961.647l.209-.977c-.979-.205-1.96-.419-2.942-.644l-.228.974zm5.912 1.236c.982.186 1.962.363 2.941.53l.173-.984c-.973-.166-1.947-.342-2.923-.527l-.191.981zm5.919 1.009c1.006.153 2.011.295 3.013.427l.135-.99c-.996-.131-1.994-.273-2.994-.424l-.154.987zm6.016.794c.999.112 1.996.215 2.991.308l.098-.995c-.989-.092-1.98-.194-2.973-.306l-.116.993zm5.971.557c1.013.076 2.024.141 3.032.196l.06-.997a153.75 153.75 0 01-3.013-.195l-.079.996zm6.063.334c1.008.036 2.014.062 3.018.079l.021-.998c-.998-.017-1.997-.043-2.999-.079l-.04.998zm6.024.101c1.005-.002 2.009-.014 3.01-.035l-.017-.998c-.995.021-1.992.032-2.991.034l-.002.999zm6.046-.127a167.44 167.44 0 003.022-.15l-.055-.997c-.999.059-2 .109-3.003.149l.036.998zm6.03-.355c1.001-.077 1.999-.164 2.995-.259l-.092-.995c-.99.095-1.982.182-2.976.259l.073.995zm6.009-.577c1.005-.115 2.007-.239 3.006-.372l-.128-.99c-.994.132-1.99.256-2.988.37l.11.992zm5.997-.798c.994-.15 1.986-.31 2.975-.477l-.164-.985c-.983.167-1.969.325-2.958.475l.147.987zm5.948-1.009c.993-.186 1.984-.381 2.972-.585l-.198-.978c-.983.203-1.968.397-2.955.582l.181.981zm5.928-1.22c.983-.22 1.962-.448 2.939-.684l-.232-.97c-.971.234-1.945.461-2.922.68l.215.974zm5.864-1.417c.978-.253 1.954-.515 2.926-.784l-.264-.962c-.967.268-1.937.528-2.91.78l.248.966zm5.834-1.615c.966-.285 1.93-.577 2.89-.877l-.295-.953c-.955.298-1.914.589-2.875.872l.28.958zm5.763-1.798a185.42 185.42 0 002.866-.968l-.325-.943a198.8 198.8 0 01-2.851.963l.31.948zm5.717-1.98c.947-.344 1.891-.695 2.832-1.053l-.353-.933c-.937.356-1.876.706-2.818 1.048l.339.938zm5.645-2.147c.937-.372 1.87-.751 2.8-1.136l-.38-.922c-.926.383-1.855.76-2.787 1.13l.367.928zm5.588-2.313c.925-.399 1.848-.804 2.767-1.215l-.407-.911c-.915.409-1.833.812-2.754 1.209l.394.917zm5.515-2.466a242.82 242.82 0 002.73-1.288l-.432-.9c-.902.434-1.808.861-2.717 1.283l.419.905zm5.45-2.616c.903-.448 1.803-.901 2.699-1.361l-.455-.887c-.892.457-1.788.909-2.687 1.355l.443.893zm5.377-2.754c.89-.47 1.775-.945 2.657-1.425l-.476-.876c-.879.478-1.761.951-2.647 1.419l.466.882zm5.308-2.888c.881-.493 1.757-.991 2.63-1.494l-.498-.864c-.869.501-1.742.997-2.619 1.488l.487.87zm5.238-3.015a289.4 289.4 0 002.585-1.549l-.518-.853c-.855.519-1.713 1.033-2.575 1.543l.508.859zm5.163-3.134c.857-.533 1.711-1.071 2.56-1.613l-.537-.841c-.846.54-1.697 1.076-2.551 1.608l.528.846zm5.097-3.25c.842-.55 1.68-1.104 2.514-1.661l-.555-.829c-.831.555-1.666 1.107-2.505 1.655l.546.835zm5.017-3.353c.835-.571 1.666-1.145 2.492-1.722l-.572-.817c-.824.575-1.652 1.147-2.484 1.716l.564.823zm4.96-3.464c.818-.584 1.632-1.171 2.442-1.761l-.588-.806c-.807.588-1.619 1.173-2.434 1.755l.58.812zm4.872-3.549c.813-.605 1.621-1.212 2.425-1.822l-.604-.794c-.801.608-1.607 1.214-2.418 1.816l.597.8zm4.825-3.659a347.23 347.23 0 002.372-1.851l-.619-.783c-.784.618-1.572 1.233-2.365 1.846l.612.788zm4.728-3.725c.792-.635 1.579-1.273 2.362-1.912l-.633-.771c-.78.637-1.565 1.273-2.354 1.906l.625.777zm4.694-3.835c.773-.643 1.54-1.287 2.303-1.933l-.646-.76c-.76.644-1.526 1.286-2.297 1.927l.64.766zm4.59-3.885c.771-.664 1.537-1.328 2.298-1.994l-.659-.75c-.759.664-1.523 1.328-2.291 1.989l.652.755zm4.564-3.995c.75-.668 1.495-1.336 2.235-2.006l-.671-.738c-.738.667-1.481 1.334-2.229 2l.665.744zm4.458-4.032c.75-.69 1.495-1.38 2.234-2.07l-.683-.727c-.737.688-1.48 1.376-2.228 2.064l.677.733zm4.434-4.14c.728-.69 1.449-1.379 2.165-2.068l-.693-.718c-.715.688-1.435 1.376-2.16 2.064l.688.722zm4.333-4.171c.73-.713 1.453-1.425 2.17-2.136l-.705-.706c-.715.709-1.436 1.419-2.164 2.13l.699.712zm4.301-4.265c.704-.709 1.402-1.416 2.093-2.122l-.715-.696c-.689.704-1.385 1.41-2.088 2.116l.71.702zm4.219-4.308c.707-.732 1.408-1.463 2.101-2.191l-.725-.686a460.09 460.09 0 01-2.096 2.186l.72.691zm4.158-4.368c.689-.733 1.37-1.464 2.044-2.192l-.735-.676a432.75 432.75 0 01-2.038 2.187l.729.681zm4.116-4.446c.682-.748 1.357-1.491 2.023-2.231l-.744-.666a464.27 464.27 0 01-2.018 2.227l.739.67zm3.996-4.437c.688-.775 1.366-1.543 2.035-2.307l-.753-.655a450.24 450.24 0 01-2.03 2.301l.748.661zm4.022-4.59a435.94 435.94 0 001.929-2.246l-.762-.646c-.631.741-1.273 1.489-1.924 2.242l.757.65zm3.909-4.584c.66-.784 1.308-1.559 1.944-2.327l-.77-.634c-.635.765-1.282 1.539-1.94 2.321l.766.64zm3.82-4.602c.661-.808 1.31-1.605 1.944-2.391l-.778-.625c-.634.785-1.281 1.58-1.941 2.387l.775.629zm3.831-4.744c.627-.787 1.239-1.56 1.836-2.32l-.788-.614c-.595.758-1.206 1.53-1.831 2.315l.783.619zm3.739-4.761a391.21 391.21 0 001.796-2.337l-.796-.602c-.579.759-1.176 1.536-1.791 2.331l.791.608zm3.659-4.795a433.25 433.25 0 001.777-2.383l-.804-.591c-.567.766-1.159 1.559-1.774 2.377l.801.597zm3.594-4.856a328.09 328.09 0 001.717-2.377l-.813-.578c-.537.748-1.108 1.539-1.714 2.371l.81.584zm3.519-4.914c.651-.925 1.228-1.755 1.731-2.484l-.824-.564c-.501.727-1.077 1.554-1.726 2.477l.819.571zm3.438-4.984c.249-.369.437-.648.564-.834a12.752 12.752 0 01.158-.227l.006-.009-.004.006a.125.125 0 00-.017.019c-.005.005-.03.03-.067.057a.503.503 0 01-.556.019l.533-.848a.502.502 0 00-.56.02c-.039.028-.065.055-.073.063a1.123 1.123 0 00-.095.121 9.93 9.93 0 00-.152.219l-.567.838.83.556zm.775-1.13l.816-1.308-.85-.524c-.27.435-.542.87-.815 1.305l.849.527zm2.432-3.918c.535-.869 1.065-1.737 1.592-2.604l-.856-.515c-.526.866-1.055 1.732-1.589 2.599l.853.52zm3.159-5.201c.519-.864 1.033-1.727 1.544-2.59l-.862-.505c-.509.861-1.023 1.723-1.54 2.585l.858.51zm3.063-5.173c.503-.86 1.002-1.719 1.496-2.577l-.867-.495c-.494.856-.992 1.713-1.493 2.572l.864.5zm2.968-5.146c.487-.856.969-1.71 1.448-2.564l-.873-.484c-.478.851-.96 1.704-1.445 2.557l.87.491zm2.894-5.159c.498-.899.99-1.796 1.479-2.693l-.879-.474c-.488.895-.98 1.79-1.476 2.687l.876.48zm2.931-5.378c.48-.894.955-1.787 1.426-2.678l-.885-.463c-.47.89-.945 1.78-1.423 2.672l.882.469zm2.826-5.348c.462-.889.92-1.777 1.374-2.663l-.892-.451c-.452.884-.909 1.77-1.37 2.657l.888.457zm2.722-5.318c.445-.884.885-1.766 1.322-2.648l-.898-.439c-.435.879-.875 1.76-1.319 2.642l.895.445zm2.618-5.288c.44-.904.876-1.808 1.307-2.71l-.904-.427c-.43.9-.865 1.802-1.304 2.704l.901.433zm2.618-5.479c.433-.922.86-1.842 1.283-2.761l-.91-.413c-.421.916-.848 1.834-1.279 2.754l.906.42zm2.538-5.513c.413-.916.822-1.831 1.226-2.744l-.916-.4a428.37 428.37 0 01-1.223 2.737l.913.407zm2.423-5.48c.395-.91.785-1.819 1.17-2.727l-.922-.386c-.384.906-.773 1.812-1.167 2.72l.919.393zm2.311-5.446c.381-.917.757-1.832 1.129-2.747l-.928-.371c-.371.912-.746 1.825-1.126 2.74l.925.378zm2.27-5.592c.376-.947.746-1.892 1.111-2.836l-.934-.356c-.364.941-.733 1.884-1.108 2.828l.931.364zm2.192-5.662c.354-.941.704-1.88 1.049-2.818l-.94-.34c-.344.935-.693 1.871-1.046 2.809l.937.349zm2.068-5.626c.334-.934.664-1.867.988-2.798l-.946-.324c-.323.928-.652 1.858-.985 2.79l.943.332zm1.946-5.588c.32-.946.636-1.891.946-2.835l-.952-.307c-.309.941-.623 1.883-.943 2.826l.949.316zm1.887-5.744c.308-.969.61-1.935.908-2.9l-.958-.29c-.296.962-.597 1.926-.905 2.891l.955.299zm1.782-5.789c.286-.962.567-1.922.842-2.88l-.962-.271c-.275.955-.554 1.912-.84 2.87l.96.281zm1.651-5.748c.264-.955.523-1.908.776-2.859l-.968-.253c-.252.948-.51 1.898-.773 2.85l.965.262zm1.52-5.707c.252-.988.499-1.974.74-2.958l-.973-.233c-.24.98-.486 1.963-.738 2.948l.971.243zm1.448-5.917c.23-.985.454-1.968.673-2.948l-.978-.213c-.217.977-.441 1.957-.67 2.938l.975.223zm1.31-5.885c.207-.977.407-1.952.602-2.926l-.982-.191c-.194.969-.394 1.941-.6 2.915l.98.202zm1.169-5.84c.184-.969.361-1.937.533-2.903l-.986-.17a260.09 260.09 0 01-.531 2.892l.984.181zm1.046-5.886c.166-1.003.326-2.003.48-3.002l-.989-.147a272.34 272.34 0 01-.479 2.989l.988.16zm.924-5.991c.141-.994.276-1.986.405-2.977l-.993-.124a244.54 244.54 0 01-.404 2.965l.992.136zm.774-5.941c.117-.986.228-1.971.332-2.953l-.996-.101c-.104.978-.214 1.958-.33 2.941l.994.113zm.627-5.893c.095-1.01.184-2.018.266-3.023l-.998-.077c-.082 1.001-.17 2.005-.265 3.011l.997.089zm.494-6.045c.07-1.006.133-2.009.189-3.009l-1-.052c-.056.996-.119 1.995-.188 2.996l.999.065zm.339-6.005c.044-.997.081-1.991.111-2.983l-1.001-.026c-.03.987-.067 1.977-.11 2.97l1 .039zm.184-5.952c.018-.996.029-1.99.034-2.981l-1.001-.001c-.005.987-.017 1.976-.034 2.968l1.001.014zm.029-6.013a232.423 232.423 0 00-.046-3.019l-1.001.026c.022.999.037 2.001.046 3.005l1.001-.012zm-.132-6.023a227.07 227.07 0 00-.125-2.991l-1.001.053c.049.99.091 1.982.126 2.977l1-.039zm-.291-5.967c-.062-.99-.131-1.978-.206-2.963l-.998.08c.074.981.143 1.964.204 2.949l1-.066zm-.456-5.97a209.049 209.049 0 00-.293-3.003l-.996.107c.104.994.201 1.991.291 2.989l.998-.093zm-.626-5.992c-.118-.994-.243-1.985-.374-2.974l-.993.135c.131.984.255 1.971.373 2.96l.994-.121zm-.789-5.934c-.145-.984-.297-1.965-.456-2.944l-.988.163c.158.974.309 1.951.453 2.931l.991-.15zm-.956-5.902c-.175-.99-.357-1.977-.545-2.962l-.984.191c.188.98.369 1.963.543 2.949l.986-.178zm-1.131-5.91a217.97 217.97 0 00-.628-2.933l-.978.219c.215.971.423 1.944.625 2.919l.981-.205zm-1.296-5.85c-.229-.97-.465-1.938-.708-2.903l-.971.247c.241.961.476 1.924.705 2.889l.974-.233zm-1.46-5.8a213.15 213.15 0 00-.796-2.898l-.964.274c.271.959.535 1.921.792 2.885l.968-.261zm-1.634-5.781c-.285-.959-.578-1.914-.877-2.868l-.956.302c.298.949.589 1.9.873 2.854l.96-.288zm-1.795-5.72c-.313-.948-.632-1.893-.958-2.836l-.947.329c.324.938.642 1.879.953 2.823l.952-.316zm-1.957-5.659c-.339-.94-.686-1.877-1.039-2.812l-.938.355c.352.931.697 1.864 1.035 2.799l.942-.342zm-2.119-5.609c-.366-.929-.739-1.856-1.118-2.781l-.927.382c.377.92.749 1.843 1.113 2.768l.932-.369zm-2.276-5.546a230.68 230.68 0 00-1.197-2.75l-.916.407c.404.91.801 1.822 1.191 2.737l.922-.394zm-2.432-5.483c-.416-.905-.839-1.808-1.268-2.708l-.905.432c.427.896.848 1.795 1.263 2.696l.91-.42zm-2.575-5.401c-.442-.895-.89-1.787-1.344-2.677l-.893.456c.452.886.898 1.774 1.338 2.665l.899-.444zm-2.727-5.339c-.466-.885-.94-1.767-1.419-2.647l-.88.48c.477.876.948 1.754 1.413 2.635l.886-.468zm-2.875-5.277c-.487-.866-.98-1.73-1.479-2.591l-.867.502c.497.858.987 1.718 1.472 2.58l.874-.491zm-2.994-5.167c-.511-.856-1.028-1.71-1.551-2.561l-.854.524a240.11 240.11 0 011.544 2.55l.861-.513zm-3.137-5.107a235.191 235.191 0 00-1.622-2.53l-.841.545c.544.838 1.083 1.678 1.615 2.52l.848-.535zm-3.279-5.046a248.846 248.846 0 00-1.671-2.47l-.828.566c.561.817 1.116 1.638 1.665 2.46l.834-.556zm-3.373-4.921a264.43 264.43 0 00-1.736-2.436l-.813.586c.582.806 1.158 1.615 1.728 2.426l.821-.576zm-3.504-4.857a255.22 255.22 0 00-1.802-2.406l-.8.604c.604.797 1.202 1.596 1.795 2.397l.807-.595zm-3.637-4.798a254.306 254.306 0 00-1.849-2.353l-.785.622c.619.779 1.233 1.561 1.841 2.344l.793-.613zm-3.715-4.674c-.627-.771-1.259-1.54-1.897-2.306l-.772.639c.636.764 1.266 1.53 1.89 2.298l.779-.631zm-3.825-4.599a274.984 274.984 0 00-1.96-2.278l-.757.656c.656.755 1.306 1.511 1.952 2.27l.765-.648zm-3.949-4.542a299.115 299.115 0 00-2.013-2.241l-.744.672c.674.742 1.342 1.486 2.006 2.233l.751-.664zm-4.022-4.431a276.323 276.323 0 00-2.037-2.176l-.73.686c.682.721 1.359 1.444 2.031 2.169l.736-.679zm-4.103-4.339a281.746 281.746 0 00-2.094-2.149l-.716.701c.701.712 1.396 1.426 2.087 2.142l.723-.694zm-4.217-4.285a308.318 308.318 0 00-2.151-2.122l-.702.715c.719.703 1.434 1.408 2.144 2.115l.709-.708zm-4.298-4.199a323.959 323.959 0 00-2.156-2.048l-.689.728c.721.678 1.438 1.359 2.15 2.041l.695-.721zm-4.339-4.083c-.732-.676-1.469-1.35-2.209-2.022l-.676.74c.739.67 1.473 1.342 2.203 2.016l.682-.734zm-4.445-4.031a369.524 369.524 0 00-2.261-1.996l-.662.752c.756.662 1.507 1.325 2.255 1.99l.668-.746zm-4.548-3.979a392.841 392.841 0 00-2.259-1.924l-.649.763c.755.638 1.506 1.277 2.252 1.919l.656-.758zm-4.54-3.835a394.507 394.507 0 00-2.306-1.898l-.636.774c.77.629 1.536 1.26 2.299 1.893l.643-.769zm-4.636-3.784a339.285 339.285 0 00-2.354-1.874l-.623.784a369.86 369.86 0 012.347 1.869l.63-.779zm-4.731-3.735a369.176 369.176 0 00-2.392-1.843l-.611.794c.799.61 1.594 1.223 2.386 1.837l.617-.788zm-4.757-3.635a399.606 399.606 0 00-2.386-1.78l-.599.803c.797.59 1.591 1.182 2.38 1.775l.605-.798zm-4.794-3.548a408.448 408.448 0 00-2.431-1.757l-.587.812c.812.582 1.62 1.166 2.425 1.752l.593-.807zm-4.883-3.502c-.82-.58-1.645-1.157-2.473-1.733l-.575.82c.826.574 1.649 1.151 2.468 1.729l.58-.816zm-4.96-3.449a457.005 457.005 0 00-2.453-1.667l-.563.828c.819.552 1.635 1.107 2.447 1.663l.569-.824zm-4.927-3.324c-.827-.55-1.659-1.098-2.493-1.645l-.552.836c.832.545 1.662 1.092 2.488 1.641l.557-.832zm-5.006-3.279a523.372 523.372 0 00-2.533-1.622l-.541.842c.846.538 1.688 1.078 2.527 1.619l.547-.839zm-5.086-3.234a489.822 489.822 0 00-2.572-1.601l-.53.85c.859.53 1.715 1.063 2.567 1.597l.535-.846zm-5.103-3.153a451.798 451.798 0 00-2.545-1.54l-.52.856c.85.51 1.697 1.023 2.541 1.537l.524-.853zm-5.109-3.069a531.504 531.504 0 00-2.582-1.519l-.509.863c.862.503 1.721 1.008 2.577 1.515l.514-.859zm-5.182-3.027c-.869-.5-1.741-1-2.617-1.497l-.498.868c.873.497 1.744.995 2.612 1.495l.503-.866zm-5.252-2.984c-.869-.487-1.741-.972-2.616-1.455l-.488.874c.873.482 1.743.966 2.611 1.453l.493-.872zm-5.221-2.886c-.871-.475-1.745-.948-2.621-1.42l-.479.879c.875.471 1.747.944 2.617 1.418l.483-.877zm-5.259-2.83c-.882-.469-1.767-.935-2.654-1.4l-.469.884c.886.464 1.769.93 2.649 1.398l.474-.882zm-5.325-2.79c-.892-.462-1.788-.922-2.686-1.38l-.459.889c.897.458 1.79.917 2.682 1.378l.463-.887zm-5.387-2.75c-.882-.444-1.767-.887-2.654-1.328l-.45.895c.886.44 1.769.882 2.65 1.325l.454-.892zm-5.323-2.646a608.09 608.09 0 00-2.684-1.309l-.44.899c.895.434 1.788.869 2.679 1.306l.445-.896zm-5.383-2.608c-.902-.431-1.806-.861-2.713-1.289l-.431.902c.905.428 1.808.857 2.708 1.288l.436-.901zm-5.441-2.569c-.911-.425-1.826-.849-2.742-1.271l-.423.907c.915.422 1.828.844 2.738 1.269l.427-.905zm-5.481-2.523c-.9-.409-1.803-.817-2.708-1.223l-.414.911c.904.405 1.805.812 2.704 1.221l.418-.909zm-5.43-2.437c-.909-.403-1.821-.805-2.735-1.205l-.405.915c.912.399 1.822.8 2.73 1.203l.41-.913zm-5.483-2.4a573.26 573.26 0 00-2.762-1.186l-.397.918c.921.393 1.84.788 2.757 1.184l.402-.916zm-5.536-2.363c-.928-.391-1.857-.781-2.788-1.168l-.389.921c.93.388 1.858.776 2.783 1.167l.394-.92zm-5.566-2.318a876.27 876.27 0 00-2.753-1.125l-.381.925c.918.373 1.835.748 2.749 1.124l.385-.924zm-5.518-2.241c-.923-.371-1.849-.74-2.777-1.107l-.373.928c.926.367 1.851.736 2.773 1.106l.377-.927zm-5.566-2.206c-.931-.365-1.865-.728-2.801-1.09l-.365.931a905.9 905.9 0 012.797 1.089l.369-.93zm-5.613-2.171c-.94-.359-1.881-.716-2.825-1.072l-.357.934c.942.356 1.882.713 2.82 1.071l.362-.933zm-5.644-2.129c-.928-.346-1.858-.69-2.789-1.034l-.351.937c.931.343 1.859.687 2.786 1.032l.354-.935zm-5.59-2.058c-.935-.341-1.872-.679-2.811-1.017l-.343.94c.938.337 1.874.675 2.808 1.015l.346-.938zm-5.633-2.025a786 786 0 00-2.833-.999l-.336.942c.945.331 1.888.664 2.829.998l.34-.941zm-5.677-1.991c-.949-.329-1.901-.656-2.854-.982l-.328.944c.952.326 1.902.653 2.85.982l.332-.944zm-5.716-1.956c-.938-.317-1.878-.633-2.82-.947l-.321.947c.94.314 1.879.629 2.816.946l.325-.946zm-5.649-1.887c-.945-.311-1.892-.622-2.84-.931l-.315.95c.947.308 1.893.618 2.837.93l.318-.949zm-5.689-1.854a961.47 961.47 0 00-2.859-.915l-.308.952c.954.303 1.905.608 2.856.914l.311-.951zm-5.727-1.822c-.958-.3-1.917-.6-2.878-.898l-.302.953c.96.298 1.918.597 2.875.898l.305-.953zm-5.766-1.789c-.953-.292-1.908-.583-2.864-.873l-.295.956c.956.289 1.909.58 2.861.872l.298-.955zm-5.718-1.732c-.953-.285-1.907-.568-2.862-.851l-.289.958c.955.282 1.908.565 2.86.85l.291-.957zm-5.734-1.694a806.41 806.41 0 00-2.88-.835l-.282.959c.961.277 1.92.555 2.877.835l.285-.959zm-5.769-1.663c-.964-.274-1.93-.548-2.897-.82l-.275.962c.966.271 1.93.544 2.894.818l.278-.96zm-5.803-1.632c-.969-.269-1.939-.537-2.911-.803l-.269.963c.971.266 1.94.534 2.908.802l.272-.962zm-5.785-1.586c-.959-.26-1.92-.519-2.882-.776l-.263.965c.961.257 1.921.515 2.879.775l.266-.964zm-5.771-1.544c-.965-.255-1.931-.508-2.898-.76l-.257.966c.966.252 1.931.505 2.895.76l.26-.966zm-5.803-1.513c-.97-.25-1.941-.498-2.913-.746l-.251.968c.971.247 1.941.495 2.91.745l.254-.967zm-5.834-1.483c-.974-.245-1.95-.489-2.928-.731l-.245.97c.976.241 1.951.485 2.925.729l.248-.968zm-5.848-1.45c-.964-.236-1.93-.47-2.897-.704l-.24.971c.966.233 1.931.468 2.895.703l.242-.97zm-5.802-1.401c-.97-.231-1.94-.461-2.912-.689l-.234.972c.971.228 1.941.458 2.909.689l.237-.972zm-5.831-1.372c-.974-.226-1.949-.451-2.925-.675l-.229.974c.976.223 1.95.448 2.923.674l.231-.973zm-5.858-1.342c-.979-.222-1.958-.442-2.939-.66l-.223.974c.98.219 1.959.439 2.937.66l.225-.974zm-5.885-1.313c-.492-.109-.983-.217-1.476-.324l-.218.975 1.474.324.22-.975zm-1.585.164l-.311.95.046.015.047.01.218-.975zm25.735 604.719l.416-.91-.002-.001-.414.911zm282.204-127.722l-.532.848.848.528.533-.85-.849-.526zM103.255 458.361l-.644.767.644-.767zm43.808 23.762l-.387.922.387-.922zm240.26-376.772c-.482-.155-.964-.308-1.447-.459l-.606 1.906c.477.149.954.301 1.431.454l.622-1.901zm-4.346-1.34c-.967-.285-1.936-.562-2.905-.831l-.544 1.924c.959.266 1.917.54 2.874.822l.575-1.915zm-5.816-1.613c-.972-.252-1.944-.496-2.917-.732l-.481 1.941c.963.233 1.925.474 2.885.724l.513-1.933zm-5.839-1.416c-.976-.22-1.953-.432-2.93-.636l-.418 1.955c.967.202 1.933.411 2.899.629l.449-1.948zm-5.897-1.23c-.99-.19-1.98-.372-2.971-.545l-.354 1.967c.98.172 1.96.351 2.939.539l.386-1.961zm-5.946-1.042c-.992-.157-1.985-.307-2.979-.448l-.291 1.977c.983.14 1.965.288 2.947.444l.323-1.973zm-5.961-.85c-.995-.125-1.99-.243-2.985-.353l-.229 1.986c.985.108 1.97.225 2.954.35l.26-1.982zm-5.986-.66a195.266 195.266 0 00-3.006-.261l-.166 1.99c.992.08 1.983.165 2.975.26l.197-1.99zm-6.014-.475c-1.004-.064-2.007-.12-3.011-.168l-.104 1.995c.993.048 1.986.103 2.979.166l.136-1.993zm-6.022-.29a200.26 200.26 0 00-3.013-.076l-.044 1.997c.995.018 1.989.043 2.983.075l.074-1.996zm-6.026-.107c-1.004-.003-2.009.002-3.014.014l.016 1.997c.995-.012 1.99-.016 2.984-.014l.014-1.997zm-6.027.072c-1.005.027-2.009.061-3.014.103l.075 1.995c.994-.04 1.989-.075 2.984-.101l-.045-1.997zm-6.027.249c-1.004.056-2.008.12-3.012.19l.133 1.992c.994-.07 1.988-.133 2.983-.188l-.104-1.994zm-6.02.422c-.999.084-1.998.175-2.997.273l.188 1.988c.99-.097 1.98-.188 2.97-.271l-.161-1.99zm-5.992.59c-.998.111-1.996.23-2.994.356l.244 1.982c.988-.125 1.977-.243 2.966-.354l-.216-1.985zm-5.984.755c-.997.14-1.992.286-2.988.439l.297 1.974c.987-.152 1.974-.297 2.961-.435l-.27-1.978zm-5.972.918c-.989.166-1.976.338-2.964.516l.35 1.965c.978-.177 1.958-.347 2.937-.511l-.323-1.97zm-5.921 1.071c-.986.192-1.97.39-2.954.594l.4 1.955c.976-.202 1.952-.398 2.929-.588l-.375-1.961zm-5.903 1.226c-.983.217-1.964.441-2.945.67l.45 1.945c.973-.228 1.946-.45 2.92-.665l-.425-1.95zm-5.884 1.378c-.975.241-1.949.488-2.921.742l.498 1.932c.965-.251 1.931-.496 2.897-.736l-.474-1.938zm-5.827 1.517c-.967.265-1.934.535-2.899.811l.545 1.92c.958-.274 1.917-.543 2.876-.805l-.522-1.926zm-5.792 1.658c-.964.289-1.926.583-2.887.883l.591 1.906c.954-.298 1.908-.59 2.864-.876l-.568-1.913zm-5.767 1.8c-.957.311-1.913.628-2.868.95l.635 1.892c.948-.32 1.896-.635 2.846-.943l-.613-1.899zm-5.71 1.928c-.946.331-1.891.668-2.834 1.011l.678 1.876c.936-.34 1.874-.674 2.813-1.003l-.657-1.884zm-5.66 2.054c-.941.354-1.88.712-2.818 1.077l.72 1.86c.931-.361 1.863-.717 2.797-1.068l-.699-1.869zm-5.627 2.185c-.935.375-1.869.755-2.801 1.141l.761 1.844c.925-.383 1.852-.76 2.78-1.132l-.74-1.853zm-5.576 2.306c-.922.393-1.842.79-2.761 1.193l.8 1.828c.912-.4 1.826-.795 2.741-1.185l-.78-1.836zm-5.512 2.417c-.915.413-1.829.831-2.741 1.254l.839 1.811c.905-.42 1.813-.835 2.722-1.246l-.82-1.819zm-5.471 2.538c-.909.433-1.816.87-2.721 1.313l.876 1.792c.899-.439 1.799-.874 2.702-1.304l-.857-1.801zm-5.426 2.653c-.896.449-1.789.903-2.681 1.361l.912 1.775c.885-.456 1.773-.907 2.663-1.353l-.894-1.783zm-5.351 2.751c-.888.467-1.774.94-2.658 1.417l.947 1.756a303.94 303.94 0 012.641-1.408l-.93-1.765zm-5.305 2.861c-.88.486-1.758.977-2.634 1.471l.982 1.737c.87-.491 1.742-.979 2.617-1.461l-.965-1.747zm-5.256 2.969a338.95 338.95 0 00-2.601 1.52l1.015 1.717c.86-.507 1.721-1.01 2.585-1.509l-.999-1.728zm-5.185 3.062c-.859.519-1.716 1.041-2.571 1.568l1.048 1.698c.849-.523 1.701-1.043 2.555-1.558l-1.032-1.708zm-5.128 3.161a340.56 340.56 0 00-2.544 1.618l1.08 1.678c.84-.54 1.683-1.076 2.528-1.608l-1.064-1.688zm-5.074 3.26c-.841.552-1.679 1.107-2.515 1.666l1.111 1.657a372.25 372.25 0 012.499-1.655l-1.095-1.668zm-5.01 3.352c-.829.565-1.655 1.135-2.479 1.708l1.141 1.637c.819-.57 1.641-1.136 2.465-1.699l-1.127-1.646zm-4.944 3.44c-.819.581-1.636 1.166-2.45 1.754l1.171 1.616c.809-.585 1.621-1.167 2.435-1.744l-1.156-1.626zm-4.884 3.531c-.808.596-1.615 1.196-2.418 1.799l1.2 1.594c.799-.6 1.6-1.196 2.404-1.788l-1.186-1.605zm-4.82 3.619c-.797.61-1.592 1.224-2.385 1.841l1.229 1.572c.788-.613 1.578-1.223 2.371-1.83l-1.215-1.583zm-4.753 3.704c-.787.624-1.571 1.252-2.352 1.883l1.257 1.549a347.98 347.98 0 012.338-1.871l-1.243-1.561zm-4.686 3.786a352.4 352.4 0 00-2.317 1.924l1.285 1.527c.765-.641 1.532-1.278 2.303-1.912l-1.271-1.539zm-4.615 3.867c-.765.652-1.527 1.308-2.286 1.967l1.311 1.504c.755-.655 1.512-1.307 2.272-1.955l-1.297-1.516zm-4.554 3.953c-.753.666-1.503 1.334-2.249 2.006l1.337 1.481c.743-.668 1.488-1.333 2.236-1.994l-1.324-1.493zm-4.48 4.03c-.74.678-1.477 1.358-2.211 2.042l1.364 1.457c.73-.68 1.463-1.357 2.198-2.03l-1.351-1.469zm-4.402 4.102c-.728.691-1.453 1.385-2.175 2.082l1.39 1.432c.717-.693 1.438-1.382 2.162-2.069l-1.377-1.445zm-4.338 4.188c-.717.705-1.431 1.412-2.142 2.123l1.415 1.407c.707-.706 1.417-1.41 2.13-2.11l-1.403-1.42zm-4.263 4.263c-.703.716-1.403 1.434-2.099 2.156l1.44 1.382c.692-.717 1.388-1.432 2.087-2.144l-1.428-1.394zm-4.178 4.328c-.689.727-1.374 1.457-2.056 2.189l1.464 1.356a348.66 348.66 0 012.045-2.176l-1.453-1.369zm-4.104 4.406c-.68.744-1.356 1.489-2.028 2.238l1.489 1.329c.668-.744 1.34-1.485 2.016-2.224l-1.477-1.343zm-4.033 4.49c-.665.753-1.325 1.508-1.982 2.266l1.513 1.303c.653-.754 1.309-1.505 1.97-2.253l-1.501-1.316zm-3.94 4.548c-.649.762-1.294 1.527-1.935 2.295l1.537 1.274a341.24 341.24 0 011.923-2.281l-1.525-1.288zm-3.851 4.611a320.77 320.77 0 00-1.906 2.349l1.56 1.245c.627-.78 1.259-1.558 1.895-2.334l-1.549-1.26zm-3.788 4.71c-.622.789-1.241 1.581-1.855 2.375l1.584 1.216c.61-.789 1.225-1.575 1.843-2.36l-1.572-1.231zm-3.684 4.762c-.606.797-1.207 1.597-1.803 2.399l1.606 1.186c.593-.797 1.19-1.592 1.792-2.384l-1.595-1.201zm-3.58 4.81a308.75 308.75 0 00-1.77 2.453l1.628 1.155c.582-.815 1.169-1.627 1.76-2.437l-1.618-1.171zm-3.517 4.921c-.577.825-1.15 1.652-1.718 2.48l1.652 1.122c.564-.822 1.133-1.644 1.707-2.463l-1.64-1.139zm-3.407 4.97c-.558.832-1.111 1.666-1.66 2.501l1.674 1.09c.545-.83 1.095-1.658 1.65-2.485l-1.664-1.106zm-3.29 5.012c-.544.846-1.083 1.694-1.617 2.544l1.696 1.055c.53-.844 1.065-1.686 1.605-2.526l-1.685-1.073zm-3.214 5.117c-.527.859-1.05 1.719-1.566 2.582l1.718 1.019c.513-.856 1.031-1.711 1.555-2.564l-1.707-1.037zm-3.1 5.173c-.507.865-1.008 1.731-1.503 2.599l1.74.983c.491-.862.989-1.722 1.491-2.581l-1.729-1.001zm-2.973 5.207c-.488.875-.97 1.753-1.447 2.631l1.76.945c.474-.872.953-1.743 1.437-2.612l-1.75-.964zm-2.878 5.304c-.471.893-.937 1.787-1.397 2.681l1.782.905c.456-.888.918-1.775 1.386-2.66l-1.77-.926zm-2.758 5.369c-.448.897-.89 1.795-1.327 2.694l1.802.864a254.1 254.1 0 011.317-2.673l-1.792-.885zm-2.617 5.394c-.427.905-.847 1.811-1.26 2.718l1.822.821c.41-.899.827-1.798 1.25-2.696l-1.812-.843zm-2.504 5.487c-.409.924-.81 1.849-1.206 2.774l1.842.777c.392-.918.79-1.835 1.196-2.752l-1.832-.799zm-2.372 5.553c-.383.927-.758 1.855-1.128 2.783l1.861.73c.366-.921.74-1.84 1.118-2.76l-1.851-.753zm-2.216 5.57c-.358.934-.709 1.869-1.053 2.804l1.88.682c.34-.927.689-1.854 1.044-2.78l-1.87-.706zm-2.083 5.661a205.66 205.66 0 00-.988 2.859l1.898.63c.319-.944.645-1.889.978-2.833l-1.888-.656zm-1.932 5.72a205.56 205.56 0 00-.901 2.863l1.914.577c.29-.945.588-1.891.893-2.836l-1.906-.604zm-1.759 5.727a201.96 201.96 0 00-.82 2.89l1.93.522c.264-.954.535-1.908.813-2.862l-1.923-.55zm-1.605 5.821c-.254.977-.5 1.954-.739 2.931l1.946.465c.236-.968.48-1.935.731-2.902l-1.938-.494zm-1.43 5.862a190.6 190.6 0 00-.642 2.929l1.96.404c.204-.966.416-1.932.636-2.899l-1.953-.434zm-1.236 5.856c-.193.99-.377 1.98-.553 2.969l1.972.341c.174-.978.356-1.957.547-2.937l-1.966-.373zm-1.058 5.957c-.16.995-.311 1.99-.454 2.984l1.983.275c.14-.983.29-1.967.448-2.951l-1.977-.308zm-.855 5.965c-.124.992-.24 1.984-.347 2.975l1.99.206c.107-.979.221-1.96.345-2.941l-1.988-.24zm-.642 5.951a165.15 165.15 0 00-.244 3.024l1.998.134c.07-.995.151-1.991.24-2.988l-1.994-.17zm-.432 6.041a159.394 159.394 0 00-.13 3.011l2.001.059c.034-.99.077-1.981.13-2.973l-2-.097zm-.203 6.014c-.014.999-.02 1.998-.014 2.995l2.002-.018c-.005-.984 0-1.97.014-2.957l-2.002-.02zm.03 6.008c.025 1.009.06 2.016.106 3.022l2-.099a155.05 155.05 0 01-.104-2.981l-2.002.058zm.274 6.033c.066 1.002.142 2.003.23 3.001l1.994-.181c-.085-.984-.16-1.971-.226-2.959l-1.998.139zm.521 5.991c.108.996.227 1.99.356 2.982l1.986-.265c-.127-.978-.244-1.958-.35-2.94l-1.992.223zm.778 5.971c.152.994.314 1.985.488 2.975l1.973-.352c-.171-.975-.331-1.952-.48-2.932l-1.98.309zm1.041 5.936c.196.985.402 1.967.62 2.947l1.955-.44c-.214-.965-.418-1.932-.61-2.902l-1.965.395zm1.306 5.879c.24.973.49 1.943.753 2.911l1.933-.528c-.258-.953-.505-1.909-.74-2.867l-1.946.484zm1.573 5.805c.284.962.58 1.922.888 2.878l1.907-.617c-.303-.942-.594-1.886-.874-2.833l-1.922.572zm1.844 5.738c.33.95.673 1.897 1.026 2.841l1.877-.706c-.348-.929-.685-1.861-1.01-2.797l-1.893.662zm2.115 5.646c.371.925.755 1.847 1.15 2.766l1.84-.793c-.388-.904-.765-1.812-1.13-2.722l-1.86.749zm2.368 5.513c.417.912.846 1.821 1.287 2.726l1.803-.878c-.434-.892-.857-1.786-1.268-2.684l-1.822.836zm2.645 5.432c.464.897.94 1.791 1.427 2.682l1.758-.963a125.41 125.41 0 01-1.404-2.64l-1.781.921zm2.885 5.275c.498.86 1.007 1.718 1.527 2.571l1.712-1.042a129.947 129.947 0 01-1.502-2.532l-1.737 1.003zm3.121 5.121a132.28 132.28 0 001.663 2.527l1.663-1.12a129.731 129.731 0 01-1.638-2.489l-1.688 1.082zm3.395 5.031c.579.816 1.169 1.629 1.77 2.437l1.61-1.193a133.008 133.008 0 01-1.743-2.402l-1.637 1.158zm3.566 4.798c.61.784 1.23 1.563 1.86 2.339l1.558-1.263a132.093 132.093 0 01-1.834-2.304l-1.584 1.228zm3.787 4.654c.653.767 1.316 1.531 1.991 2.291l1.502-1.328a137.61 137.61 0 01-1.964-2.259l-1.53 1.296zm4.05 4.558c.674.727 1.36 1.451 2.055 2.171l1.445-1.389a139.78 139.78 0 01-2.028-2.142l-1.473 1.36zm4.13 4.276c.703.698 1.415 1.392 2.137 2.082l1.389-1.444a157.671 157.671 0 01-2.108-2.055l-1.417 1.417zm4.335 4.141c.742.682 1.495 1.361 2.258 2.035l1.332-1.498a152.661 152.661 0 01-2.23-2.008l-1.36 1.471zm4.579 4.045c.391.333.786.665 1.183.996l1.288-1.535c-.392-.326-.782-.654-1.169-.983l-1.302 1.522zm1.183.996c.405.338.812.671 1.223 1.001l1.26-1.557a92.678 92.678 0 01-1.195-.979l-1.288 1.535zm3.719 2.937a98.26 98.26 0 002.558 1.851l1.155-1.636a94.957 94.957 0 01-2.506-1.814l-1.207 1.599zm5.17 3.621c.879.577 1.767 1.141 2.661 1.693l1.059-1.699a110.992 110.992 0 01-2.614-1.664l-1.106 1.67zm5.365 3.314c.907.529 1.82 1.046 2.74 1.554l.975-1.749c-.906-.5-1.807-1.01-2.7-1.53L116.865 469zm5.512 3.046c.928.487 1.862.966 2.8 1.436l.905-1.785a167.29 167.29 0 01-2.766-1.419l-.939 1.768zm5.622 2.821c.944.454 1.892.901 2.842 1.341l.85-1.812c-.942-.436-1.881-.879-2.816-1.328l-.876 1.799zm5.7 2.643c.955.429 1.912.851 2.871 1.269l.809-1.83c-.953-.416-1.904-.836-2.852-1.261l-.828 1.822zm5.751 2.511c.963.411 1.925.817 2.888 1.221l.782-1.842a475.37 475.37 0 01-2.876-1.216l-.794 1.837zm5.779 2.426l1.447.598.773-1.845-1.444-.598-.776 1.845zm1.447.598l1.413.586.778-1.843c-.471-.197-.944-.392-1.418-.588l-.773 1.845zm4.213 1.76c.928.392 1.851.785 2.767 1.177l.798-1.835c-.92-.394-1.846-.788-2.777-1.181l-.788 1.839zm5.501 2.358c.906.393 1.806.788 2.701 1.183l.817-1.827c-.898-.397-1.802-.792-2.711-1.188l-.807 1.832zm5.369 2.369c.897.402 1.789.804 2.675 1.207l.837-1.818c-.89-.405-1.785-.809-2.685-1.212l-.827 1.823zm5.44 2.473c.915.423 1.825.846 2.729 1.27l.858-1.809c-.907-.425-1.821-.85-2.74-1.274l-.847 1.813zm5.422 2.542c.892.425 1.778.85 2.658 1.276l.88-1.798c-.884-.428-1.773-.854-2.669-1.281l-.869 1.803zm5.282 2.554c.887.436 1.768.872 2.644 1.309l.902-1.787c-.879-.439-1.764-.877-2.655-1.314l-.891 1.792zm5.354 2.673c.897.455 1.788.91 2.672 1.366l.926-1.775c-.889-.458-1.783-.915-2.684-1.372l-.914 1.781zm5.306 2.736c.872.457 1.738.914 2.597 1.372l.95-1.762c-.864-.46-1.733-.92-2.609-1.379l-.938 1.769zm5.157 2.748c.888.481 1.77.962 2.644 1.444l.975-1.749a429.77 429.77 0 00-2.657-1.451l-.962 1.756zm5.279 2.908c.872.489 1.737.978 2.595 1.468l1-1.735c-.863-.492-1.732-.984-2.608-1.475l-.987 1.742zm5.15 2.938c.845.491 1.684.981 2.516 1.473l1.025-1.72c-.836-.494-1.679-.987-2.528-1.48l-1.013 1.727zm5.074 2.997c.867.521 1.727 1.043 2.58 1.565l1.053-1.703a378.064 378.064 0 00-2.594-1.573l-1.039 1.711zm5.117 3.133c.839.523 1.671 1.047 2.496 1.571l1.081-1.686c-.83-.527-1.666-1.054-2.51-1.58l-1.067 1.695zm4.951 3.144c.84.543 1.673 1.087 2.498 1.631l1.109-1.668c-.83-.547-1.668-1.094-2.512-1.64l-1.095 1.677zm5.005 3.298c.828.556 1.649 1.113 2.462 1.67l1.138-1.648a296.377 296.377 0 00-2.477-1.68l-1.123 1.658zm4.882 3.342c.799.558 1.591 1.116 2.377 1.675l1.167-1.628c-.79-.562-1.587-1.124-2.392-1.685l-1.152 1.638zm4.829 3.436c.813.59 1.618 1.18 2.415 1.77l1.198-1.606a333.095 333.095 0 00-2.43-1.78l-1.183 1.616zm4.785 3.542c.783.59 1.558 1.182 2.326 1.773l1.228-1.583c-.773-.595-1.553-1.19-2.341-1.785l-1.213 1.595zm4.667 3.594c.792.622 1.576 1.245 2.353 1.868l1.259-1.558a306.565 306.565 0 00-2.369-1.881l-1.243 1.571zm4.66 3.738c.761.623 1.515 1.247 2.261 1.871l1.291-1.533a304.704 304.704 0 00-2.278-1.884l-1.274 1.546zm4.508 3.768c.767.655 1.526 1.309 2.278 1.964l1.321-1.506c-.757-.66-1.521-1.319-2.293-1.978l-1.306 1.52zm4.509 3.929c.736.655 1.464 1.31 2.185 1.966l1.353-1.479c-.727-.66-1.46-1.32-2.202-1.98l-1.336 1.493zm4.35 3.953c.738.685 1.468 1.37 2.19 2.055l1.384-1.45a277.42 277.42 0 00-2.206-2.069l-1.368 1.464zm4.335 4.11c.708.685 1.407 1.37 2.1 2.055l1.413-1.421c-.697-.69-1.402-1.38-2.115-2.069l-1.398 1.435zm4.189 4.143a278.84 278.84 0 012.095 2.139l1.443-1.391a282.825 282.825 0 00-2.11-2.154l-1.428 1.406zm4.146 4.278c.677.712 1.346 1.425 2.008 2.137l1.471-1.361c-.667-.717-1.34-1.435-2.022-2.153l-1.457 1.377zm4.024 4.328a285.02 285.02 0 011.996 2.216l1.499-1.331a288.987 288.987 0 00-2.01-2.231l-1.485 1.346zm3.951 4.429c.647.74 1.287 1.48 1.921 2.22l1.524-1.301c-.638-.745-1.282-1.49-1.933-2.235l-1.512 1.316zm3.858 4.504c.64.761 1.272 1.521 1.899 2.281l1.549-1.271c-.63-.765-1.267-1.531-1.91-2.296l-1.538 1.286zm3.759 4.56c.626.774 1.246 1.548 1.859 2.32l1.572-1.244c-.617-.777-1.24-1.555-1.87-2.334l-1.561 1.258zm3.701 4.661c.608.78 1.211 1.559 1.807 2.337l1.593-1.218c-.6-.782-1.206-1.565-1.817-2.349l-1.583 1.23zm3.595 4.688a390.51 390.51 0 011.789 2.39l1.612-1.193c-.594-.799-1.194-1.6-1.798-2.402l-1.603 1.205zm3.547 4.776c.582.794 1.159 1.588 1.731 2.381l1.627-1.171a477.3 477.3 0 00-1.738-2.392l-1.62 1.182zm3.473 4.811c.576.809 1.148 1.617 1.716 2.424l1.641-1.153c-.57-.809-1.144-1.62-1.723-2.432l-1.634 1.161zm3.408 4.84c.57.818 1.136 1.636 1.699 2.451l1.651-1.136a613.017 613.017 0 00-1.704-2.459l-1.646 1.144zm3.383 4.903c.558.815 1.113 1.63 1.665 2.442l1.66-1.125c-.554-.814-1.11-1.63-1.67-2.448l-1.655 1.131zm3.336 4.908l1.665 2.468 1.664-1.119c-.553-.821-1.109-1.645-1.667-2.47l-1.662 1.121zm3.318 4.926l1.659 2.471 1.666-1.116-1.66-2.472-1.665 1.117zm3.32 4.944l1.656 2.461 1.664-1.119-1.655-2.459-1.665 1.117zm3.323 4.929c.558.824 1.115 1.646 1.674 2.466l1.658-1.127c-.557-.818-1.114-1.639-1.671-2.461l-1.661 1.122zm3.351 4.918c.563.82 1.127 1.638 1.692 2.453l1.649-1.141a500.504 500.504 0 01-1.687-2.445l-1.654 1.133zm3.398 4.898c.57.813 1.142 1.623 1.716 2.431l1.635-1.16a548.416 548.416 0 01-1.709-2.42l-1.642 1.149zm3.453 4.854c.582.807 1.167 1.61 1.756 2.411l1.617-1.184a350.11 350.11 0 01-1.746-2.399l-1.627 1.172zm3.531 4.806c.596.796 1.195 1.589 1.799 2.379l1.594-1.215a298.266 298.266 0 01-1.786-2.363l-1.607 1.199zm3.622 4.741c.613.784 1.23 1.565 1.852 2.343l1.568-1.249c-.617-.772-1.23-1.547-1.837-2.325l-1.583 1.231zm3.728 4.661c.63.769 1.266 1.535 1.908 2.297l1.536-1.287a225.882 225.882 0 01-1.891-2.278l-1.553 1.268zm3.851 4.574c.649.75 1.304 1.497 1.966 2.24l1.5-1.33a201.904 201.904 0 01-1.948-2.218l-1.518 1.308zm3.97 4.456a199.91 199.91 0 002.046 2.195l1.459-1.375c-.683-.72-1.358-1.444-2.026-2.172l-1.479 1.352zm4.111 4.34c.694.71 1.396 1.417 2.107 2.119l1.413-1.421a178.905 178.905 0 01-2.084-2.096l-1.436 1.398zm4.263 4.216c.714.683 1.436 1.362 2.167 2.038l1.364-1.468a179.422 179.422 0 01-2.142-2.014l-1.389 1.444zm4.379 4.046c.746.666 1.502 1.328 2.266 1.986l1.312-1.515c-.755-.65-1.502-1.304-2.239-1.962l-1.339 1.491zm4.538 3.906c.762.632 1.533 1.261 2.313 1.886l1.258-1.56a164.965 164.965 0 01-2.286-1.863l-1.285 1.537zm4.683 3.748c.784.604 1.577 1.205 2.38 1.801l1.201-1.603c-.794-.59-1.577-1.183-2.351-1.78l-1.23 1.582zm4.783 3.555c.811.58 1.632 1.157 2.463 1.73l1.143-1.644a168.85 168.85 0 01-2.434-1.71l-1.172 1.624zm4.954 3.416a165.63 165.63 0 002.479 1.616l1.086-1.682a175.712 175.712 0 01-2.451-1.598l-1.114 1.664zm5.018 3.21c.856.528 1.723 1.052 2.6 1.572l1.029-1.718a178.625 178.625 0 01-2.572-1.554l-1.057 1.7zm5.151 3.057c.855.489 1.72.974 2.595 1.456l.974-1.75a192.43 192.43 0 01-2.568-1.44l-1.001 1.734zm5.251 2.89c.882.468 1.774.932 2.676 1.392l.918-1.778a192.35 192.35 0 01-2.648-1.378l-.946 1.764zm5.308 2.712c.888.437 1.784.87 2.691 1.3l.866-1.804c-.898-.426-1.786-.855-2.664-1.288l-.893 1.792zm5.441 2.58c.463.212.929.423 1.397.633l.828-1.823c-.464-.208-.926-.417-1.385-.626l-.84 1.816zm1.395.632c.471.212.941.422 1.411.629l.816-1.827c-.465-.205-.93-.413-1.395-.623l-.832 1.821zm4.227 1.844c.937.395 1.874.781 2.809 1.157l.756-1.853c-.925-.372-1.851-.753-2.779-1.145l-.786 1.841zm5.612 2.258c.934.358 1.866.706 2.797 1.045l.693-1.877c-.92-.335-1.842-.679-2.765-1.033l-.725 1.865zm5.623 2.047c.97.335 1.94.66 2.908.975l.629-1.899c-.957-.312-1.916-.633-2.876-.964l-.661 1.888zm5.809 1.891c.966.295 1.93.581 2.893.857l.561-1.92c-.952-.273-1.905-.555-2.859-.847l-.595 1.91zm5.778 1.656c.972.26 1.942.51 2.911.75l.491-1.938c-.957-.238-1.915-.485-2.875-.741l-.527 1.929zm5.89 1.46c.991.227 1.981.444 2.969.65l.419-1.955c-.976-.204-1.954-.418-2.933-.642l-.455 1.947zm5.929 1.241c.985.187 1.968.364 2.95.531l.346-1.969c-.97-.165-1.941-.34-2.914-.525l-.382 1.963zm5.938 1.012c1.009.153 2.017.295 3.023.428l.27-1.98c-.993-.131-1.988-.272-2.985-.423l-.308 1.975zm6.035.796c1.002.113 2.002.216 3.001.309l.194-1.989c-.986-.092-1.973-.194-2.963-.305l-.232 1.985zm5.99.559c1.016.076 2.03.141 3.042.197l.118-1.994c-.999-.055-2-.12-3.003-.195l-.157 1.992zm6.082.335c1.011.036 2.02.063 3.028.079l.042-1.997a149.94 149.94 0 01-2.99-.078l-.08 1.996zm6.043.101c1.009-.002 2.015-.014 3.02-.035l-.034-1.996c-.992.02-1.986.032-2.982.034l-.004 1.997zm6.065-.128c1.013-.04 2.023-.09 3.032-.149l-.11-1.994c-.996.058-1.994.108-2.994.148l.072 1.995zm6.049-.355c1.004-.078 2.005-.165 3.003-.26l-.183-1.989c-.987.095-1.976.181-2.967.258l.147 1.991zm6.028-.579c1.007-.115 2.012-.24 3.014-.373l-.257-1.98c-.99.132-1.983.255-2.978.369l.221 1.984zm6.014-.8a173.21 173.21 0 002.984-.479l-.328-1.969c-.98.166-1.963.324-2.949.473l.293 1.975zm5.966-1.012c.996-.187 1.989-.383 2.98-.587l-.397-1.956c-.979.202-1.961.395-2.946.58l.363 1.963zm5.945-1.224c.985-.22 1.968-.449 2.947-.686l-.464-1.941c-.968.234-1.94.461-2.914.679l.431 1.948zm5.881-1.42c.98-.255 1.958-.517 2.933-.787l-.529-1.924c-.964.267-1.931.526-2.901.778l.497 1.933zm5.849-1.62c.969-.286 1.935-.579 2.898-.879l-.59-1.906c-.953.297-1.909.587-2.868.869l.56 1.916zm5.778-1.803c.961-.316 1.919-.64 2.874-.97l-.65-1.887c-.945.328-1.893.648-2.844.961l.62 1.896zm5.732-1.985c.949-.345 1.896-.697 2.839-1.056l-.707-1.865a210 210 0 01-2.811 1.045l.679 1.876zm5.659-2.152c.939-.373 1.874-.753 2.807-1.139l-.762-1.844c-.923.382-1.85.758-2.78 1.128l.735 1.855zm5.6-2.319c.928-.4 1.853-.805 2.774-1.217l-.813-1.822c-.913.408-1.829.81-2.748 1.206l.787 1.833zm5.528-2.471c.915-.425 1.828-.855 2.736-1.291l-.862-1.799c-.901.432-1.805.858-2.712 1.279l.838 1.811zm5.462-2.622c.905-.449 1.807-.903 2.705-1.364l-.909-1.775c-.89.456-1.784.907-2.682 1.352l.886 1.787zm5.389-2.76c.891-.471 1.779-.947 2.663-1.428l-.954-1.752c-.876.477-1.757.949-2.64 1.416l.931 1.764zm5.319-2.894c.882-.494 1.76-.993 2.635-1.496l-.996-1.729c-.868.499-1.739.994-2.614 1.484l.975 1.741zm5.248-3.021c.867-.513 1.73-1.03 2.59-1.552l-1.036-1.705c-.853.518-1.71 1.031-2.57 1.54l1.016 1.717zm5.172-3.139c.859-.535 1.715-1.074 2.566-1.617l-1.074-1.681c-.845.539-1.694 1.074-2.547 1.605l1.055 1.693zm5.107-3.257c.844-.551 1.683-1.105 2.518-1.664l-1.11-1.657c-.829.554-1.663 1.105-2.5 1.651l1.092 1.67zm5.026-3.358c.836-.572 1.669-1.147 2.497-1.726l-1.145-1.634c-.822.575-1.649 1.146-2.479 1.714l1.127 1.646zm4.968-3.471c.82-.585 1.635-1.173 2.447-1.764l-1.177-1.611c-.806.587-1.616 1.172-2.431 1.753l1.161 1.622zm4.88-3.554c.814-.606 1.624-1.214 2.429-1.825l-1.208-1.588c-.8.607-1.605 1.212-2.414 1.813l1.193 1.6zm4.832-3.665c.797-.615 1.589-1.234 2.376-1.854l-1.237-1.565c-.783.616-1.57 1.231-2.361 1.843l1.222 1.576zm4.736-3.73c.793-.637 1.581-1.275 2.365-1.915l-1.266-1.543c-.778.636-1.562 1.271-2.35 1.904l1.251 1.554zm4.701-3.841a373.79 373.79 0 002.306-1.936l-1.292-1.52c-.759.643-1.524 1.284-2.293 1.924l1.279 1.532zm4.596-3.89a383.75 383.75 0 002.301-1.998l-1.318-1.498c-.757.663-1.52 1.325-2.288 1.986l1.305 1.51zm4.571-4.001c.751-.669 1.497-1.338 2.237-2.008l-1.342-1.477c-.736.666-1.478 1.332-2.226 1.997l1.331 1.488zm4.463-4.038c.752-.69 1.497-1.381 2.237-2.072l-1.365-1.455a376.27 376.27 0 01-2.226 2.061l1.354 1.466zm4.44-4.144a396.11 396.11 0 002.168-2.072l-1.387-1.434c-.714.686-1.433 1.374-2.158 2.061l1.377 1.445zm4.339-4.177c.73-.714 1.454-1.426 2.172-2.138l-1.409-1.414c-.714.709-1.435 1.418-2.162 2.128l1.399 1.424zm4.306-4.27c.705-.71 1.404-1.418 2.096-2.124l-1.43-1.393c-.689.703-1.384 1.408-2.085 2.114l1.419 1.403zm4.224-4.313c.708-.734 1.409-1.465 2.103-2.194l-1.45-1.372c-.69.726-1.388 1.454-2.093 2.184l1.44 1.382zm4.163-4.373c.69-.735 1.371-1.466 2.046-2.195l-1.469-1.352c-.671.726-1.35 1.454-2.036 2.185l1.459 1.362zm4.12-4.452c.684-.748 1.359-1.493 2.026-2.233l-1.488-1.331c-.664.737-1.336 1.478-2.016 2.223l1.478 1.341zm4.001-4.442a453.87 453.87 0 002.038-2.309l-1.506-1.311c-.667.761-1.343 1.527-2.028 2.299l1.496 1.321zm4.027-4.595c.653-.756 1.297-1.505 1.931-2.249l-1.523-1.29c-.632.74-1.272 1.486-1.923 2.239l1.515 1.3zm3.913-4.589c.66-.785 1.309-1.561 1.946-2.329l-1.54-1.27a459.81 459.81 0 01-1.938 2.319l1.532 1.28zm3.824-4.607c.662-.809 1.312-1.607 1.947-2.394l-1.558-1.249c-.632.784-1.279 1.578-1.938 2.384l1.549 1.259zm3.836-4.749c.627-.788 1.24-1.563 1.837-2.323l-1.574-1.228c-.595.757-1.205 1.528-1.83 2.313l1.567 1.238zm3.743-4.767c.617-.798 1.217-1.578 1.798-2.339L680.993 601c-.578.758-1.175 1.535-1.789 2.328l1.583 1.217zm3.663-4.801c.617-.821 1.211-1.617 1.78-2.385l-1.61-1.182c-.566.764-1.156 1.556-1.771 2.373l1.601 1.194zm3.598-4.861c.608-.835 1.182-1.629 1.72-2.381l-1.627-1.156c-.536.747-1.106 1.537-1.711 2.367l1.618 1.17zm3.525-4.922c.651-.926 1.23-1.757 1.733-2.487l-1.649-1.127c-.5.725-1.074 1.551-1.722 2.472l1.638 1.142zm3.442-4.991l.564-.833c.063-.093.107-.156.134-.193.014-.021.016-.023.009-.014 0 0-.021.027-.053.061-.011.011-.061.064-.136.118a1.003 1.003 0 01-1.114.038l1.065-1.696a1.004 1.004 0 00-1.118.039c-.077.055-.128.109-.142.123a1.061 1.061 0 00-.074.087c-.025.031-.049.064-.068.09a220.403 220.403 0 00-.726 1.068l1.659 1.112zm.785-1.145c.273-.436.546-.872.817-1.308l-1.7-1.049-.814 1.304 1.697 1.053zm2.435-3.921c.535-.87 1.066-1.739 1.593-2.606l-1.712-1.03c-.525.864-1.054 1.73-1.587 2.597l1.706 1.039zm3.162-5.206c.519-.865 1.034-1.729 1.545-2.592l-1.724-1.01c-.509.859-1.022 1.72-1.539 2.582l1.718 1.02zm3.066-5.178c.503-.861 1.002-1.72 1.497-2.579l-1.735-.99c-.493.855-.99 1.711-1.491 2.569l1.729 1zm2.97-5.151c.487-.857.971-1.712 1.45-2.566l-1.747-.97c-.477.851-.958 1.703-1.444 2.555l1.741.981zm2.897-5.164c.498-.9.992-1.798 1.481-2.696l-1.759-.948c-.487.894-.978 1.788-1.474 2.685l1.752.959zm2.934-5.384c.481-.895.956-1.788 1.428-2.681l-1.771-.925c-.469.888-.943 1.778-1.421 2.669l1.764.937zm2.829-5.354c.463-.889.922-1.778 1.376-2.665l-1.783-.902c-.452.883-.909 1.768-1.37 2.653l1.777.914zm2.725-5.323c.445-.885.887-1.769 1.323-2.651l-1.795-.878c-.434.878-.874 1.757-1.317 2.638l1.789.891zm2.621-5.294c.441-.906.877-1.81 1.309-2.714l-1.807-.853c-.43.899-.864 1.799-1.303 2.701l1.801.866zm2.622-5.486c.433-.923.861-1.844 1.284-2.764l-1.819-.827c-.422.916-.848 1.833-1.279 2.751l1.814.84zm2.54-5.52c.414-.917.823-1.833 1.228-2.747l-1.832-.8c-.403.91-.81 1.821-1.222 2.734l1.826.813zm2.427-5.486c.395-.912.785-1.822 1.171-2.731l-1.844-.772c-.384.904-.772 1.81-1.165 2.717l1.838.786zm2.314-5.453c.381-.918.758-1.835 1.13-2.751l-1.856-.743c-.37.911-.745 1.823-1.124 2.736l1.85.758zm2.273-5.6c.376-.948.747-1.895 1.112-2.84l-1.868-.712c-.363.94-.732 1.881-1.106 2.824l1.862.728zm2.194-5.67c.355-.942.706-1.882 1.051-2.821l-1.88-.681c-.343.933-.692 1.869-1.045 2.805l1.874.697zm2.071-5.633c.335-.936.665-1.87.99-2.803l-1.892-.648c-.323.927-.651 1.856-.984 2.786l1.886.665zm1.949-5.597c.321-.948.637-1.894.947-2.839l-1.903-.615c-.308.939-.622 1.88-.941 2.822l1.897.632zm1.89-5.753c.308-.97.612-1.938.909-2.904l-1.914-.579c-.296.96-.597 1.922-.904 2.886l1.909.597zm1.785-5.798c.287-.963.568-1.924.843-2.884l-1.925-.542a350.31 350.31 0 01-.837 2.865l1.919.561zm1.654-5.757a331.1 331.1 0 00.777-2.864l-1.935-.505c-.252.947-.51 1.895-.773 2.845l1.931.524zm1.522-5.717c.253-.989.5-1.977.741-2.963l-1.945-.466c-.24.979-.485 1.96-.737 2.943l1.941.486zm1.451-5.927c.23-.986.455-1.971.673-2.953l-1.955-.425c-.217.975-.44 1.953-.669 2.932l1.951.446zm1.312-5.895c.207-.979.408-1.956.603-2.931l-1.964-.383c-.194.968-.393 1.938-.599 2.91l1.96.404zm1.171-5.85c.184-.972.362-1.941.534-2.909l-1.972-.34c-.171.96-.347 1.922-.53 2.887l1.968.362zm1.048-5.898c.166-1.004.327-2.006.481-3.007l-1.979-.295c-.153.992-.313 1.987-.478 2.984l1.976.318zm.925-6.002c.142-.996.278-1.99.407-2.982l-1.986-.25a241.09 241.09 0 01-.404 2.96l1.983.272zm.776-5.953c.117-.988.228-1.974.333-2.958l-1.992-.203c-.103.977-.213 1.955-.329 2.935l1.988.226zm.629-5.904c.095-1.012.184-2.022.266-3.03l-1.996-.154c-.082.999-.17 2.001-.264 3.005l1.994.179zm.495-6.058c.069-1.007.132-2.012.189-3.015l-2-.104c-.056.994-.118 1.991-.187 2.99l1.998.129zm.339-6.017c.044-.999.081-1.995.112-2.989l-2.002-.054c-.031.986-.067 1.974-.111 2.964l2.001.079zm.184-5.965c.018-.998.03-1.994.035-2.988l-2.003-.001c-.005.985-.016 1.972-.034 2.961l2.002.028zm.03-6.027c-.009-1.01-.024-2.019-.046-3.025l-2.002.052c.021.997.037 1.997.045 2.998l2.003-.025zm-.132-6.036c-.036-1.001-.078-2-.126-2.997l-2.001.105c.049.988.09 1.978.125 2.971l2.002-.079zm-.293-5.98c-.062-.993-.13-1.982-.206-2.97l-1.997.16c.075.978.143 1.959.205 2.942l1.998-.132zm-.457-5.984c-.09-1.006-.188-2.009-.293-3.01l-1.992.215c.104.992.201 1.986.291 2.982l1.994-.187zm-.627-6.006a207.31 207.31 0 00-.375-2.981l-1.985.271c.13.982.254 1.966.371 2.953l1.989-.243zm-.791-5.947a205.87 205.87 0 00-.456-2.952l-1.977.326c.157.973.308 1.947.452 2.924l1.981-.298zm-.958-5.916c-.175-.993-.357-1.983-.546-2.97l-1.968.382c.188.978.368 1.959.542 2.942l1.972-.354zm-1.134-5.925c-.203-.982-.412-1.962-.629-2.939l-1.955.438c.214.968.422 1.939.622 2.912l1.962-.411zm-1.298-5.864a202.16 202.16 0 00-.711-2.909l-1.942.494c.241.958.476 1.918.703 2.881l1.95-.466zm-1.464-5.814c-.259-.971-.526-1.939-.798-2.905l-1.928.55c.27.956.534 1.915.791 2.877l1.935-.522zm-1.638-5.794a202.88 202.88 0 00-.879-2.875l-1.912.604c.297.947.588 1.896.872 2.847l1.919-.576zm-1.8-5.733c-.313-.951-.633-1.898-.96-2.844l-1.893.658c.323.937.64 1.875.951 2.817l1.902-.631zm-1.96-5.673c-.341-.942-.689-1.882-1.043-2.819l-1.874.711c.351.928.695 1.859 1.032 2.792l1.885-.684zm-2.125-5.622c-.367-.932-.741-1.861-1.121-2.787l-1.854.763c.377.918.747 1.838 1.111 2.761l1.864-.737zm-2.281-5.559c-.394-.922-.794-1.841-1.2-2.757l-1.832.814c.403.908.799 1.819 1.188 2.731l1.844-.788zm-2.437-5.496c-.418-.907-.842-1.812-1.272-2.714l-1.809.864c.426.894.846 1.79 1.26 2.69l1.821-.84zm-2.582-5.413c-.443-.897-.892-1.791-1.347-2.683l-1.786.912c.452.884.897 1.77 1.336 2.659l1.797-.888zm-2.732-5.351c-.468-.887-.942-1.771-1.423-2.653l-1.76.96c.476.873.946 1.75 1.41 2.629l1.773-.936zm-2.882-5.289a230.89 230.89 0 00-1.482-2.596l-1.735 1.004c.496.856.986 1.714 1.469 2.575l1.748-.983zm-3-5.178a233.455 233.455 0 00-1.555-2.566l-1.708 1.048c.519.846 1.033 1.694 1.541 2.545l1.722-1.027zm-3.144-5.117a252.857 252.857 0 00-1.625-2.536l-1.682 1.091c.543.836 1.08 1.674 1.611 2.515l1.696-1.07zm-3.286-5.057a233.675 233.675 0 00-1.675-2.475l-1.655 1.132c.56.816 1.114 1.634 1.662 2.455l1.668-1.112zm-3.38-4.931a252.334 252.334 0 00-1.739-2.44l-1.627 1.17c.581.805 1.156 1.612 1.725 2.422l1.641-1.152zm-3.511-4.866c-.596-.807-1.198-1.61-1.805-2.411l-1.6 1.208c.603.795 1.2 1.593 1.792 2.393l1.613-1.19zm-3.644-4.808a255.154 255.154 0 00-1.852-2.357l-1.571 1.244c.618.778 1.23 1.558 1.838 2.34l1.585-1.227zm-3.721-4.682a273.86 273.86 0 00-1.901-2.311l-1.544 1.279c.634.762 1.263 1.527 1.887 2.294l1.558-1.262zm-3.833-4.608a275.886 275.886 0 00-1.963-2.282l-1.515 1.312c.655.753 1.304 1.509 1.949 2.266l1.529-1.296zm-3.956-4.55a263.457 263.457 0 00-2.017-2.245l-1.487 1.343c.673.741 1.34 1.485 2.003 2.23l1.501-1.328zm-4.028-4.439a319.516 319.516 0 00-2.041-2.18l-1.459 1.374c.68.719 1.356 1.441 2.026 2.165l1.474-1.359zm-4.11-4.346c-.695-.72-1.394-1.438-2.098-2.153l-1.432 1.402c.699.711 1.394 1.424 2.084 2.139l1.446-1.388zm-4.224-4.292a309.05 309.05 0 00-2.155-2.125l-1.404 1.43c.718.701 1.432 1.405 2.14 2.111l1.419-1.416zm-4.305-4.206a302.196 302.196 0 00-2.16-2.051l-1.377 1.456c.72.677 1.435 1.356 2.146 2.038l1.391-1.443zm-4.346-4.089a332.276 332.276 0 00-2.213-2.025l-1.35 1.48c.737.669 1.47 1.34 2.199 2.013l1.364-1.468zm-4.451-4.037a403.301 403.301 0 00-2.265-1.999l-1.324 1.504c.755.661 1.505 1.323 2.251 1.987l1.338-1.492zm-4.556-3.984a305.065 305.065 0 00-2.261-1.927l-1.298 1.526c.753.637 1.503 1.275 2.249 1.916l1.31-1.515zm-4.546-3.841a364.837 364.837 0 00-2.309-1.901l-1.273 1.548c.77.628 1.535 1.258 2.297 1.89l1.285-1.537zm-4.642-3.79a372.913 372.913 0 00-2.357-1.876l-1.247 1.568c.785.62 1.567 1.242 2.344 1.866l1.26-1.558zm-4.737-3.74a378.663 378.663 0 00-2.396-1.845l-1.222 1.587c.798.61 1.593 1.222 2.383 1.836l1.235-1.578zm-4.763-3.639c-.793-.596-1.59-1.19-2.39-1.783l-1.197 1.606c.796.589 1.588 1.18 2.377 1.773l1.21-1.596zm-4.801-3.553a444.66 444.66 0 00-2.433-1.759l-1.174 1.623c.811.582 1.618 1.165 2.421 1.75l1.186-1.614zm-4.888-3.506c-.822-.58-1.647-1.159-2.476-1.735l-1.15 1.64c.825.574 1.646 1.149 2.464 1.727l1.162-1.632zm-4.966-3.453a439.947 439.947 0 00-2.456-1.669l-1.127 1.656c.818.552 1.633 1.106 2.445 1.661l1.138-1.648zm-4.933-3.327c-.829-.551-1.661-1.1-2.496-1.647l-1.104 1.67c.831.545 1.66 1.092 2.485 1.64l1.115-1.663zm-5.012-3.283a423.26 423.26 0 00-2.536-1.625l-1.082 1.685c.845.538 1.687 1.077 2.525 1.618l1.093-1.678zm-5.091-3.238c-.855-.536-1.713-1.07-2.575-1.602l-1.06 1.699c.858.53 1.713 1.061 2.564 1.595l1.071-1.692zm-5.109-3.157a477.523 477.523 0 00-2.548-1.541l-1.038 1.712c.849.51 1.694 1.022 2.537 1.535l1.049-1.706zm-5.114-3.072c-.859-.508-1.72-1.015-2.585-1.52l-1.017 1.725a458.04 458.04 0 012.574 1.514l1.028-1.719zm-5.187-3.029c-.87-.502-1.743-1.001-2.62-1.499l-.996 1.736c.872.496 1.742.994 2.609 1.493l1.007-1.73zm-5.257-2.987c-.87-.488-1.743-.973-2.619-1.457l-.976 1.747c.872.483 1.742.967 2.608 1.452l.987-1.742zm-5.226-2.889c-.872-.476-1.747-.95-2.624-1.422l-.957 1.759c.874.47 1.746.942 2.614 1.416l.967-1.753zm-5.264-2.833c-.883-.469-1.769-.936-2.657-1.402l-.937 1.769c.885.464 1.767.929 2.647 1.397l.947-1.764zm-5.33-2.793a562.66 562.66 0 00-2.688-1.381l-.918 1.779c.895.457 1.788.916 2.679 1.376l.927-1.774zm-5.392-2.751a597.63 597.63 0 00-2.656-1.33l-.899 1.789c.885.44 1.767.881 2.647 1.324l.908-1.783zm-5.327-2.649c-.893-.438-1.789-.875-2.687-1.31l-.881 1.797c.895.434 1.787.869 2.677 1.306l.891-1.793zm-5.388-2.61a569.94 569.94 0 00-2.715-1.291l-.863 1.806c.904.427 1.807.856 2.706 1.286l.872-1.801zm-5.445-2.572c-.913-.425-1.827-.849-2.745-1.271l-.845 1.814c.914.421 1.826.843 2.736 1.267l.854-1.81zm-5.486-2.525c-.901-.409-1.804-.817-2.71-1.224l-.828 1.822c.903.405 1.803.812 2.702 1.22l.836-1.818zm-5.434-2.438a525.3 525.3 0 00-2.737-1.206l-.811 1.829c.912.4 1.821.8 2.729 1.202l.819-1.825zm-5.488-2.402c-.919-.398-1.84-.793-2.763-1.188l-.795 1.837c.921.393 1.839.788 2.756 1.184l.802-1.833zm-5.54-2.366c-.928-.391-1.858-.78-2.79-1.168l-.778 1.843c.93.387 1.857.776 2.782 1.166l.786-1.841zm-5.57-2.319c-.916-.376-1.834-.752-2.754-1.125l-.762 1.85c.917.373 1.833.747 2.746 1.122l.77-1.847zm-5.521-2.242c-.925-.371-1.851-.741-2.779-1.109l-.746 1.857c.925.367 1.849.735 2.771 1.105l.754-1.853zm-5.57-2.208c-.932-.365-1.867-.728-2.803-1.09l-.731 1.862c.934.361 1.866.724 2.795 1.088l.739-1.86zm-5.618-2.172c-.94-.359-1.882-.717-2.826-1.073l-.715 1.868c.941.356 1.881.712 2.818 1.07l.723-1.865zm-5.647-2.131c-.929-.346-1.859-.691-2.791-1.034l-.701 1.874c.93.342 1.858.686 2.784 1.031l.708-1.871zm-5.593-2.06c-.936-.34-1.874-.679-2.814-1.017l-.685 1.88c.937.336 1.872.675 2.805 1.014l.694-1.877zm-5.638-2.025c-.943-.335-1.888-.669-2.834-1.001l-.672 1.885c.945.331 1.887.664 2.828.998l.678-1.882zm-5.68-1.992c-.95-.329-1.902-.657-2.855-.984l-.657 1.89c.951.325 1.901.652 2.848.981l.664-1.887zm-5.72-1.958a931.31 931.31 0 00-2.821-.948l-.643 1.894c.94.314 1.878.63 2.815.946l.649-1.892zm-5.652-1.888c-.946-.312-1.893-.622-2.842-.931l-.629 1.898c.947.309 1.891.619 2.834.93l.637-1.897zm-5.692-1.855a636.68 636.68 0 00-2.861-.915l-.616 1.903c.953.303 1.904.607 2.854.913l.623-1.901zm-5.731-1.823c-.958-.301-1.918-.601-2.88-.899l-.602 1.907c.959.298 1.917.597 2.873.897l.609-1.905zm-5.769-1.79c-.954-.293-1.909-.584-2.866-.873l-.589 1.911c.955.289 1.908.579 2.86.871l.595-1.909zm-5.721-1.733c-.953-.285-1.908-.569-2.864-.851l-.577 1.915c.954.282 1.907.565 2.858.849l.583-1.913zm-5.737-1.695c-.96-.28-1.92-.559-2.882-.836l-.564 1.919c.96.277 1.919.555 2.876.834l.57-1.917zm-5.772-1.664c-.965-.275-1.932-.548-2.899-.82l-.551 1.922c.965.272 1.93.545 2.892.819l.558-1.921zm-5.807-1.633c-.969-.269-1.94-.537-2.912-.804l-.539 1.926c.97.267 1.939.534 2.907.803l.544-1.925zm-5.788-1.587c-.96-.26-1.921-.519-2.883-.776l-.526 1.929c.96.257 1.919.515 2.877.775l.532-1.928zm-5.774-1.545c-.965-.254-1.932-.508-2.899-.76l-.514 1.932c.965.252 1.929.505 2.892.759l.521-1.931zm-5.806-1.514c-.97-.25-1.942-.498-2.914-.746l-.503 1.936c.971.247 1.941.495 2.909.744l.508-1.934zm-5.836-1.484c-.976-.244-1.952-.488-2.93-.73l-.49 1.938c.975.242 1.95.485 2.923.729l.497-1.937zm-5.851-1.45c-.966-.236-1.932-.47-2.9-.704l-.478 1.941c.965.233 1.93.468 2.893.703l.485-1.94zm-5.806-1.401c-.97-.232-1.941-.462-2.913-.69l-.468 1.944c.971.228 1.94.458 2.908.688l.473-1.942zm-5.833-1.373c-.975-.226-1.951-.451-2.927-.675l-.457 1.946 2.922.674.462-1.945zm-5.861-1.343c-.979-.222-1.96-.442-2.941-.661l-.445 1.949c.98.219 1.958.439 2.935.66l.451-1.948zm-5.888-1.314l-1.476-.324-.437 1.951 1.473.323.44-1.95z" fill="#3CCB21" mask="url(#a)"/></g><defs><linearGradient id="paint0_linear" x1="137.778" y1="223.403" x2="254.508" y2="574.605" gradientUnits="userSpaceOnUse"><stop stop-color="#28FEFE" stop-opacity=".3"/><stop offset="1" stop-color="#33C9E0"/></linearGradient></defs></svg>