<svg width="305" height="599" fill="none" xmlns="http://www.w3.org/2000/svg"><path fill-rule="evenodd" clip-rule="evenodd" d="M-35.988 37.514C-56.343 47.896-76.462 60.128-95.981 73.82c1.455 33.46 3.068 66.641 4.68 92.345 4.412 74.988 15.805 203.419 17.75 225.145 2.189 2.906 1.57 9.522.31 11.811.323 10.4 3.358 107.463 6.722 195.119a431.271 431.271 0 0030.544-.651c-.561-71.496-1.526-143.86-1.526-143.86l.185-.075c-.141-2.046-.728-11.637.029-20.213l.317.046c-.082-.429-.103-.69-.103-.69s1.28-115.283 1.28-238.294c0-47.862-.065-104.397-.195-156.99zm16.649 398.718c.8 4.65.381 15.936-.039 19.107l-.005.004c-.042 2.824-.347 24.341-.687 76.229 6.64-15.874 15.956-35.198 25.999-50.419 15.092-22.874 43.232-51.256 60.718-65.747-5.852 20.079-18.839 57.54-36.413 83.113-13.97 20.329-35.273 39.404-47.015 49.917a927.539 927.539 0 00-3.413 3.065l-.02 3.696-.017 2.867c-.051 9.078-.075 22.211-.076 38.296 130.411-12.942 277.26-94.591 316.144-250.514C336.595 182.409 235.941 0 101.672 0c-7.102 0-14.281.36-21.52 1.062-27.88 51.259-53.681 99.835-80.564 150.955-4.373 8.135-8.7 16.385-13.046 24.671v.002a5975.313 5975.313 0 01-6.117 11.641l-.015 11.646c-.06 45.262-.052 83.704-.01 115.584 5.119-12.362 13.582-29.853 22.708-43.01 11.446-16.502 32.545-36.817 45.603-47.137-4.629 14.611-14.78 41.836-28.091 60.273-10.58 14.656-26.512 28.268-35.294 35.771v.001c-2.106 1.799-3.8 3.246-4.912 4.273.12 74.569.423 109.963.423 109.963s-.043.207-.176.537zm-.208-266.703c3.79-7.223 7.571-14.41 11.387-21.511C17.71 98.873 42.722 51.736 69.55 2.326 40.41 6.441 10.459 15.863-19.203 29.402c-.136 41.95-.263 89.663-.344 140.127zM-122.79 407.054l.118.029a6.095 6.095 0 00-.188.274s1.558 22.363 3.949 57.068a17636.884 17636.884 0 01-11.501-35.439c-4.247-13.23-7.154-21.96-7.786-23.703-10.464-29.389-31.144-94.812-31.201-95.573l-.398.155c-2.774-11.039-7.764-29.275-12.803-43.499-6.648-18.767-23.924-42.455-33.74-53.648 2.012 16.04 8.287 43.788 16.247 61.597 7.145 15.987 18.477 33.345 26.134 43.347l.238.755.001.002v.002l.002.004c3.386 10.711 10.58 33.467 17.643 54.918-11.645-9.014-33.425-25.127-51.518-36.471-8.078-5.065-18.117-9.658-28.569-13.629-2.64-9.752-5.299-19.598-7.98-29.558-4.39-16.293-8.554-32.23-12.84-48.635v-.002l-.264-1.008c29.978-49.491 72.086-97.892 119.995-138.37 4.902 101.202 12.939 264.157 14.22 290.104a6.584 6.584 0 01-.151-.008c0-.322-1.61 6.762.322 11.27l.07.018zm-119.572-86.079c-16.737-5.9-33.749-10.162-44.871-12.192 12.194 11.96 33.28 29.387 52.982 42.077 12.32 45.259 24.362 88.915 36.603 132.961a343.486 343.486 0 00-14.51-5.814c4.883 6.864 11.849 15.584 19.693 24.444 3.368 12.096 6.756 24.241 10.173 36.478 2.918 10.631 5.919 21.344 8.933 32.106l.007.026.002.005c.939 3.354 1.88 6.712 2.82 10.074-78.386-27.405-133.946-89.014-133.946-194.434 0-42.292 16.196-89.553 43.34-136.12 3.843 14.698 7.633 29.139 11.657 44.024 2.388 8.87 4.759 17.654 7.117 26.365zm65.407 217.028c-2.508-8.973-4.998-17.889-7.473-26.765 8.265 8.735 17.005 17.045 25.027 23.232 14.239 10.98 33.145 21.485 47.218 28.297.72 10.614 1.454 21.453 2.193 32.407-18.929-2.464-37.161-6.418-54.366-11.961-1.216-4.355-2.434-8.704-3.65-13.046l-.009-.029c-3.017-10.771-6.02-21.494-8.94-32.135zm34.053-23.359c12.075 9.68 22.086 20.823 29.472 29.783a94394.727 94394.727 0 00-3.606-52.734c-4.465-13.523-10.052-30.673-16.708-51.107v-.002l-2.979-9.143c-1.544-4.815-2.942-9.246-4.108-12.938-1.796-5.687-3.039-9.624-3.41-10.527-2.378-6.52-5.235-14.828-8.245-23.818-15.773-3.63-44.483-12.885-66.793-24.505a165.876 165.876 0 01-8.25-4.621c12.171 44.681 24.078 87.834 36.242 131.575 15.866 7.129 34.461 16.874 48.385 28.037z" fill="url(#paint0_linear)" fill-opacity=".16"/><defs><linearGradient id="paint0_linear" x1="-285.716" y1="484.818" x2="305.243" y2="393.509" gradientUnits="userSpaceOnUse"><stop stop-color="#3FC400" stop-opacity=".79"/><stop offset="1" stop-color="#6BD518" stop-opacity=".15"/></linearGradient></defs></svg>