<svg width="22" height="17" fill="none" xmlns="http://www.w3.org/2000/svg"><path d="M14.686 1.388h0a.662.662 0 00-.964 0m.964 0l-.782.172m.782-.172l6.369 6.738a.718.718 0 010 .978l-6.37 6.738a.657.657 0 01-.963 0 .717.717 0 010-.979s0 0 0 0l5.245-5.549m-4.281-7.926l4.281 7.926m-5.245-7.926l.182.172m-.182-.172s0 0 0 0l.182.172m-.182-.172a.717.717 0 000 .979l5.245 5.549M13.904 1.56a.467.467 0 000 .635l5.407 5.72h-.344m0 0H1.042c-.386 0-.675.327-.675.7 0 .373.289.7.675.7h17.925m0-1.4l.237.25H1.042c-.235 0-.425.202-.425.45s.19.45.425.45l17.925.25" fill="#fff" stroke="#fff" stroke-width=".5"/></svg>