<svg width="96" height="100" fill="none" xmlns="http://www.w3.org/2000/svg"><path d="M94.479 57.575c-4.097 18.998-26.483 30.727-29.185 27.947-5.419-5.576 7.716-10.736 11.184-22.098 1.091-11.197-3.414-27.155 6.162-31.964 5.48-2.751 14.897 6.945 11.839 26.115z" fill="url(#paint0_linear)"/><path fill-rule="evenodd" clip-rule="evenodd" d="M24.315 9.713C16.642 13.445 8.491 20.405 4.572 30.78c-6.776 17.936-2.857 31.155 1.576 32.859 6.55 2.518 7.754-6.21 9.11-16.043.67-4.86 1.379-9.99 2.788-14.167 2.971-5.412 9.847-8.666 12.292-10.495l.38-15.649-6.403 2.428zm6.023 13.221c5.803-3.675 11.277-7.337 11.409-13.2.074-3.283-4.739-4.145-11.03-2.449l-.139 4.966-.24 10.683z" fill="url(#paint1_linear)" fill-opacity=".65"/><path fill-rule="evenodd" clip-rule="evenodd" d="M37.965 98.926c18.176-1.077 45.306-13.833 51.226-41.133 5.92-27.3-8.7-57.77-28.202-57.77-7.735 0-18.616 6-28.929 14.89l-2.205 2.11-4.111 3.773C12.718 33.874 2 50.828 2 64.618c0 26.47 16.42 35.466 35.965 34.308z" fill="url(#paint2_linear)" fill-opacity=".4"/><path fill-rule="evenodd" clip-rule="evenodd" d="M25.744 23.753C13.326 34.243 3.89 48.807 3.89 60.476c0 20.703 16.402 28.473 34.68 27.572 17.602-.866 38.425-11.558 43.75-32.91 5.325-21.353-7.826-45.184-25.367-45.184-8.035 0-16.822 3.528-24.892 9.001l-.705.568-3.5 2.5-2.11 1.73z" fill="url(#paint3_linear)"/><path d="M66.081 46.702l-22.123-7.625a1.406 1.406 0 0 0-.916 0l-22.123 7.625A1.35 1.35 0 0 0 20 47.969c0 .57.366 1.079.916 1.27l22.123 7.683a1.404 1.404 0 0 0 .922 0l22.123-7.683c.55-.191.917-.7.916-1.27 0-.57-.369-1.077-.919-1.267zm.817 19.411v-15.25l-4.264 1.242v14.008c-1.285.607-2.15 1.743-2.15 3.045 0 1.302.865 2.439 2.15 3.045V92.5c0 .966 1.188-1 2.366-1 1.178 0 1.898-.534 1.898-1.5V72.203c1.285-.606 2.15-1.742 2.15-3.045 0-1.302-.865-2.438-2.15-3.045z" fill="#fff"/><path d="M43 60.027c-.479 0-.95-.086-1.402-.257L29 55v6.537c0 1.599 1.567 2.952 4.656 4.02C36.35 66.486 39.668 67 43 67s6.65-.513 9.344-1.444c3.09-1.067 4.656-2.42 4.656-4.02V55l-12.598 4.77c-.452.17-.923.257-1.402.257z" fill="#fff"/><defs><linearGradient id="paint0_linear" x1="85.346" y1="31.196" x2="75.981" y2="85.886" gradientUnits="userSpaceOnUse"><stop stop-color="#FFEC00" stop-opacity=".75"/><stop offset=".414" stop-color="#F5F13C" stop-opacity=".6"/><stop offset="1" stop-color="#F5F13C" stop-opacity=".46"/></linearGradient><linearGradient id="paint1_linear" x1="23.236" y1="-3.031" x2="-5.959" y2="44.601" gradientUnits="userSpaceOnUse"><stop stop-color="#4AFFD4"/><stop offset="1" stop-color="#30B3C7"/></linearGradient><linearGradient id="paint2_linear" x1="56.579" y1=".023" x2="16.851" y2="95.45" gradientUnits="userSpaceOnUse"><stop stop-color="#99FF1E"/><stop offset="1" stop-color="#99FF1E" stop-opacity=".43"/></linearGradient><linearGradient id="paint3_linear" x1="43.703" y1="9.954" x2="25.236" y2="95.251" gradientUnits="userSpaceOnUse"><stop stop-color="#01B313"/><stop offset="1" stop-color="#78EE1B" stop-opacity=".6"/></linearGradient></defs></svg>