<svg width="97" height="99" fill="none" xmlns="http://www.w3.org/2000/svg"><path d="M95.479 58.575c-4.097 18.998-26.483 30.727-29.185 27.947-5.419-5.576 7.716-10.736 11.184-22.098 1.091-11.197-3.414-27.155 6.162-31.964 5.48-2.751 14.897 6.945 11.839 26.115z" fill="url(#paint0_linear)"/><path fill-rule="evenodd" clip-rule="evenodd" d="M25.927 9.772C18.167 13.319 9.851 20.08 5.683 30.359-1.52 48.127 2.08 61.436 6.47 63.246c6.488 2.675 7.901-6.02 9.494-15.819.787-4.843 1.618-9.955 3.127-14.097 3.1-5.338 10.053-8.426 12.541-10.196L32.386 7.5l-6.459 2.273zm5.704 13.362c5.89-3.534 11.45-7.064 11.722-12.923.153-3.28-4.637-4.256-10.967-2.712l-.258 4.961-.497 10.674z" fill="url(#paint1_linear)" fill-opacity=".65"/><path fill-rule="evenodd" clip-rule="evenodd" d="M38.965 98.902C57.141 97.826 84.271 85.07 90.191 57.77 96.11 30.47 81.49 0 61.989 0 54.255 0 43.373 5.999 33.06 14.89L30.855 17l-4.111 3.773C13.718 33.85 3 50.804 3 64.594c0 26.47 16.42 35.466 35.965 34.308z" fill="url(#paint2_linear)" fill-opacity=".4"/><path fill-rule="evenodd" clip-rule="evenodd" d="M26.744 23.73C14.326 34.218 4.889 48.783 4.889 60.451c0 20.704 16.402 28.473 34.68 27.573 17.602-.867 38.425-11.558 43.75-32.91C88.644 33.76 75.493 9.93 57.952 9.93c-8.035 0-16.822 3.53-24.892 9.002l-.705.568-3.5 2.5-2.111 1.73z" fill="url(#paint3_linear)"/><path d="M46 42.14c-1.455 0-2.637 1.132-2.637 2.523 0 1.392 1.182 2.524 2.637 2.524s2.637-1.132 2.637-2.524c0-1.39-1.182-2.523-2.637-2.523z" fill="#fff"/><path d="M58.231 55.805c-.882 0-1.698.248-2.407.652l-3.12-3.006c1.9-2.192 3.063-4.994 3.063-8.066 0-3.073-1.145-5.892-3.043-8.085l3.1-2.988a4.843 4.843 0 002.407.652c2.629 0 4.769-2.062 4.769-4.597 0-2.536-2.14-4.598-4.769-4.598s-4.769 2.062-4.769 4.598c0 .85.257 1.637.676 2.32l-3.1 2.988a13.348 13.348 0 00-8.386-2.933c-3.187 0-6.11 1.104-8.385 2.933l-3.1-2.988-2.08-2.123L12.809 14 11 16.615l15.826 15.257 2.711 2.615 2.715 2.852c-1.898 2.194-2.715 4.973-2.715 8.046 0 3.072 1.164 5.874 3.063 8.066l-3.12 3.006a4.85 4.85 0 00-2.407-.652c-2.628 0-4.769 2.062-4.769 4.598 0 2.535 2.14 4.597 4.77 4.597 2.628 0 4.768-2.062 4.768-4.597 0-.85-.256-1.637-.675-2.32l3.106-2.995c.391.314.798.61 1.226.879V53.43c0-3.803 3.209-6.896 7.153-6.896-2.629 0-4.769-2.062-4.769-4.597 0-2.536 2.14-4.598 4.77-4.598 2.628 0 4.768 2.062 4.768 4.598 0 2.535-2.14 4.597-4.769 4.597 3.945 0 7.154 3.093 7.154 6.896v2.537c.427-.27.834-.565 1.225-.879l3.107 2.994a4.42 4.42 0 00-.676 2.32c0 2.536 2.14 4.598 4.769 4.598S63 62.938 63 60.403c0-2.536-2.14-4.598-4.769-4.598z" fill="#fff"/><path d="M37.883 41.937c0 2.535 2.14 4.597 4.77 4.597 2.628 0 4.768-2.062 4.768-4.597 0-2.536-2.14-4.598-4.769-4.598s-4.769 2.062-4.769 4.598z" fill="#fff"/><ellipse cx="43" cy="45.5" rx="13" ry="12.5" fill="#fff"/><path d="M45.67 44.656a1 1 0 010 1.688l-4.634 2.944a1 1 0 01-1.536-.845v-5.886a1 1 0 011.536-.845l4.635 2.944z" fill="#45D02D"/><circle cx="16.5" cy="19.5" r="5.5" fill="#fff"/><defs><linearGradient id="paint0_linear" x1="86.346" y1="32.196" x2="76.981" y2="86.886" gradientUnits="userSpaceOnUse"><stop stop-color="#FFEC00" stop-opacity=".75"/><stop offset=".414" stop-color="#F5F13C" stop-opacity=".6"/><stop offset="1" stop-color="#F5F13C" stop-opacity=".46"/></linearGradient><linearGradient id="paint1_linear" x1="25.155" y1="-2.994" x2="-5.176" y2="43.923" gradientUnits="userSpaceOnUse"><stop stop-color="#4AFFD4"/><stop offset="1" stop-color="#30B3C7"/></linearGradient><linearGradient id="paint2_linear" x1="57.579" y1="0" x2="17.851" y2="95.427" gradientUnits="userSpaceOnUse"><stop stop-color="#99FF1E"/><stop offset="1" stop-color="#99FF1E" stop-opacity=".43"/></linearGradient><linearGradient id="paint3_linear" x1="44.702" y1="9.93" x2="26.236" y2="95.227" gradientUnits="userSpaceOnUse"><stop stop-color="#01B313"/><stop offset="1" stop-color="#78EE1B" stop-opacity=".6"/></linearGradient></defs></svg>