<svg width="96" height="100" fill="none" xmlns="http://www.w3.org/2000/svg"><path d="M94.479 57.575c-4.097 18.998-26.483 30.727-29.185 27.947-5.42-5.576 7.716-10.736 11.184-22.098 1.091-11.197-3.414-27.155 6.162-31.964 5.48-2.751 14.897 6.945 11.839 26.115z" fill="url(#paint0_linear)"/><path fill-rule="evenodd" clip-rule="evenodd" d="M24.563 10.72c-7.71 3.658-15.927 10.538-19.947 20.875-6.95 17.87-3.16 31.126 1.256 32.873 6.526 2.582 7.814-6.134 9.266-15.954.718-4.853 1.476-9.977 2.925-14.14 3.024-5.382 9.932-8.57 12.394-10.374l.531-15.645-6.425 2.365zM30.457 24c5.839-3.619 11.348-7.228 11.536-13.09.106-3.281-4.698-4.19-11.005-2.555l-.187 4.965L30.457 24z" fill="url(#paint1_linear)" fill-opacity=".65"/><path fill-rule="evenodd" clip-rule="evenodd" d="M37.965 99.902C56.14 98.826 83.27 86.07 89.19 58.77 95.11 31.47 80.492 1 60.99 1c-7.736 0-18.617 5.999-28.93 14.89L29.855 18l-4.111 3.773C12.718 34.85 2 51.804 2 65.594c0 26.47 16.42 35.466 35.965 34.308z" fill="url(#paint2_linear)" fill-opacity=".4"/><path fill-rule="evenodd" clip-rule="evenodd" d="M25.744 24.73C13.326 35.218 3.889 49.783 3.889 61.451c0 20.704 16.402 28.473 34.68 27.573 17.602-.867 38.425-11.558 43.75-32.91C87.644 34.76 74.493 10.93 56.952 10.93c-8.035 0-16.822 3.53-24.892 9.002l-.705.568-3.5 2.5-2.111 1.73z" fill="url(#paint3_linear)"/><path d="M51.782 23.21c-.987-1.542-1.642-3.491-1.769-5.42-.08-1.239.215-2.538.855-3.76 1.004-1.92 2.73-3 4.396-4.041 1.243-.778 2.418-1.512 3.25-2.561l.148-.187c.491-.616 1.046-1.314 1.134-1.9C59.796.433 59.599-.003 61 0c.64.041 1.227.405 1.227 1.004v24.81c1.024-.58 2.284-.935 3.665-.935 3.367 0 6.108 2.045 6.108 4.56C72 31.955 69.259 34 65.892 34c-3.367 0-6.108-2.045-6.108-4.56V16.15c-1.835.654-4.838 2.321-5.664 6.214.154.212.3.44.472.622a1.084 1.084 0 01-.11 1.608c-.504.42-1.276.37-1.723-.103a8.509 8.509 0 01-.896-1.176.716.716 0 01-.081-.105zm-4.94 25.852l-1.114-2.237-1.114 2.237-2.49.36 1.802 1.74-.425 2.459 2.227-1.16 2.227 1.16-.425-2.46 1.802-1.74-2.49-.359z" fill="#fff"/><path d="M59.718 49.95c0-7.646-6.276-13.95-13.99-13.95s-13.99 6.304-13.99 13.95c0 2.654.758 5.235 2.196 7.46L45.73 75l10.823-16.267a13.82 13.82 0 003.164-8.783zm-8.385 8.277l-5.605-2.92-5.605 2.92 1.07-6.185-4.534-4.381 6.266-.904 2.803-5.627 2.803 5.627 6.266.904-4.535 4.38 1.071 6.186z" fill="#fff"/><defs><linearGradient id="paint0_linear" x1="85.346" y1="31.196" x2="75.981" y2="85.886" gradientUnits="userSpaceOnUse"><stop stop-color="#FFEC00" stop-opacity=".75"/><stop offset=".414" stop-color="#F5F13C" stop-opacity=".6"/><stop offset="1" stop-color="#F5F13C" stop-opacity=".46"/></linearGradient><linearGradient id="paint1_linear" x1="23.608" y1="-2.033" x2="-6.049" y2="45.313" gradientUnits="userSpaceOnUse"><stop stop-color="#4AFFD4"/><stop offset="1" stop-color="#30B3C7"/></linearGradient><linearGradient id="paint2_linear" x1="56.579" y1="1" x2="16.851" y2="96.427" gradientUnits="userSpaceOnUse"><stop stop-color="#99FF1E"/><stop offset="1" stop-color="#99FF1E" stop-opacity=".43"/></linearGradient><linearGradient id="paint3_linear" x1="43.702" y1="10.93" x2="25.236" y2="96.227" gradientUnits="userSpaceOnUse"><stop stop-color="#01B313"/><stop offset="1" stop-color="#78EE1B" stop-opacity=".6"/></linearGradient></defs></svg>