<svg width="97" height="99" fill="none" xmlns="http://www.w3.org/2000/svg"><path d="M95.479 56.575c-4.097 18.998-26.483 30.727-29.185 27.947-5.419-5.576 7.716-10.736 11.184-22.098 1.091-11.197-3.414-27.155 6.162-31.964 5.48-2.751 14.897 6.945 11.839 26.115z" fill="url(#paint0_linear)"/><path fill-rule="evenodd" clip-rule="evenodd" d="M26.226 9.817c-7.802 3.456-16.196 10.12-20.484 20.348-7.413 17.682-3.97 31.032.4 32.894 6.455 2.751 7.97-5.928 9.678-15.706.844-4.834 1.735-9.936 3.292-14.06 3.164-5.3 10.151-8.307 12.66-10.048l.939-15.625-6.485 2.197zm5.546 13.428c5.931-3.465 11.532-6.929 11.874-12.784.19-3.278-4.588-4.31-10.935-2.841l-.317 4.958-.622 10.667z" fill="url(#paint1_linear)" fill-opacity=".65"/><path fill-rule="evenodd" clip-rule="evenodd" d="M38.965 98.902C57.141 97.826 84.271 85.07 90.191 57.77 96.11 30.47 81.49 0 61.99 0c-7.736 0-18.617 5.999-28.93 14.89L30.855 17l-4.111 3.773C13.718 33.85 3 50.804 3 64.594c0 26.47 16.42 35.466 35.965 34.308z" fill="url(#paint2_linear)" fill-opacity=".4"/><path fill-rule="evenodd" clip-rule="evenodd" d="M26.744 23.73C14.326 34.218 4.89 48.783 4.89 60.451c0 20.704 16.402 28.473 34.68 27.573 17.602-.867 38.425-11.558 43.75-32.91C88.644 33.76 75.494 9.93 57.952 9.93c-8.035 0-16.822 3.53-24.891 9.002l-.706.568-3.5 2.5-2.11 1.73z" fill="url(#paint3_linear)"/><path d="M36.465 44.97a.483.483 0 0 1-.423-.478l-.01-2.21-3.375.015.009 2.21a.483.483 0 0 1-.42.48s-.623 2.131 2.119 2.12c2.742-.012 2.1-2.138 2.1-2.138z" fill="#fff"/><path d="M40.753 47.705a2.183 2.183 0 0 0-1.335-2.09c-.773-.34-2.234-.555-2.953-.646l-.004.006a2.704 2.704 0 0 1-4.214.012c-.718.096-2.177.324-2.948.671-.837.378-1.303 1.223-1.278 2.091v3.35a1 1 0 0 0 1 1h10.731a1 1 0 0 0 1-1.001c-.002-1.894-.006-3.104 0-3.393z" fill="#fff"/><path d="M40.753 47.705a2.183 2.183 0 0 0-1.335-2.09c-.773-.34-2.234-.555-2.953-.646l-.004.006a2.685 2.685 0 0 1-1.142.836 2.17 2.17 0 0 1 .979 1.894c-.007.289-.002 1.5 0 3.393a1 1 0 0 1-1 1.001h4.454a1 1 0 0 0 1-1.001c-.002-1.894-.006-3.104 0-3.393zm-2.382-8.675v-2.193A2.838 2.838 0 0 0 35.533 34h-2.348a2.838 2.838 0 0 0-2.837 2.837v2.193h8.023z" fill="#fff"/><path d="M35.534 34h-1.582l.003 5.03h4.416v-2.193A2.837 2.837 0 0 0 35.534 34z" fill="#fff"/><path d="M37.485 39.03c-.38 0-.688-.539-.688-.919v-.707a.673.673 0 0 0-.949-.614c-.538.241-.912.362-1.489.362-.576 0-.95-.12-1.488-.362a.674.674 0 0 0-.95.614v.707c0 .38-.307.918-.687.918h-.886c0 1.167.683 1.364.683 1.364a3.329 3.329 0 0 0 6.657 0s.683-.197.683-1.364h-.886z" fill="#fff"/><path d="M37.485 39.03c-.38 0-.688-.539-.688-.919v-.707a.673.673 0 0 0-.949-.614c-.538.241-.912.362-1.489.362-.146 0-.279-.008-.405-.023l.002 4.236c0 .815-.293 1.561-.779 2.14a3.329 3.329 0 0 0 4.511-3.112s.683-.197.683-1.364h-.886zm21.218 22.84a.483.483 0 0 1-.424-.477l-.009-2.21-3.376.014.01 2.21a.483.483 0 0 1-.42.48s-.624 2.131 2.118 2.12c2.742-.012 2.1-2.137 2.1-2.137z" fill="#fff"/><path d="M62.99 64.606a2.183 2.183 0 0 0-1.334-2.09c-.774-.34-2.234-.556-2.953-.646l-.005.005a2.704 2.704 0 0 1-4.214.013c-.718.096-2.177.324-2.947.67-.838.378-1.304 1.223-1.279 2.091V68a1 1 0 0 0 1 1H61.99a1 1 0 0 0 1-1c-.002-1.894-.007-3.105 0-3.393z" fill="#fff"/><path d="M62.99 64.606a2.183 2.183 0 0 0-1.334-2.09c-.774-.34-2.234-.556-2.953-.646l-.005.005a2.685 2.685 0 0 1-1.142.836 2.17 2.17 0 0 1 .98 1.895c-.008.288-.003 1.499 0 3.392A1 1 0 0 1 57.534 69h4.455a1 1 0 0 0 1-1.002c-.002-1.893-.007-3.104 0-3.392zm-2.38-8.676v-2.192a2.837 2.837 0 0 0-2.838-2.838h-2.348a2.838 2.838 0 0 0-2.838 2.838v2.192h8.023z" fill="#fff"/><path d="M57.77 50.9h-1.58l.002 5.03h4.416v-2.192a2.838 2.838 0 0 0-2.837-2.838z" fill="#fff"/><path d="M59.722 55.93c-.38 0-.688-.538-.688-.918v-.707a.673.673 0 0 0-.949-.615c-.538.242-.911.362-1.488.362s-.95-.12-1.489-.362a.674.674 0 0 0-.95.615v.707c0 .38-.307.918-.687.918h-.886c0 1.166.683 1.363.683 1.363a3.329 3.329 0 0 0 6.657 0s.683-.197.683-1.363h-.886z" fill="#fff"/><path d="M59.722 55.93c-.38 0-.687-.538-.687-.918v-.707a.673.673 0 0 0-.95-.615c-.538.242-.911.362-1.488.362a3.31 3.31 0 0 1-.406-.023l.002 4.237c0 .815-.293 1.56-.778 2.139a3.329 3.329 0 0 0 4.51-3.112s.683-.197.683-1.363h-.886zm.696-20.975h-9.093a2.57 2.57 0 0 0-2.57 2.569.193.193 0 0 1-.193.193h-4.314a.186.186 0 0 0-.109.338l4.334 3.11a.677.677 0 0 1 .282.55v2.732a2.57 2.57 0 0 0 2.57 2.57h9.093a2.57 2.57 0 0 0 2.57-2.57v-6.923a2.57 2.57 0 0 0-2.57-2.57z" fill="#fff"/><path d="M60.418 34.955h-4.455a2.57 2.57 0 0 1 2.57 2.569v6.923a2.57 2.57 0 0 1-2.57 2.57h4.455a2.57 2.57 0 0 0 2.57-2.57v-6.923a2.57 2.57 0 0 0-2.57-2.57zm-29.84 21.027h9.094a2.57 2.57 0 0 1 2.57 2.57c0 .106.086.193.193.193h4.314c.181 0 .256.232.109.338l-4.334 3.109a.677.677 0 0 0-.283.55v2.733a2.57 2.57 0 0 1-2.569 2.57H30.58a2.57 2.57 0 0 1-2.57-2.57v-6.923a2.57 2.57 0 0 1 2.57-2.57z" fill="#fff"/><path d="M46.749 58.745h-4.314a.193.193 0 0 1-.194-.193 2.57 2.57 0 0 0-2.569-2.57h-4.464a2.57 2.57 0 0 1 2.57 2.57v6.923a2.57 2.57 0 0 1-2.57 2.57h4.464a2.57 2.57 0 0 0 2.57-2.57v-2.733c0-.218.105-.423.282-.55l4.334-3.11a.186.186 0 0 0-.109-.337z" fill="#fff"/><defs><linearGradient id="paint0_linear" x1="86.346" y1="30.196" x2="76.981" y2="84.886" gradientUnits="userSpaceOnUse"><stop stop-color="#FFEC00" stop-opacity=".75"/><stop offset=".414" stop-color="#F5F13C" stop-opacity=".6"/><stop offset="1" stop-color="#F5F13C" stop-opacity=".46"/></linearGradient><linearGradient id="paint1_linear" x1="25.603" y1="-2.957" x2="-5.277" y2="43.6" gradientUnits="userSpaceOnUse"><stop stop-color="#4AFFD4"/><stop offset="1" stop-color="#30B3C7"/></linearGradient><linearGradient id="paint2_linear" x1="57.579" y1="0" x2="17.851" y2="95.427" gradientUnits="userSpaceOnUse"><stop stop-color="#99FF1E"/><stop offset="1" stop-color="#99FF1E" stop-opacity=".43"/></linearGradient><linearGradient id="paint3_linear" x1="44.703" y1="9.93" x2="26.236" y2="95.227" gradientUnits="userSpaceOnUse"><stop stop-color="#01B313"/><stop offset="1" stop-color="#78EE1B" stop-opacity=".6"/></linearGradient></defs></svg>