<svg width="97" height="99" fill="none" xmlns="http://www.w3.org/2000/svg"><path d="M95.479 58.575c-4.097 18.998-26.483 30.727-29.185 27.947-5.419-5.576 7.716-10.736 11.184-22.098 1.091-11.197-3.414-27.155 6.162-31.964 5.48-2.751 14.897 6.945 11.839 26.115z" fill="url(#paint0_linear)"/><path fill-rule="evenodd" clip-rule="evenodd" d="M25.683 9.788C17.907 13.302 9.563 20.027 5.35 30.286c-7.283 17.737-3.74 31.062.642 32.891 6.475 2.703 7.927-5.986 9.562-15.777.808-4.84 1.662-9.948 3.189-14.083 3.124-5.325 10.09-8.383 12.585-10.142l.824-15.631-6.469 2.244zm5.645 13.387c5.906-3.508 11.481-7.014 11.78-12.871.166-3.279-4.62-4.277-10.956-2.76l-.28 4.96-.544 10.671z" fill="url(#paint1_linear)" fill-opacity=".65"/><path fill-rule="evenodd" clip-rule="evenodd" d="M38.61 98.902C56.785 97.826 83.915 85.07 89.835 57.77c5.92-27.3-8.7-57.77-28.2-57.77-7.736 0-18.617 5.999-28.93 14.89L30.5 17l-4.112 3.773C13.363 33.85 2.645 50.804 2.645 64.594c0 26.47 16.42 35.466 35.965 34.308z" fill="url(#paint2_linear)" fill-opacity=".4"/><path fill-rule="evenodd" clip-rule="evenodd" d="M26.389 23.73C13.97 34.218 4.534 48.783 4.534 60.451c0 20.704 16.402 28.473 34.679 27.573 17.602-.867 38.425-11.558 43.75-32.91C88.288 33.76 75.138 9.93 57.596 9.93c-8.034 0-16.82 3.53-24.89 9.002L32 19.5 28.5 22l-2.111 1.73z" fill="url(#paint3_linear)"/><path d="M2.436 73h7.37V60.192h-7.37c-.793 0-1.436.574-1.436 1.281V71.72c0 .707.643 1.28 1.436 1.28zm43.274-9.91l-9.389 4.786H25.598c-.793 0-1.435-.574-1.435-1.28 0-.709.642-1.282 1.435-1.282h7.179c1.586 0 2.871-1.147 2.871-2.561 0-1.415-1.285-2.562-2.871-2.562h-8.614c-3.616-1.613-7.87-1.613-11.486 0v12.808h24.407c.5 0 .991-.116 1.424-.337l10.05-5.124c1.377-.702 1.855-2.266 1.069-3.495-.785-1.227-2.54-1.653-3.918-.953zm8.653-20.958c-1.98 1.436-4.395 2.433-7.025 2.925-.265 1.82-1.885 3.225-3.838 3.225s-3.573-1.404-3.838-3.225c-2.63-.492-5.046-1.489-7.025-2.925-2.99-2.17-4.637-5.08-4.637-8.192v15.966c0 2.387 2.007 4.329 4.473 4.329h22.054c2.466 0 4.473-1.942 4.473-4.329V33.94c0 3.112-1.647 6.021-4.637 8.192z" fill="#fff"/><path d="M39.623 43.254v-1.596c0-.486.407-.88.908-.88h5.938c.502 0 .908.394.908.88v1.596c5.663-1.19 9.807-4.914 9.807-9.314v-.88H49.88v-1.746c0-1.956-1.645-3.549-3.667-3.549h-5.426c-2.022 0-3.667 1.593-3.667 3.55v1.746h-7.304v.879c0 4.4 4.144 8.125 9.807 9.314zm-.687-11.94c0-.987.83-1.79 1.851-1.79h5.426c1.02 0 1.85.803 1.85 1.79v1.747h-9.127v-1.747z" fill="#fff"/><path d="M45.56 42.536h-4.12v1.995c0 1.1.924 1.994 2.06 1.994 1.136 0 2.06-.895 2.06-1.994v-1.995z" fill="#fff"/><defs><linearGradient id="paint0_linear" x1="86.346" y1="32.196" x2="76.981" y2="86.886" gradientUnits="userSpaceOnUse"><stop stop-color="#FFEC00" stop-opacity=".75"/><stop offset=".414" stop-color="#F5F13C" stop-opacity=".6"/><stop offset="1" stop-color="#F5F13C" stop-opacity=".46"/></linearGradient><linearGradient id="paint1_linear" x1="24.967" y1="-2.981" x2="-5.57" y2="43.803" gradientUnits="userSpaceOnUse"><stop stop-color="#4AFFD4"/><stop offset="1" stop-color="#30B3C7"/></linearGradient><linearGradient id="paint2_linear" x1="57.224" y1="0" x2="17.496" y2="95.427" gradientUnits="userSpaceOnUse"><stop stop-color="#99FF1E"/><stop offset="1" stop-color="#99FF1E" stop-opacity=".43"/></linearGradient><linearGradient id="paint3_linear" x1="44.347" y1="9.93" x2="25.881" y2="95.227" gradientUnits="userSpaceOnUse"><stop stop-color="#01B313"/><stop offset="1" stop-color="#78EE1B" stop-opacity=".6"/></linearGradient></defs></svg>