<svg width="97" height="99" fill="none" xmlns="http://www.w3.org/2000/svg"><path d="M95.479 57.575c-4.097 18.998-26.483 30.727-29.185 27.947-5.419-5.576 7.716-10.736 11.184-22.098 1.091-11.197-3.414-27.155 6.162-31.964 5.48-2.751 14.897 6.945 11.839 26.115z" fill="url(#paint0_linear)"/><path fill-rule="evenodd" clip-rule="evenodd" d="M26.353 9.837c-7.82 3.417-16.247 10.039-20.586 20.245-7.501 17.645-4.124 31.013.235 32.896 6.442 2.784 8-5.888 9.757-15.657.868-4.83 1.784-9.927 3.363-14.043 3.19-5.285 10.192-8.257 12.71-9.984l1.017-15.621-6.496 2.164zm5.479 13.457c5.948-3.436 11.566-6.872 11.937-12.725.208-3.277-4.566-4.334-10.92-2.896l-.342 4.957-.675 10.664z" fill="url(#paint1_linear)" fill-opacity=".65"/><path fill-rule="evenodd" clip-rule="evenodd" d="M38.965 98.902C57.14 97.826 84.27 85.07 90.19 57.77 96.11 30.47 81.492 0 61.99 0c-7.736 0-18.617 5.999-28.93 14.89L30.855 17l-4.111 3.773C13.718 33.85 3 50.804 3 64.594c0 26.47 16.42 35.466 35.965 34.308z" fill="url(#paint2_linear)" fill-opacity=".4"/><path fill-rule="evenodd" clip-rule="evenodd" d="M26.744 23.73C14.326 34.218 4.889 48.783 4.889 60.451c0 20.704 16.402 28.473 34.68 27.573 17.602-.867 38.425-11.558 43.75-32.91C88.644 33.76 75.493 9.93 57.952 9.93c-8.035 0-16.822 3.53-24.892 9.002l-.705.568-3.5 2.5-2.111 1.73z" fill="url(#paint3_linear)"/><path d="M50.454 53.561v1.897a5.729 5.729 0 0 1-8.273 5.13A5.722 5.722 0 0 1 39 55.49v-1.929l1.909-1.285s1.915.636 4.136.636c2.22 0 3.5-.636 3.5-.636l1.909 1.285z" fill="#fff"/><path d="M48.545 52.276l-.002.001v3.18a5.728 5.728 0 0 1-3.182 5.13 5.713 5.713 0 0 1-1.59.509c.312.053.63.089.956.089a5.728 5.728 0 0 0 5.727-5.727V53.56l-1.91-1.285zM33.909 44.9l-1.273 2.584c-1.19.25-2.666 1.49-6.363 1.057-.204-.026-.414-.051-.637-.09v-.318a4.774 4.774 0 0 1 4.773-4.772c1.387 0 2.634.592 3.5 1.54zm1.273 3.234v.878c-1.095-1.432-1.757-1.693-2.546-1.527L33.91 44.9a4.7 4.7 0 0 1 1.273 3.233z" fill="#fff"/><path d="M47.272 60.587v1.87c0 1.05-1.139 1.91-2.545 1.91s-2.546-.86-2.546-1.91v-1.87a5.699 5.699 0 0 0 2.546.598c.91 0 1.782-.216 2.545-.598z" fill="#fff"/><path d="M42.181 62.458c0 1.05 1.14 1.909 2.546 1.909s2.545-.86 2.545-1.91h1.91a3.183 3.183 0 0 1 3.18 3.182v2.546a.637.637 0 0 1-.635.636h-14a.639.639 0 0 1-.636-.636v-2.546a3.183 3.183 0 0 1 3.181-3.181h1.91z" fill="#fff"/><path d="M49.181 62.458h-1.909a3.183 3.183 0 0 1 3.18 3.181v2.546a.638.638 0 0 1-.636.636h1.91a.64.64 0 0 0 .637-.636v-2.546a3.183 3.183 0 0 0-3.182-3.181zM26.909 56.73v4.455H25v-2.546c0-1.056.853-1.909 1.909-1.909zm9.545 1.91v2.545h-1.909V56.73c1.057 0 1.91.853 1.91 1.91zm28 0v2.545h-1.91V56.73c1.057 0 1.91.853 1.91 1.91zm-31.818-3.615v1.705c0 .7-.853 1.273-1.909 1.273s-1.909-.573-1.909-1.273v-1.71c.58.279 1.222.432 1.91.432.686 0 1.33-.153 1.908-.432v.006z" fill="#fff"/><path d="M35.182 50.997v.007a4.437 4.437 0 0 1-2.546 4.016c-.579.279-1.222.432-1.909.432s-1.33-.152-1.909-.432a4.437 4.437 0 0 1-2.545-4.016V48.54c3.697.433 5.173-.808 6.363-1.056.79-.166 1.451.095 2.546 1.527v1.985z" fill="#fff"/><path d="M33.27 47.465v3.539a4.437 4.437 0 0 1-2.545 4.016 4.356 4.356 0 0 1-.954.328c.308.067.626.104.956.104.687 0 1.33-.153 1.91-.433a4.437 4.437 0 0 0 2.544-4.016V49.01c-.792-1.037-1.359-1.455-1.91-1.546zm17.184 4.175v1.921l-1.91-1.285s-1.278.636-3.5.636c-2.22 0-4.135-.636-4.135-.636l-1.91 1.285V51.64a5.09 5.09 0 0 1 5.091-5.098h3.818v2.546a2.546 2.546 0 0 1 2.546 2.552z" fill="#fff"/><path d="M50.454 53.561V51.64a2.546 2.546 0 0 0-2.546-2.552v-2.546H46v2.546c0 1.055.855 1.909 1.91 1.909a.64.64 0 0 1 .636.643v.636l1.909 1.285z" fill="#fff"/><path d="M53.257 32.352c.4 0 .726.327.726.726v1.45a.728.728 0 0 1-.726.726H36.572a.728.728 0 0 1-.725-.726v-1.45c0-.4.326-.726.725-.726h16.685z" fill="#E6E9ED"/><path d="M52.895 35.254v2.177c0 1.204-.98 2.176-2.177 2.176a2.173 2.173 0 0 1-2.176-2.176v-7.255c0-1.204.972-2.176 2.176-2.176 1.197 0 2.176.972 2.176 2.176v5.078zm-11.607 0v2.177a2.173 2.173 0 0 1-2.177 2.176 2.178 2.178 0 0 1-2.176-2.176v-7.255c0-1.204.98-2.176 2.176-2.176 1.205 0 2.177.972 2.177 2.176v5.078zm21.892 13.84v1.91a4.441 4.441 0 0 1-2.545 4.021 4.363 4.363 0 0 1-1.909.433c-.687 0-1.33-.153-1.909-.433a4.441 4.441 0 0 1-2.545-4.021v-1.897l1.273-1.279.006-.006c.127.05 1.49.649 3.138.649 1.616 0 3.029-.572 3.2-.643l.02.006 1.272 1.26z" fill="#fff"/><path d="M61.908 47.834l-.019-.006c-.062.025-.287.116-.62.22v2.956a4.441 4.441 0 0 1-2.544 4.021 4.356 4.356 0 0 1-.954.329c.307.066.625.104.955.104a4.36 4.36 0 0 0 1.91-.433 4.441 4.441 0 0 0 2.545-4.021v-1.91l-1.273-1.26z" fill="#fff"/><path d="M54.272 47.822a4.455 4.455 0 0 1 8.909 0v1.272l-1.273-1.26-.019-.006c-.172.07-1.584.643-3.2.643-1.649 0-3.01-.598-3.138-.65l-.006.007-1.273 1.279v-1.285z" fill="#fff"/><path d="M58.726 43.367c-.328 0-.647.038-.955.105a4.456 4.456 0 0 1 3.499 4.35v.225c.331-.104.557-.195.62-.22l.018.007 1.273 1.26v-1.272a4.455 4.455 0 0 0-4.455-4.455zM53 58.64c0-1.057.852-1.91 1.908-1.91v4.455H53v-2.546z" fill="#fff"/><path d="M56.817 56.73c0 .7.853 1.273 1.91 1.273 1.056 0 1.909-.572 1.909-1.273h1.908v4.455h-7.636V56.73h1.91z" fill="#fff"/><path d="M60.636 55.026v1.705c0 .7-.853 1.273-1.91 1.273-1.056 0-1.909-.573-1.909-1.273v-1.705a4.36 4.36 0 0 0 1.91.433c.687 0 1.33-.153 1.909-.433zM28.818 56.73c0 .7.853 1.273 1.91 1.273 1.055 0 1.908-.572 1.908-1.273h1.91v4.455h-7.637V56.73h1.91z" fill="#fff"/><path d="M34.543 58.64h.002v-1.91h-1.909a1.906 1.906 0 0 1 1.907 1.91zm28 0h.002v-1.91h-1.91a1.906 1.906 0 0 1 1.908 1.91z" fill="#fff"/><defs><linearGradient id="paint0_linear" x1="86.346" y1="31.196" x2="76.981" y2="85.886" gradientUnits="userSpaceOnUse"><stop stop-color="#FFEC00" stop-opacity=".75"/><stop offset=".414" stop-color="#F5F13C" stop-opacity=".6"/><stop offset="1" stop-color="#F5F13C" stop-opacity=".46"/></linearGradient><linearGradient id="paint1_linear" x1="25.794" y1="-2.94" x2="-5.319" y2="43.463" gradientUnits="userSpaceOnUse"><stop stop-color="#4AFFD4"/><stop offset="1" stop-color="#30B3C7"/></linearGradient><linearGradient id="paint2_linear" x1="57.579" y1="0" x2="17.851" y2="95.427" gradientUnits="userSpaceOnUse"><stop stop-color="#99FF1E"/><stop offset="1" stop-color="#99FF1E" stop-opacity=".43"/></linearGradient><linearGradient id="paint3_linear" x1="44.702" y1="9.93" x2="26.236" y2="95.227" gradientUnits="userSpaceOnUse"><stop stop-color="#01B313"/><stop offset="1" stop-color="#78EE1B" stop-opacity=".6"/></linearGradient></defs></svg>