<svg width="98" height="99" fill="none" xmlns="http://www.w3.org/2000/svg"><path d="M96.479 57.575c-4.097 18.998-26.483 30.727-29.185 27.947-5.419-5.576 7.716-10.736 11.184-22.098 1.091-11.197-3.414-27.155 6.162-31.964 5.48-2.751 14.898 6.945 11.839 26.115z" fill="url(#paint0_linear)"/><path fill-rule="evenodd" clip-rule="evenodd" d="M25.873 9.764c-7.753 3.564-16.055 10.343-20.2 20.63-7.166 17.784-3.537 31.085.857 32.886 6.493 2.661 7.888-6.038 9.46-15.84.776-4.844 1.596-9.958 3.096-14.103 3.09-5.345 10.035-8.448 12.52-10.223l.72-15.637-6.453 2.287zm5.732 13.35c5.882-3.547 11.435-7.09 11.695-12.949.145-3.28-4.647-4.246-10.974-2.688l-.247 4.962-.474 10.675z" fill="url(#paint1_linear)" fill-opacity=".65"/><path fill-rule="evenodd" clip-rule="evenodd" d="M38.965 98.902C57.141 97.826 84.271 85.07 90.191 57.77 96.11 30.47 81.49 0 61.99 0c-7.736 0-18.617 5.999-28.93 14.89L30.855 17l-4.111 3.773C13.718 33.85 3 50.804 3 64.594c0 26.47 16.42 35.466 35.965 34.308z" fill="url(#paint2_linear)" fill-opacity=".4"/><path fill-rule="evenodd" clip-rule="evenodd" d="M26.744 23.73C14.326 34.218 4.89 48.783 4.89 60.451c0 20.704 16.402 28.473 34.68 27.573 17.602-.867 38.425-11.558 43.75-32.91C88.644 33.76 75.494 9.93 57.952 9.93c-8.035 0-16.822 3.53-24.891 9.002l-.706.568-3.5 2.5-2.11 1.73z" fill="url(#paint3_linear)"/><g clip-path="url(#clip0)" fill="#fff"><path d="M56.818 38.591H28.182A3.18 3.18 0 0025 41.773v19.09a3.18 3.18 0 003.182 3.182h11.136l-3.182 4.773v1.59h12.727v-1.59l-3.181-4.773h11.136a3.18 3.18 0 003.181-3.182v-19.09a3.18 3.18 0 00-3.181-3.182zm0 19.09H28.182V41.774h28.636v15.909z"/><path d="M43.815 55.616h-1.971c-.544 0-.986-.496-.986-1.105v-3.758h-1.774c-.237 0-.45-.158-.544-.401a.727.727 0 01.115-.719l3.745-4.42a.564.564 0 01.858 0l3.746 4.42a.727.727 0 01.115.719.594.594 0 01-.544.401H44.8v3.758c0 .61-.442 1.105-.985 1.105z"/></g><g clip-path="url(#clip1)" fill="#fff"><path d="M53.395 35.162h5.994c.372-4.1 3.824-7.324 8.02-7.324a8 8 0 013.44.782 5.13 5.13 0 00-4.37-3.672c-.646-2.566-2.981-4.434-5.663-4.434a5.945 5.945 0 00-5.099 2.93c-1.803-.083-3.472 1.323-3.738 3.186-1.755.598-2.979 2.257-2.979 4.138a4.4 4.4 0 004.395 4.394z"/><path d="M67.408 29.303a6.6 6.6 0 00-6.592 6.591 6.599 6.599 0 006.592 6.592A6.6 6.6 0 0074 35.895a6.6 6.6 0 00-6.592-6.592zm-.732 9.824l-2.715-2.715 1.035-1.035 1.68 1.68 3.144-3.145 1.036 1.035-4.18 4.18z"/></g><defs><linearGradient id="paint0_linear" x1="87.347" y1="31.196" x2="77.981" y2="85.886" gradientUnits="userSpaceOnUse"><stop stop-color="#FFEC00" stop-opacity=".75"/><stop offset=".414" stop-color="#F5F13C" stop-opacity=".6"/><stop offset="1" stop-color="#F5F13C" stop-opacity=".46"/></linearGradient><linearGradient id="paint1_linear" x1="25.073" y1="-3" x2="-5.158" y2="43.982" gradientUnits="userSpaceOnUse"><stop stop-color="#4AFFD4"/><stop offset="1" stop-color="#30B3C7"/></linearGradient><linearGradient id="paint2_linear" x1="57.579" y1="0" x2="17.851" y2="95.427" gradientUnits="userSpaceOnUse"><stop stop-color="#99FF1E"/><stop offset="1" stop-color="#99FF1E" stop-opacity=".43"/></linearGradient><linearGradient id="paint3_linear" x1="44.703" y1="9.93" x2="26.236" y2="95.227" gradientUnits="userSpaceOnUse"><stop stop-color="#01B313"/><stop offset="1" stop-color="#78EE1B" stop-opacity=".6"/></linearGradient><clipPath id="clip0"><path fill="#fff" transform="translate(25 37)" d="M0 0h34.999v34.999H0z"/></clipPath><clipPath id="clip1"><path fill="#fff" transform="translate(49 19)" d="M0 0h25v25H0z"/></clipPath></defs></svg>