<svg width="79" height="69" fill="none" xmlns="http://www.w3.org/2000/svg"><path d="M74.83.39c2.64 11.66 3.96 21.78 3.96 30.36 0 12.32-2.86 21.56-8.58 27.72-5.72 6.38-14.08 9.57-25.08 9.57v-13.2c5.72 0 9.9-1.54 12.54-4.62 2.42-3.08 3.63-7.7 3.63-13.86v-7.59H44.8V.39h30.03zm-44.55 0c2.64 11.66 3.96 21.78 3.96 30.36 0 12.32-2.86 21.56-8.58 27.72-5.72 6.38-14.08 9.57-25.08 9.57v-13.2c5.72 0 9.9-1.54 12.54-4.62 2.42-3.08 3.63-7.7 3.63-13.86v-7.59H.25V.39h30.03z" fill="#89EA54" fill-opacity=".4"/></svg>