<svg width="805" height="518" fill="none" xmlns="http://www.w3.org/2000/svg"><g filter="url(#filter0_d)"><path d="M760 399V35c0-6.627-5.373-12-12-12H56c-6.627 0-12 5.373-12 12v364h716z" fill="url(#paint0_linear)"/><path d="M655.831 399.317h-111.86l215.957-191.976v99.439l-104.097 92.537zm-280.33 0h38.023L759.985 91.329v-33.8L375.501 399.316zm-331.5-235.398v33.801L240.066 23.425h-38.023L44 163.919zM436.36 23.475H270.667L44.057 224.922v147.294L436.36 23.476z" fill="url(#paint1_linear)" fill-opacity=".3"/><path d="M84.596 371c-1.95 0-3.65-.397-5.101-1.191a8.297 8.297 0 01-3.318-3.364c-.785-1.472-1.177-3.189-1.177-5.151V345h4.887v9.916h.036c.547-.817 1.308-1.46 2.283-1.927a7.487 7.487 0 013.21-.701c1.784 0 3.33.386 4.637 1.157a7.905 7.905 0 013.032 3.188c.738 1.332 1.106 2.885 1.106 4.661 0 1.869-.38 3.539-1.141 5.011-.737 1.448-1.82 2.593-3.246 3.434-1.427.841-3.163 1.261-5.208 1.261zm0-4.1c1.45 0 2.58-.502 3.388-1.506.833-1.028 1.249-2.278 1.249-3.75 0-1.471-.416-2.71-1.249-3.714-.808-1.028-1.938-1.542-3.388-1.542-1.451 0-2.593.514-3.425 1.542-.808 1.004-1.213 2.243-1.213 3.714 0 1.472.405 2.722 1.213 3.75.832 1.004 1.974 1.506 3.425 1.506zm22.466 4.1c-1.665 0-3.116-.42-4.352-1.261-1.237-.841-2.2-1.963-2.89-3.364-.665-1.425-.998-2.99-.998-4.696 0-1.752.38-3.34 1.141-4.765.785-1.425 1.903-2.547 3.353-3.364 1.451-.841 3.187-1.262 5.208-1.262 2.045 0 3.769.421 5.173 1.262 1.403.841 2.473 1.974 3.21 3.399.737 1.425 1.106 3.002 1.106 4.73v8.901h-4.887v-2.979h-.072c-.546.934-1.296 1.74-2.247 2.418-.927.654-2.176.981-3.745.981zm1.391-4.1c1.427 0 2.544-.514 3.353-1.542.832-1.027 1.248-2.277 1.248-3.749 0-1.448-.416-2.675-1.248-3.679-.809-1.028-1.926-1.542-3.353-1.542-1.451 0-2.592.514-3.425 1.542-.832 1.004-1.248 2.231-1.248 3.679 0 1.472.416 2.722 1.248 3.749.833 1.028 1.974 1.542 3.425 1.542zm16.326 3.68v-10.618c0-1.401.345-2.686 1.035-3.854.69-1.168 1.677-2.091 2.961-2.768 1.308-.701 2.877-1.052 4.708-1.052 1.308 0 2.485.222 3.532.666a7.942 7.942 0 012.675 1.822h.036a8.332 8.332 0 012.711-1.822c1.07-.444 2.259-.666 3.567-.666 1.831 0 3.389.351 4.673 1.052 1.308.677 2.307 1.6 2.996 2.768.69 1.168 1.035 2.453 1.035 3.854v10.618h-4.887v-10.618c0-.981-.381-1.822-1.142-2.523-.737-.7-1.629-1.051-2.675-1.051-1.046 0-1.95.351-2.711 1.051-.737.701-1.106 1.542-1.106 2.523v10.618H137.3v-10.618c0-.981-.38-1.822-1.141-2.523-.738-.7-1.629-1.051-2.676-1.051-1.046 0-1.95.351-2.711 1.051-.737.701-1.106 1.542-1.106 2.523v10.618h-4.887zm46.115.42c-1.95 0-3.651-.397-5.101-1.191a8.3 8.3 0 01-3.318-3.364c-.784-1.472-1.177-3.189-1.177-5.151V345h4.887v9.916h.036c.547-.817 1.308-1.46 2.283-1.927a7.487 7.487 0 013.21-.701c1.784 0 3.33.386 4.637 1.157a7.912 7.912 0 013.033 3.188c.737 1.332 1.105 2.885 1.105 4.661 0 1.869-.38 3.539-1.141 5.011-.737 1.448-1.819 2.593-3.246 3.434-1.427.841-3.163 1.261-5.208 1.261zm0-4.1c1.45 0 2.58-.502 3.389-1.506.832-1.028 1.248-2.278 1.248-3.75 0-1.471-.416-2.71-1.248-3.714-.809-1.028-1.939-1.542-3.389-1.542-1.451 0-2.592.514-3.425 1.542-.808 1.004-1.213 2.243-1.213 3.714 0 1.472.405 2.722 1.213 3.75.833 1.004 1.974 1.506 3.425 1.506zm24.036 4.1c-1.879 0-3.555-.409-5.03-1.226-1.474-.841-2.64-1.963-3.496-3.364-.856-1.425-1.284-3.014-1.284-4.766 0-1.752.428-3.329 1.284-4.73a9.216 9.216 0 013.496-3.364c1.475-.841 3.151-1.262 5.03-1.262 1.879 0 3.555.421 5.03 1.262a9.213 9.213 0 013.495 3.364c.856 1.401 1.284 2.978 1.284 4.73 0 1.752-.428 3.341-1.284 4.766-.856 1.401-2.021 2.523-3.495 3.364-1.475.817-3.151 1.226-5.03 1.226zm0-4.1c1.498 0 2.675-.502 3.531-1.506.88-1.028 1.32-2.278 1.32-3.75 0-1.471-.44-2.71-1.32-3.714-.856-1.028-2.033-1.542-3.531-1.542-1.498 0-2.687.514-3.567 1.542-.856 1.004-1.284 2.243-1.284 3.714 0 1.472.428 2.722 1.284 3.75.88 1.004 2.069 1.506 3.567 1.506zm24.26 4.1c-1.878 0-3.555-.409-5.029-1.226-1.475-.841-2.64-1.963-3.496-3.364-.856-1.425-1.284-3.014-1.284-4.766 0-1.752.428-3.329 1.284-4.73a9.21 9.21 0 013.496-3.364c1.474-.841 3.151-1.262 5.029-1.262 1.879 0 3.556.421 5.03 1.262a9.216 9.216 0 013.496 3.364c.856 1.401 1.284 2.978 1.284 4.73 0 1.752-.428 3.341-1.284 4.766-.856 1.401-2.022 2.523-3.496 3.364-1.474.817-3.151 1.226-5.03 1.226zm0-4.1c1.499 0 2.676-.502 3.532-1.506.88-1.028 1.32-2.278 1.32-3.75 0-1.471-.44-2.71-1.32-3.714-.856-1.028-2.033-1.542-3.532-1.542-1.498 0-2.687.514-3.567 1.542-.856 1.004-1.284 2.243-1.284 3.714 0 1.472.428 2.722 1.284 3.75.88 1.004 2.069 1.506 3.567 1.506z" fill="#7BE159" fill-opacity=".8"/><path d="M760.286 399.069H44v41.629c0 6.627 5.373 12 12 12h692.286c6.627 0 12-5.373 12-12v-41.629z" fill="#1E4843"/><path d="M740.785 417.267H544.749a2.782 2.782 0 01-2.778-2.778 2.782 2.782 0 012.778-2.778h196.036a2.782 2.782 0 012.778 2.778c-.057 1.531-1.247 2.778-2.778 2.778z" fill="#fff"/><path d="M544.692 417.267H64.522a2.782 2.782 0 01-2.777-2.778 2.782 2.782 0 012.777-2.778h480.17a2.782 2.782 0 012.778 2.778 2.782 2.782 0 01-2.778 2.778z" fill="#03D218"/><path d="M550.588 414.489a5.831 5.831 0 01-5.839 5.839 5.83 5.83 0 01-5.839-5.839 5.83 5.83 0 015.839-5.84c3.174 0 5.839 2.608 5.839 5.84z" fill="#FFFDFF"/><path d="M97.913 429.966h3.742v12.812h-3.742v-12.812zm-7.2 12.812h3.742v-12.812h-3.741v12.812zm35.602-12.812v5.159l-7.88-5.159v12.812l7.88-5.158v5.158h3.742v-12.812h-3.742zm-64.003 0v12.812h3.741v-5.158l7.88 5.158v-12.812l-7.88 5.159v-5.159h-3.741zm623.031 3.467l-.373-.89s.87-2.001.777-2.065l-1.151-1.144c-.093-.063-2.052.826-2.052.826l-.902-.381s-.809-2.033-.902-2.033h-1.617c-.124 0-.84 2.033-.84 2.033l-.901.381s-1.991-.857-2.084-.794l-1.151 1.144c-.093.063.84 2.033.84 2.033l-.373.89s-2.021.794-2.021.889v1.62c0 .127 2.021.858 2.021.858l.373.89s-.871 2.001-.777 2.065l1.15 1.143c.062.064 2.022-.826 2.022-.826l.901.382s.809 2.033.902 2.033h1.617c.125 0 .84-2.033.84-2.033l.902-.382s1.99.858 2.083.795l1.151-1.144c.093-.095-.84-2.033-.84-2.033l.374-.89s2.021-.794 2.021-.921v-1.62c.031-.064-1.99-.826-1.99-.826zm-2.986 1.715c0 1.303-1.057 2.383-2.363 2.383a2.362 2.362 0 01-2.364-2.383 2.355 2.355 0 012.364-2.351c1.306-.032 2.363 1.049 2.363 2.351zm33.405 5.233h-17.899v-10.529h17.899v10.529zm-16.578-1.183h15.257v-8.193h-15.257v8.193zm34.791-9.768h4.352v4.384h1.271v-5.655h-5.623v1.271zm-6.829 4.384v-4.384h4.384v-1.271h-5.655v5.655h1.271zm11.181 2.446v4.384h-4.352v1.271h5.623v-5.655h-1.271zm-6.798 4.384h-4.384v-4.384h-1.271v5.655h5.655v-1.271z" fill="#fff"/></g><path d="M390.55 303.636l.024.5-.024-.5zm97.349-73.716c-11.837 47.464-58.148 71.285-97.374 73.217l.049.999c39.501-1.946 86.317-25.941 98.295-73.974l-.97-.242zm-97.374 73.217c-20.369 1.003-39.635-2.829-53.793-12.625-14.133-9.779-23.232-25.537-23.232-48.534h-1c0 23.3 9.24 39.377 23.663 49.356 14.399 9.963 33.908 13.811 54.411 12.802l-.049-.999zM313.5 241.978c0-11.461 4.114-24.225 11.133-36.943 7.017-12.712 16.921-25.349 28.458-36.548 23.094-22.417 52.64-38.987 78.567-38.987v-1c-26.302 0-56.085 16.771-79.263 39.269-11.598 11.258-21.566 23.972-28.637 36.783-7.068 12.806-11.258 25.739-11.258 37.426h1zM431.658 129.5c19.371 0 36.389 13.162 47.102 32.358 10.709 19.188 15.06 44.318 9.139 68.062l.97.242c5.987-24.006 1.589-49.396-9.236-68.791-10.819-19.387-28.118-32.871-47.975-32.871v1z" fill="#fff" fill-opacity=".2"/><path d="M394.097 277.684l.024.5-.024-.5zm67.124-50.98c-8.158 32.713-40.084 49.148-67.149 50.481l.049.999c27.34-1.347 59.771-17.956 68.07-51.238l-.97-.242zm-67.149 50.481c-14.056.692-27.332-1.954-37.079-8.697-9.722-6.727-15.988-17.568-15.988-33.413h-1c0 16.148 6.407 27.307 16.419 34.235 9.988 6.91 23.508 9.572 37.697 8.874l-.049-.999zm-53.067-42.11c0-7.886 2.831-16.68 7.675-25.455 4.84-8.771 11.675-17.491 19.638-25.222 15.947-15.478 36.328-26.898 54.187-26.898v-1c-18.234 0-38.853 11.621-54.883 27.181-8.025 7.789-14.923 16.587-19.818 25.455-4.892 8.864-7.799 17.827-7.799 25.939h1zm81.5-77.575c13.311 0 25.029 9.046 32.416 22.282 7.382 13.228 10.382 30.555 6.3 46.922l.97.242c4.148-16.63 1.101-34.216-6.397-47.651-7.494-13.427-19.492-22.795-33.289-22.795v1z" fill="#fff"/><path d="M447.885 225.483c-6.185 24.802-30.372 37.221-50.818 38.228-21.23 1.045-40.281-7.98-40.281-32.027 0-24.048 34.505-58.684 61.634-58.684 20.376 0 35.65 27.681 29.465 52.483z" fill="url(#paint2_linear)"/><path d="M411.927 220.33l-13.096 7.561v-15.122l13.096 7.561z" fill="#05B514"/><defs><linearGradient id="paint0_linear" x1="262" y1="-11.5" x2="857" y2="483.5" gradientUnits="userSpaceOnUse"><stop stop-color="#01B213"/><stop offset="1" stop-color="#78EE1B" stop-opacity=".52"/></linearGradient><linearGradient id="paint1_linear" x1="116" y1="58" x2="735" y2="408" gradientUnits="userSpaceOnUse"><stop stop-color="#30CE2D"/><stop offset="1" stop-color="#3DCA33" stop-opacity=".96"/></linearGradient><linearGradient id="paint2_linear" x1="403.031" y1="173" x2="381.581" y2="272.076" gradientUnits="userSpaceOnUse"><stop stop-color="#fff"/><stop offset="1" stop-color="#fff"/></linearGradient><filter id="filter0_d" x="0" y="0" width="804.286" height="517.698" filterUnits="userSpaceOnUse" color-interpolation-filters="sRGB"><feFlood flood-opacity="0" result="BackgroundImageFix"/><feColorMatrix in="SourceAlpha" values="0 0 0 0 0 0 0 0 0 0 0 0 0 0 0 0 0 0 127 0"/><feOffset dy="21"/><feGaussianBlur stdDeviation="22"/><feColorMatrix values="0 0 0 0 0.363368 0 0 0 0 0.541667 0 0 0 0 0.515785 0 0 0 0.55 0"/><feBlend in2="BackgroundImageFix" result="effect1_dropShadow"/><feBlend in="SourceGraphic" in2="effect1_dropShadow" result="shape"/></filter></defs></svg>