<svg width="262" height="239" fill="none" xmlns="http://www.w3.org/2000/svg"><path opacity=".1" d="M153.177 43.456C73.624 7.126-12.827 82.075 60.521 121.855c54.435 34.222 36.786 62.565 65.913 83.703 38.63 28.153 83.233-19.863 83.286-19.812 57.422-58.664 15.813-109.247-56.543-142.29z" fill="url(#paint0_linear)"/><path d="M90.146 11.726C2.577 17.739-37.833 125.228 45.912 125.228c64.401 4.146 62.392 37.597 98.203 42.308 47.553 6.355 63.929-57.349 64-57.33 22.59-79.231-38.322-103.95-117.969-98.48z" fill="url(#paint1_linear)"/><path opacity=".8" d="M55.176 170.257c13.72-.333 20.776-16.844 7.694-17.424-10.03-1.093-9.485-6.304-15.047-7.288-7.384-1.321-10.383 8.517-10.394 8.513-4.076 12.22 5.268 16.503 17.747 16.199z" fill="url(#paint2_linear)"/><defs><linearGradient id="paint0_linear" x1="151.695" y1="37.939" x2="88.754" y2="237.191" gradientUnits="userSpaceOnUse"><stop stop-color="#28FEFE" stop-opacity=".3"/><stop offset="1" stop-color="#30B3C7"/></linearGradient><linearGradient id="paint1_linear" x1="86.198" y1="7.568" x2="126.008" y2="213.475" gradientUnits="userSpaceOnUse"><stop stop-color="#ECFFD5"/><stop offset="1" stop-color="#ECFFD5"/></linearGradient><linearGradient id="paint2_linear" x1="55.764" y1="170.934" x2="50.969" y2="138.495" gradientUnits="userSpaceOnUse"><stop stop-color="#ECFFD5"/><stop offset="1" stop-color="#ECFFD5"/></linearGradient></defs></svg>