<svg width="967" height="683" fill="none" xmlns="http://www.w3.org/2000/svg"><path opacity=".6" fill-rule="evenodd" clip-rule="evenodd" d="M638.462 550.669c3.84-26.484-73.249-196.459-246.25-121.622-173.002 74.838-185.974 211.577-170.235 240.65 15.739 29.072 62.245 9.904 112.702-36.862 3.011-2.583 6.979-7.277 11.911-13.111 23.237-27.487 67.88-80.295 134.827-57.067C609.004 620.422 638 582.973 638.462 550.669z" fill="url(#paint0_linear)"/><path opacity=".25" d="M542.689 929.637C270.04 996.502-72.383 554.241 242.65 459.555c413.034-105.353 323.99-296.172 487.099-334.659C1025.68 55.067 1052.11 337.148 1052.43 337.03c141.88 326.931-139.416 575.147-509.741 592.607z" fill="url(#paint1_linear)"/><path d="M258.743 982.019c56.566 54.261 419.647-50.86 525.527-63.997 107.648-13.386 259.24-82.524 314.07-269.482 34.44-117.936 72.26-376.255-51.8-522.754C954.478 17.07 773.543 87.104 664.964 264.112 571.39 416.66 493.363 441.918 331.932 537.744 170.501 633.571 201.393 845 258.743 982.019z" fill="url(#paint2_linear)"/><defs><linearGradient id="paint0_linear" x1="597.1" y1="397.273" x2="204.205" y2="659.246" gradientUnits="userSpaceOnUse"><stop stop-color="#FFEC00"/><stop offset="1" stop-color="#FFEC00" stop-opacity="0"/></linearGradient><linearGradient id="paint1_linear" x1="350.12" y1="902.265" x2="700.428" y2="79.581" gradientUnits="userSpaceOnUse"><stop stop-color="#28FEFE" stop-opacity=".3"/><stop offset="1" stop-color="#31C7CD"/></linearGradient><linearGradient id="paint2_linear" x1="557.855" y1="323.248" x2="777.36" y2="598.936" gradientUnits="userSpaceOnUse"><stop stop-color="#83F12C" stop-opacity=".6"/><stop offset="1" stop-color="#01B213"/></linearGradient></defs></svg>