<svg width="1009" height="1010" fill="none" xmlns="http://www.w3.org/2000/svg"><path d="M813.53 951.994c70.499 43.221 181.279 37.682 213.64 31.049l172.15-760.191c-241.259 90.914-387.202-47.23-561.872-71.079-195.379-26.676-318.858 11.685-394.53 69.154-75.672 57.469-169.587 212.144-108.741 339.795 60.845 127.651 236.985 103.877 372.483 168.592 135.497 64.715 236.372 179.46 306.87 222.68z" fill="url(#paint0_linear)"/><path d="M793.827 842.245c78.287 21.839 185.083-2.701 215.173-13.888V188c-215.173 116.624-387.985 32.415-563.569 45-196.402 14.077-308.334 67.22-369.43 127-61.097 59.78-118.518 200.757-31 292 87.516 91.243 254.018 40.232 400.43 67.5s270.11 100.905 348.396 122.745z" fill="url(#paint1_linear)"/><defs><linearGradient id="paint0_linear" x1="202.487" y1="684.769" x2="928.705" y2="313.314" gradientUnits="userSpaceOnUse"><stop stop-color="#ECFFD5" stop-opacity=".97"/><stop offset="1" stop-color="#ECFFD5" stop-opacity=".34"/></linearGradient><linearGradient id="paint1_linear" x1="139" y1="739" x2="834.318" y2="209.261" gradientUnits="userSpaceOnUse"><stop stop-color="#ABE9F0"/><stop offset="1" stop-color="#E3F9F9" stop-opacity=".78"/></linearGradient></defs></svg>