<svg width="424" height="417" fill="none" xmlns="http://www.w3.org/2000/svg"><path fill-rule="evenodd" clip-rule="evenodd" d="M236.988 26.072c14.147 7.216 28.129 15.717 41.695 25.234-1.011 23.254-2.132 46.314-3.253 64.178-3.065 52.116-10.983 141.372-12.335 156.476-1.522 2.019-1.092 6.617-.216 8.208-.225 7.228-2.334 74.689-4.672 135.611a298.974 298.974 0 01-19.101-.339c-.707-.035-1.416-.067-2.127-.096.39-49.697 1.06-100.004 1.06-100.004l-.128-.053c.098-1.425.506-8.088-.02-14.046l-.22.031c.056-.298.071-.48.071-.48s-.889-80.122-.889-165.615c0-33.263.045-72.554.135-109.105zM225.417 303.18c-.557 3.232-.265 11.076.027 13.279l.003.003c.03 1.968.242 16.925.478 52.982-4.614-11.033-11.09-24.463-18.069-35.042-10.49-15.898-30.047-35.623-42.2-45.695 4.067 13.956 13.093 39.991 25.307 57.764 9.709 14.129 24.515 27.386 32.676 34.693l.012.01c.866.776 1.658 1.485 2.36 2.12l.015 2.67.011 1.888c.036 6.426.052 15.775.053 27.237-10.919-.084-22.207.284-33.639.657h-.002c-85.086 2.776-178.112 5.81-186.08-175.381C-21.96 126.775 47.995 0 141.313 0a155 155 0 0114.957.738c19.377 35.624 37.308 69.385 55.992 104.912 3.039 5.655 6.046 11.389 9.067 17.149a4295.3 4295.3 0 004.251 8.09l.01 8.093c.042 31.457.036 58.174.007 80.331-3.558-8.592-9.439-20.748-15.782-29.892-7.955-11.469-22.619-25.588-31.694-32.76 3.217 10.155 10.272 29.076 19.523 41.89 7.354 10.186 18.427 19.647 24.53 24.861v.001c1.464 1.25 2.641 2.256 3.413 2.969-.083 51.826-.294 76.425-.294 76.425s.03.143.123.373zm.144-185.359a1713.08 1713.08 0 00-7.914-14.95c-17.978-34.155-35.362-66.915-54.006-101.254 20.25 2.86 41.066 9.408 61.681 18.817.095 29.156.183 62.315.239 97.387zm71.727 165.088l-.054.013c.089.123.131.191.131.191s-1.08 15.498-2.738 39.561c2.963-9.084 5.837-17.958 7.969-24.545 2.949-9.184 4.969-15.244 5.408-16.453 7.273-20.4 21.631-65.815 21.67-66.343l.289.112c1.924-7.662 5.406-20.398 8.921-30.323 4.621-13.043 16.628-29.507 23.45-37.286-1.398 11.148-5.76 30.433-11.292 42.811-4.948 11.072-12.786 23.09-18.107 30.053l-.215.68-.001.004-.002.007-.001.001c-2.346 7.421-7.329 23.18-12.228 38.05 8.103-6.27 23.212-17.446 35.766-25.318 5.615-3.52 12.592-6.712 19.857-9.472 1.835-6.777 3.682-13.619 5.545-20.54 3.051-11.324 5.945-22.4 8.924-33.803l.183-.7c-20.835-34.396-50.1-68.036-83.396-96.168-3.407 70.335-8.993 183.585-9.883 201.622l.058-.004.047-.003c0-.223 1.119 4.7-.224 7.834l-.035.009-.042.01zm83.132-59.834c11.632-4.1 23.455-7.062 31.184-8.473-8.474 8.312-23.128 20.424-36.821 29.244a17935.79 17935.79 0 01-25.44 92.409 238.792 238.792 0 0110.085-4.041c-3.394 4.771-8.236 10.831-13.687 16.989-2.341 8.407-4.695 16.849-7.071 25.354-2.029 7.395-4.117 14.848-6.214 22.335-.653 2.331-1.307 4.665-1.96 7.002 54.478-19.046 93.092-61.864 93.092-135.132 0-29.393-11.256-62.24-30.121-94.604-2.671 10.215-5.305 20.251-8.102 30.597a14303.28 14303.28 0 01-4.945 18.32zm-45.459 150.839c1.744-6.237 3.474-12.435 5.194-18.604-5.744 6.071-11.818 11.847-17.394 16.146-9.896 7.631-23.036 14.932-32.817 19.667a83675 83675 0 00-1.524 22.525c13.156-1.712 25.827-4.461 37.785-8.313.847-3.033 1.695-6.063 2.542-9.087 2.097-7.486 4.185-14.939 6.214-22.334zm-23.667-16.237c-8.392 6.728-15.35 14.473-20.483 20.7.886-13.017 1.732-25.371 2.503-36.607 3.107-9.403 6.999-21.343 11.639-35.58l2.068-6.345c1.071-3.341 2.042-6.416 2.852-8.979v-.002c1.247-3.948 2.11-6.681 2.368-7.308 1.657-4.535 3.648-10.318 5.744-16.575 10.969-2.527 30.9-8.955 46.391-17.024a115.771 115.771 0 005.735-3.212 17759.904 17759.904 0 01-25.189 91.446c-11.027 4.955-23.95 11.728-33.628 19.486z" fill="url(#paint0_linear)" fill-opacity=".21"/><defs><linearGradient id="paint0_linear" x1="385.501" y1="386.174" x2="72.189" y2="138.506" gradientUnits="userSpaceOnUse"><stop stop-color="#6BD418" stop-opacity=".21"/><stop offset="1" stop-color="#6BD518" stop-opacity=".57"/></linearGradient></defs></svg>