<svg width="180" height="177" fill="none" xmlns="http://www.w3.org/2000/svg"><path d="M78.55 175.636l.024.5-.024-.5zm97.349-73.716c-11.837 47.464-58.148 71.285-97.374 73.217l.05.999c39.5-1.946 86.316-25.941 98.294-73.974l-.97-.242zm-97.374 73.217c-20.37 1.003-39.635-2.829-53.793-12.625C10.6 152.733 1.5 136.975 1.5 113.978h-1c0 23.3 9.24 39.377 23.663 49.356 14.399 9.963 33.908 13.811 54.411 12.802l-.049-.999zM1.5 113.978c0-11.461 4.114-24.225 11.133-36.943 7.017-12.712 16.92-25.35 28.459-36.548C64.184 18.07 93.73 1.5 119.657 1.5v-1C93.356.5 63.573 17.27 40.395 39.769 28.797 51.027 18.829 63.741 11.758 76.552 4.69 89.358.5 102.291.5 113.978h1zM119.658 1.5c19.371 0 36.389 13.162 47.102 32.358 10.709 19.188 15.06 44.318 9.139 68.062l.97.242c5.987-24.006 1.589-49.396-9.236-68.791C156.814 13.984 139.515.5 119.658.5v1z" fill="#fff" fill-opacity=".2"/><path d="M82.097 149.684l.024.5-.024-.5zm67.124-50.98c-8.158 32.713-40.084 49.148-67.149 50.481l.05.999c27.339-1.347 59.77-17.956 68.069-51.238l-.97-.242zm-67.149 50.481c-14.056.692-27.332-1.954-37.079-8.697-9.722-6.727-15.988-17.568-15.988-33.413h-1c0 16.148 6.407 27.307 16.42 34.235 9.987 6.91 23.507 9.572 37.696 8.874l-.049-.999zm-53.067-42.11c0-7.886 2.831-16.68 7.675-25.455 4.84-8.77 11.675-17.491 19.638-25.222C72.265 40.92 92.646 29.5 110.505 29.5v-1c-18.234 0-38.853 11.62-54.883 27.18-8.025 7.79-14.923 16.588-19.818 25.456-4.892 8.864-7.799 17.827-7.799 25.939h1zm81.5-77.575c13.311 0 25.029 9.046 32.416 22.282 7.382 13.228 10.382 30.555 6.3 46.922l.97.242c4.148-16.63 1.101-34.216-6.397-47.651C136.3 37.868 124.302 28.5 110.505 28.5v1z" fill="#fff"/><path d="M135.885 97.483c-6.185 24.802-30.372 37.221-50.818 38.228-21.23 1.045-40.281-7.98-40.281-32.027C44.786 79.636 79.29 45 106.42 45c20.376 0 35.65 27.681 29.465 52.483z" fill="url(#paint0_linear)"/><path d="M99.927 92.33l-13.096 7.56V84.77l13.096 7.56z" fill="#05B514"/><defs><linearGradient id="paint0_linear" x1="91.031" y1="45" x2="69.581" y2="144.076" gradientUnits="userSpaceOnUse"><stop stop-color="#fff"/><stop offset="1" stop-color="#fff"/></linearGradient></defs></svg>