<svg width="1440" height="878" fill="none" xmlns="http://www.w3.org/2000/svg"><path d="M717 204.5c-271 0-663.5-65-717-104v641h1440v-619s-228.82 82-723 82z" fill="url(#paint0_linear)"/><mask id="a" maskUnits="userSpaceOnUse" x="0" y="0" width="1440" height="828"><path d="M695 101.103C200.777 269.812 0 106.07 0 41.995v648.699a1153.757 1153.757 0 00740.305 120.181L1440 690.693V81.731s-113.5-196.199-745 19.372z" fill="url(#paint1_linear)"/></mask><g mask="url(#a)"><path fill-rule="evenodd" clip-rule="evenodd" d="M367.199 169.226c-22.912 11.685-45.556 25.454-67.525 40.865 1.637 37.66 3.452 75.008 5.267 103.938 4.965 84.403 17.789 228.955 19.978 253.414 2.464 3.269 1.768 10.716.349 13.293.364 11.703 3.78 120.955 7.566 219.619a485.204 485.204 0 0034.38-.733c-.632-80.473-1.718-161.923-1.718-161.923l.208-.085c-.159-2.304-.82-13.098.032-22.75l.357.052c-.092-.483-.115-.777-.115-.777s1.44-129.758 1.44-268.214c0-53.87-.073-117.504-.219-176.699zm18.739 448.779c.902 5.234.429 17.937-.043 21.506l-.006.005c-.048 3.18-.391 27.4-.774 85.8 7.473-17.867 17.96-39.618 29.263-56.749 16.988-25.747 48.66-57.692 68.342-74.003-6.586 22.601-21.204 64.764-40.984 93.549-15.724 22.881-39.703 44.351-52.919 56.184a1016.502 1016.502 0 00-3.841 3.45l-.042 7.386c-.057 10.218-.084 25.001-.086 43.105 146.785-14.566 312.072-106.467 355.838-281.967 45.876-183.958-67.416-389.269-218.543-389.269-7.994 0-16.074.405-24.222 1.195-31.381 57.694-60.421 112.37-90.68 169.908-4.922 9.158-9.792 18.443-14.684 27.771l-.002.004c-2.287 4.36-4.578 8.729-6.882 13.098l-.017 13.109c-.067 50.945-.059 94.213-.012 130.095 5.762-13.913 15.287-33.601 25.56-48.41 12.883-18.574 36.631-41.439 51.328-53.055-5.21 16.446-16.636 47.089-31.618 67.841-11.909 16.496-29.842 31.818-39.726 40.263-2.37 2.025-4.277 3.654-5.527 4.81.134 83.932.475 123.77.475 123.77s-.048.232-.198.604zm-.234-300.189c4.266-8.13 8.522-16.22 12.817-24.211 29.116-55.316 57.27-108.372 87.465-163.985-32.796 4.631-66.508 15.237-99.894 30.475-.154 47.218-.297 100.92-.388 157.721zM269.557 585.178l.073.018a6.282 6.282 0 00-.104.147l-.024.035-.024.036-.06.091s1.63 23.389 4.158 60.064a15468.907 15468.907 0 01-12.195-36.51c-4.714-14.289-7.958-23.709-8.67-25.584-11.779-31.651-34.679-102.338-34.713-103.176l-.269.108c-2.719-11.327-9.1-35.383-15.551-53.596-7.483-21.123-26.928-47.786-37.976-60.384 2.264 18.054 9.327 49.286 18.286 69.331 7.723 17.281 19.794 35.986 28.372 47.413l-1.01.407c.064.145.863 2.611 2.201 6.74l.003.011.002.005v.001l.002.005c3.55 10.957 10.881 33.583 18.328 55.61-13.438-10.334-36.799-27.528-56.339-39.78-9.093-5.701-20.392-10.87-32.156-15.34a22897.647 22897.647 0 01-8.982-33.269c-4.94-18.332-9.625-36.264-14.447-54.722v-.001l-.001-.004-.003-.011v-.001l-.001-.003-.297-1.136c33.742-55.705 81.137-110.183 135.06-155.743 5.518 113.907 14.564 297.319 16.005 326.527l-.096-.005-.073-.005c0-.362-1.813 7.612.362 12.686l.073.019.066.016zm-134.645-96.901c-18.838-6.641-37.986-11.438-50.504-13.723 13.724 13.462 37.457 33.077 59.634 47.361 13.866 50.941 27.421 100.078 41.198 149.655a387.06 387.06 0 00-16.332-6.545c5.497 7.727 13.337 17.542 22.166 27.515 3.791 13.614 7.604 27.284 11.45 41.057 3.288 11.977 6.668 24.046 10.064 36.17 1.058 3.776 2.117 7.556 3.175 11.34C127.535 750.262 65 680.918 65 562.261c0-47.602 18.229-100.797 48.781-153.21 4.325 16.543 8.591 32.797 13.121 49.551 2.688 9.984 5.356 19.87 8.01 29.675zm73.619 244.278c-2.823-10.1-5.625-20.135-8.41-30.125 9.302 9.831 19.139 19.185 28.168 26.148 16.027 12.358 37.307 24.182 53.147 31.85.811 11.946 1.637 24.146 2.469 36.476-21.306-2.773-41.828-7.225-61.193-13.463-1.371-4.912-2.745-9.818-4.117-14.715-3.396-12.124-6.777-24.194-10.064-36.171zm38.328-26.293c13.592 10.896 24.86 23.439 33.173 33.523-1.457-21.399-2.845-41.692-4.109-60.107-5.103-14.931-11.581-34.234-19.378-57.471l-3.313-9.869c-1.713-5.202-3.261-9.988-4.552-13.978-1.988-6.145-3.364-10.4-3.789-11.368-2.888-7.545-6.373-17.334-10.011-27.878-17.979-4.266-49.428-14.511-73.986-27.302a187.852 187.852 0 01-9.286-5.202c13.699 50.292 27.101 98.862 40.792 148.095 17.858 8.025 38.787 18.994 54.459 31.557z" fill="url(#paint2_linear)" fill-opacity=".52"/></g><defs><linearGradient id="paint0_linear" x1="-10" y1="402.469" x2="1424.5" y2="686.5" gradientUnits="userSpaceOnUse"><stop stop-color="#01B213"/><stop offset="1" stop-color="#91ED58"/></linearGradient><linearGradient id="paint1_linear" x1="-10" y1="365.351" x2="1573.24" y2="365.099" gradientUnits="userSpaceOnUse"><stop offset=".601" stop-color="#01B213"/><stop offset="1" stop-color="#74D355"/></linearGradient><linearGradient id="paint2_linear" x1="126.681" y1="751.465" x2="750.666" y2="241.758" gradientUnits="userSpaceOnUse"><stop stop-color="#fff" stop-opacity=".66"/><stop offset=".922" stop-color="#fff" stop-opacity="0"/></linearGradient></defs></svg>