<svg width="298" height="276" fill="none" xmlns="http://www.w3.org/2000/svg"><path fill-rule="evenodd" clip-rule="evenodd" d="M73.346 230.965c37.922 12.989 103.811 9.724 138.604-40.797 34.793-50.523 30.384-124.632-9.343-140.915-15.758-6.459-42.919-3.356-71.331 6.096l-6.249 2.447-11.518 4.232c-37.425 15.694-73.376 41.189-84.859 69.206-22.042 53.778 3.918 85.765 44.696 99.731z" fill="url(#paint0_linear)" fill-opacity=".2"/><g filter="url(#filter0_d)"><rect x="57.12" y="69.273" width="219.974" height="131.201" rx="6" fill="#fff"/></g><path d="M263.937 157.644V97.077a4 4 0 0 0-4-4H157.181a4 4 0 0 0-4 4v60.567h110.756z" fill="url(#paint1_linear)"/><path d="M247.823 157.698h-17.304l33.406-32.966v17.075l-16.102 15.891zm-43.364 0h5.882l53.593-52.888v-5.804l-59.475 58.692zm-51.278-40.423v5.804l30.329-29.93h-5.882l-24.447 24.126zm60.693-24.117h-25.631l-35.054 34.593v25.293l60.685-59.886z" fill="url(#paint2_linear)" fill-opacity=".3"/><rect x="158.868" y="98.727" width="99.07" height="50.874" rx="4" fill="#FBFBFB"/><path fill="url(#paint3_linear)" fill-opacity=".8" d="M152.174 162.988h111.119v24.098H152.174z"/><path d="M73.344 85.339c-.576 0-1.079-.123-1.508-.368a2.51 2.51 0 0 1-.98-1.04c-.232-.454-.348-.985-.348-1.591v-5.034h1.444v3.064h.01c.162-.253.387-.452.676-.596.295-.144.611-.216.948-.216.528 0 .985.119 1.371.357.387.238.686.566.896.985.218.411.327.891.327 1.44 0 .577-.112 1.093-.337 1.548a2.514 2.514 0 0 1-.96 1.06c-.421.26-.934.39-1.539.39zm0-1.267c.429 0 .763-.155 1.002-.466.246-.317.369-.703.369-1.158 0-.454-.123-.837-.37-1.147-.238-.318-.572-.477-1.001-.477-.429 0-.766.16-1.012.477-.24.31-.359.692-.359 1.147 0 .455.12.84.359 1.159.246.31.583.465 1.012.465zm6.64 1.267c-.492 0-.92-.13-1.286-.39a2.61 2.61 0 0 1-.854-1.04 3.514 3.514 0 0 1-.295-1.45c0-.541.112-1.032.337-1.472a2.59 2.59 0 0 1 .991-1.04c.43-.26.942-.39 1.54-.39.604 0 1.114.13 1.529.39.414.26.73.61.948 1.05.218.44.327.928.327 1.462v2.75h-1.444v-.92h-.021a2.372 2.372 0 0 1-.664.746c-.275.203-.644.304-1.108.304zm.412-1.267c.421 0 .752-.159.99-.476.247-.318.37-.704.37-1.159 0-.447-.123-.826-.37-1.136-.238-.318-.569-.477-.99-.477-.43 0-.767.16-1.013.477-.245.31-.368.689-.368 1.136 0 .455.123.841.368 1.159.246.317.584.476 1.013.476zm4.825 1.137v-3.28c0-.433.102-.83.306-1.191.204-.361.496-.646.875-.856.387-.216.85-.324 1.392-.324.387 0 .735.068 1.044.205.31.137.573.325.79.563h.011a2.46 2.46 0 0 1 .802-.563 2.623 2.623 0 0 1 1.054-.205c.541 0 1.001.108 1.381.324.387.21.682.495.886.856.204.36.305.758.305 1.19v3.28h-1.444v-3.28c0-.303-.112-.562-.337-.779a1.08 1.08 0 0 0-.791-.325c-.31 0-.577.109-.801.325a1.06 1.06 0 0 0-.327.78v3.28h-1.445v-3.28c0-.304-.112-.563-.337-.78a1.08 1.08 0 0 0-.79-.325c-.31 0-.577.109-.802.325a1.06 1.06 0 0 0-.327.78v3.28H85.22zm13.63.13c-.576 0-1.078-.123-1.507-.368a2.51 2.51 0 0 1-.98-1.04c-.233-.454-.349-.985-.349-1.591v-5.034h1.445v3.064h.01c.162-.253.387-.452.675-.596a2.13 2.13 0 0 1 .95-.216c.526 0 .983.119 1.37.357a2.4 2.4 0 0 1 .896.985c.218.411.327.891.327 1.44a3.46 3.46 0 0 1-.337 1.548 2.514 2.514 0 0 1-.96 1.06c-.422.26-.935.39-1.54.39zm0-1.267c.43 0 .763-.155 1.002-.466.246-.317.369-.703.369-1.158 0-.454-.123-.837-.369-1.147-.239-.318-.572-.477-1.001-.477-.43 0-.767.16-1.013.477-.239.31-.358.692-.358 1.147 0 .455.12.84.359 1.159.245.31.583.465 1.012.465zm7.105 1.267a2.906 2.906 0 0 1-1.486-.38 2.89 2.89 0 0 1-1.034-1.039 2.901 2.901 0 0 1-.379-1.472c0-.541.126-1.028.379-1.461a2.79 2.79 0 0 1 1.034-1.04c.435-.26.931-.39 1.486-.39.555 0 1.051.13 1.487.39.436.253.78.6 1.033 1.04.253.433.38.92.38 1.461s-.127 1.032-.38 1.472c-.253.433-.597.78-1.033 1.04a2.913 2.913 0 0 1-1.487.379zm0-1.267c.443 0 .791-.155 1.044-.466.26-.317.39-.703.39-1.158 0-.454-.13-.837-.39-1.147-.253-.318-.601-.477-1.044-.477-.443 0-.794.16-1.054.477-.253.31-.38.692-.38 1.147 0 .455.127.84.38 1.159.26.31.611.465 1.054.465zm7.171 1.267a2.913 2.913 0 0 1-1.487-.38 2.896 2.896 0 0 1-1.033-1.039 2.901 2.901 0 0 1-.379-1.472c0-.541.126-1.028.379-1.461.253-.44.598-.787 1.033-1.04a2.85 2.85 0 0 1 1.487-.39c.555 0 1.051.13 1.487.39.435.253.78.6 1.033 1.04.253.433.38.92.38 1.461s-.127 1.032-.38 1.472a2.9 2.9 0 0 1-1.033 1.04 2.913 2.913 0 0 1-1.487.379zm0-1.267c.443 0 .791-.155 1.044-.466.26-.317.39-.703.39-1.158 0-.454-.13-.837-.39-1.147-.253-.318-.601-.477-1.044-.477-.443 0-.794.16-1.054.477-.253.31-.38.692-.38 1.147 0 .455.127.84.38 1.159.26.31.611.465 1.054.465z" fill="#009F10" fill-opacity=".27"/><rect x="137.447" y="79.984" width="127.185" height="4.016" rx="2.008" fill="#DBEEEB"/><circle cx="257.838" cy="182.198" r="7.18" fill="url(#paint4_linear)"/><path d="M260.11 178.5h-5.004c-.653 0-.87.653-.87.87-.073 1.451-.174 4.526 0 5.222.174.697.725.871.87.871h3.917l2.175.87v-6.963c0-.696-.725-.87-1.088-.87z" fill="#fff"/><path d="M255.324 183.503c.362.29 1.349.87 2.393.87 1.045 0 1.886-.58 2.176-.87" stroke="#27B9ED"/><path d="M103.05 93.816H71.097a1 1 0 0 0-1 1v15.559a1 1 0 0 0 1 1h31.953a1 1 0 0 0 1-1v-15.56a1 1 0 0 0-1-1zm-.446 20.928H71.783a1.433 1.433 0 1 0 0 2.867h30.821a1.434 1.434 0 1 0 0-2.867zm-4.306 4.873H71.783a1.434 1.434 0 0 0 0 2.867h26.515a1.434 1.434 0 0 0 0-2.867zm43.253-25.802h-31.953a1 1 0 0 0-1 1v15.56a1 1 0 0 0 1 1h31.953a1 1 0 0 0 1-1v-15.56a1 1 0 0 0-1-1zm-.445 20.928h-31.075a1.433 1.433 0 0 0 0 2.867h31.075a1.433 1.433 0 1 0 0-2.867zm-4.559 4.874h-26.516a1.433 1.433 0 0 0 0 2.867h26.516a1.434 1.434 0 0 0 0-2.867z" fill="#DBEEEB"/><path d="M89.465 103.149l-3.8 2.194v-4.388l3.8 2.194zm38.502 0l-3.799 2.194v-4.388l3.799 2.194z" fill="#fff"/><path d="M103.05 128.264H71.097a1 1 0 0 0-1 1v15.559a1 1 0 0 0 1 1h31.953a1 1 0 0 0 1-1v-15.559a1 1 0 0 0-1-1zm-.445 20.863H71.783a1.433 1.433 0 1 0 0 2.867h30.822a1.434 1.434 0 0 0 0-2.867zM98.299 154H71.783a1.434 1.434 0 0 0 0 2.867h26.516a1.434 1.434 0 0 0 0-2.867zm43.252-25.737h-31.953a1 1 0 0 0-1 1v15.56a1 1 0 0 0 1 1h31.953a1 1 0 0 0 1-1v-15.56a1 1 0 0 0-1-1zm-.445 20.883h-31.075a1.433 1.433 0 1 0 0 2.867h31.075a1.433 1.433 0 0 0 0-2.867zm-4.559 4.873h-26.516a1.433 1.433 0 0 0 0 2.867h26.516a1.434 1.434 0 0 0 0-2.867z" fill="#DBEEEB"/><path d="M89.465 137.271l-3.8 2.194v-4.387l3.8 2.193zm38.501 0l-3.799 2.194v-4.387l3.799 2.193z" fill="#fff"/><path d="M103.05 162.206H71.097a1 1 0 0 0-1 1v15.559a1 1 0 0 0 1 1h31.953a1 1 0 0 0 1-1v-15.559a1 1 0 0 0-1-1zm-.445 20.862H71.783a1.434 1.434 0 0 0 0 2.867h30.822a1.434 1.434 0 0 0 0-2.867zm-4.306 4.874H71.783a1.434 1.434 0 0 0 0 2.867h26.516a1.434 1.434 0 0 0 0-2.867zm43.252-25.737h-31.953a1 1 0 0 0-1 1v15.559a1 1 0 0 0 1 1h31.953a1 1 0 0 0 1-1v-15.559a1 1 0 0 0-1-1zm-.445 20.88h-31.075a1.433 1.433 0 1 0 0 2.867h31.075a1.433 1.433 0 0 0 0-2.867zm-4.559 4.874h-26.516a1.433 1.433 0 0 0 0 2.867h26.516a1.433 1.433 0 1 0 0-2.867z" fill="#DBEEEB"/><path d="M89.465 171.211l-3.8 2.193v-4.387l3.8 2.194zm38.501 0l-3.799 2.193v-4.387l3.799 2.194z" fill="#fff"/><g filter="url(#filter1_d)"><rect x="107.994" y="90.695" width="124.507" height="83.005" rx="4" fill="#FBFBFB"/></g><circle cx="170.247" cy="95.379" r="18.074" fill="#DBEEEB"/><path fill-rule="evenodd" clip-rule="evenodd" d="M170.125 83.603c-2.847 0-5.153 2.291-5.153 5.12 0 2.828 2.306 5.119 5.153 5.119 2.848 0 5.154-2.291 5.154-5.12 0-2.828-2.306-5.119-5.154-5.119zm2.584 5.116c0-1.408-1.16-2.56-2.577-2.56s-2.577 1.152-2.577 2.56c0 1.409 1.16 2.56 2.577 2.56s2.577-1.151 2.577-2.56zm5.149 12.801c-.258-.909-4.252-2.56-7.731-2.56-3.466 0-7.434 1.638-7.731 2.56h15.462zm-18.037.003c0-3.404 6.867-5.12 10.308-5.12 3.44 0 10.307 1.716 10.307 5.12v2.56h-20.615v-2.56z" fill="#fff"/><ellipse cx="170.127" cy="88.724" rx="3.865" ry="3.84" fill="#fff"/><path d="M170.13 98.323c-5.67-.513-7.946 2.347-8.376 3.841h17.395c-.644-1.067-3.35-3.33-9.019-3.841z" fill="#fff"/><rect x="122.72" y="122.825" width="95.054" height="8.033" rx="4.016" fill="#DBEEEB"/><rect x="122.72" y="137.552" width="95.054" height="8.033" rx="4.016" fill="#DBEEEB"/><rect x="148.157" y="153.617" width="44.18" height="8.033" rx="4.016" fill="#DBEEEB"/><path d="M104.226 201.265s-.682 4.291-1.863 5.695c-.409.468-1.113 1.057-1.59 1.891-.749 1.302-.34 3.254.205 4.332.272.549-.023.549.613.732 1.885.529 3.906-.366 4.724-1.993.454-.915.84-2.135.931-3.661.205-3.904 1.545-5.898 1.545-5.898l-4.565-1.098zm20.713 1.973s.432 4.841.091 6.427c-.182.834-1.204 2.583-.75 3.376.477.793 1.022.997 1.022.997l12.22.183c.658 0 .227-.387-.318-.732-.886-.59-1.59-.977-4.406-2.197-.182-.081-.841-.468-1.091-.59-.613-.325-1.226-.854-1.749-1.383-.885-.874-.953-5.145-.953-5.145l-4.066-.936z" fill="#F7A491"/><path d="M134.502 138.787s1.544 7.871.522 13.037c-1.022 5.165-5.86 53.001-5.86 53.001l-5.382.264s-1.136-19.972-.932-22.758c.205-2.787 1.795-7.424 1.795-7.424l-.546-16.128 6.814-21.192 3.589 1.2z" fill="#01B213"/><path d="M118.649 137.14s-4.248 5.755-5.247 10.514c-1.022 4.759.749 19.403-1.204 25.647-1.045 3.376-5.042 8.603-5.655 12.955-.614 4.373-2.976 15.803-2.976 15.803l5.383.956 12.538-28.575 9.834-25.83 2.521-13.301-15.194 1.831z" fill="#0CBF1E"/><path d="M106.679 211.068c-2.93.488-4.884-1.058-5.906-2.217-.749 1.322-1.113 3.275-.568 4.352.477.956 1.908.916 3.021.956 1.181.041 2.09-.549 2.68-1.464.25-.447.523-.997.773-1.627zm25.052-.387c-3.226.753-5.633.244-6.973-.244-.341.875-.795 1.993-.568 2.624.295.773.727.956 1.09.956 2.953.061 10.811.162 13.083.183.318 0 .477-.326.295-.55-.568-.569-6.7-2.827-6.927-2.969z" fill="#184655"/><path d="M153.853 125.199c.227-.427-2.158-1.017-2.226-1.485-.068-.468 3.112-.203 3.271-.59.295-.712-3.476-.468-3.362-.813.114-.326 3.975-.753 3.634-1.363-.341-.631-3.952.793-4.02.386-.068-.406 3.498-1.057 3.543-1.932.023-.467-5.928 1.79-6.541 1.485-.613-.305.977-2.38.5-2.746-.477-.366-2.567 3.926-2.953 4.068-.386.122-8.54 2.339-11.311 2.705-.227-.834-2.317-5.471-2.521-6.264-1.635.834-3.702-.163-5.36.569.84 2.644 2.725 11.369 3.475 11.776 2.294 1.2 14.354-4.515 16.353-5.512 1.999-1.017 3.021-.528 4.315-.793 1.295-.264 2.976.936 3.203.509z" fill="#F38B80"/><path d="M132.412 99.493c.613-2.46 1.203-4.962-.409-7.667-1.295-2.197-3.521-3.458-6.11-3.743-7.336-.772-5.769 5.35-16.012 6.671-3.18.407-6.155.814-8.813 2.237-4.792 2.563-6.609 6.671-3.43 13.363 7.791 16.392 26.461 2.155 29.3-.753 2.816-2.868 5.065-8.522 5.474-10.108z" fill="#0E2E35"/><path d="M120.852 107.282s-3.703.387-5.928 2.542c-2.226 2.156 3.588 19.505 3.974 22.25.409 2.746-3.861 10.352-3.861 10.352s14.468 2.583 18.216.346c0 0 .34-21.233-.069-23.185-.408-1.953-3.77-9.946-4.565-10.718-.772-.794-7.767-1.587-7.767-1.587z" fill="#F2BF64"/><path d="M122.714 100.592s-.023.142-.091.407c-.25 1.2-1.204 5.186-1.863 6.284-.795 1.322 2.68 5.552 6.019 5.044 1-.163-.84-3.885-.749-4.271.159-.753.408-1.79.636-2.847.136-.59.272-1.2.386-1.77l.658-2.949-4.996.102z" fill="#F7A491"/><path opacity=".5" d="M122.646 100.999c.045-.244.091-.407.091-.407l4.996-.102-.658 2.949c-.137.57-.25 1.16-.386 1.77-.773-.102-1.59-.448-2.385-1.078a5.822 5.822 0 0 1-1.817-2.4c.068-.305.113-.549.159-.732z" fill="#F47458"/><path d="M125.735 89.934s-2.044.244-3.521 1.973c-1.476 1.708-3.066 6.996.591 9.864 3.679 2.867 7.313-.387 7.836-3.824.567-3.457.454-8.135-4.906-8.013z" fill="#F7A491"/><path d="M131.731 97.093c-.227.834-.841 1.403-1.363 1.261-.522-.142-.749-.935-.522-1.749.227-.834.84-1.403 1.362-1.26.523.142.75.914.523 1.748z" fill="#F7A491"/><path d="M128.006 89.953s-4.793 4.942-7.064 5.166c-2.248.224-2.544 2.908-2.544 2.908s.818-6.162 3.044-7.342c2.226-1.2 6.564-.732 6.564-.732z" fill="#0E2E35"/><path d="M121.692 96.32c.182.894-.182 1.708-.818 1.83-.636.122-1.294-.509-1.499-1.404-.181-.894.182-1.708.818-1.83.636-.122 1.317.508 1.499 1.403z" fill="#F7A491"/><path d="M121.623 121.356l15.513 2.034c.477.061.795.447.727.874l-3.021 18.528c-.068.427-.5.712-.977.651l-15.512-2.034c-.477-.061-.795-.447-.727-.874l3.021-18.528c.068-.427.499-.712.976-.651z" fill="#184655"/><path d="M133.184 122.271c.023-.081-.045-.163-.136-.183l-6.473-.854a.177.177 0 0 0-.204.122l-.091.61 6.814.895.09-.59z" fill="#13375B"/><path d="M129.913 120.928c-.568-.081-1.09.285-1.158.773-.091.509.318.976.863 1.037.568.082 1.09-.284 1.158-.772.091-.489-.295-.956-.863-1.038zm-.227 1.505c-.363-.04-.613-.345-.568-.671.046-.325.386-.549.75-.508.363.04.613.345.568.671-.069.325-.387.549-.75.508z" fill="#13375B"/><path d="M133.093 122.109c.068.04.091.081.091.163l-.091.61-6.814-.895c-.068.427.25.813.727.874l5.133.671c.477.061.909-.223.977-.65l.091-.61c-.023-.082-.046-.123-.114-.163z" fill="#355389"/><path d="M128.369 99.655l-3.498-.02s.068 1.179 1.613 1.24c1.862.061 1.885-1.22 1.885-1.22z" fill="#fff"/><path d="M110.744 126.097l5.61.509s-.091 4.271 0 4.759c0 0 9.607 2.379 13.627 3.03 0 0 1.84-.935 2.567-1.22.749-.305 2.725-.61 3.157-.671.431-.061.295.386-.091.528-.386.143-1.363.57-1.635 1.058 0 0 .795.081 1.203-.081.409-.163 1-.529 1-.712 0-.183.113-.631.25-.61.045 0 .09.142.136.305.045.142.091.285.136.447.068.265.159.651.182.814.068.386-.205 1.464-.227 1.851-.068.691-.296 1.016-.704 1.199-.659.204-1.363.346-2.408.428-1.908.183-3.679-.326-4.429-.387-.772-.081-12.991-1.159-12.991-1.159s-4.861-.631-5.179-1.383c-.341-.712-.204-8.705-.204-8.705z" fill="#F7A491"/><path d="M115.627 109.195s-1.771.752-3.338 4.006c-1.477 3.092-1.908 18.508-1.908 18.508l5.882-.875 2.998-7.199c2.135-4.312 1.59-9.315-1.521-13.118-.863-.997-1.613-1.607-2.113-1.322z" fill="#F2BF64"/><defs><filter id="filter0_d" x="37.12" y="55.273" width="259.974" height="171.201" filterUnits="userSpaceOnUse" color-interpolation-filters="sRGB"><feFlood flood-opacity="0" result="BackgroundImageFix"/><feColorMatrix in="SourceAlpha" values="0 0 0 0 0 0 0 0 0 0 0 0 0 0 0 0 0 0 127 0"/><feOffset dy="6"/><feGaussianBlur stdDeviation="10"/><feColorMatrix values="0 0 0 0 0.623529 0 0 0 0 0.698039 0 0 0 0 0.686275 0 0 0 0.3 0"/><feBlend in2="BackgroundImageFix" result="effect1_dropShadow"/><feBlend in="SourceGraphic" in2="effect1_dropShadow" result="shape"/></filter><filter id="filter1_d" x="93.994" y="80.695" width="152.507" height="111.005" filterUnits="userSpaceOnUse" color-interpolation-filters="sRGB"><feFlood flood-opacity="0" result="BackgroundImageFix"/><feColorMatrix in="SourceAlpha" values="0 0 0 0 0 0 0 0 0 0 0 0 0 0 0 0 0 0 127 0"/><feOffset dy="4"/><feGaussianBlur stdDeviation="7"/><feColorMatrix values="0 0 0 0 0.45098 0 0 0 0 0.694118 0 0 0 0 0.658824 0 0 0 0.3 0"/><feBlend in2="BackgroundImageFix" result="effect1_dropShadow"/><feBlend in="SourceGraphic" in2="effect1_dropShadow" result="shape"/></filter><linearGradient id="paint0_linear" x1="193.623" y1="45.571" x2="33.535" y2="206.579" gradientUnits="userSpaceOnUse"><stop stop-color="#99FF1E"/><stop offset="1" stop-color="#99FF1E" stop-opacity=".43"/></linearGradient><linearGradient id="paint1_linear" x1="186.903" y1="87.152" x2="286.632" y2="161.891" gradientUnits="userSpaceOnUse"><stop stop-color="#DFF2EE"/><stop offset="1" stop-color="#E2F2EF"/></linearGradient><linearGradient id="paint2_linear" x1="164.318" y1="99.087" x2="264.652" y2="150.191" gradientUnits="userSpaceOnUse"><stop stop-color="#fff"/><stop offset="1" stop-color="#fff" stop-opacity=".96"/></linearGradient><linearGradient id="paint3_linear" x1="207.733" y1="162.988" x2="207.733" y2="187.086" gradientUnits="userSpaceOnUse"><stop stop-color="#E1F1EE"/><stop offset="1" stop-color="#E1F1EE" stop-opacity="0"/></linearGradient><linearGradient id="paint4_linear" x1="251.964" y1="175.888" x2="257.838" y2="189.378" gradientUnits="userSpaceOnUse"><stop stop-color="#6DEEFF"/><stop offset="1" stop-color="#31C0FA"/></linearGradient></defs></svg>