<svg width="75" height="86" fill="none" xmlns="http://www.w3.org/2000/svg"><path fill-rule="evenodd" clip-rule="evenodd" d="M42.465 2.033C42.465.91 43.373 0 44.498 0 61.318 0 75 13.818 75 30.638c0 1.123-.91 2.033-2.034 2.033H44.498a2.032 2.032 0 0 1-2.033-2.033V2.033zm-7.016 36.83l10.662 28.579a2.2 2.2 0 0 1-1.285 2.83 32.798 32.798 0 0 1-11.574 2.096C15.077 72.368 0 57.438 0 39.263 0 21.088 15.077 6.304 33.252 6.304c1.214 0 2.197.983 2.197 2.197v30.363z" fill="url(#paint0_linear)"/><path d="M67.666 39.474H25.39a3.022 3.022 0 0 0-2.828 4.081l14.845 39.79a3.02 3.02 0 0 0 1.58 1.686 3.005 3.005 0 0 0 2.313.077c17.576-6.615 29.387-23.859 29.387-42.615 0-1.669-1.35-3.02-3.02-3.02z" fill="url(#paint1_linear)"/><path d="M52.083 11.05c3.648.886 11.21 4.813 12.281 13.427" stroke="#fff" stroke-width="3" stroke-linecap="round"/><defs><linearGradient id="paint0_linear" x1="36.842" y1="78.29" x2="30.263" y2="-6.579" gradientUnits="userSpaceOnUse"><stop stop-color="#0DB817"/><stop offset="1" stop-color="#93F055"/></linearGradient><linearGradient id="paint1_linear" x1="26.608" y1="58.987" x2="77.923" y2="49.776" gradientUnits="userSpaceOnUse"><stop stop-color="#4CB0FD" stop-opacity=".61"/><stop offset="1" stop-color="#32D1F4" stop-opacity=".99"/></linearGradient></defs></svg>