<svg width="2038" height="1010" fill="none" xmlns="http://www.w3.org/2000/svg"><path opacity=".19" d="M283.862 868.659C403.064 998.244 720.74 844.467 589.51 684.908c-137.239-128.14-71.005-199.689-142.881-276.358-95.258-102.025-249.628 11.082-249.752 10.908C-.12 556.033 94.585 734.023 283.862 868.659z" fill="url(#paint0_linear)"/><path d="M1651.53 951.994c70.5 43.221 181.28 37.682 213.64 31.049l172.15-760.191c-241.26 90.914-387.2-47.23-561.87-71.079-195.38-26.676-318.86 11.685-394.53 69.154-75.67 57.469-169.588 212.144-108.743 339.795 60.843 127.651 236.983 103.877 372.483 168.592 135.5 64.715 236.37 179.46 306.87 222.68z" fill="url(#paint1_linear)"/><path d="M1631.83 842.245c78.28 21.839 185.08-2.701 215.17-13.888V188c-215.17 116.624-387.98 32.415-563.57 45-196.4 14.077-308.333 67.22-369.43 127-61.096 59.78-118.517 200.757-31 292s254.02 40.232 400.43 67.5 270.11 100.905 348.4 122.745z" fill="url(#paint2_linear)"/><defs><linearGradient id="paint0_linear" x1="533.483" y1="904.134" x2="560.132" y2="546.329" gradientUnits="userSpaceOnUse"><stop stop-color="#28FEFE" stop-opacity=".3"/><stop offset="1" stop-color="#30B3C7"/></linearGradient><linearGradient id="paint1_linear" x1="1040.49" y1="684.769" x2="1766.71" y2="313.314" gradientUnits="userSpaceOnUse"><stop stop-color="#ECFFD5" stop-opacity=".97"/><stop offset="1" stop-color="#ECFFD5" stop-opacity=".34"/></linearGradient><linearGradient id="paint2_linear" x1="977" y1="739" x2="1672.32" y2="209.261" gradientUnits="userSpaceOnUse"><stop stop-color="#ABE9F0"/><stop offset="1" stop-color="#E3F9F9" stop-opacity=".78"/></linearGradient></defs></svg>