<svg width="360" height="749" fill="none" xmlns="http://www.w3.org/2000/svg"><path d="M177 132.399c-271 0-663.5-63.377-717-101.404v625H900V52.446s-228.817 79.953-723 79.953z" fill="url(#paint0_linear)"/><mask id="a" maskUnits="userSpaceOnUse" x="-187" y="0" width="1228" height="706"><path d="M405.681 86.479C-15.782 230.35-187 90.715-187 36.073v553.196a983.892 983.892 0 0 0 631.315 102.488L1041 589.269V69.959S944.21-97.355 405.681 86.48z" fill="url(#paint1_linear)"/></mask><g mask="url(#a)"><path fill-rule="evenodd" clip-rule="evenodd" d="M126.139 144.573c-19.538 9.965-38.849 21.706-57.584 34.849 1.396 32.116 2.944 63.965 4.492 88.637 4.234 71.977 15.17 195.249 17.037 216.105 2.1 2.789 1.507 9.14.297 11.337.31 9.984 3.223 103.149 6.452 187.285a414.27 414.27 0 0 0 29.319-.625c-.539-68.626-1.465-138.085-1.465-138.085l.178-.073c-.136-1.966-.699-11.17.028-19.399l.304.044c-.079-.412-.099-.663-.099-.663s1.228-110.654 1.228-228.727a63375 63375 0 0 0-.187-150.685zm15.981 382.708c.769 4.464.366 15.298-.037 18.341l-.006.004c-.04 2.718-.333 23.373-.659 73.169 6.373-15.236 15.316-33.785 24.955-48.395 14.487-21.956 41.496-49.198 58.281-63.108-5.617 19.274-18.083 55.23-34.951 79.777-13.409 19.512-33.858 37.821-45.128 47.913a897.56 897.56 0 0 0-3.275 2.941l-.036 6.299c-.05 8.713-.072 21.32-.074 36.759 125.175-12.422 266.128-90.793 303.451-240.455 39.122-156.876-57.491-331.961-186.369-331.961-6.817 0-13.707.346-20.655 1.019-26.762 49.201-51.526 95.827-77.33 144.895-4.198 7.809-8.351 15.728-12.523 23.683l-.005.01-.011.02a6089.128 6089.128 0 0 1-5.854 11.143l-.015 11.178c-.057 43.444-.05 80.343-.01 110.942 4.914-11.865 13.037-28.654 21.796-41.282 10.987-15.84 31.239-35.339 43.772-45.245-4.443 14.026-14.187 40.157-26.963 57.854-10.156 14.067-25.448 27.133-33.877 34.335l-.001.001c-2.021 1.726-3.647 3.116-4.713 4.101.115 71.575.406 105.548.406 105.548s-.041.198-.169.514zm-.2-255.993c3.638-6.933 7.267-13.832 10.93-20.647 24.83-47.172 48.839-92.417 74.589-139.843-27.968 3.949-56.717 12.993-85.188 25.988-.131 40.267-.253 86.063-.331 134.502zM42.754 499.259l.18.045c-.122.169-.18.263-.18.263s1.388 19.926 3.542 51.175c-3.875-11.535-7.6-22.715-10.394-31.099-4.02-12.178-6.786-20.205-7.393-21.803-10.045-26.972-29.572-87.213-29.6-87.927l-.22.088c-2.31-9.634-7.764-30.201-13.277-45.764-6.38-18.013-22.963-40.751-32.385-51.495 1.931 15.397 7.955 42.031 15.595 59.125 6.598 14.763 16.916 30.745 24.234 40.485l-.901.363c.054.124.737 2.231 1.88 5.757v.002h.001c3.024 9.329 9.268 28.588 15.613 47.347-11.462-8.815-31.372-23.467-48.025-33.909-7.755-4.862-17.39-9.27-27.423-13.082-2.534-9.361-5.086-18.811-7.66-28.371-4.213-15.639-8.21-30.936-12.324-46.683l-.253-.969c28.775-47.504 69.192-93.962 115.176-132.814 4.706 97.138 12.42 253.549 13.65 278.456l-.146-.009c0-.309-1.545 6.491.31 10.819zM-71.95 416.653c-16.065-5.663-32.394-9.754-43.069-11.702 11.704 11.479 31.943 28.207 50.855 40.388 11.825 43.441 23.384 85.344 35.133 127.622a328.251 328.251 0 0 0-13.928-5.581c4.688 6.588 11.374 14.959 18.903 23.463 3.232 11.61 6.484 23.268 9.764 35.013 2.803 10.212 5.686 20.504 8.582 30.842v.003l2.708 9.671c-75.239-26.305-128.567-85.44-128.567-186.627 0-40.594 15.544-85.958 41.599-130.655 3.689 14.108 7.326 27.969 11.19 42.257a19607.58 19607.58 0 0 0 6.83 25.306zm62.78 208.315a40754.52 40754.52 0 0 1-7.171-25.691C-8.41 607.661-.02 615.638 7.68 621.576c13.666 10.539 31.813 20.622 45.32 27.161.692 10.187 1.397 20.591 2.106 31.106-18.169-2.365-35.67-6.161-52.183-11.481-1.17-4.189-2.341-8.373-3.511-12.549-2.896-10.339-5.78-20.632-8.582-30.845zm32.687-22.422c11.59 9.291 21.198 19.987 28.288 28.586-1.244-18.262-2.429-35.58-3.507-51.293-4.352-12.725-9.876-29.177-16.526-48.982l-2.824-8.411c-1.46-4.429-2.78-8.506-3.88-11.904l-.002-.007v-.002c-1.695-5.236-2.869-8.862-3.231-9.687-2.465-6.437-5.441-14.791-8.548-23.788-15.334-3.639-42.144-12.375-63.08-23.279a159.985 159.985 0 0 1-7.919-4.436 24522.473 24522.473 0 0 0 34.787 126.291c15.228 6.844 33.077 16.198 46.442 26.912z" fill="url(#paint2_linear)" fill-opacity=".52"/></g><defs><linearGradient id="paint0_linear" x1="-550" y1="325.427" x2="881.699" y2="616.16" gradientUnits="userSpaceOnUse"><stop stop-color="#01B213"/><stop offset="1" stop-color="#91ED58"/></linearGradient><linearGradient id="paint1_linear" x1="-195.528" y1="311.824" x2="1154.62" y2="311.609" gradientUnits="userSpaceOnUse"><stop offset=".601" stop-color="#01B213"/><stop offset="1" stop-color="#74D355"/></linearGradient><linearGradient id="paint2_linear" x1="-78.969" y1="641.093" x2="453.151" y2="206.426" gradientUnits="userSpaceOnUse"><stop stop-color="#fff" stop-opacity=".66"/><stop offset=".922" stop-color="#fff" stop-opacity="0"/></linearGradient></defs></svg>