<svg width="717" height="430" fill="none" xmlns="http://www.w3.org/2000/svg"><path d="M716 376V12c0-6.627-5.373-12-12-12H12C5.373 0 0 5.373 0 12v364h716z" fill="url(#paint0_linear)"/><path d="M611.831 376.317h-111.86l215.957-191.976v99.439l-104.097 92.537zm-280.33 0h38.023L715.985 68.329v-33.8L331.501 376.316zM0 140.919v33.801L196.067.425h-38.023L0 140.919zM392.361.475H226.667L.057 201.922v147.294L392.36.476z" fill="url(#paint1_linear)" fill-opacity=".3"/><path d="M40.596 348c-1.95 0-3.65-.397-5.101-1.191a8.297 8.297 0 0 1-3.318-3.364c-.785-1.472-1.177-3.189-1.177-5.151V322h4.887v9.916h.036c.547-.817 1.308-1.46 2.283-1.927a7.487 7.487 0 0 1 3.21-.701c1.784 0 3.33.386 4.637 1.157a7.905 7.905 0 0 1 3.032 3.188c.738 1.332 1.106 2.885 1.106 4.661 0 1.869-.38 3.539-1.141 5.011-.737 1.448-1.82 2.593-3.246 3.434-1.427.841-3.163 1.261-5.208 1.261zm0-4.1c1.45 0 2.58-.502 3.388-1.506.833-1.028 1.249-2.278 1.249-3.75 0-1.471-.416-2.71-1.249-3.714-.808-1.028-1.938-1.542-3.388-1.542-1.451 0-2.592.514-3.425 1.542-.808 1.004-1.213 2.243-1.213 3.714 0 1.472.405 2.722 1.213 3.75.833 1.004 1.974 1.506 3.425 1.506zm22.466 4.1c-1.665 0-3.116-.42-4.352-1.261-1.237-.841-2.2-1.963-2.89-3.364-.666-1.425-.998-2.99-.998-4.696 0-1.752.38-3.34 1.141-4.765.785-1.425 1.902-2.547 3.353-3.364 1.45-.841 3.187-1.262 5.208-1.262 2.045 0 3.77.421 5.173 1.262s2.473 1.974 3.21 3.399c.737 1.425 1.106 3.002 1.106 4.73v8.901h-4.887v-2.979h-.072c-.547.934-1.296 1.74-2.247 2.418-.927.654-2.176.981-3.745.981zm1.39-4.1c1.428 0 2.545-.514 3.354-1.542.832-1.027 1.249-2.277 1.249-3.749 0-1.448-.417-2.675-1.249-3.679-.809-1.028-1.926-1.542-3.353-1.542-1.45 0-2.592.514-3.425 1.542-.832 1.004-1.248 2.231-1.248 3.679 0 1.472.416 2.722 1.248 3.749.833 1.028 1.974 1.542 3.425 1.542zm16.328 3.68v-10.618c0-1.401.344-2.686 1.034-3.854.69-1.168 1.677-2.091 2.96-2.768 1.309-.701 2.878-1.052 4.71-1.052 1.307 0 2.484.222 3.53.666a7.942 7.942 0 0 1 2.676 1.822h.036a8.34 8.34 0 0 1 2.71-1.822c1.071-.444 2.26-.666 3.568-.666 1.831 0 3.389.351 4.673 1.052 1.308.677 2.307 1.6 2.996 2.768.69 1.168 1.035 2.453 1.035 3.854v10.618h-4.887v-10.618c0-.981-.381-1.822-1.142-2.523-.737-.7-1.629-1.051-2.675-1.051-1.046 0-1.95.351-2.711 1.051-.737.701-1.106 1.542-1.106 2.523v10.618H93.3v-10.618c0-.981-.38-1.822-1.141-2.523-.738-.7-1.63-1.051-2.676-1.051-1.046 0-1.95.351-2.71 1.051-.738.701-1.106 1.542-1.106 2.523v10.618h-4.888zm46.114.42c-1.95 0-3.651-.397-5.101-1.191a8.3 8.3 0 0 1-3.318-3.364c-.784-1.472-1.177-3.189-1.177-5.151V322h4.887v9.916h.036c.547-.817 1.308-1.46 2.283-1.927a7.487 7.487 0 0 1 3.21-.701c1.784 0 3.33.386 4.637 1.157a7.912 7.912 0 0 1 3.033 3.188c.737 1.332 1.105 2.885 1.105 4.661 0 1.869-.38 3.539-1.141 5.011-.737 1.448-1.819 2.593-3.246 3.434-1.427.841-3.163 1.261-5.208 1.261zm0-4.1c1.45 0 2.58-.502 3.389-1.506.832-1.028 1.248-2.278 1.248-3.75 0-1.471-.416-2.71-1.248-3.714-.809-1.028-1.939-1.542-3.389-1.542-1.451 0-2.592.514-3.425 1.542-.808 1.004-1.213 2.243-1.213 3.714 0 1.472.405 2.722 1.213 3.75.833 1.004 1.974 1.506 3.425 1.506zm24.036 4.1c-1.879 0-3.555-.409-5.03-1.226-1.474-.841-2.64-1.963-3.496-3.364-.856-1.425-1.284-3.014-1.284-4.766 0-1.752.428-3.329 1.284-4.73a9.216 9.216 0 0 1 3.496-3.364c1.475-.841 3.151-1.262 5.03-1.262 1.879 0 3.555.421 5.03 1.262a9.213 9.213 0 0 1 3.495 3.364c.856 1.401 1.284 2.978 1.284 4.73 0 1.752-.428 3.341-1.284 4.766-.856 1.401-2.021 2.523-3.495 3.364-1.475.817-3.151 1.226-5.03 1.226zm0-4.1c1.498 0 2.675-.502 3.531-1.506.88-1.028 1.32-2.278 1.32-3.75 0-1.471-.44-2.71-1.32-3.714-.856-1.028-2.033-1.542-3.531-1.542-1.498 0-2.687.514-3.567 1.542-.856 1.004-1.284 2.243-1.284 3.714 0 1.472.428 2.722 1.284 3.75.88 1.004 2.069 1.506 3.567 1.506zm24.26 4.1c-1.878 0-3.555-.409-5.029-1.226-1.475-.841-2.64-1.963-3.496-3.364-.856-1.425-1.284-3.014-1.284-4.766 0-1.752.428-3.329 1.284-4.73a9.21 9.21 0 0 1 3.496-3.364c1.474-.841 3.151-1.262 5.029-1.262 1.879 0 3.556.421 5.03 1.262a9.216 9.216 0 0 1 3.496 3.364c.856 1.401 1.284 2.978 1.284 4.73 0 1.752-.428 3.341-1.284 4.766-.856 1.401-2.022 2.523-3.496 3.364-1.474.817-3.151 1.226-5.03 1.226zm0-4.1c1.499 0 2.676-.502 3.532-1.506.88-1.028 1.32-2.278 1.32-3.75 0-1.471-.44-2.71-1.32-3.714-.856-1.028-2.033-1.542-3.532-1.542-1.498 0-2.687.514-3.567 1.542-.856 1.004-1.284 2.243-1.284 3.714 0 1.472.428 2.722 1.284 3.75.88 1.004 2.069 1.506 3.567 1.506z" fill="#7BE159" fill-opacity=".8"/><path d="M716.286 376.069H0v41.629c0 6.627 5.373 12 12 12h692.286c6.627 0 12-5.373 12-12v-41.629z" fill="#1E4843"/><path d="M696.785 394.267H500.749a2.782 2.782 0 0 1-2.778-2.778 2.782 2.782 0 0 1 2.778-2.778h196.036a2.782 2.782 0 0 1 2.778 2.778c-.057 1.531-1.247 2.778-2.778 2.778z" fill="#fff"/><path d="M500.692 394.267H20.522a2.782 2.782 0 0 1-2.777-2.778 2.782 2.782 0 0 1 2.777-2.778h480.17a2.782 2.782 0 0 1 2.778 2.778 2.782 2.782 0 0 1-2.778 2.778z" fill="#03D218"/><path d="M506.588 391.489a5.831 5.831 0 0 1-5.839 5.839 5.83 5.83 0 0 1-5.839-5.839 5.83 5.83 0 0 1 5.839-5.84c3.174 0 5.839 2.608 5.839 5.84z" fill="#FFFDFF"/><path d="M53.913 406.966h3.742v12.812h-3.742v-12.812zm-7.2 12.812h3.742v-12.812h-3.741v12.812zm35.602-12.812v5.159l-7.88-5.159v12.812l7.88-5.158v5.158h3.742v-12.812h-3.742zm-64.004 0v12.812h3.742v-5.158l7.88 5.158v-12.812l-7.88 5.159v-5.159h-3.742z" fill="#fff"/><defs><linearGradient id="paint0_linear" x1="218" y1="-34.5" x2="813" y2="460.5" gradientUnits="userSpaceOnUse"><stop stop-color="#01B213"/><stop offset="1" stop-color="#78EE1B" stop-opacity=".52"/></linearGradient><linearGradient id="paint1_linear" x1="72" y1="35" x2="691" y2="385" gradientUnits="userSpaceOnUse"><stop stop-color="#30CE2D"/><stop offset="1" stop-color="#3DCA33" stop-opacity=".96"/></linearGradient></defs></svg>