<svg width="266" height="105" fill="none" xmlns="http://www.w3.org/2000/svg"><path opacity=".35" d="M0 13.668V95c0 5.523 4.477 10 10 10h246c5.523 0 10-4.477 10-10V45.731c-4.772 3.887-17.185 10.957-51.241 4.858-27.127-4.858-67.065-30.12-106.249-44.694C77.163-5.765 20.5 1.48 0 13.668z" fill="url(#paint0_linear)"/><path opacity=".71" d="M266 30.818V95c0 5.523-4.477 10-10 10H10c-5.523 0-10-4.477-10-10V56.86c4.772 3.157 17.185 8.9 51.24 3.946 27.128-3.945 80.076-22.795 119.26-34.632 31.347-9.47 84-.584 95.5 4.644z" fill="url(#paint1_linear)"/><path d="M0 18.124V95c0 5.523 4.477 10 10 10h246c5.523 0 10-4.477 10-10V48.623c-4.772 3.697-22.908 11.46-57.269 12.939-42.952 1.848-89.672-29.575-128.856-43.438-31.347-11.09-66.311-4.621-79.875 0z" fill="url(#paint2_linear)"/><defs><linearGradient id="paint0_linear" x1="133" y1="105" x2="89.579" y2="5.823" gradientUnits="userSpaceOnUse"><stop stop-color="#32D7EB"/><stop offset="1" stop-color="#D8F1F4"/></linearGradient><linearGradient id="paint1_linear" x1="151" y1="76.389" x2="235.371" y2="16.773" gradientUnits="userSpaceOnUse"><stop stop-color="#ECFFD5"/><stop offset=".531" stop-color="#ECFFD5"/></linearGradient><linearGradient id="paint2_linear" x1="266" y1="93.375" x2="-1.586" y2="49.307" gradientUnits="userSpaceOnUse"><stop stop-color="#78EE1B"/><stop offset="1" stop-color="#01B313"/></linearGradient></defs></svg>