<svg width="976" height="595" fill="none" xmlns="http://www.w3.org/2000/svg"><path d="M285.016 453.798c-60.052-24.502-36.384-80.434-28.895-85.385 8.123-7.042 27.936-8.22 40.638 34.628 12.481 25.501 41.852 16.704 52.715 17.521 23.204 1.745 39.491 10.2 36.055 20.373-3.436 10.173-40.46 37.365-100.513 12.863z" fill="url(#paint0_linear)" opacity=".3"/><path opacity=".35" d="M595.702 334.664c-59.767 110.844 103.513 301.908 175.253 159.049 55.408-122.509 113.585-95.739 148.689-162.219 46.786-88.206-59.23-177.646-59.143-177.771-124.505-98.11-215.179 22.19-264.799 180.941z" fill="url(#paint1_linear)"/><path d="M715.685 78.688c44.519 8.155 115.855 45.954 147.078 101.603 31.732 56.59 53.575 153.986-12.094 246.233-41.477 58.12-124.324 116.968-234.449 108.764-92.806-6.903-122.599-106.86-82.768-171.389 54.878-88.909 28.517-113.591 40.93-199.867 12.412-86.276 91.568-94.552 141.303-85.344z" fill="url(#paint2_linear)"/><g filter="url(#filter0_d)"><rect x="146" y="57" width="235.501" height="370.67" rx="10" fill="#fff"/></g><path d="M363.641 193.851V76.202H164.432v117.649h199.209z" fill="#D1E8E3"/><path d="M334.66 193.836h-31.122l60.085-60.086v31.123l-28.963 28.963zm-77.996 0h10.579l96.396-96.396V86.86L256.664 193.837zm-92.234-73.677v10.58l54.552-54.552h-10.579l-43.973 43.972zm109.167-43.957h-46.101l-63.05 63.05v46.101l109.151-109.15z" fill="#E2F1EE"/><path d="M363.639 193.836H164.43v14.915h199.209v-14.915z" fill="#1E4843"/><path d="M358.215 198.897h-54.52a.774.774 0 01-.773-.773c0-.425.347-.772.773-.772h54.52c.426 0 .773.347.773.772-.016.426-.347.773-.773.773z" fill="#fff"/><path d="M303.679 198.897H170.137a.774.774 0 01-.772-.773c0-.425.347-.772.772-.772h133.542c.426 0 .773.347.773.772a.774.774 0 01-.773.773z" fill="#03D218"/><path d="M305.318 198.124c0 .899-.725 1.624-1.623 1.624a1.621 1.621 0 01-1.624-1.624c0-.899.725-1.624 1.624-1.624.882 0 1.623.725 1.623 1.624z" fill="#FFFDFF"/><path d="M179.424 202.429h1.04v3.563h-1.04v-3.563zm-2.002 3.563h1.04v-3.563h-1.04v3.563zm9.901-3.563v1.435l-2.192-1.435v3.563l2.192-1.434v1.434h1.04v-3.563h-1.04zm-17.8 0v3.563h1.04v-1.434l2.192 1.434v-3.563l-2.192 1.435v-1.435h-1.04zm181.55 1.781a1.79 1.79 0 01-1.782 1.781 1.79 1.79 0 01-1.781-1.781 1.79 1.79 0 011.781-1.782 1.79 1.79 0 011.782 1.782z" fill="#fff"/><path d="M354.526 203.753v-.694h1.293v-.631h-1.924v1.325h.631zm2.334-.694h1.292v.694h.631v-1.325h-1.923v.631zm-1.041 2.412h-1.293v-.678h-.631v1.309h1.924v-.631z" fill="#FFFDFF"/><path d="M358.152 204.793v.678h-1.292v.631h1.923v-1.309h-.631z" fill="#fff"/><path d="M252.51 329.429h-83.395a5 5 0 00-5 5v38.301a5 5 0 005 5h83.395a5 5 0 005-5v-38.301a5 5 0 00-5-5zm1.026 57.386h-84.781a3.943 3.943 0 100 7.886h84.781a3.943 3.943 0 100-7.886zm-11.845 13.406h-72.936a3.943 3.943 0 000 7.886h72.936a3.943 3.943 0 100-7.886zm10.819-165.55h-83.395a5 5 0 00-5 5v38.301a5 5 0 005 5h83.395a5 5 0 005-5v-38.301a5 5 0 00-5-5zm1.026 57.567h-84.781a3.943 3.943 0 100 7.886h84.781a3.943 3.943 0 100-7.886zm-11.845 13.406h-72.936a3.943 3.943 0 100 7.886h72.936a3.943 3.943 0 100-7.886zm116.725 23.785h-83.395a5 5 0 00-5 5v38.301a5 5 0 005 5h83.395a5 5 0 005-5v-38.301a5 5 0 00-5-5zm1.026 57.441h-85.479a3.943 3.943 0 000 7.886h85.479a3.944 3.944 0 000-7.886zM346.9 400.276h-72.937a3.943 3.943 0 000 7.886H346.9a3.943 3.943 0 000-7.886zm11.516-165.605h-83.395a5 5 0 00-5 5v38.301a5 5 0 005 5h83.395a5 5 0 005-5v-38.301a5 5 0 00-5-5zm1.026 57.567h-85.479a3.943 3.943 0 000 7.886h85.479a3.943 3.943 0 000-7.886zM346.9 305.644h-72.937a3.943 3.943 0 000 7.886H346.9a3.943 3.943 0 100-7.886z" fill="#E3F2EF"/><path d="M217.765 259.057l-10.451 6.034v-12.068l10.451 6.034zm105.905 0l-10.451 6.034v-12.068l10.451 6.034zm-105.905 94.758l-10.451 6.034v-12.068l10.451 6.034zm105.905 0l-10.451 6.034v-12.068l10.451 6.034z" fill="#fff"/><g filter="url(#filter1_d)"><rect x="339" y="114" width="239" height="376.177" rx="10" fill="#fff"/><path d="M559.875 252.884V133.488H357.707v119.396h202.168z" fill="#DAEAE7"/><path d="M530.464 252.869h-31.585l60.978-60.979v31.586l-29.393 29.393zm-79.155 0h10.736l97.828-97.828v-10.737L451.309 252.869zm-93.604-74.771v10.736l55.362-55.362h-10.736l-44.626 44.626zm110.788-44.61h-46.786l-63.986 63.986v46.786l110.772-110.772z" fill="#fff" fill-opacity=".4"/><path d="M559.873 252.869H357.705v15.136h202.168v-15.136z" fill="#1E4843"/><path d="M554.369 258.005h-55.331a.785.785 0 01-.784-.784c0-.432.352-.784.784-.784h55.331c.432 0 .784.352.784.784-.016.432-.352.784-.784.784z" fill="#fff"/><path d="M499.022 258.005H363.497a.785.785 0 01-.784-.784c0-.432.352-.784.784-.784h135.525c.432 0 .784.352.784.784a.785.785 0 01-.784.784z" fill="#03D218"/><path d="M500.686 257.221c0 .912-.736 1.648-1.648 1.648a1.646 1.646 0 01-1.648-1.648c0-.912.736-1.648 1.648-1.648.896 0 1.648.736 1.648 1.648z" fill="#FFFDFF"/><path d="M372.921 261.59h1.056v3.616h-1.056v-3.616zm-2.032 3.616h1.056v-3.616h-1.056v3.616zm10.048-3.616v1.456l-2.224-1.456v3.616l2.224-1.456v1.456h1.056v-3.616h-1.056zm-18.064 0v3.616h1.056v-1.456l2.224 1.456v-3.616l-2.224 1.456v-1.456h-1.056zm184.247 1.807c0 .992-.816 1.808-1.808 1.808a1.816 1.816 0 01-1.808-1.808c0-.992.816-1.808 1.808-1.808.992 0 1.808.816 1.808 1.808z" fill="#fff"/><path d="M550.625 262.933v-.704h1.312v-.64h-1.952v1.344h.64zm2.367-.704h1.313v.704h.64v-1.344h-1.953v.64zm-1.055 2.448h-1.312v-.688h-.64v1.328h1.952v-.64z" fill="#FFFDFF"/><path d="M554.305 263.989v.688h-1.313v.64h1.953v-1.328h-.64z" fill="#fff"/><path d="M447.168 390.476h-84.783a5 5 0 00-5 5v39.019a5 5 0 005 5h84.783a5 5 0 005-5v-39.019a5 5 0 00-5-5zm.966 58.239h-86.041a4.001 4.001 0 000 8.003h86.041a4.002 4.002 0 000-8.003zm-12.02 13.605h-74.021a4.001 4.001 0 000 8.003h74.021a4.001 4.001 0 000-8.003zm11.054-168.009h-84.783a5 5 0 00-5 5v39.018a5 5 0 005 5h84.783a5 5 0 005-5v-39.018a5 5 0 00-5-5zm.966 58.422h-86.041a4.001 4.001 0 000 8.003h86.041a4.002 4.002 0 000-8.003zm-12.02 13.605h-74.021a4.001 4.001 0 000 8.003h74.021a4.001 4.001 0 000-8.003zm118.532 24.138h-84.782a5 5 0 00-5 5v39.019a5 5 0 005 5h84.782a5 5 0 005-5v-39.019a5 5 0 00-5-5zm.967 58.294h-86.748a4.001 4.001 0 000 8.003h86.748a4.001 4.001 0 100-8.003zm-12.727 13.605h-74.021a4.001 4.001 0 000 8.004h74.021a4.001 4.001 0 000-8.004zm11.76-168.064h-84.782a5 5 0 00-5 5v39.018a5 5 0 005 5h84.782a5 5 0 005-5v-39.018a5 5 0 00-5-5zm.967 58.422h-86.748a4.001 4.001 0 000 8.003h86.748a4.002 4.002 0 000-8.003zm-12.727 13.605h-74.021a4.001 4.001 0 000 8.003h74.021a4.001 4.001 0 000-8.003z" fill="#E3F2EF"/><path d="M411.831 319.059l-10.606 6.124v-12.248l10.606 6.124zm107.48 0l-10.607 6.124v-12.248l10.607 6.124zm-107.48 96.166l-10.606 6.123v-12.247l10.606 6.124zm107.48 0l-10.607 6.123v-12.247l10.607 6.124z" fill="#fff"/></g><path d="M506.352 218.698c-.178-.774-.569-1.611-.907-2.331-.036-.089-.08-.169-.125-.258-.721-1.424-.721-3.114.062-4.502.027-.045.054-.098.08-.143.49-.88.694-1.646.694-2.651 0-.765-.498-1.922-1.512-2.509a4.745 4.745 0 00-.703-.338 1.216 1.216 0 01-.765-1.112l.009-1.37-4.395-.018-.009 1.37c0 .498-.312.925-.774 1.103-.25.098-.481.205-.703.338-1.015.579-1.531 1.726-1.531 2.5-.008 1.006.196 1.771.677 2.661.026.044.044.089.071.133.774 1.406.765 3.087.035 4.52-.044.089-.089.169-.124.249-.338.721-.748 1.548-.926 2.322-.169.756-.213 1.557-.213 2.367l-.027 6.397c0 .827.543 1.664 1.637 2.295.89.516 2.02.828 3.177.926.525.044 1.058.044 1.583.009 1.157-.098 2.269-.392 3.168-.908 1.094-.632 1.646-1.45 1.655-2.286l.017-4.627c0-.578.027-1.183.027-1.779.018-.801-.018-1.602-.178-2.358z" fill="#C3EFC0"/><path opacity=".3" d="M506.352 218.698c-.178-.774-.569-1.611-.907-2.331-.036-.089-.08-.169-.125-.258-.721-1.424-.721-3.114.062-4.502.027-.045.054-.098.08-.143.49-.88.694-1.646.694-2.651 0-.765-.498-1.922-1.512-2.509a4.745 4.745 0 00-.703-.338 1.216 1.216 0 01-.765-1.112l.009-1.37-4.395-.018-.009 1.37c0 .498-.312.925-.774 1.103-.25.098-.481.205-.703.338-1.015.579-1.531 1.726-1.531 2.5-.008 1.006.196 1.771.677 2.661.026.044.044.089.071.133.774 1.406.765 3.087.035 4.52-.044.089-.089.169-.124.249-.338.721-.748 1.548-.926 2.322-.169.756-.213 1.557-.213 2.367l-.027 6.397c0 .827.543 1.664 1.637 2.295.89.516 2.02.828 3.177.926.525.044 1.058.044 1.583.009 1.157-.098 2.269-.392 3.168-.908 1.094-.632 1.646-1.45 1.655-2.286l.017-4.627c0-.578.027-1.183.027-1.779.018-.801-.018-1.602-.178-2.358z" fill="#56D53F"/><path opacity=".1" d="M505.382 211.607c.027-.045.054-.098.08-.142.418-.766.632-1.433.685-2.243-.098.321-.24.623-.418.908-.507.818-1.237 1.459-1.984 2.064-.756.614-1.592 1.317-1.681 2.278-.089.934.569 1.788 1.325 2.357.748.57 1.628.961 2.305 1.62.293.285.542.614.765.961a5.89 5.89 0 00-.116-.703c-.178-.774-.569-1.611-.907-2.331-.036-.089-.081-.169-.125-.258-.712-1.433-.703-3.114.071-4.511z" fill="#56D53F"/><path d="M498.051 204.997v.738c-.009.445.284.881.872 1.228 1.165.676 3.051.685 4.226.018.293-.169.507-.365.658-.57.143-.204.223-.427.223-.649v-.748a.728.728 0 00-.027-.195c-.071-.374-.356-.739-.845-1.024-.018-.008-.027-.017-.045-.026-1.165-.65-3.025-.65-4.181.009-.499.284-.783.64-.855 1.014a.788.788 0 00-.026.205z" fill="#C3EFC0"/><path opacity=".1" d="M498.051 204.997v.738c-.009.445.284.881.872 1.228 1.165.676 3.051.685 4.226.018.293-.169.507-.365.658-.57.143-.204.223-.427.223-.649v-.748a.728.728 0 00-.027-.195c-.071-.374-.356-.739-.845-1.024-.018-.008-.027-.017-.045-.026-1.165-.65-3.025-.65-4.181.009-.499.284-.783.64-.855 1.014a.788.788 0 00-.026.205z" fill="#56D53F"/><path opacity=".2" d="M503.14 206.224c1.166-.667 1.175-1.761.009-2.438-1.166-.676-3.052-.685-4.226-.017-1.166.667-1.175 1.761-.009 2.437 1.174.686 3.061.686 4.226.018z" fill="#56D53F"/><path d="M498.054 204.133v.445a.8.8 0 00.026.205c.072.373.356.738.846 1.023.525.302 1.183.471 1.868.507.845.045 1.708-.116 2.358-.489.293-.169.507-.356.658-.57.098-.142.169-.293.196-.445a.745.745 0 00.027-.204v-.463c0-.445-.285-.881-.872-1.228-.054-.026-.107-.062-.16-.089-1.175-.596-2.945-.569-4.066.072-.588.347-.881.791-.881 1.236z" fill="#C3EFC0"/><path opacity=".1" d="M498.054 204.133v.445a.8.8 0 00.026.205c.072.373.356.738.846 1.023.525.302 1.183.471 1.868.507.845.045 1.708-.116 2.358-.489.293-.169.507-.356.658-.57.098-.142.169-.293.196-.445a.745.745 0 00.027-.204v-.463c0-.445-.285-.881-.872-1.228-.054-.026-.107-.062-.16-.089-1.175-.596-2.945-.569-4.066.072-.588.347-.881.791-.881 1.236z" fill="#56D53F"/><path d="M498.051 204.115c0 .952 1.326 1.718 2.981 1.727 1.646.008 2.989-.757 2.989-1.709 0-.952-1.325-1.717-2.98-1.726-1.646 0-2.981.765-2.99 1.708z" fill="#C3EFC0"/><path d="M500.017 202.354l-.009 1.548c0 .026 0 .044.009.071.027.124.125.258.294.356.178.106.409.16.649.178.294.017.596-.045.819-.169a.887.887 0 00.231-.196.587.587 0 00.071-.151.198.198 0 00.009-.072l.009-1.548c0-.151-.098-.302-.303-.427a.868.868 0 00-.053-.026c-.409-.205-1.023-.196-1.406.026-.222.107-.329.258-.32.41z" fill="#C3EFC0"/><path opacity=".1" d="M500.017 202.354l-.009 1.548c0 .026 0 .044.009.071.027.124.125.258.294.356.178.106.409.16.649.178.294.017.596-.045.819-.169a.887.887 0 00.231-.196.587.587 0 00.071-.151.198.198 0 00.009-.072l.009-1.548c0-.151-.098-.302-.303-.427a.868.868 0 00-.053-.026c-.409-.205-1.023-.196-1.406.026-.222.107-.329.258-.32.41z" fill="#56D53F"/><path d="M500.017 202.354c0 .329.463.596 1.032.596.57 0 1.032-.258 1.041-.588 0-.329-.462-.596-1.032-.596-.578-.009-1.041.258-1.041.588z" fill="#C3EFC0"/><path opacity=".5" d="M500.684 202.353c0 .116.16.214.365.214s.365-.089.365-.214c0-.115-.16-.213-.365-.213s-.365.098-.365.213z" fill="#C3EFC0"/><path opacity=".3" d="M500.684 202.353c0 .116.16.214.365.214s.365-.089.365-.214c0-.115-.16-.213-.365-.213s-.365.098-.365.213z" fill="#56D53F"/><path opacity=".3" d="M411.071 206.266c-.018 0-.036-.009-.054-.009l-2.046-.578a.28.28 0 01-.196-.347.283.283 0 01.347-.196l2.046.578a.279.279 0 01.196.347.278.278 0 01-.293.205zm-2.101 1.584a.274.274 0 01-.249-.214.293.293 0 01.205-.347l2.064-.525a.293.293 0 01.347.205.291.291 0 01-.205.347l-2.064.525c-.035.009-.062.009-.098.009zm1.042 1.904a.352.352 0 01-.178-.081.281.281 0 01.009-.4l1.53-1.486a.281.281 0 01.4.009.282.282 0 01-.009.401l-1.53 1.485a.293.293 0 01-.222.072zm1.85 1.129c-.017 0-.035-.009-.053-.009a.28.28 0 01-.196-.347l.579-2.046a.283.283 0 01.346-.196.279.279 0 01.196.347l-.578 2.047a.28.28 0 01-.294.204z" fill="#000"/><path d="M467.735 179.12c.063-.035-5.116 2.954-5.116 2.954l-11.228 1.62s-8.203-12.314-9.457-14.245c-1.255-1.939-2.723-3.176-6.122-3.176l.641 9.822c.107.321 6.895 8.675 11.37 13.231 1.584 1.61 2.554 2.019 5.027 1.334 6.308-1.744 13.942-6.931 14.565-8.23.801-1.69.258-3.283.32-3.31z" fill="#FFC2A3"/><path d="M465.628 172.893c.668-2.189 3.408-4.004 5.97-3.283.365.098.757.258 1.157.489 2.482 1.432 4.493 4.92 4.493 7.785 0 .534-.071 1.014-.205 1.424-.667 2.188-3.407 3.994-5.97 3.274a4.616 4.616 0 01-1.147-.49c-2.483-1.432-4.493-4.92-4.493-7.785 0-.533.071-1.005.195-1.414z" fill="#455A64"/><path d="M469.925 182.093c-2.482-1.433-4.493-4.921-4.493-7.785 0-2.865 2.011-4.031 4.493-2.598 2.483 1.432 4.493 4.92 4.493 7.785.009 2.865-2.001 4.03-4.493 2.598z" fill="#5D6E6B"/><path d="M469.925 174.886c-.952-.552-1.726-.107-1.726.996 0 1.104.774 2.447 1.726 2.999.952.551 1.726.107 1.726-.997.009-1.103-.765-2.446-1.726-2.998z" fill="#455A64"/><path d="M469.339 176.541c0 .373.266.836.587 1.023.151.089.293.098.4.053.018-.009.027-.017.045-.026.097-.072.151-.196.151-.374 0-.374-.267-.836-.596-1.023-.152-.089-.294-.098-.392-.054l-.044.027c-.098.071-.151.196-.151.374z" fill="#5D6E6B"/><path d="M459.835 182.021c0 .374.267.837.587 1.023a.53.53 0 00.258.08.377.377 0 00.196-.053l9.44-5.454c.018-.009.027-.018.044-.027.098-.071.152-.195.152-.373 0-.374-.267-.837-.597-1.023-.151-.089-.293-.098-.391-.054l-.044.027-9.44 5.454c-.125.08-.205.196-.205.4z" fill="#FAFAFA"/><path d="M450.573 181.585c.668-2.188 3.408-4.003 5.97-3.283.365.098.757.258 1.157.49 2.482 1.432 4.493 4.92 4.493 7.785 0 .534-.071 1.014-.205 1.423-.667 2.189-3.407 3.995-5.97 3.274a4.61 4.61 0 01-1.147-.489c-2.483-1.432-4.493-4.92-4.493-7.785a4.332 4.332 0 01.195-1.415z" fill="#455A64"/><path d="M454.87 190.785c-2.482-1.432-4.493-4.92-4.493-7.785s2.011-4.03 4.493-2.598c2.483 1.432 4.494 4.92 4.494 7.785s-2.011 4.03-4.494 2.598z" fill="#5D6E6B"/><path d="M454.871 183.578c-.952-.552-1.726-.107-1.726.997 0 1.103.774 2.446 1.726 2.998s1.726.107 1.726-.997c0-1.103-.774-2.446-1.726-2.998z" fill="#455A64"/><path d="M454.275 185.233c0 .374.266.836.587 1.023.151.089.293.098.4.054.018-.009.027-.018.045-.027.098-.071.151-.196.151-.374 0-.373-.267-.836-.596-1.023-.151-.089-.294-.098-.392-.053l-.044.026c-.089.072-.151.196-.151.374z" fill="#5D6E6B"/><path d="M452.842 186.06c0 .374.267.837.587 1.024.098.053.178.08.258.08a.381.381 0 00.196-.054l1.379-.792c.017-.008.026-.017.044-.026.098-.071.151-.196.151-.374 0-.374-.267-.836-.596-1.023-.151-.089-.293-.098-.391-.053l-.045.026-1.379.792c-.124.071-.204.187-.204.4z" fill="#FAFAFA"/><path d="M452.842 186.061c0 .373.267.836.587 1.023.151.089.293.098.4.053.018-.009.027-.018.045-.027.098-.071.151-.195.151-.373 0-.374-.267-.837-.596-1.023-.151-.089-.294-.098-.392-.054l-.044.027c-.089.062-.151.196-.151.374z" fill="#E1E1E1"/><path d="M464.462 184.948c2.171-1.655 4.252-1.646 3.879-5.694-.321-1.806-.756-1.913-2.509-2.598-.765-.294-1.78-.525-2.402.178-.072.08-.143.178-.223.24-.169.133-.391.16-.596.196-.4.062-.827.16-1.094.462-.205.232-.285.552-.481.783-.169.205-.418.321-.623.499a1.522 1.522 0 00-.516 1.094c0 .534.303.872.659 1.21l1.094-.632c.445-.311 1.37.792.979 1.37-.632.935 1.833 2.892 1.833 2.892zm-25.287 8.141c.694-2.812.898-9.814.898-9.814l-20.312.605s.845 3.39 1.103 4.431c.258 1.032.294 3.025.294 3.025s1.975 3.648 7.812 4.298c5.836.64 10.205-2.545 10.205-2.545z" fill="#FFC2A3"/><path d="M440.065 183.276c.027.222-.115 2.34-.115 2.34-2.598 2.188-10.926 3.291-19.663.382l-1.851-7.153s6.29-2.758 2.047-12.02l4.564-.356 8.105-.205h2.66c1.237 1.166 3.613 3.764 5.481 7.251 1.059 1.993 2.411 4.894-1.228 9.761z" fill="#455A64"/><path d="M397.439 237.878c-1.068.783-3.55.97-5.73-.053-2.189-1.024-3.087-3.915-2.678-6.184.489-2.74 1.85-4.244 2.197-5.89s-.008-3.941.516-5.409c.508-1.397 1.611-2.109 2.501-2.465.729-.293 1.557-.205 2.242.196l.649.382.303 19.423z" fill="#5D6E6B"/><path d="M399.991 227.415l-1.699 5.08s1.067 3.63.471 4.591c-.89 1.424-2.464 1.682-5.107.872-3.025-.925-3.737-3.657-3.585-5.783.213-3.025 3.016-5.312 2.696-8.221-.161-1.424.035-3.034.818-4.262.881-1.379 2.313-1.637 3.808-1.183 1.281.383 2.402 1.192 3.488 1.948.302.214.614.428.836.721a2.7 2.7 0 01.427.863c.196.623.249 1.29.169 1.931-.08.605-.462.961-.827 1.441-.49.676-.997 1.335-1.495 2.002z" fill="#5D6E6B"/><path d="M407.305 225.004c-.107-.045-5.285-3.355-5.845-3.604-.561-.249-1.931-.605-3.257 2.465-.943 2.189.418 2.998.418 2.998l6.059 3.612 2.625-5.471z" fill="#FFC2A3"/><path d="M398.301 232.495c-.729-.373-2.259-.889-3.532-.791a.555.555 0 01-.587-.721v-.009a.554.554 0 01.48-.383c.819-.062 2.812-.089 4.129.997.347.73-.49.907-.49.907zm.623-2.322c-.703-.418-2.216-1.005-3.488-.97-.4.009-.694-.373-.552-.747v-.009a.552.552 0 01.507-.356c.819-.017 2.812.063 4.075 1.21.303.739-.542.872-.542.872z" fill="#9FAEAC"/><path opacity=".3" d="M398.301 232.495c-.729-.373-2.259-.889-3.532-.791a.555.555 0 01-.587-.721v-.009a.554.554 0 01.48-.383c.819-.062 2.812-.089 4.129.997.347.73-.49.907-.49.907zm.623-2.322c-.703-.418-2.216-1.005-3.488-.97-.4.009-.694-.373-.552-.747v-.009a.552.552 0 01.507-.356c.819-.017 2.812.063 4.075 1.21.303.739-.542.872-.542.872z" fill="#5D6E6B"/><path d="M451.703 238.42l6.726-2.669c-.115-1.735-.543-4.048-.098-8.594l-7.633-1.451v7.643l1.005 5.071z" fill="#FFC2A3"/><path d="M470.902 244.328c.196.41.134 1.166-.089 1.646-.231.481-2.749 1.904-6.156 1.673-3.399-.231-5.739-1.601-7.038-2.456-1.299-.863-2.643-1.023-4.333-1.112-1.682-.098-3.897-.934-4.262-1.726-.374-.792.054-2.144.054-2.144l21.824 4.119z" fill="#5D6E6B"/><path d="M457.175 233.714l.267-.053c.151-.027.302-.063.444-.027.169.035.303.16.419.285.364.4.587.907.871 1.361.712 1.165 2.207 2.126 3.844 3.007 1.112.596 2.198 1.059 3.345 1.575 1.175.525 2.723.845 3.639 1.468 1.335.899 1.504 3.158-.017 4.048-1.308.774-4.76 1.602-8.382.578-1.975-.56-4.163-2.669-6.753-2.864-1.646-.125-4.76-.588-5.818-1.842-.392-.552.133-2.313.56-3.826.472-1.655.641-4.573 1.192-4.431 0 0-.151.41.063.632.204.214.969.667 1.192.854.409.347.658.836.907 1.308.107.205.241.418.472.507.276.107.48-.071.73-.187.302-.142.658-.169.987-.071a7.079 7.079 0 00-.169-.97c-.027-.106-.053-.213-.027-.311.036-.107.125-.178.214-.24.641-.436 1.29-.641 2.02-.801z" fill="#5D6E6B"/><path d="M461.489 237.397s-.24-.631-1.219-.809c-.747-.143-2.073.409-2.891 1.094a.613.613 0 10.792.934c.533-.48 1.743-1.334 3.318-1.219zm2.322 1.299s-.48-.756-1.441-.738c0 0-1.958.053-3.168 1.183-.311.285-.284.774.08.979a.58.58 0 00.677-.08c.542-.49 1.637-1.513 3.852-1.344zm2.562 1.166s-.542-.685-1.494-.668c0 0-1.824.072-3.034 1.193-.312.284-.285.774.08.978a.577.577 0 00.676-.08c.543-.48 1.557-1.583 3.772-1.423z" fill="#9FAEAC"/><path opacity=".3" d="M461.489 237.397s-.24-.631-1.219-.809c-.747-.143-2.073.409-2.891 1.094a.613.613 0 10.792.934c.533-.48 1.743-1.334 3.318-1.219zm2.322 1.299s-.48-.756-1.441-.738c0 0-1.958.053-3.168 1.183-.311.285-.284.774.08.979a.58.58 0 00.677-.08c.542-.49 1.637-1.513 3.852-1.344zm2.562 1.166s-.542-.685-1.494-.668c0 0-1.824.072-3.034 1.193-.312.284-.285.774.08.978a.577.577 0 00.676-.08c.543-.48 1.557-1.583 3.772-1.423z" fill="#5D6E6B"/><path d="M456.302 200.056c-5.115-1.148-17.331-3.701-17.331-3.701l.195-3.266c-4.421 2.287-13.728 1.646-18.016-1.752l-.677 3.461s-2.402 2.767-4.199 6.326c-.979 1.939-2.625 4.973-.988 12.029.961 4.146 2.234 15.054 2.234 15.054l-12.51-4.609s-1.085.178-1.984 2.527c-.534 1.388-.729 2.722-.169 3.416 4.573 3.612 11.993 9.52 19.494 12.83 5 1.922 7.669-2.296 7.918-3.853.943-5.97 2.029-25.161 2.029-25.161l16.709-.534c-.552 3.168 1.699 15.553 1.699 15.553s4.119 1.788 7.527-.045c0 0 2.287-14.253 2.5-19.004.249-5.303.516-8.159-4.431-9.271z" fill="#9FAEAC"/><path opacity=".15" d="M449.007 212.814c0-.854.569-3.843 2.5-5.436 0 0-2.652.472-3.871 5.481l1.371-.045zm-31.487 15.393s.338 4.715 1.254 7.011c0 0-2.26-4.075-2.518-7.474l1.264.463zm21.451-31.852l.196-3.257c-4.422 2.287-13.729 1.637-18.017-1.753l-.676 3.461c.035.036 2.784 2.883 9.947 3.248 7.206.365 8.55-1.699 8.55-1.699zm-6.673 16.993s.116-5.383-4.377-9.324c0 0 3.853 1.77 5.134 7.447 0 0 2.874-1.335 4.359-5.33 0 0-.453 4.004-2.758 6.273l6.949.641-9.307.293z" fill="#5D6E6B"/><path d="M430.047 141.005c-6.174 0-11.175 5.009-11.175 11.175 0 6.174 5.01 11.175 11.175 11.175 6.175 0 11.184-5.01 11.184-11.175-.009-6.166-5.018-11.175-11.184-11.175z" fill="#485754"/><path d="M418.383 147.82c.4-.018.809 0 1.21.071.133.018.285.054.365.16.062.081.08.178.089.276.071.596.053 1.281-.169 1.851-.161.409-.65.623-.961.925-1.21 1.175-1.308 3.114-.828 4.733.472 1.611 1.415 3.052 2.055 4.609.641 1.584.944 3.435.072 4.992-.338.605-.961 1.058-.881 1.797.089.881.854 1.717 1.183 2.518.383.925.472 1.948.365 2.945-.125 1.227-.543 2.437-1.335 3.381-1.165 1.379-3.114 2.055-4.875 1.672-.365-.08-.739-.204-1.032-.436-.525-.418-.739-1.112-1.024-1.726-.925-1.975-2.864-3.416-3.452-5.516-.622-2.224.445-4.564 1.753-6.459.614-.89 1.299-1.762 1.593-2.794.4-1.397.053-2.892-.045-4.342a12.058 12.058 0 01.481-4.217c.293-.988.747-2.127 1.521-2.829a6.2 6.2 0 013.915-1.611z" fill="#485754"/><path d="M437.049 146.121c1.228.729 2.732 3.825 2.554 10.303-.152 5.489-1.931 6.833-2.83 7.224-.898.392-2.615.142-4.288-.142l-.018 3.292s2.304 2.695 2.153 4.208c-.151 1.513-3.354 1.851-5.507.365-2.162-1.486-3.968-4.369-3.968-4.369l.071-7.571s-.988.952-2.652-.516c-1.379-1.21-1.832-3.248-.747-4.333 1.077-1.086 3.07-.783 3.817.774 0 0 2.669.107 6.237-1.833 3.55-1.931 4.938-5.276 5.178-7.402z" fill="#FFC2A3"/><path opacity=".5" d="M432.485 163.506c-1.761-.241-5.391-1.299-5.952-2.732 0 0 .187.899 1.264 1.833 1.076.934 4.679 1.993 4.679 1.993l.009-1.094z" fill="#FFC2A3"/><path d="M420.474 166.833c-3.461.25-4.894.686-6.816 4.965-1.735 3.844-5.881 13.791-6.922 16.015-1.041 2.215-1.236 3.105-.364 5.427.702 1.895 6.557 12.759 7.197 14.343.641 1.583.926 3.185 2.011 5.035 1.095 1.851 2.812 3.648 4.173 4.075 2.02.632 4.635-.249 4.724-1.468.089-1.219-2.962-3.256-3.79-5.961 0 0 .908.605 1.726.943.819.338 1.735.267 2.011-.204.276-.463-.552-.748-1.281-1.477-.436-.436-1.21-1.406-2.198-2.26-.667-.579-1.761-.756-2.26-1.388-.267-.338-1.468-3.283-2.375-5.908-1.121-3.247-2.589-7.58-2.589-7.58l6.014-12.536c.018 0 4.751-4.689.739-12.021z" fill="#FFC2A3"/><g filter="url(#filter2_d)"><rect x="508" y="35.616" width="267.517" height="421.062" rx="10" fill="#fff"/></g><path d="M755.229 191.072V57.428H528.938v133.644h226.291z" fill="#EAF5F3"/><path d="M722.309 191.054h-35.354l68.254-68.254v35.354l-32.9 32.9zm-88.6 0h12.018l109.5-109.5V69.536L633.709 191.054zm-104.772-83.692v12.017l61.968-61.968h-12.018l-49.95 49.951zm124.007-49.933h-52.368l-71.621 71.621v52.369l123.989-123.99z" fill="#fff" fill-opacity=".4"/><path d="M755.227 191.054H528.936v16.943h226.291v-16.943z" fill="#1E4843"/><path d="M749.066 196.803h-61.932a.879.879 0 01-.878-.877.88.88 0 01.878-.878h61.932c.483 0 .877.394.877.878-.018.483-.394.877-.877.877z" fill="#fff"/><path d="M687.116 196.803H535.419a.879.879 0 010-1.755h151.697a.879.879 0 010 1.755z" fill="#03D218"/><path d="M688.978 195.926c0 1.02-.824 1.844-1.845 1.844a1.842 1.842 0 01-1.844-1.844c0-1.021.824-1.845 1.844-1.845 1.003 0 1.845.824 1.845 1.845z" fill="#FFFDFF"/><path d="M545.968 200.816h1.182v4.048h-1.182v-4.048zm-2.274 4.048h1.182v-4.048h-1.182v4.048zm11.247-4.048v1.63l-2.489-1.63v4.048l2.489-1.63v1.63h1.182v-4.048h-1.182zm-20.22 0v4.048h1.182v-1.63l2.489 1.63v-4.048l-2.489 1.63v-1.63h-1.182zm206.231 2.022a2.033 2.033 0 01-2.023 2.024 2.033 2.033 0 01-2.024-2.024c0-1.11.913-2.024 2.024-2.024 1.11 0 2.023.914 2.023 2.024z" fill="#fff"/><path d="M744.875 202.319v-.788h1.468v-.716h-2.185v1.504h.717zm2.65-.788h1.469v.788h.716v-1.505h-2.185v.717zm-1.182 2.74h-1.469v-.77h-.716v1.486h2.185v-.716z" fill="#FFFDFF"/><path d="M748.994 203.501v.77h-1.469v.716h2.185v-1.486h-.716z" fill="#fff"/><path d="M630.092 344.64H534a5 5 0 00-5 5v44.867a5 5 0 005 5h96.092a5 5 0 005-5V349.64a5 5 0 00-5-5zm.486 65.188h-96.307a4.479 4.479 0 100 8.958h96.307a4.48 4.48 0 000-8.958zm-13.455 15.228h-82.852a4.48 4.48 0 000 8.958h82.852a4.479 4.479 0 100-8.958zM630.092 237H534a5 5 0 00-5 5v44.867a5 5 0 005 5h96.092a5 5 0 005-5V242a5 5 0 00-5-5zm.486 65.394h-96.307a4.479 4.479 0 100 8.958h96.307a4.48 4.48 0 000-8.958zm-13.455 15.228h-82.852a4.479 4.479 0 100 8.958h82.852a4.479 4.479 0 100-8.958zm133.273 27.018h-96.092a5 5 0 00-5 5v44.867a5 5 0 005 5h96.092a5 5 0 005-5V349.64a5 5 0 00-5-5zm.486 65.25h-97.099a4.479 4.479 0 100 8.958h97.099a4.48 4.48 0 000-8.958zm-14.247 15.228h-82.852a4.479 4.479 0 100 8.958h82.852a4.479 4.479 0 100-8.958zM750.396 237h-96.092a5 5 0 00-5 5v44.867a5 5 0 005 5h96.092a5 5 0 005-5V242a5 5 0 00-5-5zm.486 65.394h-97.099a4.479 4.479 0 100 8.958h97.099a4.48 4.48 0 000-8.958zm-14.247 15.228h-82.852a4.479 4.479 0 100 8.958h82.852a4.479 4.479 0 100-8.958z" fill="#E3F2EF"/><path d="M589.521 265.142l-11.872 6.855v-13.709l11.872 6.854zm120.304 0l-11.872 6.855v-13.709l11.872 6.854zm-120.304 107.64l-11.872 6.855v-13.709l11.872 6.854zm120.304 0l-11.872 6.855v-13.709l11.872 6.854z" fill="#fff"/><path d="M573.296 184.017c.633-3.799 3.694-9.498 5.145-11.872h40.76l4.749 18.995h-50.654c-.264-.792-.633-3.324 0-7.123z" fill="#3B5753"/><path fill-rule="evenodd" clip-rule="evenodd" d="M614.426 67.006c-13.908-3.257-28.781-.678-38.257.965-1.988.345-3.739.649-5.193.848-3.721.52-7.126 2.54-9.589 5.685-9.746 12.407-25.685 54.11-5.947 80.646 3.222-1.963 7.807-5.136 10.898-8.772-2.777-8.627-3.012-19.678 2.83-33.239.209 1.067.445 2.135.733 3.174 6.165 28.526 8.462 51.388 8.462 56.783 0 .722.393 1.385 1.022 1.674 10.584 4.674 30.94 1.904 37.778.779 1.258-.202 2.096-1.5 1.913-2.885 0-21.562 5.006-52.588 9.321-69.143 22.841 13.76 46.452 14.437 61.422 7.361.26-6.127-1.359-11.27-3.268-15.056-22.04 3.296-37.161-8.966-48.603-18.243a332.207 332.207 0 00-3.476-2.795c-7.963-6.278-15.031-7.799-20.046-7.782z" fill="url(#paint3_linear)"/><path d="M566.388 146.262c-3.992 2.949-8.939 4.691-12.766 5.983 4.172 7.195 8.383 11.628 16.149 23.93l3.591 9.331 5.606-8.568s-9.558-14.133-12.58-30.676zm21.76-100.142l-2.256 22.975s12.926 3.901 22.353-2.745l-6.622-20.894-13.475.665z" fill="#FFB995"/><path d="M603.156 19.91c.318.289 13.128 25.46 13.128 25.46l-14.545 7.022-15.702-22.05c.029 0 11.914-15.316 17.119-10.432z" fill="#FFB995"/><path d="M592.486 30.95a2.268 2.268 0 00.173 2.022l7.258 12.08c.116.173.231.346.405.49.867.81 3.817 3.15 6.101-.028 1.938-2.717 3.76-5.173 5.726-6.184 1.157-.607 2.545-.116 3.123 1.04 1.185 2.37 3.499 7.196 4.974 11.762.375 1.156-.232 2.37-1.331 2.832-2.949 1.184-8.761 3.352-13.937 4.074a2.343 2.343 0 01-2.198-.924c-2.227-3.035-8.473-11.53-10.613-13.67-1.995-1.964-5.638-1.242-7.287-.75a2.418 2.418 0 01-1.85-.232c-1.677-1.011-4.598-3.526-1.938-7.774.665-1.069.318-2.456-.723-3.15-1.879-1.242-3.903-3.525-1.966-7.282 1.966-3.785 5.465-4.132 7.837-3.843 1.041.115 2.11-.434 2.515-1.416.174-.434.55-.81 1.186-.954 1.243-.26 2.053-1.387 1.822-2.63-.434-2.138-.116-4.912 3.325-6.79 6.275-3.44 11.769 2.167 13.157 6.906 1.388 4.74-5.61 8.091-10.034 8.64-3.239.405-5.003 3.93-5.725 5.78z" fill="#1E4843"/><path d="M594.886 48.866s-2.776-8.15-6.362-7.86c-3.586.288-6.39 3.843-1.966 7.86 5.494 4.97 8.328 0 8.328 0zM720.788 81.29l-8.068 4.335c-9.687 5.895-18.362 9.016-26.169 10.172 1.879 3.786 3.528 8.929 3.267 15.056 10.237-4.826 16.656-10.635 16.656-10.635 18.334-10.865 14.314-18.928 14.314-18.928z" fill="#FFB995"/><path d="M630.355 191.081h.125l57.931-.063c1.44 0 2.568-1.189 2.568-2.566 0-1.44-1.19-2.629-2.568-2.566l-57.931.062c-1.44 0-2.567 1.19-2.567 2.567-.063 1.377 1.064 2.503 2.442 2.566z" fill="url(#paint4_linear)"/><path d="M740.455 138.507h-48.223c-3.57 0-6.827 2.066-8.33 5.258l-22.295 47.254h59.934c2.318 0 4.384-1.377 5.199-3.505l17.285-43.749c1.002-2.504-.814-5.258-3.57-5.258z" fill="#456460"/><path d="M706.447 162.729c-1.064 3.254-.25 6.384 1.754 7.072 2.004.626 4.447-1.44 5.511-4.694 1.065-3.255.251-6.384-1.753-7.072-1.942-.626-4.447 1.439-5.512 4.694z" fill="url(#paint5_linear)"/><path d="M790.764 87.028l-80.96 1.484c-2.159.05-3.937-1.585-3.937-3.597V3.597c0-2.012 1.753-3.622 3.911-3.597l80.96 1.132c2.108.025 3.81 1.635 3.81 3.597V83.43c0 1.937-1.676 3.547-3.784 3.597z" fill="url(#paint6_linear)"/><path opacity=".89" d="M717.194 58.555l66.917.704c2.565.026 4.622 1.51 4.495 3.27l-1.117 15.52c-.127 1.66-2.134 2.942-4.546 2.942h-65.825c-2.514 0-4.571-1.383-4.571-3.119V61.65c.026-1.736 2.108-3.12 4.647-3.094z" fill="#fff"/><path opacity=".8" d="M781.98 27.708c5.677-1.801 8.804-7.82 6.985-13.442-1.82-5.622-7.896-8.72-13.573-6.917-5.676 1.801-8.803 7.82-6.984 13.442 1.819 5.622 7.896 8.72 13.572 6.917zm-20.423-5.54c2.582-5.32.32-11.708-5.053-14.265-5.372-2.558-11.821-.317-14.403 5.004-2.582 5.32-.32 11.708 5.052 14.265 5.373 2.558 11.821.318 14.404-5.004zm-28.965 3.282a10.617 10.617 0 000-15.118c-4.215-4.175-11.048-4.175-15.263 0a10.617 10.617 0 000 15.118c4.215 4.174 11.048 4.174 15.263 0z" fill="#fff"/><path d="M772.276 15.268a6.866 6.866 0 00-.508 2.615c0 3.799 3.099 6.867 6.933 6.867 3.835 0 6.933-3.069 6.933-6.867s-3.098-6.866-6.933-6.866h-.355V9.28h.355c4.8 0 8.711 3.849 8.711 8.628 0 4.753-3.886 8.627-8.711 8.627-4.799 0-8.71-3.848-8.71-8.627 0-1.183.228-2.29.66-3.295l1.625.654z" fill="url(#paint7_linear)"/><path d="M748.253 23.694a6.858 6.858 0 003.707 1.056c3.835 0 6.933-3.069 6.933-6.867s-3.098-6.866-6.933-6.866h-.355V9.28h.355c4.8 0 8.711 3.849 8.711 8.628 0 4.753-3.886 8.627-8.711 8.627a8.788 8.788 0 01-4.571-1.283l.864-1.56z" fill="url(#paint8_linear)"/><path d="M719.175 21.758a6.963 6.963 0 005.739 3.018c3.835 0 6.933-3.068 6.933-6.866 0-3.799-3.098-6.867-6.933-6.867h-.355V9.307h.355c4.8 0 8.711 3.849 8.711 8.628 0 4.754-3.886 8.627-8.711 8.627a8.745 8.745 0 01-7.161-3.723l1.422-1.081z" fill="url(#paint9_linear)"/><path opacity=".69" d="M769.889 32.773h17.599c1.117 0 2.006.88 2.006 1.987a1.985 1.985 0 01-2.006 1.988h-17.599a1.985 1.985 0 01-2.006-1.987c0-1.107.889-1.988 2.006-1.988zm-26.868 0h17.599c1.117 0 2.006.88 2.006 1.987a1.985 1.985 0 01-2.006 1.988h-17.599a1.985 1.985 0 01-2.006-1.987c0-1.107.914-1.988 2.006-1.988zm-9.243 3.975h-17.599a1.984 1.984 0 01-2.006-1.987c0-1.107.888-1.987 2.006-1.987h17.599c1.117 0 2.006.88 2.006 1.987a1.985 1.985 0 01-2.006 1.987zm36.111 2.188h17.599c1.117 0 2.006.88 2.006 1.987v11.67a1.985 1.985 0 01-2.006 1.988h-17.599a1.985 1.985 0 01-2.006-1.987V40.923c0-1.107.889-1.987 2.006-1.987zm-26.868 0h17.599c1.117 0 2.006.88 2.006 1.987v11.67a1.985 1.985 0 01-2.006 1.988h-17.599a1.985 1.985 0 01-2.006-1.987V40.923c0-1.107.914-1.987 2.006-1.987zm-26.843 0h17.599c1.117 0 2.006.88 2.006 1.987v11.67a1.985 1.985 0 01-2.006 1.988h-17.599a1.985 1.985 0 01-2.006-1.987V40.923c0-1.107.889-1.987 2.006-1.987z" fill="#fff"/><path d="M692.07 103.27a1.43 1.43 0 01.069-2.142l76.644-67.71a.75.75 0 01.782-.114c.461.205.553.82.184 1.162l-75.631 68.826c-.598.524-1.472.524-2.048-.022z" fill="#1E4843"/><path d="M708.73 89.698l-.402-2.163s-1.609-5.248 2.654-10.416c6.194-7.492 10.779-4.728 10.779-4.728s-.322 1.603-.282 3.005c0 1.162 1.408 1.723 2.253.962l10.135-9.295s2.855 14.743-18.903 24.879l-6.234-2.244z" fill="#FFB995"/><g filter="url(#filter3_d)"><path d="M316.574 245.391V104a7 7 0 00-7-7H41a7 7 0 00-7 7v141.391h282.574z" fill="url(#paint10_linear)"/><path d="M275.463 245.515h-44.146l85.228-75.764v39.244l-41.082 36.52zm-110.634 0h15.006l136.733-121.549v-13.34L164.829 245.515zM34 152.614v13.339l77.379-68.786H96.373L34 152.614zm154.848-55.427h-65.392l-89.433 79.502v58.13L188.848 97.187z" fill="url(#paint11_linear)" fill-opacity=".3"/><path d="M50.022 234.34c-.77 0-1.441-.157-2.014-.47-.563-.313-1-.756-1.309-1.328-.31-.58-.465-1.258-.465-2.032v-6.431h1.93v3.914h.013a2.2 2.2 0 01.901-.761 2.958 2.958 0 011.267-.276c.704 0 1.314.152 1.83.456a3.12 3.12 0 011.197 1.258c.291.526.437 1.139.437 1.84 0 .737-.15 1.396-.451 1.977a3.264 3.264 0 01-1.281 1.355c-.563.332-1.248.498-2.055.498zm0-1.618c.572 0 1.018-.198 1.337-.594.328-.406.493-.899.493-1.48s-.165-1.07-.493-1.466c-.32-.406-.765-.609-1.337-.609-.573 0-1.023.203-1.352.609-.32.396-.479.885-.479 1.466s.16 1.074.479 1.48c.328.396.779.594 1.352.594zm8.866 1.618c-.657 0-1.23-.166-1.718-.498a3.373 3.373 0 01-1.14-1.327 4.324 4.324 0 01-.394-1.853c0-.692.15-1.319.45-1.881a3.368 3.368 0 011.324-1.328c.572-.332 1.257-.497 2.055-.497.807 0 1.488.165 2.041.497.554.332.976.779 1.267 1.342a4 4 0 01.437 1.867v3.512h-1.93v-1.175h-.028a3.069 3.069 0 01-.887.954c-.366.258-.859.387-1.478.387zm.549-1.618c.563 0 1.004-.203 1.323-.608.329-.406.493-.899.493-1.48 0-.572-.164-1.056-.493-1.452-.319-.406-.76-.609-1.323-.609-.573 0-1.023.203-1.352.609-.328.396-.492.88-.492 1.452 0 .581.164 1.074.492 1.48.329.405.78.608 1.352.608zm6.443 1.452v-4.19a2.889 2.889 0 011.577-2.614c.516-.276 1.136-.414 1.858-.414.517 0 .981.087 1.394.262.413.175.765.415 1.056.719h.014c.3-.304.657-.544 1.07-.719a3.644 3.644 0 011.408-.262c.722 0 1.337.138 1.844.414a2.867 2.867 0 011.591 2.614v4.19h-1.929v-4.19c0-.387-.15-.719-.45-.996a1.48 1.48 0 00-1.056-.415c-.413 0-.77.139-1.07.415a1.327 1.327 0 00-.437.996v4.19h-1.928v-4.19c0-.387-.15-.719-.45-.996a1.48 1.48 0 00-1.057-.415c-.413 0-.77.139-1.07.415a1.327 1.327 0 00-.436.996v4.19H65.88zm18.2.166c-.77 0-1.441-.157-2.014-.47-.563-.313-1-.756-1.309-1.328-.31-.58-.464-1.258-.464-2.032v-6.431h1.928v3.914h.014c.216-.323.516-.577.901-.761a2.958 2.958 0 011.267-.276c.704 0 1.314.152 1.83.456a3.12 3.12 0 011.197 1.258c.291.526.436 1.139.436 1.84 0 .737-.15 1.396-.45 1.977a3.264 3.264 0 01-1.281 1.355c-.563.332-1.248.498-2.056.498zm0-1.618c.572 0 1.018-.198 1.337-.594.328-.406.493-.899.493-1.48s-.165-1.07-.493-1.466c-.32-.406-.765-.609-1.338-.609-.572 0-1.022.203-1.35.609-.32.396-.48.885-.48 1.466s.16 1.074.48 1.48c.328.396.778.594 1.35.594zm9.486 1.618c-.742 0-1.404-.161-1.986-.484a3.78 3.78 0 01-1.38-1.327 3.585 3.585 0 01-.506-1.881c0-.692.169-1.314.507-1.867a3.644 3.644 0 011.38-1.328c.581-.332 1.243-.497 1.984-.497.742 0 1.404.165 1.986.497a3.644 3.644 0 011.38 1.328 3.51 3.51 0 01.506 1.867c0 .691-.169 1.318-.507 1.881a3.78 3.78 0 01-1.38 1.327c-.581.323-1.243.484-1.984.484zm0-1.618c.59 0 1.055-.198 1.393-.594.347-.406.521-.899.521-1.48s-.174-1.07-.52-1.466c-.339-.406-.803-.609-1.394-.609-.592 0-1.061.203-1.408.609-.338.396-.507.885-.507 1.466s.169 1.074.507 1.48c.347.396.816.594 1.407.594zm9.574 1.618c-.741 0-1.403-.161-1.985-.484a3.776 3.776 0 01-1.38-1.327 3.585 3.585 0 01-.506-1.881c0-.692.169-1.314.506-1.867a3.64 3.64 0 011.38-1.328c.582-.332 1.244-.497 1.985-.497.742 0 1.403.165 1.985.497a3.645 3.645 0 011.38 1.328c.338.553.507 1.175.507 1.867 0 .691-.169 1.318-.507 1.881a3.781 3.781 0 01-1.38 1.327c-.582.323-1.243.484-1.985.484zm0-1.618c.591 0 1.056-.198 1.394-.594.347-.406.521-.899.521-1.48s-.174-1.07-.521-1.466c-.338-.406-.803-.609-1.394-.609-.591 0-1.06.203-1.408.609-.338.396-.507.885-.507 1.466s.169 1.074.507 1.48c.348.396.817.594 1.408.594z" fill="#7BE159" fill-opacity=".8"/><path d="M316.686 245.418H34v14.165a7 7 0 007 7h268.686a7 7 0 007-7v-14.165z" fill="#1E4843"/><path d="M308.99 252.6h-77.366a1.1 1.1 0 01-1.097-1.097c0-.604.493-1.096 1.097-1.096h77.366c.605 0 1.097.492 1.097 1.096-.023.604-.492 1.097-1.097 1.097z" fill="#fff"/><path d="M231.601 252.6H42.1a1.099 1.099 0 01-1.097-1.097c0-.604.492-1.096 1.096-1.096h189.502a1.098 1.098 0 010 2.193z" fill="#03D218"/><path d="M233.928 251.503a2.302 2.302 0 01-2.304 2.305 2.302 2.302 0 01-2.305-2.305 2.301 2.301 0 012.305-2.304 2.316 2.316 0 012.304 2.304z" fill="#FFFDFF"/><path d="M55.277 257.612h1.477v5.056h-1.477v-5.056zm-2.841 5.056h1.477v-5.056h-1.477v5.056zm14.05-5.056v2.036l-3.11-2.036v5.056l3.11-2.036v2.036h1.477v-5.056h-1.477zm-25.259 0v5.056h1.477v-2.036l3.11 2.036v-5.056l-3.11 2.036v-2.036h-1.477zm245.883 1.368l-.148-.351s.344-.79.307-.815l-.454-.452c-.037-.025-.81.326-.81.326l-.356-.15s-.319-.803-.356-.803h-.638c-.049 0-.331.803-.331.803l-.356.15s-.786-.338-.823-.313l-.454.451c-.036.025.332.803.332.803l-.148.351s-.797.313-.797.351v.639c0 .05.797.339.797.339l.148.351s-.344.79-.307.815l.454.451c.025.025.798-.326.798-.326l.356.151s.319.802.356.802h.638c.049 0 .331-.802.331-.802l.356-.151s.786.339.822.313l.455-.451c.036-.037-.332-.802-.332-.802l.147-.351s.798-.314.798-.364v-.639c.012-.025-.785-.326-.785-.326zm-1.179.677a.932.932 0 11-1.865 0 .93.93 0 01.933-.928.92.92 0 01.932.928zm13.184 2.065h-7.064v-4.156h7.064v4.156zm-6.543-.467h6.022v-3.233h-6.022v3.233zm13.731-3.855h1.717v1.73h.502v-2.232h-2.219v.502zm-2.695 1.73v-1.73h1.73v-.502h-2.232v2.232h.502zm4.412.966v1.73h-1.717v.501h2.219v-2.231h-.502zm-2.683 1.73h-1.73v-1.73h-.501v2.231h2.231v-.501z" fill="#fff"/></g><path d="M170.768 207.755l.024.499-.024-.499zm38.126-29.166c-4.629 18.56-22.753 27.908-38.151 28.666l.049.999c15.673-.772 34.302-10.294 39.072-29.423l-.97-.242zm-38.151 28.666c-7.998.394-15.528-1.113-21.042-4.929-5.49-3.798-9.039-9.921-9.039-18.905h-1c0 9.287 3.689 15.728 9.47 19.728 5.755 3.982 13.528 5.506 21.66 5.105l-.049-.999zm-30.081-23.834c0-4.455 1.601-9.441 4.357-14.433 2.752-4.988 6.642-9.952 11.177-14.354 9.088-8.822 20.677-15.301 30.796-15.301v-1c-10.494 0-22.32 6.68-31.493 15.584-4.596 4.461-8.549 9.502-11.356 14.587-2.804 5.081-4.481 10.236-4.481 14.917h1zm46.33-44.088c7.497 0 14.129 5.098 18.324 12.616 4.192 7.509 5.895 17.349 3.578 26.64l.97.242c2.382-9.554.633-19.653-3.674-27.37-4.303-7.709-11.215-13.128-19.198-13.128v1z" fill="#fff" fill-opacity=".2"/><path d="M172.168 197.513l.024.499-.024-.499zm26.197-20.193c-3.177 12.738-15.624 19.171-26.222 19.693l.049.999c10.873-.536 23.825-7.143 27.143-20.45l-.97-.242zm-26.222 19.693c-5.507.271-10.672-.768-14.446-3.379-3.749-2.594-6.18-6.776-6.18-12.938h-1c0 6.465 2.571 10.966 6.611 13.76 4.014 2.778 9.424 3.834 15.064 3.556l-.049-.999zm-20.626-16.317c0-3.043 1.095-6.463 2.992-9.899 1.894-3.432 4.571-6.85 7.696-9.883 6.268-6.084 14.239-10.53 21.174-10.53v-1c-7.309 0-15.519 4.647-21.871 10.812-3.185 3.092-5.927 6.588-7.875 10.117-1.945 3.525-3.116 7.114-3.116 10.383h1zm31.862-30.312c5.106 0 9.646 3.473 12.529 8.638 2.878 5.158 4.048 11.918 2.457 18.298l.97.242c1.657-6.643.44-13.662-2.554-19.027-2.99-5.357-7.809-9.151-13.402-9.151v1z" fill="#fff"/><path d="M193.395 176.911c-2.441 9.788-11.986 14.689-20.055 15.087-8.379.412-15.897-3.149-15.897-12.64 0-9.49 13.617-23.16 24.324-23.16 8.041 0 14.069 10.925 11.628 20.713z" fill="url(#paint12_linear)"/><path d="M179.205 174.877l-5.169 2.984v-5.968l5.169 2.984z" fill="#05B514"/><defs><linearGradient id="paint0_linear" x1="227.998" y1="412.208" x2="386.82" y2="449.07" gradientUnits="userSpaceOnUse"><stop stop-color="#FFEC00"/><stop offset="1" stop-color="#FFEC00" stop-opacity="0"/></linearGradient><linearGradient id="paint1_linear" x1="587.343" y1="272.771" x2="943.817" y2="331.143" gradientUnits="userSpaceOnUse"><stop stop-color="#28FEFE" stop-opacity=".3"/><stop offset="1" stop-color="#30B3C7"/></linearGradient><linearGradient id="paint2_linear" x1="903.621" y1="263.532" x2="540.443" y2="378.05" gradientUnits="userSpaceOnUse"><stop stop-color="#3BB64B" stop-opacity=".39"/><stop offset="1" stop-color="#3BB64B"/></linearGradient><linearGradient id="paint3_linear" x1="550" y1="99.5" x2="632.51" y2="115.451" gradientUnits="userSpaceOnUse"><stop stop-color="#1E9AED"/><stop offset="1" stop-color="#62CEFD"/></linearGradient><linearGradient id="paint4_linear" x1="620.496" y1="175.687" x2="666.478" y2="190.777" gradientUnits="userSpaceOnUse"><stop stop-color="#456460"/><stop offset="1" stop-color="#395450"/></linearGradient><linearGradient id="paint5_linear" x1="703.69" y1="154.264" x2="718.703" y2="176.887" gradientUnits="userSpaceOnUse"><stop stop-color="#53D8FF"/><stop offset="1" stop-color="#3840F7"/></linearGradient><linearGradient id="paint6_linear" x1="779.782" y1="5.541" x2="659.184" y2="163.302" gradientUnits="userSpaceOnUse"><stop stop-color="#FFF579"/><stop offset="1" stop-color="#85E860"/></linearGradient><linearGradient id="paint7_linear" x1="830.58" y1="-7.471" x2="634.072" y2="92.072" gradientUnits="userSpaceOnUse"><stop stop-color="#33C72C"/><stop offset="1" stop-color="#35C82E"/></linearGradient><linearGradient id="paint8_linear" x1="825.203" y1="-18.086" x2="628.695" y2="81.457" gradientUnits="userSpaceOnUse"><stop stop-color="#2FC52A"/><stop offset="1" stop-color="#31C62B"/></linearGradient><linearGradient id="paint9_linear" x1="819.769" y1="-28.813" x2="623.26" y2="70.73" gradientUnits="userSpaceOnUse"><stop stop-color="#33C72C"/><stop offset="1" stop-color="#2FC52A"/></linearGradient><linearGradient id="paint10_linear" x1="120.035" y1="83.384" x2="354.855" y2="278.739" gradientUnits="userSpaceOnUse"><stop stop-color="#01B213"/><stop offset="1" stop-color="#78EE1B"/></linearGradient><linearGradient id="paint11_linear" x1="62.416" y1="110.812" x2="306.707" y2="248.942" gradientUnits="userSpaceOnUse"><stop stop-color="#30CE2D"/><stop offset="1" stop-color="#3DCA33" stop-opacity=".96"/></linearGradient><linearGradient id="paint12_linear" x1="175.693" y1="156.198" x2="167.228" y2="195.299" gradientUnits="userSpaceOnUse"><stop stop-color="#fff"/><stop offset="1" stop-color="#fff"/></linearGradient><filter id="filter0_d" x="121" y="30" width="305.501" height="440.67" filterUnits="userSpaceOnUse" color-interpolation-filters="sRGB"><feFlood flood-opacity="0" result="BackgroundImageFix"/><feColorMatrix in="SourceAlpha" values="0 0 0 0 0 0 0 0 0 0 0 0 0 0 0 0 0 0 127 0"/><feOffset dx="10" dy="8"/><feGaussianBlur stdDeviation="17.5"/><feColorMatrix values="0 0 0 0 0.624167 0 0 0 0 0.7 0 0 0 0 0.686212 0 0 0 0.2 0"/><feBlend in2="BackgroundImageFix" result="effect1_dropShadow"/><feBlend in="SourceGraphic" in2="effect1_dropShadow" result="shape"/></filter><filter id="filter1_d" x="309" y="79" width="329" height="466.177" filterUnits="userSpaceOnUse" color-interpolation-filters="sRGB"><feFlood flood-opacity="0" result="BackgroundImageFix"/><feColorMatrix in="SourceAlpha" values="0 0 0 0 0 0 0 0 0 0 0 0 0 0 0 0 0 0 127 0"/><feOffset dx="15" dy="10"/><feGaussianBlur stdDeviation="22.5"/><feColorMatrix values="0 0 0 0 0.623529 0 0 0 0 0.698039 0 0 0 0 0.686275 0 0 0 0.27 0"/><feBlend in2="BackgroundImageFix" result="effect1_dropShadow"/><feBlend in="SourceGraphic" in2="effect1_dropShadow" result="shape"/></filter><filter id="filter2_d" x="478" y=".616" width="357.517" height="511.062" filterUnits="userSpaceOnUse" color-interpolation-filters="sRGB"><feFlood flood-opacity="0" result="BackgroundImageFix"/><feColorMatrix in="SourceAlpha" values="0 0 0 0 0 0 0 0 0 0 0 0 0 0 0 0 0 0 127 0"/><feOffset dx="15" dy="10"/><feGaussianBlur stdDeviation="22.5"/><feColorMatrix values="0 0 0 0 0.624167 0 0 0 0 0.7 0 0 0 0 0.686212 0 0 0 0.27 0"/><feBlend in2="BackgroundImageFix" result="effect1_dropShadow"/><feBlend in="SourceGraphic" in2="effect1_dropShadow" result="shape"/></filter><filter id="filter3_d" x="0" y="67" width="370.686" height="257.583" filterUnits="userSpaceOnUse" color-interpolation-filters="sRGB"><feFlood flood-opacity="0" result="BackgroundImageFix"/><feColorMatrix in="SourceAlpha" values="0 0 0 0 0 0 0 0 0 0 0 0 0 0 0 0 0 0 127 0"/><feOffset dx="10" dy="14"/><feGaussianBlur stdDeviation="22"/><feColorMatrix values="0 0 0 0 0.363368 0 0 0 0 0.541667 0 0 0 0 0.515785 0 0 0 0.5 0"/><feBlend in2="BackgroundImageFix" result="effect1_dropShadow"/><feBlend in="SourceGraphic" in2="effect1_dropShadow" result="shape"/></filter></defs></svg>