<svg width="76" height="83" fill="none" xmlns="http://www.w3.org/2000/svg"><path fill-rule="evenodd" clip-rule="evenodd" d="M4.405 14.935h66.369a4.41 4.41 0 014.405 4.405v43.757a4.41 4.41 0 01-4.405 4.404H4.405A4.41 4.41 0 010 63.096V19.34a4.41 4.41 0 014.405-4.405zm44.784 63.432h11.893a2.203 2.203 0 010 4.405H14.096a2.203 2.203 0 010-4.405h11.893v-6.46h23.2v6.46z" fill="url(#paint0_linear)"/><rect x="9.568" width="56.042" height="41.007" rx="2" fill="url(#paint1_linear)"/><path d="M37.617 27.23c-.457-.315-1.086-.429-1.887-.334-.457.057-.857.172-1.172.362-.324.181-.571.4-.752.667a2.35 2.35 0 00-.372.867 2.857 2.857 0 00-.038.944c.048.38.143.695.295.943.153.257.334.457.563.6.228.143.485.248.79.286.296.048.63.048.982.01.438-.058.81-.153 1.105-.305a2.67 2.67 0 00.715-.524c.18-.2.314-.41.4-.63a2.906 2.906 0 00.21-1.114c-.01-.143-.01-.229-.02-.267-.095-.686-.362-1.19-.82-1.505zm4.916-14.788c-.104-.848-.362-1.553-.79-2.125a4.798 4.798 0 00-1.515-1.362 5.427 5.427 0 00-1.887-.658 7.056 7.056 0 00-1.887-.057 6.578 6.578 0 00-1.438.343 6.688 6.688 0 00-2.544 1.63 5.599 5.599 0 00-.887 1.229c-.114.238-.162.457-.142.657.038.276.104.524.219.753.114.219.247.41.41.571.152.153.333.277.514.353.19.076.381.105.562.086.22-.029.429-.105.629-.22.2-.123.362-.295.495-.524a2.13 2.13 0 01.23-.514c.133-.22.285-.438.475-.657.191-.21.391-.4.62-.572.219-.172.448-.267.667-.296a3 3 0 01.876.02c.296.047.582.143.839.295s.476.362.667.62c.18.266.305.6.352 1.01.086.723.029 1.362-.19 1.943a7.103 7.103 0 01-.877 1.63c-.362.504-.771 1.01-1.21 1.495a12.43 12.43 0 00-1.21 1.582 7.092 7.092 0 00-.848 1.867c-.21.686-.257 1.458-.143 2.335.038.333.2.552.467.667.276.114.581.152.915.114.314-.038.59-.19.829-.467.238-.276.4-.648.486-1.124.21-.59.505-1.124.886-1.6.38-.477.79-.934 1.229-1.392.438-.448.867-.905 1.305-1.372.43-.467.81-.99 1.134-1.582.324-.59.562-1.257.715-2 .162-.772.171-1.659.047-2.678z" fill="#fff"/><defs><linearGradient id="paint0_linear" x1="36.906" y1="10.151" x2="36.906" y2="90.114" gradientUnits="userSpaceOnUse"><stop stop-color="#0DB817"/><stop offset="1" stop-color="#93F055"/></linearGradient><linearGradient id="paint1_linear" x1="42.89" y1="44.886" x2="42.485" y2="-2.774" gradientUnits="userSpaceOnUse"><stop stop-color="#4CB0FD"/><stop offset="1" stop-color="#32D1F4" stop-opacity=".72"/></linearGradient></defs></svg>