<svg width="295" height="257" fill="none" xmlns="http://www.w3.org/2000/svg"><path fill-rule="evenodd" clip-rule="evenodd" d="M68.53 215.802c35.434 12.136 96.997 9.086 129.505-38.119 32.509-47.206 28.389-116.45-8.729-131.663-14.724-6.035-40.101-3.136-66.649 5.695l-5.838 2.287-10.762 3.954C71.089 72.619 37.499 96.44 26.769 122.618c-20.594 50.247 3.66 80.135 41.762 93.184z" fill="url(#paint0_linear)" fill-opacity=".2"/><g filter="url(#filter0_d)"><rect x="53.37" y="53.579" width="219.87" height="131.139" rx="6" fill="#fff"/></g><path d="M69.586 69.637c-.576 0-1.079-.123-1.507-.368a2.51 2.51 0 01-.98-1.04c-.232-.454-.348-.984-.348-1.59v-5.031h1.444v3.062h.01c.162-.253.387-.45.675-.595a2.13 2.13 0 01.948-.217c.527 0 .984.12 1.37.357.387.239.685.567.896.985.218.411.327.891.327 1.44 0 .576-.113 1.092-.338 1.547-.217.447-.537.8-.959 1.06-.421.26-.934.39-1.538.39zm0-1.266c.428 0 .762-.155 1.001-.466.246-.317.369-.703.369-1.157 0-.455-.123-.837-.369-1.148-.239-.317-.573-.476-1.001-.476-.429 0-.766.16-1.012.477-.239.31-.358.692-.358 1.147 0 .454.12.84.358 1.157.246.31.583.466 1.012.466zm6.637 1.266c-.492 0-.92-.13-1.285-.39a2.61 2.61 0 01-.854-1.039 3.513 3.513 0 01-.295-1.45c0-.54.112-1.031.337-1.471.232-.44.562-.787.99-1.04.43-.259.942-.389 1.54-.389.603 0 1.113.13 1.527.39.415.26.731.61.949 1.05.218.44.326.927.326 1.46v2.749h-1.443v-.92h-.021a2.37 2.37 0 01-.664.747c-.274.202-.643.303-1.107.303zm.411-1.266c.422 0 .752-.16.99-.477.247-.317.37-.703.37-1.157 0-.448-.123-.826-.37-1.136-.238-.318-.568-.477-.99-.477-.428 0-.766.16-1.011.477-.246.31-.37.688-.37 1.136 0 .454.124.84.37 1.157.245.318.583.477 1.011.477zm4.824 1.136v-3.279c0-.433.102-.83.305-1.19a2.2 2.2 0 01.875-.855c.386-.216.85-.325 1.391-.325.386 0 .734.069 1.043.206.31.137.573.325.79.563h.011a2.46 2.46 0 01.801-.563 2.622 2.622 0 011.054-.206c.541 0 1.001.109 1.38.325.387.21.682.494.886.855.204.36.306.757.306 1.19v3.279h-1.444v-3.279c0-.303-.113-.563-.337-.779a1.08 1.08 0 00-.79-.325c-.31 0-.577.109-.802.325a1.06 1.06 0 00-.327.78v3.278h-1.443v-3.279c0-.303-.113-.563-.337-.779a1.08 1.08 0 00-.79-.325c-.31 0-.577.109-.802.325a1.06 1.06 0 00-.326.78v3.278h-1.444zm13.624.13c-.577 0-1.079-.123-1.507-.368a2.51 2.51 0 01-.98-1.04c-.233-.454-.348-.984-.348-1.59v-5.031h1.443v3.062h.01c.162-.253.387-.45.675-.595a2.13 2.13 0 01.949-.217c.527 0 .984.12 1.37.357.386.239.685.567.896.985.218.411.326.891.326 1.44 0 .576-.112 1.092-.337 1.547-.218.447-.537.8-.959 1.06-.421.26-.934.39-1.538.39zm0-1.266c.428 0 .762-.155 1-.466.247-.317.37-.703.37-1.157 0-.455-.123-.837-.37-1.148-.238-.317-.572-.476-1-.476-.43 0-.766.16-1.012.477-.24.31-.358.692-.358 1.147 0 .454.119.84.358 1.157.246.31.583.466 1.012.466zm7.101 1.266a2.908 2.908 0 01-1.486-.38 2.888 2.888 0 01-1.033-1.038 2.9 2.9 0 01-.38-1.471c0-.542.127-1.029.38-1.461a2.85 2.85 0 012.519-1.429c.555 0 1.05.13 1.486.39.435.252.779.599 1.032 1.039.253.432.38.92.38 1.46a2.9 2.9 0 01-.38 1.472c-.253.433-.597.78-1.032 1.039a2.91 2.91 0 01-1.486.379zm0-1.266c.442 0 .79-.155 1.043-.466.26-.317.39-.703.39-1.157 0-.455-.13-.837-.39-1.148-.253-.317-.601-.476-1.043-.476-.443 0-.794.16-1.054.477-.253.31-.38.692-.38 1.147 0 .454.127.84.38 1.157.26.31.611.466 1.054.466zm7.167 1.266a2.91 2.91 0 01-1.486-.38 2.896 2.896 0 01-1.033-1.038 2.899 2.899 0 01-.379-1.471c0-.542.126-1.029.379-1.461a2.853 2.853 0 012.519-1.429c.555 0 1.05.13 1.486.39.436.252.78.599 1.033 1.039.253.432.379.92.379 1.46a2.9 2.9 0 01-.379 1.472c-.253.433-.597.78-1.033 1.039a2.91 2.91 0 01-1.486.379zm0-1.266c.443 0 .79-.155 1.043-.466.26-.317.39-.703.39-1.157 0-.455-.13-.837-.39-1.148-.253-.317-.6-.476-1.043-.476-.443 0-.794.16-1.054.477-.253.31-.379.692-.379 1.147 0 .454.126.84.379 1.157.26.31.611.466 1.054.466z" fill="#009F10" fill-opacity=".27"/><rect x="133.659" y="64.284" width="127.125" height="4.014" rx="2.007" fill="#DBEEEB"/><circle cx="253.994" cy="166.45" r="7.177" fill="url(#paint1_linear)"/><path d="M256.264 162.754h-5.002c-.652 0-.869.653-.87.87-.072 1.45-.174 4.524 0 5.22.174.695.725.869.87.869h3.915l2.175.87v-6.959c0-.696-.725-.87-1.088-.87z" fill="#fff"/><path d="M251.48 167.755c.362.29 1.348.87 2.392.87 1.044 0 1.885-.58 2.175-.87" stroke="#27B9ED"/><path d="M99.278 78.11H67.341a1 1 0 00-1 1v15.55a1 1 0 001 1h31.937a1 1 0 001-1V79.11a1 1 0 00-1-1zm-.444 20.918H68.027a1.433 1.433 0 000 2.865h30.807a1.432 1.432 0 100-2.865zm-4.304 4.87H68.027a1.433 1.433 0 000 2.866H94.53a1.433 1.433 0 000-2.866zm43.232-25.788h-31.937a1 1 0 00-1 1v15.55a1 1 0 001 1h31.937a1 1 0 001-1V79.11a1 1 0 00-1-1zm-.444 20.917h-31.061a1.432 1.432 0 000 2.866h31.061a1.434 1.434 0 000-2.866zm-4.557 4.872h-26.504a1.432 1.432 0 000 2.865h26.504a1.432 1.432 0 100-2.865z" fill="#DBEEEB"/><path d="M85.7 87.438l-3.797 2.193v-4.386l3.797 2.193zm38.485 0l-3.798 2.193v-4.386l3.798 2.193z" fill="#fff"/><path d="M99.67 113.103H67.731a1 1 0 00-1 1v15.551a1 1 0 001 1H99.67a1 1 0 001-1v-15.551a1 1 0 00-1-1zm-.445 20.853H68.418a1.433 1.433 0 000 2.866h30.807a1.433 1.433 0 000-2.866zm-4.304 4.872H68.418a1.433 1.433 0 000 2.866h26.503a1.433 1.433 0 000-2.866z" fill="#DBEEEB"/><path d="M86.092 122.107l-3.797 2.192v-4.385l3.797 2.193z" fill="#fff"/><path d="M138.152 113.103h-31.937a1 1 0 00-1 1v15.551a1 1 0 001 1h31.937a1 1 0 001-1v-15.551a1 1 0 00-1-1zm-.445 20.871h-31.06a1.434 1.434 0 000 2.866h31.06a1.433 1.433 0 100-2.866zm-4.557 4.872h-26.503a1.433 1.433 0 100 2.865h26.503a1.433 1.433 0 100-2.865z" fill="#DBEEEB"/><path d="M124.574 122.107l-3.797 2.192v-4.385l3.797 2.193z" fill="#fff"/><path d="M99.278 146.468H67.341a1 1 0 00-1 1v15.551a1 1 0 001 1h31.937a1 1 0 001-1v-15.551a1 1 0 00-1-1zm-.443 20.852H68.028a1.433 1.433 0 000 2.866h30.807a1.433 1.433 0 000-2.866zm-4.304 4.872H68.028a1.433 1.433 0 100 2.865h26.503a1.432 1.432 0 100-2.865zm43.232-25.726h-31.937a1 1 0 00-1 1v15.551a1 1 0 001 1h31.937a1 1 0 001-1v-15.551a1 1 0 00-1-1zm-.445 20.871h-31.06a1.433 1.433 0 100 2.865h31.06a1.432 1.432 0 100-2.865zm-4.557 4.871h-26.503a1.434 1.434 0 000 2.866h26.503a1.433 1.433 0 100-2.866z" fill="#DBEEEB"/><path d="M85.701 155.468l-3.797 2.193v-4.386l3.797 2.193zm38.484 0l-3.798 2.193v-4.386l3.798 2.193z" fill="#fff"/><g clip-path="url(#clip0)" fill="#DBEEEB"><path d="M195.091 164.526h-4.313c-.702-2.334-2.846-4.049-5.405-4.049s-4.702 1.715-5.405 4.049h-20.51a1.62 1.62 0 000 3.24h20.51c.701 2.333 2.846 4.049 5.405 4.049s4.702-1.716 5.405-4.049h4.313a1.62 1.62 0 000-3.24zm-9.718 4.049c-1.34 0-2.43-1.09-2.43-2.429 0-1.34 1.09-2.43 2.43-2.43a2.432 2.432 0 012.429 2.43 2.432 2.432 0 01-2.429 2.429zm9.718-29.963h-4.313c-.703-2.334-2.846-4.049-5.405-4.049s-4.702 1.715-5.405 4.049h-20.51a1.62 1.62 0 000 3.239h20.51c.703 2.334 2.846 4.049 5.405 4.049s4.702-1.715 5.405-4.049h4.313a1.619 1.619 0 100-3.239zm-9.718 4.049c-1.34 0-2.43-1.09-2.43-2.429 0-1.34 1.09-2.43 2.43-2.43a2.432 2.432 0 012.429 2.43 2.432 2.432 0 01-2.429 2.429zm9.718 8.907h-20.51c-.703-2.333-2.846-4.049-5.405-4.049s-4.702 1.716-5.405 4.049h-4.313a1.62 1.62 0 000 3.24h4.313c.703 2.334 2.846 4.049 5.405 4.049s4.702-1.715 5.405-4.049h20.51a1.62 1.62 0 000-3.24zm-25.915 4.05a2.432 2.432 0 01-2.429-2.43 2.432 2.432 0 012.429-2.429c1.34 0 2.43 1.09 2.43 2.429 0 1.34-1.09 2.43-2.43 2.43z"/></g><g clip-path="url(#clip1)" fill="#DBEEEB"><path d="M244.896 164.526h-4.313c-.702-2.334-2.846-4.049-5.405-4.049s-4.702 1.715-5.405 4.049h-20.51a1.62 1.62 0 000 3.24h20.51c.701 2.333 2.846 4.049 5.405 4.049s4.702-1.716 5.405-4.049h4.313a1.62 1.62 0 100-3.24zm-9.718 4.049c-1.34 0-2.43-1.09-2.43-2.429 0-1.34 1.09-2.43 2.43-2.43a2.432 2.432 0 012.429 2.43 2.432 2.432 0 01-2.429 2.429zm9.718-29.963h-4.313c-.703-2.334-2.846-4.049-5.405-4.049s-4.702 1.715-5.405 4.049h-20.51a1.62 1.62 0 000 3.239h20.51c.703 2.334 2.846 4.049 5.405 4.049s4.702-1.715 5.405-4.049h4.313a1.619 1.619 0 100-3.239zm-9.718 4.049c-1.34 0-2.43-1.09-2.43-2.429 0-1.34 1.09-2.43 2.43-2.43a2.432 2.432 0 012.429 2.43 2.432 2.432 0 01-2.429 2.429zm9.718 8.907h-20.51c-.703-2.333-2.846-4.049-5.405-4.049s-4.702 1.716-5.405 4.049h-4.313a1.62 1.62 0 000 3.24h4.313c.703 2.334 2.846 4.049 5.405 4.049s4.702-1.715 5.405-4.049h20.51a1.62 1.62 0 100-3.24zm-25.915 4.05a2.432 2.432 0 01-2.429-2.43 2.432 2.432 0 012.429-2.429c1.34 0 2.43 1.09 2.43 2.429 0 1.34-1.09 2.43-2.43 2.43z"/></g><path d="M244.39 75.444h-82.552a4 4 0 00-4 4v38.831a4 4 0 004 4h82.552a4 4 0 004-4v-38.83a4 4 0 00-4-4z" fill="#DBEEEB"/><path d="M209.495 99.47l-10.133 5.85v-11.7l10.133 5.85z" fill="#fff"/><path d="M279.404 200.339s.309-2.424 1.029-3.864 5.304-.529 5.304-.529.911.779 1.117 4.452l-7.45-.059zm-15.621-.029c1.073-.661.47-5.569.47-5.569s-5.025-4.012-5.716-.941c-.691 3.071-4.776 4.453-7.097 4.835-1.602.264-2.102 1.146-2.249 1.675h14.592z" fill="#233862"/><path d="M274.187 164.632c-.205 1.131-.338 2.043-.367 2.718-.47 9.096-7.656 29.918-8.949 30.403-1.998.75-5.128-.852-6.774-1.366-.676-.221-1.131-.897-.985-1.602 3.557-16.384 4.879-39.969 5.349-53.929.235-7.038 1.455-11.887 1.455-11.887s17.545-4.688 17.648 1.234c.088 5.231-5.819 25.789-7.377 34.429z" fill="#213F7A"/><path d="M274.187 164.634l-11.726-23.791c.235-7.038 1.455-11.887 1.455-11.887s17.545-4.688 17.648 1.234c.088 5.246-5.819 25.803-7.377 34.444z" fill="#233862"/><path d="M270.278 130.204l9.272 67.241s4.071.985 7.245.192c0 0 2.718-35.767 2.483-44.407-.22-8.64 1.954-23.129-.5-24.731-2.439-1.587-18.5 1.705-18.5 1.705z" fill="#213F7A"/><path d="M289.44 112.952l1.161 16.149a1.271 1.271 0 01-.926 1.322c-1.293.382-2.792.632-5.658 1.235-2.703.558-6.333 1.058-10.8 1.087-7.112.044-9.801-2.41-9.801-2.41-.309 0 .162-1.484.588-8.552.147-2.395.279-5.437.382-9.272.088-3.453.147-7.553.161-12.417.015-5.848 9.067-12.152 9.243-12.152 0 .838 1.323 2.395 3.38 2.527 2.424.162 5.407-1.043 5.407-2.454 0-.014 4.394 7.024 5.952 14.518.205.956.352 1.955.47 3.013v.044c.029.191.044.382.059.588 0 .029 0 .073.014.103.015.176.03.352.059.543 0 .044.015.103.015.162l.044.499v.045c.015.117.015.249.029.367 0 .088.015.176.015.264.015.147.015.294.029.441 0 .074.015.147.015.221.015.147.015.279.029.426 0 .059.015.132.015.191.015.206.03.411.03.617v.044c.014.206.014.397.029.603v.146c.015.191.015.383.029.574v.088c0 .47.015.955.03 1.44v.044-.044z" fill="#91B7EF"/><path d="M273.761 87.942s-8.42-.073-10.448 2.777c-2.028 2.851-6.48 18.148-4.158 23.232 2.321 5.084 6.656-2.101 9.066-5.231 2.41-3.115 5.54-20.778 5.54-20.778z" fill="#91B7EF"/><path d="M273.673 86.649v.867s-.235 2.718 3.115 3.115c3.35.397 5.834-.514 5.745-2.615-.308-1.632-.573-3.292-.602-4.63a9.34 9.34 0 01.117-1.63l-6.494-.132-1.911.308.03 4.717z" fill="#FFB27D"/><path d="M273.644 81.947l.029 4.717a5.456 5.456 0 002.336.514c2.983 0 4.923-2.19 5.922-3.776-.014-.5.03-1.03.118-1.632l-6.495-.132-1.91.309z" fill="#E2915A"/><path d="M282.563 80.714c-.749 4.055-5.995 3.923-8.258 3.673a19.066 19.066 0 01-1.043-.147c-.72-.19-1.117-1.322-1.308-2.806-.368-2.94.103-7.23.588-8.332.749-1.66 2.145-3.453 7.42-2.16 5.29 1.293 3.571 4.57 2.601 9.772z" fill="#FFB27D"/><path d="M265.135 99.347s-3.262 7.2-3.159 9.36c0 0 1.616-.058 3.159.412 2.557.749 0-9.772 0-9.772z" fill="#7EA9E8"/><path d="M270.939 69.222s2.322-.176 5.055-1.367c2.219-.97 5.026.103 5.937.573a1.44 1.44 0 00-.221-.543s.412.294.471.69c.044.03.058.06.044.06 0 0 .47-.089.764.043 0 0-.206-.03-.279.103-.015.015-.015.03-.03.044 3.468 1.675 3.791 7.156 2.675 8.42-1.338 1.528-2.954 4.967-2.954 4.967s-.588-.808-.338-2.16c.25-1.338-.911-1.338-2.38-1.955-1.47-.617-.25-2.321-1.529-3.35-1.278-1.043-5.98-.426-5.921-1.22-1.749-.631-1.294-4.129-1.294-4.305z" fill="#233862"/><path d="M283.621 112.82c-1.381 5.525-16.252 8.376-19.632 8.964.147-2.395.28-5.437.382-9.272l19.25.308z" fill="#7EA9E8"/><path d="M280.359 114.613c.147 0 3.306-.47 3.879-.749s3.16-3.967 1.455-4.908c-1.704-.94-6.26 2.836-6.26 2.836l.926 2.821z" fill="#FFB27D"/><path d="M261.094 115.716s12.241.661 20.455-1.102c0 0 .206-2.38-2.381-3.424 0 0-12.798-2.718-15.884-1.954-3.057.749-2.19 6.48-2.19 6.48z" fill="#91B7EF"/><path d="M289.219 106.105c-2.542 3.057-5.863 5.569-9.522 6.157-.029-.044-1.102-1.69-.911-4.085.089-1.117.456-2.395 1.338-3.747.264-.411.514-.911.72-1.455 1.998-5.099 1.704-14.93 1.704-14.93s8.494.897 11.139 4.674c1.616 2.292-.456 8.537-4.468 13.386z" fill="#91B7EF"/><path d="M274.304 84.388a19.017 19.017 0 01-1.043-.147c-.72-.19-1.117-1.322-1.308-2.806 1.352.337 1.969 1.366 2.219 1.822.132.19.147.631.132 1.131z" fill="#E2915A"/><path d="M270.881 86.68s-2.939-4.835-.647-5.056c2.278-.206 3.204 1.337 3.527 1.896.323.573-.088 3.13-.088 3.13l-2.792.03z" fill="#FFB27D"/><path d="M282.063 108a6.387 6.387 0 01-.499 1.676c-.721 1.587-1.867 2.571-1.867 2.571-7.611-3.438-9.154-15.238-9.419-21.733-.103-2.6 0-4.35 0-4.35 3.439-1.13 4.409.838 4.409.838s4.055 9.654 6.156 15.958c.809 2.41 1.323 4.335 1.22 5.04z" fill="#91B7EF"/><path d="M289.22 106.104c-2.542 3.056-5.863 5.569-9.522 6.157-7.612-3.439-9.155-15.238-9.419-21.733 0 0 3.6 13.078 8.508 17.633.881.823 1.822 1.381 2.777 1.514 0 0 6.186-1.749 7.479-3.395a.906.906 0 01.177-.176z" fill="#7EA9E8"/><defs><linearGradient id="paint0_linear" x1="180.911" y1="42.579" x2="31.333" y2="193.017" gradientUnits="userSpaceOnUse"><stop stop-color="#99FF1E"/><stop offset="1" stop-color="#99FF1E" stop-opacity=".43"/></linearGradient><linearGradient id="paint1_linear" x1="248.122" y1="160.143" x2="253.994" y2="173.627" gradientUnits="userSpaceOnUse"><stop stop-color="#6DEEFF"/><stop offset="1" stop-color="#31C0FA"/></linearGradient><clipPath id="clip0"><path fill="#fff" transform="translate(157.838 133.752)" d="M0 0h38.872v38.872H0z"/></clipPath><clipPath id="clip1"><path fill="#fff" transform="translate(207.644 133.752)" d="M0 0h38.872v38.872H0z"/></clipPath><filter id="filter0_d" x="33.37" y="39.579" width="259.87" height="171.139" filterUnits="userSpaceOnUse" color-interpolation-filters="sRGB"><feFlood flood-opacity="0" result="BackgroundImageFix"/><feColorMatrix in="SourceAlpha" values="0 0 0 0 0 0 0 0 0 0 0 0 0 0 0 0 0 0 127 0"/><feOffset dy="6"/><feGaussianBlur stdDeviation="10"/><feColorMatrix values="0 0 0 0 0.623529 0 0 0 0 0.698039 0 0 0 0 0.686275 0 0 0 0.3 0"/><feBlend in2="BackgroundImageFix" result="effect1_dropShadow"/><feBlend in="SourceGraphic" in2="effect1_dropShadow" result="shape"/></filter></defs></svg>