<svg width="266" height="112" fill="none" xmlns="http://www.w3.org/2000/svg"><path opacity=".35" d="M0 14.449V101c0 5.523 4.477 10 10 10h246c5.523 0 10-4.477 10-10V48.344c-4.772 4.109-17.185 11.584-51.241 5.136-27.127-5.136-67.065-31.841-106.249-47.248C77.163-6.094 20.5 1.564 0 14.449z" fill="url(#paint0_linear)"/><path opacity=".41" d="M266 33.35V102c0 5.523-4.477 10-10 10H10c-5.523 0-10-4.477-10-10V60.96c4.772 3.347 17.185 9.436 51.24 4.184 27.128-4.183 80.076-24.168 119.26-36.719 31.347-10.04 84-.619 95.5 4.924z" fill="url(#paint1_linear)"/><path d="M0 41.004V102c0 5.523 4.477 10 10 10h246c5.523 0 10-4.477 10-10V65.928c-4.772 3.021-22.908 9.366-57.269 10.574-42.952 1.51-89.672-24.169-128.856-35.498-31.347-9.063-66.311-3.776-79.875 0z" fill="url(#paint2_linear)"/><defs><linearGradient id="paint0_linear" x1="154.5" y1="88.564" x2="29.17" y2="21.024" gradientUnits="userSpaceOnUse"><stop stop-color="#32D7EB" stop-opacity=".65"/><stop offset="1" stop-color="#D8F1F4" stop-opacity=".78"/></linearGradient><linearGradient id="paint1_linear" x1="151" y1="81.665" x2="238.592" y2="23.29" gradientUnits="userSpaceOnUse"><stop stop-color="#ECFFD5"/><stop offset=".531" stop-color="#ECFFD5"/></linearGradient><linearGradient id="paint2_linear" x1="0" y1="79.5" x2="273.286" y2="99.669" gradientUnits="userSpaceOnUse"><stop stop-color="#ECFFD5"/><stop offset="1" stop-color="#ECFFD5"/></linearGradient></defs></svg>