<svg width="360" height="863" fill="none" xmlns="http://www.w3.org/2000/svg"><path opacity=".35" d="M-151.327 377.541c-81.391 128.037 252.875 409.079 348.349 242.863 70.98-143.925 180.72-96.549 228.212-173.509 63.39-102.064-145.802-240.328-145.676-240.468C35.453 52.902-98.872 186.013-151.327 377.541z" fill="url(#paint0_linear)"/><path d="M-249.188 677.554c-66.114 3.899-142.262-41.852-162.611-58.759l112.87-602.33c136.055 155.326 343.957 113.3 476.327 162.426 148.064 54.95 220.784 128.678 252.523 197.846 31.74 69.168 39.651 213.878-51.533 281.053-91.184 67.175-206.606-16.14-326.744-21.608-120.138-5.469-234.718 37.473-300.832 41.372z" fill="url(#paint1_linear)"/><defs><linearGradient id="paint0_linear" x1="-180.246" y1="296.592" x2="474.59" y2="331.028" gradientUnits="userSpaceOnUse"><stop stop-color="#28FEFE" stop-opacity=".3"/><stop offset="1" stop-color="#30B3C7"/></linearGradient><linearGradient id="paint1_linear" x1="159.603" y1="745.585" x2="-76.219" y2="180.444" gradientUnits="userSpaceOnUse"><stop stop-color="#01B213"/><stop offset="1" stop-color="#91ED58"/></linearGradient></defs></svg>