<svg width="291" height="248" fill="none" xmlns="http://www.w3.org/2000/svg"><path fill-rule="evenodd" clip-rule="evenodd" d="M66.054 208.004c34.152 11.697 93.491 8.757 124.825-36.742 31.334-45.5 27.363-112.241-8.414-126.905-14.192-5.817-38.652-3.023-64.24 5.49l-5.628 2.203-10.372 3.811C68.52 69.995 36.144 92.956 25.802 118.187c-19.85 48.432 3.528 77.239 40.252 89.817z" fill="url(#paint0_linear)" fill-opacity=".2"/><g filter="url(#filter0_d)"><rect x="51.442" y="45.434" width="219.47" height="130.9" rx="6" fill="#fff"/></g><path d="M257.786 133.601V73.182a4 4 0 0 0-4-4H151.284a4 4 0 0 0-4 4v60.419h110.502z" fill="url(#paint1_linear)"/><path d="M241.709 133.654h-17.264l33.33-32.89V117.8l-16.066 15.854zm-43.264 0h5.868l53.47-52.766v-5.791l-59.338 58.557zm-51.161-40.33v5.791l30.259-29.861h-5.868l-24.391 24.07zm60.554-24.061h-25.572l-34.974 34.513v25.235l60.546-59.748z" fill="url(#paint2_linear)" fill-opacity=".3"/><rect x="152.958" y="74.82" width="98.843" height="50.757" rx="4" fill="#FBFBFB"/><path fill="url(#paint3_linear)" fill-opacity=".8" d="M146.279 138.934h110.865v24.043H146.279z"/><path d="M67.63 61.463c-.575 0-1.077-.123-1.505-.368a2.505 2.505 0 0 1-.978-1.037c-.232-.453-.347-.983-.347-1.587v-5.023h1.441v3.057h.01c.162-.252.386-.45.674-.594.294-.144.61-.216.947-.216.525 0 .981.119 1.367.356.386.238.684.566.894.983.218.41.326.89.326 1.437 0 .576-.112 1.09-.336 1.544-.218.447-.537.8-.958 1.059-.42.259-.932.389-1.536.389zm0-1.264c.427 0 .76-.155.999-.465.245-.316.368-.702.368-1.155 0-.454-.123-.836-.368-1.145-.239-.317-.572-.475-1-.475-.427 0-.764.158-1.01.475-.238.31-.357.691-.357 1.145 0 .453.12.839.358 1.155.245.31.582.465 1.01.465zm6.625 1.264c-.491 0-.919-.13-1.284-.39a2.605 2.605 0 0 1-.852-1.036 3.505 3.505 0 0 1-.294-1.447c0-.54.112-1.03.336-1.47a2.57 2.57 0 0 1 .99-1.036c.427-.26.939-.39 1.535-.39.603 0 1.112.13 1.525.39.414.259.73.608.947 1.047.218.44.326.926.326 1.459v2.743h-1.44v-.918h-.022a2.365 2.365 0 0 1-.663.745c-.273.202-.641.303-1.104.303zm.41-1.264c.42 0 .75-.159.989-.475.245-.317.368-.702.368-1.156 0-.447-.123-.825-.368-1.134-.239-.317-.568-.475-.989-.475-.428 0-.764.158-1.01.475-.245.31-.368.688-.368 1.134 0 .454.123.839.368 1.156.246.316.582.475 1.01.475zm4.815 1.134V58.06c0-.432.101-.828.305-1.188.203-.36.494-.644.873-.853.386-.216.849-.324 1.388-.324.386 0 .733.068 1.042.205.309.137.572.324.789.562h.01c.225-.238.491-.425.8-.562a2.616 2.616 0 0 1 1.052-.205c.54 0 1 .108 1.378.324.386.209.68.493.883.853.204.36.306.756.306 1.188v3.273h-1.442V58.06c0-.302-.112-.561-.336-.777a1.078 1.078 0 0 0-.79-.324c-.308 0-.574.108-.799.324a1.057 1.057 0 0 0-.326.777v3.273h-1.44V58.06a1.04 1.04 0 0 0-.338-.777 1.078 1.078 0 0 0-.788-.324c-.31 0-.576.108-.8.324a1.057 1.057 0 0 0-.326.777v3.273H79.48zm13.599.13c-.575 0-1.077-.123-1.504-.368a2.504 2.504 0 0 1-.979-1.037c-.231-.453-.347-.983-.347-1.587v-5.023h1.441v3.057h.01c.162-.252.386-.45.674-.594.294-.144.61-.216.947-.216.526 0 .981.119 1.367.356.386.238.684.566.894.983.218.41.327.89.327 1.437 0 .576-.113 1.09-.337 1.544-.218.447-.537.8-.957 1.059-.421.259-.933.389-1.536.389zm0-1.264c.428 0 .76-.155 1-.465.245-.316.367-.702.367-1.155 0-.454-.122-.836-.368-1.145-.238-.317-.571-.475-1-.475-.427 0-.764.158-1.01.475-.237.31-.357.691-.357 1.145 0 .453.12.839.358 1.155.245.31.582.465 1.01.465zm7.088 1.264a2.903 2.903 0 0 1-1.483-.379 2.883 2.883 0 0 1-1.031-1.036 2.894 2.894 0 0 1-.379-1.47c0-.54.126-1.025.379-1.457a2.77 2.77 0 0 1 1.03-1.037 2.84 2.84 0 0 1 1.484-.39c.554 0 1.048.13 1.483.39.435.252.779.597 1.031 1.037.253.432.379.918.379 1.458 0 .54-.126 1.03-.379 1.469a2.879 2.879 0 0 1-1.031 1.036 2.903 2.903 0 0 1-1.483.379zm0-1.264c.442 0 .789-.155 1.041-.465.26-.316.39-.702.39-1.155 0-.454-.13-.836-.39-1.145-.252-.317-.599-.475-1.041-.475-.442 0-.793.158-1.052.475-.252.31-.379.691-.379 1.145 0 .453.127.839.38 1.155.258.31.61.465 1.051.465zm7.154 1.264a2.903 2.903 0 0 1-1.483-.379 2.887 2.887 0 0 1-1.031-1.036 2.899 2.899 0 0 1-.378-1.47 2.84 2.84 0 0 1 2.892-2.883c.554 0 1.049.13 1.484.389a2.84 2.84 0 0 1 1.409 2.495c0 .54-.126 1.03-.378 1.469a2.895 2.895 0 0 1-1.031 1.036c-.435.252-.93.379-1.484.379zm0-1.264c.442 0 .789-.155 1.042-.465.259-.316.389-.702.389-1.155 0-.454-.13-.836-.389-1.145-.253-.317-.6-.475-1.042-.475-.441 0-.792.158-1.052.475-.252.31-.378.691-.378 1.145 0 .453.126.839.378 1.155.26.31.611.465 1.052.465z" fill="#009F10" fill-opacity=".27"/><rect x="131.586" y="56.12" width="126.893" height="4.007" rx="2.004" fill="#DBEEEB"/><circle cx="251.701" cy="158.1" r="7.164" fill="url(#paint4_linear)"/><path d="M253.968 154.411h-4.993c-.651 0-.868.651-.868.868-.073 1.447-.174 4.516 0 5.21.173.695.723.869.868.869h3.908l2.17.868v-6.947c0-.694-.723-.868-1.085-.868z" fill="#fff"/><path d="M249.192 159.402c.362.289 1.346.868 2.388.868 1.042 0 1.881-.579 2.171-.868" stroke="#27B9ED"/><path d="M97.265 69.921H65.39a1 1 0 0 0-1 1v15.52a1 1 0 0 0 1 1h31.875a1 1 0 0 0 1-1V70.92a1 1 0 0 0-1-1zm-.443 20.88h-30.75a1.43 1.43 0 1 0 0 2.86h30.75a1.43 1.43 0 1 0 0-2.86zm-4.296 4.864H66.071a1.43 1.43 0 1 0 0 2.86h26.455a1.43 1.43 0 1 0 0-2.86zm43.152-25.745h-31.875a1 1 0 0 0-1 1v15.52a1 1 0 0 0 1 1h31.875a1 1 0 0 0 1-1V70.92a1 1 0 0 0-1-1zm-.441 20.881h-31.004a1.43 1.43 0 1 0 0 2.86h31.004a1.43 1.43 0 1 0 0-2.86zm-4.549 4.864h-26.455a1.43 1.43 0 1 0 0 2.86h26.455a1.43 1.43 0 1 0 0-2.86z" fill="#DBEEEB"/><path d="M83.713 79.233l-3.79 2.189v-4.378l3.79 2.189zm38.415 0l-3.791 2.189v-4.378l3.791 2.189z" fill="#fff"/><path d="M97.265 104.29H65.39a1 1 0 0 0-1 1v15.519a1 1 0 0 0 1 1h31.875a1 1 0 0 0 1-1V105.29a1 1 0 0 0-1-1zm-.442 20.815H66.072a1.43 1.43 0 0 0 0 2.861h30.75a1.43 1.43 0 0 0 0-2.861zm-4.296 4.863H66.072a1.43 1.43 0 1 0 0 2.86h26.455a1.43 1.43 0 1 0 0-2.86zm43.151-25.678h-31.875a1 1 0 0 0-1 1v15.519a1 1 0 0 0 1 1h31.875a1 1 0 0 0 1-1V105.29a1 1 0 0 0-1-1zm-.441 20.835h-31.004a1.43 1.43 0 1 0 0 2.86h31.004a1.43 1.43 0 1 0 0-2.86zm-4.549 4.862h-26.455a1.43 1.43 0 0 0 0 2.861h26.455a1.43 1.43 0 0 0 0-2.861z" fill="#DBEEEB"/><path d="M83.714 113.277l-3.79 2.189v-4.377l3.79 2.188zm38.413 0l-3.79 2.189v-4.377l3.79 2.188z" fill="#fff"/><path d="M97.265 138.156H65.39a1 1 0 0 0-1 1v15.519a1 1 0 0 0 1 1h31.875a1 1 0 0 0 1-1v-15.519a1 1 0 0 0-1-1zm-.442 20.813H66.072a1.43 1.43 0 1 0 0 2.86h30.75a1.43 1.43 0 1 0 0-2.86zm-4.296 4.863H66.072a1.43 1.43 0 1 0 0 2.86h26.455a1.43 1.43 0 1 0 0-2.86zm43.151-25.679h-31.875a1 1 0 0 0-1 1v15.52a1 1 0 0 0 1 1h31.875a1 1 0 0 0 1-1v-15.52a1 1 0 0 0-1-1zm-.441 20.832h-31.004a1.43 1.43 0 0 0 0 2.861h31.004a1.43 1.43 0 0 0 0-2.861zm-4.549 4.864h-26.455a1.43 1.43 0 1 0 0 2.86h26.455a1.43 1.43 0 1 0 0-2.86z" fill="#DBEEEB"/><path d="M83.714 147.139l-3.79 2.188v-4.377l3.79 2.189zm38.414 0l-3.791 2.188v-4.377l3.791 2.189z" fill="#fff"/><g filter="url(#filter1_d)"><rect x="102.2" y="66.808" width="124.222" height="82.815" rx="4" fill="#FBFBFB"/></g><rect x="142.272" y="130.798" width="44.079" height="8.014" rx="4.007" fill="#DBEEEB"/><g clip-path="url(#clip0)" fill="#CAE8E3"><path d="M165.152 101.335l1.862 3.725h16.188l-1.863-3.725h-16.187zm-3.014 0H145.95l-1.863 3.725h16.188l1.863-3.725z"/><path d="M164.576 104.349v8.162h-1.862v-8.162l-1.287 2.574h-13.614v14.901h14.901v-6.519h1.862v6.519h14.901v-14.901h-13.614l-1.287-2.574zm-9.313 15.612h-5.587v-1.863h5.587v1.863zm0-3.725h-5.587v-1.863h5.587v1.863zm3.725 3.725h-1.862v-1.863h1.862v1.863zm.356-38.868l4.301-1.096 4.301 1.096.337-4.618 2.285-3.903-4.04-1.75-2.883-3.563-2.882 3.564-4.041 1.749 2.285 3.903.337 4.618zM145 82.993l1.355-2.311-2.399-1.039-1.731-2.14-1.731 2.14-2.398 1.039 1.354 2.311.199 2.756 2.576-.656 2.576.656.199-2.756zm37.488 2.757l2.576-.657 2.577.656.199-2.756 1.354-2.311-2.398-1.039-1.732-2.14-1.731 2.14-2.398 1.039 1.354 2.311.199 2.756zm-36.123 2.39a20.67 20.67 0 0 1 4.68 4.292l3.688 4.61-.762-6.103a11.966 11.966 0 0 0-4.669-8.044l-.892-.669-2.73 5.459.685.456zm26.954 2.799l-.763 6.102 3.689-4.61a20.691 20.691 0 0 1 4.68-4.291l.684-.457-2.73-5.458-.892.67a11.959 11.959 0 0 0-4.668 8.044zm-5.949 6.671h1.863v-3.902a19.19 19.19 0 0 1 4.441-12.265l-1.431-1.192a21.056 21.056 0 0 0-4.873 13.457v3.902zm6.519-20.489h1.863v1.863h-1.863V77.12zm2.794-3.724h1.863v1.862h-1.863v-1.862zM158.057 97.61h1.863v-3.902c0-4.908-1.731-9.686-4.872-13.457l-1.431 1.192a19.194 19.194 0 0 1 4.44 12.265v3.902zm-6.519-20.489h1.863v1.863h-1.863V77.12zm-2.794-3.724h1.863v1.862h-1.863v-1.862zm13.969 8.381h1.863v1.863h-1.863v-1.863zm0 3.726h1.863V97.61h-1.863V85.505zm24.214 5.587h1.863v1.863h-1.863V91.09zm0 3.725h1.863v1.863h-1.863v-1.863zm1.863-1.863h1.862v1.863h-1.862v-1.863zm-3.726 0h1.863v1.863h-1.863v-1.863zm.932-25.144h1.862v1.862h-1.862V67.81zm0 3.725h1.862v1.863h-1.862v-1.863zm1.862-1.862h1.863v1.862h-1.863v-1.862zm-3.725 0h1.863v1.862h-1.863v-1.862zM138.5 94.816h1.863v1.863H138.5v-1.863zm0 3.726h1.863v1.863H138.5v-1.863zm1.863-1.862h1.862v1.862h-1.862v-1.863zm-3.725 0h1.862v1.862h-1.862v-1.863zm1.862-28.871h1.863v1.862H138.5V67.81zm0 3.725h1.863v1.863H138.5v-1.863zm1.863-1.862h1.862v1.862h-1.862v-1.862zm-3.725 0h1.862v1.862h-1.862v-1.862z"/></g><path d="M265.484 183.262h-57.052c-9.413-11.555-5.504-28.273 2.137-40.32 1.568-1.657 4.584-2.826 7.844-3.649 5.997-1.526 12.784-1.872 12.84-1.896.022-.012 3.594-3.113 5.741-5.903 6.676-8.658 12.362-7.919 12.362-7.919 6.809-1.419 12.606-1.824 16.912.74 3.984 2.385 6.687 7.334 7.689 16.421a73.74 73.74 0 0 1 .389 5.617c.245 7.382-1.19 13.748-.389 19.305-1.112 7.513-4.792 13.449-8.473 17.604z" fill="#F2BF64"/><path d="M264.662 134.294c-4.451 2.508-4.955 10.774-11.914 12.909-6.97 2.135-18.8 1.936-25.507 9.458-6.478 7.261-13.605-11.221-10.534-16.421 6.467-1.589 13.786-1.949 13.846-1.974.024-.012 3.875-3.239 6.19-6.144 7.199-9.011 13.33-8.241 13.33-8.241 7.342-1.477 13.593-1.899 18.236.769 2.352 2.669.804 7.137-3.647 9.644z" fill="#EAAC3E"/><path d="M241.631 127.782s-26.039-.336-29.522 1.874c-3.468 2.223 3.581 37.492 3.581 37.492s6.74.196 7.271-1.594c0 0-1.258-16.53-.209-19.396 1.049-2.853.391-6.811.391-6.811s13.188 1.972 17.355.979c4.181-1.007 1.133-12.544 1.133-12.544z" fill="#233862"/><path d="M247.658 109.547c0 .014-3.664 8.544-5.454 9.453-1.79.909-8.251 8.335-9.635 8.209-1.385-.126 1.622 1.133 1.622 1.133s11.299-5.216 11.956-5.538c.658-.321 4.126-6.027 4.601-8.908.476-2.881-3.09-4.349-3.09-4.349zm-23.872 60.231c-.867 1.678-1.062 4.755-1.328 5.804-.252 1.048-4.811 4.6-5.202 4.419-.993-.448-.042-2.182.559-3.455.028-.055.042-.097.07-.153.601-1.273.084-4.126.391-5.608.308-1.469-1.188-5.44-1.188-5.44l2.517-3.175s1.762 3.357 3.035 3.972c.223.112.433.238.615.392.881.713 1.245 1.86.531 3.244zm-8.838 9.804c-1.748.714-3.873 2.951-4.754 3.581-.868.629-6.643.405-6.825.014-.489-1.021 1.524-1.749 2.811-2.35.014-.014.042-.014.056-.028 1.272-.643 2.685-3.09 3.86-3.999 1.188-.923 2.601-4.923 2.601-4.923l3.971-.811s-.811 3.706-.251 4.992c.056.126.098.238.139.364.378 1.217-.027 2.517-1.608 3.16z" fill="#FFB27D"/><path d="M255.14 105.757c-.532-.615 7.845-3.132 9.635 3.734 0 0 15.411-4.097 5.944-10.964-3.287-2.377-3.609-4.908-4.084-7.23-.475-2.321-3.748-8.992-9.426-5.677 0 0-2.601.014-4.237 1.44-3.748 3.23-7.831 23.788 2.168 18.697z" fill="#163560"/><path d="M252.51 128.986s-27.004 2.741-29.381 5.496c-2.378 2.755-11.705 38.611-11.705 38.611s2.755 1.539 5.258.098c0 0 7.146-12.166 10.307-15.984 3.16-3.818 4.349-15.607 4.866-15.733.518-.125 17.453 2.364 23.27-2.111 5.846-4.461-2.615-10.377-2.615-10.377z" fill="#2A4E96"/><path d="M267.558 104.486s-6.447-2.881-14.614-1.567c-1.664.266-3.174.811-4.363 2.783-1.692 2.783-2.475 4.266-2.475 4.266s.167 1.286 2.461 2.307c-.629 2.307.573 6.321-.531 7.887-1.105 1.566-7.972 5.426-8.307 7.58-.63 3.957 11.733 11.131 15.411 10.362 10.6-2.195 17.802-30.598 12.418-33.618z" fill="#F9DDBF"/><path d="M263.908 96.332s1.272-2.503 1.44-4.545c.126-1.468-1.119-6.727-6.405-5.454 0 0-1.538.294-2.909 1.427-1.09.894-2.615 2.754-.293 7.23l.629 1.524 7.538-.182z" fill="#163560"/><path d="M256.651 104.765c-.532.56-.322 2.433 2.181 2.294 1.65-.098 5.16-2.126 4.839-3.524-.154-.672-1.427-2.392-1.72-6.35l-.294.084-5.02 1.413s.237 1.594.363 3.104c.112 1.259-.126 2.741-.349 2.979z" fill="#FFB27D"/><path d="M256.637 98.668s.237 1.595.363 3.105c2.839-.308 4.154-3.02 4.657-4.517l-5.02 1.412z" fill="#F4A269"/><path d="M256.539 100.989s6.559-1.65 5.468-5.72c-1.091-4.07-.979-7.034-5.216-6.153-4.238.881-4.629 2.657-4.601 4.098.042 1.454 2.601 8.111 4.349 7.775z" fill="#FFB27D"/><path d="M253.784 89.83s2.209 4.195 6.363 4.656c2.433.266 3.104 1.874 3.104 1.874s-.727-4.587-1.958-7.384c0-.014-6.768-1.79-7.509.853z" fill="#163560"/><path d="M254.539 90.374s-1.44 1.469-1.888 2.504c-.657 1.538.629 4.754 1.147 5.454 0 0-3.049-5.189-2.028-7.426 1.091-2.378 2.769-.532 2.769-.532z" fill="#163560"/><path d="M234.512 128.188s-1.3 1.385-1.468 1.455c-.867.405-1.958.168-2.489.307-.532.126-.434-.195-.042-.461.391-.266 1.342-.168.951-.266-.392-.098-2.504-.489-3.301-.279-1.258.335-2.251-.056-2.335-.182-.084-.126 2.881-1.567 3.72-1.525.839.042 3.272-.07 3.272-.07l1.692 1.021zm35.269-21.158s.783 19.256-1.482 21.955c-2.252 2.686-16.026-.293-16.026-.293l-.951-1.413s12.222-1.79 13.047-2.027c1.175-.336.364-13.593.364-13.593l5.048-4.629z" fill="#FFB27D"/><path d="M266.734 104.177c.195 0 2.629.811 4.377 4.265 1.72 3.399 2.335 5.049 2.335 5.049s-7.622 5.901-10.642 3.734c-3.021-2.182 1.147-13.118 3.93-13.048z" fill="#F9DDBF"/><path d="M252.273 128.692s-1.091 1.105-1.51 1.678c-.42.573-3.329 1.594-3.399 1.287-.07-.308 1.301-1.231 1.427-1.567.126-.349 1.622-2.083 2.531-2.279.909-.196.951.881.951.881z" fill="#FFB27D"/><path d="M251.322 127.279s-4.489 1.035-5.258 1.357c-.769.307-2.378 2.601-1.734 2.937.405.209 2.181-.714 3.076-.909.895-.196 3.454.251 4.615-2.056.126-.266-.699-1.329-.699-1.329z" fill="#FFB27D"/><path d="M214.948 179.582c-1.748.713-3.873 2.95-4.754 3.58-.868.629-6.643.405-6.825.014-.489-1.021 1.524-1.748 2.811-2.35.014-.014.042-.014.056-.028l.182-.056s2.489.881 4.559 0c1.608-.685 3.999-3.258 5.579-4.307.378 1.203-.027 2.503-1.608 3.147zm8.838-9.803c-.867 1.678-1.062 4.755-1.328 5.804-.252 1.048-4.811 4.601-5.202 4.419-.993-.448-.042-2.182.559-3.454.364-.028.839-.14 1.384-.518 1.133-.755 3.063-3.622 3.245-5.314.14-1.37.056-3.342.811-4.181.881.713 1.245 1.86.531 3.244z" fill="#2E3552"/><path d="M245.518 132.159h-19.564l-5.888-14.641h19.537l5.915 14.641z" fill="#9FAEAC"/><path d="M225.73 131.586h25.844v.573h-25.62l-.224-.573z" fill="#9FAEAC"/><path d="M230.89 124.832c-.154-.517.154-.937.672-.937.517 0 1.048.42 1.202.937.154.517-.154.937-.671.937s-1.049-.42-1.203-.937z" fill="#fff"/><path d="M263.465 139.332s-2.234 2.057-11.586 2.357c-9.353.289-21.537 10.467-21.659 13.342-.11 2.875 18.814 7.242 19.107 6.833.293-.409 12.014-10.322 12.014-10.322l2.124-12.21z" fill="#F2BF64"/><path d="M274.038 165.659c-4.204-9.302-16.613 1.546-19.088-2.839-2.476-4.385 4.991-8.986 11.697-12.925 6.573-3.854 7.115-9.632 7.138-9.87.041 1.734.928 8.132.804 10.164-.44 7.397-.893 9.839-.551 15.47z" fill="#EAAC3E"/><defs><filter id="filter0_d" x="31.442" y="31.434" width="259.47" height="170.9" filterUnits="userSpaceOnUse" color-interpolation-filters="sRGB"><feFlood flood-opacity="0" result="BackgroundImageFix"/><feColorMatrix in="SourceAlpha" values="0 0 0 0 0 0 0 0 0 0 0 0 0 0 0 0 0 0 127 0"/><feOffset dy="6"/><feGaussianBlur stdDeviation="10"/><feColorMatrix values="0 0 0 0 0.623529 0 0 0 0 0.698039 0 0 0 0 0.686275 0 0 0 0.3 0"/><feBlend in2="BackgroundImageFix" result="effect1_dropShadow"/><feBlend in="SourceGraphic" in2="effect1_dropShadow" result="shape"/></filter><filter id="filter1_d" x="88.2" y="56.808" width="152.222" height="110.815" filterUnits="userSpaceOnUse" color-interpolation-filters="sRGB"><feFlood flood-opacity="0" result="BackgroundImageFix"/><feColorMatrix in="SourceAlpha" values="0 0 0 0 0 0 0 0 0 0 0 0 0 0 0 0 0 0 127 0"/><feOffset dy="4"/><feGaussianBlur stdDeviation="7"/><feColorMatrix values="0 0 0 0 0.45098 0 0 0 0 0.694118 0 0 0 0 0.658824 0 0 0 0.3 0"/><feBlend in2="BackgroundImageFix" result="effect1_dropShadow"/><feBlend in="SourceGraphic" in2="effect1_dropShadow" result="shape"/></filter><linearGradient id="paint0_linear" x1="174.373" y1="41.04" x2="30.201" y2="186.042" gradientUnits="userSpaceOnUse"><stop stop-color="#99FF1E"/><stop offset="1" stop-color="#99FF1E" stop-opacity=".43"/></linearGradient><linearGradient id="paint1_linear" x1="180.929" y1="63.271" x2="280.43" y2="137.839" gradientUnits="userSpaceOnUse"><stop stop-color="#DFF2EE"/><stop offset="1" stop-color="#E2F2EF"/></linearGradient><linearGradient id="paint2_linear" x1="158.396" y1="75.177" x2="258.5" y2="126.165" gradientUnits="userSpaceOnUse"><stop stop-color="#fff"/><stop offset="1" stop-color="#fff" stop-opacity=".96"/></linearGradient><linearGradient id="paint3_linear" x1="201.712" y1="138.934" x2="201.712" y2="162.977" gradientUnits="userSpaceOnUse"><stop stop-color="#E1F1EE"/><stop offset="1" stop-color="#E1F1EE" stop-opacity="0"/></linearGradient><linearGradient id="paint4_linear" x1="245.84" y1="151.805" x2="251.701" y2="165.264" gradientUnits="userSpaceOnUse"><stop stop-color="#6DEEFF"/><stop offset="1" stop-color="#31C0FA"/></linearGradient><clipPath id="clip0"><path fill="#fff" transform="translate(136.321 67.26)" d="M0 0h54.564v54.564H0z"/></clipPath></defs></svg>