<svg width="91" height="95" fill="none" xmlns="http://www.w3.org/2000/svg"><path d="M64.68 23.533H52.646c-1.196.002-2.343.622-3.189 1.725-.846 1.103-1.322 2.598-1.323 4.158v33.338h-3.008V5.884c-.002-1.56-.478-3.056-1.324-4.159C42.956.622 41.81.002 40.613 0H28.579c-1.196.002-2.343.622-3.189 1.725-.846 1.103-1.322 2.598-1.323 4.158v56.871h-3.008V37.26c-.002-1.56-.478-3.055-1.324-4.158-.845-1.103-1.992-1.723-3.189-1.725H4.513c-1.197.002-2.344.622-3.19 1.725C.477 34.205.001 35.701 0 37.26v27.455c0 .52.158 1.02.44 1.387.283.368.665.575 1.064.575h66.184c.4 0 .782-.207 1.064-.575.282-.368.44-.867.44-1.387V29.416c0-1.56-.477-3.055-1.323-4.158-.846-1.103-1.993-1.723-3.189-1.725z" fill="url(#paint0_linear)"/><path fill-rule="evenodd" clip-rule="evenodd" d="M71.043 78.723c10.622 0 19.233-8.61 19.233-19.233 0-10.622-8.611-19.232-19.233-19.232S51.81 48.868 51.81 59.49c0 3.905 1.164 7.539 3.163 10.572l-19.09 17.615a3.925 3.925 0 0 0 5.324 5.77L60.54 75.605a19.143 19.143 0 0 0 10.502 3.117z" fill="url(#paint1_linear)"/><path d="M31.52 21.907v38.484" stroke="#fff" stroke-width="3" stroke-linecap="round"/><defs><linearGradient id="paint0_linear" x1="35.201" y1="93.634" x2="35.201" y2="0" gradientUnits="userSpaceOnUse"><stop stop-color="#0DB817"/><stop offset="1" stop-color="#93F055"/></linearGradient><linearGradient id="paint1_linear" x1="71.043" y1="40.258" x2="35.226" y2="101.902" gradientUnits="userSpaceOnUse"><stop stop-color="#4CB0FD" stop-opacity=".53"/><stop offset="1" stop-color="#32D1F4"/></linearGradient></defs></svg>