<svg width="341" height="439" fill="none" xmlns="http://www.w3.org/2000/svg"><path d="M315.441 133.524c-44.095-12.592-102.234 14.743-64.853 40.291 36.327 20.043 28.321 33.362 48.029 45.507 26.149 16.166 48.639-5.627 48.676-5.599 29.255-26.473 6.083-69.366-31.852-80.199z" fill="url(#paint0_linear)" fill-opacity=".4"/><path opacity=".13" d="M183.998 360.523c78.703 74.208 266.664-33.892 179.282-125.942-89.693-72.535-52.227-119.271-99.619-163.117C200.834 13.1 111.172 89.15 111.088 89.049c-114.76 92.291-48.956 197.231 72.91 271.474z" fill="url(#paint1_linear)"/><defs><linearGradient id="paint0_linear" x1="280.132" y1="114.149" x2="278.608" y2="222.692" gradientUnits="userSpaceOnUse"><stop stop-color="#FFEC00" stop-opacity=".75"/><stop offset="1" stop-color="#F5F13C" stop-opacity=".45"/></linearGradient><linearGradient id="paint1_linear" x1="338.515" y1="371.368" x2="339.229" y2="150.941" gradientUnits="userSpaceOnUse"><stop stop-color="#28FEFE" stop-opacity=".3"/><stop offset="1" stop-color="#33C9E0"/></linearGradient></defs></svg>