<svg width="526" height="505" fill="none" xmlns="http://www.w3.org/2000/svg"><path d="M362.891 153.609c-50.728-14.486-117.613 16.961-74.609 46.352 41.791 23.058 32.581 38.38 55.254 52.352 30.082 18.599 55.956-6.473 55.998-6.441 33.656-30.455 6.997-79.8-36.643-92.263z" fill="url(#paint0_linear)" fill-opacity=".4"/><path opacity=".13" d="M211.676 414.755c90.542 85.37 306.777-38.991 206.25-144.888-103.185-83.446-60.083-137.212-114.604-187.654-72.278-67.142-175.427 20.347-175.524 20.231-132.021 106.174-56.32 226.899 83.878 312.311z" fill="url(#paint1_linear)"/><defs><linearGradient id="paint0_linear" x1="322.271" y1="131.32" x2="320.517" y2="256.19" gradientUnits="userSpaceOnUse"><stop stop-color="#FFEC00" stop-opacity=".75"/><stop offset="1" stop-color="#F5F13C" stop-opacity=".45"/></linearGradient><linearGradient id="paint1_linear" x1="389.436" y1="427.231" x2="390.257" y2="173.646" gradientUnits="userSpaceOnUse"><stop stop-color="#28FEFE" stop-opacity=".3"/><stop offset="1" stop-color="#33C9E0"/></linearGradient></defs></svg>