<svg width="72" height="64" fill="none" xmlns="http://www.w3.org/2000/svg"><path d="M42.286 32c0-5.68-4.605-10.285-10.286-10.285-5.68 0-10.286 4.605-10.286 10.286 0 5.68 4.605 10.285 10.286 10.285 5.678-.006 10.28-4.607 10.286-10.285zm-4.572 5.715c0 .631-.511 1.143-1.142 1.143h-9.143a1.143 1.143 0 01-1.143-1.143v-9.143c0-.631.511-1.143 1.143-1.143h2.436l-1.101-1.651a1.143 1.143 0 011.901-1.27L32 26.516l1.335-2.002a1.143 1.143 0 111.902 1.268l-1.102 1.648h2.437c.63 0 1.142.512 1.142 1.143v9.143z" fill="url(#paint0_linear)"/><path d="M8 17.143h11.429c.177 0 .352.04.51.12l5.204 2.602V8a8.009 8.009 0 00-8-8H8a8.009 8.009 0 00-8 8v1.143a8.009 8.009 0 008 8zM16 8h2.286v2.286H16V8zm-4.571 0h2.285v2.286H11.43V8zM6.857 8h2.286v2.286H6.857V8z" fill="url(#paint1_linear)"/><path d="M6.857 8h2.286v2.286H6.857V8z" fill="url(#paint2_linear)"/><path d="M11.429 8h2.285v2.286H11.43V8z" fill="url(#paint3_linear)"/><path d="M16 8h2.286v2.286H16V8z" fill="url(#paint4_linear)"/><path d="M19.429 46.857H8a8.009 8.009 0 00-8 8V56a8.009 8.009 0 008 8h9.143a8.009 8.009 0 008-8V44.135l-5.204 2.608a1.17 1.17 0 01-.51.114zm-6.2 14.147a1.163 1.163 0 00-.28-.26 1.136 1.136 0 00-1.486.261L9.677 59.58a3.42 3.42 0 014.49-.771c.325.205.613.466.85.769l-1.788 1.427zm3.572-2.857a5.696 5.696 0 00-8.914 0L6.1 56.721a7.982 7.982 0 0112.487 0L16.8 58.147zm5.352-4.281l-1.785 1.427a10.248 10.248 0 00-16.045 0l-1.788-1.425a12.538 12.538 0 0119.618 0v-.002z" fill="url(#paint5_linear)"/><path d="M55.129 51.429h-7.4l3.7 3.083 3.7-3.083z" fill="url(#paint6_linear)"/><path d="M51.429 57.143c-.268 0-.527-.093-.732-.265l-4.983-4.152v6.703h11.429v-6.703l-4.983 4.152a1.135 1.135 0 01-.731.265z" fill="url(#paint7_linear)"/><path d="M56 46.857H44.572a1.147 1.147 0 01-.511-.114l-5.204-2.608V56a8.009 8.009 0 008 8H56a8.009 8.009 0 008-8v-1.143a8.009 8.009 0 00-8-8zm3.429 13.714c0 .631-.512 1.143-1.143 1.143H44.57a1.143 1.143 0 01-1.142-1.143V50.267c0-.126.023-.251.065-.37 0-.012.011-.02.016-.031.014-.034.036-.063.054-.097a.977.977 0 01.26-.334c.068-.061.145-.113.227-.155.038-.02.076-.04.115-.056a1.11 1.11 0 01.406-.081h13.714c.138.002.274.03.402.08.04.017.077.036.114.057.083.042.16.094.229.155a.978.978 0 01.26.334c.017.034.04.063.053.097 0 .011.013.02.016.031.042.119.064.244.065.37l.004.018v10.286z" fill="url(#paint8_linear)"/><path d="M11.428 33.143v3.428H8.33a2.858 2.858 0 100 2.286h4.241c.632 0 1.143-.512 1.143-1.143v-3.428h5.714V32h-6.857c-.63 0-1.143.512-1.143 1.143z" fill="url(#paint9_linear)"/><path d="M19.428 27.43H8.33a2.858 2.858 0 100 2.285h11.098V27.43z" fill="url(#paint10_linear)"/><circle cx="32" cy="32" r="10" fill="#fff"/><mask id="a" maskUnits="userSpaceOnUse" x="21" y="21" width="22" height="22"><circle cx="32" cy="32" r="10.353" fill="#C4C4C4"/></mask><g mask="url(#a)"><path d="M32 27.313a1.877 1.877 0 00-1.875 1.875c0 1.033.84 1.875 1.875 1.875a1.877 1.877 0 001.875-1.875c0-1.034-.84-1.875-1.875-1.875z" fill="url(#paint11_linear)"/><path d="M32 34.813a3.754 3.754 0 00-3.75 3.75v3.033c1.164.457 2.426.717 3.75.717 1.324 0 2.586-.26 3.75-.717v-3.033a3.754 3.754 0 00-3.75-3.75z" fill="url(#paint12_linear)"/><path d="M44.25 40.5c-.693 0-1.335.202-1.893.532l-2.453-2.453c1.493-1.787 2.408-4.073 2.408-6.579 0-2.507-.9-4.805-2.393-6.595l2.438-2.437c.558.33 1.2.532 1.893.532A3.754 3.754 0 0048 19.75 3.754 3.754 0 0044.25 16a3.754 3.754 0 00-3.75 3.75c0 .693.202 1.335.532 1.893l-2.438 2.437A10.263 10.263 0 0032 21.688c-2.506 0-4.804.9-6.593 2.392l-2.439-2.437c.33-.558.532-1.2.532-1.893A3.754 3.754 0 0019.75 16 3.754 3.754 0 0016 19.75a3.754 3.754 0 003.75 3.75c.693 0 1.335-.202 1.893-.532l2.438 2.438A10.262 10.262 0 0021.688 32c0 2.506.915 4.792 2.408 6.58-.558-.33-3.653 1.92-4.346 1.92A3.754 3.754 0 0016 44.25 3.754 3.754 0 0019.75 48a3.754 3.754 0 003.75-3.75c0-.693-.202-1.335-.532-1.893l2.444-2.442c.307.256.627.497.963.717v-2.07A5.631 5.631 0 0132 32.938a3.754 3.754 0 01-3.75-3.75 3.754 3.754 0 013.75-3.75 3.754 3.754 0 013.75 3.75 3.754 3.754 0 01-3.75 3.75 5.631 5.631 0 015.625 5.624v2.07c.336-.22.656-.461.963-.717l2.444 2.442c-.33.558-.532 1.2-.532 1.893A3.754 3.754 0 0044.25 48 3.754 3.754 0 0048 44.25a3.754 3.754 0 00-3.75-3.75z" fill="url(#paint13_linear)"/></g><path d="M53 20l6-4.444L53 12v8z" fill="url(#paint14_linear)"/><path d="M60.864 4H48.136C41.99 4.007 37.007 9.051 37 15.276V32l7.244-3.668c.22-.111.464-.169.71-.169h15.91C67.01 28.156 71.993 23.112 72 16.887v-1.61C71.993 9.05 67.011 4.006 60.864 4zm2.515 12.587l-11.136 8.055a1.574 1.574 0 01-1.653.12 1.614 1.614 0 01-.863-1.431V8.833c0-.576.302-1.11.794-1.398a1.576 1.576 0 011.593 0l11.136 6.443a1.619 1.619 0 01.135 2.71h-.006z" fill="url(#paint15_linear)"/><defs><linearGradient id="paint0_linear" x1="32" y1="21.715" x2="32" y2="42.286" gradientUnits="userSpaceOnUse"><stop stop-color="#79E549"/><stop offset="1" stop-color="#21C020"/></linearGradient><linearGradient id="paint1_linear" x1="12.571" y1="0" x2="12.571" y2="19.865" gradientUnits="userSpaceOnUse"><stop stop-color="#7BE64A"/><stop offset="1" stop-color="#74E347"/></linearGradient><linearGradient id="paint2_linear" x1="12.571" y1="0" x2="12.571" y2="19.865" gradientUnits="userSpaceOnUse"><stop stop-color="#7BE64A"/><stop offset="1" stop-color="#74E347"/></linearGradient><linearGradient id="paint3_linear" x1="12.571" y1="0" x2="12.571" y2="19.865" gradientUnits="userSpaceOnUse"><stop stop-color="#7BE64A"/><stop offset="1" stop-color="#74E347"/></linearGradient><linearGradient id="paint4_linear" x1="12.571" y1="0" x2="12.571" y2="19.865" gradientUnits="userSpaceOnUse"><stop stop-color="#7BE64A"/><stop offset="1" stop-color="#74E347"/></linearGradient><linearGradient id="paint5_linear" x1="12.571" y1="44.135" x2="12.571" y2="64" gradientUnits="userSpaceOnUse"><stop stop-color="#33C829"/><stop offset="1" stop-color="#21C020"/></linearGradient><linearGradient id="paint6_linear" x1="51.429" y1="51.429" x2="51.429" y2="54.512" gradientUnits="userSpaceOnUse"><stop stop-color="#79E549"/><stop offset="1" stop-color="#21C020"/></linearGradient><linearGradient id="paint7_linear" x1="51.429" y1="52.726" x2="51.429" y2="59.429" gradientUnits="userSpaceOnUse"><stop stop-color="#79E549"/><stop offset="1" stop-color="#21C020"/></linearGradient><linearGradient id="paint8_linear" x1="51.429" y1="44.135" x2="51.429" y2="64" gradientUnits="userSpaceOnUse"><stop stop-color="#33C829"/><stop offset="1" stop-color="#21C020"/></linearGradient><linearGradient id="paint9_linear" x1="11.141" y1="32" x2="11.141" y2="40.572" gradientUnits="userSpaceOnUse"><stop stop-color="#79E549"/><stop offset="1" stop-color="#21C020"/></linearGradient><linearGradient id="paint10_linear" x1="11.141" y1="25.715" x2="11.141" y2="31.43" gradientUnits="userSpaceOnUse"><stop stop-color="#79E549"/><stop offset="1" stop-color="#21C020"/></linearGradient><linearGradient id="paint11_linear" x1="32" y1="27.313" x2="32" y2="31.063" gradientUnits="userSpaceOnUse"><stop stop-color="#79E549"/><stop offset="1" stop-color="#21C020"/></linearGradient><linearGradient id="paint12_linear" x1="32" y1="34.813" x2="32" y2="42.313" gradientUnits="userSpaceOnUse"><stop stop-color="#79E549"/><stop offset="1" stop-color="#21C020"/></linearGradient><linearGradient id="paint13_linear" x1="32" y1="16" x2="32" y2="48" gradientUnits="userSpaceOnUse"><stop stop-color="#79E549"/><stop offset="1" stop-color="#21C020"/></linearGradient><linearGradient id="paint14_linear" x1="56" y1="12" x2="56" y2="20" gradientUnits="userSpaceOnUse"><stop stop-color="#35D1F4"/><stop offset="1" stop-color="#86CEFD"/></linearGradient><linearGradient id="paint15_linear" x1="54.5" y1="4" x2="54.5" y2="32" gradientUnits="userSpaceOnUse"><stop stop-color="#32D1F4"/><stop offset="1" stop-color="#4CB0FD" stop-opacity=".61"/></linearGradient></defs></svg>