<svg width="300" height="332" fill="none" xmlns="http://www.w3.org/2000/svg"><mask id="a" maskUnits="userSpaceOnUse" x="34" y="0" width="266" height="294"><rect x="300" y="294" width="266" height="294" rx="10" transform="rotate(-180 300 294)" fill="#fff"/></mask><g mask="url(#a)"><path opacity=".1" d="M56.31 310.689c70.946 33.265 148.044-35.361 82.632-71.785-48.546-31.336-32.806-57.288-58.782-76.642-34.45-25.778-74.227 18.187-74.274 18.141-51.209 53.714-14.103 100.03 50.425 130.286z" fill="url(#paint0_linear)"/><path d="M108.448 373.075c78.094-5.506 114.132-103.928 39.448-103.928-57.433-3.796-55.64-34.425-87.578-38.739-42.407-5.818-57.011 52.512-57.075 52.494-20.146 72.548 34.176 95.18 105.205 90.173z" fill="url(#paint1_linear)"/></g><defs><linearGradient id="paint0_linear" x1="57.633" y1="315.74" x2="116.515" y2="134.189" gradientUnits="userSpaceOnUse"><stop stop-color="#28FEFE" stop-opacity=".3"/><stop offset="1" stop-color="#30B3C7"/></linearGradient><linearGradient id="paint1_linear" x1="111.969" y1="376.882" x2="74.616" y2="188.712" gradientUnits="userSpaceOnUse"><stop stop-color="#ECFFD5"/><stop offset="1" stop-color="#ECFFD5"/></linearGradient></defs></svg>