<svg width="62" height="75" fill="none" xmlns="http://www.w3.org/2000/svg"><path fill-rule="evenodd" clip-rule="evenodd" d="M3.585 18.953h54.01a3.589 3.589 0 013.584 3.585v35.608a3.589 3.589 0 01-3.585 3.584H3.584A3.589 3.589 0 010 58.146V22.538a3.589 3.589 0 013.585-3.585zm36.444 51.62h9.678a1.793 1.793 0 010 3.584H11.472a1.793 1.793 0 010-3.584h9.678v-5.258h18.88v5.258z" fill="url(#paint0_linear)"/><circle cx="30.848" cy="26.811" r="21.264" fill="#67D9F8" fill-opacity=".4"/><path d="M51.803 22.563c-1.472 1.653-2.914 3.433-3.92 5.888a2.979 2.979 0 01-2.772 1.87 2.995 2.995 0 01-2.786-1.877c-1.164-2.854-2.929-4.8-4.641-6.677a78.544 78.544 0 01-1.277-1.434c-.022.007-.037.015-.06.022-1.667.503-2.952 2.712-2.178 4.506.526 1.232 4.213 1 3.898 3.65-.263 2.17 2.576 2.742 3.582 2.637 1.007-.12 2.554 1.652 1.773 2.433-.774.781-2.238.811-2.013 2.824.06.586 1.833.51 1.833 1.397 0 .894-.917 1.907-.21 2.936.15.226.307.398.473.534a18.982 18.982 0 01-12.888 5.039c-10.492 0-19.024-8.532-19.024-19.024 0-3.184.789-6.188 2.178-8.832-.007 3.417 1.818 6.256 2.674 7.113 2.794 2.786 6.842 1.907 7.36 4.243.526 2.328-2.779 2.336-2.561 4.115.225 1.788 4.529 2.261 3.567 3.906-1.269 2.185.857 2.343.24 5.039-.33 1.472 1.796 1.757 2.584.638.601-.856.48-1.907 1.69-3.191 1.48-1.578 4.912-1.833 4.529-4.44-.654-4.325-4.86-5-6.692-6.015-2.08-1.141-1.57-3.883-2.02-5.19-.631-1.854-2.772.519-3.913-.563-1.878-1.772.338-4.28 1.915-4.228 3.327.105 4.348 3.342 5.573 3.23 1.194-.106 1.967-1.773 2.178-2.66.443-1.93-.752-1.066-1.232-2.072-.646-1.344 2.268-2.629 3.394-3.62.173-.15.3-.293.368-.428.339-.66-.105-1.164-.856-1.622-1.502-.91-4.243-1.63-4.37-3.05-.076-.87 1.592-1.291 3.492-1.366.315.015.623.045.939.075.157-.894.412-1.773.758-2.614-.909-.12-1.832-.18-2.771-.18-11.972 0-21.712 9.74-21.712 21.712S18.645 49 30.617 49c11.971 0 21.712-9.741 21.712-21.713 0-1.622-.18-3.206-.526-4.724zM44.09.048c-6.13.58-10.327 6.518-9.258 12.581 1.087 6.159 6.765 8.055 9.583 14.968a.747.747 0 001.385.003c3.124-7.668 9.766-9.164 9.766-17.143 0-6.111-5.243-10.998-11.476-10.41zm1.018 15.932a5.523 5.523 0 110-11.046 5.523 5.523 0 010 11.046z" fill="#50B7FC" fill-opacity=".85"/><defs><linearGradient id="paint0_linear" x1="30.033" y1="15.06" x2="30.033" y2="80.132" gradientUnits="userSpaceOnUse"><stop stop-color="#0DB817"/><stop offset="1" stop-color="#93F055"/></linearGradient></defs></svg>