<svg width="65" height="66" fill="none" xmlns="http://www.w3.org/2000/svg"><g clip-path="url(#clip0)"><path d="M62.407 44.668h-5.65v-5.304c0-.977-.843-1.768-1.884-1.768H34.029v-3.535h5.65c1.04 0 1.884-.791 1.884-1.768s-.843-1.768-1.884-1.768h-5.65v-3.536h13.184c1.04 0 1.884-.79 1.884-1.768V7.425c0-.977-.843-1.768-1.884-1.768H17.077c-1.04 0-1.883.791-1.883 1.768v17.796c0 .977.842 1.768 1.883 1.768h13.185v3.536h-5.65c-1.042 0-1.884.79-1.884 1.768 0 .977.842 1.767 1.883 1.767h5.65v3.536H9.419c-1.041 0-1.884.791-1.884 1.768v5.304h-5.65c-1.041 0-1.884.79-1.884 1.767V61.49c0 .977.843 1.768 1.883 1.768h15.069c1.04 0 1.883-.791 1.883-1.768V46.435c0-.977-.843-1.767-1.884-1.767h-5.65v-3.536h18.96v3.536h-5.65c-1.04 0-1.883.79-1.883 1.767V61.49c0 .977.842 1.768 1.883 1.768H39.68c1.04 0 1.884-.791 1.884-1.768V46.435c0-.977-.843-1.767-1.884-1.767h-5.65v-3.536h18.96v3.536h-5.65c-1.041 0-1.884.79-1.884 1.767V61.49c0 .977.843 1.768 1.884 1.768h15.068c1.04 0 1.883-.791 1.883-1.768V46.435c0-.977-.843-1.767-1.883-1.767zm-52.99 14.26c-1.04 0-1.883-.791-1.883-1.768 0-.976.843-1.767 1.884-1.767 1.04 0 1.883.79 1.883 1.767 0 .977-.843 1.768-1.883 1.768zm22.728 0c-1.04 0-1.883-.791-1.883-1.768 0-.976.843-1.767 1.883-1.767s1.884.79 1.884 1.767c0 .977-.844 1.768-1.884 1.768zm22.728 0c-1.04 0-1.884-.791-1.884-1.768 0-.976.843-1.767 1.884-1.767 1.04 0 1.883.79 1.883 1.767 0 .977-.843 1.768-1.883 1.768z" fill="url(#paint0_linear)"/><path d="M9.418 58.928c-1.04 0-1.884-.791-1.884-1.768 0-.976.843-1.767 1.884-1.767 1.04 0 1.883.79 1.883 1.767 0 .977-.843 1.768-1.883 1.768z" fill="url(#paint1_linear)"/><path d="M32.145 58.928c-1.04 0-1.883-.791-1.883-1.768 0-.976.843-1.767 1.883-1.767s1.884.79 1.884 1.767c0 .977-.844 1.768-1.884 1.768z" fill="url(#paint2_linear)"/><path d="M54.873 58.928c-1.04 0-1.884-.791-1.884-1.768 0-.976.843-1.767 1.884-1.767 1.04 0 1.883.79 1.883 1.767 0 .977-.843 1.768-1.883 1.768z" fill="url(#paint3_linear)"/></g><rect x="21.43" width="32.145" height="18.285" rx="2" fill="url(#paint4_linear)"/><path d="M40.37 8.593a.5.5 0 010 .834l-3.844 2.543a.5.5 0 01-.776-.418V6.468a.5.5 0 01.776-.417l3.844 2.543z" fill="#fff"/><defs><linearGradient id="paint0_linear" x1="32.145" y1="5.657" x2="32.145" y2="63.257" gradientUnits="userSpaceOnUse"><stop stop-color="#90EF54"/><stop offset="1" stop-color="#37CA2B"/></linearGradient><linearGradient id="paint1_linear" x1="32.145" y1="5.657" x2="32.145" y2="63.257" gradientUnits="userSpaceOnUse"><stop stop-color="#90EF54"/><stop offset="1" stop-color="#37CA2B"/></linearGradient><linearGradient id="paint2_linear" x1="32.145" y1="5.657" x2="32.145" y2="63.257" gradientUnits="userSpaceOnUse"><stop stop-color="#90EF54"/><stop offset="1" stop-color="#37CA2B"/></linearGradient><linearGradient id="paint3_linear" x1="32.145" y1="5.657" x2="32.145" y2="63.257" gradientUnits="userSpaceOnUse"><stop stop-color="#90EF54"/><stop offset="1" stop-color="#37CA2B"/></linearGradient><linearGradient id="paint4_linear" x1="37.503" y1="0" x2="37.503" y2="18.285" gradientUnits="userSpaceOnUse"><stop stop-color="#4CB0FD" stop-opacity=".53"/><stop offset="1" stop-color="#32D1F4"/></linearGradient><clipPath id="clip0"><path fill="#fff" transform="translate(0 5.657)" d="M0 0h64.29v60.342H0z"/></clipPath></defs></svg>