<svg width="193" height="200" fill="none" xmlns="http://www.w3.org/2000/svg"><path opacity=".1" d="M56.31 178.689c70.946 33.265 148.044-35.361 82.632-71.785-48.546-31.336-32.806-57.288-58.782-76.642C45.71 4.484 5.933 48.449 5.886 48.402-45.323 102.118-8.217 148.434 56.31 178.69z" fill="url(#paint0_linear)"/><path d="M108.448 241.074c78.094-5.505 114.132-103.927 39.448-103.927-57.433-3.796-55.64-34.425-87.578-38.739-42.407-5.819-57.011 52.512-57.075 52.494-20.146 72.547 34.176 95.18 105.205 90.172z" fill="url(#paint1_linear)"/><defs><linearGradient id="paint0_linear" x1="57.633" y1="183.74" x2="116.515" y2="2.189" gradientUnits="userSpaceOnUse"><stop stop-color="#28FEFE" stop-opacity=".3"/><stop offset="1" stop-color="#30B3C7"/></linearGradient><linearGradient id="paint1_linear" x1="111.969" y1="244.882" x2="74.615" y2="56.712" gradientUnits="userSpaceOnUse"><stop stop-color="#ECFFD5"/><stop offset="1" stop-color="#ECFFD5"/></linearGradient></defs></svg>