<svg width="1440" height="672" fill="none" xmlns="http://www.w3.org/2000/svg"><path opacity=".7" d="M368.192 550.707c-60.321-4.892-139.269 16.583-176.397 34.175-45.427 28.629 120.921 89.979 158.193 60.13 44.362-35.526 221.471-15.574 194.167-47.153-27.305-31.579-106.618-41.528-175.963-47.152z" fill="#EBFAFC"/><path d="M351.987 524.846C221.494 524.846 62.957 622.949 0 672V59h1440v567.941c-59.9-14.639-200.78-45.743-285.02-53.044-105.31-9.125-293.882 30.377-451.578 19.963-95.008-6.274-188.299-69.014-351.415-69.014z" fill="url(#paint0_linear)"/><path d="M1339.27 411.469c2.78-52.681-79.28-111.758-91.51-44.803-8.01 56.686-34.85 52.701-41.24 84.064-8.57 41.638 45.17 65.515 45.15 65.576 62.29 25.209 84.38-43.628 87.6-104.837z" fill="url(#paint1_linear)"/><path d="M154.166 202v-14.122h14.536V202h6.578v-32.2h-6.578v12.052h-14.536V169.8h-6.624V202h6.624zm34.537-6.9c-1.196-1.242-1.794-2.76-1.794-4.6 0-1.84.598-3.358 1.794-4.554 1.196-1.242 2.714-1.84 4.554-1.84 1.84 0 3.358.598 4.554 1.84 1.196 1.196 1.794 2.714 1.794 4.554 0 1.84-.598 3.358-1.794 4.6-1.196 1.242-2.714 1.84-4.554 1.84-1.84 0-3.358-.598-4.554-1.84zm-8.188-4.6c0 3.45 1.196 6.302 3.588 8.648 2.392 2.3 5.428 3.45 9.154 3.45s6.762-1.15 9.154-3.45c2.392-2.346 3.588-5.198 3.588-8.648 0-3.358-1.196-6.21-3.588-8.556-2.392-2.346-5.428-3.496-9.154-3.496s-6.762 1.15-9.154 3.496c-2.392 2.3-3.588 5.152-3.588 8.556zm38.732 12.098c3.082 0 5.566-.644 7.452-1.978 1.886-1.334 2.806-3.036 2.806-5.198 0-4.002-2.53-6.118-7.498-7.268l-2.438-.506c-.552-.184-1.472-.414-1.978-.598-.69-.414-1.288-.736-1.288-1.518 0-1.242 1.242-1.84 3.68-1.84 2.806 0 5.566.782 8.326 2.392v-5.52c-2.254-1.426-5.152-2.116-8.602-2.116-6.302 0-10.12 2.668-10.12 7.038 0 4.048 2.162 5.704 7.452 7.13.414.138 1.058.276 1.84.506l1.702.414c.368.092.782.23 1.196.414.874.368 1.15.828 1.15 1.426 0 1.288-1.334 1.932-3.956 1.932-3.726 0-7.36-1.288-9.384-2.622v5.75c2.346 1.426 5.566 2.162 9.66 2.162zm17.237-7.728c0 5.152 2.484 7.728 7.498 7.728 2.346 0 4.14-.414 5.474-1.242v-5.382c-1.104.552-2.208.828-3.358.828-2.208 0-3.128-.966-3.128-3.22v-9.108h6.532v-5.428h-6.532v-6.302h-6.486v6.302h-4.508v5.428h4.508v10.396zm46.059 7.13v-14.582l12.42-17.618h-7.59l-8.05 11.454-8.004-11.454h-7.82l12.466 17.756V202h6.578zm17.117-6.9c-1.196-1.242-1.794-2.76-1.794-4.6 0-1.84.598-3.358 1.794-4.554 1.196-1.242 2.714-1.84 4.554-1.84 1.84 0 3.358.598 4.554 1.84 1.196 1.196 1.794 2.714 1.794 4.554 0 1.84-.598 3.358-1.794 4.6-1.196 1.242-2.714 1.84-4.554 1.84-1.84 0-3.358-.598-4.554-1.84zm-8.188-4.6c0 3.45 1.196 6.302 3.588 8.648 2.392 2.3 5.428 3.45 9.154 3.45s6.762-1.15 9.154-3.45c2.392-2.346 3.588-5.198 3.588-8.648 0-3.358-1.196-6.21-3.588-8.556-2.392-2.346-5.428-3.496-9.154-3.496s-6.762 1.15-9.154 3.496c-2.392 2.3-3.588 5.152-3.588 8.556zm45.908 3.174c-1.104 1.702-3.174 2.99-5.198 2.99-2.392 0-4.37-1.334-4.37-4.876v-12.742h-6.486v14.076c0 5.888 3.036 9.476 8.372 9.476 3.082 0 5.612-1.104 7.682-3.358V202h6.486v-22.954h-6.486v14.628zM356.707 202v-13.386c.92-2.07 3.588-4.002 6.716-4.002a8.46 8.46 0 012.024.23v-6.348c-.184-.046-.414-.046-.736-.046-1.702 0-3.312.46-4.784 1.334-1.472.874-2.53 1.932-3.22 3.128v-3.864h-6.486V202h6.486zm49.253 0v-5.934h-17.526v-8.28h13.708v-5.842h-13.708v-6.21h17.02V169.8H381.81V202h24.15zm17.301.184l9.982-23.138h-6.762l-6.026 14.904-6.072-14.904h-6.992l9.982 23.138h5.888zm24.569.414c3.772 0 6.67-.782 8.74-2.346v-5.198c-2.346 1.334-4.784 2.024-7.36 2.024-4.048 0-6.992-1.656-7.682-4.784h16.468v-1.702c0-3.404-1.012-6.256-2.99-8.602-1.978-2.346-4.6-3.542-7.958-3.542-3.542 0-6.44 1.15-8.648 3.496-2.208 2.3-3.312 5.152-3.312 8.556 0 3.634 1.242 6.578 3.68 8.786 2.438 2.208 5.474 3.312 9.062 3.312zm-6.302-14.444c.322-2.714 2.3-4.6 5.244-4.6 2.898 0 4.692 2.07 4.83 4.6h-10.074zm27.933-.782c1.104-1.702 3.174-2.99 5.198-2.99 2.392 0 4.37 1.334 4.37 4.876V202h6.486v-14.076c0-5.888-3.036-9.476-8.372-9.476-3.082 0-5.612 1.104-7.682 3.358v-2.76h-6.486V202h6.486v-14.628zm24.111 7.498c0 5.152 2.484 7.728 7.498 7.728 2.346 0 4.14-.414 5.474-1.242v-5.382c-1.104.552-2.208.828-3.358.828-2.208 0-3.128-.966-3.128-3.22v-9.108h6.532v-5.428h-6.532v-6.302h-6.486v6.302h-4.508v5.428h4.508v10.396zm26.607 7.728c3.082 0 5.566-.644 7.452-1.978 1.886-1.334 2.806-3.036 2.806-5.198 0-4.002-2.53-6.118-7.498-7.268l-2.438-.506c-.552-.184-1.472-.414-1.978-.598-.69-.414-1.288-.736-1.288-1.518 0-1.242 1.242-1.84 3.68-1.84 2.806 0 5.566.782 8.326 2.392v-5.52c-2.254-1.426-5.152-2.116-8.602-2.116-6.302 0-10.12 2.668-10.12 7.038 0 4.048 2.162 5.704 7.452 7.13.414.138 1.058.276 1.84.506l1.702.414c.368.092.782.23 1.196.414.874.368 1.15.828 1.15 1.426 0 1.288-1.334 1.932-3.956 1.932-3.726 0-7.36-1.288-9.384-2.622v5.75c2.346 1.426 5.566 2.162 9.66 2.162z" fill="#20B7D9"/><path d="M154.166 262v-13.892h13.11v-5.842h-13.11v-6.532h16.974V229.8h-23.598V262h6.624zm26.896 0v-13.386c.92-2.07 3.588-4.002 6.716-4.002a8.46 8.46 0 012.024.23v-6.348c-.184-.046-.414-.046-.736-.046-1.702 0-3.312.46-4.784 1.334-1.472.874-2.53 1.932-3.22 3.128v-3.864h-6.486V262h6.486zm19.636-6.9c-1.196-1.242-1.794-2.76-1.794-4.6 0-1.84.598-3.358 1.794-4.554 1.196-1.242 2.714-1.84 4.554-1.84 1.84 0 3.358.598 4.554 1.84 1.196 1.196 1.794 2.714 1.794 4.554 0 1.84-.598 3.358-1.794 4.6-1.196 1.242-2.714 1.84-4.554 1.84-1.84 0-3.358-.598-4.554-1.84zm-8.188-4.6c0 3.45 1.196 6.302 3.588 8.648 2.392 2.3 5.428 3.45 9.154 3.45s6.762-1.15 9.154-3.45c2.392-2.346 3.588-5.198 3.588-8.648 0-3.358-1.196-6.21-3.588-8.556-2.392-2.346-5.428-3.496-9.154-3.496s-6.762 1.15-9.154 3.496c-2.392 2.3-3.588 5.152-3.588 8.556zm36.754 11.5v-14.582c.92-1.702 2.944-3.036 4.83-3.036 2.53 0 3.818 1.564 3.818 4.738V262h6.486v-14.49c.874-1.794 2.806-3.128 4.784-3.128 2.53 0 3.818 1.564 3.818 4.738V262h6.486v-14.352c0-6.026-3.266-9.2-8.188-9.2-3.312 0-6.394 1.656-7.912 3.91-.966-2.162-3.68-3.91-7.13-3.91-2.944 0-5.29 1.15-6.992 3.404v-2.806h-6.486V262h6.486zm52.377 0l3.174-7.452h13.616l3.174 7.452h7.038l-13.8-32.384h-6.348L274.695 262h6.946zm9.982-24.104l4.692 11.178h-9.43l4.738-11.178zm27.394 9.476c1.104-1.702 3.174-2.99 5.198-2.99 2.392 0 4.37 1.334 4.37 4.876V262h6.486v-14.076c0-5.888-3.036-9.476-8.372-9.476-3.082 0-5.612 1.104-7.682 3.358v-2.76h-6.486V262h6.486v-14.628zm24.94 24.104c4.094 0 7.13-2.346 9.154-7.084l10.626-25.346h-6.854l-5.75 15.088-6.072-15.088h-6.992l9.89 22.172c-1.334 3.174-2.76 4.6-5.106 4.6a7.085 7.085 0 01-3.496-.92v5.658c1.15.598 2.714.92 4.6.92zm34.643-9.292l4.738-13.846 4.784 13.846h5.612l7.866-23.138h-6.44l-4.462 13.662-4.646-13.754h-5.198l-4.508 13.754-4.554-13.662h-6.486l7.774 23.138h5.52zm33.54-14.812c1.104-1.702 3.174-2.99 5.198-2.99 2.392 0 4.37 1.334 4.37 4.876V262h6.486v-14.076c0-5.888-3.036-9.476-8.372-9.476-3.036 0-5.612 1.15-7.682 3.404V229.8h-6.486V262h6.486v-14.628zm33.174 15.226c3.772 0 6.67-.782 8.74-2.346v-5.198c-2.346 1.334-4.784 2.024-7.36 2.024-4.048 0-6.992-1.656-7.682-4.784h16.468v-1.702c0-3.404-1.012-6.256-2.99-8.602-1.978-2.346-4.6-3.542-7.958-3.542-3.542 0-6.44 1.15-8.648 3.496-2.208 2.3-3.312 5.152-3.312 8.556 0 3.634 1.242 6.578 3.68 8.786 2.438 2.208 5.474 3.312 9.062 3.312zm-6.302-14.444c.322-2.714 2.3-4.6 5.244-4.6 2.898 0 4.692 2.07 4.83 4.6h-10.074zM466.945 262v-13.386c.92-2.07 3.588-4.002 6.716-4.002a8.46 8.46 0 012.024.23v-6.348c-.184-.046-.414-.046-.736-.046-1.702 0-3.312.46-4.784 1.334-1.472.874-2.53 1.932-3.22 3.128v-3.864h-6.486V262h6.486zm24.189.598c3.772 0 6.67-.782 8.74-2.346v-5.198c-2.346 1.334-4.784 2.024-7.36 2.024-4.048 0-6.992-1.656-7.682-4.784H501.3v-1.702c0-3.404-1.012-6.256-2.99-8.602-1.978-2.346-4.6-3.542-7.958-3.542-3.542 0-6.44 1.15-8.648 3.496-2.208 2.3-3.312 5.152-3.312 8.556 0 3.634 1.242 6.578 3.68 8.786 2.438 2.208 5.474 3.312 9.062 3.312zm-6.302-14.444c.322-2.714 2.3-4.6 5.244-4.6 2.898 0 4.692 2.07 4.83 4.6h-10.074zM154.35 322v-32.2h-6.578V322h6.578zm13.415-14.628c1.104-1.702 3.174-2.99 5.198-2.99 2.392 0 4.37 1.334 4.37 4.876V322h6.486v-14.076c0-5.888-3.036-9.476-8.372-9.476-3.082 0-5.612 1.104-7.682 3.358v-2.76h-6.486V322h6.486v-14.628zm29.635-11.638h10.166V322h6.624v-26.266h10.212V289.8H197.4v5.934zm38.063 11.638c1.104-1.702 3.174-2.99 5.198-2.99 2.392 0 4.37 1.334 4.37 4.876V322h6.486v-14.076c0-5.888-3.036-9.476-8.372-9.476-3.036 0-5.612 1.15-7.682 3.404V289.8h-6.486V322h6.486v-14.628zm33.173 15.226c3.772 0 6.67-.782 8.74-2.346v-5.198c-2.346 1.334-4.784 2.024-7.36 2.024-4.048 0-6.992-1.656-7.682-4.784h16.468v-1.702c0-3.404-1.012-6.256-2.99-8.602-1.978-2.346-4.6-3.542-7.958-3.542-3.542 0-6.44 1.15-8.648 3.496-2.208 2.3-3.312 5.152-3.312 8.556 0 3.634 1.242 6.578 3.68 8.786 2.438 2.208 5.474 3.312 9.062 3.312zm-6.302-14.444c.322-2.714 2.3-4.6 5.244-4.6 2.898 0 4.692 2.07 4.83 4.6h-10.074zm47.661 14.03l7.176-21.482 7.038 21.482h5.842l10.856-32.384h-7.222l-6.624 21.712-7.314-21.804h-5.152l-7.268 21.804-6.624-21.712h-7.36l10.81 32.384h5.842zm38.451-7.084c-1.196-1.242-1.794-2.76-1.794-4.6 0-1.84.598-3.358 1.794-4.554 1.196-1.242 2.714-1.84 4.554-1.84 1.84 0 3.358.598 4.554 1.84 1.196 1.196 1.794 2.714 1.794 4.554 0 1.84-.598 3.358-1.794 4.6-1.196 1.242-2.714 1.84-4.554 1.84-1.84 0-3.358-.598-4.554-1.84zm-8.188-4.6c0 3.45 1.196 6.302 3.588 8.648 2.392 2.3 5.428 3.45 9.154 3.45s6.762-1.15 9.154-3.45c2.392-2.346 3.588-5.198 3.588-8.648 0-3.358-1.196-6.21-3.588-8.556-2.392-2.346-5.428-3.496-9.154-3.496s-6.762 1.15-9.154 3.496c-2.392 2.3-3.588 5.152-3.588 8.556zm36.754 11.5v-13.386c.92-2.07 3.588-4.002 6.716-4.002a8.46 8.46 0 012.024.23v-6.348c-.184-.046-.414-.046-.736-.046-1.702 0-3.312.46-4.784 1.334-1.472.874-2.53 1.932-3.22 3.128v-3.864h-6.486V322h6.486zm19.083.598c1.61 0 2.99-.276 4.094-.828v-5.336c-.46.276-1.012.414-1.656.414-1.38 0-2.07-.782-2.07-2.3V289.8h-6.486v26.45c0 4.6 2.576 6.348 6.118 6.348zm17.818 0c3.312 0 5.842-1.15 7.544-3.404V322h6.486v-32.2h-6.486v12.052c-1.794-2.254-4.278-3.404-7.544-3.404-3.128 0-5.704 1.15-7.774 3.496-2.024 2.3-3.036 5.152-3.036 8.556 0 3.45 1.012 6.302 3.036 8.648 2.07 2.3 4.646 3.45 7.774 3.45zm1.84-5.658c-1.794 0-3.312-.598-4.462-1.84s-1.748-2.76-1.748-4.6c0-1.794.598-3.312 1.748-4.554 1.15-1.242 2.668-1.84 4.462-1.84a6.452 6.452 0 015.704 3.404v5.98c-1.058 1.978-3.174 3.45-5.704 3.45zm-264.227 63.276c-1.884 0-3.444-.444-4.68-1.332v-1.62c.48.42 1.14.792 1.98 1.116a7.536 7.536 0 002.61.468c.96 0 1.752-.204 2.376-.612.624-.408.936-.96.936-1.656 0-.3-.066-.564-.198-.792a2.051 2.051 0 00-.432-.594c-.156-.156-.414-.306-.774-.45a8.864 8.864 0 00-.918-.36 26.553 26.553 0 00-1.152-.342 25.922 25.922 0 01-1.656-.504 8.36 8.36 0 01-1.278-.63c-.432-.276-.75-.612-.954-1.008-.204-.396-.306-.87-.306-1.422 0-.96.39-1.746 1.17-2.358.78-.624 1.86-.936 3.24-.936 1.512 0 2.826.348 3.942 1.044v1.494c-1.236-.78-2.538-1.17-3.906-1.17-.984 0-1.722.186-2.214.558-.492.372-.738.84-.738 1.404 0 .156.018.306.054.45.036.132.096.258.18.378.096.108.18.204.252.288.072.084.198.174.378.27.18.084.318.156.414.216.096.048.264.114.504.198.252.072.426.126.522.162.108.024.306.078.594.162.3.084.498.138.594.162.516.156.924.294 1.224.414.312.108.678.27 1.098.486.42.216.744.444.972.684.24.24.444.552.612.936.18.372.27.786.27 1.242 0 1.14-.456 2.034-1.368 2.682-.9.648-2.016.972-3.348.972zm11.447 0c-1.356 0-2.496-.426-3.42-1.278-.924-.864-1.386-1.962-1.386-3.294 0-1.32.408-2.412 1.224-3.276.828-.876 1.902-1.314 3.222-1.314.684 0 1.296.144 1.836.432.552.276.984.642 1.296 1.098.312.456.546.942.702 1.458a5.03 5.03 0 01.252 1.566v.396h-7.074c.096.9.468 1.614 1.116 2.142.66.528 1.5.792 2.52.792a5.2 5.2 0 002.808-.81v1.26c-.732.552-1.764.828-3.096.828zm-3.33-5.364h5.616c-.036-.636-.282-1.212-.738-1.728-.444-.528-1.104-.792-1.98-.792-.84 0-1.524.252-2.052.756-.516.492-.798 1.08-.846 1.764zm11.489 5.364c-.576 0-1.062-.168-1.458-.504-.396-.336-.594-.894-.594-1.674V367.4h1.44v10.278c0 .816.366 1.224 1.098 1.224.312 0 .588-.072.828-.216v1.278c-.324.168-.762.252-1.314.252zm5.309 0c-.576 0-1.062-.168-1.458-.504-.396-.336-.594-.894-.594-1.674V367.4h1.44v10.278c0 .816.366 1.224 1.098 1.224.312 0 .588-.072.828-.216v1.278c-.324.168-.762.252-1.314.252zm11.477 0c-.828 0-1.452-.24-1.872-.72-.42-.48-.63-1.128-.63-1.944v-5.04H183.4v-1.242h2.016v-2.646h1.44v2.646h2.988v1.242h-2.988v4.626c0 .648.114 1.104.342 1.368.228.264.606.396 1.134.396.564 0 1.032-.12 1.404-.36v1.278c-.408.264-1.014.396-1.818.396zm4.458-.216v-8.73h1.422V380h-1.422zm.018-10.98a.989.989 0 01-.27-.702.955.955 0 01.972-.972c.276 0 .504.096.684.288.192.18.288.408.288.684a.955.955 0 01-.972.972.989.989 0 01-.702-.27zm8.65 11.196c-1.32 0-2.43-.438-3.33-1.314-.888-.876-1.332-1.968-1.332-3.276 0-1.32.444-2.412 1.332-3.276.9-.864 2.016-1.296 3.348-1.296 1.008 0 1.884.21 2.628.63v1.296a4.884 4.884 0 00-2.43-.648c-.96 0-1.77.312-2.43.936-.66.624-.99 1.416-.99 2.376 0 .948.33 1.734.99 2.358.66.624 1.47.936 2.43.936.984 0 1.848-.246 2.592-.738v1.278c-.816.492-1.752.738-2.808.738zm6.829-12.816v7.416l3.996-3.546h1.908l-4.5 3.942 5.148 4.788h-2.016l-4.536-4.23V380h-1.44v-12.6h1.44zm12.088 12.816c-1.356 0-2.496-.426-3.42-1.278-.924-.864-1.386-1.962-1.386-3.294 0-1.32.408-2.412 1.224-3.276.828-.876 1.902-1.314 3.222-1.314.684 0 1.296.144 1.836.432.552.276.984.642 1.296 1.098.312.456.546.942.702 1.458a5.03 5.03 0 01.252 1.566v.396h-7.074c.096.9.468 1.614 1.116 2.142.66.528 1.5.792 2.52.792a5.2 5.2 0 002.808-.81v1.26c-.732.552-1.764.828-3.096.828zm-3.33-5.364h5.616c-.036-.636-.282-1.212-.738-1.728-.444-.528-1.104-.792-1.98-.792-.84 0-1.524.252-2.052.756-.516.492-.798 1.08-.846 1.764zm12.929 5.364c-.828 0-1.452-.24-1.872-.72-.42-.48-.63-1.128-.63-1.944v-5.04h-2.016v-1.242h2.016v-2.646h1.44v2.646h2.988v1.242h-2.988v4.626c0 .648.114 1.104.342 1.368.228.264.606.396 1.134.396.564 0 1.032-.12 1.404-.36v1.278c-.408.264-1.014.396-1.818.396zm7.266 0a8.652 8.652 0 01-2.106-.252c-.66-.18-1.164-.396-1.512-.648v-1.44c.348.264.846.51 1.494.738.66.216 1.35.324 2.07.324.72 0 1.284-.114 1.692-.342.408-.228.612-.552.612-.972a.924.924 0 00-.072-.378.52.52 0 00-.216-.27 1.768 1.768 0 00-.306-.216 1.557 1.557 0 00-.432-.162 6.677 6.677 0 00-.486-.144 34.832 34.832 0 00-1.152-.288c-1.032-.264-1.8-.582-2.304-.954-.492-.384-.738-.954-.738-1.71s.306-1.35.918-1.782c.624-.444 1.5-.666 2.628-.666 1.308 0 2.37.258 3.186.774v1.386a5.886 5.886 0 00-3.132-.882c-1.428 0-2.142.402-2.142 1.206 0 .468.354.828 1.062 1.08.24.084.75.216 1.53.396.984.216 1.746.522 2.286.918.552.396.828.972.828 1.728 0 .792-.348 1.416-1.044 1.872-.684.456-1.572.684-2.664.684zm13.868-1.278a3.66 3.66 0 001.692-.396c.528-.264.942-.588 1.242-.972v-1.188a4.85 4.85 0 00-2.736-.81c-.768 0-1.374.15-1.818.45-.432.288-.648.696-.648 1.224 0 .564.216.99.648 1.278.432.276.972.414 1.62.414zm-.396 1.278c-.924 0-1.71-.258-2.358-.774-.636-.516-.954-1.224-.954-2.124 0-.9.336-1.602 1.008-2.106.684-.516 1.536-.774 2.556-.774 1.188 0 2.214.27 3.078.81v-.792c0-1.416-.936-2.124-2.808-2.124-1.02 0-1.968.288-2.844.864v-1.35c.876-.528 1.926-.792 3.15-.792 1.176 0 2.124.276 2.844.828.72.552 1.08 1.362 1.08 2.43v3.438c0 .756.27 1.134.81 1.134.216 0 .384-.042.504-.126v1.116c-.216.144-.522.216-.918.216-.924 0-1.482-.456-1.674-1.368-.888.996-2.046 1.494-3.474 1.494zm9.572-.216h-1.44v-8.73h1.44v1.314c.348-.432.816-.792 1.404-1.08.6-.3 1.272-.45 2.016-.45 1.092 0 1.914.318 2.466.954.564.636.846 1.53.846 2.682V380h-1.44v-5.004c0-.516-.078-.954-.234-1.314-.144-.372-.342-.642-.594-.81a2.709 2.709 0 00-.756-.36 2.748 2.748 0 00-.792-.108c-.564 0-1.128.18-1.692.54-.564.348-.972.75-1.224 1.206V380zm16.601-12.6h1.44V380h-1.44v-1.35c-.78 1.044-1.884 1.566-3.312 1.566-1.272 0-2.316-.444-3.132-1.332-.816-.9-1.224-1.98-1.224-3.24 0-1.272.408-2.352 1.224-3.24.816-.9 1.86-1.35 3.132-1.35 1.404 0 2.508.522 3.312 1.566v-5.22zm0 9.648v-2.826a3.136 3.136 0 00-1.188-1.35 3.09 3.09 0 00-1.782-.54c-.936 0-1.71.318-2.322.954-.612.636-.918 1.422-.918 2.358 0 .936.306 1.722.918 2.358.612.624 1.386.936 2.322.936.636 0 1.224-.18 1.764-.54.552-.36.954-.81 1.206-1.35zm12.175 3.168a8.652 8.652 0 01-2.106-.252c-.66-.18-1.164-.396-1.512-.648v-1.44c.348.264.846.51 1.494.738.66.216 1.35.324 2.07.324.72 0 1.284-.114 1.692-.342.408-.228.612-.552.612-.972a.924.924 0 00-.072-.378.52.52 0 00-.216-.27 1.768 1.768 0 00-.306-.216 1.557 1.557 0 00-.432-.162 6.677 6.677 0 00-.486-.144 34.832 34.832 0 00-1.152-.288c-1.032-.264-1.8-.582-2.304-.954-.492-.384-.738-.954-.738-1.71s.306-1.35.918-1.782c.624-.444 1.5-.666 2.628-.666 1.308 0 2.37.258 3.186.774v1.386a5.886 5.886 0 00-3.132-.882c-1.428 0-2.142.402-2.142 1.206 0 .468.354.828 1.062 1.08.24.084.75.216 1.53.396.984.216 1.746.522 2.286.918.552.396.828.972.828 1.728 0 .792-.348 1.416-1.044 1.872-.684.456-1.572.684-2.664.684zm9.539 0c-.828 0-1.452-.24-1.872-.72-.42-.48-.63-1.128-.63-1.944v-5.04h-2.016v-1.242h2.016v-2.646h1.44v2.646h2.988v1.242h-2.988v4.626c0 .648.114 1.104.342 1.368.228.264.606.396 1.134.396.564 0 1.032-.12 1.404-.36v1.278c-.408.264-1.014.396-1.818.396zm4.26-.216v-8.73h1.44v1.638a3.688 3.688 0 011.476-1.368 4.202 4.202 0 011.962-.486v1.44a4.352 4.352 0 00-2.07.576 3.278 3.278 0 00-1.368 1.458V380h-1.44zm10.926.216c-1.356 0-2.496-.426-3.42-1.278-.924-.864-1.386-1.962-1.386-3.294 0-1.32.408-2.412 1.224-3.276.828-.876 1.902-1.314 3.222-1.314.684 0 1.296.144 1.836.432.552.276.984.642 1.296 1.098.312.456.546.942.702 1.458a5.03 5.03 0 01.252 1.566v.396h-7.074c.096.9.468 1.614 1.116 2.142.66.528 1.5.792 2.52.792a5.2 5.2 0 002.808-.81v1.26c-.732.552-1.764.828-3.096.828zm-3.33-5.364h5.616c-.036-.636-.282-1.212-.738-1.728-.444-.528-1.104-.792-1.98-.792-.84 0-1.524.252-2.052.756-.516.492-.798 1.08-.846 1.764zm12.407 4.086a3.66 3.66 0 001.692-.396c.528-.264.942-.588 1.242-.972v-1.188a4.85 4.85 0 00-2.736-.81c-.768 0-1.374.15-1.818.45-.432.288-.648.696-.648 1.224 0 .564.216.99.648 1.278.432.276.972.414 1.62.414zm-.396 1.278c-.924 0-1.71-.258-2.358-.774-.636-.516-.954-1.224-.954-2.124 0-.9.336-1.602 1.008-2.106.684-.516 1.536-.774 2.556-.774 1.188 0 2.214.27 3.078.81v-.792c0-1.416-.936-2.124-2.808-2.124-1.02 0-1.968.288-2.844.864v-1.35c.876-.528 1.926-.792 3.15-.792 1.176 0 2.124.276 2.844.828.72.552 1.08 1.362 1.08 2.43v3.438c0 .756.27 1.134.81 1.134.216 0 .384-.042.504-.126v1.116c-.216.144-.522.216-.918.216-.924 0-1.482-.456-1.674-1.368-.888.996-2.046 1.494-3.474 1.494zm8.131-.216v-8.73h1.44v1.278c.684-.996 1.71-1.494 3.078-1.494.72 0 1.32.15 1.8.45.48.288.81.702.99 1.242.324-.492.774-.894 1.35-1.206.576-.324 1.236-.486 1.98-.486.972 0 1.728.3 2.268.9.54.6.81 1.47.81 2.61V380h-1.422v-5.112c0-1.656-.696-2.484-2.088-2.484-.528 0-1.044.18-1.548.54-.504.36-.87.774-1.098 1.242v.504c.012.204.018.372.018.504V380h-1.422v-5.112c0-.516-.072-.948-.216-1.296-.132-.36-.312-.618-.54-.774a2.264 2.264 0 00-.666-.324 2.352 2.352 0 00-.666-.09c-.516 0-1.02.168-1.512.504a3.383 3.383 0 00-1.116 1.224V380h-1.44zm21.846 3.672c-.684 0-1.158-.084-1.422-.252v-1.314c.348.192.75.288 1.206.288.54 0 .99-.216 1.35-.648.372-.42.756-1.11 1.152-2.07l-3.87-8.406h1.584l3.006 6.732 2.898-6.732h1.548l-4.284 9.702c-.408.9-.864 1.572-1.368 2.016-.492.456-1.092.684-1.8.684zm9.935-11.268c.888-.9 2.022-1.35 3.402-1.35 1.38 0 2.514.45 3.402 1.35.888.9 1.332 1.98 1.332 3.24 0 1.26-.444 2.34-1.332 3.24-.888.888-2.022 1.332-3.402 1.332-1.38 0-2.514-.444-3.402-1.332-.888-.9-1.332-1.98-1.332-3.24 0-1.26.444-2.34 1.332-3.24zm1.062 5.598c.624.624 1.404.936 2.34.936.936 0 1.716-.312 2.34-.936.624-.636.936-1.422.936-2.358 0-.936-.312-1.722-.936-2.358-.624-.636-1.404-.954-2.34-.954-.936 0-1.716.318-2.34.954-.624.636-.936 1.422-.936 2.358 0 .936.312 1.722.936 2.358zm15.985-6.732h1.44V380h-1.44v-1.314c-.9 1.02-2.04 1.53-3.42 1.53-1.092 0-1.92-.318-2.484-.954-.552-.636-.828-1.53-.828-2.682v-5.31h1.44v5.004c0 1.728.792 2.592 2.376 2.592.576 0 1.134-.174 1.674-.522.54-.348.954-.756 1.242-1.224v-5.85zm4.452 8.73v-8.73h1.44v1.638a3.688 3.688 0 011.476-1.368 4.202 4.202 0 011.962-.486v1.44a4.352 4.352 0 00-2.07.576 3.278 3.278 0 00-1.368 1.458V380h-1.44zm12.918 0h-1.44v-8.73h1.44v1.314c.348-.432.816-.792 1.404-1.08.6-.3 1.272-.45 2.016-.45 1.092 0 1.914.318 2.466.954.564.636.846 1.53.846 2.682V380h-1.44v-5.004c0-.516-.078-.954-.234-1.314-.144-.372-.342-.642-.594-.81a2.709 2.709 0 00-.756-.36 2.748 2.748 0 00-.792-.108c-.564 0-1.128.18-1.692.54-.564.348-.972.75-1.224 1.206V380zm13.74.216c-1.356 0-2.496-.426-3.42-1.278-.924-.864-1.386-1.962-1.386-3.294 0-1.32.408-2.412 1.224-3.276.828-.876 1.902-1.314 3.222-1.314.684 0 1.296.144 1.836.432.552.276.984.642 1.296 1.098.312.456.546.942.702 1.458a5.03 5.03 0 01.252 1.566v.396h-7.074c.096.9.468 1.614 1.116 2.142.66.528 1.5.792 2.52.792a5.2 5.2 0 002.808-.81v1.26c-.732.552-1.764.828-3.096.828zm-3.33-5.364h5.616c-.036-.636-.282-1.212-.738-1.728-.444-.528-1.104-.792-1.98-.792-.84 0-1.524.252-2.052.756-.516.492-.798 1.08-.846 1.764zm8.413 5.148l3.636-4.59-3.204-4.14h1.674l2.394 3.024 2.412-3.024h1.656l-3.24 4.104 3.636 4.626h-1.674l-2.808-3.546-2.844 3.546h-1.638zm14.448.216c-.828 0-1.452-.24-1.872-.72-.42-.48-.63-1.128-.63-1.944v-5.04h-2.016v-1.242h2.016v-2.646h1.44v2.646h2.988v1.242h-2.988v4.626c0 .648.114 1.104.342 1.368.228.264.606.396 1.134.396.564 0 1.032-.12 1.404-.36v1.278c-.408.264-1.014.396-1.818.396zm13.164 0c-1.356 0-2.496-.426-3.42-1.278-.924-.864-1.386-1.962-1.386-3.294 0-1.32.408-2.412 1.224-3.276.828-.876 1.902-1.314 3.222-1.314.684 0 1.296.144 1.836.432.552.276.984.642 1.296 1.098.312.456.546.942.702 1.458a5.03 5.03 0 01.252 1.566v.396h-7.074c.096.9.468 1.614 1.116 2.142.66.528 1.5.792 2.52.792a5.2 5.2 0 002.808-.81v1.26c-.732.552-1.764.828-3.096.828zm-3.33-5.364h5.616c-.036-.636-.282-1.212-.738-1.728-.444-.528-1.104-.792-1.98-.792-.84 0-1.524.252-2.052.756-.516.492-.798 1.08-.846 1.764zm12.408 5.202l-3.996-8.784h1.602l3.078 6.894 3.078-6.894h1.53l-3.996 8.784h-1.296zm11.278.162c-1.356 0-2.496-.426-3.42-1.278-.924-.864-1.386-1.962-1.386-3.294 0-1.32.408-2.412 1.224-3.276.828-.876 1.902-1.314 3.222-1.314.684 0 1.296.144 1.836.432.552.276.984.642 1.296 1.098.312.456.546.942.702 1.458a5.03 5.03 0 01.252 1.566v.396h-7.074c.096.9.468 1.614 1.116 2.142.66.528 1.5.792 2.52.792a5.2 5.2 0 002.808-.81v1.26c-.732.552-1.764.828-3.096.828zm-3.33-5.364h5.616c-.036-.636-.282-1.212-.738-1.728-.444-.528-1.104-.792-1.98-.792-.84 0-1.524.252-2.052.756-.516.492-.798 1.08-.846 1.764zM470.719 380h-1.44v-8.73h1.44v1.314c.348-.432.816-.792 1.404-1.08.6-.3 1.272-.45 2.016-.45 1.092 0 1.914.318 2.466.954.564.636.846 1.53.846 2.682V380h-1.44v-5.004c0-.516-.078-.954-.234-1.314-.144-.372-.342-.642-.594-.81a2.709 2.709 0 00-.756-.36 2.748 2.748 0 00-.792-.108c-.564 0-1.128.18-1.692.54-.564.348-.972.75-1.224 1.206V380zm13.056.216c-.828 0-1.452-.24-1.872-.72-.42-.48-.63-1.128-.63-1.944v-5.04h-2.016v-1.242h2.016v-2.646h1.44v2.646h2.988v1.242h-2.988v4.626c0 .648.114 1.104.342 1.368.228.264.606.396 1.134.396.564 0 1.032-.12 1.404-.36v1.278c-.408.264-1.014.396-1.818.396zm-334.229 29c-.576 0-1.062-.168-1.458-.504-.396-.336-.594-.894-.594-1.674V396.4h1.44v10.278c0 .816.366 1.224 1.098 1.224.312 0 .588-.072.828-.216v1.278c-.324.168-.762.252-1.314.252zm3.455-.216v-8.73h1.422V409h-1.422zm.018-10.98a.989.989 0 01-.27-.702.955.955 0 01.972-.972c.276 0 .504.096.684.288.192.18.288.408.288.684a.955.955 0 01-.972.972.989.989 0 01-.702-.27zm7.588 11.034l-3.996-8.784h1.602l3.078 6.894 3.078-6.894h1.53l-3.996 8.784h-1.296zm11.278.162c-1.356 0-2.496-.426-3.42-1.278-.924-.864-1.386-1.962-1.386-3.294 0-1.32.408-2.412 1.224-3.276.828-.876 1.902-1.314 3.222-1.314.684 0 1.296.144 1.836.432.552.276.984.642 1.296 1.098.312.456.546.942.702 1.458a5.03 5.03 0 01.252 1.566v.396h-7.074c.096.9.468 1.614 1.116 2.142.66.528 1.5.792 2.52.792a5.2 5.2 0 002.808-.81v1.26c-.732.552-1.764.828-3.096.828zm-3.33-5.364h5.616c-.036-.636-.282-1.212-.738-1.728-.444-.528-1.104-.792-1.98-.792-.84 0-1.524.252-2.052.756-.516.492-.798 1.08-.846 1.764zm14.868-2.448c.888-.9 2.022-1.35 3.402-1.35 1.38 0 2.514.45 3.402 1.35.888.9 1.332 1.98 1.332 3.24 0 1.26-.444 2.34-1.332 3.24-.888.888-2.022 1.332-3.402 1.332-1.38 0-2.514-.444-3.402-1.332-.888-.9-1.332-1.98-1.332-3.24 0-1.26.444-2.34 1.332-3.24zm1.062 5.598c.624.624 1.404.936 2.34.936.936 0 1.716-.312 2.34-.936.624-.636.936-1.422.936-2.358 0-.936-.312-1.722-.936-2.358-.624-.636-1.404-.954-2.34-.954-.936 0-1.716.318-2.34.954-.624.636-.936 1.422-.936 2.358 0 .936.312 1.722.936 2.358zM193.9 409v-8.73h1.44v1.638a3.688 3.688 0 011.476-1.368 4.202 4.202 0 011.962-.486v1.44a4.352 4.352 0 00-2.07.576 3.278 3.278 0 00-1.368 1.458V409h-1.44zm12.181-7.596c.888-.9 2.022-1.35 3.402-1.35 1.38 0 2.514.45 3.402 1.35.888.9 1.332 1.98 1.332 3.24 0 1.26-.444 2.34-1.332 3.24-.888.888-2.022 1.332-3.402 1.332-1.38 0-2.514-.444-3.402-1.332-.888-.9-1.332-1.98-1.332-3.24 0-1.26.444-2.34 1.332-3.24zm1.062 5.598c.624.624 1.404.936 2.34.936.936 0 1.716-.312 2.34-.936.624-.636.936-1.422.936-2.358 0-.936-.312-1.722-.936-2.358-.624-.636-1.404-.954-2.34-.954-.936 0-1.716.318-2.34.954-.624.636-.936 1.422-.936 2.358 0 .936.312 1.722.936 2.358zM217.998 409h-1.44v-8.73h1.44v1.314c.348-.432.816-.792 1.404-1.08.6-.3 1.272-.45 2.016-.45 1.092 0 1.914.318 2.466.954.564.636.846 1.53.846 2.682V409h-1.44v-5.004c0-.516-.078-.954-.234-1.314-.144-.372-.342-.642-.594-.81a2.709 2.709 0 00-.756-.36 2.748 2.748 0 00-.792-.108c-.564 0-1.128.18-1.692.54-.564.348-.972.75-1.224 1.206V409zm9.87-4.248v-1.314h5.094v1.314h-5.094zm15.434-8.352h1.44V409h-1.44v-1.35c-.78 1.044-1.884 1.566-3.312 1.566-1.272 0-2.316-.444-3.132-1.332-.816-.9-1.224-1.98-1.224-3.24 0-1.272.408-2.352 1.224-3.24.816-.9 1.86-1.35 3.132-1.35 1.404 0 2.508.522 3.312 1.566v-5.22zm0 9.648v-2.826a3.136 3.136 0 00-1.188-1.35 3.09 3.09 0 00-1.782-.54c-.936 0-1.71.318-2.322.954-.612.636-.918 1.422-.918 2.358 0 .936.306 1.722.918 2.358.612.624 1.386.936 2.322.936.636 0 1.224-.18 1.764-.54.552-.36.954-.81 1.206-1.35zm8.616 3.168c-1.356 0-2.496-.426-3.42-1.278-.924-.864-1.386-1.962-1.386-3.294 0-1.32.408-2.412 1.224-3.276.828-.876 1.902-1.314 3.222-1.314.684 0 1.296.144 1.836.432.552.276.984.642 1.296 1.098.312.456.546.942.702 1.458a5.03 5.03 0 01.252 1.566v.396h-7.074c.096.9.468 1.614 1.116 2.142.66.528 1.5.792 2.52.792a5.2 5.2 0 002.808-.81v1.26c-.732.552-1.764.828-3.096.828zm-3.33-5.364h5.616c-.036-.636-.282-1.212-.738-1.728-.444-.528-1.104-.792-1.98-.792-.84 0-1.524.252-2.052.756-.516.492-.798 1.08-.846 1.764zm9.437 5.148v-8.73h1.44v1.278c.684-.996 1.71-1.494 3.078-1.494.72 0 1.32.15 1.8.45.48.288.81.702.99 1.242.324-.492.774-.894 1.35-1.206.576-.324 1.236-.486 1.98-.486.972 0 1.728.3 2.268.9.54.6.81 1.47.81 2.61V409h-1.422v-5.112c0-1.656-.696-2.484-2.088-2.484-.528 0-1.044.18-1.548.54-.504.36-.87.774-1.098 1.242v.504c.012.204.018.372.018.504V409h-1.422v-5.112c0-.516-.072-.948-.216-1.296-.132-.36-.312-.618-.54-.774a2.264 2.264 0 00-.666-.324 2.352 2.352 0 00-.666-.09c-.516 0-1.02.168-1.512.504a3.383 3.383 0 00-1.116 1.224V409h-1.44zm19.511-1.062a3.66 3.66 0 001.692-.396c.528-.264.942-.588 1.242-.972v-1.188a4.85 4.85 0 00-2.736-.81c-.768 0-1.374.15-1.818.45-.432.288-.648.696-.648 1.224 0 .564.216.99.648 1.278.432.276.972.414 1.62.414zm-.396 1.278c-.924 0-1.71-.258-2.358-.774-.636-.516-.954-1.224-.954-2.124 0-.9.336-1.602 1.008-2.106.684-.516 1.536-.774 2.556-.774 1.188 0 2.214.27 3.078.81v-.792c0-1.416-.936-2.124-2.808-2.124-1.02 0-1.968.288-2.844.864v-1.35c.876-.528 1.926-.792 3.15-.792 1.176 0 2.124.276 2.844.828.72.552 1.08 1.362 1.08 2.43v3.438c0 .756.27 1.134.81 1.134.216 0 .384-.042.504-.126v1.116c-.216.144-.522.216-.918.216-.924 0-1.482-.456-1.674-1.368-.888.996-2.046 1.494-3.474 1.494zm9.571-.216h-1.44v-8.73h1.44v1.314c.348-.432.816-.792 1.404-1.08.6-.3 1.272-.45 2.016-.45 1.092 0 1.914.318 2.466.954.564.636.846 1.53.846 2.682V409h-1.44v-5.004c0-.516-.078-.954-.234-1.314-.144-.372-.342-.642-.594-.81a2.709 2.709 0 00-.756-.36 2.748 2.748 0 00-.792-.108c-.564 0-1.128.18-1.692.54-.564.348-.972.75-1.224 1.206V409zm16.602-12.6h1.44V409h-1.44v-1.35c-.78 1.044-1.884 1.566-3.312 1.566-1.272 0-2.316-.444-3.132-1.332-.816-.9-1.224-1.98-1.224-3.24 0-1.272.408-2.352 1.224-3.24.816-.9 1.86-1.35 3.132-1.35 1.404 0 2.508.522 3.312 1.566v-5.22zm0 9.648v-2.826a3.136 3.136 0 00-1.188-1.35 3.09 3.09 0 00-1.782-.54c-.936 0-1.71.318-2.322.954-.612.636-.918 1.422-.918 2.358 0 .936.306 1.722.918 2.358.612.624 1.386.936 2.322.936.636 0 1.224-.18 1.764-.54.552-.36.954-.81 1.206-1.35zm11.437 3.006l-3.114-8.784h1.458l2.358 6.624 2.322-6.66h1.188l2.34 6.66 2.34-6.624h1.44l-3.114 8.784h-1.242l-2.394-6.678-2.34 6.678h-1.242zm12.696-.054v-8.73h1.422V409h-1.422zm.018-10.98a.989.989 0 01-.27-.702.955.955 0 01.972-.972c.276 0 .504.096.684.288.192.18.288.408.288.684a.955.955 0 01-.972.972.989.989 0 01-.702-.27zm8.11 11.196c-.828 0-1.452-.24-1.872-.72-.42-.48-.63-1.128-.63-1.944v-5.04h-2.016v-1.242h2.016v-2.646h1.44v2.646h2.988v1.242h-2.988v4.626c0 .648.114 1.104.342 1.368.228.264.606.396 1.134.396.564 0 1.032-.12 1.404-.36v1.278c-.408.264-1.014.396-1.818.396zm5.7-.216h-1.44v-12.6h1.44v5.184c.348-.432.816-.792 1.404-1.08.6-.3 1.272-.45 2.016-.45 1.092 0 1.914.318 2.466.954.564.636.846 1.53.846 2.682V409h-1.44v-5.004c0-.516-.078-.954-.234-1.314-.144-.372-.342-.642-.594-.81a2.709 2.709 0 00-.756-.36 2.748 2.748 0 00-.792-.108c-.564 0-1.128.18-1.692.54-.564.348-.972.75-1.224 1.206V409zm14.544 0v-12.6h5.508c1.128 0 2.016.27 2.664.81.648.54.972 1.29.972 2.25 0 .672-.15 1.236-.45 1.692-.3.456-.708.78-1.224.972.84.132 1.506.498 1.998 1.098.492.588.738 1.344.738 2.268 0 1.056-.372 1.908-1.116 2.556-.744.636-1.758.954-3.042.954h-6.048zm1.458-1.332h4.32c.912 0 1.614-.204 2.106-.612.504-.408.756-.996.756-1.764 0-.756-.252-1.332-.756-1.728-.492-.396-1.194-.594-2.106-.594h-4.32v4.698zm0-5.994h3.798c1.62 0 2.43-.648 2.43-1.944 0-.648-.21-1.14-.63-1.476-.408-.348-1.008-.522-1.8-.522h-3.798v3.942zm14.303 6.264a3.66 3.66 0 001.692-.396c.528-.264.942-.588 1.242-.972v-1.188a4.85 4.85 0 00-2.736-.81c-.768 0-1.374.15-1.818.45-.432.288-.648.696-.648 1.224 0 .564.216.99.648 1.278.432.276.972.414 1.62.414zm-.396 1.278c-.924 0-1.71-.258-2.358-.774-.636-.516-.954-1.224-.954-2.124 0-.9.336-1.602 1.008-2.106.684-.516 1.536-.774 2.556-.774 1.188 0 2.214.27 3.078.81v-.792c0-1.416-.936-2.124-2.808-2.124-1.02 0-1.968.288-2.844.864v-1.35c.876-.528 1.926-.792 3.15-.792 1.176 0 2.124.276 2.844.828.72.552 1.08 1.362 1.08 2.43v3.438c0 .756.27 1.134.81 1.134.216 0 .384-.042.504-.126v1.116c-.216.144-.522.216-.918.216-.924 0-1.482-.456-1.674-1.368-.888.996-2.046 1.494-3.474 1.494zm8.131-.216v-8.73h1.44v1.278c.684-.996 1.71-1.494 3.078-1.494.72 0 1.32.15 1.8.45.48.288.81.702.99 1.242.324-.492.774-.894 1.35-1.206.576-.324 1.236-.486 1.98-.486.972 0 1.728.3 2.268.9.54.6.81 1.47.81 2.61V409h-1.422v-5.112c0-1.656-.696-2.484-2.088-2.484-.528 0-1.044.18-1.548.54-.504.36-.87.774-1.098 1.242v.504c.012.204.018.372.018.504V409h-1.422v-5.112c0-.516-.072-.948-.216-1.296-.132-.36-.312-.618-.54-.774a2.264 2.264 0 00-.666-.324 2.352 2.352 0 00-.666-.09c-.516 0-1.02.168-1.512.504a3.383 3.383 0 00-1.116 1.224V409h-1.44zm16.541-12.6h1.44v5.22c.804-1.044 1.908-1.566 3.312-1.566 1.272 0 2.316.45 3.132 1.35.816.888 1.224 1.968 1.224 3.24 0 1.26-.408 2.34-1.224 3.24-.816.888-1.86 1.332-3.132 1.332-1.428 0-2.532-.522-3.312-1.566V409h-1.44v-12.6zm1.44 6.822v2.826c.252.54.648.99 1.188 1.35.552.36 1.146.54 1.782.54.936 0 1.71-.312 2.322-.936.612-.636.918-1.422.918-2.358 0-.936-.306-1.722-.918-2.358-.612-.636-1.386-.954-2.322-.954-.66 0-1.26.18-1.8.54a3.173 3.173 0 00-1.17 1.35zm10.706-1.818c.888-.9 2.022-1.35 3.402-1.35 1.38 0 2.514.45 3.402 1.35.888.9 1.332 1.98 1.332 3.24 0 1.26-.444 2.34-1.332 3.24-.888.888-2.022 1.332-3.402 1.332-1.38 0-2.514-.444-3.402-1.332-.888-.9-1.332-1.98-1.332-3.24 0-1.26.444-2.34 1.332-3.24zm1.062 5.598c.624.624 1.404.936 2.34.936.936 0 1.716-.312 2.34-.936.624-.636.936-1.422.936-2.358 0-.936-.312-1.722-.936-2.358-.624-.636-1.404-.954-2.34-.954-.936 0-1.716.318-2.34.954-.624.636-.936 1.422-.936 2.358 0 .936.312 1.722.936 2.358zm10.117-5.598c.888-.9 2.022-1.35 3.402-1.35 1.38 0 2.514.45 3.402 1.35.888.9 1.332 1.98 1.332 3.24 0 1.26-.444 2.34-1.332 3.24-.888.888-2.022 1.332-3.402 1.332-1.38 0-2.514-.444-3.402-1.332-.888-.9-1.332-1.98-1.332-3.24 0-1.26.444-2.34 1.332-3.24zm1.062 5.598c.624.624 1.404.936 2.34.936.936 0 1.716-.312 2.34-.936.624-.636.936-1.422.936-2.358 0-.936-.312-1.722-.936-2.358-.624-.636-1.404-.954-2.34-.954-.936 0-1.716.318-2.34.954-.624.636-.936 1.422-.936 2.358 0 .936.312 1.722.936 2.358zM434.639 409v-12.6h8.694v1.332h-7.236v3.852h5.922v1.332h-5.922v4.752h7.506V409h-8.964zm13.88.054l-3.996-8.784h1.602l3.078 6.894 3.078-6.894h1.53l-3.996 8.784h-1.296zm11.278.162c-1.356 0-2.496-.426-3.42-1.278-.924-.864-1.386-1.962-1.386-3.294 0-1.32.408-2.412 1.224-3.276.828-.876 1.902-1.314 3.222-1.314.684 0 1.296.144 1.836.432.552.276.984.642 1.296 1.098.312.456.546.942.702 1.458a5.03 5.03 0 01.252 1.566v.396h-7.074c.096.9.468 1.614 1.116 2.142.66.528 1.5.792 2.52.792a5.2 5.2 0 002.808-.81v1.26c-.732.552-1.764.828-3.096.828zm-3.33-5.364h5.616c-.036-.636-.282-1.212-.738-1.728-.444-.528-1.104-.792-1.98-.792-.84 0-1.524.252-2.052.756-.516.492-.798 1.08-.846 1.764zM467.344 409h-1.44v-8.73h1.44v1.314c.348-.432.816-.792 1.404-1.08.6-.3 1.272-.45 2.016-.45 1.092 0 1.914.318 2.466.954.564.636.846 1.53.846 2.682V409h-1.44v-5.004c0-.516-.078-.954-.234-1.314-.144-.372-.342-.642-.594-.81a2.709 2.709 0 00-.756-.36 2.748 2.748 0 00-.792-.108c-.564 0-1.128.18-1.692.54-.564.348-.972.75-1.224 1.206V409zm13.056.216c-.828 0-1.452-.24-1.872-.72-.42-.48-.63-1.128-.63-1.944v-5.04h-2.016v-1.242h2.016v-2.646h1.44v2.646h2.988v1.242h-2.988v4.626c0 .648.114 1.104.342 1.368.228.264.606.396 1.134.396.564 0 1.032-.12 1.404-.36v1.278c-.408.264-1.014.396-1.818.396zm7.266 0a8.652 8.652 0 01-2.106-.252c-.66-.18-1.164-.396-1.512-.648v-1.44c.348.264.846.51 1.494.738.66.216 1.35.324 2.07.324.72 0 1.284-.114 1.692-.342.408-.228.612-.552.612-.972a.924.924 0 00-.072-.378.52.52 0 00-.216-.27 1.768 1.768 0 00-.306-.216 1.557 1.557 0 00-.432-.162 6.677 6.677 0 00-.486-.144 34.832 34.832 0 00-1.152-.288c-1.032-.264-1.8-.582-2.304-.954-.492-.384-.738-.954-.738-1.71s.306-1.35.918-1.782c.624-.444 1.5-.666 2.628-.666 1.308 0 2.37.258 3.186.774v1.386a5.886 5.886 0 00-3.132-.882c-1.428 0-2.142.402-2.142 1.206 0 .468.354.828 1.062 1.08.24.084.75.216 1.53.396.984.216 1.746.522 2.286.918.552.396.828.972.828 1.728 0 .792-.348 1.416-1.044 1.872-.684.456-1.572.684-2.664.684z" fill="#1E4843"/><path d="M886.408 131.161c-45.251-3.795-82.466 60.299-101.074 109.212-12.264 36.264-6.767 83.068 16.916 110.055 18.946 21.589 69.921 49.757 93.04 61.142C929.122 437.713 935.875 460 1006.5 460c48.04 1.687 84.6-32.688 96.44-74.574 7.19-22.77 26.78-34.576 31.29-71.261 10.57-86.021-90.95-100.493-121.05-112.952-30.101-12.459-53.121-63.875-126.772-70.052z" fill="#fff"/><path d="M1207.82 417.547c7.86-4.775 1.53-25.642-8.2-19.237-7.89 5.783-11.41 1.184-16.07 4.083-6.19 3.837-1.02 15.009-1.03 15.013 6.29 12.645 16.74 8.687 25.3.141z" fill="url(#paint2_linear)"/><path d="M1476 75c-99.58-67.857-350.52 154.043-238.27 240.01 111.37 64.092 78.34 122.068 138.15 162.005 79.34 53.207 164.66-46.155 164.77-46.059C1650.74 309.332 1623.07 135.34 1476 75z" fill="url(#paint3_linear)"/><defs><linearGradient id="paint0_linear" x1="0" y1="351.5" x2="1440" y2="327.967" gradientUnits="userSpaceOnUse"><stop stop-color="#EBF9FD"/><stop offset="1" stop-color="#EBFDF5"/></linearGradient><linearGradient id="paint1_linear" x1="1361.23" y1="387.294" x2="1186.15" y2="465.556" gradientUnits="userSpaceOnUse"><stop stop-color="#6BDD24"/><stop offset="1" stop-color="#39CA21"/></linearGradient><linearGradient id="paint2_linear" x1="1213.93" y1="418.036" x2="1176.92" y2="407.888" gradientUnits="userSpaceOnUse"><stop stop-color="#6BDD24"/><stop offset=".807" stop-color="#6DDE24"/></linearGradient><linearGradient id="paint3_linear" x1="1386.06" y1="59.063" x2="1459.09" y2="482.928" gradientUnits="userSpaceOnUse"><stop stop-color="#FFEC00" stop-opacity=".75"/><stop offset="1" stop-color="#F5F13C" stop-opacity=".45"/></linearGradient></defs></svg>