<svg width="732" height="539" fill="none" xmlns="http://www.w3.org/2000/svg"><path d="M183.408 133.161c-45.251-3.795-82.466 60.298-101.074 109.212-12.264 36.264-6.767 83.068 16.916 110.055 18.946 21.589 69.921 49.757 93.04 61.142C226.122 439.713 232.875 462 303.5 462c48.042 1.687 84.595-32.688 96.437-74.574 7.189-22.77 26.786-34.577 31.295-71.262 10.572-86.02-90.947-100.492-121.05-112.951-30.103-12.459-53.123-63.875-126.774-70.052z" fill="#fff"/><path d="M640.272 411.398c2.774-52.682-79.283-111.758-91.516-44.804-8.004 56.687-34.846 52.702-41.238 84.065-8.566 41.638 45.172 65.514 45.151 65.576 62.288 25.208 84.382-43.628 87.603-104.837z" fill="url(#paint0_linear)"/><path d="M508.824 417.476c7.854-4.775 1.522-25.642-8.207-19.237-7.886 5.783-11.407 1.184-16.063 4.083-6.193 3.836-1.021 15.008-1.031 15.013 6.286 12.644 16.736 8.687 25.301.141z" fill="url(#paint1_linear)"/><path d="M777 74.928c-99.575-67.857-350.52 154.044-238.272 240.01 111.373 64.093 78.339 122.068 138.152 162.006 79.336 53.207 164.659-46.156 164.769-46.059C951.739 309.261 924.066 135.268 777 74.928z" fill="url(#paint2_linear)"/><path d="M406.554 249.305s4.471-6.776 6.134-12.552c2.125-5.501 4.007-6.835 4.007-6.835s1.427-.85 2.192.189c.765 1.039 1.045 2.752-.946 7.962-2.973 4.056-6.626 15.287-6.626 15.287l1.629.732 5.41-3.05 1.89.327s6.2 13.22 3.883 18.355l-3.237 4.025-12.029-5.837-4.352-12.129 2.045-6.474z" fill="#F49C6E"/><path d="M419.877 251.372s-2.647 5.727-6.085 10.06c0 0-.615 2.144 1.863 3.433l.887-.379s-.505 2.54 1.666 3.691l2.892-1.033-1.233 1.434s.045 2.095 2.075 2.923c0 0 4.411-.954 5.924-4.165l-2.22-4.113.845-2.04-2.836-4.391.528-1.492c.03-.073-1.583-2.788-4.306-3.928z" fill="url(#paint3_linear)"/><path d="M401.109 257.591c-.141 2.112.04 10.598.146 12.56.107 1.961.024 7.162.024 7.162-.17 2.147-.877 5.147-.877 5.147l9.499 3s2.284-.567 3.5-1.5l1.536-2.809c.72-1.069 5.773-7.051 5.773-7.051l-6.265-6.206c-1.616-5.423-7.569-13.489-7.569-13.489l.465-2.227c6.085-1.621 9.123-8.432 8.51-9.839-.536-1.371-2.322-2.173-2.322-2.173s-4.746 5.438-7.315 7.852c-2.353 2.336-4.965 7.461-5.105 9.573z" fill="url(#paint4_linear)"/><path d="M424.404 255.197s-3.933 6.925-7.869 9.38c0 0 4.709-2.287 7.298-7.794l.571-1.586zm2.067 5.892s-3.226 5.528-8.5 7.087c0 0 4.103-.079 7.644-5.03l.856-2.057z" fill="#F49C6E"/><path opacity=".35" d="M174.719 99.126c-53.386-4.641-97.293 73.736-119.246 133.55-14.47 44.345-7.983 101.581 19.957 134.581 22.353 26.401 74.295 51.749 101.57 65.672 39.915 31.969 73.5 69.407 138 64.5 46-3.5 88.5-34 110.5-88.5 8.482-27.845 31.401-47.484 40-86.5 12.474-105.191-106.423-130.663-141.938-145.898-35.515-15.235-61.95-69.852-148.843-77.405z" stroke="#3CCB21" stroke-linecap="round" stroke-dasharray="3 3"/><mask id="a" maskUnits="userSpaceOnUse" x="80" y="130" width="356" height="330"><path d="M187.408 131.09c-45.251-3.795-82.466 60.298-101.074 109.212-12.264 36.263-6.767 83.068 16.916 110.054 18.946 21.59 69.921 49.757 93.04 61.142 33.832 26.144 40.585 48.431 111.21 48.431 48.042 1.686 84.595-32.688 96.437-74.574 7.189-22.77 26.786-34.577 31.295-71.262 10.572-86.02-90.947-100.493-121.05-112.952-30.103-12.459-53.123-63.875-126.774-70.051z" fill="#fff"/></mask><g mask="url(#a)"><path d="M391.916 670.732l-8.903 4.748s-48.371-51.191-59.944-100.452c-2.078-8.754-2.968-17.508-2.078-25.669 0 0-.742-2.226-1.929-6.232 0-.148-.148-.297-.148-.593-.594-1.781-1.187-3.71-1.929-6.084-2.374-7.419-5.49-17.657-9.199-29.23-8.458-26.708-27.598-86.801-35.908-111.728l59.055-21.367s6.677 15.283 16.321 56.977c1.484 5.49 2.968 11.425 4.303 17.954a303.208 303.208 0 014.303 24.334c2.077 14.838-.148-2.36 0 16.039 0 7.419 3.413 48.95 2.967 56.962-.296 5.787.594 13.651 2.226 22.405 7.567 40.507 30.863 101.936 30.863 101.936z" fill="#205080"/><path d="M195.168 320.709c-.297.296-14.393-14.245-21.96-22.257l7.567-4.6 41.397 25.966-27.004.891z" fill="#FFB48D"/><path d="M310.011 150.224c.297-1.336 3.71-14.838 24.631-11.87 0 0-10.535-.594-13.057 3.709 0 0 8.012-4.303 13.354-1.632 5.341 2.819 6.974 13.354 6.528 16.618-.593 3.264-5.49 13.354-9.347 13.651-1.484.148-2.968-.297-4.452-.742.742 1.632 1.336 3.561 1.929 5.49 5.342 18.547-6.083 33.83-12.909 30.714-4.303-1.929-6.973 5.49-6.973 5.49l-37.837-43.326c.149 0 22.109-30.566 38.133-18.102z" fill="#4A2009"/><path d="M271.285 266.255c4.896 3.413 11.128 6.232 18.844 8.013 29.082 6.677 40.21-17.805 44.364-34.72-4.006-2.226-7.715-2.82-9.793-2.968a45.139 45.139 0 00-6.083-.445c-3.264-2.523-8.161-12.761-9.199-28.637l-1.336.297-22.998 6.232s1.038 7.27 1.632 14.244c.445 5.341.445 10.535-.594 11.87-1.78.445-2.819.594-2.819.594-.445.445-6.974 11.425-12.018 25.52z" fill="#FFB48D"/><path d="M285.084 214.025s1.039 7.271 1.632 14.244c13.057-1.335 18.992-13.65 21.366-20.476l-22.998 6.232z" fill="#F6A071"/><path d="M281.226 220.85s30.863-1.632 29.527-20.921c-1.335-19.141 1.781-32.346-18.102-32.049-19.734.296-22.998 7.864-24.185 14.392-1.039 6.529 4.748 38.578 12.76 38.578z" fill="#FFB48D"/><path d="M268.614 171.59c4.303-6.083 8.013-5.045 10.238-3.561 16.173-10.535 28.044 2.374 28.044 2.374 3.115 13.651 13.502 20.773 13.502 20.773s-5.342 3.858-18.547 1.484c-4.007-.742-7.716-3.265-10.98-6.529 5.935 8.458 13.502 14.244 13.502 14.244-16.025-6.083-23.74-27.153-24.482-29.378-1.781 1.78-5.193 5.786-6.084 9.496-1.187 5.045-1.187 15.134-4.154 14.986 0 .148-7.567-14.689-1.039-23.889z" fill="#4A2009"/><path d="M276.181 239.101s50.3-12.167 72.112 5.787l-12.183 72.541-6.61 20 6.61 20.611 1.203 39.083-84.011-18.248s-7.625-15.468 11.219-41.137c18.844-25.521 6.912-62.729 11.66-98.637z" fill="#FFB48D"/><path d="M305.56 380.209s0 .445-.148 1.483c0 .446-.149.891-.149 1.484-.445 4.006-1.187 11.574-2.225 21.367-2.671 25.817 5.045 55.243 2.225 87.886-2.225 25.521-15.727 57.968-14.986 61.233 2.374 9.792 0 126.862 0 126.862-8.309 4.006-21.069 0-21.069 0s-22.257-105.496-19.141-120.037c3.116-14.689-2.077-27.153-2.077-27.153-17.212-80.421-11.277-120.27-7.864-141.637 1.038-6.232 5.341-18.314 6.231-20.984.742-2.226-6.231 0-6.231 0 38.133-10.238 65.434 9.496 65.434 9.496z" fill="#205080"/><path d="M337.713 397.599c-10.999 4.887-21.998 7.108-32.302 7.405-9.468.296-18.518-.741-26.593-2.666-17.683-4.147-31.189-11.7-36.201-14.958.975-6.22 1.949-10.367 2.785-13.033 10.86-8.293 37.732-.296 59.731 8.442.835.296 1.531.592 2.367.889 16.708 6.96 30.213 13.921 30.213 13.921z" fill="#284663"/><path fill-rule="evenodd" clip-rule="evenodd" d="M358.234 249.785c-6.825-10.535-31.456-13.503-31.456-13.503l.119.386c-.375 1.081-4.508 11.724-22.672 13.413-19.141 1.781-27.005-10.831-27.005-10.831s-18.992 1.929-26.114 15.58c-5.805 11.064-11.221 30.442-15.334 45.159-2.617 9.362-4.706 16.838-6.033 19.088l-27.153-12.167s-8.012.742-11.425 3.116c-5.341 3.561-5.045 7.419-5.045 7.419s42.436 31.604 53.119 28.043c9.793-3.264 19.586-21.96 24.779-38.133 3.71 11.128 2.819 16.47 2.078 18.102-.332.747-1.436 2.853-3.005 5.846-6.848 13.062-22.552 43.021-21.587 50.626 8 22.5 68.524 26.902 89 18 .256-.11.957-.327 1.876-.612 2.814-.873 7.677-2.382 8.124-3.388 0-17-4.5-54.5-4.5-54.5 0-8.853 2.497-17.186 5.127-25.963 1.949-6.506 3.972-13.257 5.105-20.645l14.454 26.356c20.301 48.082 53.959-38.453 53.959-38.453-14.959 1.055-15.493-3.753-15.493-3.753l-18.165 25.644c-4.987-15.686-14.147-41.476-22.753-54.83z" fill="url(#paint5_linear)"/><path d="M335.5 338.929s5.5 44 4.394 57.114c-15.504-5.929-25.879-26.814-21.894-51.614 5.791-35.825 29.046-51.47 29.046-51.47-6.546 24.97-9.069 34.032-11.546 45.97z" fill="#37A7F3" fill-opacity=".7"/><path d="M158.052 287.634s8.387 12.001 17.234 14.957l2.897-.341 7.592 9.026s4.025-3.114 3.563-11.837c0 0-1.668-1.373-2.191-3.024 0 0 2.215-2.116 2.74-3.534.524-1.417.359-5.466.64-7.14.28-1.674 3.862-5.592 4.691-6.118.828-.525 4.718-1.197 4.718-1.197s.445-1.479-.194-2.046c-.64-.567-5.119-2.031-8.242.549 0 0-1.881 1.569-2.156 2.529-.275.96-2.948 4.414-3.383 4.465-.434.051-2.616-1.333-3.599-2.431-.91-1.106-6.284-9.893-7.592-12.879l-.007-.071c-.007-.07-.007-.07-.086-.132l-.006-.071-.007-.071c-2.019-2.91-4.149-5.525-7.012-7.072 0 0-1.558.207-2.01 1.616 0 0 .954 3.765 3.448 6.897.415.522.844 1.185 1.346 1.84 2.125 3.104 4.627 7.091 4.977 7.692l.006.071-1.105.701-3.388-2.528-3.46-2.518-6.604 8.34.812.833 2.512 2.559-1.138.348-2.954-2.579-2.042 3.166z" fill="url(#paint6_linear)"/><path d="M167.562 274.759s-2.192-.027-3.375 2.887l.376.881s-2.126.677-3.826 4.292c0 0 2.112 3.024 6.799 3.966 0 0 2.04-.809 2.234-2.61l-.54-1.075 1.774 1.001s2.002.333 2.601-2.583l-6.043-6.759z" fill="url(#paint7_linear)"/><path d="M157.574 286.522s-.628-1.992 1.486-3.595l4.778 4.14s-.004 1.497-1.85 2.071c.007.07-3.051-.568-4.414-2.616z" fill="url(#paint8_linear)"/><path d="M164.634 278.445s2.418 3.137 4.677 4.582l.541 1.077s-4.305-2.202-6.119-5.126c0 0 .401-.403.901-.533z" fill="#F49C6E"/></g><path opacity=".6" d="M176.991 197.184l-3.196 91.682c-.1 3.595-3.096 6.491-6.792 6.491H9.106a6.757 6.757 0 01-6.79-6.591L.117 195.985c-.1-3.795 2.996-6.991 6.791-6.891l163.39 1.099c3.795 0 6.891 3.196 6.692 6.991z" fill="#22C1E4" fill-opacity=".71"/><path opacity=".7" d="M176.791 201.877H.318l-.3-4.794c-.3-4.295 3.196-7.89 7.49-7.79l163.29 1.298c3.396 0 6.093 2.797 6.093 6.192l-.1 5.094z" fill="url(#paint9_linear)"/><path opacity=".3" d="M167.902 209.269V262.3h-54.03v-53.331l54.03.3z" fill="url(#paint10_linear)"/><path opacity=".6" d="M38.269 212.864h23.47v23.47h-23.47v-23.47z" fill="url(#paint11_linear)"/><path d="M10.505 212.864h23.47v23.47h-23.47v-23.47z" fill="url(#paint12_linear)"/><path d="M66.433 212.864h23.47v23.47h-23.47v-23.47z" fill="url(#paint13_linear)"/><path d="M10.505 252.228h75.103v1.697H10.505v-1.697zm60.023-11.836h14.381v1.698H70.528v-1.698zm-27.765 0h14.382v1.698H42.763v-1.698zm-27.665 0H29.48v1.698H15.098v-1.698zm-4.593 15.304h75.103v1.698H10.505v-1.698zm-.001 2.796h79.398v1.698H10.504v-1.698zm0 2.797h79.398v1.698H10.504v-1.698zm.001 11.284h75.103v1.698H10.505v-1.698zm-.001 2.797h79.398v1.698H10.504v-1.698zm0 2.797h79.398v1.698H10.504v-1.698zm3.196-14.083h76.202v1.698H13.7v-1.698zm-3.195 2.798h75.103v1.698H10.505v-1.698zm15.08 2.796h64.317v1.698H25.585v-1.698z" fill="#fff"/><path d="M152.822 251.713c8.489 0 15.38-6.892 15.38-15.381s-6.891-15.38-15.38-15.38-15.38 6.891-15.38 15.38 6.891 15.381 15.38 15.381zm0-29.762c7.89 0 14.381 6.492 14.381 14.381 0 7.89-6.491 14.382-14.381 14.382-7.89 0-14.382-6.492-14.382-14.382 0-7.889 6.392-14.381 14.382-14.381z" fill="#E0FFFF"/><path d="M152.822 244.721a8.389 8.389 0 01-8.389-8.389 8.39 8.39 0 118.389 8.389z" fill="#fff"/><path d="M113.872 224.349c8.489 0 15.38-6.892 15.38-15.381s-6.891-15.38-15.38-15.38-15.38 6.891-15.38 15.38c.1 8.489 6.991 15.381 15.38 15.381zm0-29.762c7.89 0 14.381 6.492 14.381 14.381 0 7.89-6.491 14.382-14.381 14.382-7.89 0-14.382-6.492-14.382-14.382.1-7.889 6.492-14.381 14.382-14.381z" fill="#E0FFFF"/><path d="M106.16 210.173a7.89 7.89 0 1115.588-2.452 7.89 7.89 0 01-15.588 2.452zM4.712 194.086h54.33v2.697H4.712v-2.697z" fill="#fff"/><g opacity=".9"><path opacity=".81" d="M96.288 411.953h79.337c3.528 0 7.4-2.539 7.482-5.75l.477-59.225c.082-3.286-2.872-6.049-6.482-6.049H94.483c-3.692 0-6.563 2.763-6.481 6.049l.805 59.225c.082 3.211 3.953 5.75 7.481 5.75z" fill="url(#paint14_linear)"/><path d="M106 353.027h61v1.764h-61v-1.764zm30.5 4.249H167v1.764h-30.5v-1.764zm0 3.529H167v1.764h-30.5v-1.764zm-27.738 0h24.256v1.764h-24.256v-1.764zm9.006 3.527H167v1.764h-49.232v-1.764zm31.7 3.528H167v1.764h-17.532v-1.764zm-33.862 10.664h30.26v1.764h-30.26v-1.764zm-3.482-7.135H167v1.764h-54.876v-1.764zm12.608 3.607H167v1.764h-42.268v-1.764zm22.455 3.528H167v1.764h-19.813v-1.764zm-10.687 3.529H167v1.764h-30.5v-1.764zm21.734 3.528H167v1.764h-8.766v-1.764zm-35.423 0h31.821v1.764h-31.821v-1.764zm-7.205 3.449h30.26v1.764h-30.26v-1.764zm31.581 0H167v1.764h-19.813v-1.764zm-10.687 3.526H167v1.764h-30.5v-1.764zm21.734 3.609H167v1.764h-8.766v-1.764zm-35.423 0h31.821v1.764h-31.821v-1.764z" fill="#fff"/></g><path d="M445.323 227.818h84.186c9.203 0 14.047-5.87 14.323-13.244l.168-60.499c0-10.559-5.52-14.146-12.559-14.146h-87.774c-7.038 0-12.667 3.587-12.559 14.146L431 214.574c.138 7.374 3.532 13.244 14.323 13.244z" fill="url(#paint15_linear)"/><path d="M441.818 147.77h90.596a2 2 0 012 2v52.182a2 2 0 01-2 2h-90.596a2 2 0 01-2-2V149.77a2 2 0 012-2z" fill="#3ED01F"/><path d="M495.584 175.903l-16.018 9.248.237-19.968 15.781 10.72z" fill="#fff"/><path d="M439.818 214.275h94.596v5.077h-94.596v-5.077z" fill="#3ED01F"/><path d="M509.876 214.275h24.538v5.077h-24.538v-5.077z" fill="#fff"/><path d="M212.159 105.456c-9.062-.396-18.824-6.906-21.942-9.992l-9.812 10.556c.236 2.219 8.193 6.758 11.975 7.468 11.267.811 19.719-7.717 19.779-8.032z" fill="url(#paint16_linear)"/><path d="M239.186 98.785L212.184 80.99c2.37 3.599 4.804 12.647.448 21.944-5.509 11.759-20.508 10.179-20.252 10.554 28.143 5.805 42.931-7.384 46.806-14.704z" fill="url(#paint17_linear)"/><path d="M206.285 104.441c-8.855 1.963-19.969-1.798-23.78-3.973l-6.746 12.736c.802 2.083 9.663 4.408 13.5 4.115 11.093-2.134 17.051-12.558 17.026-12.878z" fill="url(#paint18_linear)"/><path d="M230.665 91.002l-30.688-10.2c3.221 2.864 7.914 10.974 6.113 21.081-2.278 12.785-17.175 15.141-16.831 15.436 28.687-1.676 39.557-18.243 41.406-26.317z" fill="url(#paint19_linear)"/><path d="M216.345 93.906c-.193-.084-.269-.333-.169-.555l1.144-2.553c.1-.223.337-.336.531-.252.193.084.269.333.169.556l-1.144 2.553c-.1.222-.337.335-.531.251zm-4.615-1.446c-.256-.09-.4-.346-.322-.572l.893-2.592c.078-.226.349-.336.605-.246.256.09.4.347.322.573l-.893 2.592c-.078.226-.349.336-.605.246zm8.893 2.968l-1.18-.417c-.246-.087-.384-.34-.306-.564l.88-2.55c.077-.224.34-.335.587-.248l1.18.417c.246.087.384.34.306.564-.077.225-.34.336-.587.25l-.733-.26-.6 1.736.734.26c.246.087.383.34.306.564-.077.224-.34.336-.587.248z" fill="#53AE12"/><path d="M220.968 94.106l-1.066-.375c-.241-.084-.375-.33-.299-.547.075-.218.332-.326.572-.241l1.067.374c.24.085.374.33.298.548-.075.218-.331.326-.572.241zm-6.433-.748c-1.026-.371-1.608-1.42-1.298-2.336.311-.916 1.398-1.36 2.424-.99.373.136.699.364.944.661.163.198.133.465-.067.598-.2.133-.494.08-.657-.117a1.131 1.131 0 00-.49-.343c-.534-.193-1.099.038-1.26.514-.162.477.141 1.022.675 1.215.193.07.371.077.529.023a.681.681 0 00.092-.04.515.515 0 01.645.18c.141.21.081.47-.135.581a1.563 1.563 0 01-.209.09c-.368.125-.78.113-1.193-.037zm-4.921-1.599c-.252-.088-.392-.343-.313-.57l.878-2.514c.079-.227.347-.34.599-.252.252.088.392.343.313.57l-.877 2.515c-.079.226-.348.339-.6.251zm12.991 4.358c-.252-.088-.392-.343-.313-.57l.877-2.515c.079-.226.348-.339.6-.25.251.087.392.342.312.569l-.877 2.515c-.079.226-.348.339-.599.25z" fill="#53AE12"/><path d="M211.312 89.397l-1.52-.532c-.24-.084-.373-.328-.298-.544.076-.216.331-.324.571-.24l1.52.532c.24.084.373.328.298.544-.075.217-.331.324-.571.24zm12.99 4.357l-1.52-.532c-.24-.084-.373-.327-.298-.544.076-.216.331-.324.571-.24l1.52.532c.24.084.373.328.298.544-.076.217-.331.324-.571.24zm-6.039.894a.504.504 0 01-.27-.222l-1.062-1.88a.412.412 0 01-.034-.345.41.41 0 01.245-.243l1.836-.689a.508.508 0 01.621.247.402.402 0 01-.224.563l-1.389.52.826 1.462a.402.402 0 01-.186.577.492.492 0 01-.363.01z" fill="#53AE12"/><path d="M310.052 150.224c.297-1.336 3.709-14.838 24.631-11.87 0 0-10.535-.594-13.058 3.709 0 0 8.013-4.303 13.354-1.632 5.342 2.819 6.974 13.354 6.529 16.618-.594 3.264-5.49 13.354-9.348 13.651-1.484.148-2.967-.297-4.451-.742.742 1.632 1.335 3.561 1.929 5.49 5.341 18.547-6.084 33.83-12.909 30.714-4.303-1.929-6.974 5.49-6.974 5.49l-37.836-43.326c.148 0 22.108-30.566 38.133-18.102z" fill="#1E4843"/><path d="M285.125 214.025s1.038 7.271 1.632 14.245c13.057-1.336 18.992-13.651 21.366-20.477l-22.998 6.232z" fill="#F6A071"/><path d="M281.267 220.85s30.862-1.632 29.527-20.921c-1.336-19.141 1.78-32.346-18.102-32.049-19.734.296-22.999 7.864-24.186 14.392-1.038 6.529 4.749 38.578 12.761 38.578z" fill="#FFB48D"/><path fill-rule="evenodd" clip-rule="evenodd" d="M279.146 197.924c-.394.438-.788.875-1.094 1.356-.569.788-.832 1.707-.307 2.538.657 1.051 1.882 1.969 3.107 2.32.088.043.131-.088.044-.132a5.628 5.628 0 01-1.969-1.181c-.481-.394-1.007-1.007-1.138-1.663-.206-.987.517-1.859 1.114-2.578l.111-.135c1.619-2.013 2.276-4.551 2.276-7.132-.044 1.575-.307 3.238-.963 4.682-.306.7-.7 1.356-1.181 1.925zm6.18 3.489c.033.245.026.492-.054.712-.132.525-.438.831-.875 1.137-.044.044 0 .088.043.088.894-.16 1.019-1.111.886-1.937zm-.127-.539zm-.102-.281z" fill="url(#paint20_linear)"/><path d="M292.587 207.129l.704 1.532s1.077-1.035-.704-1.532zm-15.693-1.2l-.828 1.2s-.414-.952.828-1.2z" fill="#D78A6F"/><path d="M293.208 208.041l-.455.579s-3.81 3.354-7.454 4.514c-3.643 1.159-5.852.06-6.798-1.359 0 0-.473-.473-.613-1.788-.114-1.071-1.16-2.981-1.16-2.981s1.325.082 1.491.165c.166.042 2.153 1.118 2.153 1.118s2.691.994 2.857.953c.166-.042 6.915-.953 6.915-.953l3.064-.248z" fill="#FE56AB"/><path d="M292.752 208.082s-3.561 2.733-7.867 3.271c-1.49.207-4.679.497-5.631-1.366-.124-.207-.248-.621-.29-.87-.207-.787-.662-1.491-1.366-1.905l2.194.083 1.864.704 1.159.249 1.449-.207h5.59l2.898.041z" fill="#fff"/><path d="M291.593 208.041h1.159s-.828.621-2.194 1.366c.538-.621.952-1.242.952-1.242l.083-.124zm-12.96-.787l.083.29s.041.704.124 1.366c-.207-.704-.704-1.283-1.284-1.656h1.077z" fill="#000"/><path d="M276.397 206.633c1.408 1.077 4.306 1.491 4.306 1.491 1.574.993 2.484.331 2.484.331 3.52.124 6.667.124 10.145-.497 0 0-6.666-.455-10.517-.497l-.911.456-.787-.58s-2.401-.497-3.105-.58a27.048 27.048 0 00-1.615-.124z" fill="#FE56AB"/><path d="M293.374 207.998a37.96 37.96 0 01-6.087.622c-1.035.041-2.112 0-3.147 0-.248 0-.497 0-.787-.042-.124 0-.082-.041-.124 0a1.243 1.243 0 01-.414.166c-.58.165-1.201-.042-1.739-.29-.166-.083-.29-.207-.497-.249-.207-.041-.372-.082-.579-.124-1.243-.248-2.65-.579-3.603-1.408-.041-.041 0-.124.083-.082 1.077.704 2.319 1.076 3.602 1.325.29.041.621.082.87.207.58.372 1.325.579 2.029.372.041 0 .207-.082.207-.124.083-.083.29 0 .372 0 .249 0 .497 0 .787.042a72.3 72.3 0 002.981.041c1.988-.041 4.017-.166 6.046-.456 0 0 0-.041 0 0z" fill="#EA448A"/><path d="M281 183.929s-2.302-1.228-3.377-1.916c-.87-.589-5.065-1.326-7.623 1.523 0 0-.102-1.032 2.558-2.849 2.661-1.769 7.93-.344 8.442 3.242z" fill="#1E4843"/><path d="M304.394 186.117s-2.845-3.763-9.014-3.632c-4.77.131-5.076.831-6.52-.394 0 0 .437-.962 3.238-1.181 2.8-.219 9.233-.219 12.296 5.207z" fill="#000"/><path d="M290.785 192.9c1.882-4.199 5.295-4.535 8.008-3.427 1.575.639 2.625 1.479 3.194 2.016 1.706.739 2.757-.437 2.757-.437-.569.84-1.619 1.075-2.188 1.176-2.276 2.251-5.776 2.587-5.776 2.587s-4.857-1.344-5.601-1.613c-.7-.201-.394-.302-.394-.302z" fill="#1E4843"/><path d="M290.654 193.303c1.094-2.15 2.625-4.501 6.082-3.695 1.794.403 3.457 1.243 4.988 2.856 0 0-2.1 1.948-5.338 2.385-3.238.436-4.901-1.21-4.901-1.21l-.962-.033.131-.303z" fill="#fff"/><path d="M293.892 191.858c0-1.041.744-1.948 1.794-2.385.35 0 .7.068 1.094.135 1.313.302 2.581.806 3.763 1.713.044.168.044.336.044.504 0 .974-.657 1.847-1.619 2.318-.175.067-.394.168-.613.235-.35.101-.7.168-1.094.168-1.881 0-3.369-1.209-3.369-2.688z" fill="url(#paint21_linear)"/><path d="M295.248 191.859c0 .874.875 1.579 1.969 1.579s1.969-.705 1.969-1.579c0-.873-.875-1.578-1.969-1.578s-1.969.705-1.969 1.578z" fill="#1E4843"/><path d="M295.423 191.858c0 .807.788 1.445 1.794 1.445.963 0 1.794-.638 1.794-1.445 0-.806-.787-1.444-1.794-1.444-.962 0-1.794.638-1.794 1.444z" fill="url(#paint22_linear)"/><path d="M301.724 192.463c-.875-.873-1.925-1.679-3.238-2.217-1.094-.47-2.406-.84-3.675-.672-2.363.303-3.326 2.318-4.157 3.763 0 .033-.088 0-.088-.034.7-1.545 1.926-3.594 4.289-3.897 1.225-.168 2.537.236 3.631.672 1.357.571 2.407 1.445 3.238 2.385 0 0 .044 0 0 0zM269 189.174s1.191 1.083 2.219.505c.433-.866 1.353-2.31 2.869-2.743 2.22-.649 5.412-1.007 6.412 3.493.625 2.815-5.546 2.174-5.546 2.174s-2.76-.939-3.843-2.058c-.487-.18-1.516-.649-2.111-1.371z" fill="#1E4843"/><path d="M271.761 190.437c.757-1.876 2.706-3.645 5.467-3.212 2.436.361 3.031 3.501 3.031 5.233v.181l-.92-.181s-1.732.65-3.789.289c-2.003-.361-3.789-2.31-3.789-2.31z" fill="#fff"/><path d="M277.444 192.567c-1.732 0-3.193-1.299-3.193-2.887 0-1.047.649-1.985 1.57-2.49a5.747 5.747 0 011.353.036c1.949.289 2.706 2.31 2.923 4.006-.541.794-1.516 1.335-2.653 1.335z" fill="url(#paint23_linear)"/><path d="M275.604 189.68c0 .938.812 1.696 1.841 1.696 1.028 0 1.84-.758 1.84-1.696s-.812-1.696-1.84-1.696c-1.029.036-1.841.758-1.841 1.696z" fill="#1E4843"/><path d="M275.767 189.68c0 .83.757 1.516 1.678 1.516.92 0 1.678-.686 1.678-1.516s-.758-1.515-1.678-1.515c-.921 0-1.678.685-1.678 1.515z" fill="url(#paint24_linear)"/><path d="M280.205 192.494c0-.866-.108-1.696-.379-2.526-.271-.83-.704-1.696-1.678-2.274-1.083-.649-2.707-.397-3.789.108-1.354.65-1.949 1.733-2.544 2.707-.055.072-.163.036-.163-.036.271-1.046 1.137-2.165 2.436-2.815 1.083-.541 2.653-.758 3.843-.253 1.083.47 1.516 1.444 1.787 2.202a6.68 6.68 0 01.487 2.887s.054 0 0 0z" fill="#1E4843"/><path d="M268.655 171.59c4.303-6.083 8.012-5.045 10.238-3.561 16.173-10.535 28.043 2.374 28.043 2.374 3.116 13.651 13.502 20.773 13.502 20.773s-4.232 2.374-17.438 0c-4.006-.742-9.736-2.983-13-6.247 5.935 8.457 14.414 15.446 14.414 15.446-16.025-6.083-23.741-27.153-24.483-29.378-1.78 1.78-5.193 5.786-6.083 9.496-1.187 5.045-1.187 15.134-4.155 14.986 0 .148-7.567-14.689-1.038-23.889z" fill="#1E4843"/><defs><linearGradient id="paint0_linear" x1="662.225" y1="387.222" x2="487.145" y2="465.484" gradientUnits="userSpaceOnUse"><stop stop-color="#6BDD24"/><stop offset="1" stop-color="#39CA21"/></linearGradient><linearGradient id="paint1_linear" x1="514.93" y1="417.965" x2="477.919" y2="407.817" gradientUnits="userSpaceOnUse"><stop stop-color="#6BDD24"/><stop offset=".807" stop-color="#6DDE24"/></linearGradient><linearGradient id="paint2_linear" x1="687.061" y1="58.992" x2="760.094" y2="482.856" gradientUnits="userSpaceOnUse"><stop stop-color="#FFEC00" stop-opacity=".75"/><stop offset="1" stop-color="#F5F13C" stop-opacity=".45"/></linearGradient><linearGradient id="paint3_linear" x1="418.564" y1="269.91" x2="425.727" y2="254.001" gradientUnits="userSpaceOnUse"><stop offset=".016" stop-color="#FFB48D"/><stop offset="1" stop-color="#FFB48D"/></linearGradient><linearGradient id="paint4_linear" x1="401.447" y1="283.73" x2="419.8" y2="242.851" gradientUnits="userSpaceOnUse"><stop offset=".016" stop-color="#FFB48D"/><stop offset="1" stop-color="#FFB48D"/></linearGradient><linearGradient id="paint5_linear" x1="230" y1="271.495" x2="352.081" y2="345.948" gradientUnits="userSpaceOnUse"><stop offset=".079" stop-color="#1392E8"/><stop offset="1" stop-color="#5FBFFF"/></linearGradient><linearGradient id="paint6_linear" x1="181.868" y1="311.738" x2="175.617" y2="258.595" gradientUnits="userSpaceOnUse"><stop offset=".016" stop-color="#FFB48D"/><stop offset="1" stop-color="#FFB48D"/></linearGradient><linearGradient id="paint7_linear" x1="167.66" y1="286.673" x2="166.272" y2="274.874" gradientUnits="userSpaceOnUse"><stop stop-color="#FFB48D"/><stop offset=".984" stop-color="#FFC2A9"/></linearGradient><linearGradient id="paint8_linear" x1="160.93" y1="289.299" x2="160.167" y2="282.819" gradientUnits="userSpaceOnUse"><stop stop-color="#FFCEB5"/><stop offset=".984" stop-color="#FFC2A9"/></linearGradient><linearGradient id="paint9_linear" x1="176.895" y1="195.531" x2=".063" y2="195.531" gradientUnits="userSpaceOnUse"><stop stop-color="#20B7D9"/><stop offset="1" stop-color="#20B7D9"/></linearGradient><linearGradient id="paint10_linear" x1="140.923" y1="262.32" x2="140.923" y2="208.986" gradientUnits="userSpaceOnUse"><stop stop-color="#CBF3FC"/><stop offset="1" stop-color="#CBF3FC"/></linearGradient><linearGradient id="paint11_linear" x1="49.981" y1="236.317" x2="49.981" y2="212.825" gradientUnits="userSpaceOnUse"><stop stop-color="#fff"/><stop offset="1" stop-color="#fff"/></linearGradient><linearGradient id="paint12_linear" x1="22.263" y1="236.317" x2="22.263" y2="212.825" gradientUnits="userSpaceOnUse"><stop stop-color="#C3F1F2"/><stop offset="1" stop-color="#CBF3FC"/></linearGradient><linearGradient id="paint13_linear" x1="78.162" y1="236.317" x2="78.162" y2="212.825" gradientUnits="userSpaceOnUse"><stop stop-color="#C7F2F7"/><stop offset="1" stop-color="#C9F2F9"/></linearGradient><linearGradient id="paint14_linear" x1="142.155" y1="415.814" x2="133.079" y2="336.428" gradientUnits="userSpaceOnUse"><stop stop-color="#A1E4F4"/><stop offset="1" stop-color="#A1E4F4"/></linearGradient><linearGradient id="paint15_linear" x1="487.507" y1="227.85" x2="487.507" y2="140" gradientUnits="userSpaceOnUse"><stop stop-color="#D7F2EC"/><stop offset="1" stop-color="#D5F5EE"/></linearGradient><linearGradient id="paint16_linear" x1="206.563" y1="110.931" x2="188.267" y2="95.424" gradientUnits="userSpaceOnUse"><stop stop-color="#B8EBFB"/><stop offset="1" stop-color="#BAEFFB"/></linearGradient><linearGradient id="paint17_linear" x1="220.218" y1="82.499" x2="213.648" y2="117.494" gradientUnits="userSpaceOnUse"><stop stop-color="#C7EFFC"/><stop offset="1" stop-color="#99E1F8"/></linearGradient><linearGradient id="paint18_linear" x1="202.297" y1="111.178" x2="180.611" y2="100.935" gradientUnits="userSpaceOnUse"><stop stop-color="#80E438"/><stop offset="1" stop-color="#BDF992"/></linearGradient><linearGradient id="paint19_linear" x1="208.128" y1="80.18" x2="210.839" y2="115.683" gradientUnits="userSpaceOnUse"><stop stop-color="#72DF24"/><stop offset="1" stop-color="#C9FDA3"/></linearGradient><linearGradient id="paint20_linear" x1="281.434" y1="190.81" x2="281.434" y2="200.152" gradientUnits="userSpaceOnUse"><stop stop-color="#F5C2A4"/><stop offset="1" stop-color="#BA523B"/></linearGradient><linearGradient id="paint21_linear" x1="297.215" y1="189.799" x2="297.215" y2="193.829" gradientUnits="userSpaceOnUse"><stop stop-color="#0E6299"/><stop offset="1" stop-color="#0E6299"/></linearGradient><linearGradient id="paint22_linear" x1="297.215" y1="191.781" x2="297.215" y2="193.829" gradientUnits="userSpaceOnUse"><stop stop-color="#132F2B"/><stop offset="1" stop-color="#15332F"/></linearGradient><linearGradient id="paint23_linear" x1="277.207" y1="187.506" x2="277.207" y2="191.806" gradientUnits="userSpaceOnUse"><stop stop-color="#0E6299"/><stop offset="1" stop-color="#0E6299"/></linearGradient><linearGradient id="paint24_linear" x1="277.455" y1="189.622" x2="277.455" y2="191.807" gradientUnits="userSpaceOnUse"><stop stop-color="#132D2A"/><stop offset="1" stop-color="#2C2E2D"/></linearGradient></defs></svg>