<svg width="360" height="689" fill="none" xmlns="http://www.w3.org/2000/svg"><path opacity=".7" d="M-26.808 570.707c-60.32-4.892-139.269 16.583-176.397 34.175-45.427 28.629 120.92 89.979 158.194 60.13 44.361-35.526 221.47-15.574 194.166-47.153-27.305-31.579-106.618-41.528-175.963-47.152z" fill="#EBFAFC"/><path d="M-103.013 541.846c-130.493 0-289.03 98.103-351.987 147.154V0H985v643.941c-59.905-14.639-200.776-45.743-285.024-53.044-105.31-9.126-293.878 30.377-451.574 19.963-95.008-6.274-188.299-69.014-351.415-69.014z" fill="url(#paint0_linear)"/><defs><linearGradient id="paint0_linear" x1="-455" y1="368.5" x2="984.999" y2="344.967" gradientUnits="userSpaceOnUse"><stop stop-color="#EBF9FD"/><stop offset="1" stop-color="#EBFDF5"/></linearGradient></defs></svg>