<svg width="1440" height="613" fill="none" xmlns="http://www.w3.org/2000/svg"><path opacity=".7" d="M368.192 491.707c-60.321-4.892-139.269 16.583-176.397 34.175-45.427 28.629 120.921 89.979 158.193 60.13 44.362-35.526 221.471-15.574 194.167-47.153-27.305-31.579-106.618-41.528-175.963-47.152z" fill="#EBFAFC"/><path d="M351.987 465.846C221.494 465.846 62.957 563.949 0 613V0h1440v567.941c-59.9-14.639-200.78-45.743-285.02-53.044-105.31-9.125-293.882 30.377-451.578 19.963-95.008-6.274-188.299-69.014-351.415-69.014z" fill="url(#paint0_linear)"/><defs><linearGradient id="paint0_linear" x1="0" y1="292.5" x2="1440" y2="268.967" gradientUnits="userSpaceOnUse"><stop stop-color="#EBF9FD"/><stop offset="1" stop-color="#EBFDF5"/></linearGradient></defs></svg>