<svg width="741" height="856" fill="none" xmlns="http://www.w3.org/2000/svg"><path d="M640.272 431.469c2.774-52.682-79.283-111.758-91.516-44.804-8.004 56.687-34.846 52.702-41.238 84.065-8.566 41.638 45.172 65.514 45.151 65.576 62.288 25.208 84.381-43.628 87.603-104.837z" fill="url(#paint0_linear)"/><path d="M187.408 151.161c-45.251-3.795-82.466 60.298-101.074 109.212-12.264 36.264-6.767 83.068 16.916 110.055 18.946 21.589 69.921 49.757 93.04 61.142C230.122 457.713 236.875 480 307.5 480c48.042 1.687 84.595-32.688 96.437-74.574 7.189-22.77 26.786-34.577 31.295-71.262 10.572-86.02-90.947-100.492-121.05-112.951-30.103-12.459-53.123-63.875-126.774-70.052z" fill="#fff"/><path d="M508.824 437.547c7.854-4.775 1.522-25.642-8.207-19.237-7.886 5.783-11.407 1.184-16.063 4.083-6.193 3.836-1.021 15.008-1.031 15.013 6.286 12.644 16.736 8.687 25.301.141z" fill="url(#paint1_linear)"/><path d="M777 95c-99.576-67.858-350.52 154.043-238.272 240.009C650.1 399.102 617.067 457.077 676.88 497.015c79.336 53.207 164.659-46.156 164.769-46.059C951.739 329.332 924.066 155.339 777 95z" fill="url(#paint2_linear)"/><path d="M406.554 269.376s4.471-6.775 6.134-12.551c2.125-5.502 4.007-6.836 4.007-6.836s1.427-.85 2.192.189c.765 1.04 1.045 2.752-.945 7.962-2.974 4.057-6.627 15.288-6.627 15.288l1.629.731 5.41-3.049 1.89.326s6.2 13.221 3.883 18.355l-3.237 4.025-12.029-5.837-4.352-12.129 2.045-6.474z" fill="#F49C6E"/><path d="M419.877 271.444s-2.647 5.727-6.085 10.059c0 0-.615 2.145 1.863 3.434l.887-.379s-.505 2.54 1.666 3.69l2.892-1.033-1.233 1.434s.045 2.096 2.075 2.923c0 0 4.411-.954 5.924-4.164l-2.22-4.113.845-2.041-2.836-4.39.528-1.492c.03-.073-1.583-2.789-4.306-3.928z" fill="url(#paint3_linear)"/><path d="M401.109 277.662c-.141 2.112.04 10.598.146 12.56.107 1.962.024 7.162.024 7.162-.17 2.148-.877 5.147-.877 5.147l9.499 3.001s2.283-.568 3.5-1.5l1.536-2.81c.72-1.069 5.773-7.051 5.773-7.051l-6.265-6.205c-1.616-5.424-7.569-13.49-7.569-13.49l.465-2.227c6.085-1.621 9.123-8.432 8.51-9.838-.536-1.372-2.322-2.173-2.322-2.173s-4.746 5.437-7.315 7.851c-2.353 2.337-4.965 7.461-5.105 9.573z" fill="url(#paint4_linear)"/><path d="M424.404 275.268s-3.933 6.925-7.869 9.381c0 0 4.709-2.287 7.298-7.795l.571-1.586zm2.067 5.892s-3.226 5.528-8.5 7.088c0 0 4.103-.079 7.644-5.031l.856-2.057z" fill="#F49C6E"/><path opacity=".35" d="M174.719 119.197c-53.386-4.641-97.293 73.736-119.246 133.55-14.47 44.346-7.983 101.581 19.957 134.582C97.783 413.729 149.725 439.078 177 453c39.915 31.97 73.5 69.408 138 64.5 46-3.5 88.5-34 110.5-88.5 8.482-27.845 31.402-47.484 40-86.5 12.474-105.19-106.423-130.662-141.938-145.898-35.515-15.235-61.95-69.852-148.843-77.405z" stroke="#3CCB21" stroke-linecap="round" stroke-dasharray="3 3"/><mask id="a" maskUnits="userSpaceOnUse" x="80" y="151" width="356" height="330"><path d="M187.409 151.161c-45.251-3.795-82.467 60.298-101.075 109.212-12.264 36.264-6.767 83.068 16.916 110.055 18.946 21.589 69.921 49.757 93.04 61.142C230.122 457.713 236.875 480 307.5 480c48.042 1.687 84.595-32.688 96.437-74.574 7.189-22.77 26.786-34.577 31.295-71.262 10.572-86.02-90.947-100.492-121.05-112.951-30.103-12.459-53.123-63.875-126.773-70.052z" fill="#fff"/></mask><g mask="url(#a)"><path d="M391.916 690.803l-8.903 4.748s-48.371-51.19-59.944-100.451c-2.078-8.755-2.968-17.509-2.078-25.67 0 0-.742-2.225-1.929-6.232 0-.148-.148-.296-.148-.593-.594-1.781-1.187-3.71-1.929-6.084-2.374-7.418-5.49-17.656-9.199-29.23-8.458-26.708-27.598-86.801-35.908-111.728l59.055-21.366s6.677 15.283 16.321 56.977c1.484 5.49 2.968 11.425 4.303 17.953a303.208 303.208 0 014.303 24.334c2.077 14.838-.148-2.359 0 16.039 0 7.419 3.413 48.95 2.967 56.963-.296 5.786.594 13.65 2.226 22.405 7.567 40.507 30.863 101.935 30.863 101.935z" fill="#205080"/><path d="M195.168 340.78c-.297.297-14.393-14.244-21.96-22.256l7.567-4.6 41.397 25.966-27.004.89z" fill="#FFB48D"/><path d="M310.011 170.295c.297-1.335 3.71-14.838 24.631-11.87 0 0-10.535-.594-13.057 3.709 0 0 8.012-4.303 13.354-1.632 5.341 2.819 6.974 13.354 6.528 16.618-.593 3.265-5.49 13.354-9.347 13.651-1.484.149-2.968-.297-4.452-.742.742 1.632 1.336 3.561 1.929 5.49 5.342 18.547-6.083 33.83-12.909 30.714-4.303-1.929-6.973 5.49-6.973 5.49l-37.837-43.326c.149 0 22.109-30.566 38.133-18.102z" fill="#4A2009"/><path d="M271.285 286.327c4.896 3.412 11.128 6.232 18.844 8.012 29.082 6.677 40.21-17.805 44.364-34.72-4.006-2.226-7.715-2.819-9.793-2.968a45.303 45.303 0 00-6.083-.445c-3.264-2.522-8.161-12.76-9.199-28.637l-1.336.297-22.998 6.232s1.038 7.27 1.632 14.244c.445 5.342.445 10.535-.594 11.87-1.78.445-2.819.594-2.819.594-.445.445-6.973 11.425-12.018 25.521z" fill="#FFB48D"/><path d="M285.084 234.097s1.038 7.27 1.632 14.244c13.057-1.336 18.992-13.651 21.366-20.476l-22.998 6.232z" fill="#F6A071"/><path d="M281.226 240.922s30.863-1.632 29.527-20.921c-1.335-19.141 1.781-32.347-18.102-32.05-19.734.297-22.998 7.864-24.185 14.393-1.039 6.528 4.748 38.578 12.76 38.578z" fill="#FFB48D"/><path d="M268.614 191.661c4.303-6.083 8.012-5.044 10.238-3.561 16.173-10.534 28.043 2.374 28.043 2.374 3.116 13.651 13.503 20.773 13.503 20.773s-5.342 3.858-18.547 1.484c-4.007-.742-7.716-3.264-10.98-6.529 5.935 8.458 13.502 14.245 13.502 14.245-16.025-6.084-23.74-27.153-24.482-29.379-1.781 1.78-5.193 5.787-6.084 9.496-1.187 5.045-1.187 15.135-4.154 14.986 0 .149-7.567-14.689-1.039-23.889z" fill="#4A2009"/><path d="M276.181 259.172s50.3-12.167 72.112 5.787L336.11 337.5l-6.61 20 6.61 20.611 1.203 39.083-84.011-18.248s-7.625-15.468 11.219-41.137c18.844-25.521 6.912-62.729 11.66-98.637z" fill="#FFB48D"/><path d="M305.56 400.28s0 .445-.148 1.484c0 .445-.149.89-.149 1.483-.445 4.007-1.187 11.574-2.225 21.367-2.671 25.817 5.044 55.243 2.225 87.886-2.225 25.521-15.728 57.969-14.986 61.233 2.374 9.793 0 126.862 0 126.862-8.309 4.007-21.069 0-21.069 0s-22.257-105.496-19.141-120.037c3.116-14.689-2.077-27.153-2.077-27.153-17.212-80.42-11.277-120.27-7.864-141.636 1.038-6.232 5.34-18.314 6.231-20.985.742-2.226-6.231 0-6.231 0 38.133-10.238 65.434 9.496 65.434 9.496z" fill="#205080"/><path d="M337.713 417.67c-10.999 4.887-21.999 7.109-32.302 7.405-9.468.296-18.518-.741-26.593-2.666-17.683-4.147-31.189-11.7-36.201-14.958.974-6.22 1.949-10.366 2.784-13.032 10.861-8.294 37.733-.296 59.732 8.441.835.296 1.531.593 2.367.889 16.708 6.96 30.213 13.921 30.213 13.921z" fill="#284663"/><path fill-rule="evenodd" clip-rule="evenodd" d="M358.234 269.856c-6.826-10.535-31.456-13.502-31.456-13.502l.119.385c-.375 1.081-4.508 11.724-22.673 13.414-19.14 1.78-27.004-10.832-27.004-10.832s-18.993 1.929-26.115 15.58c-5.804 11.064-11.22 30.442-15.333 45.159-2.617 9.362-4.706 16.838-6.033 19.088l-27.153-12.167s-8.012.742-11.425 3.116c-5.342 3.561-5.045 7.419-5.045 7.419s42.436 31.604 53.119 28.043c9.793-3.264 19.586-21.96 24.779-38.133 3.71 11.129 2.819 16.47 2.077 18.102-.331.747-1.435 2.853-3.004 5.846-6.848 13.062-22.552 43.021-21.587 50.626 8 22.5 68.524 26.903 89 18 .256-.11.957-.327 1.876-.612 2.813-.873 7.677-2.382 8.124-3.388 0-17-4.5-54.5-4.5-54.5 0-8.853 2.497-17.186 5.126-25.963 1.95-6.506 3.972-13.257 5.105-20.645l14.455 26.356c20.301 48.083 53.959-38.452 53.959-38.452-14.959 1.055-15.493-3.754-15.493-3.754l-18.165 25.644C376 309 366.84 283.21 358.234 269.856z" fill="url(#paint5_linear)"/><path d="M335.5 359s5.5 44 4.394 57.114C324.39 410.185 314.014 389.3 318 364.5c5.791-35.825 29.045-51.47 29.045-51.47C340.5 338 337.976 347.063 335.5 359z" fill="#37A7F3" fill-opacity=".7"/><path d="M158.052 307.706s8.388 12.001 17.234 14.956l2.897-.34 7.593 9.026s4.024-3.114 3.562-11.837c0 0-1.668-1.374-2.191-3.025 0 0 2.215-2.116 2.74-3.533.524-1.418.359-5.466.64-7.14.28-1.674 3.862-5.592 4.691-6.118.828-.525 4.718-1.197 4.718-1.197s.446-1.48-.194-2.047c-.64-.567-5.119-2.03-8.242.549 0 0-1.88 1.57-2.155 2.53-.275.96-2.949 4.414-3.384 4.465-.434.051-2.616-1.333-3.599-2.431-.91-1.106-6.284-9.893-7.592-12.879l-.007-.071c-.006-.071-.006-.071-.086-.133l-.006-.07-.007-.071c-2.019-2.91-4.149-5.525-7.012-7.072 0 0-1.558.207-2.01 1.616 0 0 .954 3.765 3.448 6.897.415.522.845 1.185 1.346 1.84 2.125 3.104 4.627 7.091 4.977 7.692l.006.071-1.104.7-3.389-2.527-3.46-2.519-6.603 8.341.811.833 2.512 2.558-1.138.348-2.954-2.578-2.042 3.166z" fill="url(#paint6_linear)"/><path d="M167.562 294.831s-2.192-.027-3.375 2.887l.376.881s-2.126.676-3.826 4.291c0 0 2.112 3.024 6.799 3.967 0 0 2.04-.809 2.234-2.611l-.54-1.074 1.774 1s2.002.334 2.601-2.582l-6.043-6.759z" fill="url(#paint7_linear)"/><path d="M157.574 306.594s-.628-1.993 1.486-3.595l4.778 4.14s-.004 1.497-1.85 2.07c.007.071-3.051-.567-4.414-2.615z" fill="url(#paint8_linear)"/><path d="M164.634 298.516s2.418 3.138 4.677 4.583l.541 1.077s-4.305-2.202-6.119-5.126c0 0 .401-.404.901-.534z" fill="#F49C6E"/></g><path opacity=".6" d="M176.991 217.255l-3.196 91.682c-.1 3.596-3.096 6.492-6.791 6.492H9.106a6.758 6.758 0 01-6.79-6.592l-2.198-92.78c-.1-3.796 2.996-6.992 6.791-6.892l163.39 1.099c3.795 0 6.891 3.196 6.692 6.991z" fill="#22C1E4" fill-opacity=".71"/><path opacity=".7" d="M176.791 221.948H.318l-.3-4.794c-.3-4.294 3.196-7.89 7.49-7.79l163.29 1.299c3.396 0 6.093 2.796 6.093 6.192l-.1 5.093z" fill="url(#paint9_linear)"/><path opacity=".3" d="M167.902 229.34v53.032h-54.03v-53.331l54.03.299z" fill="url(#paint10_linear)"/><path opacity=".6" d="M38.269 232.935h23.47v23.47h-23.47v-23.47z" fill="url(#paint11_linear)"/><path d="M10.505 232.935h23.47v23.47h-23.47v-23.47z" fill="url(#paint12_linear)"/><path d="M66.433 232.935h23.47v23.47h-23.47v-23.47z" fill="url(#paint13_linear)"/><path d="M10.505 272.299h75.103v1.698H10.505v-1.698zm60.023-11.836h14.381v1.698H70.528v-1.698zm-27.765 0h14.382v1.698H42.763v-1.698zm-27.664 0H29.48v1.698H15.1v-1.698zm-4.594 15.304h75.103v1.698H10.505v-1.698zm-.001 2.796h79.398v1.698H10.504v-1.698zm0 2.798h79.398v1.698H10.504v-1.698zm.001 11.284h75.103v1.697H10.505v-1.697zm-.001 2.796h79.398v1.698H10.504v-1.698zm0 2.797h79.398v1.698H10.504v-1.698zm3.196-14.083h76.202v1.698H13.7v-1.698zm-3.195 2.798h75.103v1.698H10.505v-1.698zm15.08 2.796h64.317v1.698H25.585v-1.698z" fill="#fff"/><path d="M152.822 271.784c8.489 0 15.38-6.891 15.38-15.38s-6.891-15.381-15.38-15.381-15.38 6.892-15.38 15.381 6.891 15.38 15.38 15.38zm0-29.762c7.89 0 14.381 6.492 14.381 14.382s-6.491 14.381-14.381 14.381c-7.89 0-14.382-6.491-14.382-14.381 0-7.89 6.392-14.382 14.382-14.382z" fill="#E0FFFF"/><path d="M152.822 264.793a8.39 8.39 0 01-8.389-8.39 8.39 8.39 0 0116.778 0 8.39 8.39 0 01-8.389 8.39z" fill="#fff"/><path d="M113.872 244.42c8.489 0 15.38-6.891 15.38-15.38s-6.891-15.38-15.38-15.38-15.38 6.891-15.38 15.38c.1 8.489 6.991 15.38 15.38 15.38zm0-29.762c7.89 0 14.381 6.492 14.381 14.382s-6.491 14.381-14.381 14.381c-7.89 0-14.382-6.491-14.382-14.381.1-7.89 6.492-14.382 14.382-14.382z" fill="#E0FFFF"/><path d="M106.16 230.244a7.89 7.89 0 1115.59-2.45 7.89 7.89 0 01-15.59 2.45zM4.712 214.158h54.33v2.696H4.712v-2.696z" fill="#fff"/><g opacity=".9"><path opacity=".81" d="M96.288 432.025h79.338c3.527 0 7.399-2.54 7.481-5.751l.477-59.225c.082-3.286-2.872-6.049-6.482-6.049H94.483c-3.692 0-6.563 2.763-6.481 6.049l.805 59.225c.082 3.211 3.953 5.751 7.481 5.751z" fill="url(#paint14_linear)"/><path d="M106 373.099h61v1.764h-61v-1.764zm30.5 4.249H167v1.764h-30.5v-1.764zm0 3.528H167v1.764h-30.5v-1.764zm-27.738 0h24.256v1.764h-24.256v-1.764zm9.006 3.527H167v1.764h-49.232v-1.764zm31.701 3.529H167v1.764h-17.531v-1.764zm-33.862 10.664h30.259v1.764h-30.259v-1.764zm-3.483-7.136H167v1.764h-54.876v-1.764zm12.608 3.607H167v1.764h-42.268v-1.764zm22.455 3.529H167v1.764h-19.813v-1.764zm-10.687 3.528H167v1.764h-30.5v-1.764zm21.734 3.528H167v1.764h-8.766v-1.764zm-35.423 0h31.821v1.764h-31.821v-1.764zm-7.204 3.45h30.259v1.764h-30.259v-1.764zm31.58 0H167v1.764h-19.813v-1.764zm-10.687 3.525H167v1.764h-30.5v-1.764zm21.734 3.609H167V418h-8.766v-1.764zm-35.423 0h31.821V418h-31.821v-1.764z" fill="#fff"/></g><path d="M445.323 247.889h84.186c9.203 0 14.047-5.869 14.323-13.244l.168-60.499c0-10.559-5.52-14.146-12.559-14.146h-87.774c-7.038 0-12.667 3.587-12.559 14.146L431 234.645c.138 7.375 3.532 13.244 14.323 13.244z" fill="url(#paint15_linear)"/><path d="M441.818 167.841h90.596a2 2 0 012 2v52.182a2 2 0 01-2 2h-90.596a2 2 0 01-2-2v-52.182a2 2 0 012-2z" fill="#3ED01F"/><path d="M495.584 195.975l-16.018 9.248.237-19.969 15.781 10.721z" fill="#fff"/><path d="M439.818 234.346h94.596v5.077h-94.596v-5.077z" fill="#3ED01F"/><path d="M509.876 234.346h24.538v5.077h-24.538v-5.077z" fill="#fff"/><path d="M212.159 125.527c-9.061-.396-18.824-6.905-21.942-9.992l-9.812 10.556c.236 2.219 8.193 6.758 11.975 7.468 11.267.811 19.72-7.717 19.779-8.032z" fill="url(#paint16_linear)"/><path d="M239.186 118.856l-27.002-17.794c2.37 3.598 4.804 12.647.448 21.944-5.509 11.759-20.508 10.179-20.252 10.553 28.143 5.806 42.931-7.383 46.806-14.703z" fill="url(#paint17_linear)"/><path d="M206.285 124.512c-8.855 1.963-19.969-1.798-23.78-3.973l-6.746 12.736c.802 2.083 9.663 4.408 13.5 4.115 11.093-2.133 17.051-12.558 17.026-12.878z" fill="url(#paint18_linear)"/><path d="M230.665 111.073l-30.687-10.199c3.22 2.863 7.913 10.973 6.112 21.08-2.278 12.785-17.175 15.141-16.831 15.436 28.687-1.676 39.557-18.243 41.406-26.317z" fill="url(#paint19_linear)"/><path d="M216.345 113.977c-.193-.084-.269-.332-.169-.555l1.144-2.553c.1-.223.337-.336.531-.252.193.084.269.333.169.556l-1.144 2.553c-.1.223-.337.335-.531.251zm-4.615-1.445c-.256-.09-.4-.347-.322-.573l.893-2.592c.078-.226.349-.336.605-.246.256.09.4.347.322.573l-.893 2.592c-.078.226-.349.336-.605.246zm8.894 2.968l-1.181-.418c-.246-.087-.383-.339-.306-.564l.88-2.549c.078-.225.34-.336.587-.249l1.18.417c.247.088.384.34.306.565-.077.224-.34.335-.586.248l-.734-.259-.6 1.737.734.259c.247.087.384.34.306.564-.077.224-.34.336-.586.249z" fill="#53AE12"/><path d="M220.968 114.177l-1.066-.375c-.241-.084-.374-.329-.299-.547.076-.218.332-.326.573-.241l1.066.375c.24.084.374.329.299.547-.076.218-.332.326-.573.241zm-6.433-.748c-1.025-.371-1.608-1.419-1.297-2.336.31-.916 1.397-1.36 2.423-.989.373.135.7.363.945.661.162.197.132.464-.068.597-.2.133-.494.08-.656-.117a1.135 1.135 0 00-.491-.343c-.533-.193-1.099.038-1.26.515-.161.476.141 1.021.675 1.214.193.07.371.077.529.023a.564.564 0 00.092-.039.516.516 0 01.646.178c.141.21.08.471-.136.583a1.682 1.682 0 01-.209.089c-.367.126-.78.113-1.193-.036zm-4.92-1.599c-.252-.088-.392-.343-.313-.57l.877-2.515c.079-.226.348-.339.6-.251.251.088.392.343.312.57l-.877 2.515c-.079.226-.348.339-.599.251zm12.99 4.358c-.252-.088-.392-.343-.313-.57l.878-2.515c.079-.226.347-.339.599-.251.252.088.392.343.313.57l-.878 2.515c-.079.226-.347.339-.599.251z" fill="#53AE12"/><path d="M211.312 109.468l-1.519-.532c-.24-.084-.374-.327-.298-.544.075-.217.331-.324.571-.24l1.519.532c.24.084.373.328.298.544-.075.217-.331.324-.571.24zm12.99 4.358l-1.52-.532c-.24-.084-.373-.328-.298-.545.076-.216.331-.323.571-.239l1.52.532c.24.084.373.327.298.544-.076.216-.331.324-.571.24zm-6.039.893a.498.498 0 01-.269-.222l-1.063-1.88a.417.417 0 01-.034-.345.412.412 0 01.245-.243l1.837-.689a.507.507 0 01.62.247.402.402 0 01-.224.563l-1.388.521.825 1.461a.401.401 0 01-.186.577.49.49 0 01-.363.01z" fill="#53AE12"/><path d="M310.052 170.295c.297-1.335 3.709-14.838 24.631-11.87 0 0-10.535-.594-13.058 3.709 0 0 8.013-4.303 13.354-1.632 5.342 2.819 6.974 13.354 6.529 16.618-.594 3.265-5.49 13.354-9.348 13.651-1.484.149-2.967-.297-4.451-.742.742 1.632 1.335 3.561 1.929 5.49 5.341 18.547-6.084 33.83-12.909 30.714-4.303-1.929-6.974 5.49-6.974 5.49l-37.836-43.326c.148 0 22.108-30.566 38.133-18.102z" fill="#1E4843"/><path d="M285.124 234.097s1.039 7.27 1.633 14.244c13.057-1.336 18.992-13.651 21.366-20.476l-22.999 6.232z" fill="#F6A071"/><path d="M281.267 240.922s30.862-1.632 29.527-20.921c-1.336-19.141 1.78-32.347-18.102-32.05-19.734.297-22.999 7.864-24.186 14.393-1.038 6.528 4.748 38.578 12.761 38.578z" fill="#FFB48D"/><path fill-rule="evenodd" clip-rule="evenodd" d="M279.146 217.995c-.394.438-.788.875-1.094 1.357-.569.787-.832 1.706-.307 2.537.657 1.051 1.882 1.97 3.107 2.32.088.043.131-.088.044-.132a5.628 5.628 0 01-1.969-1.181c-.482-.394-1.007-1.007-1.138-1.663-.206-.987.517-1.859 1.113-2.578.038-.045.076-.09.112-.135 1.619-2.013 2.276-4.551 2.276-7.132-.044 1.575-.307 3.238-.963 4.682-.306.7-.7 1.356-1.181 1.925zm6.18 3.489a1.53 1.53 0 01-.054.712c-.132.525-.438.831-.876 1.137-.043.044 0 .088.044.088.894-.16 1.019-1.111.886-1.937zm-.127-.539zm-.102-.281z" fill="url(#paint20_linear)"/><path d="M292.587 227.2l.704 1.532s1.077-1.035-.704-1.532zm-15.693-1.2l-.828 1.201s-.414-.953.828-1.201z" fill="#D78A6F"/><path d="M293.208 228.112l-.455.58s-3.81 3.353-7.454 4.513c-3.643 1.159-5.852.06-6.798-1.359 0 0-.473-.473-.613-1.788-.114-1.071-1.16-2.981-1.16-2.981s1.325.082 1.491.165c.166.042 2.153 1.118 2.153 1.118s2.691.994 2.857.953c.166-.042 6.915-.953 6.915-.953l3.064-.248z" fill="#FE56AB"/><path d="M292.752 228.153s-3.561 2.733-7.867 3.271c-1.49.207-4.679.497-5.631-1.366-.124-.207-.248-.621-.29-.87-.207-.786-.662-1.49-1.366-1.904l2.194.082 1.864.704 1.159.249 1.449-.207h5.59l2.898.041z" fill="#fff"/><path d="M291.593 228.112h1.159s-.828.621-2.194 1.366c.538-.621.952-1.242.952-1.242l.083-.124zm-12.96-.787l.083.29s.041.704.124 1.366c-.207-.703-.704-1.283-1.284-1.656h1.077z" fill="#000"/><path d="M276.397 226.704c1.408 1.077 4.306 1.491 4.306 1.491 1.574.993 2.485.331 2.485.331 3.519.124 6.666.124 10.144-.497 0 0-6.666-.455-10.517-.497l-.911.456-.787-.58s-2.401-.497-3.105-.58a28.016 28.016 0 00-1.615-.124z" fill="#FE56AB"/><path d="M293.374 228.069a37.96 37.96 0 01-6.087.622c-1.035.041-2.112 0-3.147 0-.248 0-.497 0-.787-.042-.124 0-.082-.041-.124 0a1.243 1.243 0 01-.414.166c-.58.165-1.201-.042-1.739-.29-.166-.083-.29-.207-.497-.248-.207-.042-.372-.083-.58-.125-1.242-.248-2.65-.579-3.602-1.408-.041-.041 0-.124.083-.082 1.077.704 2.319 1.076 3.602 1.325.29.041.621.082.87.207.58.372 1.325.579 2.029.372.041 0 .207-.082.207-.124.083-.083.29 0 .372 0 .249 0 .497 0 .787.042a72.3 72.3 0 002.981.041c1.988-.041 4.017-.166 6.046-.456 0-.041 0 0 0 0z" fill="#EA448A"/><path d="M281 204s-2.302-1.228-3.377-1.916c-.87-.589-5.065-1.326-7.623 1.523 0 0-.102-1.031 2.558-2.849 2.661-1.768 7.93-.344 8.442 3.242z" fill="#1E4843"/><path d="M304.394 206.188s-2.845-3.763-9.014-3.632c-4.77.132-5.076.832-6.52-.393 0 0 .437-.963 3.238-1.182 2.8-.219 9.233-.219 12.296 5.207z" fill="#000"/><path d="M290.785 212.971c1.882-4.199 5.295-4.535 8.008-3.426 1.575.638 2.625 1.478 3.194 2.016 1.706.739 2.757-.437 2.757-.437-.569.84-1.619 1.075-2.188 1.176-2.276 2.25-5.776 2.586-5.776 2.586s-4.857-1.343-5.601-1.612c-.7-.202-.394-.303-.394-.303z" fill="#1E4843"/><path d="M290.654 213.375c1.094-2.15 2.625-4.501 6.082-3.695 1.794.403 3.457 1.243 4.988 2.855 0 0-2.1 1.949-5.338 2.385-3.238.437-4.901-1.209-4.901-1.209l-.962-.034.131-.302z" fill="#fff"/><path d="M293.892 211.93c0-1.041.744-1.948 1.794-2.385.35 0 .7.067 1.094.134 1.313.303 2.581.807 3.763 1.714.044.167.044.335.044.503 0 .975-.657 1.848-1.619 2.318-.175.067-.394.168-.613.235-.35.101-.7.168-1.094.168-1.881 0-3.369-1.209-3.369-2.687z" fill="url(#paint21_linear)"/><path d="M295.248 211.931c0 .873.875 1.579 1.969 1.579s1.969-.706 1.969-1.579c0-.874-.875-1.579-1.969-1.579s-1.969.705-1.969 1.579z" fill="#1E4843"/><path d="M295.423 211.93c0 .806.788 1.444 1.794 1.444.963 0 1.794-.638 1.794-1.444 0-.806-.787-1.445-1.794-1.445-.962 0-1.794.639-1.794 1.445z" fill="url(#paint22_linear)"/><path d="M301.724 212.535c-.875-.874-1.925-1.68-3.238-2.217-1.094-.471-2.406-.84-3.675-.672-2.363.302-3.326 2.318-4.157 3.762 0 .034-.088 0-.088-.033.7-1.546 1.926-3.595 4.289-3.897 1.225-.168 2.537.235 3.631.672 1.357.571 2.407 1.444 3.238 2.385.044 0 0 0 0 0zM269 209.245s1.191 1.083 2.219.505c.433-.866 1.353-2.309 2.869-2.743 2.22-.649 5.412-1.007 6.412 3.493.625 2.815-5.546 2.174-5.546 2.174s-2.76-.939-3.843-2.058c-.487-.18-1.516-.649-2.111-1.371z" fill="#1E4843"/><path d="M271.761 210.509c.757-1.877 2.706-3.646 5.467-3.212 2.436.36 3.031 3.5 3.031 5.233v.18l-.92-.18s-1.732.649-3.789.288c-2.003-.361-3.789-2.309-3.789-2.309z" fill="#fff"/><path d="M277.444 212.638c-1.732 0-3.193-1.299-3.193-2.887 0-1.046.649-1.985 1.57-2.49a5.747 5.747 0 011.353.036c1.949.289 2.706 2.31 2.923 4.006-.541.794-1.516 1.335-2.653 1.335z" fill="url(#paint23_linear)"/><path d="M275.604 209.751c0 .939.812 1.697 1.841 1.697 1.028 0 1.84-.758 1.84-1.697 0-.938-.812-1.696-1.84-1.696-1.029.036-1.841.758-1.841 1.696z" fill="#1E4843"/><path d="M275.767 209.752c0 .83.757 1.515 1.678 1.515.92 0 1.678-.685 1.678-1.515 0-.83-.758-1.516-1.678-1.516-.921 0-1.678.686-1.678 1.516z" fill="url(#paint24_linear)"/><path d="M280.205 212.565c0-.866-.108-1.696-.379-2.526-.271-.83-.704-1.697-1.678-2.274-1.083-.65-2.707-.397-3.789.108-1.354.65-1.949 1.733-2.544 2.707-.055.072-.163.036-.163-.036.271-1.047 1.137-2.165 2.436-2.815 1.083-.541 2.653-.758 3.843-.253 1.083.469 1.516 1.444 1.787 2.202a6.68 6.68 0 01.487 2.887c.054 0 0 0 0 0z" fill="#1E4843"/><path d="M268.655 191.661c4.303-6.083 8.012-5.044 10.238-3.561 16.173-10.534 28.043 2.374 28.043 2.374 3.116 13.651 13.502 20.773 13.502 20.773s-4.232 2.374-17.438 0c-4.006-.742-9.736-2.983-13-6.247 5.935 8.458 14.414 15.447 14.414 15.447-16.025-6.084-23.741-27.153-24.483-29.379-1.78 1.78-5.193 5.787-6.083 9.496-1.187 5.045-1.187 15.135-4.155 14.986 0 .149-7.567-14.689-1.038-23.889z" fill="#1E4843"/><defs><linearGradient id="paint0_linear" x1="662.225" y1="407.293" x2="487.145" y2="485.555" gradientUnits="userSpaceOnUse"><stop stop-color="#6BDD24"/><stop offset="1" stop-color="#39CA21"/></linearGradient><linearGradient id="paint1_linear" x1="514.93" y1="438.036" x2="477.919" y2="427.888" gradientUnits="userSpaceOnUse"><stop stop-color="#6BDD24"/><stop offset=".807" stop-color="#6DDE24"/></linearGradient><linearGradient id="paint2_linear" x1="662.394" y1="-157.267" x2="803.039" y2="741.196" gradientUnits="userSpaceOnUse"><stop stop-color="#FFEC00" stop-opacity=".75"/><stop offset="1" stop-color="#F5F13C" stop-opacity=".45"/></linearGradient><linearGradient id="paint3_linear" x1="418.564" y1="289.981" x2="425.727" y2="274.073" gradientUnits="userSpaceOnUse"><stop offset=".016" stop-color="#FFB48D"/><stop offset="1" stop-color="#FFB48D"/></linearGradient><linearGradient id="paint4_linear" x1="401.447" y1="303.801" x2="419.8" y2="262.922" gradientUnits="userSpaceOnUse"><stop offset=".016" stop-color="#FFB48D"/><stop offset="1" stop-color="#FFB48D"/></linearGradient><linearGradient id="paint5_linear" x1="230" y1="291.566" x2="352.081" y2="366.019" gradientUnits="userSpaceOnUse"><stop offset=".079" stop-color="#1392E8"/><stop offset="1" stop-color="#5FBFFF"/></linearGradient><linearGradient id="paint6_linear" x1="181.868" y1="331.809" x2="175.617" y2="278.667" gradientUnits="userSpaceOnUse"><stop offset=".016" stop-color="#FFB48D"/><stop offset="1" stop-color="#FFB48D"/></linearGradient><linearGradient id="paint7_linear" x1="167.66" y1="306.745" x2="166.272" y2="294.946" gradientUnits="userSpaceOnUse"><stop stop-color="#FFB48D"/><stop offset=".984" stop-color="#FFC2A9"/></linearGradient><linearGradient id="paint8_linear" x1="160.93" y1="309.371" x2="160.167" y2="302.891" gradientUnits="userSpaceOnUse"><stop stop-color="#FFCEB5"/><stop offset=".984" stop-color="#FFC2A9"/></linearGradient><linearGradient id="paint9_linear" x1="176.895" y1="215.603" x2=".063" y2="215.603" gradientUnits="userSpaceOnUse"><stop stop-color="#20B7D9"/><stop offset="1" stop-color="#20B7D9"/></linearGradient><linearGradient id="paint10_linear" x1="140.923" y1="282.392" x2="140.923" y2="229.058" gradientUnits="userSpaceOnUse"><stop stop-color="#CBF3FC"/><stop offset="1" stop-color="#CBF3FC"/></linearGradient><linearGradient id="paint11_linear" x1="49.981" y1="256.388" x2="49.981" y2="232.896" gradientUnits="userSpaceOnUse"><stop stop-color="#fff"/><stop offset="1" stop-color="#fff"/></linearGradient><linearGradient id="paint12_linear" x1="22.263" y1="256.388" x2="22.263" y2="232.896" gradientUnits="userSpaceOnUse"><stop stop-color="#C3F1F2"/><stop offset="1" stop-color="#CBF3FC"/></linearGradient><linearGradient id="paint13_linear" x1="78.162" y1="256.388" x2="78.162" y2="232.896" gradientUnits="userSpaceOnUse"><stop stop-color="#C7F2F7"/><stop offset="1" stop-color="#C9F2F9"/></linearGradient><linearGradient id="paint14_linear" x1="142.155" y1="435.886" x2="133.079" y2="356.499" gradientUnits="userSpaceOnUse"><stop stop-color="#A1E4F4"/><stop offset="1" stop-color="#A1E4F4"/></linearGradient><linearGradient id="paint15_linear" x1="487.507" y1="247.921" x2="487.507" y2="160.071" gradientUnits="userSpaceOnUse"><stop stop-color="#D7F2EC"/><stop offset="1" stop-color="#D5F5EE"/></linearGradient><linearGradient id="paint16_linear" x1="206.563" y1="131.002" x2="188.267" y2="115.495" gradientUnits="userSpaceOnUse"><stop stop-color="#B8EBFB"/><stop offset="1" stop-color="#BAEFFB"/></linearGradient><linearGradient id="paint17_linear" x1="220.218" y1="102.57" x2="213.648" y2="137.565" gradientUnits="userSpaceOnUse"><stop stop-color="#C7EFFC"/><stop offset="1" stop-color="#99E1F8"/></linearGradient><linearGradient id="paint18_linear" x1="202.297" y1="131.249" x2="180.611" y2="121.006" gradientUnits="userSpaceOnUse"><stop stop-color="#80E438"/><stop offset="1" stop-color="#BDF992"/></linearGradient><linearGradient id="paint19_linear" x1="208.128" y1="100.252" x2="210.84" y2="135.754" gradientUnits="userSpaceOnUse"><stop stop-color="#72DF24"/><stop offset="1" stop-color="#C9FDA3"/></linearGradient><linearGradient id="paint20_linear" x1="281.434" y1="210.881" x2="281.434" y2="220.223" gradientUnits="userSpaceOnUse"><stop stop-color="#F5C2A4"/><stop offset="1" stop-color="#BA523B"/></linearGradient><linearGradient id="paint21_linear" x1="297.215" y1="209.871" x2="297.215" y2="213.901" gradientUnits="userSpaceOnUse"><stop stop-color="#0E6299"/><stop offset="1" stop-color="#0E6299"/></linearGradient><linearGradient id="paint22_linear" x1="297.215" y1="211.853" x2="297.215" y2="213.9" gradientUnits="userSpaceOnUse"><stop stop-color="#132F2B"/><stop offset="1" stop-color="#15332F"/></linearGradient><linearGradient id="paint23_linear" x1="277.207" y1="207.578" x2="277.207" y2="211.878" gradientUnits="userSpaceOnUse"><stop stop-color="#0E6299"/><stop offset="1" stop-color="#0E6299"/></linearGradient><linearGradient id="paint24_linear" x1="277.455" y1="209.693" x2="277.455" y2="211.878" gradientUnits="userSpaceOnUse"><stop stop-color="#132D2A"/><stop offset="1" stop-color="#2C2E2D"/></linearGradient></defs></svg>