<svg width="54" height="68" fill="none" xmlns="http://www.w3.org/2000/svg"><path fill-rule="evenodd" clip-rule="evenodd" d="M26.867 14.27H1.036a1.153 1.153 0 00-1.034 1.22v35.978h4.133a1.033 1.033 0 010 2.066H.002v2.914a1.153 1.153 0 001.034 1.22h51.662a1.153 1.153 0 001.034-1.22v-2.914H8.268a1.033 1.033 0 110-2.066h45.464V15.49a1.153 1.153 0 00-1.034-1.22H26.867zm23.765 26.865v6.2a2.066 2.066 0 01-2.067 2.066H32.033a2.066 2.066 0 01-2.066-2.066v-6.2c0-1.141.925-2.066 2.066-2.066h16.532c1.142 0 2.067.925 2.067 2.066zM4.135 32.869c0-1.141.926-2.067 2.067-2.067h16.532c1.141 0 2.066.926 2.066 2.067v6.2a2.066 2.066 0 01-2.066 2.066H6.202a2.067 2.067 0 01-2.067-2.066v-6.2zm33.49-12.491v-.253a1.375 1.375 0 112.75 0v.275c.922.317 1.7.95 2.2 1.787a1.375 1.375 0 01-2.38 1.375A1.375 1.375 0 1039 25.625a4.115 4.115 0 011.375 7.997v.253a1.375 1.375 0 01-2.75 0V33.6a4.125 4.125 0 01-2.2-1.788 1.375 1.375 0 012.38-1.375A1.375 1.375 0 1039 28.375a4.115 4.115 0 01-1.375-7.997zM20.273 59.733l-2.067 4.133h17.322l-2.067-4.133H20.273zm28.293-18.6H32.033v6.2h16.533v-6.2zm-7.234 24.8h-28.93a1.033 1.033 0 100 2.067h28.93a1.033 1.033 0 100-2.067zM6.202 32.868h16.533v6.2H6.202v-6.2z" fill="url(#paint0_linear)"/><path d="M16.5 27C23.956 27 30 20.956 30 13.5S23.956 0 16.5 0 3 6.044 3 13.5c.008 7.452 6.048 13.492 13.5 13.5zM14.812 5.373v-.31a1.687 1.687 0 113.376 0V5.4a5.062 5.062 0 012.7 2.194 1.687 1.687 0 01-2.922 1.687 1.687 1.687 0 10-1.466 2.531 5.05 5.05 0 011.688 9.815v.31a1.687 1.687 0 11-3.375 0V21.6a5.062 5.062 0 01-2.7-2.194 1.687 1.687 0 012.92-1.687 1.688 1.688 0 101.467-2.532 5.05 5.05 0 01-1.688-9.814z" fill="url(#paint1_linear)"/><defs><linearGradient id="paint0_linear" x1="26.867" y1="14.27" x2="26.867" y2="68" gradientUnits="userSpaceOnUse"><stop stop-color="#83E94D"/><stop offset="1" stop-color="#21C120"/></linearGradient><linearGradient id="paint1_linear" x1="16.5" y1="0" x2="16.5" y2="27" gradientUnits="userSpaceOnUse"><stop stop-color="#32D1F4"/><stop offset="1" stop-color="#4CB0FD" stop-opacity=".6"/></linearGradient></defs></svg>