<svg width="75" height="73" fill="none" xmlns="http://www.w3.org/2000/svg"><path fill-rule="evenodd" clip-rule="evenodd" d="M3.896 12.99h58.707a3.901 3.901 0 013.896 3.897V55.59a3.901 3.901 0 01-3.896 3.897H3.896A3.901 3.901 0 010 55.59V16.887a3.901 3.901 0 013.896-3.897zM43.512 69.1h10.52a1.949 1.949 0 010 3.896H12.47a1.949 1.949 0 010-3.897h10.52v-5.715h20.522V69.1z" fill="url(#paint0_linear)"/><g clip-path="url(#clip0)"><path d="M33.696 5.601v30.101a5.602 5.602 0 005.602 5.602h30.1a5.602 5.602 0 005.603-5.602v-30.1A5.602 5.602 0 0069.398 0h-30.1a5.602 5.602 0 00-5.602 5.6z" fill="url(#paint1_linear)"/><path d="M67.39 30.978c0 .9-.934 1.63-2.087 1.63H42.304c-1.153 0-2.087-.73-2.087-1.63 0-.9.934-1.63 2.087-1.63h23c1.152 0 2.087.73 2.087 1.63z" fill="#fff"/><path d="M48.656 28.728v5.09c0 1.132-1.011 2.05-2.258 2.05s-2.258-.918-2.258-2.05v-5.09c0-1.133 1.01-2.052 2.258-2.052 1.247 0 2.258.919 2.258 2.052zm18.734-8.619c0 .9-.934 1.63-2.087 1.63H42.304c-1.153 0-2.087-.73-2.087-1.63 0-.9.934-1.63 2.087-1.63h23c1.152 0 2.087.73 2.087 1.63z" fill="#fff"/><path d="M60.87 18.245v4.814c0 1.072-.974 1.941-2.175 1.941-1.2 0-2.173-.869-2.173-1.94v-4.815c0-1.072.973-1.94 2.173-1.94 1.201 0 2.174.868 2.174 1.94zm6.52-7.919c0 .9-.934 1.63-2.087 1.63H42.304c-1.153 0-2.087-.73-2.087-1.63 0-.9.934-1.63 2.087-1.63h23c1.152 0 2.087.73 2.087 1.63z" fill="#fff"/><path d="M54.232 7.487v5.089c0 1.133-1.01 2.051-2.258 2.051-1.247 0-2.258-.918-2.258-2.051v-5.09c0-1.132 1.01-2.05 2.258-2.05 1.247 0 2.258.918 2.258 2.05z" fill="#fff"/></g><defs><linearGradient id="paint0_linear" x1="32.645" y1="8.759" x2="32.645" y2="79.49" gradientUnits="userSpaceOnUse"><stop stop-color="#0DB817"/><stop offset="1" stop-color="#93F055"/></linearGradient><linearGradient id="paint1_linear" x1="31.521" y1="39.675" x2="75" y2="0" gradientUnits="userSpaceOnUse"><stop stop-color="#32D1F4" stop-opacity=".69"/><stop offset="1" stop-color="#4CB0FD"/></linearGradient><clipPath id="clip0"><path fill="#fff" transform="rotate(-90 37.5 3.805)" d="M0 0h41.304v41.304H0z"/></clipPath></defs></svg>