<svg width="20" height="19" fill="none" xmlns="http://www.w3.org/2000/svg"><g clip-path="url(#clip0)" fill="#99FF1E"><path d="M15.12 5.088a.72.72 0 0 1-.718-.718V2.934a.72.72 0 0 1 .719-.719h1.436a.72.72 0 0 1 .718.719V4.37a.72.72 0 0 1-.718.718h-1.436zM10.093 6.66a2.72 2.72 0 0 0-1.417.404c.129-.04.263-.067.405-.067a1.388 1.388 0 1 1-1.389 1.39c0-.144.028-.278.068-.407a2.708 2.708 0 0 0-.405 1.417 2.738 2.738 0 1 0 2.738-2.738z"/><path d="M10.093 5.088a4.31 4.31 0 1 1 0 8.62 4.31 4.31 0 0 1 0-8.62zm0-1.436a5.753 5.753 0 0 0-5.746 5.746 5.753 5.753 0 0 0 5.746 5.746 5.753 5.753 0 0 0 5.746-5.746 5.753 5.753 0 0 0-5.746-5.746z"/><path d="M15.928.06H4.258A3.501 3.501 0 0 0 .755 3.563v11.672a3.5 3.5 0 0 0 3.502 3.501h11.671a3.501 3.501 0 0 0 3.502-3.501V3.562A3.501 3.501 0 0 0 15.928.061zm2.066 6.465h-4.696a4.288 4.288 0 0 1 1.104 2.873 4.31 4.31 0 0 1-8.619 0c0-1.105.42-2.11 1.104-2.873H2.192V3.562c0-1.138.926-2.065 2.065-2.065h11.671c1.14 0 2.066.927 2.066 2.065v2.963z"/></g><defs><clipPath id="clip0"><path fill="#fff" transform="translate(.755 .06)" d="M0 0h18.675v18.675H0z"/></clipPath></defs></svg>