<svg width="75" height="74" fill="none" xmlns="http://www.w3.org/2000/svg"><path fill-rule="evenodd" clip-rule="evenodd" d="M0 2.645V49.12c0 1.29 1.365 2.334 3.049 2.334H71.95c1.684 0 3.049-1.045 3.049-2.334V2.645C75 1.185 73.635 0 71.951 0H3.05C1.365 0 0 1.184 0 2.645z" fill="url(#paint0_linear)"/><path d="M37.5 68.844c9.934 0 17.987-8.054 17.987-17.988 0-9.935-8.053-17.988-17.987-17.988-9.935 0-17.988 8.053-17.988 17.988 0 9.934 8.053 17.988 17.988 17.988z" fill="#25C222"/><path fill-rule="evenodd" clip-rule="evenodd" d="M37.5 27.99a22.794 22.794 0 00-16.169 6.697 22.794 22.794 0 00-6.697 16.168h4.878c0-4.959 2.017-9.455 5.273-12.712A17.933 17.933 0 0137.5 32.87v-4.88zm0 45.732c12.628 0 22.866-10.237 22.866-22.866H14.634c0 12.629 10.237 22.866 22.866 22.866zm16.168-39.034a22.795 22.795 0 00-16.169-6.697v4.878c4.96 0 9.456 2.017 12.714 5.274v-.001a17.932 17.932 0 015.275 12.713h4.878c0-6.314-2.56-12.03-6.697-16.169l-.001.002z" fill="url(#paint1_linear)"/><path d="M67.069 9.822a2.343 2.343 0 100-4.685 2.343 2.343 0 000 4.685zm-7.191 0a2.343 2.343 0 100-4.685 2.343 2.343 0 000 4.685zm-7.194 0a2.342 2.342 0 100-4.685 2.342 2.342 0 000 4.685zM39.137 50.457a1.347 1.347 0 01-.952-2.3l8.722-8.722a1.347 1.347 0 011.904 1.905l-8.722 8.722a1.343 1.343 0 01-.952.395z" fill="#fff"/><path d="M36.828 55.369a3.95 3.95 0 100-7.901 3.95 3.95 0 000 7.901z" fill="#fff"/><defs><linearGradient id="paint0_linear" x1="37.5" y1="51.453" x2="37.5" y2="0" gradientUnits="userSpaceOnUse"><stop stop-color="#0DB817"/><stop offset="1" stop-color="#93F055"/></linearGradient><linearGradient id="paint1_linear" x1="37.5" y1="27.991" x2="37.5" y2="73.722" gradientUnits="userSpaceOnUse"><stop stop-color="#32D1F4" stop-opacity=".51"/><stop offset="1" stop-color="#4CB0FD"/></linearGradient></defs></svg>