<svg width="14" height="13" fill="none" xmlns="http://www.w3.org/2000/svg"><g clip-path="url(#clip0)" fill="#1E4843" fill-opacity=".3"><path d="M2.022.66C1.06.66.431 1.246.431 2.018c0 .754.61 1.358 1.554 1.358h.019c.98 0 1.592-.604 1.592-1.358C3.577 1.247 2.985.66 2.022.66zM.597 4.45H3.41v7.86H.597V4.45zm9.719-.185c-1.517 0-2.535 1.324-2.535 1.324V4.45H4.967v7.86h2.814V7.92c0-.235.018-.47.092-.638.204-.469.667-.955 1.444-.955 1.018 0 1.425.72 1.425 1.777v4.205h2.814V7.803c0-2.415-1.388-3.538-3.24-3.538z"/></g><defs><clipPath id="clip0"><path fill="#fff" d="M0 0h14v13H0z"/></clipPath></defs></svg>