<svg width="19" height="19" fill="none" xmlns="http://www.w3.org/2000/svg"><g clip-path="url(#clip0)" fill="#fff" fill-opacity=".9"><path d="M3.023 1.055C1.739 1.055.9 1.898.9 3.006c0 1.083.814 1.95 2.074 1.95h.024c1.309 0 2.123-.867 2.123-1.95-.024-1.108-.814-1.951-2.098-1.951zM1.122 6.499h3.753v11.29H1.122V6.5zm12.965-.266c-2.025 0-3.383 1.903-3.383 1.903V6.498H6.951V17.79h3.753v-6.305c0-.338.025-.675.124-.916.271-.674.889-1.372 1.925-1.372 1.358 0 1.902 1.035 1.902 2.553v6.04h3.752v-6.474c0-3.468-1.851-5.082-4.32-5.082z"/></g><defs><clipPath id="clip0"><path fill="#fff" transform="translate(.325 .107)" d="M0 0h18.675v18.675H0z"/></clipPath></defs></svg>