<svg width="150" height="65" fill="none" xmlns="http://www.w3.org/2000/svg"><path fill-rule="evenodd" clip-rule="evenodd" d="M16.317 6.384c-5.073 2.2-10.67 6.677-13.472 13.22-4.843 11.31-2.629 19.863.206 21.062 4.188 1.772 5.187-3.783 6.311-10.041.556-3.094 1.143-6.36 2.162-8.997.912-1.5 3.16-2.805 4.793-3.915V6.384zm4.08 8.766c3.858-2.209 6.867-4.354 7.098-8.102.13-2.098-2.973-2.768-7.098-1.837v9.939z" fill="url(#paint0_linear)" fill-opacity=".65"/><path fill-rule="evenodd" clip-rule="evenodd" d="M24.21 64.181c11.805-.69 29.425-8.857 33.27-26.337C61.325 20.364 51.83.854 39.164.854c-5.024 0-12.09 3.841-18.79 9.534v8.8l.417 1.128h-4.935l.416-1.129v-5.032C7.813 22.529.853 33.385.853 42.214c0 16.948 10.664 22.708 23.358 21.967zm-3.404-42.256H15.84l.431 1.17v11.381h-.006l-.38 1.006h5.18l-.3-.91c.849-3.622 4.098-6.285 8.03-6.285 3.967 0 7.282 2.75 8.093 6.422l-.353.773h4.99l-.328-.747c-.848-6.006-6.078-10.629-12.402-10.629-3.243 0-6.157 1.228-8.381 3.222l-.04-4.234.43-1.169zm-4.293 16.953l-.568-.964h5.351l-.41.976c1.051 3.322 4.195 5.733 7.91 5.733 3.722 0 6.872-2.422 7.916-5.755l-.333-.954h5.143l-.42.837c-1.09 5.723-6.185 10.053-12.306 10.053-6.076 0-11.14-4.266-12.283-9.926z" fill="url(#paint1_linear)" fill-opacity=".4"/><path d="M61.164 38.673C58.51 50.758 44.006 58.22 42.255 56.451c-3.51-3.547 5-6.83 7.246-14.056.707-7.123-2.212-17.274 3.993-20.333 3.55-1.75 9.652 4.418 7.67 16.611z" fill="url(#paint2_linear)"/><path fill-rule="evenodd" clip-rule="evenodd" d="M16.273 16.048C8.208 22.764 2.078 32.09 2.078 39.562c0 13.256 10.653 18.23 22.524 17.654 11.433-.555 24.957-7.4 28.415-21.072 3.46-13.674-5.082-28.932-16.475-28.932-5.219 0-10.925 2.26-16.167 5.764v6.212l.416 1.128h-4.935l.416-1.13v-3.138zm4.533 5.877h-4.965l.431 1.17v11.38h-.005l-.38 1.007h5.18l-.3-.91c.848-3.622 4.098-6.285 8.03-6.285 3.966 0 7.282 2.75 8.093 6.422l-.353.773h4.989l-.327-.748c-.849-6.005-6.079-10.628-12.403-10.628-3.242 0-6.157 1.228-8.381 3.221l-.04-4.234.431-1.168zm-4.292 16.953l-.569-.964h5.351l-.409.975c1.05 3.322 4.194 5.734 7.91 5.734 3.722 0 6.871-2.422 7.915-5.755l-.332-.954h5.142l-.419.836c-1.09 5.723-6.186 10.054-12.307 10.054-6.075 0-11.14-4.266-12.282-9.926z" fill="url(#paint3_linear)"/><path d="M72.356 51.207c-.948 0-1.795-.201-2.54-.604a4.713 4.713 0 01-1.766-1.616 4.244 4.244 0 01-.648-2.309c0-.852.216-1.616.648-2.29a4.663 4.663 0 011.766-1.635c.745-.402 1.591-.604 2.54-.604h1.045v1.084h-1.135c-.66 0-1.267.154-1.82.461a3.47 3.47 0 00-1.297 1.226 3.353 3.353 0 00-.468 1.758c0 .652.156 1.238.468 1.759.325.52.757.935 1.298 1.243a3.79 3.79 0 001.82.444H73.4v1.083h-1.045zm4.649 0V38.242h1.26v12.965h-1.26zm8.683-.03c-.925 0-1.747-.207-2.468-.622-.72-.426-1.285-1-1.694-1.722-.408-.723-.612-1.528-.612-2.416 0-.888.204-1.687.612-2.398a4.602 4.602 0 011.694-1.722c.72-.427 1.543-.64 2.468-.64s1.748.213 2.468.64a4.46 4.46 0 011.694 1.705c.408.722.613 1.527.613 2.415 0 .888-.205 1.693-.613 2.416a4.602 4.602 0 01-1.694 1.722c-.72.415-1.543.622-2.468.622zm0-1.083c.685 0 1.291-.16 1.82-.48a3.378 3.378 0 001.225-1.332c.3-.557.45-1.178.45-1.865s-.15-1.308-.45-1.865a3.253 3.253 0 00-1.225-1.314c-.529-.332-1.135-.498-1.82-.498-.696 0-1.309.166-1.838.498a3.44 3.44 0 00-1.225 1.314 3.995 3.995 0 00-.432 1.865c0 .687.144 1.308.432 1.865.3.557.71 1 1.225 1.332.53.32 1.142.48 1.838.48zm11.817 1.083c-.781 0-1.49-.16-2.126-.48a3.988 3.988 0 01-1.532-1.385c-.372-.604-.558-1.32-.558-2.149v-5.275h1.261v5.222c0 .64.138 1.184.414 1.634a2.98 2.98 0 001.1 1.012c.444.225.918.338 1.423.338.516 0 .997-.119 1.44-.356a2.808 2.808 0 001.1-1.012c.276-.45.414-.989.414-1.616v-5.222h1.261v5.275c0 .829-.192 1.545-.576 2.15a3.853 3.853 0 01-1.513 1.384c-.625.32-1.328.48-2.108.48zm11.694 0c.853 0 1.627-.184 2.324-.55a4.193 4.193 0 001.693-1.599c.421-.71.631-1.575.631-2.593V37.98h-1.261v5.773h-.036c-.312-.604-.787-1.101-1.424-1.492a3.917 3.917 0 00-2.089-.586c-.829 0-1.586.19-2.27.568a4.272 4.272 0 00-1.64 1.616c-.396.687-.594 1.516-.594 2.487 0 1.018.21 1.889.63 2.61a4.46 4.46 0 001.676 1.653c.708.379 1.495.568 2.36.568zm.018-1.083a3.525 3.525 0 01-1.694-.427 3.327 3.327 0 01-1.243-1.26c-.312-.557-.468-1.22-.468-1.99 0-.746.15-1.391.45-1.936a3.293 3.293 0 012.919-1.723c.612 0 1.177.148 1.693.444.517.285.925.705 1.225 1.261.313.545.469 1.202.469 1.972 0 .781-.156 1.444-.469 1.99-.3.544-.708.958-1.225 1.242a3.319 3.319 0 01-1.657.427z" fill="#74D61D"/><path d="M72.777 31.582c-1.043 0-1.952-.213-2.728-.64a4.442 4.442 0 01-1.774-1.805c-.42-.79-.63-1.711-.63-2.764v-8.745h2.614v5.322h.02a2.97 2.97 0 011.22-1.034 3.99 3.99 0 011.717-.376c.954 0 1.78.207 2.48.62.7.414 1.24.984 1.621 1.712.395.714.592 1.548.592 2.5 0 1.004-.204 1.9-.61 2.69a4.436 4.436 0 01-1.737 1.843c-.763.451-1.691.677-2.785.677zm0-2.2c.776 0 1.38-.27 1.812-.809.445-.552.668-1.222.668-2.012s-.223-1.454-.668-1.994c-.432-.551-1.036-.827-1.812-.827s-1.386.276-1.831.827c-.433.54-.649 1.204-.649 1.994s.216 1.46.649 2.012c.445.54 1.055.809 1.831.809zm12.014 2.2c-.89 0-1.666-.226-2.327-.677A4.582 4.582 0 0180.92 29.1c-.356-.765-.534-1.605-.534-2.52 0-.94.203-1.793.61-2.558a4.565 4.565 0 011.793-1.805c.776-.452 1.705-.677 2.785-.677 1.094 0 2.016.225 2.766.677a4.5 4.5 0 011.717 1.824c.395.765.592 1.61.592 2.539v4.776h-2.614v-1.598h-.038a4.177 4.177 0 01-1.202 1.297c-.496.352-1.163.527-2.003.527zm.744-2.2c.763 0 1.361-.276 1.793-.828.445-.551.668-1.222.668-2.012 0-.777-.222-1.436-.668-1.975-.432-.551-1.03-.827-1.793-.827-.775 0-1.386.276-1.831.827-.445.54-.668 1.198-.668 1.975 0 .79.223 1.46.668 2.012.445.552 1.056.828 1.831.828zm8.731 1.974v-5.698c0-.752.185-1.442.554-2.069a3.912 3.912 0 011.583-1.485c.7-.376 1.539-.564 2.518-.564.7 0 1.329.119 1.889.357a4.247 4.247 0 011.43.978h.019c.407-.414.891-.74 1.45-.978a4.918 4.918 0 011.908-.357c.979 0 1.812.188 2.499.564.699.363 1.233.859 1.602 1.485.369.627.553 1.317.553 2.07v5.697h-2.613v-5.698c0-.527-.204-.978-.611-1.354a1.996 1.996 0 00-1.43-.564c-.56 0-1.043.188-1.45.564a1.806 1.806 0 00-.591 1.354v5.698h-2.614v-5.698c0-.527-.203-.978-.61-1.354a1.998 1.998 0 00-1.431-.564c-.56 0-1.043.188-1.45.564a1.805 1.805 0 00-.591 1.354v5.698h-2.614zm24.661.226c-1.043 0-1.952-.213-2.728-.64a4.444 4.444 0 01-1.774-1.805c-.42-.79-.63-1.711-.63-2.764v-8.745h2.614v5.322h.019a2.975 2.975 0 011.221-1.034 3.989 3.989 0 011.717-.376c.953 0 1.78.207 2.48.62a4.24 4.24 0 011.621 1.712c.394.714.591 1.548.591 2.5 0 1.004-.203 1.9-.61 2.69a4.435 4.435 0 01-1.736 1.843c-.763.451-1.691.677-2.785.677zm0-2.2c.776 0 1.38-.27 1.812-.809.445-.552.668-1.222.668-2.012s-.223-1.454-.668-1.994c-.432-.551-1.036-.827-1.812-.827s-1.386.276-1.831.827c-.433.54-.649 1.204-.649 1.994s.216 1.46.649 2.012c.445.54 1.055.809 1.831.809zm12.853 2.2c-1.004 0-1.901-.22-2.689-.658a5.128 5.128 0 01-1.87-1.806c-.458-.764-.686-1.617-.686-2.557s.228-1.787.686-2.539a4.936 4.936 0 011.87-1.805c.788-.452 1.685-.677 2.689-.677 1.005 0 1.902.225 2.69.677a4.936 4.936 0 011.87 1.805c.457.752.686 1.599.686 2.539 0 .94-.229 1.793-.686 2.557a5.128 5.128 0 01-1.87 1.806c-.788.439-1.685.658-2.69.658zm0-2.2c.802 0 1.431-.27 1.889-.809.47-.552.706-1.222.706-2.012s-.236-1.454-.706-1.994c-.458-.551-1.087-.827-1.889-.827-.801 0-1.437.276-1.907.827-.458.54-.687 1.204-.687 1.994s.229 1.46.687 2.012c.47.54 1.106.809 1.907.809zm12.974 2.2c-1.005 0-1.901-.22-2.69-.658a5.133 5.133 0 01-1.869-1.806c-.458-.764-.687-1.617-.687-2.557s.229-1.787.687-2.539a4.94 4.94 0 011.869-1.805c.789-.452 1.685-.677 2.69-.677s1.901.225 2.69.677a4.94 4.94 0 011.869 1.805c.458.752.687 1.599.687 2.539 0 .94-.229 1.793-.687 2.557a5.133 5.133 0 01-1.869 1.806c-.789.439-1.685.658-2.69.658zm0-2.2c.801 0 1.431-.27 1.889-.809.47-.552.706-1.222.706-2.012s-.236-1.454-.706-1.994c-.458-.551-1.088-.827-1.889-.827-.801 0-1.437.276-1.907.827-.458.54-.687 1.204-.687 1.994s.229 1.46.687 2.012c.47.54 1.106.809 1.907.809z" fill="#009F10"/><path d="M69.816 50.603l.127-.229-.127.23zm-1.766-1.616l-.225.138.001.002.224-.14zm0-4.6l.225.14v-.002l-.225-.138zm1.766-1.634l.127.23-.127-.23zm3.585-.604h.265v-.261h-.265v.261zm0 1.084v.26h.265v-.26h-.265zm-2.954.461l.128.229.002-.001-.13-.228zm-1.298 1.226l-.225-.137-.002.002v.002l.227.133zm0 3.517l-.228.133.001.001.002.002.225-.136zm1.297 1.243l-.132.226.003.002.003.002.127-.23zm2.955.444h.265v-.261h-.265v.26zm0 1.083v.262h.265v-.262h-.265zm-1.045-.26c-.91 0-1.712-.193-2.413-.573l-.254.459c.788.426 1.68.636 2.667.636v-.523zm-2.413-.573a4.45 4.45 0 01-1.669-1.526l-.448.279a4.979 4.979 0 001.863 1.706l.254-.459zm-1.667-1.524a3.985 3.985 0 01-.61-2.172h-.53a4.5 4.5 0 00.69 2.447l.45-.275zm-.61-2.172c0-.806.205-1.521.608-2.151l-.448-.28c-.46.72-.69 1.533-.69 2.431h.53zm.61-2.153a4.4 4.4 0 011.667-1.543l-.254-.458a4.927 4.927 0 00-1.864 1.725l.45.276zm1.667-1.543c.701-.38 1.504-.572 2.413-.572v-.522c-.988 0-1.88.21-2.667.636l.254.458zm2.413-.572h1.045v-.522h-1.045v.522zm.78-.26v1.083h.53v-1.084h-.53zm.265.821h-1.135v.523h1.135v-.523zm-1.135 0c-.704 0-1.356.165-1.95.496l.26.455a3.405 3.405 0 011.69-.428v-.523zm-1.948.495a3.723 3.723 0 00-1.394 1.317l.451.273c.3-.482.7-.86 1.2-1.133l-.257-.457zm-1.397 1.321a3.612 3.612 0 00-.505 1.891h.53c0-.608.145-1.147.431-1.625l-.456-.266zm-.505 1.891c0 .695.167 1.327.505 1.892l.456-.266a3.095 3.095 0 01-.431-1.626h-.53zm.508 1.895a3.866 3.866 0 001.39 1.333l.265-.452a3.34 3.34 0 01-1.204-1.154l-.451.273zm1.396 1.337a4.06 4.06 0 001.946.475v-.522a3.522 3.522 0 01-1.693-.413l-.253.46zm1.946.475h1.135v-.522h-1.135v.522zm.87-.261v1.083h.53v-1.083h-.53zm.265.822h-1.045v.523h1.045v-.523zm3.604.261h-.265v.262h.265v-.262zm0-12.965v-.261h-.265v.26h.265zm1.26 0h.266v-.261h-.265v.26zm0 12.965v.262h.266v-.262h-.265zm-.995 0V38.242h-.53v12.965h.53zm-.265-12.704h1.26v-.523h-1.26v.523zm.996-.261v12.965h.53V38.242H78zm.265 12.704h-1.261v.523h1.26v-.523zm4.954-.391l-.136.224.002.002.134-.226zm-1.694-1.722l.232-.128-.231.128zm0-4.814l.231.129v-.002l-.23-.127zm1.694-1.723l-.136-.223.136.223zm4.936 0l-.136.224.003.002.133-.226zm1.694 1.706l-.231.127.231-.127zm0 4.83l-.231-.127.231.128zm-1.694 1.723l.134.226.003-.002-.137-.224zm-.648-.94l.138.222.002-.001.002-.002-.142-.22zm1.225-1.333l-.234-.123-.001.002-.001.002.236.119zm0-3.73l-.236.119.001.002.001.002.234-.123zm-1.225-1.314l-.142.22.002.001.001.001.139-.222zm-3.657 0l.14.221h.002l-.142-.221zm-1.225 1.314l-.234-.123-.001.002-.002.002.237.12zm0 3.73l-.237.119.002.002v.002l.234-.123zm1.225 1.332l-.145.219.003.002.003.002.139-.223zm1.837 1.302c-.883 0-1.659-.198-2.334-.586l-.267.451c.765.44 1.635.657 2.601.657v-.522zm-2.332-.584a4.344 4.344 0 01-1.598-1.627l-.463.255a4.864 4.864 0 001.789 1.82l.272-.448zm-1.598-1.627c-.385-.68-.58-1.44-.58-2.288h-.529c0 .93.214 1.779.646 2.543l.463-.255zm-.58-2.288c0-.847.195-1.601.579-2.269l-.461-.258c-.433.754-.647 1.598-.647 2.527h.53zm.58-2.27a4.342 4.342 0 011.598-1.627l-.272-.447a4.863 4.863 0 00-1.789 1.82l.463.254zm1.598-1.627c.676-.4 1.45-.602 2.332-.602v-.522c-.968 0-1.838.223-2.604.677l.272.447zm2.332-.602c.882 0 1.657.203 2.332.602l.273-.447c-.766-.454-1.637-.677-2.605-.677v.522zm2.335.604c.68.39 1.21.925 1.596 1.607l.462-.255a4.737 4.737 0 00-1.791-1.803l-.267.451zm1.596 1.607c.384.68.579 1.441.579 2.288h.53c0-.929-.215-1.779-.647-2.543l-.462.255zm.579 2.288c0 .847-.195 1.608-.58 2.288l.463.255c.432-.764.647-1.614.647-2.543h-.53zm-.58 2.288a4.344 4.344 0 01-1.598 1.627l.273.447a4.864 4.864 0 001.788-1.82l-.462-.254zm-1.595 1.625c-.676.388-1.452.586-2.335.586v.522c.967 0 1.837-.217 2.602-.657l-.267-.451zm-2.335.025c.729 0 1.384-.17 1.958-.518l-.277-.446c-.482.292-1.04.441-1.68.441v.523zm1.962-.52a3.643 3.643 0 001.32-1.435l-.472-.238a3.117 3.117 0 01-1.131 1.23l.284.441zm1.317-1.43a4.121 4.121 0 00.481-1.988h-.53c0 .648-.14 1.227-.419 1.742l.468.246zm.481-1.988c0-.726-.159-1.39-.481-1.988l-.468.246c.278.515.42 1.094.42 1.742h.53zm-.479-1.984a3.517 3.517 0 00-1.323-1.418l-.277.445c.486.294.861.696 1.128 1.21l.472-.237zm-1.319-1.416c-.575-.36-1.232-.538-1.962-.538v.523c.64 0 1.196.154 1.678.456l.284-.44zm-1.962-.538c-.74 0-1.404.177-1.98.538l.285.441c.481-.302 1.043-.456 1.695-.456v-.523zm-1.978.538a3.69 3.69 0 00-1.318 1.412l.467.246c.28-.519.657-.922 1.133-1.216l-.282-.443zm-1.32 1.416a4.254 4.254 0 00-.462 1.984h.53c0-.65.136-1.23.404-1.746l-.473-.238zm-.462 1.984c0 .724.153 1.387.461 1.984l.473-.238a3.733 3.733 0 01-.404-1.746h-.53zm.464 1.988c.32.594.759 1.071 1.314 1.428l.29-.438a3.302 3.302 0 01-1.137-1.236l-.467.246zm1.32 1.432c.575.347 1.237.518 1.976.518v-.523c-.654 0-1.217-.149-1.699-.44l-.277.445zm11.667.86l-.124.231.002.001.001.001.12-.233zm-1.532-1.385l-.226.136.002.002.001.003.224-.14zm-.558-7.424v-.261h-.265v.26h.265zm1.261 0h.265v-.261h-.265v.26zm.415 6.856l-.227.135.002.004.002.003.222-.142zm1.098 1.012l-.125.23.002.001.002.002.121-.233zm2.865-.018l-.123-.23h-.003l.126.23zm1.099-1.012l.225.138.002-.003-.227-.135zm.414-6.838v-.261h-.265v.26h.265zm1.262 0h.264v-.261h-.264v.26zm-.577 7.424l-.224-.139-.001.002.225.137zm-1.513 1.386l.122.231h.001l-.123-.232zm-2.108.218c-.743 0-1.41-.152-2.006-.451l-.24.465c.677.34 1.427.508 2.246.508v-.522zm-2.002-.45a3.73 3.73 0 01-1.433-1.295l-.446.282c.41.63.954 1.123 1.631 1.475l.248-.461zm-1.429-1.29c-.343-.556-.52-1.224-.52-2.013h-.53c0 .868.195 1.634.597 2.285l.453-.271zm-.52-2.013v-5.275h-.53v5.275h.53zm-.265-5.014h1.261v-.522h-1.26v.522zm.996-.261v5.222h.53v-5.222h-.53zm0 5.222c0 .676.147 1.27.453 1.77l.453-.272c-.246-.4-.376-.896-.376-1.498h-.53zm.457 1.776c.311.473.71.841 1.196 1.1l.252-.46a2.714 2.714 0 01-1.003-.924l-.445.284zm1.2 1.103c.483.244.999.366 1.545.366v-.523a2.84 2.84 0 01-1.302-.308l-.243.465zm1.545.366c.56 0 1.083-.129 1.567-.387l-.252-.46a2.75 2.75 0 01-1.315.324v.523zm1.565-.386a3.07 3.07 0 001.2-1.105l-.45-.276c-.252.4-.583.704-.998.92l.248.461zm1.202-1.108c.306-.498.452-1.085.452-1.751h-.53c0 .589-.129 1.079-.376 1.48l.454.271zm.452-1.751v-5.222h-.53v5.222h.53zm-.265-4.96h1.262v-.523h-1.262v.522zm.997-.262v5.275h.529v-5.275h-.529zm0 5.275c0 .788-.183 1.454-.536 2.01l.448.278c.415-.652.617-1.418.617-2.288h-.529zm-.537 2.012a3.59 3.59 0 01-1.412 1.292l.247.461a4.11 4.11 0 001.615-1.478l-.45-.276zm-1.41 1.29c-.583.3-1.243.45-1.986.45v.523c.818 0 1.563-.168 2.23-.509l-.245-.463zm12.032.161l-.123-.23h-.002l.125.23zm1.693-1.598l.228.133.001-.001-.229-.132zm.631-11.048h.265v-.26h-.265v.26zm-1.261 0v-.26h-.265v.26h.265zm0 5.773v.261h.265v-.261h-.265zm-.036 0l-.236.118.074.143h.162v-.261zm-1.423-1.492l.14-.222-.14.222zm-4.36-.018l.129.228-.129-.228zm-1.64 1.616l-.229-.13-.001.001.23.13zm.036 5.098l-.23.13.002.002.228-.132zm1.676 1.652l-.131.227.002.001.003.001.126-.23zm.684-.942l-.133.226.003.002.004.002.126-.23zm-1.243-1.26l-.232.126.002.002.23-.129zm-.018-3.926l-.232-.126v.001l.232.125zm1.243-1.279l-.133-.226.133.226zm3.369 0l-.133.226.002.001.002.001.129-.228zm1.225 1.261l-.233.123.001.003.002.003.23-.129zm0 3.961l-.23-.128-.001.001-.001.002.232.125zm-1.225 1.243l-.129-.228-.002.002.131.226zm-1.675 1.771c.893 0 1.711-.192 2.449-.581l-.25-.46c-.655.344-1.386.519-2.199.519v.522zm2.447-.58a4.454 4.454 0 001.798-1.697l-.455-.266a3.944 3.944 0 01-1.589 1.5l.246.463zm1.799-1.698c.449-.76.667-1.671.667-2.725h-.53c0 .983-.203 1.8-.594 2.461l.457.264zm.667-2.725V37.98h-.53v8.455h.53zm-.265-8.716h-1.261v.523h1.261v-.523zm-1.526.261v5.773h.53V37.98h-.53zm.265 5.512h-.036v.522h.036v-.522zm.2.142c-.336-.65-.846-1.181-1.519-1.595l-.28.444c.599.368 1.038.83 1.327 1.388l.472-.237zm-1.519-1.595a4.189 4.189 0 00-2.23-.625v.522c.707 0 1.355.182 1.95.547l.28-.444zm-2.23-.625c-.872 0-1.673.2-2.4.601l.259.456a4.345 4.345 0 012.141-.535v-.522zm-2.4.601a4.53 4.53 0 00-1.739 1.714l.459.26a4.004 4.004 0 011.539-1.518l-.259-.456zm-1.74 1.715c-.424.734-.629 1.61-.629 2.616h.53c0-.936.191-1.718.56-2.357l-.461-.259zm-.629 2.616c0 1.054.217 1.971.665 2.741l.46-.26c-.393-.675-.595-1.498-.595-2.481h-.53zm.667 2.743a4.71 4.71 0 001.773 1.747l.262-.454a4.19 4.19 0 01-1.578-1.557l-.457.264zm1.778 1.75c.75.4 1.58.6 2.486.6v-.523c-.824 0-1.567-.18-2.234-.537l-.252.46zm2.504-1.007a3.257 3.257 0 01-1.567-.394l-.253.459a3.788 3.788 0 001.82.458v-.523zm-1.56-.39a3.06 3.06 0 01-1.146-1.164l-.461.257a3.59 3.59 0 001.34 1.358l.267-.452zm-1.145-1.162c-.286-.51-.435-1.128-.435-1.863h-.53c0 .805.163 1.513.501 2.116l.464-.253zm-.435-1.863c0-.711.143-1.312.418-1.811l-.465-.25c-.326.59-.483 1.28-.483 2.061h.53zm.417-1.81a3.028 3.028 0 011.145-1.179l-.267-.452a3.562 3.562 0 00-1.342 1.379l.464.253zm1.145-1.179a3.039 3.039 0 011.542-.409v-.522c-.647 0-1.252.16-1.809.48l.267.451zm1.542-.409c.567 0 1.085.137 1.56.41l.267-.453a3.617 3.617 0 00-1.827-.479v.522zm1.564.411c.469.258.842.64 1.121 1.156l.467-.245a3.314 3.314 0 00-1.329-1.367l-.259.456zm1.124 1.162c.285.497.434 1.108.434 1.843h.53c0-.805-.163-1.508-.503-2.1l-.461.257zm.434 1.843c0 .747-.149 1.364-.434 1.86l.461.258c.34-.593.503-1.303.503-2.118h-.53zm-.436 1.864a2.815 2.815 0 01-1.122 1.14l.259.456a3.335 3.335 0 001.328-1.346l-.465-.25zm-1.124 1.142a3.06 3.06 0 01-1.526.391v.523c.645 0 1.243-.153 1.789-.46l-.263-.454z" fill="#74D61D"/><defs><linearGradient id="paint0_linear" x1="15.798" y1="-1.573" x2="-3.938" y2="28.448" gradientUnits="userSpaceOnUse"><stop stop-color="#4AFFD4"/><stop offset="1" stop-color="#30B3C7"/></linearGradient><linearGradient id="paint1_linear" x1="54.563" y1="12.453" x2="6.016" y2="61.833" gradientUnits="userSpaceOnUse"><stop stop-color="#88DE20" stop-opacity=".75"/><stop offset=".325" stop-color="#8ADD25"/><stop offset="1" stop-color="#99FF1E" stop-opacity=".43"/></linearGradient><linearGradient id="paint2_linear" x1="55.247" y1="21.894" x2="49.392" y2="56.718" gradientUnits="userSpaceOnUse"><stop stop-color="#FFEC00" stop-opacity=".75"/><stop offset=".414" stop-color="#F5F13C" stop-opacity=".6"/><stop offset="1" stop-color="#F5F13C" stop-opacity=".46"/></linearGradient><linearGradient id="paint3_linear" x1="27.937" y1="7.212" x2="16.265" y2="61.897" gradientUnits="userSpaceOnUse"><stop stop-color="#01B313"/><stop offset="1" stop-color="#78EE1B" stop-opacity=".6"/></linearGradient></defs></svg>