<svg width="387" height="410" fill="none" xmlns="http://www.w3.org/2000/svg"><mask id="a" maskUnits="userSpaceOnUse" x="0" y="30" width="353" height="380"><rect y="30" width="353" height="380" rx="10" fill="#fff"/></mask><g mask="url(#a)"><path opacity=".1" d="M343.177.456c-79.553-36.33-166.004 38.619-92.656 78.399 54.435 34.222 36.786 62.565 65.913 83.703 38.63 28.153 83.233-19.863 83.286-19.812C457.142 84.082 415.533 33.499 343.177.456z" fill="url(#paint0_linear)"/><path d="M280.146-31.274c-87.569 6.013-127.979 113.502-44.234 113.502 64.401 4.146 62.392 37.597 98.203 42.308 47.553 6.355 63.929-57.349 64-57.33 22.59-79.231-38.322-103.95-117.969-98.48z" fill="url(#paint1_linear)"/><path opacity=".8" d="M245.176 127.257c13.72-.333 20.776-16.844 7.695-17.424-10.032-1.093-9.486-6.304-15.048-7.288-7.384-1.321-10.383 8.517-10.394 8.513-4.076 12.22 5.268 16.503 17.747 16.199z" fill="url(#paint2_linear)"/></g><defs><linearGradient id="paint0_linear" x1="341.695" y1="-5.061" x2="278.754" y2="194.191" gradientUnits="userSpaceOnUse"><stop stop-color="#28FEFE" stop-opacity=".3"/><stop offset="1" stop-color="#30B3C7"/></linearGradient><linearGradient id="paint1_linear" x1="276.198" y1="-35.432" x2="316.008" y2="170.475" gradientUnits="userSpaceOnUse"><stop stop-color="#ECFFD5"/><stop offset="1" stop-color="#ECFFD5"/></linearGradient><linearGradient id="paint2_linear" x1="245.764" y1="127.934" x2="240.969" y2="95.495" gradientUnits="userSpaceOnUse"><stop stop-color="#ECFFD5"/><stop offset="1" stop-color="#ECFFD5"/></linearGradient></defs></svg>