<svg width="70" height="69" fill="none" xmlns="http://www.w3.org/2000/svg"><path d="M55.267 42.801C67.76 32.62 54.047.391 38.644 13.805c-12.399 11.84-18.993 5.379-26.388 11.526-9.84 8.145.495 24.862.479 24.872 12.424 18.79 29.4 9.163 42.532-7.402z" fill="url(#paint0_linear)" fill-opacity=".2"/><path d="M46.317 16.769H19.889c-1.073 0-1.943-.761-1.943-1.7 0-.94.87-1.7 1.943-1.7h26.428c1.073 0 1.943.76 1.943 1.7 0 .939-.87 1.7-1.943 1.7zM35.435 26.968H19.889c-1.073 0-1.943-.76-1.943-1.7 0-.939.87-1.7 1.943-1.7h15.546c1.073 0 1.943.761 1.943 1.7 0 .94-.87 1.7-1.943 1.7z" fill="#0EB818"/><path d="M46.317 26.968h-3.109c-1.073 0-1.943-.761-1.943-1.7 0-.94.87-1.7 1.943-1.7h3.11c1.073 0 1.943.76 1.943 1.7 0 .939-.87 1.7-1.944 1.7z" fill="#7EDEDD"/><path d="M46.317 37.17H19.889c-1.073 0-1.943-.762-1.943-1.7 0-.94.87-1.701 1.943-1.701h26.428c1.073 0 1.943.76 1.943 1.7s-.87 1.7-1.943 1.7z" fill="#0EB818"/><defs><linearGradient id="paint0_linear" x1="64.145" y1="45.576" x2="4.14" y2="26.733" gradientUnits="userSpaceOnUse"><stop stop-color="#99FF1E"/><stop offset=".964" stop-color="#99FF1E" stop-opacity=".44"/></linearGradient></defs></svg>