<svg width="75" height="77" fill="none" xmlns="http://www.w3.org/2000/svg"><path fill-rule="evenodd" clip-rule="evenodd" d="M57.49 13.636c.409.2.683.599.722 1.052.036.407.832 10.111-2.234 21.964-1.806 6.982-4.588 13.245-8.267 18.616-4.615 6.736-10.654 12.07-17.95 15.855a1.292 1.292 0 01-1.191 0c-7.296-3.785-13.335-9.12-17.95-15.855-3.679-5.371-6.46-11.634-8.266-18.616C-.713 24.799.084 15.095.118 14.688c.04-.454.314-.853.723-1.052L28.6.13a1.293 1.293 0 011.133 0L57.49 13.637z" fill="url(#paint0_linear)"/><path d="M18.31 34.8a1.248 1.248 0 00.885-.367l7.049-7.049 2.872 2.873a1.254 1.254 0 001.772 0l7.883-7.884v2.822a1.253 1.253 0 002.505 0v-5.846a1.253 1.253 0 00-1.252-1.253h-5.846a1.253 1.253 0 000 2.505H37L30.002 27.6l-2.872-2.872a1.25 1.25 0 00-1.772 0l-7.934 7.934a1.254 1.254 0 00.886 2.138zm21.714 2.505H18.309a1.252 1.252 0 100 2.506h21.715a1.253 1.253 0 100-2.506z" fill="#fff"/><path d="M75 76.47H62.914v-28.2H75v28.2zm-5.371-6.715h-2.686v2.686h2.686v-2.686z" fill="#4CB0FD"/><path d="M29.344 52.969a3.357 3.357 0 013.357-3.357h15.443v-7.744a5.685 5.685 0 015.685-5.684h1.03l1.115 7.81c.358 2.507 1.671 3.487 4.256 7.632v21.39l-8.057 3.453H32.7a3.357 3.357 0 010-6.715 3.357 3.357 0 010-6.714 3.357 3.357 0 010-6.714 3.357 3.357 0 01-3.357-3.357z" fill="url(#paint1_linear)"/><defs><linearGradient id="paint0_linear" x1="29.166" y1="0" x2="29.166" y2="71.269" gradientUnits="userSpaceOnUse"><stop stop-color="#93F055"/><stop offset="1" stop-color="#0DB817"/></linearGradient><linearGradient id="paint1_linear" x1="24.889" y1="56.881" x2="60.523" y2="56.881" gradientUnits="userSpaceOnUse"><stop stop-color="#32D1F4" stop-opacity=".63"/><stop offset="1" stop-color="#4CB0FD"/></linearGradient></defs></svg>