<svg width="19" height="19" fill="none" xmlns="http://www.w3.org/2000/svg"><g clip-path="url(#clip0)"><path d="M17.008 5.595a7.642 7.642 0 001.919-1.987 7.996 7.996 0 01-2.206.604 3.808 3.808 0 001.684-2.116 7.66 7.66 0 01-2.427.927A3.827 3.827 0 009.355 5.64c0 .303.026.595.089.872a10.84 10.84 0 01-7.892-4.005 3.86 3.86 0 00-.524 1.936c0 1.326.682 2.5 1.7 3.181a3.784 3.784 0 01-1.73-.471v.042a3.846 3.846 0 003.068 3.762 3.807 3.807 0 01-1.004.126 3.4 3.4 0 01-.724-.065c.496 1.515 1.904 2.63 3.577 2.667a7.696 7.696 0 01-4.747 1.633c-.314 0-.615-.014-.916-.053a10.782 10.782 0 005.873 1.719c6.756 0 11.16-5.637 10.883-11.39z" fill="#fff" fill-opacity=".9"/></g><defs><clipPath id="clip0"><path fill="#fff" transform="translate(.252 .06)" d="M0 0h18.675v18.675H0z"/></clipPath></defs></svg>