<svg width="14" height="14" fill="none" xmlns="http://www.w3.org/2000/svg"><g clip-path="url(#clip0)"><path d="M12.561 4.15A5.727 5.727 0 0014 2.66v-.001a5.979 5.979 0 01-1.654.453 2.855 2.855 0 001.263-1.586 5.742 5.742 0 01-1.82.695 2.87 2.87 0 00-4.965 1.962c0 .228.02.446.067.655A8.126 8.126 0 01.975 1.835a2.873 2.873 0 00.882 3.836A2.837 2.837 0 01.56 5.318v.031c0 1.395.995 2.553 2.3 2.82a2.854 2.854 0 01-.753.095c-.184 0-.37-.01-.543-.049a2.898 2.898 0 002.681 2 5.77 5.77 0 01-3.558 1.224c-.236 0-.461-.01-.687-.04a8.082 8.082 0 004.403 1.289c5.065 0 8.366-4.226 8.158-8.539z" fill="#1E4843" fill-opacity=".3"/></g><defs><clipPath id="clip0"><path fill="#fff" d="M0 0h14v14H0z"/></clipPath></defs></svg>