<svg width="996" height="1030" fill="none" xmlns="http://www.w3.org/2000/svg"><path opacity=".35" d="M174.417 450.856c-97.005 152.6 301.388 487.559 415.179 289.454 84.597-171.535 215.391-115.071 271.994-206.796 75.551-121.645-173.774-286.433-173.623-286.6-290.936-182.98-451.032-24.331-513.55 203.942z" fill="url(#paint0_linear)"/><path d="M57.782 808.424c-78.798 4.648-169.554-49.881-193.807-70.031L-1.501 20.507c162.157 185.126 409.944 135.038 567.708 193.588 176.47 65.492 263.141 153.364 300.969 235.802 37.829 82.437 47.257 254.91-61.42 334.972-108.676 80.062-246.242-19.236-389.428-25.754-143.186-6.517-279.748 44.662-358.546 49.309z" fill="url(#paint1_linear)"/><defs><linearGradient id="paint0_linear" x1="139.951" y1="354.377" x2="920.415" y2="395.419" gradientUnits="userSpaceOnUse"><stop stop-color="#28FEFE" stop-opacity=".3"/><stop offset="1" stop-color="#30B3C7"/></linearGradient><linearGradient id="paint1_linear" x1="544.999" y1="889.507" x2="263.934" y2="215.946" gradientUnits="userSpaceOnUse"><stop stop-color="#01B213"/><stop offset="1" stop-color="#91ED58"/></linearGradient></defs></svg>