<svg width="355" height="234" viewBox="0 0 355 234" fill="none" xmlns="http://www.w3.org/2000/svg">
<g filter="url(#filter0_d)">
<rect x="21" y="32" width="277" height="176" rx="7" fill="white"/>
</g>
<rect x="153.067" y="82.8719" width="120.672" height="64.0298" rx="8" fill="#FBFBFB"/>
<path d="M39.1437 61.9269C38.6262 61.9269 38.175 61.8196 37.79 61.605C37.4113 61.3904 37.1178 61.0875 36.9096 60.6962C36.7013 60.2986 36.5972 59.8347 36.5972 59.3046V54.9026H37.8941V57.5817H37.9036C38.0487 57.3608 38.2507 57.1872 38.5094 57.061C38.7745 56.9348 39.0585 56.8717 39.3614 56.8717C39.8348 56.8717 40.245 56.9758 40.5921 57.1841C40.9392 57.3923 41.2075 57.6795 41.3968 58.0455C41.5924 58.4053 41.6903 58.825 41.6903 59.3046C41.6903 59.8095 41.5893 60.2608 41.3873 60.6584C41.1917 61.0496 40.9045 61.3589 40.5259 61.5861C40.1472 61.8133 39.6865 61.9269 39.1437 61.9269ZM39.1437 60.8193C39.5287 60.8193 39.8285 60.6836 40.0431 60.4122C40.2639 60.1345 40.3744 59.7969 40.3744 59.3993C40.3744 59.0017 40.2639 58.6672 40.0431 58.3958C39.8285 58.1181 39.5287 57.9793 39.1437 57.9793C38.7587 57.9793 38.4558 58.1181 38.2349 58.3958C38.0203 58.6672 37.913 59.0017 37.913 59.3993C37.913 59.7969 38.0203 60.1345 38.2349 60.4122C38.4558 60.6836 38.7587 60.8193 39.1437 60.8193ZM45.1059 61.9269C44.6641 61.9269 44.2791 61.8133 43.951 61.5861C43.6228 61.3589 43.3672 61.056 43.1842 60.6773C43.0075 60.2923 42.9191 59.8695 42.9191 59.4087C42.9191 58.9354 43.0201 58.5063 43.222 58.1213C43.4303 57.7363 43.7269 57.4334 44.1119 57.2125C44.4969 56.9853 44.9576 56.8717 45.494 56.8717C46.0368 56.8717 46.4944 56.9853 46.8667 57.2125C47.2391 57.4397 47.5231 57.7458 47.7187 58.1307C47.9144 58.5157 48.0122 58.9417 48.0122 59.4087V61.8133H46.7153V61.0086H46.6963C46.5512 61.2611 46.3524 61.4788 46.0999 61.6618C45.8538 61.8385 45.5224 61.9269 45.1059 61.9269ZM45.4751 60.8193C45.8538 60.8193 46.1504 60.6804 46.365 60.4028C46.5859 60.1251 46.6963 59.7874 46.6963 59.3898C46.6963 58.9985 46.5859 58.6672 46.365 58.3958C46.1504 58.1181 45.8538 57.9793 45.4751 57.9793C45.0901 57.9793 44.7872 58.1181 44.5663 58.3958C44.3454 58.6672 44.235 58.9985 44.235 59.3898C44.235 59.7874 44.3454 60.1251 44.5663 60.4028C44.7872 60.6804 45.0901 60.8193 45.4751 60.8193ZM49.808 61.8133V58.9449C49.808 58.5662 49.8995 58.2191 50.0825 57.9035C50.2655 57.588 50.5274 57.3387 50.8682 57.1557C51.2154 56.9663 51.6319 56.8717 52.1179 56.8717C52.465 56.8717 52.7774 56.9316 53.0551 57.0515C53.3327 57.1714 53.5694 57.3355 53.7651 57.5438H53.7745C53.9765 57.3355 54.2163 57.1714 54.494 57.0515C54.778 56.9316 55.0936 56.8717 55.4407 56.8717C55.9266 56.8717 56.34 56.9663 56.6808 57.1557C57.0279 57.3387 57.293 57.588 57.476 57.9035C57.659 58.2191 57.7506 58.5662 57.7506 58.9449V61.8133H56.4536V58.9449C56.4536 58.6798 56.3526 58.4526 56.1507 58.2633C55.955 58.0739 55.7184 57.9793 55.4407 57.9793C55.163 57.9793 54.9232 58.0739 54.7212 58.2633C54.5256 58.4526 54.4277 58.6798 54.4277 58.9449V61.8133H53.1308V58.9449C53.1308 58.6798 53.0298 58.4526 52.8279 58.2633C52.6322 58.0739 52.3955 57.9793 52.1179 57.9793C51.8402 57.9793 51.6003 58.0739 51.3984 58.2633C51.2027 58.4526 51.1049 58.6798 51.1049 58.9449V61.8133H49.808ZM62.0461 61.9269C61.5286 61.9269 61.0773 61.8196 60.6923 61.605C60.3137 61.3904 60.0202 61.0875 59.8119 60.6962C59.6037 60.2986 59.4995 59.8347 59.4995 59.3046V54.9026H60.7965V57.5817H60.8059C60.9511 57.3608 61.1531 57.1872 61.4118 57.061C61.6769 56.9348 61.9609 56.8717 62.2638 56.8717C62.7371 56.8717 63.1474 56.9758 63.4945 57.1841C63.8416 57.3923 64.1098 57.6795 64.2992 58.0455C64.4948 58.4053 64.5926 58.825 64.5926 59.3046C64.5926 59.8095 64.4916 60.2608 64.2897 60.6584C64.094 61.0496 63.8069 61.3589 63.4282 61.5861C63.0495 61.8133 62.5888 61.9269 62.0461 61.9269ZM62.0461 60.8193C62.4311 60.8193 62.7308 60.6836 62.9454 60.4122C63.1663 60.1345 63.2768 59.7969 63.2768 59.3993C63.2768 59.0017 63.1663 58.6672 62.9454 58.3958C62.7308 58.1181 62.4311 57.9793 62.0461 57.9793C61.6611 57.9793 61.3582 58.1181 61.1373 58.3958C60.9227 58.6672 60.8154 59.0017 60.8154 59.3993C60.8154 59.7969 60.9227 60.1345 61.1373 60.4122C61.3582 60.6836 61.6611 60.8193 62.0461 60.8193ZM68.4249 61.9269C67.9264 61.9269 67.4814 61.8164 67.0901 61.5956C66.6988 61.3684 66.3896 61.0654 66.1624 60.6868C65.9352 60.3018 65.8216 59.8726 65.8216 59.3993C65.8216 58.9259 65.9352 58.4999 66.1624 58.1213C66.3896 57.7363 66.6988 57.4334 67.0901 57.2125C67.4814 56.9853 67.9264 56.8717 68.4249 56.8717C68.9235 56.8717 69.3685 56.9853 69.7597 57.2125C70.151 57.4334 70.4603 57.7363 70.6875 58.1213C70.9147 58.4999 71.0283 58.9259 71.0283 59.3993C71.0283 59.8726 70.9147 60.3018 70.6875 60.6868C70.4603 61.0654 70.151 61.3684 69.7597 61.5956C69.3685 61.8164 68.9235 61.9269 68.4249 61.9269ZM68.4249 60.8193C68.8225 60.8193 69.1349 60.6836 69.3621 60.4122C69.5957 60.1345 69.7124 59.7969 69.7124 59.3993C69.7124 59.0017 69.5957 58.6672 69.3621 58.3958C69.1349 58.1181 68.8225 57.9793 68.4249 57.9793C68.0273 57.9793 67.7118 58.1181 67.4783 58.3958C67.2511 58.6672 67.1375 59.0017 67.1375 59.3993C67.1375 59.7969 67.2511 60.1345 67.4783 60.4122C67.7118 60.6836 68.0273 60.8193 68.4249 60.8193ZM74.8634 61.9269C74.3648 61.9269 73.9198 61.8164 73.5286 61.5956C73.1373 61.3684 72.828 61.0654 72.6008 60.6868C72.3736 60.3018 72.26 59.8726 72.26 59.3993C72.26 58.9259 72.3736 58.4999 72.6008 58.1213C72.828 57.7363 73.1373 57.4334 73.5286 57.2125C73.9198 56.9853 74.3648 56.8717 74.8634 56.8717C75.3619 56.8717 75.8069 56.9853 76.1982 57.2125C76.5895 57.4334 76.8987 57.7363 77.1259 58.1213C77.3531 58.4999 77.4667 58.9259 77.4667 59.3993C77.4667 59.8726 77.3531 60.3018 77.1259 60.6868C76.8987 61.0654 76.5895 61.3684 76.1982 61.5956C75.8069 61.8164 75.3619 61.9269 74.8634 61.9269ZM74.8634 60.8193C75.261 60.8193 75.5734 60.6836 75.8006 60.4122C76.0341 60.1345 76.1508 59.7969 76.1508 59.3993C76.1508 59.0017 76.0341 58.6672 75.8006 58.3958C75.5734 58.1181 75.261 57.9793 74.8634 57.9793C74.4658 57.9793 74.1502 58.1181 73.9167 58.3958C73.6895 58.6672 73.5759 59.0017 73.5759 59.3993C73.5759 59.7969 73.6895 60.1345 73.9167 60.4122C74.1502 60.6836 74.4658 60.8193 74.8634 60.8193Z" fill="#009F10" fill-opacity="0.27"/>
<rect x="93.2388" y="56.1345" width="188.396" height="5.33582" rx="2.66791" fill="#F1F2F4"/>
<circle cx="273.425" cy="185.015" r="9.02985" fill="url(#paint0_linear)"/>
<path d="M276.283 180.363H269.989C269.168 180.363 268.895 181.184 268.895 181.457C268.803 183.282 268.676 187.149 268.895 188.025C269.113 188.9 269.807 189.119 269.989 189.119H274.915L277.651 190.214V181.457C277.651 180.582 276.739 180.363 276.283 180.363Z" fill="white"/>
<path d="M270.263 186.656C270.719 187.021 271.959 187.751 273.273 187.751C274.586 187.751 275.644 187.021 276.009 186.656" stroke="#8720FC"/>
<path d="M66.1254 73.8623H39.3706C38.266 73.8623 37.3706 74.7577 37.3706 75.8623V93.9452C37.3706 95.0498 38.266 95.9452 39.3706 95.9452H66.1254C67.23 95.9452 68.1254 95.0498 68.1254 93.9452V75.8623C68.1254 74.7577 67.23 73.8623 66.1254 73.8623Z" fill="url(#paint1_linear)"/>
<path d="M66.3126 100.181H39.4028C38.4072 100.181 37.6001 100.988 37.6001 101.983C37.6001 102.979 38.4072 103.786 39.4028 103.786H66.3126C67.3082 103.786 68.1153 102.979 68.1153 101.983C68.1153 100.988 67.3082 100.181 66.3126 100.181Z" fill="url(#paint2_linear)"/>
<path d="M62.4122 106.311H39.4028C38.4072 106.311 37.6001 107.118 37.6001 108.113C37.6001 109.109 38.4072 109.916 39.4028 109.916H62.4122C63.4078 109.916 64.2149 109.109 64.2149 108.113C64.2149 107.118 63.4078 106.311 62.4122 106.311Z" fill="url(#paint3_linear)"/>
<path d="M54.915 85.6005L51.4735 88.3593L51.4735 82.8418L54.915 85.6005Z" fill="white"/>
<path d="M66.1254 117.185H39.3706C38.266 117.185 37.3706 118.08 37.3706 119.185V137.268C37.3706 138.372 38.266 139.268 39.3706 139.268H66.1254C67.23 139.268 68.1254 138.372 68.1254 137.268V119.185C68.1254 118.08 67.23 117.185 66.1254 117.185Z" fill="url(#paint4_linear)"/>
<path d="M66.3126 143.421H39.4028C38.4072 143.421 37.6001 144.228 37.6001 145.224C37.6001 146.219 38.4072 147.026 39.4028 147.026H66.3126C67.3082 147.026 68.1153 146.219 68.1153 145.224C68.1153 144.228 67.3082 143.421 66.3126 143.421Z" fill="url(#paint5_linear)"/>
<path d="M62.4122 149.551H39.4028C38.4072 149.551 37.6001 150.358 37.6001 151.353C37.6001 152.349 38.4072 153.156 39.4028 153.156H62.4122C63.4078 153.156 64.2149 152.349 64.2149 151.353C64.2149 150.358 63.4078 149.551 62.4122 149.551Z" fill="url(#paint6_linear)"/>
<path d="M54.915 128.512L51.4735 131.27L51.4735 125.753L54.915 128.512Z" fill="white"/>
<path d="M66.1254 159.872H39.3706C38.266 159.872 37.3706 160.767 37.3706 161.872V179.955C37.3706 181.059 38.266 181.955 39.3706 181.955H66.1254C67.23 181.955 68.1254 181.059 68.1254 179.955V161.872C68.1254 160.767 67.23 159.872 66.1254 159.872Z" fill="url(#paint7_linear)"/>
<path d="M66.3126 186.108H39.4028C38.4072 186.108 37.6001 186.915 37.6001 187.911C37.6001 188.906 38.4072 189.714 39.4028 189.714H66.3126C67.3082 189.714 68.1153 188.906 68.1153 187.911C68.1153 186.915 67.3082 186.108 66.3126 186.108Z" fill="url(#paint8_linear)"/>
<path d="M62.4122 192.238H39.4028C38.4072 192.238 37.6001 193.045 37.6001 194.041C37.6001 195.036 38.4072 195.843 39.4028 195.843H62.4122C63.4078 195.843 64.2149 195.036 64.2149 194.041C64.2149 193.045 63.4078 192.238 62.4122 192.238Z" fill="url(#paint9_linear)"/>
<path d="M54.915 171.198L51.4735 173.957L51.4735 168.439L54.915 171.198Z" fill="white"/>
<path d="M101 73.8623H74.2454C73.1408 73.8623 72.2454 74.7577 72.2454 75.8623V93.9452C72.2454 95.0498 73.1408 95.9452 74.2454 95.9452H101C102.105 95.9452 103 95.0498 103 93.9452V75.8623C103 74.7577 102.105 73.8623 101 73.8623Z" fill="url(#paint10_linear)"/>
<path d="M101.187 100.181H74.0481C73.0525 100.181 72.2454 100.988 72.2454 101.984C72.2454 102.98 73.0525 103.787 74.0481 103.787H101.187C102.183 103.787 102.99 102.98 102.99 101.984C102.99 100.988 102.183 100.181 101.187 100.181Z" fill="url(#paint11_linear)"/>
<path d="M97.0574 106.311H74.0481C73.0525 106.311 72.2454 107.118 72.2454 108.114C72.2454 109.109 73.0525 109.916 74.0481 109.916H97.0574C98.0531 109.916 98.8601 109.109 98.8601 108.114C98.8601 107.118 98.0531 106.311 97.0574 106.311Z" fill="url(#paint12_linear)"/>
<path d="M89.7898 85.6005L86.3482 88.3593L86.3482 82.8418L89.7898 85.6005Z" fill="white"/>
<path d="M101 117.185H74.2454C73.1408 117.185 72.2454 118.08 72.2454 119.185V137.268C72.2454 138.372 73.1408 139.268 74.2454 139.268H101C102.105 139.268 103 138.372 103 137.268V119.185C103 118.08 102.105 117.185 101 117.185Z" fill="url(#paint13_linear)"/>
<path d="M101.187 143.446H74.0481C73.0525 143.446 72.2454 144.253 72.2454 145.249C72.2454 146.244 73.0525 147.052 74.0481 147.052H101.187C102.183 147.052 102.99 146.244 102.99 145.249C102.99 144.253 102.183 143.446 101.187 143.446Z" fill="url(#paint14_linear)"/>
<path d="M97.0574 149.575H74.0481C73.0525 149.575 72.2454 150.382 72.2454 151.378C72.2454 152.373 73.0525 153.18 74.0481 153.18H97.0574C98.0531 153.18 98.8601 152.373 98.8601 151.378C98.8601 150.382 98.0531 149.575 97.0574 149.575Z" fill="url(#paint15_linear)"/>
<path d="M89.7896 128.512L86.348 131.27L86.348 125.753L89.7896 128.512Z" fill="white"/>
<path d="M101 159.871H74.2454C73.1408 159.871 72.2454 160.767 72.2454 161.871V179.954C72.2454 181.059 73.1408 181.954 74.2454 181.954H101C102.105 181.954 103 181.059 103 179.954V161.871C103 160.767 102.105 159.871 101 159.871Z" fill="url(#paint16_linear)"/>
<path d="M101.187 186.133H74.0481C73.0525 186.133 72.2454 186.94 72.2454 187.936C72.2454 188.931 73.0525 189.738 74.0481 189.738H101.187C102.183 189.738 102.99 188.931 102.99 187.936C102.99 186.94 102.183 186.133 101.187 186.133Z" fill="url(#paint17_linear)"/>
<path d="M97.0574 192.261H74.0481C73.0525 192.261 72.2454 193.069 72.2454 194.064C72.2454 195.06 73.0525 195.867 74.0481 195.867H97.0574C98.0531 195.867 98.8601 195.06 98.8601 194.064C98.8601 193.069 98.0531 192.261 97.0574 192.261Z" fill="url(#paint18_linear)"/>
<path d="M89.7896 171.198L86.348 173.957L86.348 168.439L89.7896 171.198Z" fill="white"/>
<path d="M136 73.8623H109.245C108.141 73.8623 107.245 74.7577 107.245 75.8623V93.9452C107.245 95.0498 108.141 95.9452 109.245 95.9452H136C137.105 95.9452 138 95.0498 138 93.9452V75.8623C138 74.7577 137.105 73.8623 136 73.8623Z" fill="url(#paint19_linear)"/>
<path d="M136.187 100.181H109.048C108.052 100.181 107.245 100.988 107.245 101.984C107.245 102.98 108.052 103.787 109.048 103.787H136.187C137.183 103.787 137.99 102.98 137.99 101.984C137.99 100.988 137.183 100.181 136.187 100.181Z" fill="url(#paint20_linear)"/>
<path d="M132.057 106.311H109.048C108.052 106.311 107.245 107.118 107.245 108.114C107.245 109.109 108.052 109.916 109.048 109.916H132.057C133.053 109.916 133.86 109.109 133.86 108.114C133.86 107.118 133.053 106.311 132.057 106.311Z" fill="url(#paint21_linear)"/>
<path d="M124.79 85.6005L121.348 88.3593L121.348 82.8418L124.79 85.6005Z" fill="white"/>
<path d="M136 117.185H109.245C108.141 117.185 107.245 118.08 107.245 119.185V137.268C107.245 138.372 108.141 139.268 109.245 139.268H136C137.105 139.268 138 138.372 138 137.268V119.185C138 118.08 137.105 117.185 136 117.185Z" fill="url(#paint22_linear)"/>
<path d="M136.187 143.446H109.048C108.052 143.446 107.245 144.253 107.245 145.249C107.245 146.244 108.052 147.052 109.048 147.052H136.187C137.183 147.052 137.99 146.244 137.99 145.249C137.99 144.253 137.183 143.446 136.187 143.446Z" fill="url(#paint23_linear)"/>
<path d="M132.057 149.575H109.048C108.052 149.575 107.245 150.382 107.245 151.378C107.245 152.373 108.052 153.18 109.048 153.18H132.057C133.053 153.18 133.86 152.373 133.86 151.378C133.86 150.382 133.053 149.575 132.057 149.575Z" fill="url(#paint24_linear)"/>
<path d="M124.79 128.512L121.348 131.27L121.348 125.753L124.79 128.512Z" fill="white"/>
<path d="M136 159.871H109.245C108.141 159.871 107.245 160.767 107.245 161.871V179.954C107.245 181.059 108.141 181.954 109.245 181.954H136C137.105 181.954 138 181.059 138 179.954V161.871C138 160.767 137.105 159.871 136 159.871Z" fill="url(#paint25_linear)"/>
<path d="M136.187 186.133H109.048C108.052 186.133 107.245 186.94 107.245 187.936C107.245 188.931 108.052 189.738 109.048 189.738H136.187C137.183 189.738 137.99 188.931 137.99 187.936C137.99 186.94 137.183 186.133 136.187 186.133Z" fill="url(#paint26_linear)"/>
<path d="M132.057 192.261H109.048C108.052 192.261 107.245 193.069 107.245 194.064C107.245 195.06 108.052 195.867 109.048 195.867H132.057C133.053 195.867 133.86 195.06 133.86 194.064C133.86 193.069 133.053 192.261 132.057 192.261Z" fill="url(#paint27_linear)"/>
<path d="M124.79 171.198L121.348 173.957L121.348 168.439L124.79 171.198Z" fill="white"/>
<path d="M21 39C21 35.134 24.134 32 28 32H292C295.866 32 299 35.134 299 39V46H21V39Z" fill="url(#paint28_linear)"/>
<circle cx="37" cy="39" r="2" fill="#6AC2FC"/>
<circle cx="44" cy="39" r="2" fill="#F1EE33" fill-opacity="0.8"/>
<circle cx="51" cy="39" r="2" fill="#89E23A"/>
<path d="M269.951 136.432V77C269.951 75.3431 268.608 74 266.951 74L150 74C148.343 74 147 75.3431 147 77V136.432L269.951 136.432Z" fill="url(#paint29_linear)"/>
<path d="M252.063 136.485H232.855L269.939 104.608V121.119L252.063 136.485ZM203.925 136.485H210.455L269.949 85.3456V79.7332L203.925 136.485ZM147 97.3984V103.011L180.669 74.0706H174.139L147 97.3984ZM214.376 74.0789H185.923L147.01 107.528V131.985L214.376 74.0789Z" fill="url(#paint30_linear)" fill-opacity="0.3"/>
<path d="M270 136.443H147V142.348C147 144.005 148.343 145.348 150 145.348H267C268.657 145.348 270 144.005 270 142.348V136.443Z" fill="#4D2A71"/>
<path d="M266.652 139.464H232.988C232.726 139.464 232.511 139.257 232.511 139.003C232.511 138.749 232.726 138.542 232.988 138.542H266.652C266.914 138.542 267.129 138.749 267.129 139.003C267.119 139.257 266.914 139.464 266.652 139.464Z" fill="white"/>
<path d="M232.979 139.464H150.524C150.262 139.464 150.047 139.257 150.047 139.003C150.047 138.749 150.262 138.542 150.524 138.542H232.979C233.242 138.542 233.456 138.749 233.456 139.003C233.456 139.257 233.242 139.464 232.979 139.464Z" fill="#03D218"/>
<path d="M233.991 139.003C233.991 139.54 233.543 139.973 232.988 139.973C232.433 139.973 231.986 139.54 231.986 139.003C231.986 138.467 232.433 138.034 232.988 138.034C233.533 138.034 233.991 138.467 233.991 139.003Z" fill="#FFFDFF"/>
<path d="M156.257 141.574H156.9V143.701H156.257V141.574ZM155.021 143.701H155.663V141.574H155.021V143.701ZM161.134 141.574V142.43L159.781 141.574V143.701L161.134 142.845V143.701H161.777V141.574H161.134ZM150.144 141.574V143.701H150.786V142.845L152.139 143.701V141.574L150.786 142.43V141.574H150.144Z" fill="white"/>
<path d="M257.131 142.149L257.067 142.002C257.067 142.002 257.216 141.669 257.2 141.659L257.003 141.469C256.987 141.458 256.65 141.606 256.65 141.606L256.495 141.543C256.495 141.543 256.357 141.205 256.341 141.205H256.063C256.041 141.205 255.919 141.543 255.919 141.543L255.764 141.606C255.764 141.606 255.422 141.464 255.406 141.474L255.208 141.664C255.192 141.675 255.353 142.002 255.353 142.002L255.289 142.149C255.289 142.149 254.941 142.281 254.941 142.297V142.566C254.941 142.587 255.289 142.708 255.289 142.708L255.353 142.856C255.353 142.856 255.203 143.188 255.219 143.199L255.417 143.389C255.427 143.399 255.764 143.252 255.764 143.252L255.919 143.315C255.919 143.315 256.057 143.653 256.074 143.653H256.351C256.373 143.653 256.495 143.315 256.495 143.315L256.65 143.252C256.65 143.252 256.992 143.394 257.008 143.384L257.206 143.194C257.222 143.178 257.061 142.856 257.061 142.856L257.126 142.708C257.126 142.708 257.473 142.577 257.473 142.555V142.286C257.478 142.276 257.131 142.149 257.131 142.149ZM256.618 142.434C256.618 142.65 256.437 142.83 256.212 142.83C255.988 142.83 255.807 142.656 255.807 142.434C255.807 142.218 255.988 142.044 256.212 142.044C256.437 142.039 256.618 142.218 256.618 142.434Z" fill="white"/>
<path d="M262.354 143.303H259.281V141.554H262.354V143.303ZM259.508 143.106H262.128V141.746H259.508V143.106Z" fill="white"/>
<path d="M265.482 141.484H266.229V142.212H266.448V141.273H265.482V141.484Z" fill="white"/>
<path d="M264.309 142.213V141.485H265.062V141.274H264.091V142.213H264.309Z" fill="white"/>
<path d="M266.229 142.619V143.346H265.482V143.557H266.448V142.619H266.229Z" fill="white"/>
<path d="M265.062 143.346H264.309V142.619H264.091V143.557H265.062V143.346Z" fill="white"/>
<g clip-path="url(#clip0)">
<path d="M194.252 185.774H189.939C189.238 183.44 187.093 181.725 184.534 181.725C181.975 181.725 179.832 183.44 179.13 185.774H158.62C157.726 185.774 157 186.499 157 187.393C157 188.287 157.726 189.013 158.62 189.013H179.13C179.831 191.347 181.975 193.062 184.534 193.062C187.093 193.062 189.236 191.347 189.939 189.013H194.252C195.148 189.013 195.872 188.287 195.872 187.393C195.872 186.499 195.148 185.774 194.252 185.774ZM184.534 189.823C183.195 189.823 182.105 188.733 182.105 187.393C182.105 186.054 183.195 184.964 184.534 184.964C185.874 184.964 186.964 186.054 186.964 187.393C186.964 188.733 185.874 189.823 184.534 189.823Z" fill="#D2D5F6"/>
<path d="M194.252 159.859H189.939C189.236 157.526 187.093 155.81 184.534 155.81C181.975 155.81 179.832 157.526 179.13 159.859H158.62C157.726 159.859 157 160.585 157 161.479C157 162.373 157.726 163.099 158.62 163.099H179.13C179.832 165.433 181.975 167.148 184.534 167.148C187.093 167.148 189.236 165.433 189.939 163.099H194.252C195.148 163.099 195.872 162.373 195.872 161.479C195.872 160.585 195.148 159.859 194.252 159.859ZM184.534 163.909C183.195 163.909 182.105 162.819 182.105 161.479C182.105 160.14 183.195 159.05 184.534 159.05C185.874 159.05 186.964 160.14 186.964 161.479C186.964 162.819 185.874 163.909 184.534 163.909Z" fill="#D2D5F6"/>
<path d="M194.252 172.816H173.743C173.04 170.482 170.897 168.767 168.338 168.767C165.779 168.767 163.636 170.482 162.933 172.816H158.62C157.726 172.816 157 173.542 157 174.436C157 175.33 157.726 176.055 158.62 176.055H162.933C163.636 178.389 165.779 180.105 168.338 180.105C170.897 180.105 173.04 178.389 173.742 176.055H194.252C195.148 176.055 195.872 175.33 195.872 174.436C195.872 173.542 195.148 172.816 194.252 172.816ZM168.338 176.865C166.998 176.865 165.908 175.775 165.908 174.436C165.908 173.096 166.998 172.006 168.338 172.006C169.677 172.006 170.767 173.096 170.767 174.436C170.767 175.775 169.677 176.865 168.338 176.865Z" fill="#D2D5F6"/>
</g>
<g clip-path="url(#clip1)">
<path d="M249.058 185.774H244.745C244.043 183.44 241.899 181.725 239.34 181.725C236.781 181.725 234.638 183.44 233.935 185.774H213.425C212.531 185.774 211.805 186.499 211.805 187.393C211.805 188.287 212.531 189.013 213.425 189.013H233.935C234.636 191.347 236.781 193.062 239.34 193.062C241.899 193.062 244.042 191.347 244.745 189.013H249.058C249.953 189.013 250.677 188.287 250.677 187.393C250.677 186.499 249.953 185.774 249.058 185.774ZM239.34 189.823C238 189.823 236.91 188.733 236.91 187.393C236.91 186.054 238 184.964 239.34 184.964C240.679 184.964 241.769 186.054 241.769 187.393C241.769 188.733 240.679 189.823 239.34 189.823Z" fill="#D2D5F6"/>
<path d="M249.058 159.859H244.745C244.042 157.526 241.899 155.81 239.34 155.81C236.781 155.81 234.638 157.526 233.935 159.859H213.425C212.531 159.859 211.805 160.585 211.805 161.479C211.805 162.373 212.531 163.099 213.425 163.099H233.935C234.638 165.433 236.781 167.148 239.34 167.148C241.899 167.148 244.042 165.433 244.745 163.099H249.058C249.953 163.099 250.677 162.373 250.677 161.479C250.677 160.585 249.953 159.859 249.058 159.859ZM239.34 163.909C238 163.909 236.91 162.819 236.91 161.479C236.91 160.14 238 159.05 239.34 159.05C240.679 159.05 241.769 160.14 241.769 161.479C241.769 162.819 240.679 163.909 239.34 163.909Z" fill="#D2D5F6"/>
<path d="M249.058 172.816H228.548C227.845 170.482 225.702 168.767 223.143 168.767C220.584 168.767 218.441 170.482 217.738 172.816H213.425C212.531 172.816 211.805 173.542 211.805 174.436C211.805 175.33 212.531 176.055 213.425 176.055H217.738C218.441 178.389 220.584 180.105 223.143 180.105C225.702 180.105 227.845 178.389 228.548 176.055H249.058C249.953 176.055 250.677 175.33 250.677 174.436C250.677 173.542 249.953 172.816 249.058 172.816ZM223.143 176.865C221.804 176.865 220.714 175.775 220.714 174.436C220.714 173.096 221.804 172.006 223.143 172.006C224.483 172.006 225.573 173.096 225.573 174.436C225.573 175.775 224.483 176.865 223.143 176.865Z" fill="#D2D5F6"/>
</g>
<g filter="url(#filter1_d)">
<rect x="197" y="20" width="134" height="92" rx="6" fill="white"/>
</g>
<rect x="209.117" y="36.0579" width="11.4043" height="10.6915" fill="#FF8D7E"/>
<rect x="225.511" y="36.0579" width="11.4043" height="10.6915" fill="#FFF97B"/>
<rect x="241.904" y="36.0579" width="11.4043" height="10.6915" fill="#7DEA80"/>
<rect x="258.298" y="36.0579" width="11.4043" height="10.6915" fill="#00DE7E"/>
<rect x="274.691" y="36.0579" width="11.4043" height="10.6915" fill="#00E6FF"/>
<rect x="291.085" y="36.0579" width="11.4043" height="10.6915" fill="#FF96BF"/>
<rect x="307.479" y="36.0579" width="11.4043" height="10.6915" fill="#FF97FB"/>
<rect x="209.117" y="51.7382" width="11.4043" height="10.6915" fill="#FF1900"/>
<rect x="225.511" y="51.7382" width="11.4043" height="10.6915" fill="#FFF000"/>
<rect x="241.904" y="51.7382" width="11.4043" height="10.6915" fill="#82E300"/>
<rect x="258.298" y="51.7382" width="11.4043" height="10.6915" fill="#00DB3C"/>
<rect x="274.691" y="51.7382" width="11.4043" height="10.6915" fill="#007CF8"/>
<rect x="291.085" y="51.7382" width="11.4043" height="10.6915" fill="#8284BD"/>
<rect x="307.479" y="51.7382" width="11.4043" height="10.6915" fill="#FF2DFF"/>
<rect x="209.117" y="67.4194" width="11.4043" height="10.6915" fill="#890D11"/>
<rect x="225.511" y="67.4194" width="11.4043" height="10.6915" fill="#FF890D"/>
<rect x="241.904" y="67.4194" width="11.4043" height="10.6915" fill="#016C0B"/>
<rect x="258.298" y="67.4194" width="11.4043" height="10.6915" fill="#025B3E"/>
<rect x="289.103" y="65.6169" width="15.6551" height="14.6142" stroke="white"/>
<rect x="289.103" y="65.6169" width="15.6551" height="14.6142" stroke="#4351FC"/>
<rect x="274.691" y="67.4194" width="11.4043" height="10.6915" fill="#4351FC"/>
<rect x="291.085" y="67.4194" width="11.4043" height="10.6915" fill="#8720FC"/>
<rect x="307.479" y="67.4194" width="11.4043" height="10.6915" fill="#85177E"/>
<rect x="209.117" y="83.0996" width="11.4043" height="10.6915" fill="#460B07"/>
<rect x="225.511" y="83.0996" width="11.4043" height="10.6915" fill="#7C4104"/>
<rect x="241.904" y="83.0996" width="11.4043" height="10.6915" fill="#0A3206"/>
<rect x="258.298" y="83.0996" width="11.4043" height="10.6915" fill="#013133"/>
<rect x="274.691" y="83.0996" width="11.4043" height="10.6915" fill="#0708A5"/>
<rect x="291.085" y="83.0996" width="11.4043" height="10.6915" fill="black"/>
<rect x="307.979" y="83.5996" width="10.4043" height="9.69149" fill="white" stroke="#E3E6F2"/>
<defs>
<filter id="filter0_d" x="0" y="16" width="319" height="218" filterUnits="userSpaceOnUse" color-interpolation-filters="sRGB">
<feFlood flood-opacity="0" result="BackgroundImageFix"/>
<feColorMatrix in="SourceAlpha" type="matrix" values="0 0 0 0 0 0 0 0 0 0 0 0 0 0 0 0 0 0 127 0"/>
<feOffset dy="5"/>
<feGaussianBlur stdDeviation="10.5"/>
<feColorMatrix type="matrix" values="0 0 0 0 0.623529 0 0 0 0 0.698039 0 0 0 0 0.686275 0 0 0 0.2 0"/>
<feBlend mode="normal" in2="BackgroundImageFix" result="effect1_dropShadow"/>
<feBlend mode="normal" in="SourceGraphic" in2="effect1_dropShadow" result="shape"/>
</filter>
<filter id="filter1_d" x="173" y="0" width="182" height="140" filterUnits="userSpaceOnUse" color-interpolation-filters="sRGB">
<feFlood flood-opacity="0" result="BackgroundImageFix"/>
<feColorMatrix in="SourceAlpha" type="matrix" values="0 0 0 0 0 0 0 0 0 0 0 0 0 0 0 0 0 0 127 0"/>
<feOffset dy="4"/>
<feGaussianBlur stdDeviation="12"/>
<feColorMatrix type="matrix" values="0 0 0 0 0 0 0 0 0 0 0 0 0 0 0 0 0 0 0.14 0"/>
<feBlend mode="normal" in2="BackgroundImageFix" result="effect1_dropShadow"/>
<feBlend mode="normal" in="SourceGraphic" in2="effect1_dropShadow" result="shape"/>
</filter>
<linearGradient id="paint0_linear" x1="266.037" y1="177.08" x2="273.425" y2="194.045" gradientUnits="userSpaceOnUse">
<stop stop-color="#8720FC"/>
<stop offset="1" stop-color="#8720FC"/>
</linearGradient>
<linearGradient id="paint1_linear" x1="52.748" y1="73.8623" x2="52.748" y2="95.9452" gradientUnits="userSpaceOnUse">
<stop stop-color="#D2D5F7"/>
<stop offset="1" stop-color="#D0D3F2"/>
</linearGradient>
<linearGradient id="paint2_linear" x1="52.8577" y1="100.181" x2="52.8577" y2="103.786" gradientUnits="userSpaceOnUse">
<stop stop-color="#D2D5F7"/>
<stop offset="1" stop-color="#D0D3F2"/>
</linearGradient>
<linearGradient id="paint3_linear" x1="50.9075" y1="106.311" x2="50.9075" y2="109.916" gradientUnits="userSpaceOnUse">
<stop stop-color="#D2D5F7"/>
<stop offset="1" stop-color="#D0D3F2"/>
</linearGradient>
<linearGradient id="paint4_linear" x1="52.748" y1="117.185" x2="52.748" y2="139.268" gradientUnits="userSpaceOnUse">
<stop stop-color="#D2D5F7"/>
<stop offset="1" stop-color="#D0D3F2"/>
</linearGradient>
<linearGradient id="paint5_linear" x1="52.8577" y1="143.421" x2="52.8577" y2="147.026" gradientUnits="userSpaceOnUse">
<stop stop-color="#D2D5F7"/>
<stop offset="1" stop-color="#D0D3F2"/>
</linearGradient>
<linearGradient id="paint6_linear" x1="50.9075" y1="149.551" x2="50.9075" y2="153.156" gradientUnits="userSpaceOnUse">
<stop stop-color="#D2D5F7"/>
<stop offset="1" stop-color="#D0D3F2"/>
</linearGradient>
<linearGradient id="paint7_linear" x1="52.748" y1="159.872" x2="52.748" y2="181.955" gradientUnits="userSpaceOnUse">
<stop stop-color="#D2D5F7"/>
<stop offset="1" stop-color="#D0D3F2"/>
</linearGradient>
<linearGradient id="paint8_linear" x1="52.8577" y1="186.108" x2="52.8577" y2="189.714" gradientUnits="userSpaceOnUse">
<stop stop-color="#D2D5F7"/>
<stop offset="1" stop-color="#D0D3F2"/>
</linearGradient>
<linearGradient id="paint9_linear" x1="50.9075" y1="192.238" x2="50.9075" y2="195.843" gradientUnits="userSpaceOnUse">
<stop stop-color="#D2D5F7"/>
<stop offset="1" stop-color="#D0D3F2"/>
</linearGradient>
<linearGradient id="paint10_linear" x1="87.6228" y1="73.8623" x2="87.6228" y2="95.9452" gradientUnits="userSpaceOnUse">
<stop stop-color="#D2D5F7"/>
<stop offset="1" stop-color="#D0D3F2"/>
</linearGradient>
<linearGradient id="paint11_linear" x1="87.6177" y1="100.181" x2="87.6177" y2="103.787" gradientUnits="userSpaceOnUse">
<stop stop-color="#D2D5F7"/>
<stop offset="1" stop-color="#D0D3F2"/>
</linearGradient>
<linearGradient id="paint12_linear" x1="85.5528" y1="106.311" x2="85.5528" y2="109.916" gradientUnits="userSpaceOnUse">
<stop stop-color="#D2D5F7"/>
<stop offset="1" stop-color="#D0D3F2"/>
</linearGradient>
<linearGradient id="paint13_linear" x1="87.6228" y1="117.185" x2="87.6228" y2="139.268" gradientUnits="userSpaceOnUse">
<stop stop-color="#D2D5F7"/>
<stop offset="1" stop-color="#D0D3F2"/>
</linearGradient>
<linearGradient id="paint14_linear" x1="87.6177" y1="143.446" x2="87.6177" y2="147.052" gradientUnits="userSpaceOnUse">
<stop stop-color="#D2D5F7"/>
<stop offset="1" stop-color="#D0D3F2"/>
</linearGradient>
<linearGradient id="paint15_linear" x1="85.5528" y1="149.575" x2="85.5528" y2="153.18" gradientUnits="userSpaceOnUse">
<stop stop-color="#D2D5F7"/>
<stop offset="1" stop-color="#D0D3F2"/>
</linearGradient>
<linearGradient id="paint16_linear" x1="87.6228" y1="159.871" x2="87.6228" y2="181.954" gradientUnits="userSpaceOnUse">
<stop stop-color="#D2D5F7"/>
<stop offset="1" stop-color="#D0D3F2"/>
</linearGradient>
<linearGradient id="paint17_linear" x1="87.6177" y1="186.133" x2="87.6177" y2="189.738" gradientUnits="userSpaceOnUse">
<stop stop-color="#D2D5F7"/>
<stop offset="1" stop-color="#D0D3F2"/>
</linearGradient>
<linearGradient id="paint18_linear" x1="85.5528" y1="192.261" x2="85.5528" y2="195.867" gradientUnits="userSpaceOnUse">
<stop stop-color="#D2D5F7"/>
<stop offset="1" stop-color="#D0D3F2"/>
</linearGradient>
<linearGradient id="paint19_linear" x1="122.623" y1="73.8623" x2="122.623" y2="95.9452" gradientUnits="userSpaceOnUse">
<stop stop-color="#D2D5F7"/>
<stop offset="1" stop-color="#D0D3F2"/>
</linearGradient>
<linearGradient id="paint20_linear" x1="122.618" y1="100.181" x2="122.618" y2="103.787" gradientUnits="userSpaceOnUse">
<stop stop-color="#D2D5F7"/>
<stop offset="1" stop-color="#D0D3F2"/>
</linearGradient>
<linearGradient id="paint21_linear" x1="120.553" y1="106.311" x2="120.553" y2="109.916" gradientUnits="userSpaceOnUse">
<stop stop-color="#D2D5F7"/>
<stop offset="1" stop-color="#D0D3F2"/>
</linearGradient>
<linearGradient id="paint22_linear" x1="122.623" y1="117.185" x2="122.623" y2="139.268" gradientUnits="userSpaceOnUse">
<stop stop-color="#D2D5F7"/>
<stop offset="1" stop-color="#D0D3F2"/>
</linearGradient>
<linearGradient id="paint23_linear" x1="122.618" y1="143.446" x2="122.618" y2="147.052" gradientUnits="userSpaceOnUse">
<stop stop-color="#D2D5F7"/>
<stop offset="1" stop-color="#D0D3F2"/>
</linearGradient>
<linearGradient id="paint24_linear" x1="120.553" y1="149.575" x2="120.553" y2="153.18" gradientUnits="userSpaceOnUse">
<stop stop-color="#D2D5F7"/>
<stop offset="1" stop-color="#D0D3F2"/>
</linearGradient>
<linearGradient id="paint25_linear" x1="122.623" y1="159.871" x2="122.623" y2="181.954" gradientUnits="userSpaceOnUse">
<stop stop-color="#D2D5F7"/>
<stop offset="1" stop-color="#D0D3F2"/>
</linearGradient>
<linearGradient id="paint26_linear" x1="122.618" y1="186.133" x2="122.618" y2="189.738" gradientUnits="userSpaceOnUse">
<stop stop-color="#D2D5F7"/>
<stop offset="1" stop-color="#D0D3F2"/>
</linearGradient>
<linearGradient id="paint27_linear" x1="120.553" y1="192.261" x2="120.553" y2="195.867" gradientUnits="userSpaceOnUse">
<stop stop-color="#D2D5F7"/>
<stop offset="1" stop-color="#D0D3F2"/>
</linearGradient>
<linearGradient id="paint28_linear" x1="21" y1="45.9999" x2="299" y2="45.9999" gradientUnits="userSpaceOnUse">
<stop stop-color="#8720FC"/>
<stop offset="1" stop-color="#AF7AEC"/>
</linearGradient>
<linearGradient id="paint29_linear" x1="184.435" y1="68.2715" x2="283.782" y2="153.747" gradientUnits="userSpaceOnUse">
<stop stop-color="#BABEE8"/>
<stop offset="0.718805" stop-color="#D8DBF8"/>
<stop offset="1" stop-color="#E3E6FE"/>
</linearGradient>
<linearGradient id="paint30_linear" x1="159.364" y1="79.8115" x2="263.897" y2="140.938" gradientUnits="userSpaceOnUse">
<stop stop-color="#A5ADF0"/>
<stop offset="1" stop-color="#8F99F0" stop-opacity="0.96"/>
</linearGradient>
<clipPath id="clip0">
<rect width="38.872" height="38.872" fill="white" transform="translate(157 155)"/>
</clipPath>
<clipPath id="clip1">
<rect width="38.872" height="38.872" fill="white" transform="translate(211.805 155)"/>
</clipPath>
</defs>
</svg>
