<svg width="352" height="218" viewBox="0 0 352 218" fill="none" xmlns="http://www.w3.org/2000/svg">
<g filter="url(#filter0_d)">
<rect x="39" y="16" width="276.642" height="176" rx="7" fill="white"/>
</g>
<path d="M299.096 139.504V64.3041C299.096 60.9904 296.41 58.3041 293.096 58.3041L169.679 58.3041C166.366 58.3041 163.679 60.9904 163.679 64.3041L163.679 139.504L299.096 139.504Z" fill="url(#paint0_linear)"/>
<path d="M279.395 139.572H258.239L299.082 98.1136V119.588L279.395 139.572ZM226.376 139.572H233.567L299.093 73.06V65.7604L226.376 139.572ZM163.679 88.7362V96.0358L200.761 58.3955H193.57L163.679 88.7362ZM237.886 58.4064H206.549L163.69 101.91V133.72L237.886 58.4064Z" fill="url(#paint1_linear)" fill-opacity="0.3"/>
<rect x="171.067" y="64.8719" width="120.672" height="64.0298" rx="8" fill="#FBFBFB"/>
<rect x="162.448" y="145.73" width="136.679" height="31.194" fill="url(#paint2_linear)" fill-opacity="0.8"/>
<path d="M57.1437 43.9269C56.6262 43.9269 56.175 43.8196 55.79 43.605C55.4113 43.3904 55.1178 43.0875 54.9096 42.6962C54.7013 42.2986 54.5972 41.8347 54.5972 41.3046V36.9026H55.8941V39.5817H55.9036C56.0487 39.3608 56.2507 39.1872 56.5094 39.061C56.7745 38.9348 57.0585 38.8717 57.3614 38.8717C57.8348 38.8717 58.245 38.9758 58.5921 39.1841C58.9392 39.3923 59.2075 39.6795 59.3968 40.0455C59.5924 40.4053 59.6903 40.825 59.6903 41.3046C59.6903 41.8095 59.5893 42.2608 59.3873 42.6584C59.1917 43.0496 58.9045 43.3589 58.5259 43.5861C58.1472 43.8133 57.6865 43.9269 57.1437 43.9269ZM57.1437 42.8193C57.5287 42.8193 57.8285 42.6836 58.0431 42.4122C58.2639 42.1345 58.3744 41.7969 58.3744 41.3993C58.3744 41.0017 58.2639 40.6672 58.0431 40.3958C57.8285 40.1181 57.5287 39.9793 57.1437 39.9793C56.7587 39.9793 56.4558 40.1181 56.2349 40.3958C56.0203 40.6672 55.913 41.0017 55.913 41.3993C55.913 41.7969 56.0203 42.1345 56.2349 42.4122C56.4558 42.6836 56.7587 42.8193 57.1437 42.8193ZM63.1059 43.9269C62.6641 43.9269 62.2791 43.8133 61.951 43.5861C61.6228 43.3589 61.3672 43.056 61.1842 42.6773C61.0075 42.2923 60.9191 41.8695 60.9191 41.4087C60.9191 40.9354 61.0201 40.5063 61.222 40.1213C61.4303 39.7363 61.7269 39.4334 62.1119 39.2125C62.4969 38.9853 62.9576 38.8717 63.494 38.8717C64.0368 38.8717 64.4944 38.9853 64.8667 39.2125C65.2391 39.4397 65.5231 39.7458 65.7187 40.1307C65.9144 40.5157 66.0122 40.9417 66.0122 41.4087V43.8133H64.7153V43.0086H64.6963C64.5512 43.2611 64.3524 43.4788 64.0999 43.6618C63.8538 43.8385 63.5224 43.9269 63.1059 43.9269ZM63.4751 42.8193C63.8538 42.8193 64.1504 42.6804 64.365 42.4028C64.5859 42.1251 64.6963 41.7874 64.6963 41.3898C64.6963 40.9985 64.5859 40.6672 64.365 40.3958C64.1504 40.1181 63.8538 39.9793 63.4751 39.9793C63.0901 39.9793 62.7872 40.1181 62.5663 40.3958C62.3454 40.6672 62.235 40.9985 62.235 41.3898C62.235 41.7874 62.3454 42.1251 62.5663 42.4028C62.7872 42.6804 63.0901 42.8193 63.4751 42.8193ZM67.808 43.8133V40.9449C67.808 40.5662 67.8995 40.2191 68.0825 39.9035C68.2655 39.588 68.5274 39.3387 68.8682 39.1557C69.2154 38.9663 69.6319 38.8717 70.1179 38.8717C70.465 38.8717 70.7774 38.9316 71.0551 39.0515C71.3327 39.1714 71.5694 39.3355 71.7651 39.5438H71.7745C71.9765 39.3355 72.2163 39.1714 72.494 39.0515C72.778 38.9316 73.0936 38.8717 73.4407 38.8717C73.9266 38.8717 74.34 38.9663 74.6808 39.1557C75.0279 39.3387 75.293 39.588 75.476 39.9035C75.659 40.2191 75.7506 40.5662 75.7506 40.9449V43.8133H74.4536V40.9449C74.4536 40.6798 74.3526 40.4526 74.1507 40.2633C73.955 40.0739 73.7184 39.9793 73.4407 39.9793C73.163 39.9793 72.9232 40.0739 72.7212 40.2633C72.5256 40.4526 72.4277 40.6798 72.4277 40.9449V43.8133H71.1308V40.9449C71.1308 40.6798 71.0298 40.4526 70.8279 40.2633C70.6322 40.0739 70.3955 39.9793 70.1179 39.9793C69.8402 39.9793 69.6003 40.0739 69.3984 40.2633C69.2027 40.4526 69.1049 40.6798 69.1049 40.9449V43.8133H67.808ZM80.0461 43.9269C79.5286 43.9269 79.0773 43.8196 78.6923 43.605C78.3137 43.3904 78.0202 43.0875 77.8119 42.6962C77.6037 42.2986 77.4995 41.8347 77.4995 41.3046V36.9026H78.7965V39.5817H78.8059C78.9511 39.3608 79.1531 39.1872 79.4118 39.061C79.6769 38.9348 79.9609 38.8717 80.2638 38.8717C80.7371 38.8717 81.1474 38.9758 81.4945 39.1841C81.8416 39.3923 82.1098 39.6795 82.2992 40.0455C82.4948 40.4053 82.5926 40.825 82.5926 41.3046C82.5926 41.8095 82.4916 42.2608 82.2897 42.6584C82.094 43.0496 81.8069 43.3589 81.4282 43.5861C81.0495 43.8133 80.5888 43.9269 80.0461 43.9269ZM80.0461 42.8193C80.4311 42.8193 80.7308 42.6836 80.9454 42.4122C81.1663 42.1345 81.2768 41.7969 81.2768 41.3993C81.2768 41.0017 81.1663 40.6672 80.9454 40.3958C80.7308 40.1181 80.4311 39.9793 80.0461 39.9793C79.6611 39.9793 79.3582 40.1181 79.1373 40.3958C78.9227 40.6672 78.8154 41.0017 78.8154 41.3993C78.8154 41.7969 78.9227 42.1345 79.1373 42.4122C79.3582 42.6836 79.6611 42.8193 80.0461 42.8193ZM86.4249 43.9269C85.9264 43.9269 85.4814 43.8164 85.0901 43.5956C84.6988 43.3684 84.3896 43.0654 84.1624 42.6868C83.9352 42.3018 83.8216 41.8726 83.8216 41.3993C83.8216 40.9259 83.9352 40.4999 84.1624 40.1213C84.3896 39.7363 84.6988 39.4334 85.0901 39.2125C85.4814 38.9853 85.9264 38.8717 86.4249 38.8717C86.9235 38.8717 87.3685 38.9853 87.7597 39.2125C88.151 39.4334 88.4603 39.7363 88.6875 40.1213C88.9147 40.4999 89.0283 40.9259 89.0283 41.3993C89.0283 41.8726 88.9147 42.3018 88.6875 42.6868C88.4603 43.0654 88.151 43.3684 87.7597 43.5956C87.3685 43.8164 86.9235 43.9269 86.4249 43.9269ZM86.4249 42.8193C86.8225 42.8193 87.1349 42.6836 87.3621 42.4122C87.5957 42.1345 87.7124 41.7969 87.7124 41.3993C87.7124 41.0017 87.5957 40.6672 87.3621 40.3958C87.1349 40.1181 86.8225 39.9793 86.4249 39.9793C86.0273 39.9793 85.7118 40.1181 85.4783 40.3958C85.2511 40.6672 85.1375 41.0017 85.1375 41.3993C85.1375 41.7969 85.2511 42.1345 85.4783 42.4122C85.7118 42.6836 86.0273 42.8193 86.4249 42.8193ZM92.8634 43.9269C92.3648 43.9269 91.9198 43.8164 91.5286 43.5956C91.1373 43.3684 90.828 43.0654 90.6008 42.6868C90.3736 42.3018 90.26 41.8726 90.26 41.3993C90.26 40.9259 90.3736 40.4999 90.6008 40.1213C90.828 39.7363 91.1373 39.4334 91.5286 39.2125C91.9198 38.9853 92.3648 38.8717 92.8634 38.8717C93.3619 38.8717 93.8069 38.9853 94.1982 39.2125C94.5895 39.4334 94.8987 39.7363 95.1259 40.1213C95.3531 40.4999 95.4667 40.9259 95.4667 41.3993C95.4667 41.8726 95.3531 42.3018 95.1259 42.6868C94.8987 43.0654 94.5895 43.3684 94.1982 43.5956C93.8069 43.8164 93.3619 43.9269 92.8634 43.9269ZM92.8634 42.8193C93.261 42.8193 93.5734 42.6836 93.8006 42.4122C94.0341 42.1345 94.1508 41.7969 94.1508 41.3993C94.1508 41.0017 94.0341 40.6672 93.8006 40.3958C93.5734 40.1181 93.261 39.9793 92.8634 39.9793C92.4658 39.9793 92.1502 40.1181 91.9167 40.3958C91.6895 40.6672 91.5759 41.0017 91.5759 41.3993C91.5759 41.7969 91.6895 42.1345 91.9167 42.4122C92.1502 42.6836 92.4658 42.8193 92.8634 42.8193Z" fill="#009F10" fill-opacity="0.27"/>
<rect x="111.239" y="38.1345" width="188.396" height="5.33582" rx="2.66791" fill="#DBEEEB"/>
<circle cx="291.425" cy="167.015" r="9.02985" fill="url(#paint3_linear)"/>
<path d="M294.283 162.363H287.989C287.168 162.363 286.895 163.184 286.895 163.457C286.803 165.282 286.676 169.149 286.895 170.025C287.113 170.9 287.807 171.119 287.989 171.119H292.915L295.651 172.214V163.457C295.651 162.582 294.739 162.363 294.283 162.363Z" fill="white"/>
<path d="M288.263 168.656C288.719 169.021 289.959 169.751 291.273 169.751C292.586 169.751 293.644 169.021 294.009 168.656" stroke="#27B9ED"/>
<g filter="url(#filter1_d)">
<rect x="171.375" y="65.0801" width="119.821" height="66.5227" rx="4" fill="white"/>
</g>
<path d="M285.186 120.709V69.4946L177.388 69.4946V120.709L285.186 120.709Z" fill="#EAF5F3"/>
<path d="M269.503 120.702H252.662L285.176 94.5458V108.094L269.503 120.702ZM227.297 120.702H233.022L285.184 78.7397V74.1344L227.297 120.702ZM177.386 88.6297V93.235L206.906 69.4879H201.181L177.386 88.6297ZM236.46 69.4948H211.513L177.395 96.9411V117.009L236.46 69.4948Z" fill="white" fill-opacity="0.4"/>
<path d="M285.184 120.702H177.386V127.195H285.184V120.702Z" fill="#1E4843"/>
<path d="M282.249 122.903H252.747C252.516 122.903 252.329 122.752 252.329 122.567C252.329 122.382 252.516 122.231 252.747 122.231H282.249C282.48 122.231 282.667 122.382 282.667 122.567C282.659 122.752 282.48 122.903 282.249 122.903Z" fill="white"/>
<path d="M252.738 122.904H180.475C180.245 122.904 180.057 122.753 180.057 122.568C180.057 122.383 180.245 122.232 180.475 122.232H252.738C252.969 122.232 253.156 122.383 253.156 122.568C253.156 122.753 252.969 122.904 252.738 122.904Z" fill="#03D218"/>
<path d="M253.626 122.568C253.626 122.959 253.233 123.275 252.747 123.275C252.261 123.275 251.868 122.959 251.868 122.568C251.868 122.177 252.261 121.861 252.747 121.861C253.225 121.861 253.626 122.177 253.626 122.568Z" fill="#FFFDFF"/>
<path d="M185.5 124.441H186.063V125.992H185.5V124.441ZM184.416 125.992H184.98V124.441H184.416V125.992ZM189.774 124.441V125.065L188.588 124.441V125.992L189.774 125.367V125.992H190.337V124.441H189.774ZM180.142 124.441V125.992H180.705V125.367L181.891 125.992V124.441L180.705 125.065V124.441H180.142Z" fill="white"/>
<path d="M280.658 125.017V124.715H281.234V124.441H280.376V125.017H280.658Z" fill="#FFFDFF"/>
<path d="M281.698 124.716H282.275V125.018H282.556V124.441H281.698V124.716Z" fill="#FFFDFF"/>
<path d="M281.234 125.766H280.658V125.471H280.376V126.041H281.234V125.766Z" fill="#FFFDFF"/>
<path d="M282.275 125.471V125.766H281.698V126.041H282.556V125.471H282.275Z" fill="white"/>
<path d="M101.071 55.8622H62.3708C61.2663 55.8622 60.3708 56.7576 60.3708 57.8622V75.9451C60.3708 77.0497 61.2663 77.9451 62.3708 77.9451H101.071C102.175 77.9451 103.071 77.0497 103.071 75.9451V57.8622C103.071 56.7576 102.175 55.8622 101.071 55.8622Z" fill="#DBEEEB"/>
<path d="M101.254 82.1809H62.4922C61.4965 82.1809 60.6895 82.988 60.6895 83.9836C60.6895 84.9792 61.4966 85.7863 62.4922 85.7863H101.254C102.249 85.7863 103.057 84.9792 103.057 83.9836C103.057 82.988 102.249 82.1809 101.254 82.1809Z" fill="#DBEEEB"/>
<path d="M95.8385 88.3104H62.4922C61.4965 88.3104 60.6895 89.1175 60.6895 90.1131C60.6895 91.1087 61.4965 91.9158 62.4922 91.9158H95.8385C96.8341 91.9158 97.6412 91.1087 97.6412 90.1131C97.6412 89.1175 96.8341 88.3104 95.8385 88.3104Z" fill="#DBEEEB"/>
<path d="M149.49 55.8625H110.791C109.686 55.8625 108.791 56.758 108.791 57.8625V75.9455C108.791 77.0501 109.686 77.9455 110.791 77.9455H149.49C150.595 77.9455 151.49 77.0501 151.49 75.9455V57.8625C151.49 56.758 150.595 55.8625 149.49 55.8625Z" fill="#DBEEEB"/>
<path d="M149.673 82.1816H110.593C109.598 82.1816 108.791 82.9887 108.791 83.9843C108.791 84.9799 109.598 85.787 110.593 85.787H149.673C150.669 85.787 151.476 84.9799 151.476 83.9843C151.476 82.9887 150.669 82.1816 149.673 82.1816Z" fill="#DBEEEB"/>
<path d="M143.94 88.3112H110.593C109.598 88.3112 108.791 89.1183 108.791 90.1139C108.791 91.1095 109.598 91.9166 110.593 91.9166H143.94C144.935 91.9166 145.742 91.1095 145.742 90.1139C145.742 89.1183 144.935 88.3112 143.94 88.3112Z" fill="#DBEEEB"/>
<path d="M84.7295 67.6004L79.9512 70.3591L79.9512 64.8417L84.7295 67.6004Z" fill="white"/>
<path d="M133.149 67.6004L128.371 70.3591L128.371 64.8417L133.149 67.6004Z" fill="white"/>
<path d="M101.071 99.1842H62.3708C61.2663 99.1842 60.3708 100.08 60.3708 101.184V119.267C60.3708 120.372 61.2663 121.267 62.3708 121.267H101.071C102.175 121.267 103.071 120.372 103.071 119.267V101.184C103.071 100.08 102.175 99.1842 101.071 99.1842Z" fill="#DBEEEB"/>
<path d="M101.254 125.421H62.4922C61.4965 125.421 60.6895 126.228 60.6895 127.223C60.6895 128.219 61.4966 129.026 62.4922 129.026H101.254C102.249 129.026 103.057 128.219 103.057 127.223C103.057 126.228 102.249 125.421 101.254 125.421Z" fill="#DBEEEB"/>
<path d="M95.8385 131.55H62.4922C61.4965 131.55 60.6895 132.357 60.6895 133.353C60.6895 134.349 61.4965 135.156 62.4922 135.156H95.8385C96.8341 135.156 97.6412 134.349 97.6412 133.353C97.6412 132.357 96.8341 131.55 95.8385 131.55Z" fill="#DBEEEB"/>
<path d="M149.49 99.1846H110.791C109.686 99.1846 108.791 100.08 108.791 101.185V119.268C108.791 120.372 109.686 121.268 110.791 121.268H149.49C150.595 121.268 151.49 120.372 151.49 119.268V101.185C151.49 100.08 150.595 99.1846 149.49 99.1846Z" fill="#DBEEEB"/>
<path d="M149.673 125.446H110.593C109.597 125.446 108.79 126.253 108.79 127.249C108.79 128.244 109.597 129.052 110.593 129.052H149.673C150.669 129.052 151.476 128.244 151.476 127.249C151.476 126.253 150.669 125.446 149.673 125.446Z" fill="#DBEEEB"/>
<path d="M143.939 131.575H110.593C109.597 131.575 108.79 132.382 108.79 133.378C108.79 134.373 109.597 135.18 110.593 135.18H143.939C144.935 135.18 145.742 134.373 145.742 133.378C145.742 132.382 144.935 131.575 143.939 131.575Z" fill="#DBEEEB"/>
<path d="M84.7295 110.512L79.9512 113.27L79.9512 107.753L84.7295 110.512Z" fill="white"/>
<path d="M133.149 110.512L128.371 113.27L128.371 107.753L133.149 110.512Z" fill="white"/>
<path d="M101.071 141.872H62.3708C61.2663 141.872 60.3708 142.767 60.3708 143.872V161.955C60.3708 163.059 61.2663 163.955 62.3708 163.955H101.071C102.175 163.955 103.071 163.059 103.071 161.955V143.872C103.071 142.767 102.175 141.872 101.071 141.872Z" fill="#DBEEEB"/>
<path d="M101.254 168.108H62.4922C61.4965 168.108 60.6895 168.915 60.6895 169.911C60.6895 170.907 61.4966 171.714 62.4922 171.714H101.254C102.249 171.714 103.057 170.907 103.057 169.911C103.057 168.915 102.249 168.108 101.254 168.108Z" fill="#DBEEEB"/>
<path d="M95.8385 174.238H62.4922C61.4965 174.238 60.6895 175.045 60.6895 176.041C60.6895 177.036 61.4965 177.843 62.4922 177.843H95.8385C96.8341 177.843 97.6412 177.036 97.6412 176.041C97.6412 175.045 96.8341 174.238 95.8385 174.238Z" fill="#DBEEEB"/>
<path d="M149.49 141.871H110.791C109.686 141.871 108.791 142.767 108.791 143.871V161.954C108.791 163.059 109.686 163.954 110.791 163.954H149.49C150.595 163.954 151.49 163.059 151.49 161.954V143.871C151.49 142.767 150.595 141.871 149.49 141.871Z" fill="#DBEEEB"/>
<path d="M149.673 168.133H110.593C109.597 168.133 108.79 168.94 108.79 169.936C108.79 170.931 109.597 171.738 110.593 171.738H149.673C150.669 171.738 151.476 170.931 151.476 169.936C151.476 168.94 150.669 168.133 149.673 168.133Z" fill="#DBEEEB"/>
<path d="M143.939 174.262H110.593C109.597 174.262 108.79 175.069 108.79 176.064C108.79 177.06 109.597 177.867 110.593 177.867H143.939C144.935 177.867 145.742 177.06 145.742 176.064C145.742 175.069 144.935 174.262 143.939 174.262Z" fill="#DBEEEB"/>
<path d="M84.7295 153.198L79.9512 155.957L79.9512 150.439L84.7295 153.198Z" fill="white"/>
<path d="M133.149 153.198L128.371 155.957L128.371 150.439L133.149 153.198Z" fill="white"/>
<path d="M292.951 125.432V66C292.951 64.3431 291.608 63 289.951 63L173 63C171.343 63 170 64.3431 170 66V125.432L292.951 125.432Z" fill="url(#paint4_linear)"/>
<path d="M275.063 125.485H255.855L292.939 93.6084V110.119L275.063 125.485ZM226.925 125.485H233.455L292.949 74.3456V68.7332L226.925 125.485ZM170 86.3984V92.0109L203.669 63.0706H197.139L170 86.3984ZM237.376 63.0789H208.923L170.01 96.5276V120.985L237.376 63.0789Z" fill="url(#paint5_linear)" fill-opacity="0.3"/>
<path d="M176.971 120.782C176.636 120.782 176.344 120.716 176.095 120.584C175.85 120.452 175.66 120.266 175.526 120.026C175.391 119.781 175.323 119.496 175.323 119.17V116.465H176.163V118.112H176.169C176.263 117.976 176.393 117.869 176.561 117.792C176.732 117.714 176.916 117.675 177.112 117.675C177.418 117.675 177.684 117.739 177.908 117.867C178.133 117.995 178.307 118.172 178.429 118.397C178.556 118.618 178.619 118.876 178.619 119.17C178.619 119.481 178.554 119.758 178.423 120.002C178.296 120.243 178.111 120.433 177.866 120.573C177.621 120.712 177.322 120.782 176.971 120.782ZM176.971 120.101C177.22 120.101 177.414 120.018 177.553 119.851C177.696 119.68 177.768 119.473 177.768 119.229C177.768 118.984 177.696 118.779 177.553 118.612C177.414 118.441 177.22 118.356 176.971 118.356C176.722 118.356 176.526 118.441 176.383 118.612C176.244 118.779 176.175 118.984 176.175 119.229C176.175 119.473 176.244 119.68 176.383 119.851C176.526 120.018 176.722 120.101 176.971 120.101ZM180.829 120.782C180.543 120.782 180.294 120.712 180.082 120.573C179.869 120.433 179.704 120.247 179.586 120.014C179.471 119.777 179.414 119.518 179.414 119.234C179.414 118.944 179.479 118.68 179.61 118.443C179.745 118.207 179.937 118.02 180.186 117.885C180.435 117.745 180.733 117.675 181.08 117.675C181.431 117.675 181.727 117.745 181.968 117.885C182.209 118.024 182.393 118.212 182.52 118.449C182.646 118.686 182.71 118.947 182.71 119.234V120.712H181.87V120.218H181.858C181.764 120.373 181.636 120.507 181.472 120.619C181.313 120.728 181.099 120.782 180.829 120.782ZM181.068 120.101C181.313 120.101 181.505 120.016 181.644 119.845C181.787 119.675 181.858 119.467 181.858 119.223C181.858 118.982 181.787 118.779 181.644 118.612C181.505 118.441 181.313 118.356 181.068 118.356C180.819 118.356 180.623 118.441 180.48 118.612C180.337 118.779 180.266 118.982 180.266 119.223C180.266 119.467 180.337 119.675 180.48 119.845C180.623 120.016 180.819 120.101 181.068 120.101ZM183.872 120.712V118.949C183.872 118.717 183.931 118.503 184.049 118.309C184.168 118.115 184.337 117.962 184.558 117.85C184.782 117.733 185.052 117.675 185.366 117.675C185.591 117.675 185.793 117.712 185.973 117.786C186.152 117.859 186.305 117.96 186.432 118.088H186.438C186.569 117.96 186.724 117.859 186.904 117.786C187.087 117.712 187.292 117.675 187.516 117.675C187.831 117.675 188.098 117.733 188.319 117.85C188.543 117.962 188.715 118.115 188.833 118.309C188.952 118.503 189.011 118.717 189.011 118.949V120.712H188.172V118.949C188.172 118.786 188.106 118.647 187.976 118.53C187.849 118.414 187.696 118.356 187.516 118.356C187.337 118.356 187.181 118.414 187.051 118.53C186.924 118.647 186.861 118.786 186.861 118.949V120.712H186.022V118.949C186.022 118.786 185.956 118.647 185.826 118.53C185.699 118.414 185.546 118.356 185.366 118.356C185.187 118.356 185.031 118.414 184.901 118.53C184.774 118.647 184.711 118.786 184.711 118.949V120.712H183.872ZM191.79 120.782C191.455 120.782 191.163 120.716 190.914 120.584C190.669 120.452 190.479 120.266 190.345 120.026C190.21 119.781 190.143 119.496 190.143 119.17V116.465H190.982V118.112H190.988C191.082 117.976 191.212 117.869 191.38 117.792C191.551 117.714 191.735 117.675 191.931 117.675C192.237 117.675 192.503 117.739 192.727 117.867C192.952 117.995 193.126 118.172 193.248 118.397C193.375 118.618 193.438 118.876 193.438 119.17C193.438 119.481 193.373 119.758 193.242 120.002C193.115 120.243 192.93 120.433 192.685 120.573C192.44 120.712 192.141 120.782 191.79 120.782ZM191.79 120.101C192.039 120.101 192.233 120.018 192.372 119.851C192.515 119.68 192.587 119.473 192.587 119.229C192.587 118.984 192.515 118.779 192.372 118.612C192.233 118.441 192.039 118.356 191.79 118.356C191.541 118.356 191.345 118.441 191.202 118.612C191.063 118.779 190.994 118.984 190.994 119.229C190.994 119.473 191.063 119.68 191.202 119.851C191.345 120.018 191.541 120.101 191.79 120.101ZM195.918 120.782C195.595 120.782 195.307 120.714 195.054 120.578C194.801 120.439 194.601 120.253 194.454 120.02C194.307 119.783 194.233 119.52 194.233 119.229C194.233 118.938 194.307 118.676 194.454 118.443C194.601 118.207 194.801 118.02 195.054 117.885C195.307 117.745 195.595 117.675 195.918 117.675C196.24 117.675 196.528 117.745 196.781 117.885C197.035 118.02 197.235 118.207 197.382 118.443C197.529 118.676 197.602 118.938 197.602 119.229C197.602 119.52 197.529 119.783 197.382 120.02C197.235 120.253 197.035 120.439 196.781 120.578C196.528 120.714 196.24 120.782 195.918 120.782ZM195.918 120.101C196.175 120.101 196.377 120.018 196.524 119.851C196.675 119.68 196.751 119.473 196.751 119.229C196.751 118.984 196.675 118.779 196.524 118.612C196.377 118.441 196.175 118.356 195.918 118.356C195.66 118.356 195.456 118.441 195.305 118.612C195.158 118.779 195.085 118.984 195.085 119.229C195.085 119.473 195.158 119.68 195.305 119.851C195.456 120.018 195.66 120.101 195.918 120.101ZM200.084 120.782C199.761 120.782 199.473 120.714 199.22 120.578C198.967 120.439 198.767 120.253 198.62 120.02C198.473 119.783 198.399 119.52 198.399 119.229C198.399 118.938 198.473 118.676 198.62 118.443C198.767 118.207 198.967 118.02 199.22 117.885C199.473 117.745 199.761 117.675 200.084 117.675C200.406 117.675 200.694 117.745 200.947 117.885C201.201 118.02 201.401 118.207 201.548 118.443C201.695 118.676 201.768 118.938 201.768 119.229C201.768 119.52 201.695 119.783 201.548 120.02C201.401 120.253 201.201 120.439 200.947 120.578C200.694 120.714 200.406 120.782 200.084 120.782ZM200.084 120.101C200.341 120.101 200.543 120.018 200.69 119.851C200.841 119.68 200.917 119.473 200.917 119.229C200.917 118.984 200.841 118.779 200.69 118.612C200.543 118.441 200.341 118.356 200.084 118.356C199.826 118.356 199.622 118.441 199.471 118.612C199.324 118.779 199.251 118.984 199.251 119.229C199.251 119.473 199.324 119.68 199.471 119.851C199.622 120.018 199.826 120.101 200.084 120.101Z" fill="#7BE159" fill-opacity="0.8"/>
<path d="M293 125.443H170V131.348C170 133.005 171.343 134.348 173 134.348H290C291.657 134.348 293 133.005 293 131.348V125.443Z" fill="#1E4843"/>
<path d="M289.652 128.464H255.988C255.726 128.464 255.511 128.257 255.511 128.003C255.511 127.749 255.726 127.542 255.988 127.542H289.652C289.914 127.542 290.129 127.749 290.129 128.003C290.119 128.257 289.914 128.464 289.652 128.464Z" fill="white"/>
<path d="M255.979 128.464H173.524C173.262 128.464 173.047 128.257 173.047 128.003C173.047 127.749 173.262 127.542 173.524 127.542H255.979C256.242 127.542 256.456 127.749 256.456 128.003C256.456 128.257 256.242 128.464 255.979 128.464Z" fill="#03D218"/>
<path d="M256.991 128.003C256.991 128.54 256.543 128.973 255.988 128.973C255.433 128.973 254.986 128.54 254.986 128.003C254.986 127.467 255.433 127.034 255.988 127.034C256.533 127.034 256.991 127.467 256.991 128.003Z" fill="#FFFDFF"/>
<path d="M179.257 130.574H179.9V132.701H179.257V130.574ZM178.021 132.701H178.663V130.574H178.021V132.701ZM184.134 130.574V131.43L182.781 130.574V132.701L184.134 131.845V132.701H184.777V130.574H184.134ZM173.144 130.574V132.701H173.786V131.845L175.139 132.701V130.574L173.786 131.43V130.574H173.144Z" fill="white"/>
<path d="M280.131 131.149L280.067 131.002C280.067 131.002 280.216 130.669 280.2 130.659L280.003 130.469C279.987 130.458 279.65 130.606 279.65 130.606L279.495 130.543C279.495 130.543 279.357 130.205 279.341 130.205H279.063C279.041 130.205 278.919 130.543 278.919 130.543L278.764 130.606C278.764 130.606 278.422 130.464 278.406 130.474L278.208 130.664C278.192 130.675 278.353 131.002 278.353 131.002L278.289 131.149C278.289 131.149 277.941 131.281 277.941 131.297V131.566C277.941 131.587 278.289 131.708 278.289 131.708L278.353 131.856C278.353 131.856 278.203 132.188 278.219 132.199L278.417 132.389C278.427 132.399 278.764 132.252 278.764 132.252L278.919 132.315C278.919 132.315 279.057 132.653 279.074 132.653H279.351C279.373 132.653 279.495 132.315 279.495 132.315L279.65 132.252C279.65 132.252 279.992 132.394 280.008 132.384L280.206 132.194C280.222 132.178 280.061 131.856 280.061 131.856L280.126 131.708C280.126 131.708 280.473 131.577 280.473 131.555V131.286C280.478 131.276 280.131 131.149 280.131 131.149ZM279.618 131.434C279.618 131.65 279.437 131.83 279.212 131.83C278.988 131.83 278.807 131.656 278.807 131.434C278.807 131.218 278.988 131.044 279.212 131.044C279.437 131.039 279.618 131.218 279.618 131.434Z" fill="white"/>
<path d="M285.354 132.303H282.281V130.554H285.354V132.303ZM282.508 132.106H285.128V130.746H282.508V132.106Z" fill="white"/>
<path d="M288.482 130.484H289.229V131.212H289.448V130.273H288.482V130.484Z" fill="white"/>
<path d="M287.309 131.213V130.485H288.062V130.274H287.091V131.213H287.309Z" fill="white"/>
<path d="M289.229 131.619V132.346H288.482V132.557H289.448V131.619H289.229Z" fill="white"/>
<path d="M288.062 132.346H287.309V131.619H287.091V132.557H288.062V132.346Z" fill="white"/>
<path d="M229.509 109.597L229.521 109.847L229.509 109.597ZM246.067 97.3149C244.06 105.098 236.193 109.029 229.497 109.348L229.521 109.847C236.344 109.522 244.469 105.513 246.551 97.4398L246.067 97.3149ZM229.497 109.348C226.02 109.513 222.75 108.879 220.358 107.279C217.979 105.687 216.442 103.124 216.442 99.3595H215.942C215.942 103.282 217.555 106.005 220.08 107.694C222.591 109.374 225.98 110.016 229.521 109.847L229.497 109.348ZM216.442 99.3595C216.442 97.4962 217.135 95.4061 218.332 93.3093C219.527 91.215 221.217 89.1295 223.188 87.2795C227.139 83.5713 232.174 80.8503 236.568 80.8503V80.3503C231.993 80.3503 226.841 83.1654 222.846 86.9149C220.844 88.7938 219.121 90.9177 217.898 93.0614C216.676 95.2025 215.942 97.3792 215.942 99.3595H216.442ZM236.568 80.8503C239.819 80.8503 242.695 82.9871 244.515 86.1407C246.334 89.2913 247.072 93.4186 246.067 97.3149L246.551 97.4398C247.591 93.4077 246.827 89.1465 244.948 85.8907C243.071 82.6379 240.054 80.3503 236.568 80.3503V80.8503Z" fill="white" fill-opacity="0.2"/>
<path d="M230.118 105.29L230.13 105.54L230.118 105.29ZM241.486 96.7831C240.11 102.117 234.714 104.821 230.106 105.041L230.13 105.54C234.864 105.315 240.52 102.532 241.97 96.908L241.486 96.7831ZM230.106 105.041C227.713 105.155 225.472 104.717 223.837 103.624C222.215 102.539 221.166 100.792 221.166 98.2153H220.666C220.666 100.951 221.792 102.857 223.559 104.039C225.313 105.213 227.673 105.657 230.13 105.54L230.106 105.041ZM221.166 98.2153C221.166 96.9457 221.638 95.5147 222.461 94.0725C223.283 92.6328 224.446 91.1976 225.803 89.9236C228.526 87.3674 231.988 85.5016 234.996 85.5016V85.0016C231.807 85.0016 228.228 86.9615 225.461 89.559C224.073 90.8619 222.877 92.3356 222.027 93.8246C221.178 95.3111 220.666 96.8287 220.666 98.2153H221.166ZM234.996 85.5016C237.207 85.5016 239.172 86.9549 240.421 89.1189C241.669 91.28 242.175 94.1115 241.486 96.7831L241.97 96.908C242.694 94.1006 242.162 91.1351 240.854 88.869C239.548 86.6057 237.441 85.0016 234.996 85.0016V85.5016Z" fill="white"/>
<path d="M239.355 96.6215C238.293 100.74 234.139 102.802 230.628 102.969C226.983 103.143 223.711 101.644 223.711 97.6511C223.711 93.6582 229.636 87.9071 234.295 87.9071C237.794 87.9071 240.417 92.5033 239.355 96.6215Z" fill="url(#paint6_linear)"/>
<path d="M233.18 95.7652L230.931 97.0207L230.931 94.5098L233.18 95.7652Z" fill="#05B514"/>
<g filter="url(#filter2_d)">
<rect x="13" y="54" width="124.222" height="114" rx="4" fill="white"/>
</g>
<path d="M77.2314 103.094L79.3137 107.259H97.4105L95.3283 103.094H77.2314Z" fill="#F0DE00"/>
<path d="M73.8619 103.094H55.7651L53.6829 107.259H71.7797L73.8619 103.094Z" fill="#F0DE00"/>
<path d="M76.5881 106.464V115.588H74.5058V106.464L73.0671 109.341H57.8477V126H74.5058V118.712H76.5881V126H93.2462V109.341H78.0267L76.5881 106.464ZM66.1767 123.917H59.9299V121.835H66.1767V123.917ZM66.1767 119.753H59.9299V117.671H66.1767V119.753ZM70.3413 123.917H68.259V121.835H70.3413V123.917Z" fill="url(#paint7_linear)"/>
<path d="M52.8522 81.6606L54 79.6984L51.9673 78.8167L50.5 77L49.0327 78.8167L47 79.6984L48.1478 81.6606L48.3166 84L50.5 83.4433L52.6834 84L52.8522 81.6606Z" fill="#FFEC00"/>
<path d="M98.3166 84L100.5 83.4433L102.683 84L102.852 81.6606L104 79.6984L101.967 78.8167L100.5 77L99.0327 78.8167L97 79.6984L98.1478 81.6606L98.3166 84Z" fill="#FFEC00"/>
<path d="M56.2287 88.3441C58.2109 89.6664 59.9723 91.2805 61.4603 93.1416L65.5842 98.2944L64.7317 91.4726C64.2858 87.911 62.3835 84.6325 59.5123 82.4796L58.5149 81.7318L55.4631 87.8342L56.2287 88.3441Z" fill="#4CB0FD" fill-opacity="0.3"/>
<path d="M86.3623 91.4722L85.5093 98.2939L89.6337 93.1401C91.1221 91.279 92.8826 89.6649 94.8652 88.3427L95.6293 87.8328L92.5776 81.7303L91.5802 82.4802C88.7099 84.6331 86.8066 87.9105 86.3623 91.4722Z" fill="#4CB0FD" fill-opacity="0.3"/>
<path d="M79.7114 98.9308H81.7937V94.5685C81.7937 89.5682 83.5562 84.6996 86.7589 80.8568L85.1585 79.5244C81.6457 83.7398 79.7114 89.0827 79.7114 94.5685V98.9308Z" fill="#4CB0FD" fill-opacity="0.3"/>
<path d="M69.2999 98.9308H71.3821V94.5685C71.3821 89.0817 69.4478 83.7398 65.936 79.5244L64.3357 80.8568C67.5374 84.6996 69.2999 89.5682 69.2999 94.5685V98.9308Z" fill="#4CB0FD" fill-opacity="0.3"/>
<path d="M74.5056 85.3961H76.5879V98.9309H74.5056V85.3961Z" fill="#4CB0FD" fill-opacity="0.3"/>
<path d="M71.4621 78L75.5 76.9697L79.5379 78L79.8543 73.66L82 69.9921L78.2063 68.3486L75.5 65L72.7941 68.3486L69 69.9921L71.1457 73.66L71.4621 78Z" fill="#FFEC00"/>
<rect x="35" y="137" width="81" height="18.1494" rx="9.07469" fill="url(#paint8_linear)"/>
<path d="M60.989 149H59.693V142.7H62.447C63.125 142.7 63.659 142.877 64.049 143.231C64.445 143.579 64.643 144.035 64.643 144.599C64.643 145.169 64.445 145.628 64.049 145.976C63.659 146.33 63.125 146.507 62.447 146.507H60.989V149ZM60.989 143.834V145.4H62.357C62.669 145.4 62.912 145.334 63.086 145.202C63.26 145.064 63.347 144.869 63.347 144.617C63.347 144.365 63.26 144.173 63.086 144.041C62.912 143.903 62.669 143.834 62.357 143.834H60.989ZM68.6136 147.371V144.509H69.8826V149H68.6136V148.46C68.2116 148.898 67.7106 149.117 67.1106 149.117C66.5946 149.117 66.1926 148.955 65.9046 148.631C65.6166 148.301 65.4726 147.845 65.4726 147.263V144.509H66.7416V147.002C66.7416 147.326 66.8196 147.566 66.9756 147.722C67.1376 147.878 67.3446 147.956 67.5966 147.956C67.7886 147.956 67.9776 147.902 68.1636 147.794C68.3556 147.68 68.5056 147.539 68.6136 147.371ZM73.8709 149.117C73.2229 149.117 72.7309 148.895 72.3949 148.451V149H71.1259V142.7H72.3949V145.058C72.7489 144.614 73.2409 144.392 73.8709 144.392C74.4829 144.392 74.9869 144.62 75.3829 145.076C75.7849 145.52 75.9859 146.078 75.9859 146.75C75.9859 147.422 75.7849 147.986 75.3829 148.442C74.9869 148.892 74.4829 149.117 73.8709 149.117ZM73.5109 148.01C73.8709 148.01 74.1619 147.89 74.3839 147.65C74.6119 147.404 74.7259 147.104 74.7259 146.75C74.7259 146.402 74.6119 146.105 74.3839 145.859C74.1619 145.619 73.8709 145.499 73.5109 145.499C73.2709 145.499 73.0519 145.562 72.8539 145.688C72.6559 145.808 72.5029 145.967 72.3949 146.165V147.335C72.5029 147.533 72.6559 147.695 72.8539 147.821C73.0519 147.947 73.2709 148.01 73.5109 148.01ZM78.1149 149.117C77.7429 149.117 77.4489 149.018 77.2329 148.82C77.0229 148.616 76.9179 148.301 76.9179 147.875V142.7H78.1869V147.542C78.1869 147.842 78.3219 147.992 78.5919 147.992C78.7179 147.992 78.8259 147.965 78.9159 147.911V148.955C78.6999 149.063 78.4329 149.117 78.1149 149.117ZM81.1151 149H79.8461V144.509H81.1151V149ZM79.7201 143.321C79.7201 143.105 79.7921 142.925 79.9361 142.781C80.0861 142.631 80.2661 142.556 80.4761 142.556C80.6861 142.556 80.8631 142.631 81.0071 142.781C81.1571 142.925 81.2321 143.105 81.2321 143.321C81.2321 143.531 81.1571 143.711 81.0071 143.861C80.8631 144.005 80.6861 144.077 80.4761 144.077C80.2661 144.077 80.0861 144.005 79.9361 143.861C79.7921 143.711 79.7201 143.531 79.7201 143.321ZM84.0758 149.117C83.2778 149.117 82.6478 148.976 82.1858 148.694V147.569C82.4018 147.713 82.6748 147.836 83.0048 147.938C83.3408 148.034 83.6798 148.082 84.0218 148.082C84.5378 148.082 84.7958 147.956 84.7958 147.704C84.7958 147.584 84.7208 147.491 84.5708 147.425C84.4928 147.389 84.4148 147.362 84.3368 147.344L84.0038 147.263C83.9558 147.251 83.8898 147.236 83.8058 147.218C83.7278 147.194 83.6738 147.176 83.6438 147.164C83.1098 147.02 82.7318 146.849 82.5098 146.651C82.2938 146.447 82.1858 146.153 82.1858 145.769C82.1858 145.343 82.3598 145.007 82.7078 144.761C83.0618 144.515 83.5478 144.392 84.1658 144.392C84.8498 144.392 85.4108 144.53 85.8488 144.806V145.886C85.3148 145.574 84.7718 145.418 84.2198 145.418C83.7398 145.418 83.4998 145.538 83.4998 145.778C83.4998 145.826 83.5118 145.871 83.5358 145.913C83.5658 145.949 83.5928 145.976 83.6168 145.994C83.6468 146.012 83.6918 146.039 83.7518 146.075C83.7878 146.087 83.8538 146.108 83.9498 146.138C84.0458 146.162 84.1088 146.18 84.1388 146.192L84.6158 146.291C85.1138 146.405 85.4828 146.576 85.7228 146.804C85.9628 147.026 86.0828 147.329 86.0828 147.713C86.0828 148.133 85.8998 148.472 85.5338 148.73C85.1678 148.988 84.6818 149.117 84.0758 149.117ZM88.2943 146.138V149H87.0253V142.7H88.2943V145.058C88.7023 144.614 89.2033 144.392 89.7973 144.392C90.3133 144.392 90.7153 144.557 91.0033 144.887C91.2913 145.211 91.4353 145.664 91.4353 146.246V149H90.1663V146.507C90.1663 146.183 90.0853 145.943 89.9233 145.787C89.7673 145.631 89.5633 145.553 89.3113 145.553C89.1193 145.553 88.9273 145.61 88.7353 145.724C88.5493 145.832 88.4023 145.97 88.2943 146.138Z" fill="white"/>
<path d="M38 22C38 18.134 41.134 15 45 15H309C312.866 15 316 18.134 316 22V29H38V22Z" fill="url(#paint9_linear)"/>
<circle cx="54" cy="22" r="2" fill="#6AC2FC"/>
<circle cx="61" cy="22" r="2" fill="#F1EE33" fill-opacity="0.8"/>
<circle cx="68" cy="22" r="2" fill="#89E23A"/>
<defs>
<filter id="filter0_d" x="18" y="0" width="318.642" height="218" filterUnits="userSpaceOnUse" color-interpolation-filters="sRGB">
<feFlood flood-opacity="0" result="BackgroundImageFix"/>
<feColorMatrix in="SourceAlpha" type="matrix" values="0 0 0 0 0 0 0 0 0 0 0 0 0 0 0 0 0 0 127 0"/>
<feOffset dy="5"/>
<feGaussianBlur stdDeviation="10.5"/>
<feColorMatrix type="matrix" values="0 0 0 0 0.623529 0 0 0 0 0.698039 0 0 0 0 0.686275 0 0 0 0.2 0"/>
<feBlend mode="normal" in2="BackgroundImageFix" result="effect1_dropShadow"/>
<feBlend mode="normal" in="SourceGraphic" in2="effect1_dropShadow" result="shape"/>
</filter>
<filter id="filter1_d" x="141.375" y="30.0801" width="209.821" height="156.523" filterUnits="userSpaceOnUse" color-interpolation-filters="sRGB">
<feFlood flood-opacity="0" result="BackgroundImageFix"/>
<feColorMatrix in="SourceAlpha" type="matrix" values="0 0 0 0 0 0 0 0 0 0 0 0 0 0 0 0 0 0 127 0"/>
<feOffset dx="15" dy="10"/>
<feGaussianBlur stdDeviation="22.5"/>
<feColorMatrix type="matrix" values="0 0 0 0 0.624167 0 0 0 0 0.7 0 0 0 0 0.686212 0 0 0 0.27 0"/>
<feBlend mode="normal" in2="BackgroundImageFix" result="effect1_dropShadow"/>
<feBlend mode="normal" in="SourceGraphic" in2="effect1_dropShadow" result="shape"/>
</filter>
<filter id="filter2_d" x="0" y="43" width="154.222" height="144" filterUnits="userSpaceOnUse" color-interpolation-filters="sRGB">
<feFlood flood-opacity="0" result="BackgroundImageFix"/>
<feColorMatrix in="SourceAlpha" type="matrix" values="0 0 0 0 0 0 0 0 0 0 0 0 0 0 0 0 0 0 127 0"/>
<feOffset dx="2" dy="4"/>
<feGaussianBlur stdDeviation="7.5"/>
<feColorMatrix type="matrix" values="0 0 0 0 0.45098 0 0 0 0 0.694118 0 0 0 0 0.658824 0 0 0 0.3 0"/>
<feBlend mode="normal" in2="BackgroundImageFix" result="effect1_dropShadow"/>
<feBlend mode="normal" in="SourceGraphic" in2="effect1_dropShadow" result="shape"/>
</filter>
<linearGradient id="paint0_linear" x1="204.91" y1="50.8535" x2="329.297" y2="141.48" gradientUnits="userSpaceOnUse">
<stop stop-color="#DFF2EE"/>
<stop offset="1" stop-color="#E2F2EF"/>
</linearGradient>
<linearGradient id="paint1_linear" x1="177.297" y1="65.8622" x2="301.372" y2="127.303" gradientUnits="userSpaceOnUse">
<stop stop-color="white"/>
<stop offset="1" stop-color="white" stop-opacity="0.96"/>
</linearGradient>
<linearGradient id="paint2_linear" x1="230.787" y1="145.73" x2="230.787" y2="176.924" gradientUnits="userSpaceOnUse">
<stop stop-color="#E1F1EE"/>
<stop offset="1" stop-color="#E1F1EE" stop-opacity="0"/>
</linearGradient>
<linearGradient id="paint3_linear" x1="284.037" y1="159.08" x2="291.425" y2="176.045" gradientUnits="userSpaceOnUse">
<stop stop-color="#6DEEFF"/>
<stop offset="1" stop-color="#31C0FA"/>
</linearGradient>
<linearGradient id="paint4_linear" x1="207.435" y1="57.2715" x2="306.782" y2="142.747" gradientUnits="userSpaceOnUse">
<stop stop-color="#01B213"/>
<stop offset="1" stop-color="#78EE1B" stop-opacity="0.52"/>
</linearGradient>
<linearGradient id="paint5_linear" x1="182.364" y1="68.8115" x2="286.897" y2="129.938" gradientUnits="userSpaceOnUse">
<stop stop-color="#30CE2D"/>
<stop offset="1" stop-color="#3DCA33" stop-opacity="0.96"/>
</linearGradient>
<linearGradient id="paint6_linear" x1="231.652" y1="87.9071" x2="228.199" y2="104.406" gradientUnits="userSpaceOnUse">
<stop stop-color="white"/>
<stop offset="1" stop-color="white"/>
</linearGradient>
<linearGradient id="paint7_linear" x1="55.5" y1="117" x2="97.5" y2="119.5" gradientUnits="userSpaceOnUse">
<stop stop-color="#FFEC00"/>
<stop offset="1" stop-color="#F5F13C" stop-opacity="0.39"/>
</linearGradient>
<linearGradient id="paint8_linear" x1="27.4378" y1="137" x2="113.764" y2="153.991" gradientUnits="userSpaceOnUse">
<stop stop-color="#7FE425"/>
<stop offset="1" stop-color="#21C11F"/>
</linearGradient>
<linearGradient id="paint9_linear" x1="38" y1="28.9999" x2="316" y2="28.9999" gradientUnits="userSpaceOnUse">
<stop stop-color="#39CA21"/>
<stop offset="1" stop-color="#6BDD24"/>
</linearGradient>
</defs>
</svg>
