<svg width="305" height="599" viewBox="0 0 305 599" fill="none" xmlns="http://www.w3.org/2000/svg">
<path fill-rule="evenodd" clip-rule="evenodd" d="M-35.988 37.5138C-56.3435 47.8956 -76.4617 60.1281 -95.9805 73.8202C-94.5258 107.28 -92.913 140.461 -91.3002 166.165C-86.8891 241.153 -75.4957 369.584 -73.5514 391.31C-71.3623 394.216 -71.9804 400.832 -73.2416 403.121C-72.9183 413.521 -69.8831 510.584 -66.5195 598.24C-57.4422 598.373 -48.2704 598.207 -39.0361 597.753C-38.0171 597.702 -36.9966 597.648 -35.9748 597.589C-36.5362 526.093 -37.5008 453.729 -37.5008 453.729L-37.3159 453.654C-37.4572 451.608 -38.0443 442.017 -37.2872 433.441L-36.9704 433.487C-37.0518 433.058 -37.0726 432.797 -37.0726 432.797C-37.0726 432.797 -35.7934 317.514 -35.7934 194.503C-35.7934 146.641 -35.8582 90.1059 -35.988 37.5138ZM-19.3391 436.232C-18.5381 440.882 -18.9579 452.168 -19.3777 455.339L-19.3831 455.343C-19.4251 458.167 -19.73 479.684 -20.0703 531.572C-13.4307 515.698 -4.11389 496.374 5.92871 481.153C21.0211 458.279 49.1605 429.897 66.6471 415.406C60.7952 435.485 47.8084 472.946 30.2342 498.519C16.2643 518.848 -5.03925 537.923 -16.7812 548.436C-18.0344 549.558 -19.1787 550.583 -20.1935 551.501L-20.2148 555.197L-20.231 558.064C-20.2822 567.142 -20.3057 580.275 -20.3075 596.36C110.104 583.418 256.953 501.769 295.837 345.846C336.595 182.409 235.941 0 101.672 0C94.5698 0 87.391 0.360217 80.1528 1.06196C52.2716 52.3205 26.471 100.897 -0.412231 152.017C-4.78479 160.152 -9.11145 168.402 -13.4576 176.688L-13.4585 176.69C-15.4908 180.565 -17.5273 184.448 -19.5747 188.331C-19.58 192.2 -19.5849 196.082 -19.5895 199.977C-19.6495 245.239 -19.642 283.681 -19.6003 315.561C-14.4811 303.199 -6.01816 285.708 3.10809 272.551C14.5544 256.049 35.6531 235.734 48.711 225.414C44.0821 240.025 33.9304 267.25 20.62 285.687C10.0397 300.343 -5.89203 313.955 -14.6736 321.458L-14.6739 321.458L-14.6744 321.459C-16.7801 323.258 -18.4746 324.705 -19.5855 325.732C-19.4662 400.301 -19.1631 435.695 -19.1631 435.695C-19.1631 435.695 -19.2058 435.902 -19.3391 436.232ZM-19.5469 169.529C-15.7572 162.306 -11.9759 155.119 -8.15964 148.018C17.7086 98.8731 42.7221 51.7355 69.5487 2.32648C40.4111 6.44076 10.4594 15.8632 -19.2025 29.4016C-19.3394 71.3523 -19.4661 119.065 -19.5469 169.529ZM-122.791 407.054L-122.673 407.083C-122.8 407.26 -122.861 407.357 -122.861 407.357C-122.861 407.357 -121.303 429.72 -118.912 464.425C-123.187 451.31 -127.336 438.494 -130.413 428.986C-134.66 415.756 -137.567 407.026 -138.199 405.283C-148.663 375.894 -169.343 310.471 -169.4 309.71L-169.798 309.865C-172.572 298.826 -177.562 280.59 -182.601 266.366C-189.249 247.599 -206.525 223.911 -216.341 212.718C-214.329 228.758 -208.054 256.506 -200.094 274.315C-192.949 290.302 -181.617 307.66 -173.96 317.662L-173.722 318.417L-173.721 318.419L-173.721 318.421L-173.719 318.425C-170.333 329.136 -163.139 351.892 -156.076 373.343C-167.721 364.329 -189.501 348.216 -207.594 336.872C-215.672 331.807 -225.711 327.214 -236.163 323.243C-238.803 313.491 -241.462 303.645 -244.143 293.685C-248.533 277.392 -252.697 261.455 -256.983 245.05L-256.983 245.048L-257.247 244.04C-227.269 194.549 -185.161 146.148 -137.252 105.67C-132.35 206.872 -124.313 369.827 -123.032 395.774C-123.084 395.772 -123.134 395.769 -123.183 395.766C-123.183 395.444 -124.793 402.528 -122.861 407.036L-122.791 407.054ZM-242.363 320.975C-259.1 315.075 -276.112 310.813 -287.234 308.783C-275.04 320.743 -253.954 338.17 -234.252 350.86C-221.932 396.119 -209.89 439.775 -197.649 483.821C-203.101 481.495 -208.057 479.538 -212.159 478.007C-207.276 484.871 -200.31 493.591 -192.466 502.451C-189.098 514.547 -185.71 526.692 -182.293 538.929C-179.375 549.56 -176.374 560.273 -173.36 571.035L-173.353 571.061L-173.351 571.066C-172.412 574.42 -171.471 577.778 -170.531 581.14C-248.917 553.735 -304.477 492.126 -304.477 386.706C-304.477 344.414 -288.281 297.153 -261.137 250.586C-257.294 265.284 -253.504 279.725 -249.48 294.61C-247.092 303.48 -244.721 312.264 -242.363 320.975ZM-176.956 538.003C-179.464 529.03 -181.954 520.114 -184.429 511.238C-176.164 519.973 -167.424 528.283 -159.402 534.47C-145.163 545.45 -126.257 555.955 -112.184 562.767C-111.464 573.381 -110.73 584.22 -109.991 595.174C-128.92 592.71 -147.152 588.756 -164.357 583.213C-165.573 578.858 -166.791 574.509 -168.007 570.167L-168.016 570.138C-171.033 559.367 -174.036 548.644 -176.956 538.003ZM-142.903 514.644C-130.828 524.324 -120.817 535.467 -113.431 544.427C-114.708 525.673 -115.926 507.875 -117.037 491.693C-121.502 478.17 -127.089 461.02 -133.745 440.586L-133.745 440.585L-133.745 440.584C-134.716 437.606 -135.708 434.558 -136.724 431.441C-138.268 426.626 -139.666 422.195 -140.832 418.503C-142.628 412.816 -143.871 408.879 -144.242 407.976C-146.62 401.456 -149.477 393.148 -152.487 384.158C-168.26 380.528 -196.97 371.273 -219.28 359.653C-221.953 358.261 -224.714 356.71 -227.53 355.032C-215.359 399.713 -203.452 442.866 -191.288 486.607C-175.422 493.736 -156.827 503.481 -142.903 514.644Z" fill="url(#paint0_linear)" fill-opacity="0.16"/>
<defs>
<linearGradient id="paint0_linear" x1="-285.716" y1="484.818" x2="305.243" y2="393.509" gradientUnits="userSpaceOnUse">
<stop stop-color="#3FC400" stop-opacity="0.79"/>
<stop offset="1" stop-color="#6BD518" stop-opacity="0.15"/>
</linearGradient>
</defs>
</svg>
