<svg width="1440" height="669" viewBox="0 0 1440 669" fill="none" xmlns="http://www.w3.org/2000/svg">
<path d="M454 590.5C242 576 52.438 645.999 -11 667.554V292.268L1440 267V532.813C1398.5 592.057 1190.89 664.209 1106 667.554C800 679.613 664.921 604.926 454 590.5Z" fill="url(#paint0_linear)"/>
<path d="M1440 127.5C1300.5 212 1109 240.206 609 87.5002C393.395 21.6516 95.2348 35.5045 -27.7418 62.4999C-48.572 67.0725 -27.742 314.789 -27.742 314.789V550.064C271.5 489 438 505.564 553 533.5C796 592.529 1033 618 1170.5 606.001C1316.7 593.242 1440 533.5 1440 533.5V127.5Z" fill="url(#paint1_linear)"/>
<mask id="mask0" mask-type="alpha" maskUnits="userSpaceOnUse" x="-37" y="0" width="1492" height="649">
<path d="M1455 70.845C1399.44 89.3384 1221.85 314.789 595.722 131.15C379.397 67.7033 95.2345 -22.066 -27.7421 4.92943C-48.5723 9.502 -27.7421 314.789 -27.7421 314.789V550.065C300.644 473.095 423.777 547.532 595.722 600.256C853.004 679.149 999.464 644.077 1128.05 620.499C1272.4 594.028 1455 620.499 1455 620.499V70.845Z" fill="url(#paint2_linear)"/>
</mask>
<g mask="url(#mask0)">
<mask id="mask1" mask-type="alpha" maskUnits="userSpaceOnUse" x="-265" y="-99" width="890" height="648">
<path d="M164.549 -19.5851C-140.909 112.934 -265 -15.6836 -265 -66.0137L-265 443.529C-127.108 537.449 43.3524 570.498 206.353 534.916L625 443.529L625 -34.8011C625 -34.8011 554.851 -188.912 164.549 -19.5851Z" fill="url(#paint3_linear)"/>
</mask>
<g mask="url(#mask1)">
<path fill-rule="evenodd" clip-rule="evenodd" d="M23.3629 52.1868C7.56638 61.3701 -8.04608 72.1903 -23.1934 84.3016C-22.0644 113.898 -20.8128 143.249 -19.5612 165.985C-16.1378 232.318 -7.29562 345.925 -5.78671 365.144C-4.08957 367.715 -4.56966 373.566 -5.54837 375.59C-5.29762 384.783 -2.94205 470.647 -0.331436 548.19C6.71458 548.307 13.834 548.161 21.002 547.758C21.7913 547.714 22.5816 547.666 23.373 547.614C22.9373 484.371 22.1887 420.36 22.1887 420.36L22.3332 420.292C22.2236 418.485 21.7677 409.999 22.3553 402.412L22.6004 402.452C22.5373 402.074 22.5213 401.843 22.5213 401.843C22.5213 401.843 23.514 299.867 23.514 191.054C23.514 148.717 23.4637 98.7079 23.3629 52.1868ZM36.2844 404.88C36.9061 408.993 36.5803 418.977 36.2544 421.782L36.2495 421.786C36.2169 424.281 35.9802 443.314 35.7161 489.222C40.8691 475.179 48.1009 458.081 55.8962 444.615C67.6091 424.38 89.4474 399.275 103.018 386.455C98.4768 404.218 88.398 437.354 74.7592 459.976C63.9174 477.958 47.3842 494.831 38.2715 504.131L38.271 504.132C37.2975 505.125 36.4086 506.033 35.6205 506.845C35.6108 508.744 35.6011 510.679 35.5914 512.652C35.5517 520.682 35.5334 532.299 35.532 546.527C136.742 535.081 250.711 462.856 280.889 324.928C312.52 180.355 234.405 19.0002 130.202 19.0002C124.69 19.0002 119.118 19.319 113.5 19.9399C91.8622 65.2809 71.8394 108.25 50.9764 153.468C47.5829 160.665 44.2249 167.962 40.852 175.293L40.8515 175.294L40.848 175.301L40.8401 175.318C39.2654 178.741 37.6874 182.17 36.1009 185.599C36.0968 189.02 36.093 192.453 36.0894 195.896C36.0429 235.939 36.0487 269.947 36.0811 298.149C40.0535 287.214 46.6238 271.733 53.7094 260.09C62.5926 245.493 78.9668 227.522 89.1007 218.394C85.5083 231.319 77.6299 255.401 67.2999 271.71C59.0885 284.675 46.7238 296.716 39.9088 303.353C38.2716 304.947 36.9546 306.23 36.0925 307.138C36.1852 373.099 36.4203 404.407 36.4203 404.407C36.4203 404.407 36.3873 404.589 36.2844 404.88ZM36.1225 168.967C39.065 162.575 42.0008 156.215 44.9639 149.931C65.0391 106.459 84.451 64.7635 105.27 21.0585C82.6561 24.6984 59.4105 33.0339 36.3898 45.0106C36.2835 82.1202 36.1852 124.326 36.1225 168.967ZM-44.004 379.067L-43.9097 379.094C-44.0095 379.251 -44.0568 379.338 -44.0568 379.338C-44.0568 379.338 -42.9243 397.862 -41.1696 426.877C-44.3162 416.14 -47.3437 405.728 -49.612 397.926C-52.8641 386.634 -55.1019 379.189 -55.5929 377.705C-63.7147 352.683 -79.5166 296.824 -79.5408 296.163L-79.7927 296.277C-81.7194 287.196 -86.0451 268.689 -90.4179 254.619C-95.5771 238.018 -108.984 217.064 -116.603 207.162C-115.041 221.351 -110.171 245.897 -103.994 261.65C-98.7501 275.024 -90.5997 289.482 -84.7043 298.496L-85.1241 298.686C-85.0801 298.801 -84.5273 300.755 -83.6021 304.025L-83.602 304.025C-81.1346 312.746 -76.0186 330.828 -70.8412 348.361C-80.0861 340.252 -96.2796 326.659 -109.814 316.987C-116.083 312.507 -123.873 308.444 -131.984 304.932C-134.034 296.304 -136.097 287.594 -138.178 278.783C-141.585 264.371 -144.817 250.273 -148.143 235.761L-148.143 235.76L-148.346 234.873C-125.082 191.095 -92.4032 148.281 -55.2232 112.475C-51.4189 201.994 -45.1819 346.131 -44.1879 369.09C-44.2283 369.088 -44.2678 369.085 -44.3064 369.082C-44.3064 368.797 -45.556 375.064 -44.0565 379.052L-44.004 379.067ZM-136.797 302.925C-149.786 297.706 -162.989 293.936 -171.621 292.14C-162.157 302.72 -145.792 318.136 -130.501 329.362C-120.94 369.395 -111.595 408.012 -102.095 446.974C-106.326 444.916 -110.172 443.185 -113.356 441.83C-109.566 447.902 -104.16 455.616 -98.0729 463.453C-95.4592 474.152 -92.83 484.896 -90.1779 495.72C-87.9115 505.132 -85.5806 514.617 -83.2392 524.145L-83.2389 524.146L-83.2386 524.147C-82.5092 527.115 -81.7788 530.087 -81.049 533.063C-141.882 508.821 -185 454.323 -185 361.071C-185 323.661 -172.431 281.855 -151.366 240.664C-148.384 253.663 -145.443 266.436 -142.32 279.601C-140.466 287.448 -138.626 295.219 -136.797 302.925ZM-86.0363 494.901C-87.9826 486.964 -89.9145 479.077 -91.8351 471.226C-85.4211 478.953 -78.6382 486.304 -72.412 491.777C-61.3631 501.488 -46.692 510.78 -35.771 516.806C-35.2117 526.196 -34.6422 535.785 -34.0684 545.477C-48.7575 543.297 -62.9061 539.799 -76.2573 534.897C-77.2033 531.035 -78.1511 527.178 -79.0972 523.328L-79.0975 523.327L-79.0977 523.326L-79.098 523.325L-79.0982 523.324L-79.0985 523.323L-79.0987 523.322L-79.099 523.321L-79.0992 523.32L-79.0995 523.319L-79.0997 523.318C-81.4404 513.793 -83.7706 504.311 -86.0363 494.901ZM-59.6079 474.239C-50.2386 482.8 -42.4707 492.655 -36.7389 500.579C-37.7371 483.871 -38.6885 468.021 -39.5555 453.625C-43.0713 441.837 -47.5325 426.607 -52.9008 408.281L-52.904 408.27L-52.9097 408.251L-52.91 408.25C-53.6544 405.709 -54.4162 403.108 -55.1953 400.449C-56.3773 396.339 -57.4459 392.556 -58.3366 389.403C-59.7083 384.548 -60.6581 381.185 -60.9509 380.42C-62.9225 374.51 -65.2995 366.862 -67.7833 358.619C-80.1654 355.28 -101.911 347.214 -118.883 337.139C-120.958 335.907 -123.1 334.535 -125.284 333.052C-115.839 372.575 -106.598 410.746 -97.1582 449.438C-84.8453 455.745 -70.4142 464.365 -59.6079 474.239Z" fill="url(#paint4_linear)" fill-opacity="0.52"/>
</g>
</g>
<defs>
<linearGradient id="paint0_linear" x1="-11" y1="595.92" x2="1438.35" y2="541.609" gradientUnits="userSpaceOnUse">
<stop stop-color="#EBF9FD"/>
<stop offset="1" stop-color="#EBFDF5"/>
</linearGradient>
<linearGradient id="paint1_linear" x1="-6.99975" y1="273.569" x2="1471.71" y2="395.907" gradientUnits="userSpaceOnUse">
<stop stop-color="#01B213"/>
<stop offset="1" stop-color="#85E948"/>
</linearGradient>
<linearGradient id="paint2_linear" x1="-19" y1="268.306" x2="1455.05" y2="274.722" gradientUnits="userSpaceOnUse">
<stop stop-color="#01B213"/>
<stop offset="1" stop-color="#91ED58"/>
</linearGradient>
<linearGradient id="paint3_linear" x1="-271.181" y1="187.977" x2="707.347" y2="187.855" gradientUnits="userSpaceOnUse">
<stop offset="0.60067" stop-color="#01B213"/>
<stop offset="1" stop-color="#74D355"/>
</linearGradient>
<linearGradient id="paint4_linear" x1="-142.47" y1="509.767" x2="331.445" y2="170.129" gradientUnits="userSpaceOnUse">
<stop stop-color="white" stop-opacity="0.66"/>
<stop offset="0.921875" stop-color="white" stop-opacity="0"/>
</linearGradient>
</defs>
</svg>
