<svg width="18" height="13" viewBox="0 0 18 13" fill="none" xmlns="http://www.w3.org/2000/svg">
<path d="M12.4198 1.31067L12.4198 1.31063C12.3039 1.19483 12.1516 1.13674 12 1.13674C11.8484 1.13674 11.6961 1.1948 11.5802 1.31065L12.4198 1.31067ZM12.4198 1.31067L17.5761 6.46691C17.808 6.69882 17.8079 7.07464 17.576 7.30654L12.4198 12.4628M12.4198 1.31067L12.4198 12.4628M12.4198 12.4628C12.1879 12.6947 11.8121 12.6947 11.5802 12.4628M12.4198 12.4628L11.5802 12.4628M11.5802 12.4628C11.3483 12.2309 11.3482 11.855 11.5802 11.6231M11.5802 12.4628L11.5802 11.6231M11.5802 11.6231L15.7229 7.48047L1.34376 7.48047C1.01568 7.48047 0.750001 7.21479 0.750001 6.88671C0.750001 6.55863 1.01568 6.29295 1.34376 6.29295L15.7229 6.29295L11.5802 2.1503C11.3483 1.9184 11.3482 1.54258 11.5802 1.31067L11.5802 11.6231Z" fill="#009F10" stroke="#009F10" stroke-width="0.5"/>
</svg>
