<svg width="30" height="20" viewBox="0 0 30 20" fill="none" xmlns="http://www.w3.org/2000/svg">
<path d="M9.52429 18.7053L9.52422 18.7052L0.892766 10.4661C0.502913 10.094 0.502974 9.48284 0.892817 9.11071L9.52428 0.871587C9.90363 0.509483 10.511 0.509437 10.8904 0.871621C11.2802 1.24376 11.2802 1.85488 10.8903 2.227L3.9633 8.83913L28.0456 8.83914C28.5669 8.83914 29.0211 9.24657 29.0211 9.78843C29.0211 10.3303 28.5669 10.7377 28.0456 10.7377L3.96331 10.7377L10.8903 17.3498C11.2802 17.722 11.2802 18.3331 10.8903 18.7052C10.6988 18.8881 10.4506 18.9768 10.2073 18.9768C9.96391 18.9768 9.71582 18.888 9.52429 18.7053Z" fill="white" stroke="white" stroke-width="0.8"/>
</svg>
