<svg width="18" height="13" viewBox="0 0 18 13" fill="none" xmlns="http://www.w3.org/2000/svg">
<path d="M12.4198 0.923953L12.4198 0.923911C12.3039 0.808114 12.1516 0.750022 12 0.750022C11.8484 0.750022 11.6961 0.808085 11.5802 0.923932L12.4198 0.923953ZM12.4198 0.923953L17.5761 6.0802C17.808 6.3121 17.8079 6.68792 17.576 6.91982L12.4198 12.0761M12.4198 0.923953L12.4198 12.0761M12.4198 12.0761C12.1879 12.308 11.8121 12.308 11.5802 12.0761M12.4198 12.0761L11.5802 12.0761M11.5802 12.0761C11.3483 11.8442 11.3482 11.4683 11.5802 11.2364L15.7229 7.09375L1.34376 7.09375C1.01568 7.09375 0.750001 6.82807 0.750001 6.49999C0.750001 6.17191 1.01568 5.90623 1.34376 5.90623L15.7229 5.90623L11.5802 1.76358C11.3483 1.53168 11.3482 1.15586 11.5802 0.923953L11.5802 12.0761Z" fill="#009F10" stroke="#009F10" stroke-width="0.5"/>
</svg>
