<svg width="30" height="20" viewBox="0 0 30 20" fill="none" xmlns="http://www.w3.org/2000/svg">
<path d="M9.52386 18.7053L9.52379 18.7052L0.892339 10.4661C0.502487 10.094 0.502548 9.48285 0.892391 9.11072L9.52385 0.871601C9.9032 0.509497 10.5106 0.509451 10.8899 0.871635C11.2798 1.24377 11.2798 1.8549 10.8899 2.22701L3.96288 8.83915L28.0452 8.83915C28.5665 8.83915 29.0207 9.24659 29.0207 9.78844C29.0207 10.3303 28.5665 10.7377 28.0452 10.7377L3.96288 10.7377L10.8899 17.3498C11.2798 17.722 11.2798 18.3331 10.8899 18.7053C10.6983 18.8881 10.4501 18.9768 10.2068 18.9768C9.96348 18.9768 9.71539 18.888 9.52386 18.7053Z" fill="#66DB43" stroke="#66DB43" stroke-width="0.8"/>
</svg>
