<svg width="30" height="20" viewBox="0 0 30 20" fill="none" xmlns="http://www.w3.org/2000/svg">
<path d="M20.4761 0.871629L20.4761 0.871694L29.1076 9.11082C29.4975 9.48295 29.4974 10.0941 29.1075 10.4662L20.4761 18.7053C20.0967 19.0674 19.4893 19.0675 19.11 18.7053C18.7202 18.3331 18.7201 17.722 19.1101 17.3499L26.0371 10.7378L1.95472 10.7378C1.43348 10.7378 0.979274 10.3303 0.979274 9.78847C0.979274 9.24662 1.43348 8.83918 1.95472 8.83918L26.0371 8.83919L19.11 2.22707C18.7202 1.85494 18.7201 1.24379 19.1101 0.87166C19.3016 0.688848 19.5498 0.600116 19.7931 0.600116C20.0365 0.600116 20.2845 0.688894 20.4761 0.871629Z" fill="#66DB43" stroke="#66DB43" stroke-width="0.8"/>
</svg>
