<svg width="30" height="20" viewBox="0 0 30 20" fill="none" xmlns="http://www.w3.org/2000/svg">
<path d="M20.0968 0.871628L20.0969 0.871693L28.7283 9.11082C29.1182 9.48295 29.1181 10.0941 28.7283 10.4662L20.0968 18.7053C19.7175 19.0674 19.1101 19.0675 18.7307 18.7053C18.3409 18.3331 18.3409 17.722 18.7308 17.3499L25.6578 10.7378L1.57545 10.7378C1.05421 10.7378 0.600002 10.3303 0.600002 9.78847C0.600002 9.24662 1.05421 8.83918 1.57545 8.83918L25.6578 8.83919L18.7308 2.22707C18.3409 1.85494 18.3409 1.24379 18.7308 0.871659C18.9223 0.688847 19.1705 0.600115 19.4138 0.600115C19.6572 0.600115 19.9053 0.688893 20.0968 0.871628Z" fill="white" stroke="white" stroke-width="0.8"/>
</svg>
