<svg width="22" height="17" viewBox="0 0 22 17" fill="none" xmlns="http://www.w3.org/2000/svg">
<path d="M14.6858 1.38838L14.6857 1.38833C14.5552 1.25037 14.3808 1.17853 14.2039 1.17853C14.027 1.17852 13.8525 1.25035 13.722 1.38838M14.6858 1.38838L13.9037 1.56011M14.6858 1.38838L21.0545 8.12571C21.3114 8.39752 21.3114 8.83249 21.0545 9.10431L14.6857 15.8416C14.4212 16.1214 13.9865 16.1215 13.722 15.8416C13.465 15.5698 13.465 15.1349 13.722 14.863C13.722 14.863 13.722 14.863 13.722 14.863L18.9673 9.31416M14.6858 1.38838L18.9673 9.31416M13.722 1.38838L13.9037 1.56011M13.722 1.38838C13.722 1.38837 13.722 1.38836 13.722 1.38836L13.9037 1.56011M13.722 1.38838C13.465 1.66019 13.465 2.09515 13.722 2.36697L18.9673 7.91582M13.9037 1.56011C13.7378 1.73554 13.7378 2.01977 13.9037 2.19523L19.3113 7.91582L18.9673 7.91582M18.9673 7.91582L1.04178 7.91581C0.655959 7.91581 0.367189 8.24208 0.367189 8.61498C0.367188 8.98789 0.655959 9.31415 1.04178 9.31415L18.9673 9.31416M18.9673 7.91582L19.2036 8.16582L1.04178 8.16581C0.807097 8.16581 0.617189 8.36671 0.617189 8.61498C0.617188 8.86325 0.807096 9.06415 1.04178 9.06415L18.9673 9.31416" fill="white" stroke="white" stroke-width="0.5"/>
</svg>
