<svg width="96" height="100" viewBox="0 0 96 100" fill="none" xmlns="http://www.w3.org/2000/svg">
<path d="M94.4787 57.5747C90.3819 76.5727 67.9959 88.3017 65.294 85.5215C59.875 79.9461 73.01 74.7858 76.4779 63.4245C77.5692 52.2269 73.064 36.2689 82.6402 31.4603C88.1205 28.7086 97.5375 38.4048 94.4787 57.5747Z" fill="url(#paint0_linear)"/>
<path fill-rule="evenodd" clip-rule="evenodd" d="M24.3154 9.71256C16.642 13.4453 8.4911 20.4049 4.5718 30.7799C-2.20387 48.716 1.71512 61.9348 6.14762 63.639C12.6975 66.1575 13.9015 57.4299 15.2581 47.5965C15.9287 42.736 16.6365 37.6051 18.0456 33.4285C21.0173 28.0175 27.8933 24.7632 30.3383 22.9341L30.7172 7.28506L24.3154 9.71256ZM30.3383 22.9341C36.1414 19.2591 41.6151 15.5968 41.7469 9.73309C41.8207 6.45087 37.0082 5.58935 30.7172 7.28506L30.5784 12.2514L30.3383 22.9341Z" fill="url(#paint1_linear)" fill-opacity="0.65"/>
<path fill-rule="evenodd" clip-rule="evenodd" d="M37.965 98.9257C56.1408 97.8491 83.2708 85.0928 89.1906 57.7929C95.1104 30.4925 80.4911 0.0234375 60.9895 0.0234375C53.2539 0.0234375 42.3734 6.02231 32.0601 14.913L29.8553 17.0234L25.7436 20.7961C12.7179 33.8741 2.00002 50.8276 2.00002 64.6176C2.00002 91.0875 18.4207 100.084 37.965 98.9257Z" fill="url(#paint2_linear)" fill-opacity="0.4"/>
<path fill-rule="evenodd" clip-rule="evenodd" d="M25.7441 23.7529C13.3261 34.2422 3.88919 48.8071 3.88919 60.4759C3.88919 81.1791 20.2908 88.9487 38.5683 88.0484C56.1708 87.1818 76.9938 76.4902 82.3188 55.1375C87.6437 33.7848 74.4935 9.95361 56.9516 9.95361C48.9169 9.95361 40.1304 13.4825 32.0605 18.9553L31.3553 19.5229L27.8553 22.0229L25.7441 23.7529Z" fill="url(#paint3_linear)"/>
<path d="M66.0812 46.7024L43.9582 39.0767C43.6618 38.9744 43.3384 38.9744 43.042 39.0767L20.9189 46.7024C20.3689 46.892 20.0008 47.3996 20 47.9695C19.9993 48.5393 20.3662 49.0477 20.9158 49.2386L43.0388 56.9222C43.188 56.9741 43.3441 57 43.5 57C43.6561 57 43.812 56.9741 43.9612 56.9222L66.0842 49.2386C66.6338 49.0477 67.0007 48.5393 67 47.9695C66.9993 47.3996 66.6312 46.892 66.0812 46.7024Z" fill="white"/>
<path d="M66.8984 66.1133V50.8623L62.6339 52.1054V66.1133C61.3495 66.7196 60.4839 67.8555 60.4839 69.1581C60.4839 70.4605 61.3495 71.5965 62.6339 72.2028V92.5C62.6339 93.4656 63.8224 91.5 65 91.5C66.1776 91.5 66.8984 90.9656 66.8984 90V72.2029C68.1829 71.5968 69.0484 70.4606 69.0484 69.1582C69.0484 67.8556 68.183 66.7196 66.8984 66.1133Z" fill="white"/>
<path d="M43 60.0273C42.5212 60.0273 42.0497 59.9406 41.5984 59.7698L29 55V61.5368C29 63.136 30.5666 64.4885 33.6562 65.5564C36.3493 66.4873 39.6677 67 43 67C46.3324 67 49.6507 66.4873 52.3438 65.5564C55.4334 64.4885 57 63.136 57 61.5368V55L44.4017 59.7698C43.9504 59.9406 43.4788 60.0273 43 60.0273Z" fill="white"/>
<defs>
<linearGradient id="paint0_linear" x1="85.3464" y1="31.1963" x2="75.9807" y2="85.8865" gradientUnits="userSpaceOnUse">
<stop stop-color="#FFEC00" stop-opacity="0.75"/>
<stop offset="0.414068" stop-color="#F5F13C" stop-opacity="0.6"/>
<stop offset="1" stop-color="#F5F13C" stop-opacity="0.46"/>
</linearGradient>
<linearGradient id="paint1_linear" x1="23.2362" y1="-3.03099" x2="-5.95916" y2="44.6014" gradientUnits="userSpaceOnUse">
<stop stop-color="#4AFFD4"/>
<stop offset="1" stop-color="#30B3C7"/>
</linearGradient>
<linearGradient id="paint2_linear" x1="56.5792" y1="0.0234378" x2="16.8512" y2="95.4503" gradientUnits="userSpaceOnUse">
<stop stop-color="#99FF1E"/>
<stop offset="1" stop-color="#99FF1E" stop-opacity="0.43"/>
</linearGradient>
<linearGradient id="paint3_linear" x1="43.7025" y1="9.95361" x2="25.2364" y2="95.2506" gradientUnits="userSpaceOnUse">
<stop stop-color="#01B313"/>
<stop offset="1" stop-color="#78EE1B" stop-opacity="0.6"/>
</linearGradient>
</defs>
</svg>
