<svg width="97" height="99" viewBox="0 0 97 99" fill="none" xmlns="http://www.w3.org/2000/svg">
<path d="M95.4787 57.5747C91.3819 76.5727 68.9959 88.3017 66.294 85.5215C60.875 79.9461 74.0099 74.7858 77.4779 63.4245C78.5691 52.2269 74.064 36.2689 83.6402 31.4603C89.1204 28.7086 98.5374 38.4048 95.4787 57.5747Z" fill="url(#paint0_linear)"/>
<path fill-rule="evenodd" clip-rule="evenodd" d="M26.3531 9.83742C18.5339 13.2542 10.106 19.8757 5.76702 30.0823C-1.73427 47.7272 1.64253 61.0948 6.00186 62.9783C12.4436 65.7618 14.0025 57.0905 15.7589 47.3206C16.627 42.4914 17.5434 37.3937 19.1216 33.2781C22.3115 27.9927 29.3144 25.0214 31.832 23.2935L32.8485 7.67293L26.3531 9.83742ZM31.832 23.2935C37.7801 19.8582 43.3985 16.4221 43.7693 10.5686C43.9768 7.29212 39.2035 6.23512 32.8485 7.67293L32.5074 12.6295L31.832 23.2935Z" fill="url(#paint1_linear)" fill-opacity="0.65"/>
<path fill-rule="evenodd" clip-rule="evenodd" d="M38.9649 98.9023C57.1408 97.8257 84.2707 85.0693 90.1905 57.7694C96.1103 30.469 81.4911 0 61.9895 0C54.2539 0 43.3733 5.99887 33.06 14.8896L30.8552 17L26.7436 20.7727C13.7178 33.8506 2.99996 50.8042 2.99996 64.5942C2.99996 91.064 19.4207 100.06 38.9649 98.9023Z" fill="url(#paint2_linear)" fill-opacity="0.4"/>
<path fill-rule="evenodd" clip-rule="evenodd" d="M26.744 23.7294C14.3261 34.2188 4.88914 48.7836 4.88914 60.4525C4.88914 81.1556 21.2907 88.9253 39.5683 88.025C57.1707 87.1583 77.9938 76.4668 83.3187 55.1141C88.6436 33.7614 75.4935 9.93018 57.9516 9.93018C49.9168 9.93018 41.1303 13.4591 33.0605 18.9318L32.3553 19.4995L28.8553 21.9995L26.744 23.7294Z" fill="url(#paint3_linear)"/>
<path d="M50.4539 53.5613V55.4576C50.4539 57.7046 49.1557 59.6511 47.2721 60.5872C46.5085 60.969 45.6367 61.1847 44.7268 61.1847C43.8168 61.1847 42.945 60.9684 42.1814 60.5872C40.3041 59.6575 39.0124 57.7236 38.9996 55.4901V55.4576V53.5613L40.9087 52.2759C40.9087 52.2759 42.8241 52.9122 45.0449 52.9122C47.2658 52.9122 48.5448 52.2759 48.5448 52.2759L50.4539 53.5613Z" fill="white"/>
<path d="M48.5448 52.2759L48.5429 52.2772V55.4576C48.5429 57.7046 47.2448 59.6511 45.3612 60.5872C44.8705 60.8322 44.3328 60.9996 43.7709 61.0957C44.0834 61.1485 44.4009 61.1847 44.7267 61.1847C45.6367 61.1847 46.5085 60.9684 47.2721 60.5872C49.1557 59.6511 50.4539 57.7052 50.4539 55.4576V53.5613L48.5448 52.2759Z" fill="white"/>
<path d="M33.9089 44.9008L32.6362 47.4844C31.4462 47.7332 29.9699 48.9734 26.2727 48.5407C26.0691 48.5153 25.8591 48.4898 25.6364 48.4516V48.1334C25.6364 45.4983 27.7745 43.3608 30.409 43.3608C31.7962 43.3608 33.0434 43.9526 33.9089 44.9008Z" fill="white"/>
<path d="M35.1816 48.134V49.0122C34.087 47.5804 33.4252 47.3195 32.6362 47.4849L33.9089 44.9014C34.7043 45.7477 35.1816 46.8868 35.1816 48.134Z" fill="white"/>
<path d="M47.2722 60.5874V62.4576C47.2722 63.5076 46.1331 64.3667 44.7268 64.3667C43.3205 64.3667 42.1814 63.5076 42.1814 62.4576V60.5874C42.945 60.9692 43.8168 61.1849 44.7268 61.1849C45.6368 61.1849 46.5086 60.9686 47.2722 60.5874Z" fill="white"/>
<path d="M42.1814 62.4575C42.1814 63.5075 43.3204 64.3666 44.7267 64.3666C46.1331 64.3666 47.2721 63.5075 47.2721 62.4575H49.1812C50.9375 62.4575 52.3629 63.8829 52.3629 65.6393V68.1846C52.3629 68.534 52.0766 68.821 51.7266 68.821H37.7269C37.3769 68.821 37.0906 68.534 37.0906 68.1846V65.6393C37.0906 63.8829 38.516 62.4575 40.2723 62.4575H42.1814Z" fill="white"/>
<path d="M49.1812 62.4575H47.2722C49.0278 62.4588 50.452 63.8829 50.452 65.6393V68.1846C50.452 68.534 50.1656 68.821 49.8156 68.821H51.7266C52.0766 68.821 52.3629 68.534 52.3629 68.1846V65.6393C52.3629 63.8829 50.9375 62.4575 49.1812 62.4575Z" fill="white"/>
<path d="M26.909 56.7305V61.1849H25V58.6395C25 57.5832 25.8527 56.7305 26.909 56.7305Z" fill="white"/>
<path d="M36.4543 58.6395V61.1849H34.5452V56.7305C35.6016 56.7305 36.4543 57.5832 36.4543 58.6395Z" fill="white"/>
<path d="M64.4535 58.6395V61.1849H62.5445V56.7305C63.6008 56.7305 64.4535 57.5832 64.4535 58.6395Z" fill="white"/>
<path d="M32.6361 55.0249V56.7303C32.6361 57.4303 31.7834 58.003 30.7271 58.003C29.6708 58.003 28.8181 57.4303 28.8181 56.7303V55.0249V55.0186C29.3971 55.2979 30.0398 55.4513 30.7271 55.4513C31.4144 55.4513 32.0571 55.2985 32.6361 55.0186V55.0249Z" fill="white"/>
<path d="M35.1816 50.9973V51.0037C35.1816 52.7797 34.138 54.3133 32.6362 55.0197C32.0571 55.299 31.4144 55.4524 30.7271 55.4524C30.0399 55.4524 29.3972 55.2997 28.8181 55.0197C27.3163 54.314 26.2727 52.7797 26.2727 51.0037V50.9973V48.541C29.9699 48.9737 31.4462 47.7329 32.6362 47.4847C33.4252 47.3192 34.0871 47.5801 35.1816 49.0119V50.9973Z" fill="white"/>
<path d="M33.2706 47.4648V50.9972V51.0036C33.2706 52.7796 32.227 54.3132 30.7252 55.0196C30.4236 55.1653 30.1041 55.2741 29.7713 55.3479C30.0787 55.4147 30.3968 55.4516 30.7271 55.4516C31.4144 55.4516 32.0571 55.2989 32.6361 55.0189C34.1379 54.3132 35.1815 52.779 35.1815 51.0029V50.9966V49.0112C34.3886 47.9739 33.8223 47.5565 33.2706 47.4648Z" fill="white"/>
<path d="M50.4539 51.6396V53.5614L48.5448 52.276C48.5448 52.276 47.2658 52.9123 45.0449 52.9123C42.8241 52.9123 40.9087 52.276 40.9087 52.276L38.9996 53.5614V51.6396C38.9996 48.8206 41.2778 46.5425 44.0904 46.5425H47.9085V49.0879C49.3148 49.0879 50.4539 50.2276 50.4539 51.6396Z" fill="white"/>
<path d="M50.4539 53.5614V51.6396C50.4539 50.2276 49.3148 49.0879 47.9085 49.0879V46.5425H45.9995V49.0879C45.9995 50.1429 46.8541 50.9969 47.9085 50.9969C48.2598 50.9969 48.5448 51.2852 48.5448 51.6396V52.276L50.4539 53.5614Z" fill="white"/>
<path d="M53.2573 32.3521C53.6563 32.3521 53.9827 32.6785 53.9827 33.0775V34.5284C53.9827 34.9273 53.6563 35.2538 53.2573 35.2538H36.5722C36.1732 35.2538 35.8468 34.9273 35.8468 34.5284V33.0775C35.8468 32.6785 36.1732 32.3521 36.5722 32.3521H53.2573Z" fill="#E6E9ED"/>
<path d="M52.8945 35.2544V37.4307C52.8945 38.6349 51.9152 39.607 50.7182 39.607C49.514 39.607 48.5419 38.6349 48.5419 37.4307V35.2544V32.3526V30.1763C48.5419 28.9721 49.514 28 50.7182 28C51.9152 28 52.8945 28.9721 52.8945 30.1763V32.3526V35.2544Z" fill="white"/>
<path d="M41.2876 35.2544V37.4307C41.2876 38.6349 40.3155 39.607 39.1112 39.607C37.9143 39.607 36.9349 38.6349 36.9349 37.4307V35.2544V32.3526V30.1763C36.9349 28.9721 37.9143 28 39.1112 28C40.3155 28 41.2876 28.9721 41.2876 30.1763V32.3526V35.2544Z" fill="white"/>
<path d="M63.1808 49.0945V51.0035C63.1808 52.7796 62.1436 54.3132 60.6354 55.0252C60.0564 55.3046 59.4137 55.4579 58.7264 55.4579C58.0391 55.4579 57.3964 55.3052 56.8174 55.0252C55.3092 54.3132 54.272 52.7796 54.272 51.0035V49.1072L55.5447 47.8281L55.551 47.8218C55.6783 47.8727 57.0401 48.4709 58.6889 48.4709C60.3052 48.4709 61.7179 47.8988 61.8891 47.8281L61.9081 47.8345L63.1808 49.0945Z" fill="white"/>
<path d="M61.9082 47.8345L61.8891 47.8281C61.8273 47.8529 61.6021 47.9439 61.2699 48.0483V51.0035C61.2699 52.7795 60.2327 54.3131 58.7245 55.0252C58.4229 55.1709 58.1034 55.2798 57.7706 55.3536C58.078 55.4204 58.3962 55.4579 58.7264 55.4579C59.4137 55.4579 60.0564 55.3052 60.6355 55.0252C62.1436 54.3131 63.1809 52.7795 63.1809 51.0035V49.0945L61.9082 47.8345Z" fill="white"/>
<path d="M54.272 47.8216C54.272 45.3653 56.2637 43.3672 58.7264 43.3672C61.1891 43.3672 63.1808 45.3653 63.1808 47.8216V49.0943L61.9081 47.8343L61.8891 47.828C61.7172 47.898 60.3052 48.4707 58.6889 48.4707C57.0401 48.4707 55.6789 47.8732 55.551 47.8216L55.5447 47.828L54.272 49.107V47.8216Z" fill="white"/>
<path d="M58.7264 43.3672C58.3981 43.3672 58.0786 43.4054 57.7706 43.4722C59.7726 43.91 61.2699 45.6924 61.2699 47.8216V48.0475C61.6014 47.9432 61.8273 47.8522 61.8891 47.8273L61.9082 47.8343L63.1809 49.0943V47.8216C63.1809 45.3653 61.1891 43.3672 58.7264 43.3672Z" fill="white"/>
<path d="M52.9993 58.6395C52.9993 57.5832 53.852 56.7305 54.9083 56.7305V61.1849H52.9993V58.6395Z" fill="white"/>
<path d="M56.8174 56.7305C56.8174 57.4305 57.6701 58.0032 58.7264 58.0032C59.7827 58.0032 60.6355 57.4305 60.6355 56.7305H62.5445V61.1849H54.9083V56.7305H56.8174Z" fill="white"/>
<path d="M60.6355 55.0259V56.7313C60.6355 57.4313 59.7828 58.004 58.7264 58.004C57.6701 58.004 56.8174 57.4313 56.8174 56.7313V55.0259C57.3965 55.3052 58.0392 55.4586 58.7264 55.4586C59.4137 55.4586 60.0564 55.3059 60.6355 55.0259Z" fill="white"/>
<path d="M28.8181 56.7305C28.8181 57.4305 29.6708 58.0032 30.7271 58.0032C31.7835 58.0032 32.6362 57.4305 32.6362 56.7305H34.5452V61.1849H26.9091V56.7305H28.8181Z" fill="white"/>
<path d="M34.5433 58.6395H34.5452V56.7305H32.6362C33.6919 56.7317 34.5433 57.5832 34.5433 58.6395Z" fill="white"/>
<path d="M62.5426 58.6395H62.5445V56.7305H60.6354C61.6911 56.7317 62.5426 57.5832 62.5426 58.6395Z" fill="white"/>
<defs>
<linearGradient id="paint0_linear" x1="86.3463" y1="31.1963" x2="76.9807" y2="85.8865" gradientUnits="userSpaceOnUse">
<stop stop-color="#FFEC00" stop-opacity="0.75"/>
<stop offset="0.414068" stop-color="#F5F13C" stop-opacity="0.6"/>
<stop offset="1" stop-color="#F5F13C" stop-opacity="0.46"/>
</linearGradient>
<linearGradient id="paint1_linear" x1="25.7943" y1="-2.93953" x2="-5.31869" y2="43.4629" gradientUnits="userSpaceOnUse">
<stop stop-color="#4AFFD4"/>
<stop offset="1" stop-color="#30B3C7"/>
</linearGradient>
<linearGradient id="paint2_linear" x1="57.5791" y1="2.87397e-07" x2="17.8511" y2="95.4268" gradientUnits="userSpaceOnUse">
<stop stop-color="#99FF1E"/>
<stop offset="1" stop-color="#99FF1E" stop-opacity="0.43"/>
</linearGradient>
<linearGradient id="paint3_linear" x1="44.7024" y1="9.93018" x2="26.2363" y2="95.2271" gradientUnits="userSpaceOnUse">
<stop stop-color="#01B313"/>
<stop offset="1" stop-color="#78EE1B" stop-opacity="0.6"/>
</linearGradient>
</defs>
</svg>
