<svg width="97" height="99" viewBox="0 0 97 99" fill="none" xmlns="http://www.w3.org/2000/svg">
<path d="M95.4788 56.5747C91.382 75.5727 68.996 87.3017 66.2941 84.5215C60.8751 78.9461 74.01 73.7858 77.478 62.4245C78.5692 51.2269 74.0641 35.2689 83.6403 30.4603C89.1205 27.7086 98.5375 37.4048 95.4788 56.5747Z" fill="url(#paint0_linear)"/>
<path fill-rule="evenodd" clip-rule="evenodd" d="M26.2261 9.8168C18.4241 13.2727 10.0296 19.9363 5.74168 30.1645C-1.67116 47.8467 1.77254 61.1973 6.14125 63.0589C12.5969 65.8101 14.1123 57.1312 15.8197 47.3525C16.6637 42.5191 17.5546 37.4169 19.1121 33.2933C22.2755 27.9921 29.2634 24.9857 31.7723 23.2453L32.7106 7.61981L26.2261 9.8168ZM31.7723 23.2453C37.7031 19.7802 43.3043 16.316 43.6458 10.4608C43.8369 7.18329 39.0583 6.1502 32.7106 7.61981L32.3944 12.578L31.7723 23.2453Z" fill="url(#paint1_linear)" fill-opacity="0.65"/>
<path fill-rule="evenodd" clip-rule="evenodd" d="M38.965 98.9023C57.1409 97.8257 84.2708 85.0693 90.1906 57.7694C96.1104 30.469 81.4912 0 61.9896 0C54.254 0 43.3734 5.99887 33.0601 14.8896L30.8553 17L26.7437 20.7727C13.7179 33.8506 3.00006 50.8042 3.00006 64.5942C3.00006 91.064 19.4208 100.06 38.965 98.9023Z" fill="url(#paint2_linear)" fill-opacity="0.4"/>
<path fill-rule="evenodd" clip-rule="evenodd" d="M26.7441 23.7294C14.3262 34.2188 4.88924 48.7836 4.88924 60.4525C4.88924 81.1556 21.2908 88.9253 39.5684 88.025C57.1708 87.1583 77.9939 76.4668 83.3188 55.1141C88.6437 33.7614 75.4936 9.93018 57.9517 9.93018C49.9169 9.93018 41.1304 13.4591 33.0606 18.9318L32.3553 19.4995L28.8553 21.9995L26.7441 23.7294Z" fill="url(#paint3_linear)"/>
<path d="M36.4654 44.9695C36.2244 44.9393 36.0431 44.7351 36.0421 44.4922L36.0328 42.2825L32.6565 42.2967L32.6658 44.5064C32.6669 44.7494 32.4874 44.955 32.2466 44.9873C32.2466 44.9873 31.6232 47.118 34.3649 47.1065C37.1067 47.0949 36.4654 44.9695 36.4654 44.9695Z" fill="white"/>
<path d="M40.7528 47.7052C40.7751 46.7804 40.2651 45.9884 39.4183 45.6157C38.6447 45.2752 37.1843 45.0597 36.4654 44.9695L36.4611 44.9749C35.3826 46.324 33.3331 46.33 32.2467 44.9873C31.5286 45.0835 30.07 45.3113 29.2994 45.6583C28.4616 46.0358 27.9957 46.8808 28.021 47.749V51.0991C28.021 51.6515 28.4688 52.0993 29.0212 52.0993H39.7525C40.3054 52.0993 40.7533 51.6505 40.7527 51.0976C40.7505 49.2043 40.7458 47.9937 40.7528 47.7052Z" fill="white"/>
<path d="M40.7528 47.7052C40.7751 46.7804 40.265 45.9884 39.4183 45.6157C38.6447 45.2752 37.1843 45.0597 36.4654 44.9695L36.4611 44.9749C36.1469 45.3679 35.75 45.6461 35.3188 45.811C35.9497 46.2291 36.3169 46.9186 36.2979 47.7052C36.2909 47.9938 36.2956 49.2043 36.2977 51.0976C36.2983 51.6505 35.8504 52.0993 35.2975 52.0993H39.7524C40.3053 52.0993 40.7532 51.6505 40.7526 51.0976C40.7505 49.2043 40.7458 47.9937 40.7528 47.7052Z" fill="white"/>
<path d="M38.3711 39.0297V36.8375C38.3711 35.2704 37.1007 34 35.5335 34H33.1855C31.6183 34 30.3479 35.2704 30.3479 36.8375V39.0296H38.3711V39.0297Z" fill="white"/>
<path d="M35.5336 34H33.9521L33.9549 39.0297H38.371V36.8375C38.3711 35.2704 37.1007 34 35.5336 34Z" fill="white"/>
<path d="M37.485 39.0293C37.1052 39.0293 36.7973 38.4912 36.7973 38.1114V37.4042C36.7973 37.0322 36.4958 36.7307 36.1238 36.7307C36.0288 36.7307 35.9348 36.7508 35.8481 36.7898C35.3099 37.0313 34.9363 37.152 34.3595 37.152C33.7826 37.152 33.409 37.0313 32.8709 36.7898C32.7841 36.7509 32.6902 36.7307 32.5951 36.7307C32.2232 36.7307 31.9216 37.0322 31.9216 37.4042V38.1114C31.9216 38.4912 31.6137 39.0293 31.2339 39.0293H30.3479C30.3479 40.1959 31.0307 40.3926 31.0307 40.3926C31.0307 42.231 32.5211 43.7213 34.3595 43.7213C36.1979 43.7213 37.6882 42.231 37.6882 40.3926C37.6882 40.3926 38.371 40.1958 38.371 39.0293H37.485Z" fill="white"/>
<path d="M37.485 39.0293C37.1052 39.0293 36.7973 38.4912 36.7973 38.1114V37.4042C36.7973 37.0322 36.4958 36.7307 36.1239 36.7307C36.0288 36.7307 35.9349 36.7508 35.8481 36.7898C35.31 37.0313 34.9364 37.152 34.3595 37.152C34.2132 37.152 34.08 37.1442 33.9538 37.1286L33.9562 41.3655C33.9562 42.1802 33.6631 42.9261 33.1773 43.5046C33.5447 43.6443 33.9431 43.7215 34.3595 43.7215C36.198 43.7215 37.6883 42.2311 37.6883 40.3927C37.6883 40.3927 38.371 40.196 38.371 39.0294H37.485V39.0293Z" fill="white"/>
<path d="M58.7026 61.8699C58.4616 61.8397 58.2804 61.6355 58.2794 61.3926L58.2701 59.1829L54.8938 59.1971L54.9031 61.4068C54.9041 61.6497 54.7246 61.8554 54.4838 61.8877C54.4838 61.8877 53.8604 64.0184 56.6022 64.0068C59.3439 63.9953 58.7026 61.8699 58.7026 61.8699Z" fill="white"/>
<path d="M62.9901 64.6056C63.0125 63.6808 62.5024 62.8888 61.6556 62.5161C60.882 62.1756 59.4216 61.9601 58.7027 61.8699L58.6984 61.8753C57.6199 63.2243 55.5704 63.2304 54.484 61.8876C53.7659 61.9839 52.3073 62.2117 51.5367 62.5587C50.6989 62.9362 50.233 63.7813 50.2583 64.6494V67.9995C50.2583 68.5519 50.7061 68.9998 51.2585 68.9998H61.9898C62.5427 68.9998 62.9907 68.551 62.99 67.9981C62.9878 66.1047 62.9831 64.8942 62.9901 64.6056Z" fill="white"/>
<path d="M62.9901 64.6056C63.0125 63.6808 62.5024 62.8888 61.6556 62.5161C60.8821 62.1756 59.4216 61.9601 58.7028 61.8699L58.6985 61.8753C58.3843 62.2683 57.9874 62.5465 57.5562 62.7114C58.1871 63.1295 58.5543 63.819 58.5352 64.6056C58.5283 64.8942 58.533 66.1047 58.5351 67.998C58.5357 68.5509 58.0877 68.9997 57.5349 68.9997H61.9898C62.5427 68.9997 62.9906 68.5509 62.99 67.998C62.9878 66.1047 62.9831 64.8942 62.9901 64.6056Z" fill="white"/>
<path d="M60.6092 55.9301V53.7379C60.6092 52.1708 59.3389 50.9004 57.7717 50.9004H55.4236C53.8565 50.9004 52.5861 52.1708 52.5861 53.7379V55.93H60.6092V55.9301Z" fill="white"/>
<path d="M57.7708 50.9004H56.1893L56.1921 55.9301H60.6083V53.7379C60.6083 52.1708 59.3379 50.9004 57.7708 50.9004Z" fill="white"/>
<path d="M59.7222 55.9297C59.3424 55.9297 59.0345 55.3916 59.0345 55.0118V54.3046C59.0345 53.9326 58.733 53.6311 58.3611 53.6311C58.266 53.6311 58.1721 53.6512 58.0853 53.6902C57.5472 53.9317 57.1736 54.0524 56.5967 54.0524C56.0198 54.0524 55.6462 53.9317 55.1081 53.6902C55.0214 53.6513 54.9274 53.6311 54.8324 53.6311C54.4604 53.6311 54.1589 53.9326 54.1589 54.3046V55.0118C54.1589 55.3916 53.851 55.9297 53.4712 55.9297H52.5851C52.5851 57.0963 53.2679 57.293 53.2679 57.293C53.2679 59.1314 54.7583 60.6217 56.5966 60.6217C58.435 60.6217 59.9254 59.1314 59.9254 57.293C59.9254 57.293 60.6082 57.0962 60.6082 55.9297H59.7222Z" fill="white"/>
<path d="M59.7223 55.9297C59.3425 55.9297 59.0346 55.3916 59.0346 55.0118V54.3046C59.0346 53.9326 58.7331 53.6311 58.3611 53.6311C58.2661 53.6311 58.1721 53.6512 58.0854 53.6902C57.5472 53.9317 57.1736 54.0524 56.5968 54.0524C56.4504 54.0524 56.3172 54.0445 56.191 54.029L56.1934 58.2659C56.1934 59.0806 55.9004 59.8264 55.4146 60.405C55.782 60.5447 56.1803 60.6219 56.5968 60.6219C58.4352 60.6219 59.9255 59.1315 59.9255 57.2931C59.9255 57.2931 60.6083 57.0964 60.6083 55.9298H59.7223V55.9297Z" fill="white"/>
<path d="M60.4183 34.9546H51.3245C49.9056 34.9546 48.7553 36.1049 48.7553 37.5238C48.7553 37.6306 48.6688 37.7171 48.562 37.7171H44.2477C44.0666 37.7171 43.992 37.9493 44.1391 38.0548L48.473 41.1641C48.6502 41.2912 48.7554 41.496 48.7554 41.7142V44.4472C48.7554 45.8661 49.9057 47.0164 51.3246 47.0164H60.4184C61.8373 47.0164 62.9876 45.8661 62.9876 44.4472V37.5238C62.9876 36.1049 61.8373 34.9546 60.4183 34.9546Z" fill="white"/>
<path d="M60.4184 34.9546H55.9631C57.382 34.9546 58.5324 36.1049 58.5324 37.5239V44.4472C58.5324 45.8662 57.3821 47.0165 55.9632 47.0165H60.4184C61.8374 47.0165 62.9876 45.8662 62.9876 44.4472V37.5238C62.9876 36.1049 61.8374 34.9546 60.4184 34.9546Z" fill="white"/>
<path d="M30.5785 55.9824H39.6722C41.0912 55.9824 42.2415 57.1327 42.2415 58.5516C42.2415 58.6584 42.328 58.745 42.4348 58.745H46.7491C46.9302 58.745 47.0048 58.9771 46.8577 59.0827L42.5238 62.1919C42.3465 62.3191 42.2414 62.5239 42.2414 62.742V65.475C42.2414 66.894 41.0911 68.0442 39.6722 68.0442H30.5785C29.1595 68.0442 28.0092 66.894 28.0092 65.475V58.5516C28.0092 57.1327 29.1595 55.9824 30.5785 55.9824Z" fill="white"/>
<path d="M46.749 58.745H42.4347C42.328 58.745 42.2414 58.6584 42.2414 58.5516C42.2414 57.1327 41.0911 55.9824 39.6722 55.9824H35.2084C36.6273 55.9824 37.7777 57.1327 37.7777 58.5517V65.4751C37.7777 66.894 36.6274 68.0444 35.2085 68.0444H39.6723C41.0912 68.0444 42.2415 66.8941 42.2415 65.4751V62.7421C42.2415 62.5239 42.3466 62.3191 42.5239 62.192L46.8578 59.0827C47.0048 58.9772 46.9301 58.745 46.749 58.745Z" fill="white"/>
<defs>
<linearGradient id="paint0_linear" x1="86.3464" y1="30.1963" x2="76.9808" y2="84.8865" gradientUnits="userSpaceOnUse">
<stop stop-color="#FFEC00" stop-opacity="0.75"/>
<stop offset="0.414068" stop-color="#F5F13C" stop-opacity="0.6"/>
<stop offset="1" stop-color="#F5F13C" stop-opacity="0.46"/>
</linearGradient>
<linearGradient id="paint1_linear" x1="25.6034" y1="-2.9572" x2="-5.27688" y2="43.6005" gradientUnits="userSpaceOnUse">
<stop stop-color="#4AFFD4"/>
<stop offset="1" stop-color="#30B3C7"/>
</linearGradient>
<linearGradient id="paint2_linear" x1="57.5792" y1="2.87397e-07" x2="17.8512" y2="95.4268" gradientUnits="userSpaceOnUse">
<stop stop-color="#99FF1E"/>
<stop offset="1" stop-color="#99FF1E" stop-opacity="0.43"/>
</linearGradient>
<linearGradient id="paint3_linear" x1="44.7025" y1="9.93018" x2="26.2364" y2="95.2271" gradientUnits="userSpaceOnUse">
<stop stop-color="#01B313"/>
<stop offset="1" stop-color="#78EE1B" stop-opacity="0.6"/>
</linearGradient>
</defs>
</svg>
