<svg width="96" height="100" viewBox="0 0 96 100" fill="none" xmlns="http://www.w3.org/2000/svg">
<path d="M94.4787 57.5747C90.3819 76.5727 67.9959 88.3017 65.294 85.5215C59.8749 79.9461 73.0099 74.7858 76.4779 63.4245C77.5691 52.2269 73.064 36.2689 82.6402 31.4603C88.1204 28.7086 97.5374 38.4048 94.4787 57.5747Z" fill="url(#paint0_linear)"/>
<path fill-rule="evenodd" clip-rule="evenodd" d="M24.563 10.7202C16.8537 14.3782 8.63565 21.2584 4.61578 31.5948C-2.33373 49.4642 1.45671 62.7205 5.87246 64.4677C12.3976 67.0497 13.6863 58.3342 15.1383 48.5144C15.856 43.6606 16.6136 38.5369 18.0632 34.3742C21.0874 28.9923 27.9946 25.8048 30.4573 23.9996L30.9881 8.35496L24.563 10.7202ZM30.4573 23.9996C36.2958 20.3811 41.8048 16.7722 41.9935 10.91C42.0992 7.62863 37.2953 6.72042 30.9881 8.35496L30.8011 13.3197L30.4573 23.9996Z" fill="url(#paint1_linear)" fill-opacity="0.65"/>
<path fill-rule="evenodd" clip-rule="evenodd" d="M37.9649 99.9023C56.1408 98.8257 83.2707 86.0693 89.1905 58.7694C95.1103 31.469 80.4911 1 60.9895 1C53.2539 1 42.3733 6.99887 32.06 15.8896L29.8552 18L25.7436 21.7727C12.7178 34.8506 1.99996 51.8042 1.99996 65.5942C1.99996 92.064 18.4207 101.06 37.9649 99.9023Z" fill="url(#paint2_linear)" fill-opacity="0.4"/>
<path fill-rule="evenodd" clip-rule="evenodd" d="M25.744 24.7294C13.3261 35.2188 3.88915 49.7836 3.88915 61.4525C3.88915 82.1556 20.2907 89.9253 38.5683 89.025C56.1707 88.1583 76.9938 77.4668 82.3187 56.1141C87.6436 34.7614 74.4935 10.9302 56.9516 10.9302C48.9168 10.9302 40.1303 14.4591 32.0605 19.9318L31.3553 20.4995L27.8553 22.9995L25.744 24.7294Z" fill="url(#paint3_linear)"/>
<path d="M51.7819 23.2097C50.7948 21.6682 50.14 19.7186 50.013 17.7895C49.9324 16.5513 50.228 15.2515 50.8681 14.0293C51.8723 12.1093 53.5973 11.0307 55.2636 9.98859C56.5072 9.21102 57.6824 8.47676 58.5131 7.42783L58.6622 7.24085C59.1533 6.62517 59.7079 5.9274 59.7959 5.34137C59.7959 0.433344 59.5988 -0.00264267 61 1.76121e-05C61.6401 0.0410628 62.2269 0.404581 62.2269 1.0043V25.8138C63.2506 25.2346 64.5114 24.8789 65.8918 24.8789C69.2586 24.8789 72 26.9243 72 29.4394C72 31.9546 69.2586 34 65.8918 34C62.525 34 59.7836 31.9546 59.7836 29.4394V16.1499C57.9487 16.8044 54.946 18.4713 54.1201 22.3637C54.2741 22.5758 54.4207 22.8038 54.5917 22.9862C55.0388 23.4583 54.9899 24.1788 54.4817 24.5938C53.9784 25.0134 53.2064 24.9632 52.7592 24.4912C52.4318 24.1446 52.1411 23.7387 51.8626 23.3146C51.8332 23.2827 51.8063 23.2485 51.7819 23.2097Z" fill="white"/>
<path d="M46.8419 49.0624L45.7278 46.8254L44.6136 49.0624L42.1233 49.4215L43.9257 51.1611L43.5008 53.6209L45.7278 52.4601L47.9548 53.6209L47.5298 51.1611L49.3322 49.4215L46.8419 49.0624Z" fill="white"/>
<path d="M59.7177 49.9504C59.7177 42.3045 53.4418 36 45.7277 36C38.0137 36 31.7378 42.3045 31.7378 49.9504C31.7378 52.6045 32.4965 55.1848 33.9336 57.4105L45.7314 74.9999L56.5544 58.7328C58.5936 56.2655 59.7177 53.1462 59.7177 49.9504ZM51.333 58.2266L45.7277 55.3079L40.1225 58.2266L41.1933 52.0419L36.6588 47.6607L42.9245 46.757L45.7277 41.13L48.531 46.7573L54.7971 47.6607L50.2622 52.0419L51.333 58.2266Z" fill="white"/>
<defs>
<linearGradient id="paint0_linear" x1="85.3463" y1="31.1963" x2="75.9807" y2="85.8865" gradientUnits="userSpaceOnUse">
<stop stop-color="#FFEC00" stop-opacity="0.75"/>
<stop offset="0.414068" stop-color="#F5F13C" stop-opacity="0.6"/>
<stop offset="1" stop-color="#F5F13C" stop-opacity="0.46"/>
</linearGradient>
<linearGradient id="paint1_linear" x1="23.6076" y1="-2.03324" x2="-6.0489" y2="45.3134" gradientUnits="userSpaceOnUse">
<stop stop-color="#4AFFD4"/>
<stop offset="1" stop-color="#30B3C7"/>
</linearGradient>
<linearGradient id="paint2_linear" x1="56.5791" y1="1" x2="16.8511" y2="96.4268" gradientUnits="userSpaceOnUse">
<stop stop-color="#99FF1E"/>
<stop offset="1" stop-color="#99FF1E" stop-opacity="0.43"/>
</linearGradient>
<linearGradient id="paint3_linear" x1="43.7024" y1="10.9302" x2="25.2363" y2="96.2271" gradientUnits="userSpaceOnUse">
<stop stop-color="#01B313"/>
<stop offset="1" stop-color="#78EE1B" stop-opacity="0.6"/>
</linearGradient>
</defs>
</svg>
