<svg width="97" height="99" viewBox="0 0 97 99" fill="none" xmlns="http://www.w3.org/2000/svg">
<path d="M95.4787 58.5747C91.3819 77.5727 68.9959 89.3017 66.294 86.5215C60.875 80.9461 74.0099 75.7858 77.4779 64.4245C78.5692 53.2269 74.064 37.2689 83.6402 32.4603C89.1205 29.7086 98.5375 39.4048 95.4787 58.5747Z" fill="url(#paint0_linear)"/>
<path fill-rule="evenodd" clip-rule="evenodd" d="M25.9275 9.77167C18.1666 13.319 9.85092 20.0808 5.6835 30.3586C-1.52111 48.1267 2.07919 61.4359 6.46946 63.2461C12.9569 65.9212 14.3703 57.2251 15.9627 47.4271C16.7499 42.5841 17.5808 37.4717 19.0897 33.3302C22.1907 27.9921 29.1428 24.9039 31.6311 23.1341L32.3857 7.49866L25.9275 9.77167ZM31.6311 23.1341C37.5208 19.5996 43.0809 16.0698 43.3535 10.211C43.5061 6.93146 38.7157 5.95457 32.3857 7.49866L32.1277 12.4602L31.6311 23.1341Z" fill="url(#paint1_linear)" fill-opacity="0.65"/>
<path fill-rule="evenodd" clip-rule="evenodd" d="M38.965 98.9023C57.1408 97.8257 84.2707 85.0693 90.1906 57.7694C96.1104 30.469 81.4911 0 61.9895 0C54.2539 0 43.3734 5.99887 33.0601 14.8896L30.8553 17L26.7436 20.7727C13.7179 33.8506 3 50.8042 3 64.5942C3 91.064 19.4207 100.06 38.965 98.9023Z" fill="url(#paint2_linear)" fill-opacity="0.4"/>
<path fill-rule="evenodd" clip-rule="evenodd" d="M26.744 23.7294C14.3261 34.2188 4.88916 48.7836 4.88916 60.4525C4.88916 81.1556 21.2907 88.9253 39.5683 88.025C57.1707 87.1583 77.9938 76.4668 83.3187 55.1141C88.6437 33.7614 75.4935 9.93018 57.9516 9.93018C49.9168 9.93018 41.1303 13.4591 33.0605 18.9318L32.3553 19.4995L28.8553 21.9995L26.744 23.7294Z" fill="url(#paint3_linear)"/>
<path d="M46 42.1401C44.545 42.1401 43.3633 43.2723 43.3633 44.6634C43.3633 46.0546 44.545 47.1868 46 47.1868C47.455 47.1868 48.6367 46.0546 48.6367 44.6634C48.6367 43.2723 47.455 42.1401 46 42.1401Z" fill="white"/>
<path d="M58.231 55.8053C57.3492 55.8053 56.5329 56.0531 55.8238 56.4569L52.7044 53.4506C54.6033 51.2591 55.767 48.4573 55.767 45.3846C55.767 42.3116 54.6216 39.4934 52.7236 37.3L55.8238 34.3124C56.5329 34.7161 57.3492 34.9639 58.231 34.9639C60.8598 34.9639 63 32.902 63 30.3666C63 27.8312 60.8598 25.7692 58.231 25.7692C55.6021 25.7692 53.462 27.8312 53.462 30.3666C53.462 31.2166 53.7187 32.0035 54.1379 32.6871L51.0374 35.6751C48.7622 33.846 45.839 32.7419 42.6522 32.7419C39.4654 32.7419 36.5422 33.846 34.267 35.6751L31.1665 32.6871L29.087 30.5641L12.8087 14L11 16.6154L26.8261 31.8718L29.5374 34.4872L32.2522 37.3392C30.3542 39.5326 29.5374 42.3116 29.5374 45.3846C29.5374 48.4573 30.7011 51.2591 32.6 53.4506L29.4809 56.4569C28.7714 56.0531 27.9551 55.8053 27.0734 55.8053C24.4445 55.8053 22.3043 57.8672 22.3043 60.4026C22.3043 62.9381 24.4445 65 27.0734 65C29.7022 65 31.8424 62.9381 31.8424 60.4026C31.8424 59.5526 31.5856 58.7657 31.1665 58.0821L34.2735 55.0882C34.6644 55.4018 35.0714 55.6975 35.4986 55.9669V53.43C35.4986 49.6273 38.7075 46.534 42.6522 46.534C40.0233 46.534 37.8832 44.472 37.8832 41.9366C37.8832 39.4012 40.0233 37.3392 42.6522 37.3392C45.281 37.3392 47.4212 39.4012 47.4212 41.9366C47.4212 44.472 45.281 46.534 42.6522 46.534C46.5969 46.534 49.8057 49.6273 49.8057 53.43V55.9669C50.2329 55.6975 50.64 55.4018 51.0309 55.0882L54.1379 58.0821C53.7187 58.7657 53.462 59.5526 53.462 60.4026C53.462 62.9381 55.6021 65 58.231 65C60.8598 65 63 62.9381 63 60.4026C63 57.8672 60.8598 55.8053 58.231 55.8053Z" fill="white"/>
<path d="M37.8832 41.9366C37.8832 44.472 40.0233 46.534 42.6522 46.534C45.281 46.534 47.4212 44.472 47.4212 41.9366C47.4212 39.4012 45.281 37.3392 42.6522 37.3392C40.0233 37.3392 37.8832 39.4012 37.8832 41.9366Z" fill="white"/>
<ellipse cx="43" cy="45.5" rx="13" ry="12.5" fill="white"/>
<path d="M45.6708 44.6558C46.2893 45.0487 46.2893 45.9513 45.6708 46.3441L41.0361 49.2876C40.3703 49.7104 39.5 49.2321 39.5 48.4434L39.5 42.5566C39.5 41.7679 40.3703 41.2896 41.0361 41.7124L45.6708 44.6558Z" fill="#45D02D"/>
<circle cx="16.5" cy="19.5" r="5.5" fill="white"/>
<defs>
<linearGradient id="paint0_linear" x1="86.3464" y1="32.1963" x2="76.9807" y2="86.8865" gradientUnits="userSpaceOnUse">
<stop stop-color="#FFEC00" stop-opacity="0.75"/>
<stop offset="0.414068" stop-color="#F5F13C" stop-opacity="0.6"/>
<stop offset="1" stop-color="#F5F13C" stop-opacity="0.46"/>
</linearGradient>
<linearGradient id="paint1_linear" x1="25.1548" y1="-2.99413" x2="-5.17647" y2="43.9231" gradientUnits="userSpaceOnUse">
<stop stop-color="#4AFFD4"/>
<stop offset="1" stop-color="#30B3C7"/>
</linearGradient>
<linearGradient id="paint2_linear" x1="57.5792" y1="2.87397e-07" x2="17.8512" y2="95.4268" gradientUnits="userSpaceOnUse">
<stop stop-color="#99FF1E"/>
<stop offset="1" stop-color="#99FF1E" stop-opacity="0.43"/>
</linearGradient>
<linearGradient id="paint3_linear" x1="44.7024" y1="9.93018" x2="26.2364" y2="95.2271" gradientUnits="userSpaceOnUse">
<stop stop-color="#01B313"/>
<stop offset="1" stop-color="#78EE1B" stop-opacity="0.6"/>
</linearGradient>
</defs>
</svg>
