<svg width="98" height="99" viewBox="0 0 98 99" fill="none" xmlns="http://www.w3.org/2000/svg">
<path d="M96.4788 57.5747C92.382 76.5727 69.9961 88.3017 67.2941 85.5215C61.8751 79.9461 75.0101 74.7858 78.478 63.4245C79.5693 52.2269 75.0641 36.2689 84.6403 31.4603C90.1206 28.7086 99.5376 38.4048 96.4788 57.5747Z" fill="url(#paint0_linear)"/>
<path fill-rule="evenodd" clip-rule="evenodd" d="M25.8728 9.76365C18.1196 13.3277 9.81844 20.1073 5.67315 30.3941C-1.4932 48.1777 2.13573 61.4791 6.5299 63.2798C13.0231 65.941 14.4178 57.2418 15.9891 47.4404C16.7658 42.5957 17.5857 37.4816 19.0858 33.3368C22.1752 27.9921 29.1206 24.8889 31.6051 23.1138L32.3261 7.47674L25.8728 9.76365ZM31.6051 23.1138C37.4872 19.5666 43.0397 16.0249 43.2997 10.1654C43.4452 6.88561 38.6528 5.91904 32.3261 7.47674L32.0788 12.4388L31.6051 23.1138Z" fill="url(#paint1_linear)" fill-opacity="0.65"/>
<path fill-rule="evenodd" clip-rule="evenodd" d="M38.965 98.9023C57.1409 97.8257 84.2708 85.0693 90.1906 57.7694C96.1104 30.469 81.4912 0 61.9896 0C54.254 0 43.3734 5.99887 33.0601 14.8896L30.8553 17L26.7437 20.7727C13.7179 33.8506 3.00006 50.8042 3.00006 64.5942C3.00006 91.064 19.4208 100.06 38.965 98.9023Z" fill="url(#paint2_linear)" fill-opacity="0.4"/>
<path fill-rule="evenodd" clip-rule="evenodd" d="M26.7441 23.7294C14.3261 34.2188 4.88922 48.7836 4.88922 60.4525C4.88922 81.1556 21.2908 88.9253 39.5684 88.025C57.1708 87.1583 77.9939 76.4668 83.3188 55.1141C88.6437 33.7614 75.4936 9.93018 57.9516 9.93018C49.9169 9.93018 41.1304 13.4591 33.0606 18.9318L32.3553 19.4995L28.8553 21.9995L26.7441 23.7294Z" fill="url(#paint3_linear)"/>
<g clip-path="url(#clip0)">
<path d="M56.8177 38.5911H28.1819C26.4239 38.5911 25.0001 40.015 25.0001 41.7729V60.8634C25.0001 62.6213 26.4239 64.0452 28.1819 64.0452H39.318L36.1362 68.8179V70.4087H48.8633V68.8179L45.6815 64.0452H56.8177C58.5756 64.0452 59.9994 62.6214 59.9994 60.8634V41.7729C59.9994 40.015 58.5756 38.5911 56.8177 38.5911ZM56.8177 57.6816H28.1819V41.7729H56.8177V57.6816Z" fill="white"/>
<path d="M43.8148 55.6162H41.8435C41.3003 55.6162 40.8579 55.1202 40.8579 54.511V50.7534H39.0837C38.8472 50.7534 38.6335 50.5951 38.5405 50.352C38.4474 50.1089 38.4924 49.8259 38.6548 49.6332L42.4002 45.2125C42.6234 44.949 43.035 44.949 43.2581 45.2125L47.0036 49.6332C47.166 49.825 47.2117 50.108 47.1187 50.352C47.0256 50.596 46.8112 50.7534 46.5746 50.7534H44.8005V54.511C44.8005 55.1202 44.3581 55.6162 43.8148 55.6162Z" fill="white"/>
</g>
<g clip-path="url(#clip1)">
<path d="M53.3946 35.1621H59.3888C59.7606 31.0621 63.2131 27.8379 67.4083 27.8379C68.64 27.8379 69.8037 28.124 70.8489 28.6203C70.2821 26.6674 68.5956 25.1829 66.4784 24.9483C65.8332 22.3819 63.498 20.5137 60.8165 20.5137C58.7357 20.5137 56.7586 21.648 55.7172 23.4447C53.914 23.3612 52.2452 24.7665 51.9791 26.6298C50.2238 27.2277 49.0001 28.8871 49.0001 30.7676C49.0001 33.1909 50.9713 35.1621 53.3946 35.1621Z" fill="white"/>
<path d="M67.4083 29.3027C63.7734 29.3027 60.8165 32.2597 60.8165 35.8945C60.8165 39.5294 63.7734 42.4863 67.4083 42.4863C71.0431 42.4863 74.0001 39.5294 74.0001 35.8945C74.0001 32.2597 71.0431 29.3027 67.4083 29.3027ZM66.6758 39.1275L63.9607 36.4124L64.9964 35.3767L66.6758 37.0561L69.8201 33.9118L70.8558 34.9475L66.6758 39.1275Z" fill="white"/>
</g>
<defs>
<linearGradient id="paint0_linear" x1="87.3465" y1="31.1963" x2="77.9808" y2="85.8865" gradientUnits="userSpaceOnUse">
<stop stop-color="#FFEC00" stop-opacity="0.75"/>
<stop offset="0.414068" stop-color="#F5F13C" stop-opacity="0.6"/>
<stop offset="1" stop-color="#F5F13C" stop-opacity="0.46"/>
</linearGradient>
<linearGradient id="paint1_linear" x1="25.0726" y1="-3.00046" x2="-5.1576" y2="43.982" gradientUnits="userSpaceOnUse">
<stop stop-color="#4AFFD4"/>
<stop offset="1" stop-color="#30B3C7"/>
</linearGradient>
<linearGradient id="paint2_linear" x1="57.5792" y1="2.87397e-07" x2="17.8512" y2="95.4268" gradientUnits="userSpaceOnUse">
<stop stop-color="#99FF1E"/>
<stop offset="1" stop-color="#99FF1E" stop-opacity="0.43"/>
</linearGradient>
<linearGradient id="paint3_linear" x1="44.7025" y1="9.93018" x2="26.2364" y2="95.2271" gradientUnits="userSpaceOnUse">
<stop stop-color="#01B313"/>
<stop offset="1" stop-color="#78EE1B" stop-opacity="0.6"/>
</linearGradient>
<clipPath id="clip0">
<rect width="34.9994" height="34.9994" fill="white" transform="translate(25.0001 37)"/>
</clipPath>
<clipPath id="clip1">
<rect width="25" height="25" fill="white" transform="translate(49.0001 19)"/>
</clipPath>
</defs>
</svg>
