<svg width="97" height="99" viewBox="0 0 97 99" fill="none" xmlns="http://www.w3.org/2000/svg">
<path d="M95.4787 58.5747C91.3819 77.5727 68.9959 89.3017 66.294 86.5215C60.875 80.9461 74.0099 75.7858 77.4779 64.4245C78.5692 53.2269 74.064 37.2689 83.6402 32.4603C89.1205 29.7086 98.5375 39.4048 95.4787 58.5747Z" fill="url(#paint0_linear)"/>
<path fill-rule="evenodd" clip-rule="evenodd" d="M25.6835 9.78827C17.9072 13.3016 9.56195 20.0269 5.34959 30.2864C-1.93272 48.0228 1.60929 61.3476 5.99161 63.177C12.4673 65.8805 13.9187 57.1906 15.554 47.3997C16.3623 42.5602 17.2156 37.4515 18.7427 33.3166C21.8669 27.9922 28.8325 24.9344 31.3285 23.1755L32.1516 7.54355L25.6835 9.78827ZM31.3285 23.1755C37.2336 19.6668 42.8091 16.1614 43.1074 10.3038C43.2744 7.02502 38.4883 6.02718 32.1516 7.54355L31.8719 12.5039L31.3285 23.1755Z" fill="url(#paint1_linear)" fill-opacity="0.65"/>
<path fill-rule="evenodd" clip-rule="evenodd" d="M38.6097 98.9023C56.7855 97.8257 83.9155 85.0693 89.8353 57.7694C95.7551 30.469 81.1358 0 61.6342 0C53.8986 0 43.0181 5.99887 32.7048 14.8896L30.5 17L26.3883 20.7727C13.3626 33.8506 2.64471 50.8042 2.64471 64.5942C2.64471 91.064 19.0654 100.06 38.6097 98.9023Z" fill="url(#paint2_linear)" fill-opacity="0.4"/>
<path fill-rule="evenodd" clip-rule="evenodd" d="M26.3888 23.7294C13.9708 34.2188 4.53391 48.7836 4.53391 60.4525C4.53391 81.1556 20.9355 88.9253 39.213 88.025C56.8155 87.1583 77.6385 76.4668 82.9635 55.1141C88.2884 33.7614 75.1383 9.93018 57.5963 9.93018C49.5616 9.93018 40.7751 13.4591 32.7052 18.9318L32 19.4995L28.5 21.9995L26.3888 23.7294Z" fill="url(#paint3_linear)"/>
<path d="M2.43571 73H9.80567V60.1924H2.43571C1.64281 60.1924 1 60.7657 1 61.4731V71.7192C1 72.4265 1.64281 73 2.43571 73Z" fill="white"/>
<path d="M45.7094 63.0903L36.3212 67.8759H25.5984C24.8055 67.8759 24.1627 67.3024 24.1627 66.5951C24.1627 65.8875 24.8055 65.3142 25.5984 65.3142H32.7769C34.3627 65.3142 35.6483 64.1672 35.6483 62.7525C35.6483 61.3377 34.3627 60.1909 32.7769 60.1909H24.1627C20.5475 58.5783 16.2923 58.5783 12.6771 60.1909V72.9992H37.084C37.5831 72.9992 38.0752 72.8829 38.5085 72.6615L48.5584 67.5382C49.9352 66.8364 50.4133 65.2717 49.6267 64.0434C48.8416 62.8163 47.0862 62.3898 45.7094 63.0903Z" fill="white"/>
<path d="M54.3629 42.1316C52.3837 43.568 49.9677 44.5653 47.3381 45.0573C47.0726 46.8775 45.4531 48.2824 43.5 48.2824C41.5469 48.2824 39.9274 46.8775 39.6619 45.0573C37.0323 44.5653 34.6163 43.568 32.6371 42.1316C29.6468 39.9612 28 37.0519 28 33.9396V49.9064C28 52.2932 30.0066 54.235 32.4729 54.235H54.5271C56.9934 54.235 59 52.2932 59 49.9064V33.9396C59 37.0519 57.3532 39.9612 54.3629 42.1316Z" fill="white"/>
<path d="M39.6229 43.2541V41.6576C39.6229 41.1722 40.0295 40.7786 40.5311 40.7786H46.4689C46.9705 40.7786 47.3771 41.1722 47.3771 41.6576V43.2541C53.0399 42.0645 57.1836 38.3395 57.1836 33.9398V33.0609H49.8801V31.3144C49.8801 29.3575 48.235 27.7655 46.213 27.7655H40.7871C38.7651 27.7655 37.1199 29.3575 37.1199 31.3144V33.0609H29.8164V33.9398C29.8164 38.3395 33.9601 42.0645 39.6229 43.2541ZM38.9363 31.3144C38.9363 30.3268 39.7666 29.5233 40.787 29.5233H46.2129C47.2334 29.5233 48.0637 30.3268 48.0637 31.3144V33.0609H38.9362V31.3144H38.9363Z" fill="white"/>
<path d="M45.5607 42.5361H41.4393V44.5307C41.4393 45.6305 42.3638 46.5252 43.5 46.5252C44.6362 46.5252 45.5607 45.6305 45.5607 44.5307V42.5361Z" fill="white"/>
<defs>
<linearGradient id="paint0_linear" x1="86.3464" y1="32.1963" x2="76.9807" y2="86.8865" gradientUnits="userSpaceOnUse">
<stop stop-color="#FFEC00" stop-opacity="0.75"/>
<stop offset="0.414068" stop-color="#F5F13C" stop-opacity="0.6"/>
<stop offset="1" stop-color="#F5F13C" stop-opacity="0.46"/>
</linearGradient>
<linearGradient id="paint1_linear" x1="24.9666" y1="-2.98079" x2="-5.56965" y2="43.8033" gradientUnits="userSpaceOnUse">
<stop stop-color="#4AFFD4"/>
<stop offset="1" stop-color="#30B3C7"/>
</linearGradient>
<linearGradient id="paint2_linear" x1="57.2239" y1="2.87397e-07" x2="17.4959" y2="95.4268" gradientUnits="userSpaceOnUse">
<stop stop-color="#99FF1E"/>
<stop offset="1" stop-color="#99FF1E" stop-opacity="0.43"/>
</linearGradient>
<linearGradient id="paint3_linear" x1="44.3472" y1="9.93018" x2="25.8811" y2="95.2271" gradientUnits="userSpaceOnUse">
<stop stop-color="#01B313"/>
<stop offset="1" stop-color="#78EE1B" stop-opacity="0.6"/>
</linearGradient>
</defs>
</svg>
