<svg width="91" height="95" viewBox="0 0 91 95" fill="none" xmlns="http://www.w3.org/2000/svg">
<path d="M64.68 23.5329H52.6465C51.4501 23.5346 50.3031 24.155 49.4571 25.2579C48.6111 26.3609 48.1353 27.8563 48.134 29.4161V62.7543H45.1256V5.88322C45.1243 4.32342 44.6484 2.82799 43.8024 1.72505C42.9565 0.6221 41.8094 0.00171296 40.613 0H28.5795C27.3831 0.00171296 26.2361 0.6221 25.3901 1.72505C24.5441 2.82799 24.0683 4.32342 24.067 5.88322V62.7543H21.0586V37.2604C21.0573 35.7006 20.5814 34.2052 19.7355 33.1022C18.8895 31.9993 17.7425 31.3789 16.5461 31.3772H4.51256C3.31616 31.3789 2.16914 31.9993 1.32315 33.1022C0.477169 34.2052 0.00131769 35.7006 3.8147e-06 37.2604V64.7154C3.8147e-06 65.2355 0.158479 65.7343 0.440569 66.1021C0.722658 66.4699 1.10526 66.6765 1.50419 66.6765H67.6884C68.0873 66.6765 68.4699 66.4699 68.752 66.1021C69.0341 65.7343 69.1926 65.2355 69.1926 64.7154V29.4161C69.1913 27.8563 68.7154 26.3609 67.8694 25.2579C67.0234 24.155 65.8764 23.5346 64.68 23.5329Z" fill="url(#paint0_linear)"/>
<path fill-rule="evenodd" clip-rule="evenodd" d="M71.043 78.7234C81.665 78.7234 90.2759 70.1126 90.2759 59.4905C90.2759 48.8684 81.665 40.2576 71.043 40.2576C60.4209 40.2576 51.81 48.8684 51.81 59.4905C51.81 63.3955 52.9738 67.0286 54.9734 70.0621L35.8831 87.6769C34.2899 89.147 34.1901 91.6302 35.6601 93.2234C37.1302 94.8165 39.6134 94.9164 41.2066 93.4463L60.5413 75.6059C63.5606 77.5775 67.168 78.7234 71.043 78.7234Z" fill="url(#paint1_linear)"/>
<path d="M31.5199 21.907L31.5199 60.3913" stroke="white" stroke-width="3" stroke-linecap="round"/>
<defs>
<linearGradient id="paint0_linear" x1="35.2006" y1="93.6336" x2="35.2006" y2="-1.18262e-07" gradientUnits="userSpaceOnUse">
<stop stop-color="#0DB817"/>
<stop offset="1" stop-color="#93F055"/>
</linearGradient>
<linearGradient id="paint1_linear" x1="71.0429" y1="40.2576" x2="35.2257" y2="101.902" gradientUnits="userSpaceOnUse">
<stop stop-color="#4CB0FD" stop-opacity="0.53"/>
<stop offset="1" stop-color="#32D1F4"/>
</linearGradient>
</defs>
</svg>
