<svg width="976" height="595" viewBox="0 0 976 595" fill="none" xmlns="http://www.w3.org/2000/svg">
<g opacity="0.3">
<path d="M285.016 453.798C224.964 429.296 248.632 373.364 256.121 368.413C264.244 361.371 284.057 360.193 296.759 403.041C309.24 428.542 338.611 419.745 349.474 420.562C372.678 422.307 388.965 430.762 385.529 440.935C382.093 451.108 345.069 478.3 285.016 453.798Z" fill="url(#paint0_linear)"/>
</g>
<path opacity="0.35" d="M595.702 334.664C535.935 445.508 699.215 636.572 770.955 493.713C826.363 371.204 884.54 397.974 919.644 331.494C966.43 243.288 860.414 153.848 860.501 153.723C735.996 55.6136 645.322 175.913 595.702 334.664Z" fill="url(#paint1_linear)"/>
<path d="M715.685 78.6877C760.204 86.8427 831.54 124.642 862.763 180.291C894.495 236.881 916.338 334.277 850.669 426.524C809.192 484.644 726.345 543.492 616.22 535.288C523.414 528.385 493.621 428.428 533.452 363.899C588.33 274.99 561.969 250.308 574.382 164.032C586.794 77.7565 665.95 69.4798 715.685 78.6877Z" fill="url(#paint2_linear)"/>
<g filter="url(#filter0_d)">
<rect x="146" y="57" width="235.501" height="370.67" rx="10" fill="white"/>
</g>
<path d="M363.641 193.851V76.2021L164.432 76.2021L164.432 193.851L363.641 193.851Z" fill="#D1E8E3"/>
<path d="M334.66 193.836H303.538L363.623 133.75V164.873L334.66 193.836ZM256.664 193.836H267.243L363.639 97.4399V86.8606L256.664 193.836ZM164.43 120.159V130.739L218.982 76.1868H208.403L164.43 120.159ZM273.597 76.2025H227.496L164.446 139.252V185.353L273.597 76.2025Z" fill="#E2F1EE"/>
<path d="M363.639 193.836H164.43V208.751H363.639V193.836Z" fill="#1E4843"/>
<path d="M358.215 198.897H303.695C303.269 198.897 302.922 198.55 302.922 198.124C302.922 197.699 303.269 197.352 303.695 197.352H358.215C358.641 197.352 358.988 197.699 358.988 198.124C358.972 198.55 358.641 198.897 358.215 198.897Z" fill="white"/>
<path d="M303.679 198.897H170.137C169.712 198.897 169.365 198.55 169.365 198.124C169.365 197.699 169.712 197.352 170.137 197.352H303.679C304.105 197.352 304.452 197.699 304.452 198.124C304.452 198.55 304.105 198.897 303.679 198.897Z" fill="#03D218"/>
<path d="M305.318 198.124C305.318 199.023 304.593 199.748 303.695 199.748C302.796 199.748 302.071 199.023 302.071 198.124C302.071 197.225 302.796 196.5 303.695 196.5C304.577 196.5 305.318 197.225 305.318 198.124Z" fill="#FFFDFF"/>
<path d="M179.424 202.429H180.464V205.992H179.424V202.429ZM177.422 205.992H178.462V202.429H177.422V205.992ZM187.323 202.429V203.864L185.131 202.429V205.992L187.323 204.558V205.992H188.363V202.429H187.323ZM169.523 202.429V205.992H170.563V204.558L172.755 205.992V202.429L170.563 203.864V202.429H169.523Z" fill="white"/>
<path d="M351.073 204.21C351.073 205.187 350.269 205.991 349.291 205.991C348.314 205.991 347.51 205.187 347.51 204.21C347.51 203.232 348.314 202.428 349.291 202.428C350.269 202.428 351.073 203.232 351.073 204.21Z" fill="white"/>
<path d="M354.526 203.753V203.059H355.819V202.428H353.895V203.753H354.526Z" fill="#FFFDFF"/>
<path d="M356.86 203.059H358.152V203.753H358.783V202.428H356.86V203.059Z" fill="#FFFDFF"/>
<path d="M355.819 205.471H354.526V204.793H353.895V206.102H355.819V205.471Z" fill="#FFFDFF"/>
<path d="M358.152 204.793V205.471H356.86V206.102H358.783V204.793H358.152Z" fill="white"/>
<path d="M252.51 329.429H169.115C166.354 329.429 164.115 331.667 164.115 334.429V372.73C164.115 375.491 166.354 377.73 169.115 377.73H252.51C255.272 377.73 257.51 375.491 257.51 372.73V334.429C257.51 331.667 255.272 329.429 252.51 329.429Z" fill="#E3F2EF"/>
<path d="M253.536 386.815H168.755C166.577 386.815 164.812 388.58 164.812 390.758C164.812 392.936 166.577 394.701 168.755 394.701H253.536C255.714 394.701 257.479 392.936 257.479 390.758C257.479 388.58 255.714 386.815 253.536 386.815Z" fill="#E3F2EF"/>
<path d="M241.691 400.221H168.755C166.577 400.221 164.812 401.987 164.812 404.164C164.812 406.342 166.577 408.107 168.755 408.107H241.691C243.869 408.107 245.634 406.342 245.634 404.164C245.634 401.987 243.869 400.221 241.691 400.221Z" fill="#E3F2EF"/>
<path d="M252.51 234.671H169.115C166.354 234.671 164.115 236.909 164.115 239.671V277.972C164.115 280.733 166.354 282.972 169.115 282.972H252.51C255.272 282.972 257.51 280.733 257.51 277.972V239.671C257.51 236.909 255.272 234.671 252.51 234.671Z" fill="#E3F2EF"/>
<path d="M253.536 292.238H168.755C166.577 292.238 164.812 294.003 164.812 296.181C164.812 298.359 166.577 300.124 168.755 300.124H253.536C255.714 300.124 257.479 298.359 257.479 296.181C257.479 294.003 255.714 292.238 253.536 292.238Z" fill="#E3F2EF"/>
<path d="M241.691 305.644H168.755C166.577 305.644 164.812 307.409 164.812 309.587C164.812 311.765 166.577 313.53 168.755 313.53H241.691C243.869 313.53 245.634 311.765 245.634 309.587C245.634 307.409 243.869 305.644 241.691 305.644Z" fill="#E3F2EF"/>
<path d="M358.416 329.429H275.021C272.259 329.429 270.021 331.667 270.021 334.429V372.73C270.021 375.491 272.259 377.73 275.021 377.73H358.416C361.177 377.73 363.416 375.491 363.416 372.73V334.429C363.416 331.667 361.177 329.429 358.416 329.429Z" fill="#E3F2EF"/>
<path d="M359.442 386.87H273.963C271.786 386.87 270.02 388.635 270.02 390.813C270.02 392.99 271.786 394.756 273.963 394.756H359.442C361.619 394.756 363.385 392.99 363.385 390.813C363.385 388.635 361.619 386.87 359.442 386.87Z" fill="#E3F2EF"/>
<path d="M346.9 400.276H273.963C271.786 400.276 270.02 402.041 270.02 404.219C270.02 406.396 271.786 408.162 273.963 408.162H346.9C349.078 408.162 350.843 406.396 350.843 404.219C350.843 402.041 349.078 400.276 346.9 400.276Z" fill="#E3F2EF"/>
<path d="M358.416 234.671H275.021C272.259 234.671 270.021 236.909 270.021 239.671V277.972C270.021 280.733 272.259 282.972 275.021 282.972H358.416C361.177 282.972 363.416 280.733 363.416 277.972V239.671C363.416 236.909 361.177 234.671 358.416 234.671Z" fill="#E3F2EF"/>
<path d="M359.442 292.238H273.963C271.786 292.238 270.02 294.003 270.02 296.181C270.02 298.359 271.786 300.124 273.963 300.124H359.442C361.619 300.124 363.385 298.359 363.385 296.181C363.385 294.003 361.619 292.238 359.442 292.238Z" fill="#E3F2EF"/>
<path d="M346.9 305.644H273.963C271.786 305.644 270.02 307.409 270.02 309.587C270.02 311.765 271.786 313.53 273.963 313.53H346.9C349.078 313.53 350.843 311.765 350.843 309.587C350.843 307.409 349.078 305.644 346.9 305.644Z" fill="#E3F2EF"/>
<path d="M217.765 259.057L207.314 265.091L207.314 253.023L217.765 259.057Z" fill="white"/>
<path d="M323.67 259.057L313.219 265.091L313.219 253.023L323.67 259.057Z" fill="white"/>
<path d="M217.765 353.815L207.314 359.849L207.314 347.781L217.765 353.815Z" fill="white"/>
<path d="M323.67 353.815L313.219 359.849L313.219 347.781L323.67 353.815Z" fill="white"/>
<g filter="url(#filter1_d)">
<rect x="339" y="114" width="239" height="376.177" rx="10" fill="white"/>
<path d="M559.875 252.884V133.488L357.707 133.488V252.884L559.875 252.884Z" fill="#DAEAE7"/>
<path d="M530.464 252.869H498.879L559.857 191.89V223.476L530.464 252.869ZM451.309 252.869H462.045L559.873 155.041V144.304L451.309 252.869ZM357.705 178.098V188.834L413.067 133.472H402.331L357.705 178.098ZM468.493 133.488H421.707L357.721 197.474V244.26L468.493 133.488Z" fill="white" fill-opacity="0.4"/>
<path d="M559.873 252.869H357.705V268.005H559.873V252.869Z" fill="#1E4843"/>
<path d="M554.369 258.005H499.038C498.606 258.005 498.254 257.653 498.254 257.221C498.254 256.789 498.606 256.437 499.038 256.437H554.369C554.801 256.437 555.153 256.789 555.153 257.221C555.137 257.653 554.801 258.005 554.369 258.005Z" fill="white"/>
<path d="M499.022 258.005H363.497C363.065 258.005 362.713 257.653 362.713 257.221C362.713 256.789 363.065 256.437 363.497 256.437H499.022C499.454 256.437 499.806 256.789 499.806 257.221C499.806 257.653 499.454 258.005 499.022 258.005Z" fill="#03D218"/>
<path d="M500.686 257.221C500.686 258.133 499.95 258.869 499.038 258.869C498.126 258.869 497.39 258.133 497.39 257.221C497.39 256.309 498.126 255.573 499.038 255.573C499.934 255.573 500.686 256.309 500.686 257.221Z" fill="#FFFDFF"/>
<path d="M372.921 261.59H373.977V265.206H372.921V261.59ZM370.889 265.206H371.945V261.59H370.889V265.206ZM380.937 261.59V263.046L378.713 261.59V265.206L380.937 263.75V265.206H381.993V261.59H380.937ZM362.873 261.59V265.206H363.929V263.75L366.153 265.206V261.59L363.929 263.046V261.59H362.873Z" fill="white"/>
<path d="M547.12 263.397C547.12 264.389 546.304 265.205 545.312 265.205C544.32 265.205 543.504 264.389 543.504 263.397C543.504 262.405 544.32 261.589 545.312 261.589C546.304 261.589 547.12 262.405 547.12 263.397Z" fill="white"/>
<path d="M550.625 262.933V262.229H551.937V261.589H549.985V262.933H550.625Z" fill="#FFFDFF"/>
<path d="M552.992 262.229H554.305V262.933H554.945V261.589H552.992V262.229Z" fill="#FFFDFF"/>
<path d="M551.937 264.677H550.625V263.989H549.985V265.317H551.937V264.677Z" fill="#FFFDFF"/>
<path d="M554.305 263.989V264.677H552.992V265.317H554.945V263.989H554.305Z" fill="white"/>
<path d="M447.168 390.476H362.385C359.624 390.476 357.385 392.715 357.385 395.476V434.495C357.385 437.256 359.624 439.495 362.385 439.495H447.168C449.929 439.495 452.168 437.256 452.168 434.495V395.476C452.168 392.715 449.929 390.476 447.168 390.476Z" fill="#E3F2EF"/>
<path d="M448.134 448.715H362.093C359.883 448.715 358.092 450.506 358.092 452.716C358.092 454.926 359.883 456.718 362.093 456.718H448.134C450.344 456.718 452.136 454.926 452.136 452.716C452.136 450.506 450.344 448.715 448.134 448.715Z" fill="#E3F2EF"/>
<path d="M436.114 462.32H362.093C359.883 462.32 358.092 464.112 358.092 466.322C358.092 468.532 359.883 470.323 362.093 470.323H436.114C438.324 470.323 440.115 468.532 440.115 466.322C440.115 464.112 438.324 462.32 436.114 462.32Z" fill="#E3F2EF"/>
<path d="M447.168 294.311H362.385C359.624 294.311 357.385 296.549 357.385 299.311V338.329C357.385 341.091 359.624 343.329 362.385 343.329H447.168C449.929 343.329 452.168 341.091 452.168 338.329V299.311C452.168 296.549 449.929 294.311 447.168 294.311Z" fill="#E3F2EF"/>
<path d="M448.134 352.733H362.093C359.883 352.733 358.092 354.524 358.092 356.734C358.092 358.944 359.883 360.736 362.093 360.736H448.134C450.344 360.736 452.136 358.944 452.136 356.734C452.136 354.524 450.344 352.733 448.134 352.733Z" fill="#E3F2EF"/>
<path d="M436.114 366.338H362.093C359.883 366.338 358.092 368.13 358.092 370.34C358.092 372.55 359.883 374.341 362.093 374.341H436.114C438.324 374.341 440.115 372.55 440.115 370.34C440.115 368.13 438.324 366.338 436.114 366.338Z" fill="#E3F2EF"/>
<path d="M554.646 390.476H469.864C467.102 390.476 464.864 392.715 464.864 395.476V434.495C464.864 437.256 467.102 439.495 469.864 439.495H554.646C557.408 439.495 559.646 437.256 559.646 434.495V395.476C559.646 392.715 557.408 390.476 554.646 390.476Z" fill="#E3F2EF"/>
<path d="M555.613 448.77H468.865C466.655 448.77 464.864 450.562 464.864 452.772C464.864 454.982 466.655 456.773 468.865 456.773H555.613C557.823 456.773 559.615 454.982 559.615 452.772C559.615 450.562 557.823 448.77 555.613 448.77Z" fill="#E3F2EF"/>
<path d="M542.886 462.375H468.865C466.655 462.375 464.864 464.167 464.864 466.377C464.864 468.587 466.655 470.379 468.865 470.379H542.886C545.096 470.379 546.887 468.587 546.887 466.377C546.887 464.167 545.096 462.375 542.886 462.375Z" fill="#E3F2EF"/>
<path d="M554.646 294.311H469.864C467.102 294.311 464.864 296.549 464.864 299.311V338.329C464.864 341.091 467.102 343.329 469.864 343.329H554.646C557.408 343.329 559.646 341.091 559.646 338.329V299.311C559.646 296.549 557.408 294.311 554.646 294.311Z" fill="#E3F2EF"/>
<path d="M555.613 352.733H468.865C466.655 352.733 464.864 354.524 464.864 356.734C464.864 358.944 466.655 360.736 468.865 360.736H555.613C557.823 360.736 559.615 358.944 559.615 356.734C559.615 354.524 557.823 352.733 555.613 352.733Z" fill="#E3F2EF"/>
<path d="M542.886 366.338H468.865C466.655 366.338 464.864 368.13 464.864 370.34C464.864 372.55 466.655 374.341 468.865 374.341H542.886C545.096 374.341 546.887 372.55 546.887 370.34C546.887 368.13 545.096 366.338 542.886 366.338Z" fill="#E3F2EF"/>
<path d="M411.831 319.059L401.225 325.183L401.225 312.935L411.831 319.059Z" fill="white"/>
<path d="M519.311 319.059L508.704 325.183L508.704 312.935L519.311 319.059Z" fill="white"/>
<path d="M411.831 415.225L401.225 421.348L401.225 409.101L411.831 415.225Z" fill="white"/>
<path d="M519.311 415.225L508.704 421.348L508.704 409.101L519.311 415.225Z" fill="white"/>
</g>
<path d="M506.352 218.698C506.174 217.924 505.783 217.087 505.445 216.367C505.409 216.278 505.365 216.198 505.32 216.109C504.599 214.685 504.599 212.995 505.382 211.607C505.409 211.562 505.436 211.509 505.462 211.464C505.952 210.584 506.156 209.818 506.156 208.813C506.156 208.048 505.658 206.891 504.644 206.304C504.421 206.171 504.19 206.064 503.941 205.966C503.487 205.779 503.176 205.343 503.176 204.854L503.185 203.484L498.79 203.466L498.781 204.836C498.781 205.334 498.469 205.761 498.007 205.939C497.757 206.037 497.526 206.144 497.304 206.277C496.289 206.856 495.773 208.003 495.773 208.777C495.765 209.783 495.969 210.548 496.45 211.438C496.476 211.482 496.494 211.527 496.521 211.571C497.295 212.977 497.286 214.658 496.556 216.091C496.512 216.18 496.467 216.26 496.432 216.34C496.094 217.061 495.684 217.888 495.506 218.662C495.337 219.418 495.293 220.219 495.293 221.029L495.266 227.426C495.266 228.253 495.809 229.09 496.903 229.721C497.793 230.237 498.923 230.549 500.08 230.647C500.605 230.691 501.138 230.691 501.663 230.656C502.82 230.558 503.932 230.264 504.831 229.748C505.925 229.116 506.477 228.298 506.486 227.462L506.503 222.835C506.503 222.257 506.53 221.652 506.53 221.056C506.548 220.255 506.512 219.454 506.352 218.698Z" fill="#C3EFC0"/>
<path opacity="0.3" d="M506.352 218.698C506.174 217.924 505.783 217.087 505.445 216.367C505.409 216.278 505.365 216.198 505.32 216.109C504.599 214.685 504.599 212.995 505.382 211.607C505.409 211.562 505.436 211.509 505.462 211.464C505.952 210.584 506.156 209.818 506.156 208.813C506.156 208.048 505.658 206.891 504.644 206.304C504.421 206.171 504.19 206.064 503.941 205.966C503.487 205.779 503.176 205.343 503.176 204.854L503.185 203.484L498.79 203.466L498.781 204.836C498.781 205.334 498.469 205.761 498.007 205.939C497.757 206.037 497.526 206.144 497.304 206.277C496.289 206.856 495.773 208.003 495.773 208.777C495.765 209.783 495.969 210.548 496.45 211.438C496.476 211.482 496.494 211.527 496.521 211.571C497.295 212.977 497.286 214.658 496.556 216.091C496.512 216.18 496.467 216.26 496.432 216.34C496.094 217.061 495.684 217.888 495.506 218.662C495.337 219.418 495.293 220.219 495.293 221.029L495.266 227.426C495.266 228.253 495.809 229.09 496.903 229.721C497.793 230.237 498.923 230.549 500.08 230.647C500.605 230.691 501.138 230.691 501.663 230.656C502.82 230.558 503.932 230.264 504.831 229.748C505.925 229.116 506.477 228.298 506.486 227.462L506.503 222.835C506.503 222.257 506.53 221.652 506.53 221.056C506.548 220.255 506.512 219.454 506.352 218.698Z" fill="#56D53F"/>
<path opacity="0.1" d="M505.382 211.607C505.409 211.562 505.436 211.509 505.462 211.465C505.88 210.699 506.094 210.032 506.147 209.222C506.049 209.543 505.907 209.845 505.729 210.13C505.222 210.948 504.492 211.589 503.745 212.194C502.989 212.808 502.153 213.511 502.064 214.472C501.975 215.406 502.633 216.26 503.389 216.829C504.137 217.399 505.017 217.79 505.694 218.449C505.987 218.734 506.236 219.063 506.459 219.41C506.432 219.169 506.396 218.929 506.343 218.707C506.165 217.933 505.774 217.096 505.436 216.376C505.4 216.287 505.355 216.207 505.311 216.118C504.599 214.685 504.608 213.004 505.382 211.607Z" fill="#56D53F"/>
<path d="M498.051 204.997V205.735C498.042 206.18 498.335 206.616 498.923 206.963C500.088 207.639 501.974 207.648 503.149 206.981C503.442 206.812 503.656 206.616 503.807 206.411C503.95 206.207 504.03 205.984 504.03 205.762V205.014C504.03 204.952 504.021 204.881 504.003 204.819C503.932 204.445 503.647 204.08 503.158 203.795C503.14 203.787 503.131 203.778 503.113 203.769C501.948 203.119 500.088 203.119 498.932 203.778C498.433 204.062 498.149 204.418 498.077 204.792C498.06 204.854 498.051 204.925 498.051 204.997Z" fill="#C3EFC0"/>
<path opacity="0.1" d="M498.051 204.997V205.735C498.042 206.18 498.335 206.616 498.923 206.963C500.088 207.639 501.974 207.648 503.149 206.981C503.442 206.812 503.656 206.616 503.807 206.411C503.95 206.207 504.03 205.984 504.03 205.762V205.014C504.03 204.952 504.021 204.881 504.003 204.819C503.932 204.445 503.647 204.08 503.158 203.795C503.14 203.787 503.131 203.778 503.113 203.769C501.948 203.119 500.088 203.119 498.932 203.778C498.433 204.062 498.149 204.418 498.077 204.792C498.06 204.854 498.051 204.925 498.051 204.997Z" fill="#56D53F"/>
<path opacity="0.2" d="M503.14 206.224C504.306 205.557 504.315 204.463 503.149 203.786C501.983 203.11 500.097 203.101 498.923 203.769C497.757 204.436 497.748 205.53 498.914 206.206C500.088 206.892 501.975 206.892 503.14 206.224Z" fill="#56D53F"/>
<path d="M498.054 204.133V204.578C498.054 204.649 498.063 204.72 498.08 204.783C498.152 205.156 498.436 205.521 498.926 205.806C499.451 206.108 500.109 206.277 500.794 206.313C501.639 206.358 502.502 206.197 503.152 205.824C503.445 205.655 503.659 205.468 503.81 205.254C503.908 205.112 503.979 204.961 504.006 204.809C504.024 204.747 504.033 204.676 504.033 204.605V204.142C504.033 203.697 503.748 203.261 503.161 202.914C503.107 202.888 503.054 202.852 503.001 202.825C501.826 202.229 500.056 202.256 498.935 202.897C498.347 203.244 498.054 203.688 498.054 204.133Z" fill="#C3EFC0"/>
<path opacity="0.1" d="M498.054 204.133V204.578C498.054 204.649 498.063 204.72 498.08 204.783C498.152 205.156 498.436 205.521 498.926 205.806C499.451 206.108 500.109 206.277 500.794 206.313C501.639 206.358 502.502 206.197 503.152 205.824C503.445 205.655 503.659 205.468 503.81 205.254C503.908 205.112 503.979 204.961 504.006 204.809C504.024 204.747 504.033 204.676 504.033 204.605V204.142C504.033 203.697 503.748 203.261 503.161 202.914C503.107 202.888 503.054 202.852 503.001 202.825C501.826 202.229 500.056 202.256 498.935 202.897C498.347 203.244 498.054 203.688 498.054 204.133Z" fill="#56D53F"/>
<path d="M498.051 204.115C498.051 205.067 499.377 205.833 501.032 205.842C502.678 205.85 504.021 205.085 504.021 204.133C504.021 203.181 502.696 202.416 501.041 202.407C499.395 202.407 498.06 203.172 498.051 204.115Z" fill="#C3EFC0"/>
<path d="M500.017 202.354L500.008 203.902C500.008 203.928 500.008 203.946 500.017 203.973C500.044 204.097 500.142 204.231 500.311 204.329C500.489 204.435 500.72 204.489 500.96 204.507C501.254 204.524 501.556 204.462 501.779 204.338C501.876 204.275 501.957 204.213 502.01 204.142C502.046 204.088 502.063 204.044 502.081 203.991C502.09 203.964 502.09 203.946 502.09 203.919L502.099 202.371C502.099 202.22 502.001 202.069 501.796 201.944C501.779 201.935 501.761 201.926 501.743 201.918C501.334 201.713 500.72 201.722 500.337 201.944C500.115 202.051 500.008 202.202 500.017 202.354Z" fill="#C3EFC0"/>
<path opacity="0.1" d="M500.017 202.354L500.008 203.902C500.008 203.928 500.008 203.946 500.017 203.973C500.044 204.097 500.142 204.231 500.311 204.329C500.489 204.435 500.72 204.489 500.96 204.507C501.254 204.524 501.556 204.462 501.779 204.338C501.876 204.275 501.957 204.213 502.01 204.142C502.046 204.088 502.063 204.044 502.081 203.991C502.09 203.964 502.09 203.946 502.09 203.919L502.099 202.371C502.099 202.22 502.001 202.069 501.796 201.944C501.779 201.935 501.761 201.926 501.743 201.918C501.334 201.713 500.72 201.722 500.337 201.944C500.115 202.051 500.008 202.202 500.017 202.354Z" fill="#56D53F"/>
<path d="M500.017 202.354C500.017 202.683 500.48 202.95 501.049 202.95C501.619 202.95 502.081 202.692 502.09 202.362C502.09 202.033 501.628 201.766 501.058 201.766C500.48 201.757 500.017 202.024 500.017 202.354Z" fill="#C3EFC0"/>
<path opacity="0.5" d="M500.684 202.353C500.684 202.469 500.844 202.567 501.049 202.567C501.254 202.567 501.414 202.478 501.414 202.353C501.414 202.238 501.254 202.14 501.049 202.14C500.844 202.14 500.684 202.238 500.684 202.353Z" fill="#C3EFC0"/>
<path opacity="0.3" d="M500.684 202.353C500.684 202.469 500.844 202.567 501.049 202.567C501.254 202.567 501.414 202.478 501.414 202.353C501.414 202.238 501.254 202.14 501.049 202.14C500.844 202.14 500.684 202.238 500.684 202.353Z" fill="#56D53F"/>
<g opacity="0.3">
<g opacity="0.3">
<path opacity="0.3" d="M411.071 206.266C411.053 206.266 411.035 206.257 411.017 206.257L408.971 205.679C408.82 205.634 408.731 205.483 408.775 205.332C408.82 205.18 408.98 205.092 409.122 205.136L411.168 205.714C411.32 205.759 411.409 205.91 411.364 206.061C411.329 206.195 411.204 206.275 411.071 206.266Z" fill="black"/>
</g>
<g opacity="0.3">
<path opacity="0.3" d="M408.97 207.85C408.855 207.841 408.748 207.761 408.721 207.636C408.686 207.485 408.775 207.334 408.926 207.289L410.99 206.764C411.141 206.729 411.293 206.818 411.337 206.969C411.373 207.12 411.284 207.271 411.132 207.316L409.068 207.841C409.033 207.85 409.006 207.85 408.97 207.85Z" fill="black"/>
</g>
<g opacity="0.3">
<path opacity="0.3" d="M410.012 209.754C409.949 209.745 409.887 209.718 409.834 209.673C409.727 209.558 409.727 209.38 409.843 209.273L411.373 207.787C411.489 207.68 411.666 207.68 411.773 207.796C411.88 207.912 411.88 208.09 411.764 208.197L410.234 209.682C410.172 209.736 410.092 209.762 410.012 209.754Z" fill="black"/>
</g>
<g opacity="0.3">
<path opacity="0.3" d="M411.862 210.883C411.845 210.883 411.827 210.874 411.809 210.874C411.658 210.83 411.569 210.679 411.613 210.527L412.192 208.481C412.236 208.33 412.396 208.241 412.538 208.285C412.69 208.33 412.779 208.481 412.734 208.632L412.156 210.679C412.12 210.812 411.996 210.892 411.862 210.883Z" fill="black"/>
</g>
</g>
<path d="M467.735 179.12C467.798 179.085 462.619 182.074 462.619 182.074L451.391 183.694C451.391 183.694 443.188 171.38 441.934 169.449C440.679 167.51 439.211 166.273 435.812 166.273L436.453 176.095C436.56 176.416 443.348 184.77 447.823 189.326C449.407 190.936 450.377 191.345 452.85 190.66C459.158 188.916 466.792 183.729 467.415 182.43C468.216 180.74 467.673 179.147 467.735 179.12Z" fill="#FFC2A3"/>
<path d="M465.628 172.893C466.296 170.704 469.036 168.889 471.598 169.61C471.963 169.708 472.355 169.868 472.755 170.099C475.237 171.531 477.248 175.019 477.248 177.884C477.248 178.418 477.177 178.898 477.043 179.308C476.376 181.496 473.636 183.302 471.073 182.582C470.709 182.484 470.317 182.324 469.926 182.092C467.443 180.66 465.433 177.172 465.433 174.307C465.433 173.774 465.504 173.302 465.628 172.893Z" fill="#455A64"/>
<path d="M469.925 182.093C467.443 180.66 465.432 177.172 465.432 174.308C465.432 171.443 467.443 170.277 469.925 171.71C472.408 173.142 474.418 176.63 474.418 179.495C474.427 182.36 472.417 183.525 469.925 182.093Z" fill="#5D6E6B"/>
<path d="M469.925 174.886C468.973 174.334 468.199 174.779 468.199 175.882C468.199 176.986 468.973 178.329 469.925 178.881C470.877 179.432 471.651 178.988 471.651 177.884C471.66 176.781 470.886 175.438 469.925 174.886Z" fill="#455A64"/>
<path d="M469.339 176.541C469.339 176.914 469.605 177.377 469.926 177.564C470.077 177.653 470.219 177.662 470.326 177.617C470.344 177.608 470.353 177.6 470.371 177.591C470.468 177.519 470.522 177.395 470.522 177.217C470.522 176.843 470.255 176.381 469.926 176.194C469.774 176.105 469.632 176.096 469.534 176.14L469.49 176.167C469.392 176.238 469.339 176.363 469.339 176.541Z" fill="#5D6E6B"/>
<path d="M459.835 182.021C459.835 182.395 460.102 182.858 460.422 183.044C460.52 183.098 460.6 183.124 460.68 183.124C460.751 183.124 460.814 183.107 460.876 183.071L470.316 177.617C470.334 177.608 470.343 177.599 470.36 177.59C470.458 177.519 470.512 177.395 470.512 177.217C470.512 176.843 470.245 176.38 469.915 176.194C469.764 176.105 469.622 176.096 469.524 176.14L469.48 176.167L460.04 181.621C459.915 181.701 459.835 181.817 459.835 182.021Z" fill="#FAFAFA"/>
<path d="M450.573 181.585C451.241 179.397 453.981 177.582 456.543 178.302C456.908 178.4 457.3 178.56 457.7 178.792C460.182 180.224 462.193 183.712 462.193 186.577C462.193 187.111 462.122 187.591 461.988 188C461.321 190.189 458.581 191.995 456.018 191.274C455.654 191.177 455.262 191.016 454.871 190.785C452.388 189.353 450.378 185.865 450.378 183C450.369 182.466 450.44 181.995 450.573 181.585Z" fill="#455A64"/>
<path d="M454.87 190.785C452.388 189.353 450.377 185.865 450.377 183C450.377 180.135 452.388 178.97 454.87 180.402C457.353 181.834 459.364 185.322 459.364 188.187C459.364 191.052 457.353 192.217 454.87 190.785Z" fill="#5D6E6B"/>
<path d="M454.871 183.578C453.919 183.026 453.145 183.471 453.145 184.575C453.145 185.678 453.919 187.021 454.871 187.573C455.823 188.125 456.597 187.68 456.597 186.576C456.597 185.473 455.823 184.13 454.871 183.578Z" fill="#455A64"/>
<path d="M454.275 185.233C454.275 185.607 454.541 186.069 454.862 186.256C455.013 186.345 455.155 186.354 455.262 186.31C455.28 186.301 455.289 186.292 455.307 186.283C455.405 186.212 455.458 186.087 455.458 185.909C455.458 185.536 455.191 185.073 454.862 184.886C454.711 184.797 454.568 184.788 454.47 184.833L454.426 184.859C454.337 184.931 454.275 185.055 454.275 185.233Z" fill="#5D6E6B"/>
<path d="M452.842 186.06C452.842 186.434 453.109 186.897 453.429 187.084C453.527 187.137 453.607 187.164 453.687 187.164C453.758 187.164 453.82 187.146 453.883 187.11L455.262 186.318C455.279 186.31 455.288 186.301 455.306 186.292C455.404 186.221 455.457 186.096 455.457 185.918C455.457 185.544 455.19 185.082 454.861 184.895C454.71 184.806 454.568 184.797 454.47 184.842L454.425 184.868L453.046 185.66C452.922 185.731 452.842 185.847 452.842 186.06Z" fill="#FAFAFA"/>
<path d="M452.842 186.061C452.842 186.434 453.109 186.897 453.429 187.084C453.58 187.173 453.722 187.182 453.829 187.137C453.847 187.128 453.856 187.119 453.874 187.11C453.972 187.039 454.025 186.915 454.025 186.737C454.025 186.363 453.758 185.9 453.429 185.714C453.278 185.625 453.135 185.616 453.037 185.66L452.993 185.687C452.904 185.749 452.842 185.883 452.842 186.061Z" fill="#E1E1E1"/>
<path d="M464.462 184.948C466.633 183.293 468.714 183.302 468.341 179.254C468.02 177.448 467.585 177.341 465.832 176.656C465.067 176.362 464.052 176.131 463.43 176.834C463.358 176.914 463.287 177.012 463.207 177.074C463.038 177.207 462.816 177.234 462.611 177.27C462.211 177.332 461.784 177.43 461.517 177.732C461.312 177.964 461.232 178.284 461.036 178.515C460.867 178.72 460.618 178.836 460.413 179.014C460.102 179.289 459.906 179.69 459.897 180.108C459.897 180.642 460.2 180.98 460.556 181.318L461.65 180.686C462.095 180.375 463.02 181.478 462.629 182.056C461.997 182.991 464.462 184.948 464.462 184.948Z" fill="#FFC2A3"/>
<path d="M439.175 193.089C439.869 190.277 440.073 183.275 440.073 183.275L419.761 183.88C419.761 183.88 420.606 187.27 420.864 188.311C421.122 189.343 421.158 191.336 421.158 191.336C421.158 191.336 423.133 194.984 428.97 195.634C434.806 196.274 439.175 193.089 439.175 193.089Z" fill="#FFC2A3"/>
<path d="M440.065 183.276C440.092 183.498 439.95 185.616 439.95 185.616C437.352 187.804 429.024 188.907 420.287 185.998L418.436 178.845C418.436 178.845 424.726 176.087 420.483 166.825L425.047 166.469L433.152 166.264C435.118 166.264 435.812 166.264 435.812 166.264C437.049 167.43 439.425 170.028 441.293 173.515C442.352 175.508 443.704 178.409 440.065 183.276Z" fill="#455A64"/>
<path d="M397.439 237.878C396.371 238.661 393.889 238.848 391.709 237.825C389.52 236.801 388.622 233.91 389.031 231.641C389.52 228.901 390.881 227.397 391.228 225.751C391.575 224.105 391.22 221.81 391.744 220.342C392.252 218.945 393.355 218.233 394.245 217.877C394.974 217.584 395.802 217.672 396.487 218.073L397.136 218.455L397.439 237.878Z" fill="#5D6E6B"/>
<path d="M399.991 227.415L398.292 232.495C398.292 232.495 399.359 236.125 398.763 237.086C397.873 238.51 396.299 238.768 393.656 237.958C390.631 237.033 389.919 234.301 390.071 232.175C390.284 229.15 393.087 226.863 392.767 223.954C392.606 222.53 392.802 220.92 393.585 219.692C394.466 218.313 395.898 218.055 397.393 218.509C398.674 218.892 399.795 219.701 400.881 220.457C401.183 220.671 401.495 220.885 401.717 221.178C401.913 221.427 402.046 221.73 402.144 222.041C402.34 222.664 402.393 223.331 402.313 223.972C402.233 224.577 401.851 224.933 401.486 225.413C400.996 226.089 400.489 226.748 399.991 227.415Z" fill="#5D6E6B"/>
<path d="M407.305 225.004C407.198 224.959 402.02 221.649 401.46 221.4C400.899 221.151 399.529 220.795 398.203 223.865C397.26 226.054 398.621 226.863 398.621 226.863L404.68 230.475L407.305 225.004Z" fill="#FFC2A3"/>
<path d="M398.301 232.495C397.572 232.122 396.042 231.606 394.769 231.704C394.369 231.739 394.057 231.366 394.182 230.983V230.974C394.253 230.76 394.44 230.609 394.662 230.591C395.481 230.529 397.474 230.502 398.791 231.588C399.138 232.318 398.301 232.495 398.301 232.495Z" fill="#9FAEAC"/>
<path d="M398.924 230.173C398.221 229.755 396.708 229.168 395.436 229.203C395.036 229.212 394.742 228.83 394.884 228.456V228.447C394.964 228.234 395.16 228.1 395.391 228.091C396.21 228.074 398.203 228.154 399.466 229.301C399.769 230.04 398.924 230.173 398.924 230.173Z" fill="#9FAEAC"/>
<path opacity="0.3" d="M398.301 232.495C397.572 232.122 396.042 231.606 394.769 231.704C394.369 231.739 394.057 231.366 394.182 230.983V230.974C394.253 230.76 394.44 230.609 394.662 230.591C395.481 230.529 397.474 230.502 398.791 231.588C399.138 232.318 398.301 232.495 398.301 232.495Z" fill="#5D6E6B"/>
<path opacity="0.3" d="M398.924 230.173C398.221 229.755 396.708 229.168 395.436 229.203C395.036 229.212 394.742 228.83 394.884 228.456V228.447C394.964 228.234 395.16 228.1 395.391 228.091C396.21 228.074 398.203 228.154 399.466 229.301C399.769 230.04 398.924 230.173 398.924 230.173Z" fill="#5D6E6B"/>
<path d="M451.703 238.42L458.429 235.751C458.314 234.016 457.886 231.703 458.331 227.157L450.698 225.706V233.349L451.703 238.42Z" fill="#FFC2A3"/>
<path d="M470.902 244.328C471.098 244.738 471.036 245.494 470.813 245.974C470.582 246.455 468.064 247.878 464.657 247.647C461.258 247.416 458.918 246.046 457.619 245.191C456.32 244.328 454.976 244.168 453.286 244.079C451.604 243.981 449.389 243.145 449.024 242.353C448.65 241.561 449.078 240.209 449.078 240.209L470.902 244.328Z" fill="#5D6E6B"/>
<path d="M457.175 233.714C457.264 233.696 457.353 233.678 457.442 233.661C457.593 233.634 457.744 233.598 457.886 233.634C458.055 233.669 458.189 233.794 458.305 233.919C458.669 234.319 458.892 234.826 459.176 235.28C459.888 236.445 461.383 237.406 463.02 238.287C464.132 238.883 465.218 239.346 466.365 239.862C467.54 240.387 469.088 240.707 470.004 241.33C471.339 242.229 471.508 244.488 469.987 245.378C468.679 246.152 465.227 246.98 461.605 245.956C459.63 245.396 457.442 243.287 454.852 243.092C453.206 242.967 450.092 242.504 449.034 241.25C448.642 240.698 449.167 238.937 449.594 237.424C450.066 235.769 450.235 232.851 450.786 232.993C450.786 232.993 450.635 233.403 450.849 233.625C451.053 233.839 451.818 234.292 452.041 234.479C452.45 234.826 452.699 235.315 452.948 235.787C453.055 235.992 453.189 236.205 453.42 236.294C453.696 236.401 453.9 236.223 454.15 236.107C454.452 235.965 454.808 235.938 455.137 236.036C455.102 235.707 455.048 235.387 454.968 235.066C454.941 234.96 454.915 234.853 454.941 234.755C454.977 234.648 455.066 234.577 455.155 234.515C455.796 234.079 456.445 233.874 457.175 233.714Z" fill="#5D6E6B"/>
<path d="M461.489 237.397C461.489 237.397 461.249 236.766 460.27 236.588C459.523 236.445 458.197 236.997 457.379 237.682C457.041 237.958 457.085 238.483 457.468 238.696C457.699 238.821 457.975 238.785 458.171 238.616C458.704 238.136 459.914 237.282 461.489 237.397Z" fill="#9FAEAC"/>
<path d="M463.811 238.696C463.811 238.696 463.331 237.94 462.37 237.958C462.37 237.958 460.412 238.011 459.202 239.141C458.891 239.426 458.918 239.915 459.282 240.12C459.505 240.244 459.772 240.209 459.959 240.04C460.501 239.55 461.596 238.527 463.811 238.696Z" fill="#9FAEAC"/>
<path d="M466.373 239.862C466.373 239.862 465.831 239.177 464.879 239.194C464.879 239.194 463.055 239.266 461.845 240.387C461.533 240.671 461.56 241.161 461.925 241.365C462.147 241.49 462.414 241.454 462.601 241.285C463.144 240.805 464.158 239.702 466.373 239.862Z" fill="#9FAEAC"/>
<path opacity="0.3" d="M461.489 237.397C461.489 237.397 461.249 236.766 460.27 236.588C459.523 236.445 458.197 236.997 457.379 237.682C457.041 237.958 457.085 238.483 457.468 238.696C457.699 238.821 457.975 238.785 458.171 238.616C458.704 238.136 459.914 237.282 461.489 237.397Z" fill="#5D6E6B"/>
<path opacity="0.3" d="M463.811 238.696C463.811 238.696 463.331 237.94 462.37 237.958C462.37 237.958 460.412 238.011 459.202 239.141C458.891 239.426 458.918 239.915 459.282 240.12C459.505 240.244 459.772 240.209 459.959 240.04C460.501 239.55 461.596 238.527 463.811 238.696Z" fill="#5D6E6B"/>
<path opacity="0.3" d="M466.373 239.862C466.373 239.862 465.831 239.177 464.879 239.194C464.879 239.194 463.055 239.266 461.845 240.387C461.533 240.671 461.56 241.161 461.925 241.365C462.147 241.49 462.414 241.454 462.601 241.285C463.144 240.805 464.158 239.702 466.373 239.862Z" fill="#5D6E6B"/>
<path d="M456.302 200.056C451.187 198.908 438.971 196.355 438.971 196.355L439.166 193.089C434.745 195.376 425.438 194.735 421.15 191.337L420.473 194.798C420.473 194.798 418.071 197.565 416.274 201.124C415.295 203.063 413.649 206.097 415.286 213.153C416.247 217.299 417.52 228.207 417.52 228.207L405.01 223.598C405.01 223.598 403.925 223.776 403.026 226.125C402.492 227.513 402.297 228.847 402.857 229.541C407.43 233.153 414.85 239.061 422.351 242.371C427.351 244.293 430.02 240.075 430.269 238.518C431.212 232.548 432.298 213.357 432.298 213.357L449.007 212.823C448.455 215.991 450.706 228.376 450.706 228.376C450.706 228.376 454.825 230.164 458.233 228.331C458.233 228.331 460.52 214.078 460.733 209.327C460.982 204.024 461.249 201.168 456.302 200.056Z" fill="#9FAEAC"/>
<path opacity="0.15" d="M449.007 212.814C449.007 211.96 449.576 208.971 451.507 207.378C451.507 207.378 448.855 207.85 447.636 212.859L449.007 212.814Z" fill="#5D6E6B"/>
<path opacity="0.15" d="M417.52 228.207C417.52 228.207 417.858 232.922 418.774 235.218C418.774 235.218 416.514 231.143 416.256 227.744L417.52 228.207Z" fill="#5D6E6B"/>
<path opacity="0.15" d="M438.971 196.355L439.167 193.098C434.745 195.385 425.438 194.735 421.15 191.345L420.474 194.806C420.509 194.842 423.258 197.689 430.421 198.054C437.627 198.419 438.971 196.355 438.971 196.355Z" fill="#5D6E6B"/>
<path opacity="0.15" d="M432.298 213.348C432.298 213.348 432.414 207.965 427.921 204.024C427.921 204.024 431.774 205.794 433.055 211.471C433.055 211.471 435.929 210.136 437.414 206.141C437.414 206.141 436.961 210.145 434.656 212.414L441.605 213.055L432.298 213.348Z" fill="#5D6E6B"/>
<path d="M430.047 141.005C423.873 141.005 418.872 146.014 418.872 152.18C418.872 158.354 423.882 163.355 430.047 163.355C436.222 163.355 441.231 158.345 441.231 152.18C441.222 146.014 436.213 141.005 430.047 141.005Z" fill="#485754"/>
<path d="M418.383 147.82C418.783 147.802 419.192 147.82 419.593 147.891C419.726 147.909 419.878 147.945 419.958 148.051C420.02 148.132 420.038 148.229 420.047 148.327C420.118 148.923 420.1 149.608 419.878 150.178C419.717 150.587 419.228 150.801 418.917 151.103C417.707 152.278 417.609 154.217 418.089 155.836C418.561 157.447 419.504 158.888 420.144 160.445C420.785 162.029 421.088 163.88 420.216 165.437C419.878 166.042 419.255 166.495 419.335 167.234C419.424 168.115 420.189 168.951 420.518 169.752C420.901 170.677 420.99 171.7 420.883 172.697C420.758 173.924 420.34 175.134 419.548 176.078C418.383 177.457 416.434 178.133 414.673 177.75C414.308 177.67 413.934 177.546 413.641 177.314C413.116 176.896 412.902 176.202 412.617 175.588C411.692 173.613 409.753 172.172 409.165 170.072C408.543 167.848 409.61 165.508 410.918 163.613C411.532 162.723 412.217 161.851 412.511 160.819C412.911 159.422 412.564 157.927 412.466 156.477C412.377 155.062 412.537 153.621 412.947 152.26C413.24 151.272 413.694 150.133 414.468 149.431C415.527 148.452 416.942 147.882 418.383 147.82Z" fill="#485754"/>
<path d="M437.049 146.121C438.277 146.85 439.781 149.946 439.603 156.424C439.451 161.913 437.672 163.257 436.773 163.648C435.875 164.04 434.158 163.79 432.485 163.506L432.467 166.798C432.467 166.798 434.771 169.493 434.62 171.006C434.469 172.519 431.266 172.857 429.113 171.371C426.951 169.885 425.145 167.002 425.145 167.002L425.216 159.431C425.216 159.431 424.228 160.383 422.564 158.915C421.185 157.705 420.732 155.667 421.817 154.582C422.894 153.496 424.887 153.799 425.634 155.356C425.634 155.356 428.303 155.463 431.871 153.523C435.421 151.592 436.809 148.247 437.049 146.121Z" fill="#FFC2A3"/>
<g opacity="0.5">
<path opacity="0.5" d="M432.485 163.506C430.724 163.265 427.094 162.207 426.533 160.774C426.533 160.774 426.72 161.673 427.797 162.607C428.873 163.541 432.476 164.6 432.476 164.6L432.485 163.506Z" fill="#FFC2A3"/>
</g>
<path d="M420.474 166.833C417.013 167.083 415.58 167.519 413.658 171.798C411.923 175.642 407.777 185.589 406.736 187.813C405.695 190.028 405.5 190.918 406.372 193.24C407.074 195.135 412.929 205.999 413.569 207.583C414.21 209.166 414.495 210.768 415.58 212.618C416.675 214.469 418.392 216.266 419.753 216.693C421.773 217.325 424.388 216.444 424.477 215.225C424.566 214.006 421.515 211.969 420.687 209.264C420.687 209.264 421.595 209.869 422.413 210.207C423.232 210.545 424.148 210.474 424.424 210.003C424.7 209.54 423.872 209.255 423.143 208.526C422.707 208.09 421.933 207.12 420.945 206.266C420.278 205.687 419.184 205.51 418.685 204.878C418.418 204.54 417.217 201.595 416.31 198.97C415.189 195.723 413.721 191.39 413.721 191.39L419.735 178.854C419.753 178.854 424.486 174.165 420.474 166.833Z" fill="#FFC2A3"/>
<g filter="url(#filter2_d)">
<rect x="508" y="35.6162" width="267.517" height="421.062" rx="10" fill="white"/>
</g>
<path d="M755.229 191.072V57.4285L528.938 57.4285V191.072L755.229 191.072Z" fill="#EAF5F3"/>
<path d="M722.309 191.054H686.955L755.209 122.8V158.154L722.309 191.054ZM633.709 191.054H645.727L755.227 81.5536V69.5361L633.709 191.054ZM528.937 107.362V119.379L590.905 57.4111H578.887L528.937 107.362ZM652.944 57.429H600.576L528.955 129.05V181.419L652.944 57.429Z" fill="white" fill-opacity="0.4"/>
<path d="M755.227 191.054H528.936V207.997H755.227V191.054Z" fill="#1E4843"/>
<path d="M749.066 196.803H687.134C686.65 196.803 686.256 196.409 686.256 195.926C686.256 195.442 686.65 195.048 687.134 195.048H749.066C749.549 195.048 749.943 195.442 749.943 195.926C749.925 196.409 749.549 196.803 749.066 196.803Z" fill="white"/>
<path d="M687.116 196.803H535.419C534.936 196.803 534.542 196.409 534.542 195.926C534.542 195.442 534.936 195.048 535.419 195.048H687.116C687.599 195.048 687.993 195.442 687.993 195.926C687.993 196.409 687.599 196.803 687.116 196.803Z" fill="#03D218"/>
<path d="M688.978 195.926C688.978 196.946 688.154 197.77 687.133 197.77C686.113 197.77 685.289 196.946 685.289 195.926C685.289 194.905 686.113 194.081 687.133 194.081C688.136 194.081 688.978 194.905 688.978 195.926Z" fill="#FFFDFF"/>
<path d="M545.968 200.816H547.15V204.864H545.968V200.816ZM543.694 204.864H544.876V200.816H543.694V204.864ZM554.941 200.816V202.446L552.452 200.816V204.864L554.941 203.234V204.864H556.123V200.816H554.941ZM534.721 200.816V204.864H535.903V203.234L538.392 204.864V200.816L535.903 202.446V200.816H534.721Z" fill="white"/>
<path d="M740.952 202.838C740.952 203.949 740.039 204.862 738.929 204.862C737.818 204.862 736.905 203.949 736.905 202.838C736.905 201.728 737.818 200.814 738.929 200.814C740.039 200.814 740.952 201.728 740.952 202.838Z" fill="white"/>
<path d="M744.875 202.319V201.531H746.343V200.815H744.158V202.319H744.875Z" fill="#FFFDFF"/>
<path d="M747.525 201.531H748.994V202.319H749.71V200.814H747.525V201.531Z" fill="#FFFDFF"/>
<path d="M746.343 204.271H744.874V203.501H744.158V204.987H746.343V204.271Z" fill="#FFFDFF"/>
<path d="M748.994 203.501V204.271H747.525V204.987H749.71V203.501H748.994Z" fill="white"/>
<path d="M630.092 344.64H534C531.238 344.64 529 346.878 529 349.64V394.507C529 397.269 531.238 399.507 534 399.507H630.092C632.853 399.507 635.092 397.269 635.092 394.507V349.64C635.092 346.878 632.853 344.64 630.092 344.64Z" fill="#E3F2EF"/>
<path d="M630.578 409.828H534.271C531.797 409.828 529.792 411.833 529.792 414.307C529.792 416.78 531.797 418.786 534.271 418.786H630.578C633.052 418.786 635.057 416.78 635.057 414.307C635.057 411.833 633.052 409.828 630.578 409.828Z" fill="#E3F2EF"/>
<path d="M617.123 425.056H534.271C531.797 425.056 529.792 427.062 529.792 429.535C529.792 432.009 531.797 434.014 534.271 434.014H617.123C619.597 434.014 621.602 432.009 621.602 429.535C621.602 427.062 619.597 425.056 617.123 425.056Z" fill="#E3F2EF"/>
<path d="M630.092 237H534C531.238 237 529 239.239 529 242V286.867C529 289.629 531.238 291.867 534 291.867H630.092C632.853 291.867 635.092 289.629 635.092 286.867V242C635.092 239.239 632.853 237 630.092 237Z" fill="#E3F2EF"/>
<path d="M630.578 302.394H534.271C531.797 302.394 529.792 304.399 529.792 306.873C529.792 309.346 531.797 311.352 534.271 311.352H630.578C633.052 311.352 635.057 309.346 635.057 306.873C635.057 304.399 633.052 302.394 630.578 302.394Z" fill="#E3F2EF"/>
<path d="M617.123 317.622H534.271C531.797 317.622 529.792 319.627 529.792 322.101C529.792 324.575 531.797 326.58 534.271 326.58H617.123C619.597 326.58 621.602 324.575 621.602 322.101C621.602 319.627 619.597 317.622 617.123 317.622Z" fill="#E3F2EF"/>
<path d="M750.396 344.64H654.304C651.542 344.64 649.304 346.878 649.304 349.64V394.507C649.304 397.269 651.542 399.507 654.304 399.507H750.396C753.157 399.507 755.396 397.269 755.396 394.507V349.64C755.396 346.878 753.157 344.64 750.396 344.64Z" fill="#E3F2EF"/>
<path d="M750.882 409.89H653.783C651.309 409.89 649.304 411.895 649.304 414.369C649.304 416.842 651.309 418.848 653.783 418.848H750.882C753.355 418.848 755.361 416.842 755.361 414.369C755.361 411.895 753.355 409.89 750.882 409.89Z" fill="#E3F2EF"/>
<path d="M736.635 425.118H653.783C651.309 425.118 649.304 427.123 649.304 429.597C649.304 432.071 651.309 434.076 653.783 434.076H736.635C739.109 434.076 741.114 432.071 741.114 429.597C741.114 427.123 739.109 425.118 736.635 425.118Z" fill="#E3F2EF"/>
<path d="M750.396 237H654.304C651.542 237 649.304 239.239 649.304 242V286.867C649.304 289.629 651.542 291.867 654.304 291.867H750.396C753.157 291.867 755.396 289.629 755.396 286.867V242C755.396 239.239 753.157 237 750.396 237Z" fill="#E3F2EF"/>
<path d="M750.882 302.394H653.783C651.309 302.394 649.304 304.399 649.304 306.873C649.304 309.346 651.309 311.352 653.783 311.352H750.882C753.355 311.352 755.361 309.346 755.361 306.873C755.361 304.399 753.355 302.394 750.882 302.394Z" fill="#E3F2EF"/>
<path d="M736.635 317.622H653.783C651.309 317.622 649.304 319.627 649.304 322.101C649.304 324.575 651.309 326.58 653.783 326.58H736.635C739.109 326.58 741.114 324.575 741.114 322.101C741.114 319.627 739.109 317.622 736.635 317.622Z" fill="#E3F2EF"/>
<path d="M589.521 265.142L577.649 271.997L577.649 258.288L589.521 265.142Z" fill="white"/>
<path d="M709.825 265.142L697.953 271.997L697.953 258.288L709.825 265.142Z" fill="white"/>
<path d="M589.521 372.782L577.649 379.637L577.649 365.928L589.521 372.782Z" fill="white"/>
<path d="M709.825 372.782L697.953 379.637L697.953 365.928L709.825 372.782Z" fill="white"/>
<path d="M573.296 184.017C573.929 180.218 576.99 174.519 578.441 172.145H619.201L623.95 191.14H573.296C573.032 190.348 572.663 187.816 573.296 184.017Z" fill="#3B5753"/>
<path fill-rule="evenodd" clip-rule="evenodd" d="M614.426 67.0064C600.518 63.7494 585.645 66.3284 576.169 67.9713C574.181 68.3161 572.43 68.6197 570.976 68.8194C567.255 69.3388 563.85 71.3585 561.387 74.5036C551.641 86.9107 535.702 128.614 555.44 155.15C558.662 153.187 563.247 150.014 566.338 146.378C563.561 137.751 563.326 126.7 569.168 113.139C569.377 114.206 569.613 115.274 569.901 116.313C576.066 144.839 578.363 167.701 578.363 173.096C578.363 173.818 578.756 174.481 579.385 174.77C589.969 179.444 610.325 176.674 617.163 175.549C618.421 175.347 619.259 174.049 619.076 172.664C619.076 151.102 624.082 120.076 628.397 103.521C651.238 117.281 674.849 117.958 689.819 110.882C690.079 104.755 688.46 99.6116 686.551 95.8259C664.511 99.122 649.39 86.8602 637.948 77.5825C636.751 76.6112 635.593 75.6726 634.472 74.788C626.509 68.5103 619.441 66.9894 614.426 67.0064Z" fill="url(#paint3_linear)"/>
<path d="M566.388 146.262C562.396 149.211 557.449 150.953 553.622 152.245C557.794 159.44 562.005 163.873 569.771 176.175L573.362 185.506L578.968 176.938C578.968 176.938 569.41 162.805 566.388 146.262Z" fill="#FFB995"/>
<path d="M588.148 46.1207L585.892 69.0948C585.892 69.0948 598.818 72.996 608.245 66.3495L601.623 45.4561L588.148 46.1207Z" fill="#FFB995"/>
<path d="M603.156 19.9099C603.474 20.1989 616.284 45.3692 616.284 45.3692L601.739 52.3915L586.037 30.3422C586.066 30.3422 597.951 15.0261 603.156 19.9099Z" fill="#FFB995"/>
<path d="M592.486 30.9492C592.225 31.6139 592.283 32.3652 592.659 32.9721L599.917 45.0515C600.033 45.2249 600.148 45.3983 600.322 45.5428C601.189 46.3519 604.139 48.6927 606.423 45.5139C608.361 42.7975 610.183 40.3411 612.149 39.3297C613.306 38.7228 614.694 39.2141 615.272 40.37C616.457 42.7397 618.771 47.5657 620.246 52.1316C620.621 53.2875 620.014 54.5012 618.915 54.9636C615.966 56.1484 610.154 58.3158 604.978 59.0383C604.139 59.1539 603.3 58.8071 602.78 58.1135C600.553 55.0792 594.307 46.5831 592.167 44.4447C590.172 42.4796 586.529 43.202 584.88 43.6933C584.244 43.8667 583.579 43.78 583.03 43.4621C581.353 42.4507 578.432 39.9365 581.092 35.6885C581.757 34.6193 581.41 33.2322 580.369 32.5386C578.49 31.296 576.466 29.013 578.403 25.2562C580.369 21.4706 583.868 21.1238 586.24 21.4128C587.281 21.5284 588.35 20.9793 588.755 19.9968C588.929 19.5633 589.305 19.1876 589.941 19.0431C591.184 18.783 591.994 17.656 591.763 16.4134C591.329 14.2749 591.647 11.5007 595.088 9.62232C601.363 6.18344 606.857 11.7897 608.245 16.529C609.633 21.2683 602.635 24.6205 598.211 25.1696C594.972 25.5741 593.208 29.0997 592.486 30.9492Z" fill="#1E4843"/>
<path d="M594.886 48.8659C594.886 48.8659 592.11 40.7166 588.524 41.0056C584.938 41.2945 582.134 44.849 586.558 48.8659C592.052 53.8364 594.886 48.8659 594.886 48.8659Z" fill="#FFB995"/>
<path d="M720.788 81.29L712.72 85.6248C703.033 91.52 694.358 94.641 686.551 95.7969C688.43 99.5826 690.079 104.726 689.818 110.853C700.055 106.027 706.474 100.218 706.474 100.218C724.808 89.3526 720.788 81.29 720.788 81.29Z" fill="#FFB995"/>
<path d="M630.355 191.081C630.418 191.081 630.418 191.081 630.48 191.081L688.411 191.018C689.851 191.018 690.979 189.829 690.979 188.452C690.979 187.012 689.789 185.823 688.411 185.886L630.48 185.948C629.04 185.948 627.913 187.138 627.913 188.515C627.85 189.892 628.977 191.018 630.355 191.081Z" fill="url(#paint4_linear)"/>
<path d="M740.455 138.507H692.232C688.662 138.507 685.405 140.573 683.902 143.765L661.607 191.019H721.541C723.859 191.019 725.925 189.642 726.74 187.514L744.025 143.765C745.027 141.261 743.211 138.507 740.455 138.507Z" fill="#456460"/>
<path d="M706.447 162.729C705.383 165.983 706.197 169.113 708.201 169.801C710.205 170.427 712.648 168.361 713.712 165.107C714.777 161.852 713.963 158.723 711.959 158.035C710.017 157.409 707.512 159.474 706.447 162.729Z" fill="url(#paint5_linear)"/>
<path d="M790.764 87.0281L709.804 88.5121C707.645 88.5624 705.867 86.9275 705.867 84.9153V3.59709C705.867 1.58488 707.62 -0.0248618 709.778 0.000290788L790.738 1.13216C792.846 1.15731 794.548 2.76705 794.548 4.72895V83.4313C794.548 85.368 792.872 86.9778 790.764 87.0281Z" fill="url(#paint6_linear)"/>
<path opacity="0.89" d="M717.194 58.555L784.111 59.2593C786.676 59.2845 788.733 60.7685 788.606 62.5291L787.489 78.0482C787.362 79.7083 785.355 80.9911 782.943 80.9911H717.118C714.604 80.9911 712.547 79.6077 712.547 77.8722V61.6488C712.573 59.9133 714.655 58.5299 717.194 58.555Z" fill="white"/>
<path opacity="0.8" d="M781.98 27.7084C787.657 25.9065 790.784 19.8882 788.965 14.266C787.145 8.64377 781.069 5.54675 775.392 7.34858C769.716 9.15041 766.589 15.1688 768.408 20.791C770.227 26.4132 776.304 29.5102 781.98 27.7084Z" fill="white"/>
<path opacity="0.8" d="M761.557 22.1684C764.139 16.8473 761.877 10.4604 756.504 7.90286C751.132 5.34531 744.683 7.58564 742.101 12.9068C739.519 18.2279 741.781 24.6148 747.153 27.1723C752.526 29.7299 758.974 27.4896 761.557 22.1684Z" fill="white"/>
<path opacity="0.8" d="M732.592 25.4497C736.807 21.2751 736.807 14.5067 732.592 10.3321C728.377 6.15745 721.544 6.15745 717.329 10.3321C713.114 14.5067 713.114 21.2751 717.329 25.4497C721.544 29.6243 728.377 29.6243 732.592 25.4497Z" fill="white"/>
<path d="M772.276 15.2676C771.946 16.0724 771.768 16.9528 771.768 17.8834C771.768 21.6815 774.867 24.7501 778.701 24.7501C782.536 24.7501 785.634 21.6815 785.634 17.8834C785.634 14.0854 782.536 11.0168 778.701 11.0168C778.574 11.0168 778.473 11.0168 778.346 11.0168V9.28125C778.473 9.28125 778.574 9.28125 778.701 9.28125C783.501 9.28125 787.412 13.1296 787.412 17.9086C787.412 22.6624 783.526 26.5359 778.701 26.5359C773.902 26.5359 769.991 22.6876 769.991 17.9086C769.991 16.7264 770.219 15.6197 770.651 14.6136L772.276 15.2676Z" fill="url(#paint7_linear)"/>
<path d="M748.253 23.6937C749.319 24.3728 750.589 24.7501 751.96 24.7501C755.795 24.7501 758.893 21.6815 758.893 17.8834C758.893 14.0854 755.795 11.0168 751.96 11.0168C751.833 11.0168 751.732 11.0168 751.605 11.0168V9.28125C751.732 9.28125 751.833 9.28125 751.96 9.28125C756.76 9.28125 760.671 13.1296 760.671 17.9086C760.671 22.6624 756.785 26.5359 751.96 26.5359C750.284 26.5359 748.71 26.058 747.389 25.2532L748.253 23.6937Z" fill="url(#paint8_linear)"/>
<path d="M719.175 21.7579C720.419 23.5689 722.527 24.7762 724.914 24.7762C728.749 24.7762 731.847 21.7076 731.847 17.9096C731.847 14.1115 728.749 11.0429 724.914 11.0429C724.787 11.0429 724.686 11.0429 724.559 11.0429V9.30737C724.686 9.30737 724.787 9.30737 724.914 9.30737C729.714 9.30737 733.625 13.1557 733.625 17.9347C733.625 22.6885 729.739 26.5621 724.914 26.5621C721.943 26.5621 719.327 25.078 717.753 22.8395L719.175 21.7579Z" fill="url(#paint9_linear)"/>
<path opacity="0.69" d="M769.889 32.7734H787.488C788.605 32.7734 789.494 33.6538 789.494 34.7605C789.494 35.8672 788.605 36.7475 787.488 36.7475H769.889C768.772 36.7475 767.883 35.8672 767.883 34.7605C767.883 33.6538 768.772 32.7734 769.889 32.7734Z" fill="white"/>
<path opacity="0.69" d="M743.021 32.7734H760.62C761.737 32.7734 762.626 33.6538 762.626 34.7605C762.626 35.8672 761.737 36.7475 760.62 36.7475H743.021C741.904 36.7475 741.015 35.8672 741.015 34.7605C741.015 33.6538 741.929 32.7734 743.021 32.7734Z" fill="white"/>
<path opacity="0.69" d="M733.778 36.7478H716.179C715.061 36.7478 714.173 35.8674 714.173 34.7607C714.173 33.654 715.061 32.7737 716.179 32.7737H733.778C734.895 32.7737 735.784 33.654 735.784 34.7607C735.784 35.8674 734.895 36.7478 733.778 36.7478Z" fill="white"/>
<path opacity="0.69" d="M769.889 38.9358H787.488C788.605 38.9358 789.494 39.8161 789.494 40.9228V52.5936C789.494 53.7003 788.605 54.5807 787.488 54.5807H769.889C768.772 54.5807 767.883 53.7003 767.883 52.5936V40.9228C767.883 39.8161 768.772 38.9358 769.889 38.9358Z" fill="white"/>
<path opacity="0.69" d="M743.021 38.9358H760.62C761.737 38.9358 762.626 39.8161 762.626 40.9228V52.5936C762.626 53.7003 761.737 54.5807 760.62 54.5807H743.021C741.904 54.5807 741.015 53.7003 741.015 52.5936V40.9228C741.015 39.8161 741.929 38.9358 743.021 38.9358Z" fill="white"/>
<path opacity="0.69" d="M716.178 38.9358H733.777C734.894 38.9358 735.783 39.8161 735.783 40.9228V52.5936C735.783 53.7003 734.894 54.5807 733.777 54.5807H716.178C715.061 54.5807 714.172 53.7003 714.172 52.5936V40.9228C714.172 39.8161 715.061 38.9358 716.178 38.9358Z" fill="white"/>
<path d="M692.07 103.27C691.449 102.677 691.472 101.698 692.139 101.128L768.783 33.4177C768.99 33.2355 769.312 33.1899 769.565 33.3038C770.026 33.5088 770.118 34.124 769.749 34.4657L694.118 103.292C693.52 103.816 692.646 103.816 692.07 103.27Z" fill="#1E4843"/>
<path d="M708.73 89.6982L708.328 87.5348C708.328 87.5348 706.719 82.2867 710.982 77.1187C717.176 69.6272 721.761 72.3914 721.761 72.3914C721.761 72.3914 721.439 73.9939 721.479 75.3961C721.479 76.5579 722.887 77.1188 723.732 76.3576L733.867 67.0632C733.867 67.0632 736.722 81.806 714.964 91.9416L708.73 89.6982Z" fill="#FFB995"/>
<g filter="url(#filter3_d)">
<path d="M316.574 245.391V104C316.574 100.134 313.44 97 309.574 97L41.0001 97C37.1341 97 34.0001 100.134 34.0001 104V245.391L316.574 245.391Z" fill="url(#paint10_linear)"/>
<path d="M275.463 245.515H231.317L316.545 169.751V208.995L275.463 245.515ZM164.829 245.515H179.835L316.568 123.966V110.626L164.829 245.515ZM34.0002 152.614V165.953L111.379 97.167H96.3731L34.0002 152.614ZM188.848 97.1869H123.456L34.0226 176.689V234.819L188.848 97.1869Z" fill="url(#paint11_linear)" fill-opacity="0.3"/>
<path d="M50.0215 234.34C49.2519 234.34 48.5809 234.183 48.0083 233.87C47.4452 233.557 47.0088 233.114 46.6991 232.542C46.3894 231.962 46.2345 231.284 46.2345 230.51V224.079H48.1632V227.993H48.1773C48.3931 227.67 48.6935 227.416 49.0783 227.232C49.4725 227.048 49.8948 226.956 50.3453 226.956C51.0492 226.956 51.6592 227.108 52.1754 227.412C52.6916 227.716 53.0905 228.136 53.372 228.67C53.663 229.196 53.8085 229.809 53.8085 230.51C53.8085 231.247 53.6583 231.906 53.358 232.487C53.067 233.059 52.64 233.51 52.0769 233.842C51.5138 234.174 50.8286 234.34 50.0215 234.34ZM50.0215 232.722C50.594 232.722 51.0398 232.524 51.3589 232.128C51.6874 231.722 51.8516 231.229 51.8516 230.648C51.8516 230.067 51.6874 229.578 51.3589 229.182C51.0398 228.776 50.594 228.573 50.0215 228.573C49.449 228.573 48.9985 228.776 48.67 229.182C48.3509 229.578 48.1914 230.067 48.1914 230.648C48.1914 231.229 48.3509 231.722 48.67 232.128C48.9985 232.524 49.449 232.722 50.0215 232.722ZM58.8879 234.34C58.2309 234.34 57.6584 234.174 57.1703 233.842C56.6823 233.51 56.3022 233.068 56.03 232.515C55.7672 231.952 55.6359 231.335 55.6359 230.662C55.6359 229.97 55.786 229.343 56.0863 228.781C56.3961 228.219 56.8372 227.776 57.4097 227.453C57.9822 227.121 58.6673 226.956 59.4651 226.956C60.2722 226.956 60.9526 227.121 61.5063 227.453C62.0601 227.785 62.4824 228.232 62.7734 228.795C63.0643 229.357 63.2098 229.979 63.2098 230.662V234.174H61.2811V232.999H61.2529C61.0371 233.368 60.7414 233.686 60.366 233.953C60 234.211 59.5073 234.34 58.8879 234.34ZM59.4369 232.722C60 232.722 60.4411 232.519 60.7602 232.114C61.0887 231.708 61.2529 231.215 61.2529 230.634C61.2529 230.062 61.0887 229.578 60.7602 229.182C60.4411 228.776 60 228.573 59.4369 228.573C58.8644 228.573 58.4139 228.776 58.0854 229.182C57.7569 229.578 57.5927 230.062 57.5927 230.634C57.5927 231.215 57.7569 231.708 58.0854 232.114C58.4139 232.519 58.8644 232.722 59.4369 232.722ZM65.8803 234.174V229.984C65.8803 229.431 66.0164 228.924 66.2885 228.463C66.5607 228.002 66.9502 227.638 67.457 227.37C67.9732 227.094 68.5926 226.956 69.3153 226.956C69.8315 226.956 70.2961 227.043 70.709 227.218C71.122 227.393 71.4739 227.633 71.7649 227.937H71.7789C72.0793 227.633 72.4359 227.393 72.8489 227.218C73.2712 227.043 73.7405 226.956 74.2567 226.956C74.9793 226.956 75.5941 227.094 76.1009 227.37C76.6171 227.638 77.0112 228.002 77.2834 228.463C77.5556 228.924 77.6917 229.431 77.6917 229.984V234.174H75.763V229.984C75.763 229.597 75.6128 229.265 75.3125 228.988C75.0216 228.712 74.6696 228.573 74.2567 228.573C73.8437 228.573 73.4871 228.712 73.1867 228.988C72.8958 229.265 72.7503 229.597 72.7503 229.984V234.174H70.8216V229.984C70.8216 229.597 70.6715 229.265 70.3712 228.988C70.0802 228.712 69.7283 228.573 69.3153 228.573C68.9024 228.573 68.5457 228.712 68.2454 228.988C67.9544 229.265 67.809 229.597 67.809 229.984V234.174H65.8803ZM84.0795 234.34C83.31 234.34 82.6389 234.183 82.0664 233.87C81.5033 233.557 81.0669 233.114 80.7572 232.542C80.4474 231.962 80.2926 231.284 80.2926 230.51V224.079H82.2213V227.993H82.2353C82.4512 227.67 82.7515 227.416 83.1363 227.232C83.5305 227.048 83.9528 226.956 84.4033 226.956C85.1072 226.956 85.7173 227.108 86.2335 227.412C86.7497 227.716 87.1485 228.136 87.4301 228.67C87.721 229.196 87.8665 229.809 87.8665 230.51C87.8665 231.247 87.7163 231.906 87.416 232.487C87.1251 233.059 86.698 233.51 86.1349 233.842C85.5718 234.174 84.8867 234.34 84.0795 234.34ZM84.0795 232.722C84.652 232.722 85.0978 232.524 85.4169 232.128C85.7454 231.722 85.9097 231.229 85.9097 230.648C85.9097 230.067 85.7454 229.578 85.4169 229.182C85.0978 228.776 84.652 228.573 84.0795 228.573C83.507 228.573 83.0565 228.776 82.7281 229.182C82.409 229.578 82.2494 230.067 82.2494 230.648C82.2494 231.229 82.409 231.722 82.7281 232.128C83.0565 232.524 83.507 232.722 84.0795 232.722ZM93.5655 234.34C92.8241 234.34 92.1624 234.179 91.5805 233.856C90.9986 233.524 90.5388 233.082 90.2009 232.529C89.863 231.966 89.6941 231.339 89.6941 230.648C89.6941 229.956 89.863 229.334 90.2009 228.781C90.5388 228.219 90.9986 227.776 91.5805 227.453C92.1624 227.121 92.8241 226.956 93.5655 226.956C94.307 226.956 94.9686 227.121 95.5505 227.453C96.1324 227.776 96.5923 228.219 96.9302 228.781C97.268 229.334 97.437 229.956 97.437 230.648C97.437 231.339 97.268 231.966 96.9302 232.529C96.5923 233.082 96.1324 233.524 95.5505 233.856C94.9686 234.179 94.307 234.34 93.5655 234.34ZM93.5655 232.722C94.1568 232.722 94.6214 232.524 94.9592 232.128C95.3065 231.722 95.4801 231.229 95.4801 230.648C95.4801 230.067 95.3065 229.578 94.9592 229.182C94.6214 228.776 94.1568 228.573 93.5655 228.573C92.9743 228.573 92.505 228.776 92.1577 229.182C91.8199 229.578 91.6509 230.067 91.6509 230.648C91.6509 231.229 91.8199 231.722 92.1577 232.128C92.505 232.524 92.9743 232.722 93.5655 232.722ZM103.14 234.34C102.399 234.34 101.737 234.179 101.155 233.856C100.573 233.524 100.113 233.082 99.7755 232.529C99.4376 231.966 99.2687 231.339 99.2687 230.648C99.2687 229.956 99.4376 229.334 99.7755 228.781C100.113 228.219 100.573 227.776 101.155 227.453C101.737 227.121 102.399 226.956 103.14 226.956C103.882 226.956 104.543 227.121 105.125 227.453C105.707 227.776 106.167 228.219 106.505 228.781C106.843 229.334 107.012 229.956 107.012 230.648C107.012 231.339 106.843 231.966 106.505 232.529C106.167 233.082 105.707 233.524 105.125 233.856C104.543 234.179 103.882 234.34 103.14 234.34ZM103.14 232.722C103.731 232.722 104.196 232.524 104.534 232.128C104.881 231.722 105.055 231.229 105.055 230.648C105.055 230.067 104.881 229.578 104.534 229.182C104.196 228.776 103.731 228.573 103.14 228.573C102.549 228.573 102.08 228.776 101.732 229.182C101.394 229.578 101.225 230.067 101.225 230.648C101.225 231.229 101.394 231.722 101.732 232.128C102.08 232.524 102.549 232.722 103.14 232.722Z" fill="#7BE159" fill-opacity="0.8"/>
<path d="M316.686 245.418H34V259.583C34 263.449 37.134 266.583 41 266.583H309.686C313.552 266.583 316.686 263.449 316.686 259.583V245.418Z" fill="#1E4843"/>
<path d="M308.99 252.6H231.624C231.02 252.6 230.527 252.107 230.527 251.503C230.527 250.899 231.02 250.407 231.624 250.407H308.99C309.595 250.407 310.087 250.899 310.087 251.503C310.064 252.107 309.595 252.6 308.99 252.6Z" fill="white"/>
<path d="M231.601 252.6H42.0995C41.4954 252.6 41.0032 252.107 41.0032 251.503C41.0032 250.899 41.4954 250.407 42.0995 250.407H231.601C232.205 250.407 232.697 250.899 232.697 251.503C232.697 252.107 232.205 252.6 231.601 252.6Z" fill="#03D218"/>
<path d="M233.928 251.503C233.928 252.778 232.899 253.808 231.624 253.808C230.348 253.808 229.319 252.778 229.319 251.503C229.319 250.228 230.348 249.199 231.624 249.199C232.876 249.199 233.928 250.228 233.928 251.503Z" fill="#FFFDFF"/>
<path d="M55.2774 257.612H56.754V262.668H55.2774V257.612ZM52.436 262.668H53.9126V257.612H52.436V262.668ZM66.4864 257.612V259.648L63.3765 257.612V262.668L66.4864 260.632V262.668H67.963V257.612H66.4864ZM41.227 257.612V262.668H42.7036V260.632L45.8135 262.668V257.612L42.7036 259.648V257.612H41.227Z" fill="white"/>
<path d="M287.11 258.98L286.962 258.629C286.962 258.629 287.306 257.839 287.269 257.814L286.815 257.362C286.778 257.337 286.005 257.688 286.005 257.688L285.649 257.538C285.649 257.538 285.33 256.735 285.293 256.735H284.655C284.606 256.735 284.324 257.538 284.324 257.538L283.968 257.688C283.968 257.688 283.182 257.35 283.145 257.375L282.691 257.826C282.655 257.851 283.023 258.629 283.023 258.629L282.875 258.98C282.875 258.98 282.078 259.293 282.078 259.331V259.97C282.078 260.02 282.875 260.309 282.875 260.309L283.023 260.66C283.023 260.66 282.679 261.45 282.716 261.475L283.17 261.926C283.195 261.951 283.968 261.6 283.968 261.6L284.324 261.751C284.324 261.751 284.643 262.553 284.68 262.553H285.318C285.367 262.553 285.649 261.751 285.649 261.751L286.005 261.6C286.005 261.6 286.791 261.939 286.827 261.913L287.282 261.462C287.318 261.425 286.95 260.66 286.95 260.66L287.097 260.309C287.097 260.309 287.895 259.995 287.895 259.945V259.306C287.907 259.281 287.11 258.98 287.11 258.98ZM285.931 259.657C285.931 260.171 285.514 260.597 284.999 260.597C284.483 260.597 284.066 260.183 284.066 259.657C284.066 259.143 284.483 258.729 284.999 258.729C285.514 258.716 285.931 259.143 285.931 259.657Z" fill="white"/>
<path d="M299.115 261.722H292.051V257.566H299.115V261.722ZM292.572 261.255H298.594V258.022H292.572V261.255Z" fill="white"/>
<path d="M306.303 257.4H308.02V259.13H308.522V256.898H306.303V257.4Z" fill="white"/>
<path d="M303.608 259.13V257.4H305.338V256.898H303.106V259.13H303.608Z" fill="white"/>
<path d="M308.02 260.096V261.826H306.303V262.327H308.522V260.096H308.02Z" fill="white"/>
<path d="M305.337 261.826H303.607V260.096H303.106V262.327H305.337V261.826Z" fill="white"/>
</g>
<path d="M170.768 207.755L170.792 208.254L170.768 207.755ZM208.894 178.589C204.265 197.149 186.141 206.497 170.743 207.255L170.792 208.254C186.465 207.482 205.094 197.96 209.864 178.831L208.894 178.589ZM170.743 207.255C162.745 207.649 155.215 206.142 149.701 202.326C144.211 198.528 140.662 192.405 140.662 183.421H139.662C139.662 192.708 143.351 199.149 149.132 203.149C154.887 207.131 162.66 208.655 170.792 208.254L170.743 207.255ZM140.662 183.421C140.662 178.966 142.263 173.98 145.019 168.988C147.771 164 151.661 159.036 156.196 154.634C165.284 145.812 176.873 139.333 186.992 139.333V138.333C176.498 138.333 164.672 145.013 155.499 153.917C150.903 158.378 146.95 163.419 144.143 168.504C141.339 173.585 139.662 178.74 139.662 183.421H140.662ZM186.992 139.333C194.489 139.333 201.121 144.431 205.316 151.949C209.508 159.458 211.211 169.298 208.894 178.589L209.864 178.831C212.246 169.277 210.497 159.178 206.19 151.461C201.887 143.752 194.975 138.333 186.992 138.333V139.333Z" fill="white" fill-opacity="0.2"/>
<path d="M172.168 197.513L172.192 198.012L172.168 197.513ZM198.365 177.32C195.188 190.058 182.741 196.491 172.143 197.013L172.192 198.012C183.065 197.476 196.017 190.869 199.335 177.562L198.365 177.32ZM172.143 197.013C166.636 197.284 161.471 196.245 157.697 193.634C153.948 191.04 151.517 186.858 151.517 180.696H150.517C150.517 187.161 153.088 191.662 157.128 194.456C161.142 197.234 166.552 198.29 172.192 198.012L172.143 197.013ZM151.517 180.696C151.517 177.653 152.612 174.233 154.509 170.797C156.403 167.365 159.08 163.947 162.205 160.914C168.473 154.83 176.444 150.384 183.379 150.384V149.384C176.07 149.384 167.86 154.031 161.508 160.196C158.323 163.288 155.581 166.784 153.633 170.313C151.688 173.838 150.517 177.427 150.517 180.696H151.517ZM183.379 150.384C188.485 150.384 193.025 153.857 195.908 159.022C198.786 164.18 199.956 170.94 198.365 177.32L199.335 177.562C200.992 170.919 199.775 163.9 196.781 158.535C193.791 153.178 188.972 149.384 183.379 149.384V150.384Z" fill="white"/>
<path d="M193.395 176.911C190.954 186.699 181.409 191.6 173.34 191.998C164.961 192.41 157.443 188.849 157.443 179.358C157.443 169.868 171.06 156.198 181.767 156.198C189.808 156.198 195.836 167.123 193.395 176.911Z" fill="url(#paint12_linear)"/>
<path d="M179.205 174.877L174.036 177.861L174.036 171.893L179.205 174.877Z" fill="#05B514"/>
<defs>
<filter id="filter0_d" x="121" y="30" width="305.501" height="440.67" filterUnits="userSpaceOnUse" color-interpolation-filters="sRGB">
<feFlood flood-opacity="0" result="BackgroundImageFix"/>
<feColorMatrix in="SourceAlpha" type="matrix" values="0 0 0 0 0 0 0 0 0 0 0 0 0 0 0 0 0 0 127 0"/>
<feOffset dx="10" dy="8"/>
<feGaussianBlur stdDeviation="17.5"/>
<feColorMatrix type="matrix" values="0 0 0 0 0.624167 0 0 0 0 0.7 0 0 0 0 0.686212 0 0 0 0.2 0"/>
<feBlend mode="normal" in2="BackgroundImageFix" result="effect1_dropShadow"/>
<feBlend mode="normal" in="SourceGraphic" in2="effect1_dropShadow" result="shape"/>
</filter>
<filter id="filter1_d" x="309" y="79" width="329" height="466.177" filterUnits="userSpaceOnUse" color-interpolation-filters="sRGB">
<feFlood flood-opacity="0" result="BackgroundImageFix"/>
<feColorMatrix in="SourceAlpha" type="matrix" values="0 0 0 0 0 0 0 0 0 0 0 0 0 0 0 0 0 0 127 0"/>
<feOffset dx="15" dy="10"/>
<feGaussianBlur stdDeviation="22.5"/>
<feColorMatrix type="matrix" values="0 0 0 0 0.623529 0 0 0 0 0.698039 0 0 0 0 0.686275 0 0 0 0.27 0"/>
<feBlend mode="normal" in2="BackgroundImageFix" result="effect1_dropShadow"/>
<feBlend mode="normal" in="SourceGraphic" in2="effect1_dropShadow" result="shape"/>
</filter>
<filter id="filter2_d" x="478" y="0.616211" width="357.517" height="511.062" filterUnits="userSpaceOnUse" color-interpolation-filters="sRGB">
<feFlood flood-opacity="0" result="BackgroundImageFix"/>
<feColorMatrix in="SourceAlpha" type="matrix" values="0 0 0 0 0 0 0 0 0 0 0 0 0 0 0 0 0 0 127 0"/>
<feOffset dx="15" dy="10"/>
<feGaussianBlur stdDeviation="22.5"/>
<feColorMatrix type="matrix" values="0 0 0 0 0.624167 0 0 0 0 0.7 0 0 0 0 0.686212 0 0 0 0.27 0"/>
<feBlend mode="normal" in2="BackgroundImageFix" result="effect1_dropShadow"/>
<feBlend mode="normal" in="SourceGraphic" in2="effect1_dropShadow" result="shape"/>
</filter>
<filter id="filter3_d" x="3.05176e-05" y="67" width="370.686" height="257.583" filterUnits="userSpaceOnUse" color-interpolation-filters="sRGB">
<feFlood flood-opacity="0" result="BackgroundImageFix"/>
<feColorMatrix in="SourceAlpha" type="matrix" values="0 0 0 0 0 0 0 0 0 0 0 0 0 0 0 0 0 0 127 0"/>
<feOffset dx="10" dy="14"/>
<feGaussianBlur stdDeviation="22"/>
<feColorMatrix type="matrix" values="0 0 0 0 0.363368 0 0 0 0 0.541667 0 0 0 0 0.515785 0 0 0 0.5 0"/>
<feBlend mode="normal" in2="BackgroundImageFix" result="effect1_dropShadow"/>
<feBlend mode="normal" in="SourceGraphic" in2="effect1_dropShadow" result="shape"/>
</filter>
<linearGradient id="paint0_linear" x1="227.998" y1="412.208" x2="386.82" y2="449.07" gradientUnits="userSpaceOnUse">
<stop stop-color="#FFEC00"/>
<stop offset="1" stop-color="#FFEC00" stop-opacity="0"/>
</linearGradient>
<linearGradient id="paint1_linear" x1="587.343" y1="272.771" x2="943.817" y2="331.143" gradientUnits="userSpaceOnUse">
<stop stop-color="#28FEFE" stop-opacity="0.3"/>
<stop offset="1" stop-color="#30B3C7"/>
</linearGradient>
<linearGradient id="paint2_linear" x1="903.621" y1="263.532" x2="540.443" y2="378.05" gradientUnits="userSpaceOnUse">
<stop stop-color="#3BB64B" stop-opacity="0.39"/>
<stop offset="1" stop-color="#3BB64B"/>
</linearGradient>
<linearGradient id="paint3_linear" x1="550" y1="99.5001" x2="632.51" y2="115.451" gradientUnits="userSpaceOnUse">
<stop stop-color="#1E9AED"/>
<stop offset="1" stop-color="#62CEFD"/>
</linearGradient>
<linearGradient id="paint4_linear" x1="620.496" y1="175.687" x2="666.478" y2="190.777" gradientUnits="userSpaceOnUse">
<stop stop-color="#456460"/>
<stop offset="1" stop-color="#395450"/>
</linearGradient>
<linearGradient id="paint5_linear" x1="703.69" y1="154.264" x2="718.703" y2="176.887" gradientUnits="userSpaceOnUse">
<stop stop-color="#53D8FF"/>
<stop offset="1" stop-color="#3840F7"/>
</linearGradient>
<linearGradient id="paint6_linear" x1="779.782" y1="5.54109" x2="659.184" y2="163.302" gradientUnits="userSpaceOnUse">
<stop stop-color="#FFF579"/>
<stop offset="1" stop-color="#85E860"/>
</linearGradient>
<linearGradient id="paint7_linear" x1="830.58" y1="-7.47122" x2="634.072" y2="92.0717" gradientUnits="userSpaceOnUse">
<stop stop-color="#33C72C"/>
<stop offset="1" stop-color="#35C82E"/>
</linearGradient>
<linearGradient id="paint8_linear" x1="825.203" y1="-18.0857" x2="628.695" y2="81.457" gradientUnits="userSpaceOnUse">
<stop stop-color="#2FC52A"/>
<stop offset="1" stop-color="#31C62B"/>
</linearGradient>
<linearGradient id="paint9_linear" x1="819.769" y1="-28.8133" x2="623.26" y2="70.7299" gradientUnits="userSpaceOnUse">
<stop stop-color="#33C72C"/>
<stop offset="1" stop-color="#2FC52A"/>
</linearGradient>
<linearGradient id="paint10_linear" x1="120.035" y1="83.3844" x2="354.855" y2="278.739" gradientUnits="userSpaceOnUse">
<stop stop-color="#01B213"/>
<stop offset="1" stop-color="#78EE1B"/>
</linearGradient>
<linearGradient id="paint11_linear" x1="62.4155" y1="110.812" x2="306.707" y2="248.942" gradientUnits="userSpaceOnUse">
<stop stop-color="#30CE2D"/>
<stop offset="1" stop-color="#3DCA33" stop-opacity="0.96"/>
</linearGradient>
<linearGradient id="paint12_linear" x1="175.693" y1="156.198" x2="167.228" y2="195.299" gradientUnits="userSpaceOnUse">
<stop stop-color="white"/>
<stop offset="1" stop-color="white"/>
</linearGradient>
</defs>
</svg>
