<svg width="1757" height="1634" viewBox="0 0 1757 1634" fill="none" xmlns="http://www.w3.org/2000/svg">
<path opacity="0.35" d="M570.417 1054.86C473.412 1207.46 871.805 1542.41 985.596 1344.31C1070.19 1172.77 1200.99 1229.24 1257.59 1137.51C1333.14 1015.87 1083.82 851.081 1083.97 850.914C793.031 667.935 632.935 826.583 570.417 1054.86Z" fill="url(#paint0_linear)"/>
<path d="M453.782 1412.42C374.984 1417.07 284.228 1362.54 259.974 1342.39L394.498 624.507C556.655 809.633 804.443 759.545 962.207 818.095C1138.68 883.587 1225.35 971.459 1263.18 1053.9C1301 1136.33 1310.43 1308.81 1201.76 1388.87C1093.08 1468.93 955.513 1369.63 812.327 1363.12C669.141 1356.6 532.579 1407.78 453.782 1412.42Z" fill="url(#paint1_linear)"/>
<path d="M879.58 207.9H845.92L877.6 132.99H899.05L879.58 207.9ZM933.04 207.9H899.38L931.06 132.99H952.51L933.04 207.9Z" fill="#89EA54" fill-opacity="0.4"/>
<path d="M1740.83 535.39C1743.47 547.05 1744.79 557.17 1744.79 565.75C1744.79 578.07 1741.93 587.31 1736.21 593.47C1730.49 599.85 1722.13 603.04 1711.13 603.04L1711.13 589.84C1716.85 589.84 1721.03 588.3 1723.67 585.22C1726.09 582.14 1727.3 577.52 1727.3 571.36L1727.3 563.77L1710.8 563.77L1710.8 535.39L1740.83 535.39ZM1696.28 535.39C1698.92 547.05 1700.24 557.17 1700.24 565.75C1700.24 578.07 1697.38 587.31 1691.66 593.47C1685.94 599.85 1677.58 603.04 1666.58 603.04L1666.58 589.84C1672.3 589.84 1676.48 588.3 1679.12 585.22C1681.54 582.14 1682.75 577.52 1682.75 571.36L1682.75 563.77L1666.25 563.77L1666.25 535.39L1696.28 535.39Z" fill="#89EA54" fill-opacity="0.4"/>
<path opacity="0.19" d="M296.67 664.876C422.608 787.925 731.638 617.438 592.092 465.099C448.22 344.454 510.547 269.477 434.688 196.748C334.129 99.944 186.005 221.116 185.871 220.949C-3.56717 367.828 100.487 540.518 296.67 664.876Z" fill="url(#paint2_linear)"/>
<defs>
<linearGradient id="paint0_linear" x1="535.95" y1="958.377" x2="1316.41" y2="999.419" gradientUnits="userSpaceOnUse">
<stop stop-color="#28FEFE" stop-opacity="0.3"/>
<stop offset="1" stop-color="#30B3C7"/>
</linearGradient>
<linearGradient id="paint1_linear" x1="940.998" y1="1493.51" x2="659.934" y2="819.946" gradientUnits="userSpaceOnUse">
<stop stop-color="#01B213"/>
<stop offset="1" stop-color="#91ED58"/>
</linearGradient>
<linearGradient id="paint2_linear" x1="547.827" y1="686.999" x2="555.371" y2="328.283" gradientUnits="userSpaceOnUse">
<stop stop-color="#28FEFE" stop-opacity="0.3"/>
<stop offset="1" stop-color="#30B3C7"/>
</linearGradient>
</defs>
</svg>
