<svg width="180" height="177" viewBox="0 0 180 177" fill="none" xmlns="http://www.w3.org/2000/svg">
<path d="M78.5497 175.636L78.5743 176.136L78.5497 175.636ZM175.899 101.92C164.062 149.384 117.751 173.205 78.5251 175.137L78.5743 176.136C118.075 174.19 164.891 150.195 176.869 102.162L175.899 101.92ZM78.5251 175.137C58.1558 176.14 38.8901 172.308 24.7322 162.512C10.599 152.733 1.5 136.975 1.5 113.978H0.5C0.5 137.278 9.73962 153.355 24.1632 163.334C38.562 173.297 58.0711 177.145 78.5743 176.136L78.5251 175.137ZM1.5 113.978C1.5 102.517 5.61395 89.753 12.6334 77.0354C19.6501 64.3225 29.5539 51.6857 41.0915 40.4865C64.1853 18.07 93.7309 1.5 119.658 1.5V0.5C93.3565 0.5 63.573 17.2707 40.3949 39.769C28.7966 51.0272 18.8287 63.7413 11.7579 76.5521C4.6897 89.3581 0.5 102.291 0.5 113.978H1.5ZM119.658 1.5C139.029 1.5 156.047 14.6621 166.76 33.8581C177.469 53.0459 181.82 78.1762 175.899 101.92L176.869 102.162C182.856 78.1559 178.458 52.7659 167.633 33.3707C156.814 13.9836 139.515 0.5 119.658 0.5V1.5Z" fill="white" fill-opacity="0.2"/>
<path d="M82.0966 149.684L82.1212 150.184L82.0966 149.684ZM149.221 98.7042C141.063 131.417 109.137 147.852 82.072 149.185L82.1212 150.184C109.461 148.837 141.892 132.228 150.191 98.9462L149.221 98.7042ZM82.072 149.185C68.0163 149.877 54.7401 147.231 44.9934 140.488C35.2714 133.761 29.0051 122.92 29.0051 107.075H28.0051C28.0051 123.223 34.412 134.382 44.4244 141.31C54.4121 148.22 67.9317 150.882 82.1212 150.184L82.072 149.185ZM29.0051 107.075C29.0051 99.1892 31.8364 90.3947 36.6797 81.6197C41.5204 72.8495 48.3546 64.1286 56.3183 56.3984C72.2646 40.9199 92.6456 29.5 110.505 29.5V28.5C92.2712 28.5 71.6523 40.1206 55.6218 55.6809C47.5973 63.4701 40.699 72.2682 35.8042 81.1365C30.9122 89.9998 28.0051 98.9631 28.0051 107.075H29.0051ZM110.505 29.5C123.816 29.5 135.534 38.5462 142.921 51.7822C150.303 65.0101 153.303 82.3366 149.221 98.7042L150.191 98.9462C154.339 82.3163 151.292 64.7302 143.794 51.2949C136.3 37.8676 124.302 28.5 110.505 28.5V29.5Z" fill="white"/>
<path d="M135.885 97.4832C129.7 122.285 105.513 134.704 85.067 135.711C63.8368 136.756 44.7856 127.731 44.7856 103.684C44.7856 79.636 79.2907 45 106.42 45C126.796 45 142.07 72.681 135.885 97.4832Z" fill="url(#paint0_linear)"/>
<path d="M99.927 92.3296L86.8309 99.8906L86.8309 84.7686L99.927 92.3296Z" fill="#05B514"/>
<defs>
<linearGradient id="paint0_linear" x1="91.0305" y1="45" x2="69.5814" y2="144.076" gradientUnits="userSpaceOnUse">
<stop stop-color="white"/>
<stop offset="1" stop-color="white"/>
</linearGradient>
</defs>
</svg>
