<svg width="360" height="863" viewBox="0 0 360 863" fill="none" xmlns="http://www.w3.org/2000/svg">
<path opacity="0.35" d="M-151.327 377.541C-232.718 505.578 101.548 786.62 197.022 620.404C268.002 476.479 377.742 523.855 425.234 446.895C488.624 344.831 279.432 206.567 279.558 206.427C35.4533 52.9016 -98.8727 186.013 -151.327 377.541Z" fill="url(#paint0_linear)"/>
<path d="M-249.188 677.554C-315.302 681.453 -391.45 635.702 -411.799 618.795L-298.929 16.4643C-162.874 171.791 45.0284 129.765 177.398 178.891C325.462 233.841 398.182 307.569 429.921 376.737C461.661 445.905 469.572 590.615 378.388 657.79C287.204 724.965 171.782 641.65 51.6439 636.182C-68.4941 630.713 -183.074 673.655 -249.188 677.554Z" fill="url(#paint1_linear)"/>
<defs>
<linearGradient id="paint0_linear" x1="-180.246" y1="296.592" x2="474.59" y2="331.028" gradientUnits="userSpaceOnUse">
<stop stop-color="#28FEFE" stop-opacity="0.3"/>
<stop offset="1" stop-color="#30B3C7"/>
</linearGradient>
<linearGradient id="paint1_linear" x1="159.603" y1="745.585" x2="-76.2194" y2="180.444" gradientUnits="userSpaceOnUse">
<stop stop-color="#01B213"/>
<stop offset="1" stop-color="#91ED58"/>
</linearGradient>
</defs>
</svg>
