<svg width="76" height="83" viewBox="0 0 76 83" fill="none" xmlns="http://www.w3.org/2000/svg">
<path fill-rule="evenodd" clip-rule="evenodd" d="M4.40501 14.9351H70.7738C73.2025 14.9351 75.1788 16.9114 75.1788 19.3401V63.0965C75.1788 65.5251 73.2025 67.5015 70.7738 67.5015H4.40501C1.97638 67.5015 0 65.5251 0 63.0965V19.3401C0 16.9114 1.97638 14.9351 4.40501 14.9351ZM49.1888 78.3672H61.0823C62.2981 78.3672 63.2848 79.354 63.2848 80.5697C63.2848 81.7855 62.2981 82.7722 61.0823 82.7722H14.0955C12.8798 82.7722 11.893 81.7855 11.893 80.5697C11.893 79.354 12.8798 78.3672 14.0955 78.3672H25.9891V71.9065H49.1888V78.3672Z" fill="url(#paint0_linear)"/>
<rect x="9.56787" width="56.0424" height="41.0066" rx="2" fill="url(#paint1_linear)"/>
<path d="M37.6169 27.2299C37.1596 26.9154 36.5307 26.8011 35.7303 26.8964C35.273 26.9535 34.8728 27.0679 34.5584 27.2584C34.2344 27.4395 33.9867 27.6586 33.8056 27.9254C33.6246 28.1827 33.5007 28.4781 33.434 28.7925C33.3673 29.1069 33.3578 29.4213 33.3959 29.7358C33.4436 30.1169 33.5388 30.4313 33.6913 30.6791C33.8437 30.9363 34.0248 31.1364 34.2535 31.2793C34.4821 31.4223 34.7394 31.5271 35.0443 31.5652C35.3397 31.6128 35.6732 31.6128 36.0257 31.5747C36.464 31.5175 36.8356 31.4223 37.131 31.2698C37.4264 31.1174 37.6646 30.9363 37.8456 30.7458C38.0266 30.5457 38.16 30.336 38.2458 30.1169C38.3315 29.8978 38.3887 29.6881 38.4173 29.4976C38.4459 29.307 38.4554 29.1355 38.4554 29.0021C38.4459 28.8592 38.4459 28.7734 38.4363 28.7353C38.3411 28.0493 38.0743 27.5443 37.6169 27.2299Z" fill="white"/>
<path d="M42.5334 12.442C42.4286 11.594 42.1713 10.8889 41.7426 10.3172C41.3233 9.74554 40.8183 9.28818 40.2276 8.9547C39.6463 8.62121 39.0175 8.40206 38.341 8.29725C37.674 8.19244 37.0356 8.17338 36.4544 8.24008C35.978 8.29725 35.4921 8.41159 35.0156 8.58309C34.5392 8.7546 34.0819 8.97375 33.6531 9.25007C33.2243 9.52639 32.8337 9.84082 32.4716 10.2124C32.1191 10.584 31.8237 10.9937 31.5855 11.4416C31.4711 11.6798 31.4235 11.8989 31.4426 12.099C31.4807 12.3753 31.5474 12.6231 31.6617 12.8517C31.776 13.0709 31.9094 13.2614 32.0714 13.4234C32.2239 13.5759 32.4049 13.6997 32.5859 13.776C32.7765 13.8522 32.9671 13.8808 33.1481 13.8617C33.3672 13.8331 33.5769 13.7569 33.777 13.6426C33.9771 13.5187 34.139 13.3472 34.2724 13.1185C34.301 12.9947 34.3772 12.8231 34.5011 12.604C34.6345 12.3849 34.787 12.1657 34.9775 11.9466C35.1681 11.7369 35.3682 11.5464 35.5969 11.3749C35.816 11.2034 36.0447 11.1081 36.2638 11.0795C36.5497 11.0414 36.845 11.0509 37.1404 11.0985C37.4358 11.1462 37.7216 11.2415 37.9789 11.3939C38.2362 11.5464 38.4553 11.756 38.6459 12.0132C38.8269 12.28 38.9508 12.6135 38.9984 13.0232C39.0842 13.7474 39.027 14.3858 38.8079 14.967C38.5887 15.5387 38.3029 16.0818 37.9313 16.5963C37.5692 17.1013 37.1595 17.6063 36.7212 18.0922C36.2829 18.5782 35.8732 19.1118 35.5111 19.6739C35.149 20.2361 34.8632 20.8554 34.6631 21.5415C34.4535 22.2275 34.4058 22.9993 34.5202 23.8759C34.5583 24.2094 34.7203 24.4285 34.9871 24.5429C35.2634 24.6572 35.5683 24.6953 35.9018 24.6572C36.2162 24.6191 36.4925 24.4666 36.7307 24.1903C36.9689 23.914 37.1309 23.5424 37.2167 23.066C37.4263 22.4752 37.7216 21.9416 38.1028 21.4652C38.4839 20.9888 38.8936 20.5315 39.3319 20.0741C39.7702 19.6263 40.199 19.1689 40.6373 18.7021C41.0661 18.2352 41.4472 17.7111 41.7711 17.1204C42.0951 16.5296 42.3333 15.8627 42.4857 15.1195C42.6477 14.3477 42.6573 13.4615 42.5334 12.442Z" fill="white"/>
<defs>
<linearGradient id="paint0_linear" x1="36.906" y1="10.151" x2="36.906" y2="90.1139" gradientUnits="userSpaceOnUse">
<stop stop-color="#0DB817"/>
<stop offset="1" stop-color="#93F055"/>
</linearGradient>
<linearGradient id="paint1_linear" x1="42.8904" y1="44.8857" x2="42.4849" y2="-2.77371" gradientUnits="userSpaceOnUse">
<stop stop-color="#4CB0FD"/>
<stop offset="1" stop-color="#32D1F4" stop-opacity="0.72"/>
</linearGradient>
</defs>
</svg>
