<svg width="424" height="417" viewBox="0 0 424 417" fill="none" xmlns="http://www.w3.org/2000/svg">
<path fill-rule="evenodd" clip-rule="evenodd" d="M236.988 26.0724C251.135 33.2877 265.117 41.7894 278.683 51.3056C277.672 74.5595 276.551 97.6202 275.43 115.484C272.365 167.6 264.447 256.856 263.095 271.96C261.573 273.979 262.003 278.577 262.879 280.168C262.654 287.396 260.545 354.857 258.207 415.779C251.898 415.872 245.524 415.756 239.106 415.44C238.399 415.405 237.69 415.373 236.979 415.344C237.369 365.647 238.039 315.34 238.039 315.34L237.911 315.287C238.009 313.862 238.417 307.199 237.891 301.241L237.671 301.272C237.727 300.974 237.742 300.792 237.742 300.792C237.742 300.792 236.853 220.67 236.853 135.177C236.853 101.914 236.898 62.6231 236.988 26.0724ZM225.417 303.18C224.86 306.412 225.152 314.256 225.444 316.459L225.447 316.462C225.477 318.43 225.689 333.387 225.925 369.444C221.311 358.411 214.835 344.981 207.856 334.402C197.366 318.504 177.809 298.779 165.656 288.707C169.723 302.663 178.749 328.698 190.963 346.471C200.672 360.6 215.478 373.857 223.639 381.164L223.651 381.174C224.517 381.95 225.309 382.659 226.011 383.294L226.026 385.964L226.037 387.852C226.073 394.278 226.089 403.627 226.09 415.089C215.171 415.005 203.883 415.373 192.451 415.746H192.45H192.45H192.449H192.449C107.363 418.522 14.3368 421.556 6.36838 240.365C-21.9587 126.775 47.9961 0 141.314 0C146.25 0 151.24 0.250403 156.271 0.738217C175.648 36.3623 193.579 70.1226 212.263 105.65C215.302 111.305 218.309 117.039 221.33 122.799C222.742 125.491 224.158 128.19 225.581 130.889C225.584 133.577 225.588 136.275 225.591 138.982C225.633 170.439 225.627 197.156 225.598 219.313C222.04 210.721 216.159 198.565 209.816 189.421C201.861 177.952 187.197 163.833 178.122 156.661C181.339 166.816 188.394 185.737 197.645 198.551C204.999 208.737 216.072 218.198 222.175 223.412L222.175 223.413C223.639 224.663 224.816 225.669 225.588 226.382C225.505 278.208 225.294 302.807 225.294 302.807C225.294 302.807 225.324 302.95 225.417 303.18ZM225.561 117.821C222.927 112.801 220.299 107.806 217.647 102.871C199.669 68.7159 182.285 35.9558 163.641 1.61714C183.891 4.4767 204.707 11.0253 225.322 20.4343C225.417 49.5897 225.505 82.7489 225.561 117.821ZM297.288 282.909L297.234 282.922C297.323 283.045 297.365 283.113 297.365 283.113C297.365 283.113 296.285 298.611 294.627 322.674C297.59 313.59 300.464 304.716 302.596 298.129C305.545 288.945 307.565 282.885 308.004 281.676C315.277 261.276 329.635 215.861 329.674 215.333L329.963 215.445C331.887 207.783 335.369 195.047 338.884 185.122C343.505 172.079 355.512 155.615 362.334 147.836C360.936 158.984 356.574 178.269 351.042 190.647C346.094 201.719 338.256 213.737 332.935 220.7L332.72 221.38L332.719 221.384L332.717 221.391L332.717 221.391L332.716 221.392C330.37 228.813 325.387 244.572 320.488 259.442C328.591 253.172 343.7 241.996 356.254 234.124C361.869 230.604 368.846 227.412 376.111 224.652C377.946 217.875 379.793 211.033 381.656 204.112C384.707 192.788 387.601 181.712 390.58 170.309L390.763 169.609C369.928 135.213 340.663 101.573 307.367 73.4413C303.96 143.776 298.374 257.026 297.484 275.063L297.542 275.059L297.589 275.056C297.589 274.833 298.708 279.756 297.365 282.89L297.33 282.899L297.288 282.909ZM380.42 223.075C392.052 218.975 403.875 216.013 411.604 214.602C403.13 222.914 388.476 235.026 374.783 243.846C366.22 275.301 357.851 305.643 349.343 336.255C353.132 334.639 356.576 333.278 359.428 332.214C356.034 336.985 351.192 343.045 345.741 349.203C343.4 357.61 341.046 366.052 338.67 374.557C336.641 381.952 334.553 389.405 332.456 396.892C331.803 399.223 331.149 401.557 330.496 403.894C384.974 384.848 423.588 342.03 423.588 268.762C423.588 239.369 412.332 206.522 393.467 174.158C390.796 184.373 388.162 194.409 385.365 204.755C383.706 210.918 382.058 217.022 380.42 223.075ZM334.961 373.914C336.705 367.677 338.435 361.479 340.155 355.31C334.411 361.381 328.337 367.157 322.761 371.456C312.865 379.087 299.725 386.388 289.944 391.123C289.444 398.5 288.934 406.034 288.42 413.648C301.576 411.936 314.247 409.187 326.205 405.335C327.052 402.302 327.9 399.272 328.747 396.248C330.844 388.762 332.932 381.309 334.961 373.914ZM311.294 357.677C302.902 364.405 295.944 372.15 290.811 378.377C291.697 365.36 292.543 353.006 293.314 341.77C296.421 332.367 300.313 320.427 304.953 306.19L307.021 299.845C308.092 296.504 309.063 293.429 309.873 290.866L309.873 290.864C311.12 286.916 311.983 284.183 312.241 283.556C313.898 279.021 315.889 273.238 317.985 266.981C328.954 264.454 348.885 258.026 364.376 249.957C366.234 248.989 368.154 247.911 370.111 246.745C361.652 277.799 353.376 307.791 344.922 338.191C333.895 343.146 320.972 349.919 311.294 357.677Z" fill="url(#paint0_linear)" fill-opacity="0.21"/>
<defs>
<linearGradient id="paint0_linear" x1="385.501" y1="386.174" x2="72.1891" y2="138.506" gradientUnits="userSpaceOnUse">
<stop stop-color="#6BD418" stop-opacity="0.21"/>
<stop offset="1" stop-color="#6BD518" stop-opacity="0.57"/>
</linearGradient>
</defs>
</svg>
