<svg width="1115" height="807" viewBox="0 0 1115 807" fill="none" xmlns="http://www.w3.org/2000/svg">
<g opacity="0.3">
<path d="M285.016 549.798C224.964 525.296 248.632 469.365 256.121 464.413C264.244 457.371 284.057 456.193 296.759 499.041C309.24 524.542 338.611 515.746 349.474 516.562C372.678 518.307 388.965 526.762 385.529 536.935C382.093 547.108 345.069 574.3 285.016 549.798Z" fill="url(#paint0_linear)"/>
</g>
<path opacity="0.35" d="M595.702 430.664C535.935 541.508 699.215 732.572 770.955 589.713C826.363 467.204 884.54 493.974 919.644 427.495C966.43 339.288 860.414 249.848 860.501 249.723C735.996 151.614 645.322 271.913 595.702 430.664Z" fill="url(#paint1_linear)"/>
<path d="M715.685 174.687C760.204 182.842 831.54 220.642 862.763 276.291C894.495 332.881 916.338 430.277 850.669 522.524C809.192 580.643 726.345 639.492 616.22 631.287C523.414 624.385 493.621 524.428 533.452 459.899C588.33 370.99 561.969 346.308 574.382 260.032C586.794 173.756 665.95 165.48 715.685 174.687Z" fill="url(#paint2_linear)" fill-opacity="0.7"/>
<g filter="url(#filter0_d)">
<rect x="146" y="153" width="235.501" height="370.67" rx="10" fill="white"/>
</g>
<path d="M363.641 289.851V172.202L164.432 172.202L164.432 289.851L363.641 289.851Z" fill="#D1E8E3"/>
<path d="M334.66 289.836H303.538L363.623 229.75V260.873L334.66 289.836ZM256.664 289.836H267.243L363.639 193.44V182.861L256.664 289.836ZM164.43 216.159V226.738L218.982 172.187H208.403L164.43 216.159ZM273.597 172.202H227.496L164.446 235.252V281.353L273.597 172.202Z" fill="#E2F1EE"/>
<path d="M363.639 289.836H164.43V304.751H363.639V289.836Z" fill="#1E4843"/>
<path d="M358.215 294.897H303.695C303.269 294.897 302.922 294.55 302.922 294.124C302.922 293.699 303.269 293.352 303.695 293.352H358.215C358.641 293.352 358.988 293.699 358.988 294.124C358.972 294.55 358.641 294.897 358.215 294.897Z" fill="white"/>
<path d="M303.679 294.897H170.137C169.712 294.897 169.365 294.55 169.365 294.124C169.365 293.699 169.712 293.352 170.137 293.352H303.679C304.105 293.352 304.452 293.699 304.452 294.124C304.452 294.55 304.105 294.897 303.679 294.897Z" fill="#03D218"/>
<path d="M305.318 294.124C305.318 295.023 304.593 295.748 303.695 295.748C302.796 295.748 302.071 295.023 302.071 294.124C302.071 293.225 302.796 292.5 303.695 292.5C304.577 292.5 305.318 293.225 305.318 294.124Z" fill="#FFFDFF"/>
<path d="M179.424 298.429H180.464V301.992H179.424V298.429ZM177.422 301.992H178.462V298.429H177.422V301.992ZM187.323 298.429V299.864L185.131 298.429V301.992L187.323 300.558V301.992H188.363V298.429H187.323ZM169.523 298.429V301.992H170.563V300.558L172.755 301.992V298.429L170.563 299.864V298.429H169.523Z" fill="white"/>
<path d="M351.073 300.21C351.073 301.187 350.269 301.991 349.291 301.991C348.314 301.991 347.51 301.187 347.51 300.21C347.51 299.232 348.314 298.428 349.291 298.428C350.269 298.428 351.073 299.232 351.073 300.21Z" fill="white"/>
<path d="M354.526 299.753V299.059H355.819V298.428H353.895V299.753H354.526Z" fill="#FFFDFF"/>
<path d="M356.86 299.059H358.152V299.753H358.783V298.428H356.86V299.059Z" fill="#FFFDFF"/>
<path d="M355.819 301.471H354.526V300.793H353.895V302.102H355.819V301.471Z" fill="#FFFDFF"/>
<path d="M358.152 300.793V301.471H356.86V302.102H358.783V300.793H358.152Z" fill="white"/>
<path d="M252.51 425.429H169.115C166.354 425.429 164.115 427.667 164.115 430.429V468.73C164.115 471.491 166.354 473.73 169.115 473.73H252.51C255.272 473.73 257.51 471.491 257.51 468.73V430.429C257.51 427.667 255.272 425.429 252.51 425.429Z" fill="#E3F2EF"/>
<path d="M253.536 482.815H168.755C166.577 482.815 164.812 484.58 164.812 486.758C164.812 488.935 166.577 490.701 168.755 490.701H253.536C255.714 490.701 257.479 488.935 257.479 486.758C257.479 484.58 255.714 482.815 253.536 482.815Z" fill="#E3F2EF"/>
<path d="M241.691 496.221H168.755C166.577 496.221 164.812 497.987 164.812 500.164C164.812 502.342 166.577 504.107 168.755 504.107H241.691C243.869 504.107 245.634 502.342 245.634 500.164C245.634 497.987 243.869 496.221 241.691 496.221Z" fill="#E3F2EF"/>
<path d="M252.51 330.671H169.115C166.354 330.671 164.115 332.91 164.115 335.671V373.972C164.115 376.733 166.354 378.972 169.115 378.972H252.51C255.272 378.972 257.51 376.733 257.51 373.972V335.671C257.51 332.91 255.272 330.671 252.51 330.671Z" fill="#E3F2EF"/>
<path d="M253.536 388.238H168.755C166.577 388.238 164.812 390.003 164.812 392.181C164.812 394.359 166.577 396.124 168.755 396.124H253.536C255.714 396.124 257.479 394.359 257.479 392.181C257.479 390.003 255.714 388.238 253.536 388.238Z" fill="#E3F2EF"/>
<path d="M241.691 401.644H168.755C166.577 401.644 164.812 403.41 164.812 405.587C164.812 407.765 166.577 409.53 168.755 409.53H241.691C243.869 409.53 245.634 407.765 245.634 405.587C245.634 403.41 243.869 401.644 241.691 401.644Z" fill="#E3F2EF"/>
<path d="M358.416 425.429H275.021C272.259 425.429 270.021 427.667 270.021 430.429V468.73C270.021 471.491 272.259 473.73 275.021 473.73H358.416C361.177 473.73 363.416 471.491 363.416 468.73V430.429C363.416 427.667 361.177 425.429 358.416 425.429Z" fill="#E3F2EF"/>
<path d="M359.442 482.869H273.963C271.786 482.869 270.02 484.635 270.02 486.812C270.02 488.99 271.786 490.755 273.963 490.755H359.442C361.619 490.755 363.385 488.99 363.385 486.812C363.385 484.635 361.619 482.869 359.442 482.869Z" fill="#E3F2EF"/>
<path d="M346.9 496.276H273.963C271.786 496.276 270.02 498.041 270.02 500.218C270.02 502.396 271.786 504.161 273.963 504.161H346.9C349.078 504.161 350.843 502.396 350.843 500.218C350.843 498.041 349.078 496.276 346.9 496.276Z" fill="#E3F2EF"/>
<path d="M358.416 330.671H275.021C272.259 330.671 270.021 332.91 270.021 335.671V373.972C270.021 376.733 272.259 378.972 275.021 378.972H358.416C361.177 378.972 363.416 376.733 363.416 373.972V335.671C363.416 332.91 361.177 330.671 358.416 330.671Z" fill="#E3F2EF"/>
<path d="M359.442 388.238H273.963C271.786 388.238 270.02 390.003 270.02 392.181C270.02 394.359 271.786 396.124 273.963 396.124H359.442C361.619 396.124 363.385 394.359 363.385 392.181C363.385 390.003 361.619 388.238 359.442 388.238Z" fill="#E3F2EF"/>
<path d="M346.9 401.644H273.963C271.786 401.644 270.02 403.41 270.02 405.587C270.02 407.765 271.786 409.53 273.963 409.53H346.9C349.078 409.53 350.843 407.765 350.843 405.587C350.843 403.41 349.078 401.644 346.9 401.644Z" fill="#E3F2EF"/>
<path d="M217.765 355.057L207.314 361.091L207.314 349.023L217.765 355.057Z" fill="white"/>
<path d="M323.67 355.057L313.219 361.091L313.219 349.023L323.67 355.057Z" fill="white"/>
<path d="M217.765 449.815L207.314 455.849L207.314 443.781L217.765 449.815Z" fill="white"/>
<path d="M323.67 449.815L313.219 455.849L313.219 443.781L323.67 449.815Z" fill="white"/>
<g filter="url(#filter1_d)">
<rect x="339" y="210" width="239" height="376.177" rx="10" fill="white"/>
<path d="M559.875 348.884V229.487L357.707 229.487V348.884L559.875 348.884Z" fill="#DAEAE7"/>
<path d="M530.464 348.869H498.879L559.857 287.89V319.475L530.464 348.869ZM451.309 348.869H462.045L559.873 251.041V240.304L451.309 348.869ZM357.705 274.098V284.834L413.067 229.472H402.331L357.705 274.098ZM468.493 229.488H421.707L357.721 293.474V340.26L468.493 229.488Z" fill="white" fill-opacity="0.4"/>
<path d="M559.873 348.869H357.705V364.005H559.873V348.869Z" fill="#1E4843"/>
<path d="M554.369 354.005H499.038C498.606 354.005 498.254 353.653 498.254 353.221C498.254 352.789 498.606 352.437 499.038 352.437H554.369C554.801 352.437 555.153 352.789 555.153 353.221C555.137 353.653 554.801 354.005 554.369 354.005Z" fill="white"/>
<path d="M499.022 354.005H363.497C363.065 354.005 362.713 353.653 362.713 353.221C362.713 352.789 363.065 352.437 363.497 352.437H499.022C499.454 352.437 499.806 352.789 499.806 353.221C499.806 353.653 499.454 354.005 499.022 354.005Z" fill="#03D218"/>
<path d="M500.686 353.221C500.686 354.133 499.95 354.869 499.038 354.869C498.126 354.869 497.39 354.133 497.39 353.221C497.39 352.309 498.126 351.573 499.038 351.573C499.934 351.573 500.686 352.309 500.686 353.221Z" fill="#FFFDFF"/>
<path d="M372.921 357.59H373.977V361.206H372.921V357.59ZM370.889 361.206H371.945V357.59H370.889V361.206ZM380.937 357.59V359.046L378.713 357.59V361.206L380.937 359.75V361.206H381.993V357.59H380.937ZM362.873 357.59V361.206H363.929V359.75L366.153 361.206V357.59L363.929 359.046V357.59H362.873Z" fill="white"/>
<path d="M547.12 359.397C547.12 360.389 546.304 361.205 545.312 361.205C544.32 361.205 543.504 360.389 543.504 359.397C543.504 358.405 544.32 357.589 545.312 357.589C546.304 357.589 547.12 358.405 547.12 359.397Z" fill="white"/>
<path d="M550.625 358.933V358.229H551.937V357.589H549.985V358.933H550.625Z" fill="#FFFDFF"/>
<path d="M552.992 358.229H554.305V358.933H554.945V357.589H552.992V358.229Z" fill="#FFFDFF"/>
<path d="M551.937 360.677H550.625V359.989H549.985V361.317H551.937V360.677Z" fill="#FFFDFF"/>
<path d="M554.305 359.989V360.677H552.992V361.317H554.945V359.989H554.305Z" fill="white"/>
<path d="M447.168 486.476H362.385C359.624 486.476 357.385 488.715 357.385 491.476V530.495C357.385 533.256 359.624 535.495 362.385 535.495H447.168C449.929 535.495 452.168 533.256 452.168 530.495V491.476C452.168 488.715 449.929 486.476 447.168 486.476Z" fill="#E3F2EF"/>
<path d="M448.134 544.715H362.093C359.883 544.715 358.092 546.506 358.092 548.716C358.092 550.926 359.883 552.718 362.093 552.718H448.134C450.344 552.718 452.136 550.926 452.136 548.716C452.136 546.506 450.344 544.715 448.134 544.715Z" fill="#E3F2EF"/>
<path d="M436.114 558.32H362.093C359.883 558.32 358.092 560.112 358.092 562.322C358.092 564.532 359.883 566.323 362.093 566.323H436.114C438.324 566.323 440.115 564.532 440.115 562.322C440.115 560.112 438.324 558.32 436.114 558.32Z" fill="#E3F2EF"/>
<path d="M447.168 390.31H362.385C359.624 390.31 357.385 392.549 357.385 395.31V434.329C357.385 437.09 359.624 439.329 362.385 439.329H447.168C449.929 439.329 452.168 437.09 452.168 434.329V395.31C452.168 392.549 449.929 390.31 447.168 390.31Z" fill="#E3F2EF"/>
<path d="M448.134 448.733H362.093C359.883 448.733 358.092 450.524 358.092 452.734C358.092 454.944 359.883 456.736 362.093 456.736H448.134C450.344 456.736 452.136 454.944 452.136 452.734C452.136 450.524 450.344 448.733 448.134 448.733Z" fill="#E3F2EF"/>
<path d="M436.114 462.338H362.093C359.883 462.338 358.092 464.13 358.092 466.34C358.092 468.55 359.883 470.341 362.093 470.341H436.114C438.324 470.341 440.115 468.55 440.115 466.34C440.115 464.13 438.324 462.338 436.114 462.338Z" fill="#E3F2EF"/>
<path d="M554.646 486.476H469.864C467.102 486.476 464.864 488.715 464.864 491.476V530.495C464.864 533.256 467.102 535.495 469.864 535.495H554.646C557.408 535.495 559.646 533.256 559.646 530.495V491.476C559.646 488.715 557.408 486.476 554.646 486.476Z" fill="#E3F2EF"/>
<path d="M555.613 544.77H468.865C466.655 544.77 464.864 546.562 464.864 548.772C464.864 550.982 466.655 552.773 468.865 552.773H555.613C557.823 552.773 559.615 550.982 559.615 548.772C559.615 546.562 557.823 544.77 555.613 544.77Z" fill="#E3F2EF"/>
<path d="M542.886 558.376H468.865C466.655 558.376 464.864 560.167 464.864 562.377C464.864 564.587 466.655 566.379 468.865 566.379H542.886C545.096 566.379 546.887 564.587 546.887 562.377C546.887 560.167 545.096 558.376 542.886 558.376Z" fill="#E3F2EF"/>
<path d="M554.646 390.31H469.864C467.102 390.31 464.864 392.549 464.864 395.31V434.329C464.864 437.09 467.102 439.329 469.864 439.329H554.646C557.408 439.329 559.646 437.09 559.646 434.329V395.31C559.646 392.549 557.408 390.31 554.646 390.31Z" fill="#E3F2EF"/>
<path d="M555.613 448.733H468.865C466.655 448.733 464.864 450.524 464.864 452.734C464.864 454.944 466.655 456.736 468.865 456.736H555.613C557.823 456.736 559.615 454.944 559.615 452.734C559.615 450.524 557.823 448.733 555.613 448.733Z" fill="#E3F2EF"/>
<path d="M542.886 462.338H468.865C466.655 462.338 464.864 464.13 464.864 466.34C464.864 468.55 466.655 470.341 468.865 470.341H542.886C545.096 470.341 546.887 468.55 546.887 466.34C546.887 464.13 545.096 462.338 542.886 462.338Z" fill="#E3F2EF"/>
<path d="M411.831 415.059L401.225 421.183L401.225 408.935L411.831 415.059Z" fill="white"/>
<path d="M519.311 415.059L508.704 421.183L508.704 408.935L519.311 415.059Z" fill="white"/>
<path d="M411.831 511.225L401.225 517.348L401.225 505.101L411.831 511.225Z" fill="white"/>
<path d="M519.311 511.225L508.704 517.348L508.704 505.101L519.311 511.225Z" fill="white"/>
</g>
<path d="M506.352 314.698C506.174 313.924 505.783 313.087 505.445 312.367C505.409 312.278 505.365 312.198 505.32 312.109C504.599 310.685 504.599 308.995 505.382 307.607C505.409 307.562 505.436 307.509 505.462 307.464C505.952 306.584 506.156 305.818 506.156 304.813C506.156 304.048 505.658 302.891 504.644 302.304C504.421 302.171 504.19 302.064 503.941 301.966C503.487 301.779 503.176 301.343 503.176 300.854L503.185 299.484L498.79 299.466L498.781 300.836C498.781 301.334 498.469 301.761 498.007 301.939C497.757 302.037 497.526 302.144 497.304 302.277C496.289 302.856 495.773 304.003 495.773 304.777C495.765 305.783 495.969 306.548 496.45 307.438C496.476 307.482 496.494 307.527 496.521 307.571C497.295 308.977 497.286 310.658 496.556 312.091C496.512 312.18 496.467 312.26 496.432 312.34C496.094 313.061 495.684 313.888 495.506 314.662C495.337 315.418 495.293 316.219 495.293 317.029L495.266 323.426C495.266 324.253 495.809 325.09 496.903 325.721C497.793 326.237 498.923 326.549 500.08 326.647C500.605 326.691 501.138 326.691 501.663 326.656C502.82 326.558 503.932 326.264 504.831 325.748C505.925 325.116 506.477 324.298 506.486 323.462L506.503 318.835C506.503 318.257 506.53 317.652 506.53 317.056C506.548 316.255 506.512 315.454 506.352 314.698Z" fill="#C3EFC0"/>
<path opacity="0.3" d="M506.352 314.698C506.174 313.924 505.783 313.087 505.445 312.367C505.409 312.278 505.365 312.198 505.32 312.109C504.599 310.685 504.599 308.995 505.382 307.607C505.409 307.562 505.436 307.509 505.462 307.464C505.952 306.584 506.156 305.818 506.156 304.813C506.156 304.048 505.658 302.891 504.644 302.304C504.421 302.171 504.19 302.064 503.941 301.966C503.487 301.779 503.176 301.343 503.176 300.854L503.185 299.484L498.79 299.466L498.781 300.836C498.781 301.334 498.469 301.761 498.007 301.939C497.757 302.037 497.526 302.144 497.304 302.277C496.289 302.856 495.773 304.003 495.773 304.777C495.765 305.783 495.969 306.548 496.45 307.438C496.476 307.482 496.494 307.527 496.521 307.571C497.295 308.977 497.286 310.658 496.556 312.091C496.512 312.18 496.467 312.26 496.432 312.34C496.094 313.061 495.684 313.888 495.506 314.662C495.337 315.418 495.293 316.219 495.293 317.029L495.266 323.426C495.266 324.253 495.809 325.09 496.903 325.721C497.793 326.237 498.923 326.549 500.08 326.647C500.605 326.691 501.138 326.691 501.663 326.656C502.82 326.558 503.932 326.264 504.831 325.748C505.925 325.116 506.477 324.298 506.486 323.462L506.503 318.835C506.503 318.257 506.53 317.652 506.53 317.056C506.548 316.255 506.512 315.454 506.352 314.698Z" fill="#56D53F"/>
<path opacity="0.1" d="M505.382 307.607C505.409 307.562 505.436 307.509 505.462 307.464C505.88 306.699 506.094 306.032 506.147 305.222C506.049 305.543 505.907 305.845 505.729 306.13C505.222 306.948 504.492 307.589 503.745 308.194C502.989 308.808 502.153 309.511 502.064 310.472C501.975 311.406 502.633 312.26 503.389 312.829C504.137 313.399 505.017 313.79 505.694 314.449C505.987 314.733 506.236 315.063 506.459 315.41C506.432 315.169 506.396 314.929 506.343 314.707C506.165 313.933 505.774 313.096 505.436 312.376C505.4 312.287 505.355 312.207 505.311 312.118C504.599 310.685 504.608 309.004 505.382 307.607Z" fill="#56D53F"/>
<path d="M498.051 300.996V301.735C498.042 302.18 498.335 302.616 498.923 302.963C500.088 303.639 501.974 303.648 503.149 302.98C503.442 302.811 503.656 302.616 503.807 302.411C503.95 302.206 504.03 301.984 504.03 301.762V301.014C504.03 300.952 504.021 300.881 504.003 300.818C503.932 300.445 503.647 300.08 503.158 299.795C503.14 299.786 503.131 299.778 503.113 299.769C501.948 299.119 500.088 299.119 498.932 299.778C498.433 300.062 498.149 300.418 498.077 300.792C498.06 300.854 498.051 300.925 498.051 300.996Z" fill="#C3EFC0"/>
<path opacity="0.1" d="M498.051 300.996V301.735C498.042 302.18 498.335 302.616 498.923 302.963C500.088 303.639 501.974 303.648 503.149 302.98C503.442 302.811 503.656 302.616 503.807 302.411C503.95 302.206 504.03 301.984 504.03 301.762V301.014C504.03 300.952 504.021 300.881 504.003 300.818C503.932 300.445 503.647 300.08 503.158 299.795C503.14 299.786 503.131 299.778 503.113 299.769C501.948 299.119 500.088 299.119 498.932 299.778C498.433 300.062 498.149 300.418 498.077 300.792C498.06 300.854 498.051 300.925 498.051 300.996Z" fill="#56D53F"/>
<path opacity="0.2" d="M503.14 302.224C504.306 301.557 504.315 300.463 503.149 299.786C501.983 299.11 500.097 299.101 498.923 299.769C497.757 300.436 497.748 301.53 498.914 302.207C500.088 302.892 501.975 302.892 503.14 302.224Z" fill="#56D53F"/>
<path d="M498.054 300.133V300.578C498.054 300.649 498.063 300.72 498.08 300.783C498.152 301.156 498.436 301.521 498.926 301.806C499.451 302.108 500.109 302.277 500.794 302.313C501.639 302.358 502.502 302.197 503.152 301.824C503.445 301.655 503.659 301.468 503.81 301.254C503.908 301.112 503.979 300.961 504.006 300.809C504.024 300.747 504.033 300.676 504.033 300.605V300.142C504.033 299.697 503.748 299.261 503.161 298.914C503.107 298.888 503.054 298.852 503.001 298.825C501.826 298.229 500.056 298.256 498.935 298.897C498.347 299.244 498.054 299.688 498.054 300.133Z" fill="#C3EFC0"/>
<path opacity="0.1" d="M498.054 300.133V300.578C498.054 300.649 498.063 300.72 498.08 300.783C498.152 301.156 498.436 301.521 498.926 301.806C499.451 302.108 500.109 302.277 500.794 302.313C501.639 302.358 502.502 302.197 503.152 301.824C503.445 301.655 503.659 301.468 503.81 301.254C503.908 301.112 503.979 300.961 504.006 300.809C504.024 300.747 504.033 300.676 504.033 300.605V300.142C504.033 299.697 503.748 299.261 503.161 298.914C503.107 298.888 503.054 298.852 503.001 298.825C501.826 298.229 500.056 298.256 498.935 298.897C498.347 299.244 498.054 299.688 498.054 300.133Z" fill="#56D53F"/>
<path d="M498.051 300.116C498.051 301.068 499.377 301.833 501.032 301.842C502.678 301.851 504.021 301.085 504.021 300.133C504.021 299.181 502.696 298.416 501.041 298.407C499.395 298.407 498.06 299.173 498.051 300.116Z" fill="#C3EFC0"/>
<path d="M500.017 298.354L500.008 299.902C500.008 299.928 500.008 299.946 500.017 299.973C500.044 300.097 500.142 300.231 500.311 300.329C500.489 300.436 500.72 300.489 500.96 300.507C501.254 300.525 501.556 300.462 501.779 300.338C501.876 300.275 501.957 300.213 502.01 300.142C502.046 300.089 502.063 300.044 502.081 299.991C502.09 299.964 502.09 299.946 502.09 299.92L502.099 298.371C502.099 298.22 502.001 298.069 501.796 297.944C501.779 297.935 501.761 297.927 501.743 297.918C501.334 297.713 500.72 297.722 500.337 297.944C500.115 298.051 500.008 298.202 500.017 298.354Z" fill="#C3EFC0"/>
<path opacity="0.1" d="M500.017 298.354L500.008 299.902C500.008 299.928 500.008 299.946 500.017 299.973C500.044 300.097 500.142 300.231 500.311 300.329C500.489 300.436 500.72 300.489 500.96 300.507C501.254 300.525 501.556 300.462 501.779 300.338C501.876 300.275 501.957 300.213 502.01 300.142C502.046 300.089 502.063 300.044 502.081 299.991C502.09 299.964 502.09 299.946 502.09 299.92L502.099 298.371C502.099 298.22 502.001 298.069 501.796 297.944C501.779 297.935 501.761 297.927 501.743 297.918C501.334 297.713 500.72 297.722 500.337 297.944C500.115 298.051 500.008 298.202 500.017 298.354Z" fill="#56D53F"/>
<path d="M500.017 298.354C500.017 298.683 500.48 298.95 501.049 298.95C501.619 298.95 502.081 298.692 502.09 298.362C502.09 298.033 501.628 297.766 501.058 297.766C500.48 297.757 500.017 298.024 500.017 298.354Z" fill="#C3EFC0"/>
<path opacity="0.5" d="M500.684 298.353C500.684 298.469 500.844 298.567 501.049 298.567C501.254 298.567 501.414 298.478 501.414 298.353C501.414 298.238 501.254 298.14 501.049 298.14C500.844 298.14 500.684 298.238 500.684 298.353Z" fill="#C3EFC0"/>
<path opacity="0.3" d="M500.684 298.353C500.684 298.469 500.844 298.567 501.049 298.567C501.254 298.567 501.414 298.478 501.414 298.353C501.414 298.238 501.254 298.14 501.049 298.14C500.844 298.14 500.684 298.238 500.684 298.353Z" fill="#56D53F"/>
<g opacity="0.3">
<g opacity="0.3">
<path opacity="0.3" d="M411.071 302.266C411.053 302.266 411.035 302.257 411.017 302.257L408.971 301.679C408.82 301.634 408.731 301.483 408.775 301.332C408.82 301.181 408.98 301.092 409.122 301.136L411.168 301.714C411.32 301.759 411.409 301.91 411.364 302.061C411.329 302.195 411.204 302.275 411.071 302.266Z" fill="black"/>
</g>
<g opacity="0.3">
<path opacity="0.3" d="M408.97 303.85C408.855 303.841 408.748 303.761 408.721 303.636C408.686 303.485 408.775 303.334 408.926 303.289L410.99 302.764C411.141 302.729 411.293 302.818 411.337 302.969C411.373 303.12 411.284 303.271 411.132 303.316L409.068 303.841C409.033 303.85 409.006 303.85 408.97 303.85Z" fill="black"/>
</g>
<g opacity="0.3">
<path opacity="0.3" d="M410.012 305.754C409.949 305.745 409.887 305.718 409.834 305.674C409.727 305.558 409.727 305.38 409.843 305.273L411.373 303.787C411.489 303.681 411.666 303.681 411.773 303.796C411.88 303.912 411.88 304.09 411.764 304.197L410.234 305.683C410.172 305.736 410.092 305.763 410.012 305.754Z" fill="black"/>
</g>
<g opacity="0.3">
<path opacity="0.3" d="M411.862 306.884C411.845 306.884 411.827 306.875 411.809 306.875C411.658 306.83 411.569 306.679 411.613 306.528L412.192 304.481C412.236 304.33 412.396 304.241 412.538 304.286C412.69 304.33 412.779 304.481 412.734 304.633L412.156 306.679C412.12 306.812 411.996 306.892 411.862 306.884Z" fill="black"/>
</g>
</g>
<path d="M467.735 275.121C467.798 275.085 462.619 278.074 462.619 278.074L451.391 279.694C451.391 279.694 443.188 267.38 441.934 265.449C440.679 263.51 439.211 262.273 435.812 262.273L436.453 272.095C436.56 272.416 443.348 280.77 447.823 285.326C449.407 286.936 450.377 287.345 452.85 286.66C459.158 284.916 466.792 279.729 467.415 278.43C468.216 276.74 467.673 275.147 467.735 275.121Z" fill="#FFC2A3"/>
<path d="M465.628 268.893C466.296 266.704 469.036 264.889 471.598 265.61C471.963 265.707 472.355 265.868 472.755 266.099C475.237 267.531 477.248 271.019 477.248 273.884C477.248 274.418 477.177 274.898 477.043 275.308C476.376 277.496 473.636 279.302 471.073 278.582C470.709 278.484 470.317 278.324 469.926 278.092C467.443 276.66 465.433 273.172 465.433 270.307C465.433 269.774 465.504 269.302 465.628 268.893Z" fill="#455A64"/>
<path d="M469.925 278.093C467.443 276.66 465.432 273.172 465.432 270.308C465.432 267.443 467.443 266.277 469.925 267.71C472.408 269.142 474.418 272.63 474.418 275.495C474.427 278.359 472.417 279.525 469.925 278.093Z" fill="#5D6E6B"/>
<path d="M469.925 270.886C468.973 270.334 468.199 270.779 468.199 271.882C468.199 272.986 468.973 274.329 469.925 274.881C470.877 275.432 471.651 274.987 471.651 273.884C471.66 272.781 470.886 271.437 469.925 270.886Z" fill="#455A64"/>
<path d="M469.339 272.541C469.339 272.914 469.605 273.377 469.926 273.564C470.077 273.653 470.219 273.662 470.326 273.617C470.344 273.608 470.353 273.599 470.371 273.59C470.468 273.519 470.522 273.395 470.522 273.217C470.522 272.843 470.255 272.38 469.926 272.194C469.774 272.105 469.632 272.096 469.534 272.14L469.49 272.167C469.392 272.238 469.339 272.363 469.339 272.541Z" fill="#5D6E6B"/>
<path d="M459.835 278.021C459.835 278.395 460.102 278.857 460.422 279.044C460.52 279.098 460.6 279.124 460.68 279.124C460.751 279.124 460.814 279.107 460.876 279.071L470.316 273.617C470.334 273.608 470.343 273.599 470.36 273.59C470.458 273.519 470.512 273.395 470.512 273.217C470.512 272.843 470.245 272.38 469.915 272.193C469.764 272.104 469.622 272.096 469.524 272.14L469.48 272.167L460.04 277.621C459.915 277.701 459.835 277.816 459.835 278.021Z" fill="#FAFAFA"/>
<path d="M450.573 277.585C451.241 275.397 453.981 273.582 456.543 274.302C456.908 274.4 457.3 274.56 457.7 274.792C460.182 276.224 462.193 279.712 462.193 282.577C462.193 283.111 462.122 283.591 461.988 284C461.321 286.189 458.581 287.995 456.018 287.274C455.654 287.177 455.262 287.016 454.871 286.785C452.388 285.353 450.378 281.865 450.378 279C450.369 278.466 450.44 277.995 450.573 277.585Z" fill="#455A64"/>
<path d="M454.87 286.785C452.388 285.353 450.377 281.865 450.377 279C450.377 276.135 452.388 274.97 454.87 276.402C457.353 277.834 459.364 281.322 459.364 284.187C459.364 287.052 457.353 288.217 454.87 286.785Z" fill="#5D6E6B"/>
<path d="M454.871 279.578C453.919 279.027 453.145 279.471 453.145 280.575C453.145 281.678 453.919 283.021 454.871 283.573C455.823 284.125 456.597 283.68 456.597 282.577C456.597 281.473 455.823 280.13 454.871 279.578Z" fill="#455A64"/>
<path d="M454.275 281.233C454.275 281.607 454.541 282.069 454.862 282.256C455.013 282.345 455.155 282.354 455.262 282.31C455.28 282.301 455.289 282.292 455.307 282.283C455.405 282.212 455.458 282.087 455.458 281.909C455.458 281.536 455.191 281.073 454.862 280.886C454.711 280.797 454.568 280.788 454.47 280.833L454.426 280.859C454.337 280.931 454.275 281.055 454.275 281.233Z" fill="#5D6E6B"/>
<path d="M452.842 282.06C452.842 282.434 453.109 282.897 453.429 283.084C453.527 283.137 453.607 283.164 453.687 283.164C453.758 283.164 453.82 283.146 453.883 283.11L455.262 282.318C455.279 282.31 455.288 282.301 455.306 282.292C455.404 282.221 455.457 282.096 455.457 281.918C455.457 281.544 455.19 281.082 454.861 280.895C454.71 280.806 454.568 280.797 454.47 280.842L454.425 280.868L453.046 281.66C452.922 281.731 452.842 281.847 452.842 282.06Z" fill="#FAFAFA"/>
<path d="M452.842 282.061C452.842 282.434 453.109 282.897 453.429 283.084C453.58 283.173 453.722 283.182 453.829 283.137C453.847 283.128 453.856 283.119 453.874 283.11C453.972 283.039 454.025 282.915 454.025 282.737C454.025 282.363 453.758 281.9 453.429 281.714C453.278 281.625 453.135 281.616 453.037 281.66L452.993 281.687C452.904 281.749 452.842 281.883 452.842 282.061Z" fill="#E1E1E1"/>
<path d="M464.462 280.948C466.633 279.293 468.714 279.302 468.341 275.254C468.02 273.448 467.585 273.341 465.832 272.656C465.067 272.362 464.052 272.131 463.43 272.834C463.358 272.914 463.287 273.012 463.207 273.074C463.038 273.208 462.816 273.234 462.611 273.27C462.211 273.332 461.784 273.43 461.517 273.733C461.312 273.964 461.232 274.284 461.036 274.515C460.867 274.72 460.618 274.836 460.413 275.014C460.102 275.29 459.906 275.69 459.897 276.108C459.897 276.642 460.2 276.98 460.556 277.318L461.65 276.686C462.095 276.375 463.02 277.478 462.629 278.057C461.997 278.991 464.462 280.948 464.462 280.948Z" fill="#FFC2A3"/>
<path d="M439.175 289.089C439.869 286.278 440.073 279.276 440.073 279.276L419.761 279.881C419.761 279.881 420.606 283.27 420.864 284.311C421.122 285.344 421.158 287.336 421.158 287.336C421.158 287.336 423.133 290.984 428.97 291.634C434.806 292.274 439.175 289.089 439.175 289.089Z" fill="#FFC2A3"/>
<path d="M440.065 279.276C440.092 279.498 439.95 281.616 439.95 281.616C437.352 283.804 429.024 284.908 420.287 281.998L418.436 274.845C418.436 274.845 424.726 272.087 420.483 262.825L425.047 262.469L433.152 262.264C435.118 262.264 435.812 262.264 435.812 262.264C437.049 263.43 439.425 266.028 441.293 269.515C442.352 271.508 443.704 274.409 440.065 279.276Z" fill="#455A64"/>
<path d="M397.439 333.878C396.371 334.661 393.889 334.848 391.709 333.825C389.52 332.801 388.622 329.91 389.031 327.641C389.52 324.901 390.881 323.397 391.228 321.751C391.575 320.105 391.22 317.81 391.744 316.342C392.252 314.945 393.355 314.233 394.245 313.877C394.974 313.583 395.802 313.672 396.487 314.073L397.136 314.455L397.439 333.878Z" fill="#5D6E6B"/>
<path d="M399.991 323.415L398.292 328.495C398.292 328.495 399.359 332.125 398.763 333.086C397.873 334.51 396.299 334.768 393.656 333.958C390.631 333.033 389.919 330.301 390.071 328.175C390.284 325.15 393.087 322.863 392.767 319.954C392.606 318.53 392.802 316.92 393.585 315.692C394.466 314.313 395.898 314.055 397.393 314.509C398.674 314.891 399.795 315.701 400.881 316.457C401.183 316.671 401.495 316.884 401.717 317.178C401.913 317.427 402.046 317.73 402.144 318.041C402.34 318.664 402.393 319.331 402.313 319.972C402.233 320.577 401.851 320.933 401.486 321.413C400.996 322.089 400.489 322.748 399.991 323.415Z" fill="#5D6E6B"/>
<path d="M407.305 321.004C407.198 320.959 402.02 317.65 401.46 317.4C400.899 317.151 399.529 316.795 398.203 319.865C397.26 322.054 398.621 322.863 398.621 322.863L404.68 326.476L407.305 321.004Z" fill="#FFC2A3"/>
<path d="M398.301 328.495C397.572 328.122 396.042 327.606 394.769 327.704C394.369 327.739 394.057 327.365 394.182 326.983V326.974C394.253 326.76 394.44 326.609 394.662 326.591C395.481 326.529 397.474 326.502 398.791 327.588C399.138 328.317 398.301 328.495 398.301 328.495Z" fill="#9FAEAC"/>
<path d="M398.924 326.173C398.221 325.755 396.708 325.168 395.436 325.203C395.036 325.212 394.742 324.83 394.884 324.456V324.447C394.964 324.233 395.16 324.1 395.391 324.091C396.21 324.073 398.203 324.153 399.466 325.301C399.769 326.04 398.924 326.173 398.924 326.173Z" fill="#9FAEAC"/>
<path opacity="0.3" d="M398.301 328.495C397.572 328.122 396.042 327.606 394.769 327.704C394.369 327.739 394.057 327.365 394.182 326.983V326.974C394.253 326.76 394.44 326.609 394.662 326.591C395.481 326.529 397.474 326.502 398.791 327.588C399.138 328.317 398.301 328.495 398.301 328.495Z" fill="#5D6E6B"/>
<path opacity="0.3" d="M398.924 326.173C398.221 325.755 396.708 325.168 395.436 325.203C395.036 325.212 394.742 324.83 394.884 324.456V324.447C394.964 324.233 395.16 324.1 395.391 324.091C396.21 324.073 398.203 324.153 399.466 325.301C399.769 326.04 398.924 326.173 398.924 326.173Z" fill="#5D6E6B"/>
<path d="M451.703 334.42L458.429 331.751C458.314 330.016 457.886 327.703 458.331 323.157L450.698 321.706V329.349L451.703 334.42Z" fill="#FFC2A3"/>
<path d="M470.902 340.328C471.098 340.738 471.036 341.494 470.813 341.974C470.582 342.455 468.064 343.878 464.657 343.647C461.258 343.416 458.918 342.045 457.619 341.191C456.32 340.328 454.976 340.168 453.286 340.079C451.604 339.981 449.389 339.145 449.024 338.353C448.65 337.561 449.078 336.209 449.078 336.209L470.902 340.328Z" fill="#5D6E6B"/>
<path d="M457.175 329.714C457.264 329.696 457.353 329.678 457.442 329.661C457.593 329.634 457.744 329.598 457.886 329.634C458.055 329.669 458.189 329.794 458.305 329.919C458.669 330.319 458.892 330.826 459.176 331.28C459.888 332.445 461.383 333.406 463.02 334.287C464.132 334.883 465.218 335.346 466.365 335.862C467.54 336.387 469.088 336.707 470.004 337.33C471.339 338.229 471.508 340.488 469.987 341.378C468.679 342.152 465.227 342.98 461.605 341.956C459.63 341.396 457.442 339.287 454.852 339.092C453.206 338.967 450.092 338.504 449.034 337.25C448.642 336.698 449.167 334.937 449.594 333.424C450.066 331.769 450.235 328.851 450.786 328.993C450.786 328.993 450.635 329.403 450.849 329.625C451.053 329.839 451.818 330.292 452.041 330.479C452.45 330.826 452.699 331.315 452.948 331.787C453.055 331.992 453.189 332.205 453.42 332.294C453.696 332.401 453.9 332.223 454.15 332.107C454.452 331.965 454.808 331.938 455.137 332.036C455.102 331.707 455.048 331.387 454.968 331.066C454.941 330.96 454.915 330.853 454.941 330.755C454.977 330.648 455.066 330.577 455.155 330.515C455.796 330.079 456.445 329.874 457.175 329.714Z" fill="#5D6E6B"/>
<path d="M461.489 333.397C461.489 333.397 461.249 332.766 460.27 332.588C459.523 332.445 458.197 332.997 457.379 333.682C457.041 333.958 457.085 334.483 457.468 334.696C457.699 334.821 457.975 334.785 458.171 334.616C458.704 334.136 459.914 333.282 461.489 333.397Z" fill="#9FAEAC"/>
<path d="M463.811 334.696C463.811 334.696 463.331 333.94 462.37 333.958C462.37 333.958 460.412 334.011 459.202 335.141C458.891 335.426 458.918 335.915 459.282 336.12C459.505 336.244 459.772 336.209 459.959 336.04C460.501 335.55 461.596 334.527 463.811 334.696Z" fill="#9FAEAC"/>
<path d="M466.373 335.862C466.373 335.862 465.831 335.177 464.879 335.194C464.879 335.194 463.055 335.266 461.845 336.387C461.533 336.671 461.56 337.161 461.925 337.365C462.147 337.49 462.414 337.454 462.601 337.285C463.144 336.805 464.158 335.702 466.373 335.862Z" fill="#9FAEAC"/>
<path opacity="0.3" d="M461.489 333.397C461.489 333.397 461.249 332.766 460.27 332.588C459.523 332.445 458.197 332.997 457.379 333.682C457.041 333.958 457.085 334.483 457.468 334.696C457.699 334.821 457.975 334.785 458.171 334.616C458.704 334.136 459.914 333.282 461.489 333.397Z" fill="#5D6E6B"/>
<path opacity="0.3" d="M463.811 334.696C463.811 334.696 463.331 333.94 462.37 333.958C462.37 333.958 460.412 334.011 459.202 335.141C458.891 335.426 458.918 335.915 459.282 336.12C459.505 336.244 459.772 336.209 459.959 336.04C460.501 335.55 461.596 334.527 463.811 334.696Z" fill="#5D6E6B"/>
<path opacity="0.3" d="M466.373 335.862C466.373 335.862 465.831 335.177 464.879 335.194C464.879 335.194 463.055 335.266 461.845 336.387C461.533 336.671 461.56 337.161 461.925 337.365C462.147 337.49 462.414 337.454 462.601 337.285C463.144 336.805 464.158 335.702 466.373 335.862Z" fill="#5D6E6B"/>
<path d="M456.302 296.056C451.187 294.908 438.971 292.355 438.971 292.355L439.166 289.089C434.745 291.376 425.438 290.735 421.15 287.337L420.473 290.798C420.473 290.798 418.071 293.565 416.274 297.124C415.295 299.063 413.649 302.097 415.286 309.153C416.247 313.299 417.52 324.207 417.52 324.207L405.01 319.598C405.01 319.598 403.925 319.776 403.026 322.125C402.492 323.513 402.297 324.847 402.857 325.541C407.43 329.153 414.85 335.061 422.351 338.371C427.351 340.293 430.02 336.075 430.269 334.518C431.212 328.548 432.298 309.357 432.298 309.357L449.007 308.823C448.455 311.991 450.706 324.376 450.706 324.376C450.706 324.376 454.825 326.164 458.233 324.331C458.233 324.331 460.52 310.078 460.733 305.327C460.982 300.024 461.249 297.168 456.302 296.056Z" fill="#9FAEAC"/>
<path opacity="0.15" d="M449.007 308.814C449.007 307.96 449.576 304.971 451.507 303.378C451.507 303.378 448.855 303.85 447.636 308.859L449.007 308.814Z" fill="#5D6E6B"/>
<path opacity="0.15" d="M417.52 324.207C417.52 324.207 417.858 328.922 418.774 331.218C418.774 331.218 416.514 327.143 416.256 323.744L417.52 324.207Z" fill="#5D6E6B"/>
<path opacity="0.15" d="M438.971 292.355L439.167 289.098C434.745 291.385 425.438 290.735 421.15 287.345L420.474 290.806C420.509 290.842 423.258 293.689 430.421 294.054C437.627 294.419 438.971 292.355 438.971 292.355Z" fill="#5D6E6B"/>
<path opacity="0.15" d="M432.298 309.348C432.298 309.348 432.414 303.965 427.921 300.024C427.921 300.024 431.774 301.795 433.055 307.471C433.055 307.471 435.929 306.136 437.414 302.142C437.414 302.142 436.961 306.145 434.656 308.414L441.605 309.055L432.298 309.348Z" fill="#5D6E6B"/>
<path d="M430.047 237.005C423.873 237.005 418.872 242.014 418.872 248.18C418.872 254.354 423.882 259.355 430.047 259.355C436.222 259.355 441.231 254.345 441.231 248.18C441.222 242.014 436.213 237.005 430.047 237.005Z" fill="#485754"/>
<path d="M418.383 243.82C418.783 243.802 419.192 243.82 419.593 243.891C419.726 243.909 419.878 243.945 419.958 244.051C420.02 244.132 420.038 244.229 420.047 244.327C420.118 244.923 420.1 245.608 419.878 246.178C419.717 246.587 419.228 246.801 418.917 247.103C417.707 248.278 417.609 250.217 418.089 251.836C418.561 253.447 419.504 254.888 420.144 256.445C420.785 258.029 421.088 259.88 420.216 261.437C419.878 262.042 419.255 262.495 419.335 263.234C419.424 264.115 420.189 264.951 420.518 265.752C420.901 266.677 420.99 267.7 420.883 268.697C420.758 269.924 420.34 271.134 419.548 272.078C418.383 273.457 416.434 274.133 414.673 273.75C414.308 273.67 413.934 273.546 413.641 273.314C413.116 272.896 412.902 272.202 412.617 271.588C411.692 269.613 409.753 268.172 409.165 266.072C408.543 263.848 409.61 261.508 410.918 259.613C411.532 258.723 412.217 257.851 412.511 256.819C412.911 255.422 412.564 253.927 412.466 252.477C412.377 251.062 412.537 249.621 412.947 248.26C413.24 247.272 413.694 246.133 414.468 245.431C415.527 244.452 416.942 243.882 418.383 243.82Z" fill="#485754"/>
<path d="M437.049 242.121C438.277 242.85 439.781 245.947 439.603 252.424C439.451 257.913 437.672 259.257 436.773 259.648C435.875 260.04 434.158 259.791 432.485 259.506L432.467 262.798C432.467 262.798 434.771 265.494 434.62 267.006C434.469 268.519 431.266 268.857 429.113 267.371C426.951 265.885 425.145 263.002 425.145 263.002L425.216 255.431C425.216 255.431 424.228 256.383 422.564 254.915C421.185 253.705 420.732 251.667 421.817 250.582C422.894 249.496 424.887 249.799 425.634 251.356C425.634 251.356 428.303 251.463 431.871 249.523C435.421 247.592 436.809 244.247 437.049 242.121Z" fill="#FFC2A3"/>
<g opacity="0.5">
<path opacity="0.5" d="M432.485 259.506C430.724 259.266 427.094 258.207 426.533 256.774C426.533 256.774 426.72 257.673 427.797 258.607C428.873 259.541 432.476 260.6 432.476 260.6L432.485 259.506Z" fill="#FFC2A3"/>
</g>
<path d="M420.474 262.834C417.013 263.083 415.58 263.519 413.658 267.798C411.923 271.642 407.777 281.589 406.736 283.813C405.695 286.028 405.5 286.918 406.372 289.24C407.074 291.135 412.929 301.999 413.569 303.583C414.21 305.166 414.495 306.768 415.58 308.618C416.675 310.469 418.392 312.266 419.753 312.693C421.773 313.325 424.388 312.444 424.477 311.225C424.566 310.006 421.515 307.969 420.687 305.264C420.687 305.264 421.595 305.869 422.413 306.207C423.232 306.545 424.148 306.474 424.424 306.003C424.7 305.54 423.872 305.255 423.143 304.526C422.707 304.09 421.933 303.12 420.945 302.266C420.278 301.688 419.184 301.51 418.685 300.878C418.418 300.54 417.217 297.595 416.31 294.97C415.189 291.723 413.721 287.39 413.721 287.39L419.735 274.854C419.753 274.854 424.486 270.165 420.474 262.834Z" fill="#FFC2A3"/>
<g filter="url(#filter2_d)">
<rect x="508" y="131.616" width="267.517" height="421.062" rx="10" fill="white"/>
</g>
<path d="M755.229 287.072V153.428L528.938 153.428V287.072H755.229Z" fill="#EAF5F3"/>
<path d="M722.309 287.054H686.955L755.209 218.8V254.154L722.309 287.054ZM633.709 287.054H645.727L755.227 177.554V165.536L633.709 287.054ZM528.937 203.362V215.379L590.905 153.411H578.887L528.937 203.362ZM652.944 153.429H600.576L528.955 225.05V277.419L652.944 153.429Z" fill="white" fill-opacity="0.4"/>
<path d="M755.227 287.054H528.936V303.997H755.227V287.054Z" fill="#1E4843"/>
<path d="M749.066 292.803H687.134C686.65 292.803 686.256 292.409 686.256 291.926C686.256 291.442 686.65 291.048 687.134 291.048H749.066C749.549 291.048 749.943 291.442 749.943 291.926C749.925 292.409 749.549 292.803 749.066 292.803Z" fill="white"/>
<path d="M687.116 292.803H535.419C534.936 292.803 534.542 292.409 534.542 291.926C534.542 291.442 534.936 291.048 535.419 291.048H687.116C687.599 291.048 687.993 291.442 687.993 291.926C687.993 292.409 687.599 292.803 687.116 292.803Z" fill="#03D218"/>
<path d="M688.978 291.926C688.978 292.946 688.154 293.77 687.133 293.77C686.113 293.77 685.289 292.946 685.289 291.926C685.289 290.905 686.113 290.081 687.133 290.081C688.136 290.081 688.978 290.905 688.978 291.926Z" fill="#FFFDFF"/>
<path d="M545.968 296.816H547.15V300.864H545.968V296.816ZM543.694 300.864H544.876V296.816H543.694V300.864ZM554.941 296.816V298.446L552.452 296.816V300.864L554.941 299.234V300.864H556.123V296.816H554.941ZM534.721 296.816V300.864H535.903V299.234L538.392 300.864V296.816L535.903 298.446V296.816H534.721Z" fill="white"/>
<path d="M740.952 298.838C740.952 299.949 740.039 300.862 738.929 300.862C737.818 300.862 736.905 299.949 736.905 298.838C736.905 297.728 737.818 296.815 738.929 296.815C740.039 296.815 740.952 297.728 740.952 298.838Z" fill="white"/>
<path d="M744.875 298.319V297.531H746.343V296.815H744.158V298.319H744.875Z" fill="#FFFDFF"/>
<path d="M747.525 297.531H748.994V298.319H749.71V296.814H747.525V297.531Z" fill="#FFFDFF"/>
<path d="M746.343 300.271H744.874V299.501H744.158V300.987H746.343V300.271Z" fill="#FFFDFF"/>
<path d="M748.994 299.501V300.271H747.525V300.987H749.71V299.501H748.994Z" fill="white"/>
<path d="M630.092 440.64H534C531.238 440.64 529 442.878 529 445.64V490.507C529 493.269 531.238 495.507 534 495.507H630.092C632.853 495.507 635.092 493.269 635.092 490.507V445.64C635.092 442.878 632.853 440.64 630.092 440.64Z" fill="#E3F2EF"/>
<path d="M630.578 505.828H534.271C531.797 505.828 529.792 507.833 529.792 510.307C529.792 512.78 531.797 514.786 534.271 514.786H630.578C633.052 514.786 635.057 512.78 635.057 510.307C635.057 507.833 633.052 505.828 630.578 505.828Z" fill="#E3F2EF"/>
<path d="M617.123 521.056H534.271C531.797 521.056 529.792 523.062 529.792 525.535C529.792 528.009 531.797 530.014 534.271 530.014H617.123C619.597 530.014 621.602 528.009 621.602 525.535C621.602 523.062 619.597 521.056 617.123 521.056Z" fill="#E3F2EF"/>
<path d="M630.092 333H534C531.238 333 529 335.239 529 338V382.867C529 385.629 531.238 387.867 534 387.867H630.092C632.853 387.867 635.092 385.629 635.092 382.867V338C635.092 335.239 632.853 333 630.092 333Z" fill="#E3F2EF"/>
<path d="M630.578 398.393H534.271C531.797 398.393 529.792 400.399 529.792 402.872C529.792 405.346 531.797 407.351 534.271 407.351H630.578C633.052 407.351 635.057 405.346 635.057 402.872C635.057 400.399 633.052 398.393 630.578 398.393Z" fill="#E3F2EF"/>
<path d="M617.123 413.622H534.271C531.797 413.622 529.792 415.627 529.792 418.101C529.792 420.575 531.797 422.58 534.271 422.58H617.123C619.597 422.58 621.602 420.575 621.602 418.101C621.602 415.627 619.597 413.622 617.123 413.622Z" fill="#E3F2EF"/>
<path d="M750.396 440.64H654.304C651.542 440.64 649.304 442.878 649.304 445.64V490.507C649.304 493.269 651.542 495.507 654.304 495.507H750.396C753.157 495.507 755.396 493.269 755.396 490.507V445.64C755.396 442.878 753.157 440.64 750.396 440.64Z" fill="#E3F2EF"/>
<path d="M750.882 505.89H653.783C651.309 505.89 649.304 507.895 649.304 510.369C649.304 512.842 651.309 514.848 653.783 514.848H750.882C753.355 514.848 755.361 512.842 755.361 510.369C755.361 507.895 753.355 505.89 750.882 505.89Z" fill="#E3F2EF"/>
<path d="M736.635 521.118H653.783C651.309 521.118 649.304 523.124 649.304 525.597C649.304 528.071 651.309 530.076 653.783 530.076H736.635C739.109 530.076 741.114 528.071 741.114 525.597C741.114 523.124 739.109 521.118 736.635 521.118Z" fill="#E3F2EF"/>
<path d="M750.396 333H654.304C651.542 333 649.304 335.239 649.304 338V382.867C649.304 385.629 651.542 387.867 654.304 387.867H750.396C753.157 387.867 755.396 385.629 755.396 382.867V338C755.396 335.239 753.157 333 750.396 333Z" fill="#E3F2EF"/>
<path d="M750.882 398.393H653.783C651.309 398.393 649.304 400.399 649.304 402.872C649.304 405.346 651.309 407.351 653.783 407.351H750.882C753.355 407.351 755.361 405.346 755.361 402.872C755.361 400.399 753.355 398.393 750.882 398.393Z" fill="#E3F2EF"/>
<path d="M736.635 413.622H653.783C651.309 413.622 649.304 415.627 649.304 418.101C649.304 420.575 651.309 422.58 653.783 422.58H736.635C739.109 422.58 741.114 420.575 741.114 418.101C741.114 415.627 739.109 413.622 736.635 413.622Z" fill="#E3F2EF"/>
<path d="M589.521 361.142L577.649 367.997L577.649 354.288L589.521 361.142Z" fill="white"/>
<path d="M709.825 361.142L697.953 367.997L697.953 354.288L709.825 361.142Z" fill="white"/>
<path d="M589.521 468.782L577.649 475.637L577.649 461.928L589.521 468.782Z" fill="white"/>
<path d="M709.825 468.782L697.953 475.637L697.953 461.928L709.825 468.782Z" fill="white"/>
<path d="M573.296 280.017C573.929 276.218 576.99 270.519 578.441 268.145H619.201L623.95 287.14H573.296C573.032 286.348 572.663 283.816 573.296 280.017Z" fill="#3B5753"/>
<path fill-rule="evenodd" clip-rule="evenodd" d="M614.426 163.006C600.518 159.749 585.645 162.328 576.169 163.971C574.181 164.316 572.43 164.62 570.976 164.819C567.255 165.339 563.85 167.358 561.387 170.503C551.641 182.911 535.702 224.614 555.44 251.149C558.662 249.187 563.247 246.013 566.338 242.378C563.561 233.751 563.326 222.7 569.168 209.139C569.377 210.206 569.613 211.274 569.901 212.312C576.066 240.839 578.363 263.701 578.363 269.096C578.363 269.818 578.756 270.481 579.385 270.77C589.969 275.444 610.325 272.674 617.163 271.549C618.421 271.347 619.259 270.049 619.076 268.664C619.076 247.102 624.082 216.075 628.397 199.521C651.238 213.28 674.849 213.958 689.819 206.882C690.079 200.755 688.46 195.611 686.551 191.826C664.511 195.122 649.39 182.86 637.948 173.582C636.751 172.611 635.593 171.672 634.472 170.788C626.509 164.51 619.441 162.989 614.426 163.006Z" fill="url(#paint3_linear)"/>
<path d="M566.388 242.262C562.396 245.211 557.449 246.953 553.622 248.245C557.794 255.441 562.005 259.873 569.771 272.175L573.362 281.506L578.968 272.938C578.968 272.938 569.41 258.805 566.388 242.262Z" fill="#FFB995"/>
<path d="M588.148 142.121L585.892 165.095C585.892 165.095 598.818 168.996 608.245 162.35L601.623 141.456L588.148 142.121Z" fill="#FFB995"/>
<path d="M603.156 115.91C603.474 116.199 616.284 141.369 616.284 141.369L601.739 148.392L586.037 126.342C586.066 126.342 597.951 111.026 603.156 115.91Z" fill="#FFB995"/>
<path d="M592.486 126.949C592.225 127.614 592.283 128.365 592.659 128.972L599.917 141.052C600.033 141.225 600.148 141.398 600.322 141.543C601.189 142.352 604.139 144.693 606.423 141.514C608.361 138.797 610.183 136.341 612.149 135.33C613.306 134.723 614.694 135.214 615.272 136.37C616.457 138.74 618.771 143.566 620.246 148.132C620.621 149.288 620.014 150.501 618.915 150.964C615.966 152.148 610.154 154.316 604.978 155.038C604.139 155.154 603.3 154.807 602.78 154.114C600.553 151.079 594.307 142.583 592.167 140.445C590.172 138.48 586.529 139.202 584.88 139.693C584.244 139.867 583.579 139.78 583.03 139.462C581.353 138.451 578.432 135.937 581.092 131.689C581.757 130.619 581.41 129.232 580.369 128.539C578.49 127.296 576.466 125.013 578.403 121.256C580.369 117.471 583.868 117.124 586.24 117.413C587.281 117.528 588.35 116.979 588.755 115.997C588.929 115.563 589.305 115.188 589.941 115.043C591.184 114.783 591.994 113.656 591.763 112.413C591.329 110.275 591.647 107.501 595.088 105.622C601.363 102.183 606.857 107.79 608.245 112.529C609.633 117.268 602.635 120.62 598.211 121.17C594.972 121.574 593.208 125.1 592.486 126.949Z" fill="#1E4843"/>
<path d="M594.886 144.866C594.886 144.866 592.11 136.717 588.524 137.006C584.938 137.295 582.134 140.849 586.558 144.866C592.052 149.836 594.886 144.866 594.886 144.866Z" fill="#FFB995"/>
<path d="M720.788 177.29L712.72 181.625C703.033 187.52 694.358 190.641 686.551 191.797C688.43 195.583 690.079 200.726 689.818 206.853C700.055 202.027 706.474 196.218 706.474 196.218C724.808 185.353 720.788 177.29 720.788 177.29Z" fill="#FFB995"/>
<path d="M630.355 287.081C630.418 287.081 630.418 287.081 630.48 287.081L688.411 287.018C689.851 287.018 690.979 285.829 690.979 284.452C690.979 283.012 689.789 281.823 688.411 281.886L630.48 281.948C629.04 281.948 627.913 283.138 627.913 284.515C627.85 285.892 628.977 287.018 630.355 287.081Z" fill="url(#paint4_linear)"/>
<path d="M740.455 234.507H692.232C688.662 234.507 685.405 236.573 683.902 239.765L661.607 287.019H721.541C723.859 287.019 725.925 285.642 726.74 283.514L744.025 239.765C745.027 237.261 743.211 234.507 740.455 234.507Z" fill="#456460"/>
<path d="M706.447 258.729C705.383 261.983 706.197 265.113 708.201 265.801C710.205 266.427 712.648 264.361 713.712 261.107C714.777 257.852 713.963 254.723 711.959 254.035C710.017 253.409 707.512 255.474 706.447 258.729Z" fill="url(#paint5_linear)"/>
<path d="M790.764 183.028L709.804 184.512C707.645 184.562 705.867 182.928 705.867 180.915V99.5971C705.867 97.5849 707.62 95.9751 709.778 96.0003L790.738 97.1322C792.846 97.1573 794.548 98.7671 794.548 100.729V179.431C794.548 181.368 792.872 182.978 790.764 183.028Z" fill="url(#paint6_linear)"/>
<path opacity="0.89" d="M717.194 154.555L784.111 155.259C786.676 155.284 788.733 156.768 788.606 158.529L787.489 174.048C787.362 175.708 785.355 176.991 782.943 176.991H717.118C714.604 176.991 712.547 175.608 712.547 173.872V157.649C712.573 155.913 714.655 154.53 717.194 154.555Z" fill="white"/>
<path opacity="0.8" d="M781.98 123.708C787.657 121.907 790.784 115.888 788.965 110.266C787.145 104.644 781.069 101.547 775.392 103.349C769.716 105.15 766.589 111.169 768.408 116.791C770.227 122.413 776.304 125.51 781.98 123.708Z" fill="white"/>
<path opacity="0.8" d="M761.557 118.168C764.139 112.847 761.877 106.46 756.504 103.903C751.132 101.345 744.683 103.586 742.101 108.907C739.519 114.228 741.781 120.615 747.153 123.172C752.526 125.73 758.974 123.489 761.557 118.168Z" fill="white"/>
<path opacity="0.8" d="M732.592 121.45C736.807 117.275 736.807 110.507 732.592 106.332C728.377 102.157 721.544 102.157 717.329 106.332C713.114 110.507 713.114 117.275 717.329 121.45C721.544 125.624 728.377 125.624 732.592 121.45Z" fill="white"/>
<path d="M772.276 111.268C771.946 112.072 771.768 112.953 771.768 113.883C771.768 117.681 774.867 120.75 778.701 120.75C782.536 120.75 785.634 117.681 785.634 113.883C785.634 110.085 782.536 107.017 778.701 107.017C778.574 107.017 778.473 107.017 778.346 107.017V105.281C778.473 105.281 778.574 105.281 778.701 105.281C783.501 105.281 787.412 109.13 787.412 113.909C787.412 118.662 783.526 122.536 778.701 122.536C773.902 122.536 769.991 118.688 769.991 113.909C769.991 112.726 770.219 111.62 770.651 110.614L772.276 111.268Z" fill="url(#paint7_linear)"/>
<path d="M748.253 119.694C749.319 120.373 750.589 120.75 751.96 120.75C755.795 120.75 758.893 117.681 758.893 113.883C758.893 110.085 755.795 107.017 751.96 107.017C751.833 107.017 751.732 107.017 751.605 107.017V105.281C751.732 105.281 751.833 105.281 751.96 105.281C756.76 105.281 760.671 109.13 760.671 113.909C760.671 118.662 756.785 122.536 751.96 122.536C750.284 122.536 748.71 122.058 747.389 121.253L748.253 119.694Z" fill="url(#paint8_linear)"/>
<path d="M719.175 117.758C720.419 119.569 722.527 120.776 724.914 120.776C728.749 120.776 731.847 117.708 731.847 113.909C731.847 110.111 728.749 107.043 724.914 107.043C724.787 107.043 724.686 107.043 724.559 107.043V105.307C724.686 105.307 724.787 105.307 724.914 105.307C729.714 105.307 733.625 109.156 733.625 113.935C733.625 118.688 729.739 122.562 724.914 122.562C721.943 122.562 719.327 121.078 717.753 118.839L719.175 117.758Z" fill="url(#paint9_linear)"/>
<path opacity="0.69" d="M769.889 128.773H787.488C788.605 128.773 789.494 129.654 789.494 130.761C789.494 131.867 788.605 132.748 787.488 132.748H769.889C768.772 132.748 767.883 131.867 767.883 130.761C767.883 129.654 768.772 128.773 769.889 128.773Z" fill="white"/>
<path opacity="0.69" d="M743.021 128.773H760.62C761.737 128.773 762.626 129.654 762.626 130.761C762.626 131.867 761.737 132.748 760.62 132.748H743.021C741.904 132.748 741.015 131.867 741.015 130.761C741.015 129.654 741.929 128.773 743.021 128.773Z" fill="white"/>
<path opacity="0.69" d="M733.778 132.748H716.179C715.061 132.748 714.173 131.867 714.173 130.761C714.173 129.654 715.061 128.774 716.179 128.774H733.778C734.895 128.774 735.784 129.654 735.784 130.761C735.784 131.867 734.895 132.748 733.778 132.748Z" fill="white"/>
<path opacity="0.69" d="M769.889 134.936H787.488C788.605 134.936 789.494 135.816 789.494 136.923V148.594C789.494 149.7 788.605 150.581 787.488 150.581H769.889C768.772 150.581 767.883 149.7 767.883 148.594V136.923C767.883 135.816 768.772 134.936 769.889 134.936Z" fill="white"/>
<path opacity="0.69" d="M743.021 134.936H760.62C761.737 134.936 762.626 135.816 762.626 136.923V148.594C762.626 149.7 761.737 150.581 760.62 150.581H743.021C741.904 150.581 741.015 149.7 741.015 148.594V136.923C741.015 135.816 741.929 134.936 743.021 134.936Z" fill="white"/>
<path opacity="0.69" d="M716.178 134.936H733.777C734.894 134.936 735.783 135.816 735.783 136.923V148.594C735.783 149.7 734.894 150.581 733.777 150.581H716.178C715.061 150.581 714.172 149.7 714.172 148.594V136.923C714.172 135.816 715.061 134.936 716.178 134.936Z" fill="white"/>
<path d="M692.07 199.27C691.449 198.677 691.472 197.698 692.139 197.128L768.783 129.418C768.99 129.236 769.312 129.19 769.565 129.304C770.026 129.509 770.118 130.124 769.749 130.466L694.118 199.292C693.52 199.816 692.646 199.816 692.07 199.27Z" fill="#1E4843"/>
<path d="M708.73 185.698L708.328 183.535C708.328 183.535 706.719 178.287 710.982 173.119C717.176 165.627 721.761 168.391 721.761 168.391C721.761 168.391 721.439 169.994 721.479 171.396C721.479 172.558 722.887 173.119 723.732 172.358L733.867 163.063C733.867 163.063 736.722 177.806 714.964 187.942L708.73 185.698Z" fill="#FFB995"/>
<g filter="url(#filter3_d)">
<path d="M316.574 341.391V200C316.574 196.134 313.44 193 309.574 193L41.0001 193C37.1341 193 34.0001 196.134 34.0001 200V341.391L316.574 341.391Z" fill="url(#paint10_linear)"/>
<path d="M275.463 341.515H231.317L316.545 265.751V304.995L275.463 341.515ZM164.829 341.515H179.835L316.568 219.966V206.626L164.829 341.515ZM34.0002 248.614V261.953L111.379 193.167H96.3731L34.0002 248.614ZM188.848 193.187H123.456L34.0226 272.689V330.819L188.848 193.187Z" fill="url(#paint11_linear)" fill-opacity="0.3"/>
<path d="M50.0215 330.34C49.2519 330.34 48.5809 330.184 48.0083 329.87C47.4452 329.557 47.0088 329.114 46.6991 328.543C46.3894 327.962 46.2345 327.284 46.2345 326.51V320.079H48.1632V323.993H48.1773C48.3931 323.67 48.6935 323.417 49.0783 323.232C49.4725 323.048 49.8948 322.956 50.3453 322.956C51.0492 322.956 51.6592 323.108 52.1754 323.412C52.6916 323.716 53.0905 324.136 53.372 324.67C53.663 325.196 53.8085 325.809 53.8085 326.51C53.8085 327.247 53.6583 327.906 53.358 328.487C53.067 329.059 52.64 329.511 52.0769 329.842C51.5138 330.174 50.8286 330.34 50.0215 330.34ZM50.0215 328.722C50.594 328.722 51.0398 328.524 51.3589 328.128C51.6874 327.722 51.8516 327.229 51.8516 326.648C51.8516 326.067 51.6874 325.579 51.3589 325.182C51.0398 324.776 50.594 324.574 50.0215 324.574C49.449 324.574 48.9985 324.776 48.67 325.182C48.3509 325.579 48.1914 326.067 48.1914 326.648C48.1914 327.229 48.3509 327.722 48.67 328.128C48.9985 328.524 49.449 328.722 50.0215 328.722ZM58.8879 330.34C58.2309 330.34 57.6584 330.174 57.1703 329.842C56.6823 329.511 56.3022 329.068 56.03 328.515C55.7672 327.952 55.6359 327.335 55.6359 326.662C55.6359 325.97 55.786 325.343 56.0863 324.781C56.3961 324.219 56.8372 323.776 57.4097 323.453C57.9822 323.122 58.6673 322.956 59.4651 322.956C60.2722 322.956 60.9526 323.122 61.5063 323.453C62.0601 323.785 62.4824 324.233 62.7734 324.795C63.0643 325.357 63.2098 325.98 63.2098 326.662V330.174H61.2811V328.999H61.2529C61.0371 329.368 60.7414 329.686 60.366 329.953C60 330.211 59.5073 330.34 58.8879 330.34ZM59.4369 328.722C60 328.722 60.4411 328.519 60.7602 328.114C61.0887 327.708 61.2529 327.215 61.2529 326.634C61.2529 326.063 61.0887 325.579 60.7602 325.182C60.4411 324.776 60 324.574 59.4369 324.574C58.8644 324.574 58.4139 324.776 58.0854 325.182C57.7569 325.579 57.5927 326.063 57.5927 326.634C57.5927 327.215 57.7569 327.708 58.0854 328.114C58.4139 328.519 58.8644 328.722 59.4369 328.722ZM65.8803 330.174V325.984C65.8803 325.431 66.0164 324.924 66.2885 324.463C66.5607 324.002 66.9502 323.638 67.457 323.371C67.9732 323.094 68.5926 322.956 69.3153 322.956C69.8315 322.956 70.2961 323.043 70.709 323.218C71.122 323.394 71.4739 323.633 71.7649 323.937H71.7789C72.0793 323.633 72.4359 323.394 72.8489 323.218C73.2712 323.043 73.7405 322.956 74.2567 322.956C74.9793 322.956 75.5941 323.094 76.1009 323.371C76.6171 323.638 77.0112 324.002 77.2834 324.463C77.5556 324.924 77.6917 325.431 77.6917 325.984V330.174H75.763V325.984C75.763 325.597 75.6128 325.265 75.3125 324.988C75.0216 324.712 74.6696 324.574 74.2567 324.574C73.8437 324.574 73.4871 324.712 73.1867 324.988C72.8958 325.265 72.7503 325.597 72.7503 325.984V330.174H70.8216V325.984C70.8216 325.597 70.6715 325.265 70.3712 324.988C70.0802 324.712 69.7283 324.574 69.3153 324.574C68.9024 324.574 68.5457 324.712 68.2454 324.988C67.9544 325.265 67.809 325.597 67.809 325.984V330.174H65.8803ZM84.0795 330.34C83.31 330.34 82.6389 330.184 82.0664 329.87C81.5033 329.557 81.0669 329.114 80.7572 328.543C80.4474 327.962 80.2926 327.284 80.2926 326.51V320.079H82.2213V323.993H82.2353C82.4512 323.67 82.7515 323.417 83.1363 323.232C83.5305 323.048 83.9528 322.956 84.4033 322.956C85.1072 322.956 85.7173 323.108 86.2335 323.412C86.7497 323.716 87.1485 324.136 87.4301 324.67C87.721 325.196 87.8665 325.809 87.8665 326.51C87.8665 327.247 87.7163 327.906 87.416 328.487C87.1251 329.059 86.698 329.511 86.1349 329.842C85.5718 330.174 84.8867 330.34 84.0795 330.34ZM84.0795 328.722C84.652 328.722 85.0978 328.524 85.4169 328.128C85.7454 327.722 85.9097 327.229 85.9097 326.648C85.9097 326.067 85.7454 325.579 85.4169 325.182C85.0978 324.776 84.652 324.574 84.0795 324.574C83.507 324.574 83.0565 324.776 82.7281 325.182C82.409 325.579 82.2494 326.067 82.2494 326.648C82.2494 327.229 82.409 327.722 82.7281 328.128C83.0565 328.524 83.507 328.722 84.0795 328.722ZM93.5655 330.34C92.8241 330.34 92.1624 330.179 91.5805 329.856C90.9986 329.524 90.5388 329.082 90.2009 328.529C89.863 327.966 89.6941 327.339 89.6941 326.648C89.6941 325.957 89.863 325.334 90.2009 324.781C90.5388 324.219 90.9986 323.776 91.5805 323.453C92.1624 323.122 92.8241 322.956 93.5655 322.956C94.307 322.956 94.9686 323.122 95.5505 323.453C96.1324 323.776 96.5923 324.219 96.9302 324.781C97.268 325.334 97.437 325.957 97.437 326.648C97.437 327.339 97.268 327.966 96.9302 328.529C96.5923 329.082 96.1324 329.524 95.5505 329.856C94.9686 330.179 94.307 330.34 93.5655 330.34ZM93.5655 328.722C94.1568 328.722 94.6214 328.524 94.9592 328.128C95.3065 327.722 95.4801 327.229 95.4801 326.648C95.4801 326.067 95.3065 325.579 94.9592 325.182C94.6214 324.776 94.1568 324.574 93.5655 324.574C92.9743 324.574 92.505 324.776 92.1577 325.182C91.8199 325.579 91.6509 326.067 91.6509 326.648C91.6509 327.229 91.8199 327.722 92.1577 328.128C92.505 328.524 92.9743 328.722 93.5655 328.722ZM103.14 330.34C102.399 330.34 101.737 330.179 101.155 329.856C100.573 329.524 100.113 329.082 99.7755 328.529C99.4376 327.966 99.2687 327.339 99.2687 326.648C99.2687 325.957 99.4376 325.334 99.7755 324.781C100.113 324.219 100.573 323.776 101.155 323.453C101.737 323.122 102.399 322.956 103.14 322.956C103.882 322.956 104.543 323.122 105.125 323.453C105.707 323.776 106.167 324.219 106.505 324.781C106.843 325.334 107.012 325.957 107.012 326.648C107.012 327.339 106.843 327.966 106.505 328.529C106.167 329.082 105.707 329.524 105.125 329.856C104.543 330.179 103.882 330.34 103.14 330.34ZM103.14 328.722C103.731 328.722 104.196 328.524 104.534 328.128C104.881 327.722 105.055 327.229 105.055 326.648C105.055 326.067 104.881 325.579 104.534 325.182C104.196 324.776 103.731 324.574 103.14 324.574C102.549 324.574 102.08 324.776 101.732 325.182C101.394 325.579 101.225 326.067 101.225 326.648C101.225 327.229 101.394 327.722 101.732 328.128C102.08 328.524 102.549 328.722 103.14 328.722Z" fill="#7BE159" fill-opacity="0.8"/>
<path d="M316.686 341.418H34V355.583C34 359.449 37.134 362.583 41 362.583H309.686C313.552 362.583 316.686 359.449 316.686 355.583V341.418Z" fill="#1E4843"/>
<path d="M308.99 348.6H231.624C231.02 348.6 230.527 348.108 230.527 347.503C230.527 346.899 231.02 346.407 231.624 346.407H308.99C309.595 346.407 310.087 346.899 310.087 347.503C310.064 348.108 309.595 348.6 308.99 348.6Z" fill="white"/>
<path d="M231.601 348.6H42.0995C41.4954 348.6 41.0032 348.108 41.0032 347.503C41.0032 346.899 41.4954 346.407 42.0995 346.407H231.601C232.205 346.407 232.697 346.899 232.697 347.503C232.697 348.108 232.205 348.6 231.601 348.6Z" fill="#03D218"/>
<path d="M233.928 347.503C233.928 348.779 232.899 349.808 231.624 349.808C230.348 349.808 229.319 348.779 229.319 347.503C229.319 346.228 230.348 345.199 231.624 345.199C232.876 345.199 233.928 346.228 233.928 347.503Z" fill="#FFFDFF"/>
<path d="M55.2774 353.612H56.754V358.668H55.2774V353.612ZM52.436 358.668H53.9126V353.612H52.436V358.668ZM66.4864 353.612V355.648L63.3765 353.612V358.668L66.4864 356.632V358.668H67.963V353.612H66.4864ZM41.227 353.612V358.668H42.7036V356.632L45.8135 358.668V353.612L42.7036 355.648V353.612H41.227Z" fill="white"/>
<path d="M287.11 354.98L286.962 354.628C286.962 354.628 287.306 353.839 287.269 353.814L286.815 353.362C286.778 353.337 286.005 353.688 286.005 353.688L285.649 353.538C285.649 353.538 285.33 352.735 285.293 352.735H284.655C284.606 352.735 284.324 353.538 284.324 353.538L283.968 353.688C283.968 353.688 283.182 353.35 283.145 353.375L282.691 353.826C282.655 353.851 283.023 354.628 283.023 354.628L282.875 354.98C282.875 354.98 282.078 355.293 282.078 355.331V355.97C282.078 356.02 282.875 356.309 282.875 356.309L283.023 356.66C283.023 356.66 282.679 357.45 282.716 357.475L283.17 357.926C283.195 357.951 283.968 357.6 283.968 357.6L284.324 357.75C284.324 357.75 284.643 358.553 284.68 358.553H285.318C285.367 358.553 285.649 357.75 285.649 357.75L286.005 357.6C286.005 357.6 286.791 357.938 286.827 357.913L287.282 357.462C287.318 357.424 286.95 356.66 286.95 356.66L287.097 356.309C287.097 356.309 287.895 355.995 287.895 355.945V355.306C287.907 355.28 287.11 354.98 287.11 354.98ZM285.931 355.657C285.931 356.171 285.514 356.597 284.999 356.597C284.483 356.597 284.066 356.183 284.066 355.657C284.066 355.143 284.483 354.729 284.999 354.729C285.514 354.716 285.931 355.143 285.931 355.657Z" fill="white"/>
<path d="M299.115 357.722H292.051V353.566H299.115V357.722ZM292.572 357.255H298.594V354.022H292.572V357.255Z" fill="white"/>
<path d="M306.303 353.4H308.02V355.13H308.522V352.898H306.303V353.4Z" fill="white"/>
<path d="M303.608 355.13V353.4H305.338V352.898H303.106V355.13H303.608Z" fill="white"/>
<path d="M308.02 356.096V357.826H306.303V358.327H308.522V356.096H308.02Z" fill="white"/>
<path d="M305.337 357.826H303.607V356.096H303.106V358.327H305.337V357.826Z" fill="white"/>
</g>
<path d="M170.768 303.755L170.792 304.254L170.768 303.755ZM208.894 274.589C204.265 293.149 186.141 302.497 170.743 303.255L170.792 304.254C186.465 303.482 205.094 293.96 209.864 274.831L208.894 274.589ZM170.743 303.255C162.745 303.649 155.215 302.142 149.701 298.326C144.211 294.528 140.662 288.405 140.662 279.421H139.662C139.662 288.708 143.351 295.149 149.132 299.149C154.887 303.131 162.66 304.655 170.792 304.254L170.743 303.255ZM140.662 279.421C140.662 274.966 142.263 269.98 145.019 264.988C147.771 260 151.661 255.036 156.196 250.634C165.284 241.812 176.873 235.333 186.992 235.333V234.333C176.498 234.333 164.672 241.013 155.499 249.917C150.903 254.378 146.95 259.419 144.143 264.504C141.339 269.585 139.662 274.74 139.662 279.421H140.662ZM186.992 235.333C194.489 235.333 201.121 240.431 205.316 247.949C209.508 255.458 211.211 265.298 208.894 274.589L209.864 274.831C212.246 265.277 210.497 255.178 206.19 247.461C201.887 239.752 194.975 234.333 186.992 234.333V235.333Z" fill="white" fill-opacity="0.2"/>
<path d="M172.168 293.513L172.192 294.012L172.168 293.513ZM198.365 273.32C195.188 286.058 182.741 292.491 172.143 293.013L172.192 294.012C183.065 293.476 196.017 286.869 199.335 273.562L198.365 273.32ZM172.143 293.013C166.636 293.284 161.471 292.245 157.697 289.634C153.948 287.04 151.517 282.858 151.517 276.696H150.517C150.517 283.161 153.088 287.662 157.128 290.456C161.142 293.234 166.552 294.29 172.192 294.012L172.143 293.013ZM151.517 276.696C151.517 273.653 152.612 270.233 154.509 266.797C156.403 263.365 159.08 259.947 162.205 256.914C168.473 250.83 176.444 246.384 183.379 246.384V245.384C176.07 245.384 167.86 250.031 161.508 256.196C158.323 259.288 155.581 262.784 153.633 266.313C151.688 269.838 150.517 273.427 150.517 276.696H151.517ZM183.379 246.384C188.485 246.384 193.025 249.857 195.908 255.022C198.786 260.18 199.956 266.94 198.365 273.32L199.335 273.562C200.992 266.919 199.775 259.9 196.781 254.535C193.791 249.178 188.972 245.384 183.379 245.384V246.384Z" fill="white"/>
<path d="M193.395 272.911C190.954 282.699 181.409 287.6 173.34 287.998C164.961 288.411 157.443 284.849 157.443 275.358C157.443 265.868 171.06 252.198 181.767 252.198C189.808 252.198 195.836 263.123 193.395 272.911Z" fill="url(#paint12_linear)"/>
<path d="M179.205 270.877L174.036 273.861L174.036 267.893L179.205 270.877Z" fill="#05B514"/>
<defs>
<filter id="filter0_d" x="121" y="126" width="305.501" height="440.67" filterUnits="userSpaceOnUse" color-interpolation-filters="sRGB">
<feFlood flood-opacity="0" result="BackgroundImageFix"/>
<feColorMatrix in="SourceAlpha" type="matrix" values="0 0 0 0 0 0 0 0 0 0 0 0 0 0 0 0 0 0 127 0"/>
<feOffset dx="10" dy="8"/>
<feGaussianBlur stdDeviation="17.5"/>
<feColorMatrix type="matrix" values="0 0 0 0 0.624167 0 0 0 0 0.7 0 0 0 0 0.686212 0 0 0 0.2 0"/>
<feBlend mode="normal" in2="BackgroundImageFix" result="effect1_dropShadow"/>
<feBlend mode="normal" in="SourceGraphic" in2="effect1_dropShadow" result="shape"/>
</filter>
<filter id="filter1_d" x="309" y="175" width="329" height="466.177" filterUnits="userSpaceOnUse" color-interpolation-filters="sRGB">
<feFlood flood-opacity="0" result="BackgroundImageFix"/>
<feColorMatrix in="SourceAlpha" type="matrix" values="0 0 0 0 0 0 0 0 0 0 0 0 0 0 0 0 0 0 127 0"/>
<feOffset dx="15" dy="10"/>
<feGaussianBlur stdDeviation="22.5"/>
<feColorMatrix type="matrix" values="0 0 0 0 0.623529 0 0 0 0 0.698039 0 0 0 0 0.686275 0 0 0 0.27 0"/>
<feBlend mode="normal" in2="BackgroundImageFix" result="effect1_dropShadow"/>
<feBlend mode="normal" in="SourceGraphic" in2="effect1_dropShadow" result="shape"/>
</filter>
<filter id="filter2_d" x="478" y="96.6162" width="357.517" height="511.062" filterUnits="userSpaceOnUse" color-interpolation-filters="sRGB">
<feFlood flood-opacity="0" result="BackgroundImageFix"/>
<feColorMatrix in="SourceAlpha" type="matrix" values="0 0 0 0 0 0 0 0 0 0 0 0 0 0 0 0 0 0 127 0"/>
<feOffset dx="15" dy="10"/>
<feGaussianBlur stdDeviation="22.5"/>
<feColorMatrix type="matrix" values="0 0 0 0 0.624167 0 0 0 0 0.7 0 0 0 0 0.686212 0 0 0 0.27 0"/>
<feBlend mode="normal" in2="BackgroundImageFix" result="effect1_dropShadow"/>
<feBlend mode="normal" in="SourceGraphic" in2="effect1_dropShadow" result="shape"/>
</filter>
<filter id="filter3_d" x="3.05176e-05" y="163" width="370.686" height="257.583" filterUnits="userSpaceOnUse" color-interpolation-filters="sRGB">
<feFlood flood-opacity="0" result="BackgroundImageFix"/>
<feColorMatrix in="SourceAlpha" type="matrix" values="0 0 0 0 0 0 0 0 0 0 0 0 0 0 0 0 0 0 127 0"/>
<feOffset dx="10" dy="14"/>
<feGaussianBlur stdDeviation="22"/>
<feColorMatrix type="matrix" values="0 0 0 0 0.363368 0 0 0 0 0.541667 0 0 0 0 0.515785 0 0 0 0.5 0"/>
<feBlend mode="normal" in2="BackgroundImageFix" result="effect1_dropShadow"/>
<feBlend mode="normal" in="SourceGraphic" in2="effect1_dropShadow" result="shape"/>
</filter>
<linearGradient id="paint0_linear" x1="227.998" y1="508.208" x2="386.82" y2="545.071" gradientUnits="userSpaceOnUse">
<stop stop-color="#FFEC00"/>
<stop offset="1" stop-color="#FFEC00" stop-opacity="0"/>
</linearGradient>
<linearGradient id="paint1_linear" x1="587.343" y1="368.772" x2="943.817" y2="427.144" gradientUnits="userSpaceOnUse">
<stop stop-color="#28FEFE" stop-opacity="0.3"/>
<stop offset="1" stop-color="#30B3C7"/>
</linearGradient>
<linearGradient id="paint2_linear" x1="899.991" y1="362.877" x2="536.715" y2="477.431" gradientUnits="userSpaceOnUse">
<stop stop-color="#78EE1B" stop-opacity="0.6"/>
<stop offset="1" stop-color="#01B213"/>
</linearGradient>
<linearGradient id="paint3_linear" x1="550" y1="195.5" x2="632.51" y2="211.45" gradientUnits="userSpaceOnUse">
<stop stop-color="#1E9AED"/>
<stop offset="1" stop-color="#62CEFD"/>
</linearGradient>
<linearGradient id="paint4_linear" x1="620.496" y1="271.687" x2="666.478" y2="286.777" gradientUnits="userSpaceOnUse">
<stop stop-color="#456460"/>
<stop offset="1" stop-color="#395450"/>
</linearGradient>
<linearGradient id="paint5_linear" x1="703.69" y1="250.264" x2="718.703" y2="272.887" gradientUnits="userSpaceOnUse">
<stop stop-color="#53D8FF"/>
<stop offset="1" stop-color="#3840F7"/>
</linearGradient>
<linearGradient id="paint6_linear" x1="779.782" y1="101.541" x2="659.184" y2="259.302" gradientUnits="userSpaceOnUse">
<stop stop-color="#FFF579"/>
<stop offset="1" stop-color="#85E860"/>
</linearGradient>
<linearGradient id="paint7_linear" x1="830.58" y1="88.5287" x2="634.072" y2="188.072" gradientUnits="userSpaceOnUse">
<stop stop-color="#33C72C"/>
<stop offset="1" stop-color="#35C82E"/>
</linearGradient>
<linearGradient id="paint8_linear" x1="825.203" y1="77.9143" x2="628.695" y2="177.457" gradientUnits="userSpaceOnUse">
<stop stop-color="#2FC52A"/>
<stop offset="1" stop-color="#31C62B"/>
</linearGradient>
<linearGradient id="paint9_linear" x1="819.769" y1="67.1866" x2="623.26" y2="166.73" gradientUnits="userSpaceOnUse">
<stop stop-color="#33C72C"/>
<stop offset="1" stop-color="#2FC52A"/>
</linearGradient>
<linearGradient id="paint10_linear" x1="120.035" y1="179.384" x2="354.855" y2="374.739" gradientUnits="userSpaceOnUse">
<stop stop-color="#01B213"/>
<stop offset="1" stop-color="#78EE1B"/>
</linearGradient>
<linearGradient id="paint11_linear" x1="62.4155" y1="206.812" x2="306.707" y2="344.942" gradientUnits="userSpaceOnUse">
<stop stop-color="#30CE2D"/>
<stop offset="1" stop-color="#3DCA33" stop-opacity="0.96"/>
</linearGradient>
<linearGradient id="paint12_linear" x1="175.693" y1="252.198" x2="167.228" y2="291.299" gradientUnits="userSpaceOnUse">
<stop stop-color="white"/>
<stop offset="1" stop-color="white"/>
</linearGradient>
</defs>
</svg>
