<svg width="295" height="257" viewBox="0 0 295 257" fill="none" xmlns="http://www.w3.org/2000/svg">
<path fill-rule="evenodd" clip-rule="evenodd" d="M68.5306 215.802C103.964 227.938 165.527 224.888 198.035 177.683C230.544 130.477 226.424 61.2335 189.306 46.0197C174.582 39.9849 149.205 42.8842 122.657 51.7155L116.819 54.0016L106.057 57.9556C71.0894 72.6194 37.4987 96.4406 26.7694 122.618C6.17458 172.865 30.4299 202.753 68.5306 215.802Z" fill="url(#paint0_linear)" fill-opacity="0.2"/>
<g filter="url(#filter0_d)">
<rect x="53.3701" y="53.5786" width="219.87" height="131.139" rx="6" fill="white"/>
</g>
<path d="M69.5859 69.6366C69.0098 69.6366 68.5074 69.514 68.0788 69.2687C67.6573 69.0234 67.3306 68.6772 67.0988 68.2299C66.8669 67.7754 66.751 67.2452 66.751 66.6393V61.6077H68.1948V64.6699H68.2053C68.3669 64.4174 68.5917 64.2191 68.8798 64.0748C69.1749 63.9305 69.491 63.8584 69.8283 63.8584C70.3552 63.8584 70.8119 63.9774 71.1983 64.2154C71.5847 64.4535 71.8833 64.7817 72.0941 65.2001C72.3119 65.6113 72.4208 66.091 72.4208 66.6393C72.4208 67.2164 72.3084 67.7322 72.0835 68.1866C71.8657 68.6339 71.5461 68.9874 71.1245 69.247C70.703 69.5067 70.1901 69.6366 69.5859 69.6366ZM69.5859 68.3706C70.0144 68.3706 70.3482 68.2155 70.587 67.9053C70.8329 67.5879 70.9559 67.2019 70.9559 66.7475C70.9559 66.293 70.8329 65.9107 70.587 65.6005C70.3482 65.2831 70.0144 65.1244 69.5859 65.1244C69.1573 65.1244 68.8201 65.2831 68.5742 65.6005C68.3353 65.9107 68.2158 66.293 68.2158 66.7475C68.2158 67.2019 68.3353 67.5879 68.5742 67.9053C68.8201 68.2155 69.1573 68.3706 69.5859 68.3706ZM76.2232 69.6366C75.7314 69.6366 75.3028 69.5067 74.9375 69.247C74.5721 68.9874 74.2876 68.6411 74.0838 68.2083C73.8871 67.7682 73.7887 67.2849 73.7887 66.7583C73.7887 66.2173 73.9012 65.7267 74.126 65.2867C74.3578 64.8466 74.688 64.5004 75.1166 64.2479C75.5452 63.9882 76.0581 63.8584 76.6553 63.8584C77.2595 63.8584 77.7688 63.9882 78.1834 64.2479C78.5979 64.5076 78.914 64.8575 79.1318 65.2975C79.3496 65.7375 79.4585 66.2245 79.4585 66.7583V69.5067H78.0147V68.587H77.9937C77.8321 68.8755 77.6108 69.1244 77.3297 69.3336C77.0557 69.5356 76.6869 69.6366 76.2232 69.6366ZM76.6342 68.3706C77.0557 68.3706 77.3859 68.2119 77.6248 67.8945C77.8707 67.5771 77.9937 67.1911 77.9937 66.7367C77.9937 66.2894 77.8707 65.9107 77.6248 65.6005C77.3859 65.2831 77.0557 65.1244 76.6342 65.1244C76.2056 65.1244 75.8684 65.2831 75.6225 65.6005C75.3766 65.9107 75.2536 66.2894 75.2536 66.7367C75.2536 67.1911 75.3766 67.5771 75.6225 67.8945C75.8684 68.2119 76.2056 68.3706 76.6342 68.3706ZM81.4577 69.5067V66.2281C81.4577 65.7953 81.5595 65.3985 81.7633 65.0378C81.967 64.6771 82.2586 64.3922 82.638 64.183C83.0244 63.9666 83.4881 63.8584 84.0291 63.8584C84.4155 63.8584 84.7633 63.9269 85.0724 64.064C85.3815 64.201 85.645 64.3886 85.8628 64.6266H85.8734C86.0982 64.3886 86.3652 64.201 86.6743 64.064C86.9905 63.9269 87.3417 63.8584 87.7282 63.8584C88.2691 63.8584 88.7293 63.9666 89.1087 64.183C89.4951 64.3922 89.7902 64.6771 89.994 65.0378C90.1977 65.3985 90.2996 65.7953 90.2996 66.2281V69.5067H88.8558V66.2281C88.8558 65.9251 88.7434 65.6654 88.5186 65.449C88.3008 65.2326 88.0373 65.1244 87.7282 65.1244C87.419 65.1244 87.152 65.2326 86.9272 65.449C86.7094 65.6654 86.6005 65.9251 86.6005 66.2281V69.5067H85.1567V66.2281C85.1567 65.9251 85.0443 65.6654 84.8195 65.449C84.6017 65.2326 84.3382 65.1244 84.0291 65.1244C83.72 65.1244 83.453 65.2326 83.2282 65.449C83.0104 65.6654 82.9015 65.9251 82.9015 66.2281V69.5067H81.4577ZM95.0815 69.6366C94.5054 69.6366 94.003 69.514 93.5745 69.2687C93.1529 69.0234 92.8262 68.6772 92.5944 68.2299C92.3625 67.7754 92.2466 67.2452 92.2466 66.6393V61.6077H93.6904V64.6699H93.7009C93.8625 64.4174 94.0874 64.2191 94.3754 64.0748C94.6705 63.9305 94.9866 63.8584 95.3239 63.8584C95.8508 63.8584 96.3075 63.9774 96.6939 64.2154C97.0803 64.4535 97.3789 64.7817 97.5897 65.2001C97.8075 65.6113 97.9164 66.091 97.9164 66.6393C97.9164 67.2164 97.804 67.7322 97.5792 68.1866C97.3614 68.6339 97.0417 68.9874 96.6201 69.247C96.1986 69.5067 95.6857 69.6366 95.0815 69.6366ZM95.0815 68.3706C95.5101 68.3706 95.8438 68.2155 96.0827 67.9053C96.3286 67.5879 96.4515 67.2019 96.4515 66.7475C96.4515 66.293 96.3286 65.9107 96.0827 65.6005C95.8438 65.2831 95.5101 65.1244 95.0815 65.1244C94.6529 65.1244 94.3157 65.2831 94.0698 65.6005C93.8309 65.9107 93.7115 66.293 93.7115 66.7475C93.7115 67.2019 93.8309 67.5879 94.0698 67.9053C94.3157 68.2155 94.6529 68.3706 95.0815 68.3706ZM102.183 69.6366C101.628 69.6366 101.132 69.5103 100.697 69.2579C100.261 68.9982 99.9168 68.6519 99.6639 68.2191C99.411 67.779 99.2845 67.2885 99.2845 66.7475C99.2845 66.2064 99.411 65.7195 99.6639 65.2867C99.9168 64.8466 100.261 64.5004 100.697 64.2479C101.132 63.9882 101.628 63.8584 102.183 63.8584C102.738 63.8584 103.233 63.9882 103.669 64.2479C104.104 64.5004 104.448 64.8466 104.701 65.2867C104.954 65.7195 105.081 66.2064 105.081 66.7475C105.081 67.2885 104.954 67.779 104.701 68.2191C104.448 68.6519 104.104 68.9982 103.669 69.2579C103.233 69.5103 102.738 69.6366 102.183 69.6366ZM102.183 68.3706C102.625 68.3706 102.973 68.2155 103.226 67.9053C103.486 67.5879 103.616 67.2019 103.616 66.7475C103.616 66.293 103.486 65.9107 103.226 65.6005C102.973 65.2831 102.625 65.1244 102.183 65.1244C101.74 65.1244 101.389 65.2831 101.129 65.6005C100.876 65.9107 100.749 66.293 100.749 66.7475C100.749 67.2019 100.876 67.5879 101.129 67.9053C101.389 68.2155 101.74 68.3706 102.183 68.3706ZM109.35 69.6366C108.795 69.6366 108.3 69.5103 107.864 69.2579C107.429 68.9982 107.084 68.6519 106.831 68.2191C106.578 67.779 106.452 67.2885 106.452 66.7475C106.452 66.2064 106.578 65.7195 106.831 65.2867C107.084 64.8466 107.429 64.5004 107.864 64.2479C108.3 63.9882 108.795 63.8584 109.35 63.8584C109.905 63.8584 110.4 63.9882 110.836 64.2479C111.272 64.5004 111.616 64.8466 111.869 65.2867C112.122 65.7195 112.248 66.2064 112.248 66.7475C112.248 67.2885 112.122 67.779 111.869 68.2191C111.616 68.6519 111.272 68.9982 110.836 69.2579C110.4 69.5103 109.905 69.6366 109.35 69.6366ZM109.35 68.3706C109.793 68.3706 110.14 68.2155 110.393 67.9053C110.653 67.5879 110.783 67.2019 110.783 66.7475C110.783 66.293 110.653 65.9107 110.393 65.6005C110.14 65.2831 109.793 65.1244 109.35 65.1244C108.907 65.1244 108.556 65.2831 108.296 65.6005C108.043 65.9107 107.917 66.293 107.917 66.7475C107.917 67.2019 108.043 67.5879 108.296 67.9053C108.556 68.2155 108.907 68.3706 109.35 68.3706Z" fill="#009F10" fill-opacity="0.27"/>
<rect x="133.659" y="64.2844" width="127.125" height="4.01446" rx="2.00723" fill="#DBEEEB"/>
<circle cx="253.994" cy="166.45" r="7.17677" fill="url(#paint1_linear)"/>
<path d="M256.264 162.754H251.262C250.61 162.754 250.393 163.407 250.392 163.624C250.32 165.074 250.218 168.148 250.392 168.844C250.566 169.539 251.117 169.713 251.262 169.713H255.177L257.352 170.583V163.624C257.352 162.928 256.627 162.754 256.264 162.754Z" fill="white"/>
<path d="M251.48 167.755C251.842 168.045 252.828 168.625 253.872 168.625C254.916 168.625 255.757 168.045 256.047 167.755" stroke="#27B9ED"/>
<path d="M99.2783 78.1099H67.3413C66.789 78.1099 66.3413 78.5576 66.3413 79.1099V94.661C66.3413 95.2133 66.789 95.661 67.3413 95.661H99.2783C99.8306 95.661 100.278 95.2133 100.278 94.661V79.1099C100.278 78.5576 99.8306 78.1099 99.2783 78.1099Z" fill="#DBEEEB"/>
<path d="M98.8341 99.0278H68.027C67.2357 99.0278 66.5942 99.6693 66.5942 100.461C66.5942 101.252 67.2357 101.893 68.027 101.893H98.8341C99.6254 101.893 100.267 101.252 100.267 100.461C100.267 99.6693 99.6254 99.0278 98.8341 99.0278Z" fill="#DBEEEB"/>
<path d="M94.5301 103.898H68.027C67.2357 103.898 66.5942 104.54 66.5942 105.331C66.5942 106.122 67.2357 106.764 68.027 106.764H94.5301C95.3214 106.764 95.9628 106.122 95.9628 105.331C95.9628 104.54 95.3214 103.898 94.5301 103.898Z" fill="#DBEEEB"/>
<path d="M137.762 78.1094H105.825C105.273 78.1094 104.825 78.5571 104.825 79.1094V94.6605C104.825 95.2128 105.273 95.6605 105.825 95.6605H137.762C138.314 95.6605 138.762 95.2128 138.762 94.6605V79.1094C138.762 78.5571 138.314 78.1094 137.762 78.1094Z" fill="#DBEEEB"/>
<path d="M137.318 99.0273H106.257C105.466 99.0273 104.825 99.6688 104.825 100.46C104.825 101.251 105.466 101.893 106.257 101.893H137.318C138.109 101.893 138.751 101.251 138.751 100.46C138.751 99.6688 138.109 99.0273 137.318 99.0273Z" fill="#DBEEEB"/>
<path d="M132.761 103.899H106.257C105.466 103.899 104.825 104.54 104.825 105.332C104.825 106.123 105.466 106.764 106.257 106.764H132.761C133.552 106.764 134.193 106.123 134.193 105.332C134.193 104.54 133.552 103.899 132.761 103.899Z" fill="#DBEEEB"/>
<path d="M85.7002 87.438L81.9025 89.6306L81.9025 85.2454L85.7002 87.438Z" fill="white"/>
<path d="M124.185 87.438L120.387 89.6306L120.387 85.2454L124.185 87.438Z" fill="white"/>
<path d="M99.6694 113.103H67.7324C67.1801 113.103 66.7324 113.55 66.7324 114.103V129.654C66.7324 130.206 67.1801 130.654 67.7324 130.654H99.6694C100.222 130.654 100.669 130.206 100.669 129.654V114.103C100.669 113.55 100.222 113.103 99.6694 113.103Z" fill="#DBEEEB"/>
<path d="M99.2252 133.956H68.4181C67.6268 133.956 66.9854 134.598 66.9854 135.389C66.9854 136.18 67.6268 136.822 68.4181 136.822H99.2252C100.017 136.822 100.658 136.18 100.658 135.389C100.658 134.598 100.017 133.956 99.2252 133.956Z" fill="#DBEEEB"/>
<path d="M94.9212 138.828H68.4181C67.6268 138.828 66.9854 139.47 66.9854 140.261C66.9854 141.052 67.6268 141.694 68.4181 141.694H94.9212C95.7125 141.694 96.354 141.052 96.354 140.261C96.354 139.47 95.7125 138.828 94.9212 138.828Z" fill="#DBEEEB"/>
<path d="M86.0923 122.107L82.2946 124.299L82.2946 119.914L86.0923 122.107Z" fill="white"/>
<path d="M138.152 113.103H106.215C105.663 113.103 105.215 113.55 105.215 114.103V129.654C105.215 130.206 105.663 130.654 106.215 130.654H138.152C138.704 130.654 139.152 130.206 139.152 129.654V114.103C139.152 113.55 138.704 113.103 138.152 113.103Z" fill="#DBEEEB"/>
<path d="M137.707 133.974H106.647C105.856 133.974 105.214 134.616 105.214 135.407C105.214 136.198 105.856 136.84 106.647 136.84H137.707C138.499 136.84 139.14 136.198 139.14 135.407C139.14 134.616 138.499 133.974 137.707 133.974Z" fill="#DBEEEB"/>
<path d="M133.15 138.846H106.647C105.856 138.846 105.214 139.487 105.214 140.278C105.214 141.07 105.856 141.711 106.647 141.711H133.15C133.941 141.711 134.583 141.07 134.583 140.278C134.583 139.487 133.941 138.846 133.15 138.846Z" fill="#DBEEEB"/>
<path d="M124.574 122.107L120.777 124.299L120.777 119.914L124.574 122.107Z" fill="white"/>
<path d="M99.2783 146.468H67.3413C66.789 146.468 66.3413 146.915 66.3413 147.468V163.019C66.3413 163.571 66.789 164.019 67.3413 164.019H99.2783C99.8306 164.019 100.278 163.571 100.278 163.019V147.468C100.278 146.915 99.8306 146.468 99.2783 146.468Z" fill="#DBEEEB"/>
<path d="M98.8351 167.32H68.028C67.2367 167.32 66.5952 167.962 66.5952 168.753C66.5952 169.544 67.2367 170.186 68.028 170.186H98.8351C99.6264 170.186 100.268 169.544 100.268 168.753C100.268 167.962 99.6264 167.32 98.8351 167.32Z" fill="#DBEEEB"/>
<path d="M94.5311 172.192H68.028C67.2367 172.192 66.5952 172.833 66.5952 173.625C66.5952 174.416 67.2367 175.057 68.028 175.057H94.5311C95.3224 175.057 95.9638 174.416 95.9638 173.625C95.9638 172.833 95.3224 172.192 94.5311 172.192Z" fill="#DBEEEB"/>
<path d="M137.763 146.466H105.826C105.273 146.466 104.826 146.914 104.826 147.466V163.017C104.826 163.57 105.273 164.017 105.826 164.017H137.763C138.315 164.017 138.763 163.57 138.763 163.017V147.466C138.763 146.914 138.315 146.466 137.763 146.466Z" fill="#DBEEEB"/>
<path d="M137.318 167.337H106.258C105.467 167.337 104.825 167.978 104.825 168.77C104.825 169.561 105.467 170.202 106.258 170.202H137.318C138.11 170.202 138.751 169.561 138.751 168.77C138.751 167.978 138.11 167.337 137.318 167.337Z" fill="#DBEEEB"/>
<path d="M132.761 172.208H106.258C105.467 172.208 104.825 172.85 104.825 173.641C104.825 174.433 105.467 175.074 106.258 175.074H132.761C133.552 175.074 134.194 174.433 134.194 173.641C134.194 172.85 133.552 172.208 132.761 172.208Z" fill="#DBEEEB"/>
<path d="M85.7012 155.468L81.9035 157.661L81.9035 153.275L85.7012 155.468Z" fill="white"/>
<path d="M124.185 155.468L120.387 157.661L120.387 153.275L124.185 155.468Z" fill="white"/>
<g clip-path="url(#clip0)">
<path d="M195.091 164.526H190.778C190.076 162.192 187.932 160.477 185.373 160.477C182.814 160.477 180.671 162.192 179.968 164.526H159.458C158.564 164.526 157.838 165.252 157.838 166.146C157.838 167.04 158.564 167.766 159.458 167.766H179.968C180.669 170.099 182.814 171.815 185.373 171.815C187.932 171.815 190.075 170.099 190.778 167.766H195.091C195.986 167.766 196.71 167.04 196.71 166.146C196.71 165.252 195.986 164.526 195.091 164.526ZM185.373 168.575C184.033 168.575 182.943 167.485 182.943 166.146C182.943 164.806 184.033 163.716 185.373 163.716C186.712 163.716 187.802 164.806 187.802 166.146C187.802 167.485 186.712 168.575 185.373 168.575Z" fill="#DBEEEB"/>
<path d="M195.091 138.612H190.778C190.075 136.278 187.932 134.563 185.373 134.563C182.814 134.563 180.671 136.278 179.968 138.612H159.458C158.564 138.612 157.838 139.337 157.838 140.232C157.838 141.126 158.564 141.851 159.458 141.851H179.968C180.671 144.185 182.814 145.9 185.373 145.9C187.932 145.9 190.075 144.185 190.778 141.851H195.091C195.986 141.851 196.71 141.126 196.71 140.232C196.71 139.338 195.986 138.612 195.091 138.612ZM185.373 142.661C184.033 142.661 182.943 141.571 182.943 140.232C182.943 138.892 184.033 137.802 185.373 137.802C186.712 137.802 187.802 138.892 187.802 140.232C187.802 141.571 186.712 142.661 185.373 142.661Z" fill="#DBEEEB"/>
<path d="M195.091 151.568H174.581C173.878 149.235 171.735 147.519 169.176 147.519C166.617 147.519 164.474 149.235 163.771 151.568H159.458C158.564 151.568 157.838 152.294 157.838 153.188C157.838 154.082 158.564 154.808 159.458 154.808H163.771C164.474 157.142 166.617 158.857 169.176 158.857C171.735 158.857 173.878 157.142 174.581 154.808H195.091C195.986 154.808 196.71 154.082 196.71 153.188C196.71 152.294 195.986 151.568 195.091 151.568ZM169.176 155.618C167.837 155.618 166.747 154.528 166.747 153.188C166.747 151.849 167.837 150.759 169.176 150.759C170.516 150.759 171.606 151.849 171.606 153.188C171.606 154.528 170.516 155.618 169.176 155.618Z" fill="#DBEEEB"/>
</g>
<g clip-path="url(#clip1)">
<path d="M244.896 164.526H240.583C239.881 162.192 237.737 160.477 235.178 160.477C232.619 160.477 230.476 162.192 229.773 164.526H209.263C208.369 164.526 207.644 165.252 207.644 166.146C207.644 167.04 208.369 167.766 209.263 167.766H229.773C230.474 170.099 232.619 171.815 235.178 171.815C237.737 171.815 239.88 170.099 240.583 167.766H244.896C245.792 167.766 246.516 167.04 246.516 166.146C246.516 165.252 245.792 164.526 244.896 164.526ZM235.178 168.575C233.838 168.575 232.748 167.485 232.748 166.146C232.748 164.806 233.838 163.716 235.178 163.716C236.517 163.716 237.607 164.806 237.607 166.146C237.607 167.485 236.517 168.575 235.178 168.575Z" fill="#DBEEEB"/>
<path d="M244.896 138.612H240.583C239.88 136.278 237.737 134.563 235.178 134.563C232.619 134.563 230.476 136.278 229.773 138.612H209.263C208.369 138.612 207.644 139.337 207.644 140.232C207.644 141.126 208.369 141.851 209.263 141.851H229.773C230.476 144.185 232.619 145.9 235.178 145.9C237.737 145.9 239.88 144.185 240.583 141.851H244.896C245.792 141.851 246.516 141.126 246.516 140.232C246.516 139.338 245.792 138.612 244.896 138.612ZM235.178 142.661C233.838 142.661 232.748 141.571 232.748 140.232C232.748 138.892 233.838 137.802 235.178 137.802C236.517 137.802 237.607 138.892 237.607 140.232C237.607 141.571 236.517 142.661 235.178 142.661Z" fill="#DBEEEB"/>
<path d="M244.896 151.568H224.386C223.683 149.235 221.54 147.519 218.981 147.519C216.422 147.519 214.279 149.235 213.576 151.568H209.263C208.369 151.568 207.644 152.294 207.644 153.188C207.644 154.082 208.369 154.808 209.263 154.808H213.576C214.279 157.142 216.422 158.857 218.981 158.857C221.54 158.857 223.683 157.142 224.386 154.808H244.896C245.792 154.808 246.516 154.082 246.516 153.188C246.516 152.294 245.792 151.568 244.896 151.568ZM218.981 155.618C217.642 155.618 216.552 154.528 216.552 153.188C216.552 151.849 217.642 150.759 218.981 150.759C220.321 150.759 221.411 151.849 221.411 153.188C221.411 154.528 220.321 155.618 218.981 155.618Z" fill="#DBEEEB"/>
</g>
<path d="M244.39 75.4443H161.838C159.629 75.4443 157.838 77.2352 157.838 79.4443V118.275C157.838 120.484 159.629 122.275 161.838 122.275H244.39C246.6 122.275 248.39 120.484 248.39 118.275V79.4443C248.39 77.2352 246.6 75.4443 244.39 75.4443Z" fill="#DBEEEB"/>
<path d="M209.495 99.47L199.362 105.32L199.362 93.6196L209.495 99.47Z" fill="white"/>
<path d="M279.404 200.339C279.404 200.339 279.713 197.915 280.433 196.475C281.153 195.035 285.737 195.946 285.737 195.946C285.737 195.946 286.648 196.725 286.854 200.398L279.404 200.339Z" fill="#233862"/>
<path d="M263.783 200.31C264.856 199.649 264.253 194.741 264.253 194.741C264.253 194.741 259.228 190.729 258.537 193.8C257.846 196.871 253.761 198.253 251.44 198.635C249.838 198.899 249.338 199.781 249.191 200.31H263.783Z" fill="#233862"/>
<path d="M274.187 164.632C273.982 165.763 273.849 166.675 273.82 167.35C273.35 176.446 266.164 197.268 264.871 197.753C262.873 198.503 259.743 196.901 258.097 196.387C257.421 196.166 256.966 195.49 257.112 194.785C260.669 178.401 261.991 154.816 262.461 140.856C262.696 133.818 263.916 128.969 263.916 128.969C263.916 128.969 281.461 124.281 281.564 130.203C281.652 135.434 275.745 155.992 274.187 164.632Z" fill="#213F7A"/>
<path d="M274.187 164.634L262.461 140.843C262.696 133.805 263.916 128.956 263.916 128.956C263.916 128.956 281.461 124.268 281.564 130.19C281.652 135.436 275.745 155.993 274.187 164.634Z" fill="#233862"/>
<path d="M270.278 130.204L279.55 197.445C279.55 197.445 283.621 198.43 286.795 197.637C286.795 197.637 289.513 161.87 289.278 153.23C289.058 144.59 291.232 130.101 288.778 128.499C286.339 126.912 270.278 130.204 270.278 130.204Z" fill="#213F7A"/>
<path d="M289.44 112.952L290.601 129.101C290.645 129.703 290.263 130.262 289.675 130.423C288.382 130.805 286.883 131.055 284.017 131.658C281.314 132.216 277.684 132.716 273.217 132.745C266.105 132.789 263.416 130.335 263.416 130.335C263.107 130.335 263.578 128.851 264.004 121.783C264.151 119.388 264.283 116.346 264.386 112.511C264.474 109.058 264.533 104.958 264.547 100.094C264.562 94.2458 273.614 87.9419 273.79 87.9419C273.79 88.7795 275.113 90.3371 277.17 90.4693C279.594 90.631 282.577 89.426 282.577 88.0154C282.577 88.0007 286.971 95.0393 288.529 102.533C288.734 103.489 288.881 104.488 288.999 105.546C288.999 105.56 288.999 105.575 288.999 105.59C289.028 105.781 289.043 105.972 289.058 106.178C289.058 106.207 289.058 106.251 289.072 106.281C289.087 106.457 289.102 106.633 289.131 106.824C289.131 106.868 289.146 106.927 289.146 106.986C289.16 107.147 289.175 107.309 289.19 107.485C289.19 107.5 289.19 107.515 289.19 107.53C289.205 107.647 289.205 107.779 289.219 107.897C289.219 107.985 289.234 108.073 289.234 108.161C289.249 108.308 289.249 108.455 289.263 108.602C289.263 108.676 289.278 108.749 289.278 108.823C289.293 108.97 289.293 109.102 289.307 109.249C289.307 109.308 289.322 109.381 289.322 109.44C289.337 109.646 289.352 109.851 289.352 110.057C289.352 110.072 289.352 110.086 289.352 110.101C289.366 110.307 289.366 110.498 289.381 110.704C289.381 110.748 289.381 110.806 289.381 110.85C289.396 111.041 289.396 111.233 289.41 111.424C289.41 111.453 289.41 111.482 289.41 111.512C289.41 111.982 289.425 112.467 289.44 112.952C289.44 112.966 289.44 112.981 289.44 112.996V112.952Z" fill="#91B7EF"/>
<path d="M273.761 87.9421C273.761 87.9421 265.341 87.8686 263.313 90.7193C261.285 93.57 256.833 108.867 259.155 113.951C261.476 119.035 265.811 111.85 268.221 108.72C270.631 105.605 273.761 87.9421 273.761 87.9421Z" fill="#91B7EF"/>
<path d="M273.673 86.649V87.516C273.673 87.516 273.438 90.2345 276.788 90.6312C280.138 91.028 282.622 90.1169 282.533 88.0156C282.225 86.3845 281.96 84.7241 281.931 83.3869C281.916 82.8873 281.96 82.3583 282.048 81.7558L275.554 81.6235L273.643 81.9321L273.673 86.649Z" fill="#FFB27D"/>
<path d="M273.644 81.9468L273.673 86.6637C274.364 86.9869 275.142 87.178 276.009 87.178C278.992 87.178 280.932 84.9885 281.931 83.4015C281.917 82.9019 281.961 82.3729 282.049 81.7704L275.554 81.6382L273.644 81.9468Z" fill="#E2915A"/>
<path d="M282.563 80.7136C281.814 84.7692 276.568 84.637 274.305 84.3872C273.673 84.3137 273.262 84.2402 273.262 84.2402C272.542 84.0492 272.145 82.9178 271.954 81.4336C271.586 78.4947 272.057 74.204 272.542 73.1019C273.291 71.4414 274.687 69.6487 279.962 70.9418C285.252 72.2349 283.533 75.5118 282.563 80.7136Z" fill="#FFB27D"/>
<path d="M265.135 99.3472C265.135 99.3472 261.873 106.547 261.976 108.707C261.976 108.707 263.592 108.649 265.135 109.119C267.692 109.868 265.135 99.3472 265.135 99.3472Z" fill="#7EA9E8"/>
<path d="M270.939 69.222C270.939 69.222 273.261 69.0456 275.994 67.8554C278.213 66.8855 281.02 67.9582 281.931 68.4285C281.902 68.2815 281.843 68.0758 281.71 67.8848C281.71 67.8848 282.122 68.1786 282.181 68.5754C282.225 68.6048 282.239 68.6342 282.225 68.6342C282.225 68.6342 282.695 68.546 282.989 68.6783C282.989 68.6783 282.783 68.6489 282.71 68.7811C282.695 68.7958 282.695 68.8105 282.68 68.8252C286.148 70.5004 286.471 75.9814 285.355 77.2451C284.017 78.7733 282.401 82.2118 282.401 82.2118C282.401 82.2118 281.813 81.4036 282.063 80.0517C282.313 78.7145 281.152 78.7145 279.683 78.0974C278.213 77.4802 279.433 75.7757 278.154 74.747C276.876 73.7037 272.174 74.3209 272.233 73.5274C270.484 72.8956 270.939 69.3983 270.939 69.222Z" fill="#233862"/>
<path d="M283.621 112.82C282.24 118.345 267.369 121.196 263.989 121.784C264.136 119.389 264.269 116.347 264.371 112.512L283.621 112.82Z" fill="#7EA9E8"/>
<path d="M280.359 114.613C280.506 114.613 283.665 114.143 284.238 113.864C284.811 113.585 287.398 109.897 285.693 108.956C283.989 108.016 279.433 111.792 279.433 111.792L280.359 114.613Z" fill="#FFB27D"/>
<path d="M261.094 115.716C261.094 115.716 273.335 116.377 281.549 114.614C281.549 114.614 281.755 112.234 279.168 111.19C279.168 111.19 266.37 108.472 263.284 109.236C260.227 109.985 261.094 115.716 261.094 115.716Z" fill="#91B7EF"/>
<path d="M289.219 106.105C286.677 109.162 283.356 111.674 279.697 112.262C279.668 112.218 278.595 110.572 278.786 108.177C278.875 107.06 279.242 105.782 280.124 104.43C280.388 104.019 280.638 103.519 280.844 102.975C282.842 97.8765 282.548 88.0459 282.548 88.0459C282.548 88.0459 291.042 88.9423 293.687 92.7187C295.303 95.011 293.231 101.256 289.219 106.105Z" fill="#91B7EF"/>
<path d="M274.304 84.3881C273.672 84.3147 273.261 84.2412 273.261 84.2412C272.541 84.0502 272.144 82.9187 271.953 81.4346C273.305 81.7725 273.922 82.8012 274.172 83.2567C274.304 83.4477 274.319 83.8885 274.304 84.3881Z" fill="#E2915A"/>
<path d="M270.881 86.6791C270.881 86.6791 267.942 81.8446 270.234 81.6242C272.512 81.4185 273.438 82.9614 273.761 83.5198C274.084 84.0929 273.673 86.6497 273.673 86.6497L270.881 86.6791Z" fill="#FFB27D"/>
<path d="M282.063 108C281.975 108.618 281.784 109.176 281.564 109.676C280.843 111.263 279.697 112.247 279.697 112.247C272.086 108.809 270.543 97.009 270.278 90.5141C270.175 87.9132 270.278 86.1646 270.278 86.1646C273.717 85.0331 274.687 87.0022 274.687 87.0022C274.687 87.0022 278.742 96.6564 280.843 102.96C281.652 105.37 282.166 107.295 282.063 108Z" fill="#91B7EF"/>
<path d="M289.22 106.104C286.678 109.16 283.357 111.673 279.698 112.261C272.086 108.822 270.543 97.0228 270.279 90.5278C270.279 90.5278 273.879 103.606 278.787 108.161C279.668 108.984 280.609 109.542 281.564 109.675C281.564 109.675 287.75 107.926 289.043 106.28C289.132 106.177 289.19 106.119 289.22 106.104Z" fill="#7EA9E8"/>
<defs>
<filter id="filter0_d" x="33.3701" y="39.5786" width="259.87" height="171.139" filterUnits="userSpaceOnUse" color-interpolation-filters="sRGB">
<feFlood flood-opacity="0" result="BackgroundImageFix"/>
<feColorMatrix in="SourceAlpha" type="matrix" values="0 0 0 0 0 0 0 0 0 0 0 0 0 0 0 0 0 0 127 0"/>
<feOffset dy="6"/>
<feGaussianBlur stdDeviation="10"/>
<feColorMatrix type="matrix" values="0 0 0 0 0.623529 0 0 0 0 0.698039 0 0 0 0 0.686275 0 0 0 0.3 0"/>
<feBlend mode="normal" in2="BackgroundImageFix" result="effect1_dropShadow"/>
<feBlend mode="normal" in="SourceGraphic" in2="effect1_dropShadow" result="shape"/>
</filter>
<linearGradient id="paint0_linear" x1="180.911" y1="42.5791" x2="31.333" y2="193.017" gradientUnits="userSpaceOnUse">
<stop stop-color="#99FF1E"/>
<stop offset="1" stop-color="#99FF1E" stop-opacity="0.43"/>
</linearGradient>
<linearGradient id="paint1_linear" x1="248.122" y1="160.143" x2="253.994" y2="173.627" gradientUnits="userSpaceOnUse">
<stop stop-color="#6DEEFF"/>
<stop offset="1" stop-color="#31C0FA"/>
</linearGradient>
<clipPath id="clip0">
<rect width="38.872" height="38.872" fill="white" transform="translate(157.838 133.752)"/>
</clipPath>
<clipPath id="clip1">
<rect width="38.872" height="38.872" fill="white" transform="translate(207.644 133.752)"/>
</clipPath>
</defs>
</svg>
