<svg width="79" height="69" viewBox="0 0 79 69" fill="none" xmlns="http://www.w3.org/2000/svg">
<path d="M74.83 0.39C77.47 12.05 78.79 22.17 78.79 30.75C78.79 43.07 75.93 52.31 70.21 58.47C64.49 64.85 56.13 68.04 45.13 68.04L45.13 54.84C50.85 54.84 55.03 53.3 57.67 50.22C60.09 47.14 61.3 42.52 61.3 36.36L61.3 28.77L44.8 28.77L44.8 0.389997L74.83 0.39ZM30.28 0.389996C32.92 12.05 34.24 22.17 34.24 30.75C34.24 43.07 31.38 52.31 25.66 58.47C19.94 64.85 11.58 68.04 0.580003 68.04L0.580004 54.84C6.30001 54.84 10.48 53.3 13.12 50.22C15.54 47.14 16.75 42.52 16.75 36.36L16.75 28.77L0.25001 28.77L0.250013 0.389993L30.28 0.389996Z" fill="white" fill-opacity="0.6"/>
</svg>
