<svg width="291" height="248" viewBox="0 0 291 248" fill="none" xmlns="http://www.w3.org/2000/svg">
<path fill-rule="evenodd" clip-rule="evenodd" d="M66.054 208.004C100.206 219.701 159.545 216.761 190.879 171.262C222.213 125.762 218.242 59.0208 182.465 44.3567C168.273 38.54 143.813 41.3345 118.225 49.8467L112.597 52.0502L102.225 55.8613C68.5203 69.9952 36.1435 92.9556 25.8018 118.187C5.95123 166.619 29.33 195.426 66.054 208.004Z" fill="url(#paint0_linear)" fill-opacity="0.2"/>
<g filter="url(#filter0_d)">
<rect x="51.4424" y="45.4341" width="219.47" height="130.9" rx="6" fill="white"/>
</g>
<path d="M257.786 133.601V73.1821C257.786 70.973 255.995 69.1821 253.786 69.1821L151.284 69.1821C149.075 69.1821 147.284 70.973 147.284 73.1821V133.601H257.786Z" fill="url(#paint1_linear)"/>
<path d="M241.709 133.654H224.445L257.775 100.764V117.8L241.709 133.654ZM198.445 133.654H204.313L257.783 80.8878V75.0967L198.445 133.654ZM147.284 93.3243V99.1153L177.543 69.2539H171.675L147.284 93.3243ZM207.838 69.2625H182.266L147.292 103.776V129.011L207.838 69.2625Z" fill="url(#paint2_linear)" fill-opacity="0.3"/>
<rect x="152.958" y="74.8203" width="98.8432" height="50.7573" rx="4" fill="#FBFBFB"/>
<rect x="146.279" y="138.934" width="110.865" height="24.043" fill="url(#paint3_linear)" fill-opacity="0.8"/>
<path d="M67.6295 61.4626C67.0545 61.4626 66.5531 61.3401 66.1253 61.0953C65.7045 60.8505 65.3784 60.5049 65.1469 60.0584C64.9155 59.6048 64.7998 59.0755 64.7998 58.4707V53.4482H66.241V56.5049H66.2515C66.4128 56.2529 66.6372 56.0549 66.9247 55.9109C67.2193 55.7669 67.5349 55.6948 67.8715 55.6948C68.3975 55.6948 68.8533 55.8137 69.239 56.0513C69.6247 56.2889 69.9228 56.6165 70.1332 57.0342C70.3506 57.4446 70.4593 57.9234 70.4593 58.4707C70.4593 59.0467 70.3471 59.5616 70.1227 60.0152C69.9053 60.4617 69.5862 60.8145 69.1654 61.0737C68.7446 61.3329 68.2327 61.4626 67.6295 61.4626ZM67.6295 60.1988C68.0573 60.1988 68.3905 60.044 68.6289 59.7344C68.8743 59.4176 68.9971 59.0323 68.9971 58.5787C68.9971 58.1251 68.8743 57.7434 68.6289 57.4338C68.3905 57.117 68.0573 56.9586 67.6295 56.9586C67.2018 56.9586 66.8651 57.117 66.6197 57.4338C66.3812 57.7434 66.262 58.1251 66.262 58.5787C66.262 59.0323 66.3812 59.4176 66.6197 59.7344C66.8651 60.044 67.2018 60.1988 67.6295 60.1988ZM74.2548 61.4626C73.7639 61.4626 73.3361 61.3329 72.9714 61.0737C72.6067 60.8145 72.3227 60.4689 72.1193 60.0368C71.9229 59.5976 71.8248 59.1151 71.8248 58.5895C71.8248 58.0495 71.937 57.5598 72.1614 57.1206C72.3928 56.6813 72.7224 56.3357 73.1502 56.0837C73.578 55.8245 74.09 55.6948 74.6861 55.6948C75.2892 55.6948 75.7976 55.8245 76.2114 56.0837C76.6252 56.3429 76.9407 56.6921 77.1581 57.1314C77.3755 57.5706 77.4842 58.0567 77.4842 58.5895V61.3329H76.0431V60.4149H76.022C75.8607 60.7029 75.6398 60.9513 75.3593 61.1601C75.0858 61.3618 74.7176 61.4626 74.2548 61.4626ZM74.665 60.1988C75.0858 60.1988 75.4154 60.0404 75.6539 59.7236C75.8993 59.4068 76.022 59.0215 76.022 58.5679C76.022 58.1215 75.8993 57.7434 75.6539 57.4338C75.4154 57.117 75.0858 56.9586 74.665 56.9586C74.2372 56.9586 73.9006 57.117 73.6552 57.4338C73.4097 57.7434 73.287 58.1215 73.287 58.5679C73.287 59.0215 73.4097 59.4068 73.6552 59.7236C73.9006 60.0404 74.2372 60.1988 74.665 60.1988ZM79.4797 61.3329V58.0603C79.4797 57.6282 79.5814 57.2322 79.7848 56.8721C79.9882 56.5121 80.2792 56.2277 80.6579 56.0189C81.0436 55.8029 81.5065 55.6948 82.0465 55.6948C82.4322 55.6948 82.7793 55.7632 83.0879 55.9001C83.3965 56.0369 83.6595 56.2241 83.8769 56.4617H83.8874C84.1118 56.2241 84.3783 56.0369 84.6869 55.9001C85.0025 55.7632 85.3531 55.6948 85.7388 55.6948C86.2788 55.6948 86.7382 55.8029 87.1169 56.0189C87.5026 56.2277 87.7971 56.5121 88.0005 56.8721C88.2039 57.2322 88.3056 57.6282 88.3056 58.0603V61.3329H86.8644V58.0603C86.8644 57.7578 86.7522 57.4986 86.5278 57.2826C86.3104 57.0666 86.0474 56.9586 85.7388 56.9586C85.4302 56.9586 85.1638 57.0666 84.9393 57.2826C84.7219 57.4986 84.6132 57.7578 84.6132 58.0603V61.3329H83.1721V58.0603C83.1721 57.7578 83.0599 57.4986 82.8354 57.2826C82.618 57.0666 82.3551 56.9586 82.0465 56.9586C81.7379 56.9586 81.4714 57.0666 81.247 57.2826C81.0296 57.4986 80.9209 57.7578 80.9209 58.0603V61.3329H79.4797ZM93.0788 61.4626C92.5037 61.4626 92.0023 61.3401 91.5745 61.0953C91.1537 60.8505 90.8276 60.5049 90.5962 60.0584C90.3648 59.6048 90.249 59.0755 90.249 58.4707V53.4482H91.6902V56.5049H91.7007C91.862 56.2529 92.0864 56.0549 92.374 55.9109C92.6685 55.7669 92.9841 55.6948 93.3207 55.6948C93.8467 55.6948 94.3025 55.8137 94.6883 56.0513C95.074 56.2889 95.372 56.6165 95.5824 57.0342C95.7998 57.4446 95.9085 57.9234 95.9085 58.4707C95.9085 59.0467 95.7963 59.5616 95.5719 60.0152C95.3545 60.4617 95.0354 60.8145 94.6146 61.0737C94.1938 61.3329 93.6819 61.4626 93.0788 61.4626ZM93.0788 60.1988C93.5066 60.1988 93.8397 60.044 94.0781 59.7344C94.3236 59.4176 94.4463 59.0323 94.4463 58.5787C94.4463 58.1251 94.3236 57.7434 94.0781 57.4338C93.8397 57.117 93.5066 56.9586 93.0788 56.9586C92.651 56.9586 92.3144 57.117 92.0689 57.4338C91.8305 57.7434 91.7113 58.1251 91.7113 58.5787C91.7113 59.0323 91.8305 59.4176 92.0689 59.7344C92.3144 60.044 92.651 60.1988 93.0788 60.1988ZM100.167 61.4626C99.613 61.4626 99.1186 61.3365 98.6838 61.0845C98.249 60.8253 97.9053 60.4797 97.6529 60.0476C97.4004 59.6084 97.2742 59.1187 97.2742 58.5787C97.2742 58.0387 97.4004 57.5526 97.6529 57.1206C97.9053 56.6813 98.249 56.3357 98.6838 56.0837C99.1186 55.8245 99.613 55.6948 100.167 55.6948C100.721 55.6948 101.215 55.8245 101.65 56.0837C102.085 56.3357 102.429 56.6813 102.681 57.1206C102.934 57.5526 103.06 58.0387 103.06 58.5787C103.06 59.1187 102.934 59.6084 102.681 60.0476C102.429 60.4797 102.085 60.8253 101.65 61.0845C101.215 61.3365 100.721 61.4626 100.167 61.4626ZM100.167 60.1988C100.609 60.1988 100.956 60.044 101.208 59.7344C101.468 59.4176 101.598 59.0323 101.598 58.5787C101.598 58.1251 101.468 57.7434 101.208 57.4338C100.956 57.117 100.609 56.9586 100.167 56.9586C99.7252 56.9586 99.3745 57.117 99.1151 57.4338C98.8626 57.7434 98.7364 58.1251 98.7364 58.5787C98.7364 59.0323 98.8626 59.4176 99.1151 59.7344C99.3745 60.044 99.7252 60.1988 100.167 60.1988ZM107.321 61.4626C106.767 61.4626 106.273 61.3365 105.838 61.0845C105.403 60.8253 105.06 60.4797 104.807 60.0476C104.555 59.6084 104.429 59.1187 104.429 58.5787C104.429 58.0387 104.555 57.5526 104.807 57.1206C105.06 56.6813 105.403 56.3357 105.838 56.0837C106.273 55.8245 106.767 55.6948 107.321 55.6948C107.875 55.6948 108.37 55.8245 108.805 56.0837C109.239 56.3357 109.583 56.6813 109.836 57.1206C110.088 57.5526 110.214 58.0387 110.214 58.5787C110.214 59.1187 110.088 59.6084 109.836 60.0476C109.583 60.4797 109.239 60.8253 108.805 61.0845C108.37 61.3365 107.875 61.4626 107.321 61.4626ZM107.321 60.1988C107.763 60.1988 108.11 60.044 108.363 59.7344C108.622 59.4176 108.752 59.0323 108.752 58.5787C108.752 58.1251 108.622 57.7434 108.363 57.4338C108.11 57.117 107.763 56.9586 107.321 56.9586C106.88 56.9586 106.529 57.117 106.269 57.4338C106.017 57.7434 105.891 58.1251 105.891 58.5787C105.891 59.0323 106.017 59.4176 106.269 59.7344C106.529 60.044 106.88 60.1988 107.321 60.1988Z" fill="#009F10" fill-opacity="0.27"/>
<rect x="131.586" y="56.1199" width="126.893" height="4.00716" rx="2.00358" fill="#DBEEEB"/>
<circle cx="251.701" cy="158.1" r="7.16371" fill="url(#paint4_linear)"/>
<path d="M253.968 154.411H248.975C248.324 154.411 248.107 155.062 248.107 155.279C248.034 156.726 247.933 159.795 248.107 160.489C248.28 161.184 248.83 161.358 248.975 161.358H252.883L255.053 162.226V155.279C255.053 154.585 254.33 154.411 253.968 154.411Z" fill="white"/>
<path d="M249.192 159.402C249.554 159.691 250.538 160.27 251.58 160.27C252.622 160.27 253.461 159.691 253.751 159.402" stroke="#27B9ED"/>
<path d="M97.2649 69.9214H65.3896C64.8374 69.9214 64.3896 70.3691 64.3896 70.9214V86.4406C64.3896 86.9929 64.8374 87.4406 65.3896 87.4406H97.2649C97.8172 87.4406 98.2649 86.9929 98.2649 86.4406V70.9214C98.2649 70.3691 97.8172 69.9214 97.2649 69.9214Z" fill="#DBEEEB"/>
<path d="M96.8223 90.8013H66.0713C65.2814 90.8013 64.6411 91.4416 64.6411 92.2314C64.6411 93.0213 65.2814 93.6616 66.0713 93.6616H96.8223C97.6122 93.6616 98.2525 93.0213 98.2525 92.2314C98.2525 91.4416 97.6122 90.8013 96.8223 90.8013Z" fill="#DBEEEB"/>
<path d="M92.5261 95.6646H66.0713C65.2814 95.6646 64.6411 96.3049 64.6411 97.0947C64.6411 97.8845 65.2814 98.5248 66.0713 98.5248H92.5261C93.316 98.5248 93.9563 97.8845 93.9563 97.0947C93.9563 96.3049 93.316 95.6646 92.5261 95.6646Z" fill="#DBEEEB"/>
<path d="M135.678 69.9209H103.803C103.25 69.9209 102.803 70.3686 102.803 70.9209V86.4401C102.803 86.9924 103.25 87.4401 103.803 87.4401H135.678C136.23 87.4401 136.678 86.9924 136.678 86.4401V70.9209C136.678 70.3686 136.23 69.9209 135.678 69.9209Z" fill="#DBEEEB"/>
<path d="M135.237 90.8013H104.233C103.443 90.8013 102.803 91.4416 102.803 92.2314C102.803 93.0213 103.443 93.6616 104.233 93.6616H135.237C136.027 93.6616 136.667 93.0213 136.667 92.2314C136.667 91.4416 136.027 90.8013 135.237 90.8013Z" fill="#DBEEEB"/>
<path d="M130.688 95.6646H104.233C103.443 95.6646 102.803 96.3049 102.803 97.0947C102.803 97.8845 103.443 98.5248 104.233 98.5248H130.688C131.478 98.5248 132.118 97.8845 132.118 97.0947C132.118 96.3049 131.478 95.6646 130.688 95.6646Z" fill="#DBEEEB"/>
<path d="M83.7134 79.233L79.9226 81.4216L79.9226 77.0444L83.7134 79.233Z" fill="white"/>
<path d="M122.128 79.233L118.337 81.4216L118.337 77.0444L122.128 79.233Z" fill="white"/>
<path d="M97.2649 104.29H65.3896C64.8374 104.29 64.3896 104.738 64.3896 105.29V120.809C64.3896 121.362 64.8374 121.809 65.3896 121.809H97.2649C97.8172 121.809 98.2649 121.362 98.2649 120.809V105.29C98.2649 104.738 97.8172 104.29 97.2649 104.29Z" fill="#DBEEEB"/>
<path d="M96.8228 125.105H66.0718C65.2819 125.105 64.6416 125.746 64.6416 126.536C64.6416 127.325 65.2819 127.966 66.0718 127.966H96.8228C97.6127 127.966 98.253 127.325 98.253 126.536C98.253 125.746 97.6127 125.105 96.8228 125.105Z" fill="#DBEEEB"/>
<path d="M92.5266 129.968H66.0718C65.2819 129.968 64.6416 130.608 64.6416 131.398C64.6416 132.188 65.2819 132.828 66.0718 132.828H92.5266C93.3165 132.828 93.9568 132.188 93.9568 131.398C93.9568 130.608 93.3165 129.968 92.5266 129.968Z" fill="#DBEEEB"/>
<path d="M135.678 104.29H103.803C103.25 104.29 102.803 104.738 102.803 105.29V120.809C102.803 121.362 103.25 121.809 103.803 121.809H135.678C136.23 121.809 136.678 121.362 136.678 120.809V105.29C136.678 104.738 136.23 104.29 135.678 104.29Z" fill="#DBEEEB"/>
<path d="M135.237 125.125H104.233C103.443 125.125 102.803 125.765 102.803 126.555C102.803 127.345 103.443 127.985 104.233 127.985H135.237C136.027 127.985 136.667 127.345 136.667 126.555C136.667 125.765 136.027 125.125 135.237 125.125Z" fill="#DBEEEB"/>
<path d="M130.688 129.987H104.233C103.443 129.987 102.803 130.628 102.803 131.417C102.803 132.207 103.443 132.848 104.233 132.848H130.688C131.478 132.848 132.118 132.207 132.118 131.417C132.118 130.628 131.478 129.987 130.688 129.987Z" fill="#DBEEEB"/>
<path d="M83.7144 113.277L79.9236 115.466L79.9236 111.089L83.7144 113.277Z" fill="white"/>
<path d="M122.127 113.277L118.337 115.466L118.337 111.089L122.127 113.277Z" fill="white"/>
<path d="M97.2649 138.156H65.3896C64.8374 138.156 64.3896 138.603 64.3896 139.156V154.675C64.3896 155.227 64.8374 155.675 65.3896 155.675H97.2649C97.8172 155.675 98.2649 155.227 98.2649 154.675V139.156C98.2649 138.603 97.8172 138.156 97.2649 138.156Z" fill="#DBEEEB"/>
<path d="M96.8228 158.969H66.0718C65.2819 158.969 64.6416 159.609 64.6416 160.399C64.6416 161.189 65.2819 161.829 66.0718 161.829H96.8228C97.6127 161.829 98.253 161.189 98.253 160.399C98.253 159.609 97.6127 158.969 96.8228 158.969Z" fill="#DBEEEB"/>
<path d="M92.5266 163.832H66.0718C65.2819 163.832 64.6416 164.472 64.6416 165.262C64.6416 166.052 65.2819 166.692 66.0718 166.692H92.5266C93.3165 166.692 93.9568 166.052 93.9568 165.262C93.9568 164.472 93.3165 163.832 92.5266 163.832Z" fill="#DBEEEB"/>
<path d="M135.678 138.153H103.803C103.25 138.153 102.803 138.601 102.803 139.153V154.673C102.803 155.225 103.25 155.673 103.803 155.673H135.678C136.23 155.673 136.678 155.225 136.678 154.673V139.153C136.678 138.601 136.23 138.153 135.678 138.153Z" fill="#DBEEEB"/>
<path d="M135.237 158.985H104.233C103.443 158.985 102.803 159.626 102.803 160.416C102.803 161.205 103.443 161.846 104.233 161.846H135.237C136.027 161.846 136.667 161.205 136.667 160.416C136.667 159.626 136.027 158.985 135.237 158.985Z" fill="#DBEEEB"/>
<path d="M130.688 163.849H104.233C103.443 163.849 102.803 164.489 102.803 165.279C102.803 166.069 103.443 166.709 104.233 166.709H130.688C131.478 166.709 132.118 166.069 132.118 165.279C132.118 164.489 131.478 163.849 130.688 163.849Z" fill="#DBEEEB"/>
<path d="M83.7139 147.139L79.9231 149.327L79.9231 144.95L83.7139 147.139Z" fill="white"/>
<path d="M122.128 147.139L118.337 149.327L118.337 144.95L122.128 147.139Z" fill="white"/>
<g filter="url(#filter1_d)">
<rect x="102.2" y="66.8076" width="124.222" height="82.8146" rx="4" fill="#FBFBFB"/>
</g>
<rect x="142.272" y="130.798" width="44.0787" height="8.01432" rx="4.00716" fill="#DBEEEB"/>
<g clip-path="url(#clip0)">
<path d="M165.152 101.335L167.014 105.06H183.202L181.339 101.335H165.152Z" fill="#CAE8E3"/>
<path d="M162.138 101.335H145.95L144.087 105.06H160.275L162.138 101.335Z" fill="#CAE8E3"/>
<path d="M164.576 104.349V112.511H162.714V104.349L161.427 106.923H147.813V121.824H162.714V115.305H164.576V121.824H179.477V106.923H165.863L164.576 104.349ZM155.263 119.961H149.676V118.098H155.263V119.961ZM155.263 116.236H149.676V114.373H155.263V116.236ZM158.988 119.961H157.126V118.098H158.988V119.961Z" fill="#CAE8E3"/>
<path d="M159.344 81.0929L163.645 79.9966L167.946 81.0929L168.283 76.4747L170.568 72.5717L166.528 70.8228L163.645 67.2595L160.763 70.8228L156.722 72.5717L159.007 76.4747L159.344 81.0929Z" fill="#CAE8E3"/>
<path d="M145 82.9934L146.355 80.682L143.956 79.6434L142.225 77.5034L140.494 79.6434L138.096 80.682L139.45 82.9934L139.649 85.7491L142.225 85.0933L144.801 85.7491L145 82.9934Z" fill="#CAE8E3"/>
<path d="M182.488 85.7491L185.064 85.0933L187.641 85.7491L187.84 82.9934L189.194 80.682L186.796 79.6434L185.064 77.5034L183.333 79.6434L180.935 80.682L182.289 82.9934L182.488 85.7491Z" fill="#CAE8E3"/>
<path d="M146.365 88.1408C148.138 89.3235 149.714 90.7673 151.045 92.4321L154.733 97.0413L153.971 90.9392C153.572 87.7533 151.87 84.8208 149.302 82.895L148.41 82.2261L145.68 87.6847L146.365 88.1408Z" fill="#CAE8E3"/>
<path d="M173.319 90.9389L172.556 97.0409L176.245 92.4309C177.577 90.7661 179.152 89.3223 180.925 88.1396L181.609 87.6835L178.879 82.2249L177.987 82.8956C175.419 84.8214 173.717 87.753 173.319 90.9389Z" fill="#CAE8E3"/>
<path d="M167.37 97.6104H169.233V93.7084C169.233 89.2356 170.809 84.8806 173.674 81.4433L172.243 80.2515C169.1 84.0221 167.37 88.8013 167.37 93.7084V97.6104Z" fill="#CAE8E3"/>
<path d="M173.889 77.1213H175.752V78.9839H173.889V77.1213Z" fill="#CAE8E3"/>
<path d="M176.683 73.3967H178.546V75.2593H176.683V73.3967Z" fill="#CAE8E3"/>
<path d="M158.057 97.6104H159.92V93.7084C159.92 88.8004 158.189 84.0221 155.048 80.2515L153.617 81.4433C156.481 84.8806 158.057 89.2356 158.057 93.7084V97.6104Z" fill="#CAE8E3"/>
<path d="M151.538 77.1213H153.401V78.9839H151.538V77.1213Z" fill="#CAE8E3"/>
<path d="M148.744 73.3967H150.607V75.2593H148.744V73.3967Z" fill="#CAE8E3"/>
<path d="M162.713 81.7781H164.576V83.6406H162.713V81.7781Z" fill="#CAE8E3"/>
<path d="M162.713 85.5037H164.576V97.6105H162.713V85.5037Z" fill="#CAE8E3"/>
<path d="M186.927 91.0913H188.79V92.9539H186.927V91.0913Z" fill="#CAE8E3"/>
<path d="M186.927 94.8162H188.79V96.6788H186.927V94.8162Z" fill="#CAE8E3"/>
<path d="M188.79 92.9534H190.652V94.8159H188.79V92.9534Z" fill="#CAE8E3"/>
<path d="M185.064 92.9534H186.927V94.8159H185.064V92.9534Z" fill="#CAE8E3"/>
<path d="M185.996 67.8086H187.858V69.6712H185.996V67.8086Z" fill="#CAE8E3"/>
<path d="M185.996 71.5344H187.858V73.397H185.996V71.5344Z" fill="#CAE8E3"/>
<path d="M187.858 69.6716H189.721V71.5342H187.858V69.6716Z" fill="#CAE8E3"/>
<path d="M184.133 69.6716H185.996V71.5342H184.133V69.6716Z" fill="#CAE8E3"/>
<path d="M138.5 94.8162H140.363V96.6788H138.5V94.8162Z" fill="#CAE8E3"/>
<path d="M138.5 98.542H140.363V100.405H138.5V98.542Z" fill="#CAE8E3"/>
<path d="M140.363 96.6792H142.225V98.5418H140.363V96.6792Z" fill="#CAE8E3"/>
<path d="M136.638 96.6792H138.5V98.5418H136.638V96.6792Z" fill="#CAE8E3"/>
<path d="M138.5 67.8086H140.363V69.6712H138.5V67.8086Z" fill="#CAE8E3"/>
<path d="M138.5 71.5344H140.363V73.397H138.5V71.5344Z" fill="#CAE8E3"/>
<path d="M140.363 69.6716H142.225V71.5342H140.363V69.6716Z" fill="#CAE8E3"/>
<path d="M136.638 69.6716H138.5V71.5342H136.638V69.6716Z" fill="#CAE8E3"/>
</g>
<path d="M265.484 183.262H208.432C199.019 171.707 202.928 154.989 210.569 142.942C212.137 141.285 215.153 140.116 218.413 139.293C224.41 137.767 231.197 137.421 231.253 137.397C231.275 137.385 234.847 134.284 236.994 131.494C243.67 122.836 249.356 123.575 249.356 123.575C256.165 122.156 261.962 121.751 266.268 124.315C270.252 126.7 272.955 131.649 273.957 140.736C274.146 142.453 274.279 144.326 274.346 146.353C274.591 153.735 273.156 160.101 273.957 165.658C272.845 173.171 269.165 179.107 265.484 183.262Z" fill="#F2BF64"/>
<path d="M264.662 134.294C260.211 136.802 259.707 145.068 252.748 147.203C245.778 149.338 233.948 149.139 227.241 156.661C220.763 163.922 213.636 145.44 216.707 140.24C223.174 138.651 230.493 138.291 230.553 138.266C230.577 138.254 234.428 135.027 236.743 132.122C243.942 123.111 250.073 123.881 250.073 123.881C257.415 122.404 263.666 121.982 268.309 124.65C270.661 127.319 269.113 131.787 264.662 134.294Z" fill="#EAAC3E"/>
<path d="M241.631 127.782C241.631 127.782 215.592 127.446 212.109 129.656C208.641 131.879 215.69 167.148 215.69 167.148C215.69 167.148 222.43 167.344 222.961 165.554C222.961 165.554 221.703 149.024 222.752 146.158C223.801 143.305 223.143 139.347 223.143 139.347C223.143 139.347 236.331 141.319 240.498 140.326C244.679 139.319 241.631 127.782 241.631 127.782Z" fill="#233862"/>
<path d="M247.658 109.547C247.658 109.561 243.994 118.091 242.204 119C240.414 119.909 233.953 127.335 232.569 127.209C231.184 127.083 234.191 128.342 234.191 128.342C234.191 128.342 245.49 123.126 246.147 122.804C246.805 122.483 250.273 116.777 250.748 113.896C251.224 111.015 247.658 109.547 247.658 109.547Z" fill="#FFB27D"/>
<path d="M223.786 169.778C222.919 171.456 222.724 174.533 222.458 175.582C222.206 176.63 217.647 180.182 217.256 180.001C216.263 179.553 217.214 177.819 217.815 176.546C217.843 176.491 217.857 176.449 217.885 176.393C218.486 175.12 217.969 172.267 218.276 170.785C218.584 169.316 217.088 165.345 217.088 165.345L219.605 162.17C219.605 162.17 221.367 165.527 222.64 166.142C222.863 166.254 223.073 166.38 223.255 166.534C224.136 167.247 224.5 168.394 223.786 169.778Z" fill="#FFB27D"/>
<path d="M214.948 179.582C213.2 180.296 211.075 182.533 210.194 183.163C209.326 183.792 203.551 183.568 203.369 183.177C202.88 182.156 204.893 181.428 206.18 180.827C206.194 180.813 206.222 180.813 206.236 180.799C207.508 180.156 208.921 177.709 210.096 176.8C211.284 175.877 212.697 171.877 212.697 171.877L216.668 171.066C216.668 171.066 215.857 174.772 216.417 176.058C216.473 176.184 216.515 176.296 216.556 176.422C216.934 177.639 216.529 178.939 214.948 179.582Z" fill="#FFB27D"/>
<path d="M255.14 105.757C254.608 105.142 262.985 102.625 264.775 109.491C264.775 109.491 280.186 105.394 270.719 98.5273C267.432 96.15 267.11 93.6188 266.635 91.2974C266.16 88.9759 262.887 82.3053 257.209 85.6196C257.209 85.6196 254.608 85.6336 252.972 87.06C249.224 90.2905 245.141 110.848 255.14 105.757Z" fill="#163560"/>
<path d="M252.51 128.986C252.51 128.986 225.506 131.727 223.129 134.482C220.751 137.237 211.424 173.093 211.424 173.093C211.424 173.093 214.179 174.632 216.682 173.191C216.682 173.191 223.828 161.025 226.989 157.207C230.149 153.389 231.338 141.6 231.855 141.474C232.373 141.349 249.308 143.838 255.125 139.363C260.971 134.902 252.51 128.986 252.51 128.986Z" fill="#2A4E96"/>
<path d="M267.558 104.486C267.558 104.486 261.111 101.605 252.944 102.919C251.28 103.185 249.77 103.73 248.581 105.702C246.889 108.485 246.106 109.968 246.106 109.968C246.106 109.968 246.273 111.254 248.567 112.275C247.938 114.582 249.14 118.596 248.036 120.162C246.931 121.728 240.064 125.588 239.729 127.742C239.099 131.699 251.462 138.873 255.14 138.104C265.74 135.909 272.942 107.506 267.558 104.486Z" fill="#F9DDBF"/>
<path d="M263.908 96.332C263.908 96.332 265.18 93.8288 265.348 91.787C265.474 90.3187 264.229 85.0605 258.943 86.3331C258.943 86.3331 257.405 86.6267 256.034 87.7595C254.944 88.6545 253.419 90.5144 255.741 94.9895L256.37 96.5138L263.908 96.332Z" fill="#163560"/>
<path d="M256.651 104.765C256.119 105.325 256.329 107.198 258.832 107.059C260.482 106.961 263.992 104.933 263.671 103.535C263.517 102.863 262.244 101.143 261.951 97.1855L261.657 97.2695L256.637 98.6819C256.637 98.6819 256.874 100.276 257 101.786C257.112 103.045 256.874 104.527 256.651 104.765Z" fill="#FFB27D"/>
<path d="M256.637 98.6683C256.637 98.6683 256.874 100.263 257 101.773C259.839 101.465 261.154 98.7522 261.657 97.2559L256.637 98.6683Z" fill="#F4A269"/>
<path d="M256.539 100.989C256.539 100.989 263.098 99.3389 262.007 95.2694C260.916 91.1999 261.028 88.2352 256.791 89.1162C252.553 89.9972 252.162 91.7733 252.19 93.2137C252.232 94.6681 254.791 101.325 256.539 100.989Z" fill="#FFB27D"/>
<path d="M253.784 89.8292C253.784 89.8292 255.993 94.0246 260.147 94.4861C262.58 94.7518 263.251 96.36 263.251 96.36C263.251 96.36 262.524 91.7731 261.293 88.9762C261.293 88.9622 254.525 87.1861 253.784 89.8292Z" fill="#163560"/>
<path d="M254.539 90.3745C254.539 90.3745 253.099 91.8428 252.651 92.8777C251.994 94.416 253.28 97.6324 253.798 98.3316C253.798 98.3316 250.749 93.1434 251.77 90.9059C252.861 88.5285 254.539 90.3745 254.539 90.3745Z" fill="#163560"/>
<path d="M234.512 128.188C234.512 128.188 233.212 129.573 233.044 129.643C232.177 130.048 231.086 129.811 230.555 129.95C230.023 130.076 230.121 129.755 230.513 129.489C230.904 129.223 231.855 129.321 231.464 129.223C231.072 129.125 228.96 128.734 228.163 128.944C226.905 129.279 225.912 128.888 225.828 128.762C225.744 128.636 228.709 127.195 229.548 127.237C230.387 127.279 232.82 127.167 232.82 127.167L234.512 128.188Z" fill="#FFB27D"/>
<path d="M269.781 107.03C269.781 107.03 270.564 126.286 268.299 128.985C266.047 131.671 252.273 128.692 252.273 128.692L251.322 127.279C251.322 127.279 263.544 125.489 264.369 125.252C265.544 124.916 264.733 111.659 264.733 111.659L269.781 107.03Z" fill="#FFB27D"/>
<path d="M266.734 104.177C266.929 104.177 269.363 104.988 271.111 108.442C272.831 111.841 273.446 113.491 273.446 113.491C273.446 113.491 265.824 119.392 262.804 117.225C259.783 115.043 263.951 104.107 266.734 104.177Z" fill="#F9DDBF"/>
<path d="M252.273 128.692C252.273 128.692 251.182 129.797 250.763 130.37C250.343 130.943 247.434 131.964 247.364 131.657C247.294 131.349 248.665 130.426 248.791 130.09C248.917 129.741 250.413 128.007 251.322 127.811C252.231 127.615 252.273 128.692 252.273 128.692Z" fill="#FFB27D"/>
<path d="M251.322 127.279C251.322 127.279 246.833 128.314 246.064 128.636C245.295 128.943 243.686 131.237 244.33 131.573C244.735 131.782 246.511 130.859 247.406 130.664C248.301 130.468 250.86 130.915 252.021 128.608C252.147 128.342 251.322 127.279 251.322 127.279Z" fill="#FFB27D"/>
<path d="M214.948 179.582C213.2 180.295 211.075 182.532 210.194 183.162C209.326 183.791 203.551 183.567 203.369 183.176C202.88 182.155 204.893 181.428 206.18 180.826C206.194 180.812 206.222 180.812 206.236 180.798L206.418 180.742C206.418 180.742 208.907 181.623 210.977 180.742C212.585 180.057 214.976 177.484 216.556 176.435C216.934 177.638 216.529 178.938 214.948 179.582Z" fill="#2E3552"/>
<path d="M223.786 169.779C222.919 171.457 222.724 174.534 222.458 175.583C222.206 176.631 217.647 180.184 217.256 180.002C216.263 179.554 217.214 177.82 217.815 176.548C218.179 176.52 218.654 176.408 219.199 176.03C220.332 175.275 222.262 172.408 222.444 170.716C222.584 169.346 222.5 167.374 223.255 166.535C224.136 167.248 224.5 168.395 223.786 169.779Z" fill="#2E3552"/>
<path d="M245.518 132.159H225.954L220.066 117.518H239.603L245.518 132.159Z" fill="#9FAEAC"/>
<path d="M225.73 131.586H251.574V132.159H225.954L225.73 131.586Z" fill="#9FAEAC"/>
<path d="M230.89 124.832C230.736 124.315 231.044 123.895 231.562 123.895C232.079 123.895 232.61 124.315 232.764 124.832C232.918 125.349 232.61 125.769 232.093 125.769C231.576 125.769 231.044 125.349 230.89 124.832Z" fill="white"/>
<path d="M263.465 139.332C263.465 139.332 261.231 141.389 251.879 141.689C242.526 141.978 230.342 152.156 230.22 155.031C230.11 157.906 249.034 162.273 249.327 161.864C249.62 161.455 261.341 151.542 261.341 151.542L263.465 139.332Z" fill="#F2BF64"/>
<path d="M274.038 165.659C269.834 156.357 257.425 167.205 254.95 162.82C252.474 158.435 259.941 153.834 266.647 149.895C273.22 146.041 273.762 140.263 273.785 140.025C273.826 141.759 274.713 148.157 274.589 150.189C274.149 157.586 273.696 160.028 274.038 165.659Z" fill="#EAAC3E"/>
<defs>
<filter id="filter0_d" x="31.4424" y="31.4341" width="259.47" height="170.9" filterUnits="userSpaceOnUse" color-interpolation-filters="sRGB">
<feFlood flood-opacity="0" result="BackgroundImageFix"/>
<feColorMatrix in="SourceAlpha" type="matrix" values="0 0 0 0 0 0 0 0 0 0 0 0 0 0 0 0 0 0 127 0"/>
<feOffset dy="6"/>
<feGaussianBlur stdDeviation="10"/>
<feColorMatrix type="matrix" values="0 0 0 0 0.623529 0 0 0 0 0.698039 0 0 0 0 0.686275 0 0 0 0.3 0"/>
<feBlend mode="normal" in2="BackgroundImageFix" result="effect1_dropShadow"/>
<feBlend mode="normal" in="SourceGraphic" in2="effect1_dropShadow" result="shape"/>
</filter>
<filter id="filter1_d" x="88.1997" y="56.8076" width="152.222" height="110.815" filterUnits="userSpaceOnUse" color-interpolation-filters="sRGB">
<feFlood flood-opacity="0" result="BackgroundImageFix"/>
<feColorMatrix in="SourceAlpha" type="matrix" values="0 0 0 0 0 0 0 0 0 0 0 0 0 0 0 0 0 0 127 0"/>
<feOffset dy="4"/>
<feGaussianBlur stdDeviation="7"/>
<feColorMatrix type="matrix" values="0 0 0 0 0.45098 0 0 0 0 0.694118 0 0 0 0 0.658824 0 0 0 0.3 0"/>
<feBlend mode="normal" in2="BackgroundImageFix" result="effect1_dropShadow"/>
<feBlend mode="normal" in="SourceGraphic" in2="effect1_dropShadow" result="shape"/>
</filter>
<linearGradient id="paint0_linear" x1="174.373" y1="41.0404" x2="30.2005" y2="186.042" gradientUnits="userSpaceOnUse">
<stop stop-color="#99FF1E"/>
<stop offset="1" stop-color="#99FF1E" stop-opacity="0.43"/>
</linearGradient>
<linearGradient id="paint1_linear" x1="180.929" y1="63.2713" x2="280.43" y2="137.839" gradientUnits="userSpaceOnUse">
<stop stop-color="#DFF2EE"/>
<stop offset="1" stop-color="#E2F2EF"/>
</linearGradient>
<linearGradient id="paint2_linear" x1="158.396" y1="75.1775" x2="258.5" y2="126.165" gradientUnits="userSpaceOnUse">
<stop stop-color="white"/>
<stop offset="1" stop-color="white" stop-opacity="0.96"/>
</linearGradient>
<linearGradient id="paint3_linear" x1="201.712" y1="138.934" x2="201.712" y2="162.977" gradientUnits="userSpaceOnUse">
<stop stop-color="#E1F1EE"/>
<stop offset="1" stop-color="#E1F1EE" stop-opacity="0"/>
</linearGradient>
<linearGradient id="paint4_linear" x1="245.84" y1="151.805" x2="251.701" y2="165.264" gradientUnits="userSpaceOnUse">
<stop stop-color="#6DEEFF"/>
<stop offset="1" stop-color="#31C0FA"/>
</linearGradient>
<clipPath id="clip0">
<rect width="54.5644" height="54.5644" fill="white" transform="translate(136.321 67.2595)"/>
</clipPath>
</defs>
</svg>
