<svg width="360" height="749" viewBox="0 0 360 749" fill="none" xmlns="http://www.w3.org/2000/svg">
<path d="M177 132.399C-94 132.399 -486.5 69.0216 -540 30.9951L-540 655.995L-163.5 655.995L375 655.995L900 655.995L900 52.446C900 52.446 671.183 132.399 177 132.399Z" fill="url(#paint0_linear)"/>
<mask id="mask0" mask-type="alpha" maskUnits="userSpaceOnUse" x="-187" y="0" width="1228" height="706">
<path d="M405.681 86.4789C-15.7819 230.351 -187 90.7146 -187 36.0728L-187 589.269C6.1526 692.785 228.336 728.854 444.315 691.757L1041 589.269L1041 69.9594C1041 69.9594 944.21 -97.3549 405.681 86.4789Z" fill="url(#paint1_linear)"/>
</mask>
<g mask="url(#mask0)">
<path fill-rule="evenodd" clip-rule="evenodd" d="M126.139 144.573C106.601 154.538 87.2903 166.279 68.5549 179.422C69.9513 211.538 71.4993 243.387 73.0473 268.059C77.2813 340.036 88.2171 463.308 90.0835 484.164C92.1848 486.953 91.5914 493.304 90.3807 495.501C90.6911 505.485 93.6044 598.65 96.833 682.786C105.546 682.913 114.35 682.754 123.213 682.318C124.192 682.27 125.171 682.217 126.152 682.161C125.613 613.535 124.687 544.076 124.687 544.076L124.865 544.003C124.729 542.037 124.166 532.833 124.893 524.604L125.197 524.648C125.118 524.236 125.098 523.985 125.098 523.985C125.098 523.985 126.326 413.331 126.326 295.258C126.326 249.318 126.264 195.053 126.139 144.573ZM142.12 527.281C142.889 531.745 142.486 542.579 142.083 545.622L142.077 545.626C142.037 548.344 141.744 568.999 141.418 618.795C147.791 603.559 156.734 585.01 166.373 570.4C180.86 548.444 207.869 521.202 224.654 507.292C219.037 526.566 206.571 562.522 189.703 587.069C176.294 606.581 155.845 624.89 144.575 634.982L144.575 634.982C143.372 636.059 142.274 637.042 141.3 637.923C141.288 639.983 141.276 642.082 141.264 644.222C141.214 652.935 141.192 665.542 141.19 680.981C266.365 668.559 407.318 590.188 444.641 440.526C483.763 283.65 387.15 108.565 258.272 108.565C251.455 108.565 244.565 108.911 237.617 109.584C210.855 158.785 186.091 205.411 160.287 254.479C156.089 262.288 151.936 270.207 147.764 278.162L147.759 278.172L147.748 278.192C145.803 281.901 143.853 285.618 141.894 289.335C141.889 293.048 141.884 296.774 141.879 300.513C141.822 343.957 141.829 380.856 141.869 411.455C146.783 399.59 154.906 382.801 163.665 370.173C174.652 354.333 194.904 334.834 207.437 324.928C202.994 338.954 193.25 365.085 180.474 382.782C170.318 396.849 155.026 409.915 146.597 417.117L146.596 417.118C144.575 418.844 142.949 420.234 141.883 421.219C141.998 492.794 142.289 526.767 142.289 526.767C142.289 526.767 142.248 526.965 142.12 527.281ZM141.92 271.288C145.558 264.355 149.187 257.456 152.85 250.641C177.68 203.469 201.689 158.224 227.439 110.798C199.471 114.747 170.722 123.791 142.251 136.786C142.12 177.053 141.998 222.849 141.92 271.288ZM42.7536 499.259C42.7536 499.259 42.8154 499.274 42.9341 499.304C42.8116 499.473 42.7536 499.567 42.7536 499.567C42.7536 499.567 44.1421 519.493 46.2962 550.742C42.4214 539.207 38.6957 528.027 35.9019 519.643C31.8828 507.465 29.1164 499.438 28.509 497.84C18.4639 470.868 -1.06252 410.627 -1.09103 409.913L-1.31114 410.001C-3.62191 400.367 -9.07453 379.8 -14.5876 364.237C-20.9685 346.224 -37.5507 323.486 -46.9727 312.742C-45.042 328.139 -39.0184 354.773 -31.3785 371.867C-24.7803 386.63 -14.4616 402.612 -7.14413 412.352L-8.0453 412.715C-7.99088 412.839 -7.30792 414.946 -6.16486 418.472L-6.16426 418.474L-6.16405 418.474C-3.13982 427.803 3.10373 447.062 9.44943 465.821C-2.01309 457.006 -21.9226 442.354 -38.5764 431.912C-46.3306 427.05 -55.9661 422.642 -65.9986 418.83C-68.5332 409.469 -71.0848 400.019 -73.6584 390.459C-77.8723 374.82 -81.8687 359.523 -85.9827 343.776L-86.2358 342.807C-57.4615 295.303 -17.0443 248.845 28.9404 209.993C33.6457 307.131 41.3601 463.542 42.5892 488.449C42.5399 488.446 42.4916 488.443 42.4445 488.44C42.4445 488.131 40.8991 494.931 42.7536 499.259ZM-71.9501 416.653C-88.0146 410.99 -104.344 406.899 -115.019 404.951C-103.315 416.43 -83.0758 433.158 -64.1642 445.339C-52.3393 488.78 -40.7804 530.683 -29.031 572.961C-34.2641 570.728 -39.0209 568.849 -42.9587 567.38C-38.2712 573.968 -31.585 582.339 -24.0564 590.843C-20.8237 602.453 -17.5719 614.111 -14.2917 625.856C-11.4887 636.068 -8.60608 646.36 -5.71043 656.698L-5.70951 656.701C-4.80771 659.92 -3.90466 663.144 -3.00237 666.372C-78.2406 640.067 -131.569 580.932 -131.569 479.745C-131.569 439.151 -116.025 393.787 -89.9701 349.09C-86.2815 363.198 -82.6435 377.059 -78.7807 391.347C-76.4887 399.861 -74.2129 408.292 -71.9501 416.653ZM-9.16933 624.968C-11.5766 616.355 -13.966 607.797 -16.3415 599.277C-8.40878 607.661 -0.0197754 615.638 7.68068 621.576C21.3472 632.115 39.4942 642.198 53.0017 648.737C53.6933 658.924 54.3977 669.328 55.1072 679.843C36.9382 677.478 19.4379 673.682 2.92404 668.362C1.75446 664.173 0.582581 659.989 -0.587189 655.813C-3.48315 645.474 -6.36614 635.181 -9.16933 624.968ZM23.5167 602.546C35.1067 611.837 44.7154 622.533 51.8048 631.132C50.5612 612.87 49.3763 595.552 48.2977 579.839C43.9463 567.114 38.4221 550.662 31.7722 530.857C30.8522 528.117 29.9106 525.313 28.9476 522.446C27.488 518.017 26.1685 513.94 25.0685 510.542L25.0663 510.535L25.0657 510.533C23.3707 505.297 22.1971 501.671 21.8347 500.846C19.3696 494.409 16.3936 486.055 13.2874 477.058C-2.04695 473.419 -28.8567 464.683 -49.7932 453.779C-52.3595 452.442 -55.0094 450.953 -57.7119 449.343C-46.0296 492.23 -34.6007 533.65 -22.9252 575.634C-7.69662 582.478 10.1516 591.832 23.5167 602.546Z" fill="url(#paint2_linear)" fill-opacity="0.52"/>
</g>
<defs>
<linearGradient id="paint0_linear" x1="-550" y1="325.427" x2="881.699" y2="616.16" gradientUnits="userSpaceOnUse">
<stop stop-color="#01B213"/>
<stop offset="1" stop-color="#91ED58"/>
</linearGradient>
<linearGradient id="paint1_linear" x1="-195.528" y1="311.824" x2="1154.62" y2="311.609" gradientUnits="userSpaceOnUse">
<stop offset="0.60067" stop-color="#01B213"/>
<stop offset="1" stop-color="#74D355"/>
</linearGradient>
<linearGradient id="paint2_linear" x1="-78.969" y1="641.093" x2="453.151" y2="206.426" gradientUnits="userSpaceOnUse">
<stop stop-color="white" stop-opacity="0.66"/>
<stop offset="0.921875" stop-color="white" stop-opacity="0"/>
</linearGradient>
</defs>
</svg>
