<svg width="805" height="518" viewBox="0 0 805 518" fill="none" xmlns="http://www.w3.org/2000/svg">
<g filter="url(#filter0_d)">
<path d="M760 399L760 35C760 28.3726 754.627 23 748 23L56 23C49.3726 23 44 28.3726 44 35L44 399L760 399Z" fill="url(#paint0_linear)"/>
<path d="M655.831 399.317H543.971L759.928 207.341V306.78L655.831 399.317ZM375.501 399.317H413.524L759.985 91.3294V57.5284L375.501 399.317ZM44.0001 163.919V197.72L240.067 23.425H202.044L44.0001 163.919ZM436.361 23.4754H270.667L44.0568 224.922V372.216L436.361 23.4754Z" fill="url(#paint1_linear)" fill-opacity="0.3"/>
<path d="M84.5956 371C82.6456 371 80.9452 370.603 79.4946 369.809C78.0677 369.014 76.9619 367.893 76.1772 366.445C75.3924 364.973 75 363.256 75 361.294V345H79.887V354.916H79.9227C80.4696 354.099 81.2306 353.456 82.2056 352.989C83.2044 352.522 84.2746 352.288 85.4161 352.288C87.1996 352.288 88.7454 352.674 90.0533 353.445C91.3613 354.216 92.372 355.279 93.0854 356.633C93.8226 357.965 94.1912 359.518 94.1912 361.294C94.1912 363.163 93.8107 364.833 93.0497 366.305C92.3125 367.753 91.2305 368.898 89.8036 369.739C88.3768 370.58 86.6408 371 84.5956 371ZM84.5956 366.9C86.0463 366.9 87.1759 366.398 87.9844 365.394C88.8167 364.366 89.2329 363.116 89.2329 361.644C89.2329 360.173 88.8167 358.934 87.9844 357.93C87.1759 356.902 86.0463 356.388 84.5956 356.388C83.145 356.388 82.0035 356.902 81.1712 357.93C80.3626 358.934 79.9583 360.173 79.9583 361.644C79.9583 363.116 80.3626 364.366 81.1712 365.394C82.0035 366.398 83.145 366.9 84.5956 366.9ZM107.062 371C105.397 371 103.946 370.58 102.71 369.739C101.473 368.898 100.51 367.776 99.8204 366.375C99.1545 364.95 98.8216 363.385 98.8216 361.679C98.8216 359.927 99.2021 358.339 99.9631 356.914C100.748 355.489 101.866 354.367 103.316 353.55C104.767 352.709 106.503 352.288 108.524 352.288C110.569 352.288 112.293 352.709 113.697 353.55C115.1 354.391 116.17 355.524 116.907 356.949C117.644 358.374 118.013 359.951 118.013 361.679V370.58H113.126V367.601H113.054C112.508 368.535 111.758 369.341 110.807 370.019C109.88 370.673 108.631 371 107.062 371ZM108.453 366.9C109.88 366.9 110.997 366.386 111.806 365.358C112.638 364.331 113.054 363.081 113.054 361.609C113.054 360.161 112.638 358.934 111.806 357.93C110.997 356.902 109.88 356.388 108.453 356.388C107.002 356.388 105.861 356.902 105.028 357.93C104.196 358.934 103.78 360.161 103.78 361.609C103.78 363.081 104.196 364.331 105.028 365.358C105.861 366.386 107.002 366.9 108.453 366.9ZM124.779 370.58V359.962C124.779 358.561 125.124 357.276 125.814 356.108C126.504 354.94 127.491 354.017 128.775 353.34C130.083 352.639 131.652 352.288 133.483 352.288C134.791 352.288 135.968 352.51 137.015 352.954C138.061 353.398 138.953 354.005 139.69 354.776H139.726C140.487 354.005 141.39 353.398 142.437 352.954C143.507 352.51 144.696 352.288 146.004 352.288C147.835 352.288 149.393 352.639 150.677 353.34C151.985 354.017 152.984 354.94 153.673 356.108C154.363 357.276 154.708 358.561 154.708 359.962V370.58H149.821V359.962C149.821 358.981 149.44 358.14 148.679 357.439C147.942 356.739 147.05 356.388 146.004 356.388C144.958 356.388 144.054 356.739 143.293 357.439C142.556 358.14 142.187 358.981 142.187 359.962V370.58H137.3V359.962C137.3 358.981 136.92 358.14 136.159 357.439C135.421 356.739 134.53 356.388 133.483 356.388C132.437 356.388 131.533 356.739 130.772 357.439C130.035 358.14 129.666 358.981 129.666 359.962V370.58H124.779ZM170.894 371C168.944 371 167.243 370.603 165.793 369.809C164.366 369.014 163.26 367.893 162.475 366.445C161.691 364.973 161.298 363.256 161.298 361.294V345H166.185V354.916H166.221C166.768 354.099 167.529 353.456 168.504 352.989C169.503 352.522 170.573 352.288 171.714 352.288C173.498 352.288 175.044 352.674 176.351 353.445C177.659 354.216 178.67 355.279 179.384 356.633C180.121 357.965 180.489 359.518 180.489 361.294C180.489 363.163 180.109 364.833 179.348 366.305C178.611 367.753 177.529 368.898 176.102 369.739C174.675 370.58 172.939 371 170.894 371ZM170.894 366.9C172.344 366.9 173.474 366.398 174.283 365.394C175.115 364.366 175.531 363.116 175.531 361.644C175.531 360.173 175.115 358.934 174.283 357.93C173.474 356.902 172.344 356.388 170.894 356.388C169.443 356.388 168.302 356.902 167.469 357.93C166.661 358.934 166.256 360.173 166.256 361.644C166.256 363.116 166.661 364.366 167.469 365.394C168.302 366.398 169.443 366.9 170.894 366.9ZM194.93 371C193.051 371 191.375 370.591 189.9 369.774C188.426 368.933 187.26 367.811 186.404 366.41C185.548 364.985 185.12 363.396 185.12 361.644C185.12 359.892 185.548 358.315 186.404 356.914C187.26 355.489 188.426 354.367 189.9 353.55C191.375 352.709 193.051 352.288 194.93 352.288C196.809 352.288 198.485 352.709 199.96 353.55C201.434 354.367 202.599 355.489 203.455 356.914C204.311 358.315 204.739 359.892 204.739 361.644C204.739 363.396 204.311 364.985 203.455 366.41C202.599 367.811 201.434 368.933 199.96 369.774C198.485 370.591 196.809 371 194.93 371ZM194.93 366.9C196.428 366.9 197.605 366.398 198.461 365.394C199.341 364.366 199.781 363.116 199.781 361.644C199.781 360.173 199.341 358.934 198.461 357.93C197.605 356.902 196.428 356.388 194.93 356.388C193.432 356.388 192.243 356.902 191.363 357.93C190.507 358.934 190.079 360.173 190.079 361.644C190.079 363.116 190.507 364.366 191.363 365.394C192.243 366.398 193.432 366.9 194.93 366.9ZM219.19 371C217.312 371 215.635 370.591 214.161 369.774C212.686 368.933 211.521 367.811 210.665 366.41C209.809 364.985 209.381 363.396 209.381 361.644C209.381 359.892 209.809 358.315 210.665 356.914C211.521 355.489 212.686 354.367 214.161 353.55C215.635 352.709 217.312 352.288 219.19 352.288C221.069 352.288 222.746 352.709 224.22 353.55C225.694 354.367 226.86 355.489 227.716 356.914C228.572 358.315 229 359.892 229 361.644C229 363.396 228.572 364.985 227.716 366.41C226.86 367.811 225.694 368.933 224.22 369.774C222.746 370.591 221.069 371 219.19 371ZM219.19 366.9C220.689 366.9 221.866 366.398 222.722 365.394C223.602 364.366 224.042 363.116 224.042 361.644C224.042 360.173 223.602 358.934 222.722 357.93C221.866 356.902 220.689 356.388 219.19 356.388C217.692 356.388 216.503 356.902 215.623 357.93C214.767 358.934 214.339 360.173 214.339 361.644C214.339 363.116 214.767 364.366 215.623 365.394C216.503 366.398 217.692 366.9 219.19 366.9Z" fill="#7BE159" fill-opacity="0.8"/>
<path d="M760.286 399.069H44V440.698C44 447.325 49.3726 452.698 56 452.698H748.286C754.913 452.698 760.286 447.325 760.286 440.698V399.069Z" fill="#1E4843"/>
<path d="M740.785 417.267H544.749C543.218 417.267 541.971 416.02 541.971 414.489C541.971 412.958 543.218 411.711 544.749 411.711H740.785C742.316 411.711 743.563 412.958 743.563 414.489C743.506 416.02 742.316 417.267 740.785 417.267Z" fill="white"/>
<path d="M544.692 417.267H64.5224C62.9918 417.267 61.7446 416.02 61.7446 414.489C61.7446 412.958 62.9918 411.711 64.5224 411.711H544.692C546.223 411.711 547.47 412.958 547.47 414.489C547.47 416.02 546.223 417.267 544.692 417.267Z" fill="#03D218"/>
<path d="M550.588 414.489C550.588 417.72 547.98 420.328 544.749 420.328C541.517 420.328 538.91 417.72 538.91 414.489C538.91 411.257 541.517 408.649 544.749 408.649C547.923 408.649 550.588 411.257 550.588 414.489Z" fill="#FFFDFF"/>
<path d="M97.9135 429.966H101.655V442.778H97.9135V429.966ZM90.7138 442.778H94.4554V429.966H90.7138V442.778ZM126.315 429.966V435.125L118.435 429.966V442.778L126.315 437.62V442.778H130.057V429.966H126.315ZM62.3118 429.966V442.778H66.0533V437.62L73.9333 442.778V429.966L66.0533 435.125V429.966H62.3118Z" fill="white"/>
<path d="M685.343 433.433L684.97 432.543C684.97 432.543 685.84 430.542 685.747 430.478L684.596 429.334C684.503 429.271 682.544 430.16 682.544 430.16L681.642 429.779C681.642 429.779 680.833 427.746 680.74 427.746H679.123C678.999 427.746 678.283 429.779 678.283 429.779L677.382 430.16C677.382 430.16 675.391 429.303 675.298 429.366L674.147 430.51C674.054 430.573 674.987 432.543 674.987 432.543L674.614 433.433C674.614 433.433 672.593 434.227 672.593 434.322V435.942C672.593 436.069 674.614 436.8 674.614 436.8L674.987 437.69C674.987 437.69 674.116 439.691 674.21 439.755L675.36 440.898C675.422 440.962 677.382 440.072 677.382 440.072L678.283 440.454C678.283 440.454 679.092 442.487 679.185 442.487H680.802C680.927 442.487 681.642 440.454 681.642 440.454L682.544 440.072C682.544 440.072 684.534 440.93 684.627 440.867L685.778 439.723C685.871 439.628 684.938 437.69 684.938 437.69L685.312 436.8C685.312 436.8 687.333 436.006 687.333 435.879V434.259C687.364 434.195 685.343 433.433 685.343 433.433ZM682.357 435.148C682.357 436.451 681.3 437.531 679.994 437.531C678.688 437.531 677.63 436.482 677.63 435.148C677.63 433.846 678.688 432.797 679.994 432.797C681.3 432.765 682.357 433.846 682.357 435.148Z" fill="white"/>
<path d="M715.762 440.381H697.863V429.852H715.762V440.381ZM699.184 439.198H714.441V431.005H699.184V439.198Z" fill="white"/>
<path d="M733.975 429.43H738.327V433.814H739.598V428.159H733.975V429.43Z" fill="white"/>
<path d="M727.146 433.814V429.43H731.53V428.159H725.875V433.814H727.146Z" fill="white"/>
<path d="M738.327 436.26V440.644H733.975V441.915H739.598V436.26H738.327Z" fill="white"/>
<path d="M731.529 440.644H727.145V436.26H725.874V441.915H731.529V440.644Z" fill="white"/>
</g>
<path d="M390.55 303.636L390.574 304.136L390.55 303.636ZM487.899 229.92C476.062 277.384 429.751 301.205 390.525 303.137L390.574 304.136C430.075 302.19 476.891 278.195 488.869 230.162L487.899 229.92ZM390.525 303.137C370.156 304.14 350.89 300.308 336.732 290.512C322.599 280.733 313.5 264.975 313.5 241.978H312.5C312.5 265.278 321.74 281.355 336.163 291.334C350.562 301.297 370.071 305.145 390.574 304.136L390.525 303.137ZM313.5 241.978C313.5 230.517 317.614 217.753 324.633 205.035C331.65 192.323 341.554 179.686 353.091 168.487C376.185 146.07 405.731 129.5 431.658 129.5V128.5C405.356 128.5 375.573 145.271 352.395 167.769C340.797 179.027 330.829 191.741 323.758 204.552C316.69 217.358 312.5 230.291 312.5 241.978H313.5ZM431.658 129.5C451.029 129.5 468.047 142.662 478.76 161.858C489.469 181.046 493.82 206.176 487.899 229.92L488.869 230.162C494.856 206.156 490.458 180.766 479.633 161.371C468.814 141.984 451.515 128.5 431.658 128.5V129.5Z" fill="white" fill-opacity="0.2"/>
<path d="M394.097 277.684L394.121 278.184L394.097 277.684ZM461.221 226.704C453.063 259.417 421.137 275.852 394.072 277.185L394.121 278.184C421.461 276.837 453.892 260.228 462.191 226.946L461.221 226.704ZM394.072 277.185C380.016 277.877 366.74 275.231 356.993 268.488C347.271 261.761 341.005 250.92 341.005 235.075H340.005C340.005 251.223 346.412 262.382 356.424 269.31C366.412 276.22 379.932 278.882 394.121 278.184L394.072 277.185ZM341.005 235.075C341.005 227.189 343.836 218.395 348.68 209.62C353.52 200.849 360.355 192.129 368.318 184.398C384.265 168.92 404.646 157.5 422.505 157.5V156.5C404.271 156.5 383.652 168.121 367.622 183.681C359.597 191.47 352.699 200.268 347.804 209.136C342.912 218 340.005 226.963 340.005 235.075H341.005ZM422.505 157.5C435.816 157.5 447.534 166.546 454.921 179.782C462.303 193.01 465.303 210.337 461.221 226.704L462.191 226.946C466.339 210.316 463.292 192.73 455.794 179.295C448.3 165.868 436.302 156.5 422.505 156.5V157.5Z" fill="white"/>
<path d="M447.885 225.483C441.7 250.285 417.513 262.704 397.067 263.711C375.837 264.756 356.786 255.731 356.786 231.684C356.786 207.636 391.291 173 418.42 173C438.796 173 454.07 200.681 447.885 225.483Z" fill="url(#paint2_linear)"/>
<path d="M411.927 220.33L398.831 227.891L398.831 212.769L411.927 220.33Z" fill="#05B514"/>
<defs>
<filter id="filter0_d" x="0" y="0" width="804.286" height="517.698" filterUnits="userSpaceOnUse" color-interpolation-filters="sRGB">
<feFlood flood-opacity="0" result="BackgroundImageFix"/>
<feColorMatrix in="SourceAlpha" type="matrix" values="0 0 0 0 0 0 0 0 0 0 0 0 0 0 0 0 0 0 127 0"/>
<feOffset dy="21"/>
<feGaussianBlur stdDeviation="22"/>
<feColorMatrix type="matrix" values="0 0 0 0 0.363368 0 0 0 0 0.541667 0 0 0 0 0.515785 0 0 0 0.55 0"/>
<feBlend mode="normal" in2="BackgroundImageFix" result="effect1_dropShadow"/>
<feBlend mode="normal" in="SourceGraphic" in2="effect1_dropShadow" result="shape"/>
</filter>
<linearGradient id="paint0_linear" x1="262" y1="-11.5" x2="857" y2="483.5" gradientUnits="userSpaceOnUse">
<stop stop-color="#01B213"/>
<stop offset="1" stop-color="#78EE1B" stop-opacity="0.52"/>
</linearGradient>
<linearGradient id="paint1_linear" x1="116" y1="58" x2="735" y2="408" gradientUnits="userSpaceOnUse">
<stop stop-color="#30CE2D"/>
<stop offset="1" stop-color="#3DCA33" stop-opacity="0.96"/>
</linearGradient>
<linearGradient id="paint2_linear" x1="403.031" y1="173" x2="381.581" y2="272.076" gradientUnits="userSpaceOnUse">
<stop stop-color="white"/>
<stop offset="1" stop-color="white"/>
</linearGradient>
</defs>
</svg>
