<svg width="1009" height="1010" viewBox="0 0 1009 1010" fill="none" xmlns="http://www.w3.org/2000/svg">
<path d="M813.53 951.994C884.029 995.215 994.809 989.676 1027.17 983.043L1199.32 222.852C958.061 313.766 812.118 175.622 637.448 151.773C442.069 125.097 318.59 163.458 242.918 220.927C167.246 278.396 73.3315 433.071 134.177 560.722C195.022 688.373 371.162 664.599 506.66 729.314C642.157 794.029 743.032 908.774 813.53 951.994Z" fill="url(#paint0_linear)"/>
<path d="M793.827 842.245C872.114 864.084 978.91 839.544 1009 828.357V188C793.827 304.624 621.015 220.415 445.431 233C249.029 247.077 137.097 300.22 76.0002 360C14.9036 419.78 -42.5167 560.757 45.0001 652C132.517 743.243 299.019 692.232 445.431 719.5C591.843 746.768 715.541 820.405 793.827 842.245Z" fill="url(#paint1_linear)"/>
<defs>
<linearGradient id="paint0_linear" x1="202.487" y1="684.769" x2="928.705" y2="313.314" gradientUnits="userSpaceOnUse">
<stop stop-color="#ECFFD5" stop-opacity="0.97"/>
<stop offset="1" stop-color="#ECFFD5" stop-opacity="0.34"/>
</linearGradient>
<linearGradient id="paint1_linear" x1="139" y1="739" x2="834.318" y2="209.261" gradientUnits="userSpaceOnUse">
<stop stop-color="#ABE9F0"/>
<stop offset="1" stop-color="#E3F9F9" stop-opacity="0.78"/>
</linearGradient>
</defs>
</svg>
