<svg width="262" height="239" viewBox="0 0 262 239" fill="none" xmlns="http://www.w3.org/2000/svg">
<path opacity="0.1" d="M153.177 43.4564C73.6242 7.12665 -12.8268 82.075 60.5205 121.855C114.956 156.077 97.3068 184.42 126.434 205.558C165.064 233.711 209.667 185.695 209.72 185.746C267.142 127.082 225.533 76.4993 153.177 43.4564Z" fill="url(#paint0_linear)"/>
<path d="M90.1464 11.726C2.57719 17.7392 -37.8326 125.228 45.9123 125.228C110.313 129.374 108.304 162.825 144.115 167.536C191.668 173.891 208.044 110.187 208.115 110.206C230.705 30.9749 169.793 6.25681 90.1464 11.726Z" fill="url(#paint1_linear)"/>
<path opacity="0.8" d="M55.1759 170.257C68.8964 169.924 75.9521 153.413 62.8705 152.833C52.8393 151.74 53.3845 146.529 47.8231 145.545C40.439 144.224 37.4404 154.062 37.4294 154.058C33.3527 166.278 42.6966 170.561 55.1759 170.257Z" fill="url(#paint2_linear)"/>
<defs>
<linearGradient id="paint0_linear" x1="151.695" y1="37.9391" x2="88.754" y2="237.191" gradientUnits="userSpaceOnUse">
<stop stop-color="#28FEFE" stop-opacity="0.3"/>
<stop offset="1" stop-color="#30B3C7"/>
</linearGradient>
<linearGradient id="paint1_linear" x1="86.1984" y1="7.56779" x2="126.008" y2="213.475" gradientUnits="userSpaceOnUse">
<stop stop-color="#ECFFD5"/>
<stop offset="1" stop-color="#ECFFD5"/>
</linearGradient>
<linearGradient id="paint2_linear" x1="55.7638" y1="170.934" x2="50.9692" y2="138.495" gradientUnits="userSpaceOnUse">
<stop stop-color="#ECFFD5"/>
<stop offset="1" stop-color="#ECFFD5"/>
</linearGradient>
</defs>
</svg>
