<svg width="1440" height="878" viewBox="0 0 1440 878" fill="none" xmlns="http://www.w3.org/2000/svg">
<path d="M717 204.5C446 204.5 53.5 139.5 2.87621e-05 100.5L2.8019e-05 741.5L376.5 741.5L915 741.5L1440 741.5L1440 122.5C1440 122.5 1211.18 204.5 717 204.5Z" fill="url(#paint0_linear)"/>
<mask id="mask0" mask-type="alpha" maskUnits="userSpaceOnUse" x="0" y="0" width="1440" height="828">
<path d="M695 101.103C200.777 269.812 7.34328e-06 106.07 1.83564e-06 41.9946L5.75951e-05 690.694C226.498 812.08 487.038 854.376 740.305 810.875L1440 690.693L1440 81.7314C1440 81.7314 1326.5 -114.468 695 101.103Z" fill="url(#paint1_linear)"/>
</mask>
<g mask="url(#mask0)">
<path fill-rule="evenodd" clip-rule="evenodd" d="M367.199 169.226C344.287 180.911 321.643 194.68 299.674 210.091C301.311 247.751 303.126 285.099 304.941 314.029C309.906 398.432 322.73 542.984 324.919 567.443C327.383 570.712 326.687 578.159 325.268 580.736C325.632 592.439 329.048 701.691 332.834 800.355C343.051 800.504 353.374 800.318 363.768 799.806C364.915 799.75 366.064 799.688 367.214 799.622C366.582 719.149 365.496 637.699 365.496 637.699L365.704 637.614C365.545 635.31 364.884 624.516 365.736 614.864L366.093 614.916C366.001 614.433 365.978 614.139 365.978 614.139C365.978 614.139 367.418 484.381 367.418 345.925C367.418 292.055 367.345 228.421 367.199 169.226ZM385.938 618.005C386.84 623.239 386.367 635.942 385.895 639.511L385.889 639.516C385.841 642.696 385.498 666.916 385.115 725.316C392.588 707.449 403.075 685.698 414.378 668.567C431.366 642.82 463.038 610.875 482.72 594.564C476.134 617.165 461.516 659.328 441.736 688.113C426.012 710.994 402.033 732.464 388.817 744.297C387.406 745.56 386.119 746.713 384.976 747.747C384.962 750.162 384.948 752.624 384.934 755.133C384.877 765.351 384.85 780.134 384.848 798.238C531.633 783.672 696.92 691.771 740.686 516.271C786.562 332.313 673.27 127.002 522.143 127.002C514.149 127.002 506.069 127.407 497.921 128.197C466.54 185.891 437.5 240.567 407.241 298.105C402.319 307.263 397.449 316.548 392.557 325.876L392.555 325.88C390.268 330.24 387.977 334.609 385.673 338.978C385.667 343.333 385.661 347.703 385.656 352.087C385.589 403.032 385.597 446.3 385.644 482.182C391.406 468.269 400.931 448.581 411.204 433.772C424.087 415.198 447.835 392.333 462.532 380.717C457.322 397.163 445.896 427.806 430.914 448.558C419.005 465.054 401.072 480.376 391.188 488.821C388.818 490.846 386.911 492.475 385.661 493.631C385.795 577.563 386.136 617.401 386.136 617.401C386.136 617.401 386.088 617.633 385.938 618.005ZM385.704 317.816C389.97 309.686 394.226 301.596 398.521 293.605C427.637 238.289 455.791 185.233 485.986 129.62C453.19 134.251 419.478 144.857 386.092 160.095C385.938 207.313 385.795 261.015 385.704 317.816ZM269.557 585.178L269.63 585.196C269.589 585.252 269.555 585.301 269.526 585.343L269.502 585.378L269.478 585.414C269.438 585.473 269.418 585.505 269.418 585.505C269.418 585.505 271.048 608.894 273.576 645.569C269.03 632.027 264.658 618.902 261.381 609.059C256.667 594.77 253.423 585.35 252.711 583.475C240.932 551.824 218.032 481.137 217.998 480.299L217.729 480.407C215.01 469.08 208.629 445.024 202.178 426.811C194.695 405.688 175.25 379.025 164.202 366.427C166.466 384.481 173.529 415.713 182.488 435.758C190.211 453.039 202.282 471.744 210.86 483.171L209.85 483.578C209.914 483.723 210.713 486.189 212.051 490.318L212.054 490.329L212.056 490.334L212.056 490.335L212.058 490.34C215.608 501.297 222.939 523.923 230.386 545.95C216.948 535.616 193.587 518.422 174.047 506.17C164.954 500.469 153.655 495.3 141.891 490.83C138.919 479.853 135.926 468.771 132.909 457.561C127.969 439.229 123.284 421.297 118.462 402.839L118.462 402.838L118.461 402.834L118.458 402.823L118.458 402.822L118.457 402.819L118.16 401.683C151.902 345.978 199.297 291.5 253.22 245.94C258.738 359.847 267.784 543.259 269.225 572.467L269.129 572.462L269.056 572.457C269.056 572.095 267.243 580.069 269.418 585.143L269.491 585.162L269.557 585.178ZM134.912 488.277C116.074 481.636 96.9262 476.839 84.4076 474.554C98.1321 488.016 121.865 507.631 144.042 521.915C157.908 572.856 171.463 621.993 185.24 671.57C179.104 668.952 173.526 666.749 168.908 665.025C174.405 672.752 182.245 682.567 191.074 692.54C194.865 706.154 198.678 719.824 202.524 733.597C205.812 745.574 209.192 757.643 212.588 769.767C213.646 773.543 214.705 777.323 215.763 781.107C127.535 750.262 65 680.918 65 562.261C65 514.659 83.2286 461.464 113.781 409.051C118.106 425.594 122.372 441.848 126.902 458.602C129.59 468.586 132.258 478.472 134.912 488.277ZM208.531 732.555C205.708 722.455 202.906 712.42 200.121 702.43C209.423 712.261 219.26 721.615 228.289 728.578C244.316 740.936 265.596 752.76 281.436 760.428C282.247 772.374 283.073 784.574 283.905 796.904C262.599 794.131 242.077 789.679 222.712 783.441C221.341 778.529 219.967 773.623 218.595 768.726C215.199 756.602 211.818 744.532 208.531 732.555ZM246.859 706.262C260.451 717.158 271.719 729.701 280.032 739.785C278.575 718.386 277.187 698.093 275.923 679.678C270.82 664.747 264.342 645.444 256.545 622.207C255.466 618.992 254.362 615.702 253.232 612.338C251.519 607.136 249.971 602.35 248.68 598.36C246.692 592.215 245.316 587.96 244.891 586.992C242.003 579.447 238.518 569.658 234.88 559.114C216.901 554.848 185.452 544.603 160.894 531.812C157.885 530.244 154.777 528.498 151.608 526.61C165.307 576.902 178.709 625.472 192.4 674.705C210.258 682.73 231.187 693.699 246.859 706.262Z" fill="url(#paint2_linear)" fill-opacity="0.52"/>
</g>
<defs>
<linearGradient id="paint0_linear" x1="-10" y1="402.469" x2="1424.5" y2="686.5" gradientUnits="userSpaceOnUse">
<stop stop-color="#01B213"/>
<stop offset="1" stop-color="#91ED58"/>
</linearGradient>
<linearGradient id="paint1_linear" x1="-9.99999" y1="365.351" x2="1573.24" y2="365.099" gradientUnits="userSpaceOnUse">
<stop offset="0.60067" stop-color="#01B213"/>
<stop offset="1" stop-color="#74D355"/>
</linearGradient>
<linearGradient id="paint2_linear" x1="126.681" y1="751.465" x2="750.666" y2="241.758" gradientUnits="userSpaceOnUse">
<stop stop-color="white" stop-opacity="0.66"/>
<stop offset="0.921875" stop-color="white" stop-opacity="0"/>
</linearGradient>
</defs>
</svg>
