<svg width="717" height="430" viewBox="0 0 717 430" fill="none" xmlns="http://www.w3.org/2000/svg">
<path d="M716 376L716 12C716 5.37258 710.627 0 704 0L12 0C5.37256 0 0 5.37258 0 12L0 376L716 376Z" fill="url(#paint0_linear)"/>
<path d="M611.831 376.317H499.971L715.928 184.341V283.78L611.831 376.317ZM331.501 376.317H369.524L715.985 68.3294V34.5284L331.501 376.317ZM0 140.919V174.72L196.067 0.425049H158.044L0 140.919ZM392.361 0.475411H226.667L0.056653 201.922V349.216L392.361 0.475411Z" fill="url(#paint1_linear)" fill-opacity="0.3"/>
<path d="M40.5956 348C38.6456 348 36.9452 347.603 35.4946 346.809C34.0677 346.014 32.9619 344.893 32.1772 343.445C31.3924 341.973 31 340.256 31 338.294V322H35.887V331.916H35.9227C36.4696 331.099 37.2306 330.456 38.2056 329.989C39.2044 329.522 40.2746 329.288 41.4161 329.288C43.1996 329.288 44.7454 329.674 46.0533 330.445C47.3613 331.216 48.372 332.279 49.0854 333.633C49.8226 334.965 50.1912 336.518 50.1912 338.294C50.1912 340.163 49.8107 341.833 49.0497 343.305C48.3125 344.753 47.2305 345.898 45.8036 346.739C44.3768 347.58 42.6408 348 40.5956 348ZM40.5956 343.9C42.0463 343.9 43.1759 343.398 43.9844 342.394C44.8167 341.366 45.2329 340.116 45.2329 338.644C45.2329 337.173 44.8167 335.934 43.9844 334.93C43.1759 333.902 42.0463 333.388 40.5956 333.388C39.145 333.388 38.0035 333.902 37.1712 334.93C36.3626 335.934 35.9583 337.173 35.9583 338.644C35.9583 340.116 36.3626 341.366 37.1712 342.394C38.0035 343.398 39.145 343.9 40.5956 343.9ZM63.0617 348C61.397 348 59.9464 347.58 58.7098 346.739C57.4732 345.898 56.51 344.776 55.8204 343.375C55.1545 341.95 54.8216 340.385 54.8216 338.679C54.8216 336.927 55.2021 335.339 55.9631 333.914C56.7478 332.489 57.8655 331.367 59.3162 330.55C60.7668 329.709 62.5028 329.288 64.5242 329.288C66.5694 329.288 68.2935 329.709 69.6966 330.55C71.0996 331.391 72.1698 332.524 72.907 333.949C73.6442 335.374 74.0128 336.951 74.0128 338.679V347.58H69.1258V344.601H69.0545C68.5075 345.535 67.7584 346.341 66.8072 347.019C65.8797 347.673 64.6312 348 63.0617 348ZM64.4529 343.9C65.8797 343.9 66.9974 343.386 67.806 342.358C68.6383 341.331 69.0545 340.081 69.0545 338.609C69.0545 337.161 68.6383 335.934 67.806 334.93C66.9974 333.902 65.8797 333.388 64.4529 333.388C63.0022 333.388 61.8608 333.902 61.0284 334.93C60.1961 335.934 59.7799 337.161 59.7799 338.609C59.7799 340.081 60.1961 341.331 61.0284 342.358C61.8608 343.386 63.0022 343.9 64.4529 343.9ZM80.7795 347.58V336.962C80.7795 335.561 81.1243 334.276 81.814 333.108C82.5036 331.94 83.4905 331.017 84.7747 330.34C86.0826 329.639 87.6522 329.288 89.4833 329.288C90.7913 329.288 91.9684 329.51 93.0148 329.954C94.0611 330.398 94.9529 331.005 95.6901 331.776H95.7258C96.4868 331.005 97.3905 330.398 98.4368 329.954C99.507 329.51 100.696 329.288 102.004 329.288C103.835 329.288 105.393 329.639 106.677 330.34C107.985 331.017 108.984 331.94 109.673 333.108C110.363 334.276 110.708 335.561 110.708 336.962V347.58H105.821V336.962C105.821 335.981 105.44 335.14 104.679 334.439C103.942 333.739 103.05 333.388 102.004 333.388C100.958 333.388 100.054 333.739 99.293 334.439C98.5557 335.14 98.1871 335.981 98.1871 336.962V347.58H93.3002V336.962C93.3002 335.981 92.9197 335.14 92.1587 334.439C91.4215 333.739 90.5297 333.388 89.4833 333.388C88.437 333.388 87.5333 333.739 86.7723 334.439C86.0351 335.14 85.6665 335.981 85.6665 336.962V347.58H80.7795ZM126.894 348C124.944 348 123.243 347.603 121.793 346.809C120.366 346.014 119.26 344.893 118.475 343.445C117.691 341.973 117.298 340.256 117.298 338.294V322H122.185V331.916H122.221C122.768 331.099 123.529 330.456 124.504 329.989C125.503 329.522 126.573 329.288 127.714 329.288C129.498 329.288 131.044 329.674 132.351 330.445C133.659 331.216 134.67 332.279 135.384 333.633C136.121 334.965 136.489 336.518 136.489 338.294C136.489 340.163 136.109 341.833 135.348 343.305C134.611 344.753 133.529 345.898 132.102 346.739C130.675 347.58 128.939 348 126.894 348ZM126.894 343.9C128.344 343.9 129.474 343.398 130.283 342.394C131.115 341.366 131.531 340.116 131.531 338.644C131.531 337.173 131.115 335.934 130.283 334.93C129.474 333.902 128.344 333.388 126.894 333.388C125.443 333.388 124.302 333.902 123.469 334.93C122.661 335.934 122.256 337.173 122.256 338.644C122.256 340.116 122.661 341.366 123.469 342.394C124.302 343.398 125.443 343.9 126.894 343.9ZM150.93 348C149.051 348 147.375 347.591 145.9 346.774C144.426 345.933 143.26 344.811 142.404 343.41C141.548 341.985 141.12 340.396 141.12 338.644C141.12 336.892 141.548 335.315 142.404 333.914C143.26 332.489 144.426 331.367 145.9 330.55C147.375 329.709 149.051 329.288 150.93 329.288C152.809 329.288 154.485 329.709 155.96 330.55C157.434 331.367 158.599 332.489 159.455 333.914C160.311 335.315 160.739 336.892 160.739 338.644C160.739 340.396 160.311 341.985 159.455 343.41C158.599 344.811 157.434 345.933 155.96 346.774C154.485 347.591 152.809 348 150.93 348ZM150.93 343.9C152.428 343.9 153.605 343.398 154.461 342.394C155.341 341.366 155.781 340.116 155.781 338.644C155.781 337.173 155.341 335.934 154.461 334.93C153.605 333.902 152.428 333.388 150.93 333.388C149.432 333.388 148.243 333.902 147.363 334.93C146.507 335.934 146.079 337.173 146.079 338.644C146.079 340.116 146.507 341.366 147.363 342.394C148.243 343.398 149.432 343.9 150.93 343.9ZM175.19 348C173.312 348 171.635 347.591 170.161 346.774C168.686 345.933 167.521 344.811 166.665 343.41C165.809 341.985 165.381 340.396 165.381 338.644C165.381 336.892 165.809 335.315 166.665 333.914C167.521 332.489 168.686 331.367 170.161 330.55C171.635 329.709 173.312 329.288 175.19 329.288C177.069 329.288 178.746 329.709 180.22 330.55C181.694 331.367 182.86 332.489 183.716 333.914C184.572 335.315 185 336.892 185 338.644C185 340.396 184.572 341.985 183.716 343.41C182.86 344.811 181.694 345.933 180.22 346.774C178.746 347.591 177.069 348 175.19 348ZM175.19 343.9C176.689 343.9 177.866 343.398 178.722 342.394C179.602 341.366 180.042 340.116 180.042 338.644C180.042 337.173 179.602 335.934 178.722 334.93C177.866 333.902 176.689 333.388 175.19 333.388C173.692 333.388 172.503 333.902 171.623 334.93C170.767 335.934 170.339 337.173 170.339 338.644C170.339 340.116 170.767 341.366 171.623 342.394C172.503 343.398 173.692 343.9 175.19 343.9Z" fill="#7BE159" fill-opacity="0.8"/>
<path d="M716.286 376.069H0V417.698C0 424.325 5.37258 429.698 12 429.698H704.286C710.913 429.698 716.286 424.325 716.286 417.698V376.069Z" fill="#1E4843"/>
<path d="M696.785 394.267H500.749C499.218 394.267 497.971 393.02 497.971 391.489C497.971 389.958 499.218 388.711 500.749 388.711H696.785C698.316 388.711 699.563 389.958 699.563 391.489C699.506 393.02 698.316 394.267 696.785 394.267Z" fill="white"/>
<path d="M500.692 394.267H20.5224C18.9918 394.267 17.7446 393.02 17.7446 391.489C17.7446 389.958 18.9918 388.711 20.5224 388.711H500.692C502.223 388.711 503.47 389.958 503.47 391.489C503.47 393.02 502.223 394.267 500.692 394.267Z" fill="#03D218"/>
<path d="M506.588 391.489C506.588 394.72 503.98 397.328 500.749 397.328C497.517 397.328 494.91 394.72 494.91 391.489C494.91 388.257 497.517 385.649 500.749 385.649C503.923 385.649 506.588 388.257 506.588 391.489Z" fill="#FFFDFF"/>
<path d="M53.9132 406.966H57.6548V419.778H53.9132V406.966ZM46.7135 419.778H50.4551V406.966H46.7135V419.778ZM82.3152 406.966V412.125L74.4352 406.966V419.778L82.3152 414.62V419.778H86.0568V406.966H82.3152ZM18.3115 406.966V419.778H22.0531V414.62L29.9331 419.778V406.966L22.0531 412.125V406.966H18.3115Z" fill="white"/>
<defs>
<linearGradient id="paint0_linear" x1="218" y1="-34.5" x2="813" y2="460.5" gradientUnits="userSpaceOnUse">
<stop stop-color="#01B213"/>
<stop offset="1" stop-color="#78EE1B" stop-opacity="0.52"/>
</linearGradient>
<linearGradient id="paint1_linear" x1="72" y1="35" x2="691" y2="385" gradientUnits="userSpaceOnUse">
<stop stop-color="#30CE2D"/>
<stop offset="1" stop-color="#3DCA33" stop-opacity="0.96"/>
</linearGradient>
</defs>
</svg>
