<svg width="2038" height="1010" viewBox="0 0 2038 1010" fill="none" xmlns="http://www.w3.org/2000/svg">
<path opacity="0.19" d="M283.862 868.659C403.064 998.244 720.74 844.467 589.51 684.908C452.271 556.768 518.505 485.219 446.629 408.55C351.371 306.525 197.001 419.632 196.877 419.458C-0.119654 556.033 94.5847 734.023 283.862 868.659Z" fill="url(#paint0_linear)"/>
<path d="M1651.53 951.994C1722.03 995.215 1832.81 989.676 1865.17 983.043L2037.32 222.852C1796.06 313.766 1650.12 175.622 1475.45 151.773C1280.07 125.097 1156.59 163.458 1080.92 220.927C1005.25 278.396 911.332 433.071 972.177 560.722C1033.02 688.373 1209.16 664.599 1344.66 729.314C1480.16 794.029 1581.03 908.774 1651.53 951.994Z" fill="url(#paint1_linear)"/>
<path d="M1631.83 842.245C1710.11 864.084 1816.91 839.544 1847 828.357V188C1631.83 304.624 1459.02 220.415 1283.43 233C1087.03 247.077 975.097 300.22 914 360C852.904 419.78 795.483 560.757 883 652C970.517 743.243 1137.02 692.232 1283.43 719.5C1429.84 746.768 1553.54 820.405 1631.83 842.245Z" fill="url(#paint2_linear)"/>
<defs>
<linearGradient id="paint0_linear" x1="533.483" y1="904.134" x2="560.132" y2="546.329" gradientUnits="userSpaceOnUse">
<stop stop-color="#28FEFE" stop-opacity="0.3"/>
<stop offset="1" stop-color="#30B3C7"/>
</linearGradient>
<linearGradient id="paint1_linear" x1="1040.49" y1="684.769" x2="1766.71" y2="313.314" gradientUnits="userSpaceOnUse">
<stop stop-color="#ECFFD5" stop-opacity="0.97"/>
<stop offset="1" stop-color="#ECFFD5" stop-opacity="0.34"/>
</linearGradient>
<linearGradient id="paint2_linear" x1="977" y1="739" x2="1672.32" y2="209.261" gradientUnits="userSpaceOnUse">
<stop stop-color="#ABE9F0"/>
<stop offset="1" stop-color="#E3F9F9" stop-opacity="0.78"/>
</linearGradient>
</defs>
</svg>
