<svg width="298" height="276" viewBox="0 0 298 276" fill="none" xmlns="http://www.w3.org/2000/svg">
<path fill-rule="evenodd" clip-rule="evenodd" d="M73.3458 230.965C111.268 243.954 177.157 240.689 211.95 190.168C246.743 139.645 242.334 65.5361 202.607 49.2532C186.849 42.7944 159.688 45.8974 131.276 55.3492L125.027 57.796L113.509 62.0279C76.0844 77.7219 40.1334 103.217 28.6502 131.234C6.60828 185.012 32.5679 216.999 73.3458 230.965Z" fill="url(#paint0_linear)" fill-opacity="0.2"/>
<g filter="url(#filter0_d)">
<rect x="57.1201" y="69.2734" width="219.974" height="131.201" rx="6" fill="white"/>
</g>
<path d="M263.937 157.644V97.0767C263.937 94.8675 262.146 93.0767 259.937 93.0767L157.181 93.0767C154.972 93.0767 153.181 94.8675 153.181 97.0767V157.644H263.937Z" fill="url(#paint1_linear)"/>
<path d="M247.823 157.698H230.519L263.925 124.732V141.807L247.823 157.698ZM204.459 157.698H210.341L263.934 104.81V99.0057L204.459 157.698ZM153.181 117.275V123.079L183.51 93.1494H177.628L153.181 117.275ZM213.874 93.1581H188.243L153.189 127.751V153.044L213.874 93.1581Z" fill="url(#paint2_linear)" fill-opacity="0.3"/>
<rect x="158.868" y="98.7271" width="99.0701" height="50.8738" rx="4" fill="#FBFBFB"/>
<rect x="152.174" y="162.988" width="111.119" height="24.0981" fill="url(#paint3_linear)" fill-opacity="0.8"/>
<path d="M73.344 85.3386C72.7677 85.3386 72.2651 85.2159 71.8363 84.9705C71.4146 84.7252 71.0877 84.3787 70.8558 83.9313C70.6238 83.4766 70.5078 82.9461 70.5078 82.3399V77.3059H71.9523V80.3696H71.9628C72.1245 80.117 72.3494 79.9185 72.6376 79.7742C72.9328 79.6298 73.2492 79.5577 73.5865 79.5577C74.1137 79.5577 74.5706 79.6767 74.9572 79.9149C75.3438 80.1531 75.6426 80.4815 75.8534 80.9001C76.0713 81.3114 76.1803 81.7914 76.1803 82.3399C76.1803 82.9173 76.0678 83.4333 75.8429 83.888C75.625 84.3354 75.3052 84.6891 74.8834 84.9489C74.4617 85.2087 73.9485 85.3386 73.344 85.3386ZM73.344 84.072C73.7728 84.072 74.1067 83.9168 74.3457 83.6065C74.5917 83.2889 74.7147 82.9028 74.7147 82.4481C74.7147 81.9935 74.5917 81.611 74.3457 81.3006C74.1067 80.9831 73.7728 80.8243 73.344 80.8243C72.9153 80.8243 72.5779 80.9831 72.3319 81.3006C72.0929 81.611 71.9734 81.9935 71.9734 82.4481C71.9734 82.9028 72.0929 83.2889 72.3319 83.6065C72.5779 83.9168 72.9153 84.072 73.344 84.072ZM79.9845 85.3386C79.4924 85.3386 79.0637 85.2087 78.6982 84.9489C78.3326 84.6891 78.048 84.3427 77.8441 83.9096C77.6473 83.4694 77.5489 82.9858 77.5489 82.459C77.5489 81.9177 77.6614 81.4269 77.8863 80.9867C78.1183 80.5464 78.4486 80.2 78.8774 79.9474C79.3062 79.6876 79.8193 79.5577 80.4168 79.5577C81.0213 79.5577 81.5309 79.6876 81.9456 79.9474C82.3603 80.2072 82.6766 80.5572 82.8945 80.9975C83.1124 81.4377 83.2214 81.9249 83.2214 82.459V85.2087H81.7769V84.2885H81.7558C81.5941 84.5772 81.3727 84.8262 81.0916 85.0355C80.8174 85.2376 80.4484 85.3386 79.9845 85.3386ZM80.3957 84.072C80.8174 84.072 81.1478 83.9132 81.3868 83.5957C81.6328 83.2781 81.7558 82.892 81.7558 82.4373C81.7558 81.9899 81.6328 81.611 81.3868 81.3006C81.1478 80.9831 80.8174 80.8243 80.3957 80.8243C79.9669 80.8243 79.6295 80.9831 79.3835 81.3006C79.1375 81.611 79.0145 81.9899 79.0145 82.4373C79.0145 82.892 79.1375 83.2781 79.3835 83.5957C79.6295 83.9132 79.9669 84.072 80.3957 84.072ZM85.2214 85.2087V81.9285C85.2214 81.4955 85.3234 81.0985 85.5272 80.7377C85.731 80.3768 86.0227 80.0917 86.4023 79.8824C86.7889 79.6659 87.2528 79.5577 87.7941 79.5577C88.1807 79.5577 88.5286 79.6262 88.8379 79.7634C89.1472 79.9005 89.4108 80.0881 89.6287 80.3263H89.6392C89.8641 80.0881 90.1312 79.9005 90.4405 79.7634C90.7568 79.6262 91.1083 79.5577 91.4949 79.5577C92.0361 79.5577 92.4965 79.6659 92.8761 79.8824C93.2627 80.0917 93.5579 80.3768 93.7618 80.7377C93.9656 81.0985 94.0675 81.4955 94.0675 81.9285V85.2087H92.623V81.9285C92.623 81.6254 92.5106 81.3656 92.2857 81.1491C92.0678 80.9325 91.8042 80.8243 91.4949 80.8243C91.1856 80.8243 90.9185 80.9325 90.6936 81.1491C90.4757 81.3656 90.3667 81.6254 90.3667 81.9285V85.2087H88.9222V81.9285C88.9222 81.6254 88.8098 81.3656 88.5848 81.1491C88.3669 80.9325 88.1034 80.8243 87.7941 80.8243C87.4848 80.8243 87.2177 80.9325 86.9928 81.1491C86.7749 81.3656 86.6659 81.6254 86.6659 81.9285V85.2087H85.2214ZM98.8517 85.3386C98.2753 85.3386 97.7727 85.2159 97.344 84.9705C96.9222 84.7252 96.5954 84.3787 96.3634 83.9313C96.1314 83.4766 96.0155 82.9461 96.0155 82.3399V77.3059H97.4599V80.3696H97.4705C97.6321 80.117 97.8571 79.9185 98.1453 79.7742C98.4405 79.6298 98.7568 79.5577 99.0942 79.5577C99.6214 79.5577 100.078 79.6767 100.465 79.9149C100.851 80.1531 101.15 80.4815 101.361 80.9001C101.579 81.3114 101.688 81.7914 101.688 82.3399C101.688 82.9173 101.575 83.4333 101.351 83.888C101.133 84.3354 100.813 84.6891 100.391 84.9489C99.9693 85.2087 99.4562 85.3386 98.8517 85.3386ZM98.8517 84.072C99.2805 84.072 99.6144 83.9168 99.8533 83.6065C100.099 83.2889 100.222 82.9028 100.222 82.4481C100.222 81.9935 100.099 81.611 99.8533 81.3006C99.6144 80.9831 99.2805 80.8243 98.8517 80.8243C98.4229 80.8243 98.0855 80.9831 97.8395 81.3006C97.6005 81.611 97.481 81.9935 97.481 82.4481C97.481 82.9028 97.6005 83.2889 97.8395 83.6065C98.0855 83.9168 98.4229 84.072 98.8517 84.072ZM105.956 85.3386C105.401 85.3386 104.905 85.2123 104.47 84.9597C104.034 84.6999 103.689 84.3535 103.436 83.9204C103.183 83.4802 103.057 82.9894 103.057 82.4481C103.057 81.9069 103.183 81.4197 103.436 80.9867C103.689 80.5464 104.034 80.2 104.47 79.9474C104.905 79.6876 105.401 79.5577 105.956 79.5577C106.511 79.5577 107.007 79.6876 107.443 79.9474C107.879 80.2 108.223 80.5464 108.476 80.9867C108.729 81.4197 108.856 81.9069 108.856 82.4481C108.856 82.9894 108.729 83.4802 108.476 83.9204C108.223 84.3535 107.879 84.6999 107.443 84.9597C107.007 85.2123 106.511 85.3386 105.956 85.3386ZM105.956 84.072C106.399 84.072 106.747 83.9168 107 83.6065C107.26 83.2889 107.39 82.9028 107.39 82.4481C107.39 81.9935 107.26 81.611 107 81.3006C106.747 80.9831 106.399 80.8243 105.956 80.8243C105.513 80.8243 105.162 80.9831 104.902 81.3006C104.649 81.611 104.522 81.9935 104.522 82.4481C104.522 82.9028 104.649 83.2889 104.902 83.6065C105.162 83.9168 105.513 84.072 105.956 84.072ZM113.127 85.3386C112.572 85.3386 112.076 85.2123 111.64 84.9597C111.205 84.6999 110.86 84.3535 110.607 83.9204C110.354 83.4802 110.228 82.9894 110.228 82.4481C110.228 81.9069 110.354 81.4197 110.607 80.9867C110.86 80.5464 111.205 80.2 111.64 79.9474C112.076 79.6876 112.572 79.5577 113.127 79.5577C113.682 79.5577 114.178 79.6876 114.614 79.9474C115.049 80.2 115.394 80.5464 115.647 80.9867C115.9 81.4197 116.027 81.9069 116.027 82.4481C116.027 82.9894 115.9 83.4802 115.647 83.9204C115.394 84.3535 115.049 84.6999 114.614 84.9597C114.178 85.2123 113.682 85.3386 113.127 85.3386ZM113.127 84.072C113.57 84.072 113.918 83.9168 114.171 83.6065C114.431 83.2889 114.561 82.9028 114.561 82.4481C114.561 81.9935 114.431 81.611 114.171 81.3006C113.918 80.9831 113.57 80.8243 113.127 80.8243C112.684 80.8243 112.333 80.9831 112.073 81.3006C111.82 81.611 111.693 81.9935 111.693 82.4481C111.693 82.9028 111.82 83.2889 112.073 83.6065C112.333 83.9168 112.684 84.072 113.127 84.072Z" fill="#009F10" fill-opacity="0.27"/>
<rect x="137.447" y="79.9839" width="127.185" height="4.01636" rx="2.00818" fill="#DBEEEB"/>
<circle cx="257.838" cy="182.198" r="7.18015" fill="url(#paint4_linear)"/>
<path d="M260.11 178.5H255.106C254.453 178.5 254.236 179.153 254.236 179.37C254.163 180.821 254.062 183.896 254.236 184.592C254.41 185.289 254.961 185.463 255.106 185.463H259.023L261.198 186.333V179.37C261.198 178.674 260.473 178.5 260.11 178.5Z" fill="white"/>
<path d="M255.324 183.503C255.686 183.793 256.673 184.373 257.717 184.373C258.762 184.373 259.603 183.793 259.893 183.503" stroke="#27B9ED"/>
<path d="M103.05 93.8159H71.0967C70.5444 93.8159 70.0967 94.2636 70.0967 94.8159V110.375C70.0967 110.928 70.5444 111.375 71.0967 111.375H103.05C103.602 111.375 104.05 110.928 104.05 110.375V94.8159C104.05 94.2636 103.602 93.8159 103.05 93.8159Z" fill="#DBEEEB"/>
<path d="M102.604 114.744H71.7826C70.9909 114.744 70.3491 115.385 70.3491 116.177C70.3491 116.969 70.9909 117.611 71.7826 117.611H102.604C103.396 117.611 104.038 116.969 104.038 116.177C104.038 115.385 103.396 114.744 102.604 114.744Z" fill="#DBEEEB"/>
<path d="M98.2981 119.617H71.7826C70.9909 119.617 70.3491 120.259 70.3491 121.051C70.3491 121.842 70.9909 122.484 71.7826 122.484H98.2982C99.0898 122.484 99.7316 121.842 99.7316 121.051C99.7316 120.259 99.0898 119.617 98.2981 119.617Z" fill="#DBEEEB"/>
<path d="M141.551 93.8154H109.598C109.045 93.8154 108.598 94.2631 108.598 94.8154V110.375C108.598 110.927 109.045 111.375 109.598 111.375H141.551C142.103 111.375 142.551 110.927 142.551 110.375V94.8154C142.551 94.2631 142.103 93.8154 141.551 93.8154Z" fill="#DBEEEB"/>
<path d="M141.106 114.743H110.031C109.239 114.743 108.598 115.385 108.598 116.177C108.598 116.968 109.239 117.61 110.031 117.61H141.106C141.898 117.61 142.539 116.968 142.539 116.177C142.539 115.385 141.898 114.743 141.106 114.743Z" fill="#DBEEEB"/>
<path d="M136.547 119.617H110.031C109.239 119.617 108.598 120.259 108.598 121.051C108.598 121.842 109.239 122.484 110.031 122.484H136.547C137.338 122.484 137.98 121.842 137.98 121.051C137.98 120.259 137.338 119.617 136.547 119.617Z" fill="#DBEEEB"/>
<path d="M89.4648 103.149L85.6654 105.343L85.6654 100.955L89.4648 103.149Z" fill="white"/>
<path d="M127.967 103.149L124.168 105.343L124.168 100.955L127.967 103.149Z" fill="white"/>
<path d="M103.05 128.264H71.0967C70.5444 128.264 70.0967 128.712 70.0967 129.264V144.823C70.0967 145.376 70.5444 145.823 71.0967 145.823H103.05C103.602 145.823 104.05 145.376 104.05 144.823V129.264C104.05 128.712 103.602 128.264 103.05 128.264Z" fill="#DBEEEB"/>
<path d="M102.605 149.127H71.783C70.9914 149.127 70.3496 149.768 70.3496 150.56C70.3496 151.352 70.9914 151.994 71.783 151.994H102.605C103.396 151.994 104.038 151.352 104.038 150.56C104.038 149.768 103.396 149.127 102.605 149.127Z" fill="#DBEEEB"/>
<path d="M98.2986 154H71.783C70.9914 154 70.3496 154.642 70.3496 155.434C70.3496 156.225 70.9914 156.867 71.783 156.867H98.2986C99.0903 156.867 99.7321 156.225 99.7321 155.434C99.7321 154.642 99.0903 154 98.2986 154Z" fill="#DBEEEB"/>
<path d="M141.551 128.263H109.598C109.045 128.263 108.598 128.711 108.598 129.263V144.823C108.598 145.375 109.045 145.823 109.598 145.823H141.551C142.103 145.823 142.551 145.375 142.551 144.823V129.263C142.551 128.711 142.103 128.263 141.551 128.263Z" fill="#DBEEEB"/>
<path d="M141.106 149.146H110.031C109.239 149.146 108.598 149.788 108.598 150.579C108.598 151.371 109.239 152.013 110.031 152.013H141.106C141.898 152.013 142.539 151.371 142.539 150.579C142.539 149.788 141.898 149.146 141.106 149.146Z" fill="#DBEEEB"/>
<path d="M136.547 154.019H110.031C109.239 154.019 108.598 154.661 108.598 155.453C108.598 156.244 109.239 156.886 110.031 156.886H136.547C137.338 156.886 137.98 156.244 137.98 155.453C137.98 154.661 137.338 154.019 136.547 154.019Z" fill="#DBEEEB"/>
<path d="M89.4653 137.271L85.6659 139.465L85.6659 135.078L89.4653 137.271Z" fill="white"/>
<path d="M127.966 137.271L124.167 139.465L124.167 135.078L127.966 137.271Z" fill="white"/>
<path d="M103.05 162.206H71.0967C70.5444 162.206 70.0967 162.654 70.0967 163.206V178.765C70.0967 179.318 70.5444 179.765 71.0967 179.765H103.05C103.602 179.765 104.05 179.318 104.05 178.765V163.206C104.05 162.654 103.602 162.206 103.05 162.206Z" fill="#DBEEEB"/>
<path d="M102.605 183.068H71.783C70.9914 183.068 70.3496 183.71 70.3496 184.502C70.3496 185.293 70.9914 185.935 71.783 185.935H102.605C103.396 185.935 104.038 185.293 104.038 184.502C104.038 183.71 103.396 183.068 102.605 183.068Z" fill="#DBEEEB"/>
<path d="M98.2986 187.942H71.783C70.9914 187.942 70.3496 188.584 70.3496 189.376C70.3496 190.167 70.9914 190.809 71.783 190.809H98.2986C99.0903 190.809 99.7321 190.167 99.7321 189.376C99.7321 188.584 99.0903 187.942 98.2986 187.942Z" fill="#DBEEEB"/>
<path d="M141.551 162.205H109.598C109.045 162.205 108.598 162.652 108.598 163.205V178.764C108.598 179.316 109.045 179.764 109.598 179.764H141.551C142.103 179.764 142.551 179.316 142.551 178.764V163.205C142.551 162.652 142.103 162.205 141.551 162.205Z" fill="#DBEEEB"/>
<path d="M141.106 183.085H110.031C109.239 183.085 108.598 183.727 108.598 184.518C108.598 185.31 109.239 185.952 110.031 185.952H141.106C141.898 185.952 142.539 185.31 142.539 184.518C142.539 183.727 141.898 183.085 141.106 183.085Z" fill="#DBEEEB"/>
<path d="M136.547 187.959H110.031C109.239 187.959 108.598 188.601 108.598 189.393C108.598 190.185 109.239 190.826 110.031 190.826H136.547C137.338 190.826 137.98 190.185 137.98 189.393C137.98 188.601 137.338 187.959 136.547 187.959Z" fill="#DBEEEB"/>
<path d="M89.4648 171.211L85.6654 173.404L85.6654 169.017L89.4648 171.211Z" fill="white"/>
<path d="M127.966 171.211L124.167 173.404L124.167 169.017L127.966 171.211Z" fill="white"/>
<g filter="url(#filter1_d)">
<rect x="107.994" y="90.6951" width="124.507" height="83.0047" rx="4" fill="#FBFBFB"/>
</g>
<circle cx="170.247" cy="95.3793" r="18.0736" fill="#DBEEEB"/>
<path fill-rule="evenodd" clip-rule="evenodd" d="M170.125 83.603C167.278 83.603 164.972 85.894 164.972 88.7224C164.972 91.5509 167.278 93.8418 170.125 93.8418C172.973 93.8418 175.279 91.5509 175.279 88.7224C175.279 85.894 172.973 83.603 170.125 83.603ZM172.709 88.7193C172.709 87.3109 171.549 86.1587 170.132 86.1587C168.715 86.1587 167.555 87.3109 167.555 88.7193C167.555 90.1276 168.715 91.2798 170.132 91.2798C171.549 91.2798 172.709 90.1276 172.709 88.7193ZM177.858 101.52C177.6 100.611 173.606 98.96 170.127 98.96C166.661 98.96 162.693 100.598 162.396 101.52H177.858ZM159.821 101.523C159.821 98.1188 166.688 96.4038 170.129 96.4038C173.569 96.4038 180.436 98.1188 180.436 101.523V104.083H159.821V101.523Z" fill="white"/>
<ellipse cx="170.127" cy="88.7236" rx="3.86544" ry="3.83954" fill="white"/>
<path d="M170.13 98.3226C164.46 97.8104 162.184 100.67 161.754 102.164H179.149C178.505 101.097 175.799 98.8348 170.13 98.3226Z" fill="white"/>
<rect x="122.72" y="122.825" width="95.0538" height="8.03271" rx="4.01636" fill="#DBEEEB"/>
<rect x="122.72" y="137.552" width="95.0538" height="8.03271" rx="4.01636" fill="#DBEEEB"/>
<rect x="148.157" y="153.617" width="44.1799" height="8.03271" rx="4.01636" fill="#DBEEEB"/>
<path d="M104.226 201.265C104.226 201.265 103.544 205.556 102.363 206.96C101.954 207.428 101.25 208.017 100.773 208.851C100.024 210.153 100.433 212.105 100.978 213.183C101.25 213.732 100.955 213.732 101.591 213.915C103.476 214.444 105.497 213.549 106.315 211.922C106.769 211.007 107.155 209.787 107.246 208.261C107.451 204.357 108.791 202.363 108.791 202.363L104.226 201.265Z" fill="#F7A491"/>
<path d="M124.939 203.238C124.939 203.238 125.371 208.079 125.03 209.665C124.848 210.499 123.826 212.248 124.28 213.041C124.757 213.834 125.302 214.038 125.302 214.038L137.522 214.221C138.18 214.221 137.749 213.834 137.204 213.489C136.318 212.899 135.614 212.512 132.798 211.292C132.616 211.211 131.957 210.824 131.707 210.702C131.094 210.377 130.481 209.848 129.958 209.319C129.073 208.445 129.005 204.174 129.005 204.174L124.939 203.238Z" fill="#F7A491"/>
<path d="M134.502 138.787C134.502 138.787 136.046 146.658 135.024 151.824C134.002 156.989 129.164 204.825 129.164 204.825L123.782 205.089C123.782 205.089 122.646 185.117 122.85 182.331C123.055 179.544 124.645 174.907 124.645 174.907L124.099 158.779L130.913 137.587L134.502 138.787Z" fill="#01B213"/>
<path d="M118.649 137.14C118.649 137.14 114.401 142.895 113.402 147.654C112.38 152.413 114.151 167.057 112.198 173.301C111.153 176.677 107.156 181.904 106.543 186.256C105.929 190.629 103.567 202.059 103.567 202.059L108.95 203.015L121.488 174.44L131.322 148.61L133.843 135.309L118.649 137.14Z" fill="#0CBF1E"/>
<path d="M106.679 211.068C103.749 211.556 101.795 210.01 100.773 208.851C100.024 210.173 99.6604 212.126 100.205 213.203C100.682 214.159 102.113 214.119 103.226 214.159C104.407 214.2 105.316 213.61 105.906 212.695C106.156 212.248 106.429 211.698 106.679 211.068Z" fill="#184655"/>
<path d="M131.731 210.681C128.505 211.434 126.098 210.925 124.758 210.437C124.417 211.312 123.963 212.43 124.19 213.061C124.485 213.834 124.917 214.017 125.28 214.017C128.233 214.078 136.091 214.179 138.363 214.2C138.681 214.2 138.84 213.874 138.658 213.65C138.09 213.081 131.958 210.823 131.731 210.681Z" fill="#184655"/>
<path d="M153.853 125.199C154.08 124.772 151.695 124.182 151.627 123.714C151.559 123.246 154.739 123.511 154.898 123.124C155.193 122.412 151.422 122.656 151.536 122.311C151.65 121.985 155.511 121.558 155.17 120.948C154.829 120.317 151.218 121.741 151.15 121.334C151.082 120.928 154.648 120.277 154.693 119.402C154.716 118.935 148.765 121.192 148.152 120.887C147.539 120.582 149.129 118.507 148.652 118.141C148.175 117.775 146.085 122.067 145.699 122.209C145.313 122.331 137.159 124.548 134.388 124.914C134.161 124.08 132.071 119.443 131.867 118.65C130.232 119.484 128.165 118.487 126.507 119.219C127.347 121.863 129.232 130.588 129.982 130.995C132.276 132.195 144.336 126.48 146.335 125.483C148.334 124.466 149.356 124.955 150.65 124.69C151.945 124.426 153.626 125.626 153.853 125.199Z" fill="#F38B80"/>
<path d="M132.412 99.493C133.025 97.0321 133.615 94.5305 132.003 91.8255C130.708 89.629 128.482 88.368 125.893 88.0833C118.557 87.3105 120.124 93.4322 109.881 94.7542C106.701 95.1609 103.726 95.5677 101.068 96.9914C96.276 99.554 94.459 103.662 97.6388 110.354C105.429 126.746 124.099 112.509 126.938 109.601C129.754 106.733 132.003 101.079 132.412 99.493Z" fill="#0E2E35"/>
<path d="M120.852 107.282C120.852 107.282 117.149 107.669 114.924 109.824C112.698 111.98 118.512 129.329 118.898 132.074C119.307 134.82 115.037 142.426 115.037 142.426C115.037 142.426 129.505 145.009 133.253 142.772C133.253 142.772 133.593 121.539 133.184 119.587C132.776 117.634 129.414 109.641 128.619 108.869C127.847 108.075 120.852 107.282 120.852 107.282Z" fill="#F2BF64"/>
<path d="M122.714 100.592C122.714 100.592 122.691 100.734 122.623 100.999C122.373 102.199 121.419 106.185 120.76 107.283C119.965 108.605 123.44 112.835 126.779 112.327C127.779 112.164 125.939 108.442 126.03 108.056C126.189 107.303 126.438 106.266 126.666 105.209C126.802 104.619 126.938 104.009 127.052 103.439C127.415 101.812 127.71 100.49 127.71 100.49L122.714 100.592Z" fill="#F7A491"/>
<path opacity="0.5" d="M122.646 100.999C122.691 100.755 122.737 100.592 122.737 100.592L127.733 100.49C127.733 100.49 127.438 101.812 127.075 103.439C126.938 104.009 126.825 104.599 126.689 105.209C125.916 105.107 125.099 104.761 124.304 104.131C123.418 103.439 122.85 102.605 122.487 101.731C122.555 101.426 122.6 101.182 122.646 100.999Z" fill="#F47458"/>
<path d="M125.735 89.934C125.735 89.934 123.691 90.178 122.214 91.9068C120.738 93.6152 119.148 98.9031 122.805 101.771C126.484 104.638 130.118 101.384 130.641 97.9472C131.208 94.4897 131.095 89.812 125.735 89.934Z" fill="#F7A491"/>
<path d="M131.731 97.0931C131.504 97.927 130.89 98.4965 130.368 98.3541C129.846 98.2118 129.619 97.4186 129.846 96.605C130.073 95.7712 130.686 95.2017 131.208 95.3441C131.731 95.4865 131.958 96.2593 131.731 97.0931Z" fill="#F7A491"/>
<path d="M128.006 89.9531C128.006 89.9531 123.213 94.8952 120.942 95.1189C118.694 95.3427 118.398 98.0273 118.398 98.0273C118.398 98.0273 119.216 91.8648 121.442 90.6852C123.668 89.4853 128.006 89.9531 128.006 89.9531Z" fill="#0E2E35"/>
<path d="M121.692 96.3194C121.874 97.2142 121.51 98.0278 120.874 98.1498C120.238 98.2718 119.58 97.6413 119.375 96.7464C119.194 95.8515 119.557 95.038 120.193 94.916C120.829 94.794 121.51 95.4245 121.692 96.3194Z" fill="#F7A491"/>
<path d="M121.623 121.356L137.136 123.39C137.613 123.451 137.931 123.837 137.863 124.264L134.842 142.792C134.774 143.219 134.342 143.504 133.865 143.443L118.353 141.409C117.876 141.348 117.558 140.962 117.626 140.535L120.647 122.007C120.715 121.58 121.146 121.295 121.623 121.356Z" fill="#184655"/>
<path d="M133.184 122.271C133.207 122.19 133.139 122.108 133.048 122.088L126.575 121.234C126.484 121.214 126.393 121.275 126.371 121.356L126.28 121.966L133.094 122.861L133.184 122.271Z" fill="#13375B"/>
<path d="M129.913 120.928C129.345 120.847 128.823 121.213 128.755 121.701C128.664 122.21 129.073 122.677 129.618 122.738C130.186 122.82 130.708 122.454 130.776 121.966C130.867 121.477 130.481 121.01 129.913 120.928ZM129.686 122.433C129.323 122.393 129.073 122.088 129.118 121.762C129.164 121.437 129.504 121.213 129.868 121.254C130.231 121.294 130.481 121.599 130.436 121.925C130.367 122.25 130.049 122.474 129.686 122.433Z" fill="#13375B"/>
<path d="M133.093 122.109C133.161 122.149 133.184 122.19 133.184 122.272L133.093 122.882L126.279 121.987C126.211 122.414 126.529 122.8 127.006 122.861L132.139 123.532C132.616 123.593 133.048 123.309 133.116 122.882L133.207 122.272C133.184 122.19 133.161 122.149 133.093 122.109Z" fill="#355389"/>
<path d="M128.369 99.6546L124.871 99.6343C124.871 99.6343 124.939 100.814 126.484 100.875C128.346 100.936 128.369 99.6546 128.369 99.6546Z" fill="white"/>
<path d="M110.744 126.097L116.354 126.606C116.354 126.606 116.263 130.877 116.354 131.365C116.354 131.365 125.961 133.744 129.981 134.395C129.981 134.395 131.821 133.46 132.548 133.175C133.297 132.87 135.273 132.565 135.705 132.504C136.136 132.443 136 132.89 135.614 133.032C135.228 133.175 134.251 133.602 133.979 134.09C133.979 134.09 134.774 134.171 135.182 134.009C135.591 133.846 136.182 133.48 136.182 133.297C136.182 133.114 136.295 132.666 136.432 132.687C136.477 132.687 136.522 132.829 136.568 132.992C136.613 133.134 136.659 133.277 136.704 133.439C136.772 133.704 136.863 134.09 136.886 134.253C136.954 134.639 136.681 135.717 136.659 136.104C136.591 136.795 136.363 137.12 135.955 137.303C135.296 137.507 134.592 137.649 133.547 137.731C131.639 137.914 129.868 137.405 129.118 137.344C128.346 137.263 116.127 136.185 116.127 136.185C116.127 136.185 111.266 135.554 110.948 134.802C110.607 134.09 110.744 126.097 110.744 126.097Z" fill="#F7A491"/>
<path d="M115.627 109.195C115.627 109.195 113.856 109.947 112.289 113.201C110.812 116.293 110.381 131.709 110.381 131.709L116.263 130.834L119.261 123.635C121.396 119.323 120.851 114.32 117.74 110.517C116.877 109.52 116.127 108.91 115.627 109.195Z" fill="#F2BF64"/>
<defs>
<filter id="filter0_d" x="37.1201" y="55.2734" width="259.974" height="171.201" filterUnits="userSpaceOnUse" color-interpolation-filters="sRGB">
<feFlood flood-opacity="0" result="BackgroundImageFix"/>
<feColorMatrix in="SourceAlpha" type="matrix" values="0 0 0 0 0 0 0 0 0 0 0 0 0 0 0 0 0 0 127 0"/>
<feOffset dy="6"/>
<feGaussianBlur stdDeviation="10"/>
<feColorMatrix type="matrix" values="0 0 0 0 0.623529 0 0 0 0 0.698039 0 0 0 0 0.686275 0 0 0 0.3 0"/>
<feBlend mode="normal" in2="BackgroundImageFix" result="effect1_dropShadow"/>
<feBlend mode="normal" in="SourceGraphic" in2="effect1_dropShadow" result="shape"/>
</filter>
<filter id="filter1_d" x="93.9937" y="80.6951" width="152.507" height="111.005" filterUnits="userSpaceOnUse" color-interpolation-filters="sRGB">
<feFlood flood-opacity="0" result="BackgroundImageFix"/>
<feColorMatrix in="SourceAlpha" type="matrix" values="0 0 0 0 0 0 0 0 0 0 0 0 0 0 0 0 0 0 127 0"/>
<feOffset dy="4"/>
<feGaussianBlur stdDeviation="7"/>
<feColorMatrix type="matrix" values="0 0 0 0 0.45098 0 0 0 0 0.694118 0 0 0 0 0.658824 0 0 0 0.3 0"/>
<feBlend mode="normal" in2="BackgroundImageFix" result="effect1_dropShadow"/>
<feBlend mode="normal" in="SourceGraphic" in2="effect1_dropShadow" result="shape"/>
</filter>
<linearGradient id="paint0_linear" x1="193.623" y1="45.5709" x2="33.5345" y2="206.579" gradientUnits="userSpaceOnUse">
<stop stop-color="#99FF1E"/>
<stop offset="1" stop-color="#99FF1E" stop-opacity="0.43"/>
</linearGradient>
<linearGradient id="paint1_linear" x1="186.903" y1="87.1523" x2="286.632" y2="161.891" gradientUnits="userSpaceOnUse">
<stop stop-color="#DFF2EE"/>
<stop offset="1" stop-color="#E2F2EF"/>
</linearGradient>
<linearGradient id="paint2_linear" x1="164.318" y1="99.0866" x2="264.652" y2="150.191" gradientUnits="userSpaceOnUse">
<stop stop-color="white"/>
<stop offset="1" stop-color="white" stop-opacity="0.96"/>
</linearGradient>
<linearGradient id="paint3_linear" x1="207.733" y1="162.988" x2="207.733" y2="187.086" gradientUnits="userSpaceOnUse">
<stop stop-color="#E1F1EE"/>
<stop offset="1" stop-color="#E1F1EE" stop-opacity="0"/>
</linearGradient>
<linearGradient id="paint4_linear" x1="251.964" y1="175.888" x2="257.838" y2="189.378" gradientUnits="userSpaceOnUse">
<stop stop-color="#6DEEFF"/>
<stop offset="1" stop-color="#31C0FA"/>
</linearGradient>
</defs>
</svg>
