<svg width="360" height="244" viewBox="0 0 360 244" fill="none" xmlns="http://www.w3.org/2000/svg">
<g filter="url(#filter0_d)">
<rect x="17" y="32.6383" width="291.734" height="185.362" rx="7" fill="white"/>
</g>
<rect x="156.092" y="86.2162" width="127.09" height="67.4357" rx="8" fill="#FBFBFB"/>
<path d="M36.1088 64.1571C35.5637 64.1571 35.0885 64.0441 34.683 63.8181C34.2842 63.5921 33.9751 63.2731 33.7558 62.861C33.5364 62.4422 33.4268 61.9537 33.4268 61.3953V56.7592H34.7927V59.5807H34.8027C34.9555 59.3481 35.1682 59.1653 35.4408 59.0324C35.7199 58.8994 36.019 58.833 36.3381 58.833C36.8366 58.833 37.2686 58.9426 37.6342 59.162C37.9998 59.3813 38.2823 59.6838 38.4817 60.0693C38.6877 60.4482 38.7908 60.8902 38.7908 61.3953C38.7908 61.9271 38.6844 62.4023 38.4717 62.8211C38.2657 63.2332 37.9632 63.5589 37.5644 63.7982C37.1656 64.0375 36.6804 64.1571 36.1088 64.1571ZM36.1088 62.9906C36.5142 62.9906 36.8299 62.8477 37.0559 62.5619C37.2886 62.2694 37.4049 61.9138 37.4049 61.495C37.4049 61.0763 37.2886 60.724 37.0559 60.4382C36.8299 60.1457 36.5142 59.9995 36.1088 59.9995C35.7033 59.9995 35.3843 60.1457 35.1516 60.4382C34.9256 60.724 34.8126 61.0763 34.8126 61.495C34.8126 61.9138 34.9256 62.2694 35.1516 62.5619C35.3843 62.8477 35.7033 62.9906 36.1088 62.9906ZM42.3881 64.1571C41.9228 64.1571 41.5174 64.0375 41.1717 63.7982C40.8261 63.5589 40.5569 63.2398 40.3641 62.841C40.178 62.4356 40.085 61.9902 40.085 61.505C40.085 61.0065 40.1913 60.5545 40.404 60.149C40.6234 59.7436 40.9358 59.4245 41.3412 59.1919C41.7467 58.9526 42.2319 58.833 42.7969 58.833C43.3685 58.833 43.8504 58.9526 44.2426 59.1919C44.6347 59.4312 44.9338 59.7536 45.1399 60.159C45.3459 60.5645 45.449 61.0131 45.449 61.505V64.0375H44.083V63.19H44.0631C43.9102 63.4559 43.7008 63.6852 43.435 63.8779C43.1757 64.064 42.8268 64.1571 42.3881 64.1571ZM42.7769 62.9906C43.1757 62.9906 43.4881 62.8443 43.7141 62.5519C43.9468 62.2594 44.0631 61.9038 44.0631 61.4851C44.0631 61.073 43.9468 60.724 43.7141 60.4382C43.4881 60.1457 43.1757 59.9995 42.7769 59.9995C42.3715 59.9995 42.0524 60.1457 41.8198 60.4382C41.5871 60.724 41.4708 61.073 41.4708 61.4851C41.4708 61.9038 41.5871 62.2594 41.8198 62.5519C42.0524 62.8443 42.3715 62.9906 42.7769 62.9906ZM47.3403 64.0375V61.0165C47.3403 60.6176 47.4366 60.2521 47.6294 59.9197C47.8222 59.5874 48.098 59.3248 48.4569 59.1321C48.8225 58.9327 49.2612 58.833 49.773 58.833C50.1386 58.833 50.4676 58.8961 50.7601 59.0224C51.0525 59.1487 51.3018 59.3215 51.5078 59.5409H51.5178C51.7305 59.3215 51.9831 59.1487 52.2756 59.0224C52.5747 58.8961 52.907 58.833 53.2726 58.833C53.7844 58.833 54.2198 58.9327 54.5787 59.1321C54.9443 59.3248 55.2234 59.5874 55.4162 59.9197C55.6089 60.2521 55.7053 60.6176 55.7053 61.0165V64.0375H54.3394V61.0165C54.3394 60.7373 54.233 60.498 54.0203 60.2986C53.8143 60.0992 53.565 59.9995 53.2726 59.9995C52.9801 59.9995 52.7275 60.0992 52.5148 60.2986C52.3088 60.498 52.2058 60.7373 52.2058 61.0165V64.0375H50.8398V61.0165C50.8398 60.7373 50.7335 60.498 50.5208 60.2986C50.3147 60.0992 50.0655 59.9995 49.773 59.9995C49.4806 59.9995 49.228 60.0992 49.0153 60.2986C48.8092 60.498 48.7062 60.7373 48.7062 61.0165V64.0375H47.3403ZM60.2293 64.1571C59.6843 64.1571 59.209 64.0441 58.8036 63.8181C58.4048 63.5921 58.0957 63.2731 57.8764 62.861C57.657 62.4422 57.5473 61.9537 57.5473 61.3953V56.7592H58.9133V59.5807H58.9232C59.0761 59.3481 59.2888 59.1653 59.5613 59.0324C59.8405 58.8994 60.1396 58.833 60.4586 58.833C60.9572 58.833 61.3892 58.9426 61.7548 59.162C62.1204 59.3813 62.4029 59.6838 62.6023 60.0693C62.8083 60.4482 62.9113 60.8902 62.9113 61.3953C62.9113 61.9271 62.805 62.4023 62.5923 62.8211C62.3862 63.2332 62.0838 63.5589 61.685 63.7982C61.2862 64.0375 60.801 64.1571 60.2293 64.1571ZM60.2293 62.9906C60.6348 62.9906 60.9505 62.8477 61.1765 62.5619C61.4091 62.2694 61.5255 61.9138 61.5255 61.495C61.5255 61.0763 61.4091 60.724 61.1765 60.4382C60.9505 60.1457 60.6348 59.9995 60.2293 59.9995C59.8239 59.9995 59.5048 60.1457 59.2722 60.4382C59.0462 60.724 58.9332 61.0763 58.9332 61.495C58.9332 61.9138 59.0462 62.2694 59.2722 62.5619C59.5048 62.8477 59.8239 62.9906 60.2293 62.9906ZM66.9475 64.1571C66.4224 64.1571 65.9538 64.0408 65.5417 63.8081C65.1296 63.5688 64.8039 63.2498 64.5646 62.851C64.3253 62.4455 64.2057 61.9935 64.2057 61.495C64.2057 60.9965 64.3253 60.5479 64.5646 60.149C64.8039 59.7436 65.1296 59.4245 65.5417 59.1919C65.9538 58.9526 66.4224 58.833 66.9475 58.833C67.4726 58.833 67.9412 58.9526 68.3533 59.1919C68.7654 59.4245 69.0911 59.7436 69.3304 60.149C69.5697 60.5479 69.6893 60.9965 69.6893 61.495C69.6893 61.9935 69.5697 62.4455 69.3304 62.851C69.0911 63.2498 68.7654 63.5688 68.3533 63.8081C67.9412 64.0408 67.4726 64.1571 66.9475 64.1571ZM66.9475 62.9906C67.3662 62.9906 67.6953 62.8477 67.9345 62.5619C68.1805 62.2694 68.3034 61.9138 68.3034 61.495C68.3034 61.0763 68.1805 60.724 67.9345 60.4382C67.6953 60.1457 67.3662 59.9995 66.9475 59.9995C66.5287 59.9995 66.1964 60.1457 65.9505 60.4382C65.7112 60.724 65.5915 61.0763 65.5915 61.495C65.5915 61.9138 65.7112 62.2694 65.9505 62.5619C66.1964 62.8477 66.5287 62.9906 66.9475 62.9906ZM73.7284 64.1571C73.2033 64.1571 72.7347 64.0408 72.3226 63.8081C71.9105 63.5688 71.5848 63.2498 71.3455 62.851C71.1062 62.4455 70.9866 61.9935 70.9866 61.495C70.9866 60.9965 71.1062 60.5479 71.3455 60.149C71.5848 59.7436 71.9105 59.4245 72.3226 59.1919C72.7347 58.9526 73.2033 58.833 73.7284 58.833C74.2535 58.833 74.7221 58.9526 75.1342 59.1919C75.5463 59.4245 75.872 59.7436 76.1113 60.149C76.3506 60.5479 76.4702 60.9965 76.4702 61.495C76.4702 61.9935 76.3506 62.4455 76.1113 62.851C75.872 63.2498 75.5463 63.5688 75.1342 63.8081C74.7221 64.0408 74.2535 64.1571 73.7284 64.1571ZM73.7284 62.9906C74.1471 62.9906 74.4762 62.8477 74.7154 62.5619C74.9614 62.2694 75.0843 61.9138 75.0843 61.495C75.0843 61.0763 74.9614 60.724 74.7154 60.4382C74.4762 60.1457 74.1471 59.9995 73.7284 59.9995C73.3096 59.9995 72.9773 60.1457 72.7314 60.4382C72.4921 60.724 72.3724 61.0763 72.3724 61.495C72.3724 61.9138 72.4921 62.2694 72.7314 62.5619C72.9773 62.8477 73.3096 62.9906 73.7284 62.9906Z" fill="#009F10" fill-opacity="0.27"/>
<rect x="93.0815" y="58.0565" width="198.417" height="5.61964" rx="2.80982" fill="#F1F2F4"/>
<circle cx="282.852" cy="193.792" r="9.51016" fill="url(#paint0_linear)"/>
<path d="M285.862 188.893H279.233C278.369 188.893 278.081 189.757 278.08 190.046C277.984 191.967 277.85 196.04 278.08 196.962C278.311 197.884 279.041 198.115 279.233 198.115H284.421L287.302 199.268V190.046C287.302 189.123 286.342 188.893 285.862 188.893Z" fill="white"/>
<path d="M279.521 195.521C280.002 195.905 281.308 196.674 282.692 196.674C284.075 196.674 285.189 195.905 285.573 195.521" stroke="#8720FC"/>
<path d="M64.6324 76.7273H36.2417C35.1371 76.7273 34.2417 77.6227 34.2417 78.7273V97.9849C34.2417 99.0894 35.1371 99.9849 36.2417 99.9849H64.6324C65.737 99.9849 66.6324 99.0894 66.6324 97.9849V78.7273C66.6324 77.6227 65.737 76.7273 64.6324 76.7273Z" fill="url(#paint1_linear)"/>
<path d="M64.7232 104.446H36.382C35.3334 104.446 34.4834 105.296 34.4834 106.344C34.4834 107.393 35.3334 108.243 36.382 108.243H64.7232C65.7718 108.243 66.6218 107.393 66.6218 106.344C66.6218 105.296 65.7718 104.446 64.7232 104.446Z" fill="url(#paint2_linear)"/>
<path d="M60.6153 110.902H36.382C35.3334 110.902 34.4834 111.752 34.4834 112.8C34.4834 113.849 35.3334 114.699 36.382 114.699H60.6153C61.6638 114.699 62.5139 113.849 62.5139 112.8C62.5139 111.752 61.6638 110.902 60.6153 110.902Z" fill="url(#paint3_linear)"/>
<path d="M52.7192 89.0899L49.0946 91.9954L49.0946 86.1845L52.7192 89.0899Z" fill="white"/>
<path d="M64.6324 122.354H36.2417C35.1371 122.354 34.2417 123.249 34.2417 124.354V143.612C34.2417 144.716 35.1371 145.612 36.2417 145.612H64.6324C65.737 145.612 66.6324 144.716 66.6324 143.612V124.354C66.6324 123.249 65.737 122.354 64.6324 122.354Z" fill="url(#paint4_linear)"/>
<path d="M64.7232 149.986H36.382C35.3334 149.986 34.4834 150.836 34.4834 151.884C34.4834 152.933 35.3334 153.783 36.382 153.783H64.7232C65.7718 153.783 66.6218 152.933 66.6218 151.884C66.6218 150.836 65.7718 149.986 64.7232 149.986Z" fill="url(#paint5_linear)"/>
<path d="M60.6153 156.442H36.382C35.3334 156.442 34.4834 157.292 34.4834 158.34C34.4834 159.389 35.3334 160.239 36.382 160.239H60.6153C61.6638 160.239 62.5139 159.389 62.5139 158.34C62.5139 157.292 61.6638 156.442 60.6153 156.442Z" fill="url(#paint6_linear)"/>
<path d="M52.7192 134.284L49.0946 137.189L49.0946 131.378L52.7192 134.284Z" fill="white"/>
<path d="M64.6324 167.312H36.2417C35.1371 167.312 34.2417 168.207 34.2417 169.312V188.569C34.2417 189.674 35.1371 190.569 36.2417 190.569H64.6324C65.737 190.569 66.6324 189.674 66.6324 188.569V169.312C66.6324 168.207 65.737 167.312 64.6324 167.312Z" fill="url(#paint7_linear)"/>
<path d="M64.7232 194.944H36.382C35.3334 194.944 34.4834 195.794 34.4834 196.842C34.4834 197.891 35.3334 198.741 36.382 198.741H64.7232C65.7718 198.741 66.6218 197.891 66.6218 196.842C66.6218 195.794 65.7718 194.944 64.7232 194.944Z" fill="url(#paint8_linear)"/>
<path d="M60.6153 201.4H36.382C35.3334 201.4 34.4834 202.25 34.4834 203.298C34.4834 204.347 35.3334 205.197 36.382 205.197H60.6153C61.6638 205.197 62.5139 204.347 62.5139 203.298C62.5139 202.25 61.6638 201.4 60.6153 201.4Z" fill="url(#paint9_linear)"/>
<path d="M52.7192 179.241L49.0946 182.146L49.0946 176.335L52.7192 179.241Z" fill="white"/>
<path d="M101.362 76.7273H72.9717C71.8671 76.7273 70.9717 77.6227 70.9717 78.7273V97.9849C70.9717 99.0894 71.8671 99.9849 72.9717 99.9849H101.362C102.467 99.9849 103.362 99.0894 103.362 97.9849V78.7273C103.362 77.6227 102.467 76.7273 101.362 76.7273Z" fill="url(#paint10_linear)"/>
<path d="M101.453 104.446H72.8703C71.8217 104.446 70.9717 105.296 70.9717 106.345C70.9717 107.393 71.8217 108.243 72.8703 108.243H101.453C102.502 108.243 103.352 107.393 103.352 106.345C103.352 105.296 102.502 104.446 101.453 104.446Z" fill="url(#paint11_linear)"/>
<path d="M97.1036 110.902H72.8703C71.8217 110.902 70.9717 111.752 70.9717 112.8C70.9717 113.849 71.8217 114.699 72.8703 114.699H97.1036C98.1521 114.699 99.0021 113.849 99.0021 112.8C99.0021 111.752 98.1521 110.902 97.1036 110.902Z" fill="url(#paint12_linear)"/>
<path d="M89.4492 89.0899L85.8246 91.9954L85.8246 86.1845L89.4492 89.0899Z" fill="white"/>
<path d="M101.362 122.354H72.9717C71.8671 122.354 70.9717 123.249 70.9717 124.354V143.612C70.9717 144.716 71.8671 145.612 72.9717 145.612H101.362C102.467 145.612 103.362 144.716 103.362 143.612V124.354C103.362 123.249 102.467 122.354 101.362 122.354Z" fill="url(#paint13_linear)"/>
<path d="M101.453 150.012H72.8703C71.8217 150.012 70.9717 150.862 70.9717 151.911C70.9717 152.96 71.8217 153.81 72.8703 153.81H101.453C102.502 153.81 103.352 152.96 103.352 151.911C103.352 150.862 102.502 150.012 101.453 150.012Z" fill="url(#paint14_linear)"/>
<path d="M97.1036 156.467H72.8703C71.8217 156.467 70.9717 157.317 70.9717 158.366C70.9717 159.414 71.8217 160.264 72.8703 160.264H97.1036C98.1521 160.264 99.0021 159.414 99.0021 158.366C99.0021 157.317 98.1521 156.467 97.1036 156.467Z" fill="url(#paint15_linear)"/>
<path d="M89.4492 134.284L85.8246 137.189L85.8246 131.378L89.4492 134.284Z" fill="white"/>
<path d="M101.362 167.311H72.9717C71.8671 167.311 70.9717 168.206 70.9717 169.311V188.569C70.9717 189.673 71.8671 190.569 72.9717 190.569H101.362C102.467 190.569 103.362 189.673 103.362 188.569V169.311C103.362 168.206 102.467 167.311 101.362 167.311Z" fill="url(#paint16_linear)"/>
<path d="M101.453 194.97H72.8703C71.8217 194.97 70.9717 195.82 70.9717 196.868C70.9717 197.917 71.8217 198.767 72.8703 198.767H101.453C102.502 198.767 103.352 197.917 103.352 196.868C103.352 195.82 102.502 194.97 101.453 194.97Z" fill="url(#paint17_linear)"/>
<path d="M97.1036 201.424H72.8703C71.8217 201.424 70.9717 202.274 70.9717 203.323C70.9717 204.371 71.8217 205.221 72.8703 205.221H97.1036C98.1521 205.221 99.0021 204.371 99.0021 203.323C99.0021 202.274 98.1521 201.424 97.1036 201.424Z" fill="url(#paint18_linear)"/>
<path d="M89.4492 179.241L85.8246 182.146L85.8246 176.335L89.4492 179.241Z" fill="white"/>
<path d="M138.224 76.7273H109.833C108.728 76.7273 107.833 77.6227 107.833 78.7273V97.9849C107.833 99.0894 108.728 99.9849 109.833 99.9849H138.224C139.328 99.9849 140.224 99.0894 140.224 97.9849V78.7273C140.224 77.6227 139.328 76.7273 138.224 76.7273Z" fill="url(#paint19_linear)"/>
<path d="M138.314 104.446H109.732C108.683 104.446 107.833 105.296 107.833 106.345C107.833 107.393 108.683 108.243 109.732 108.243H138.314C139.363 108.243 140.213 107.393 140.213 106.345C140.213 105.296 139.363 104.446 138.314 104.446Z" fill="url(#paint20_linear)"/>
<path d="M133.965 110.902H109.732C108.683 110.902 107.833 111.752 107.833 112.8C107.833 113.849 108.683 114.699 109.732 114.699H133.965C135.013 114.699 135.863 113.849 135.863 112.8C135.863 111.752 135.013 110.902 133.965 110.902Z" fill="url(#paint21_linear)"/>
<path d="M126.311 89.0899L122.686 91.9954L122.686 86.1845L126.311 89.0899Z" fill="white"/>
<path d="M138.224 122.354H109.833C108.728 122.354 107.833 123.249 107.833 124.354V143.612C107.833 144.716 108.728 145.612 109.833 145.612H138.224C139.328 145.612 140.224 144.716 140.224 143.612V124.354C140.224 123.249 139.328 122.354 138.224 122.354Z" fill="url(#paint22_linear)"/>
<path d="M138.314 150.012H109.732C108.683 150.012 107.833 150.862 107.833 151.911C107.833 152.96 108.683 153.81 109.732 153.81H138.314C139.363 153.81 140.213 152.96 140.213 151.911C140.213 150.862 139.363 150.012 138.314 150.012Z" fill="url(#paint23_linear)"/>
<path d="M133.965 156.467H109.732C108.683 156.467 107.833 157.317 107.833 158.366C107.833 159.414 108.683 160.264 109.732 160.264H133.965C135.013 160.264 135.863 159.414 135.863 158.366C135.863 157.317 135.013 156.467 133.965 156.467Z" fill="url(#paint24_linear)"/>
<path d="M126.311 134.284L122.686 137.189L122.686 131.378L126.311 134.284Z" fill="white"/>
<path d="M138.224 167.311H109.833C108.728 167.311 107.833 168.206 107.833 169.311V188.569C107.833 189.673 108.728 190.569 109.833 190.569H138.224C139.328 190.569 140.224 189.673 140.224 188.569V169.311C140.224 168.206 139.328 167.311 138.224 167.311Z" fill="url(#paint25_linear)"/>
<path d="M138.314 194.97H109.732C108.683 194.97 107.833 195.82 107.833 196.868C107.833 197.917 108.683 198.767 109.732 198.767H138.314C139.363 198.767 140.213 197.917 140.213 196.868C140.213 195.82 139.363 194.97 138.314 194.97Z" fill="url(#paint26_linear)"/>
<path d="M133.965 201.424H109.732C108.683 201.424 107.833 202.274 107.833 203.323C107.833 204.371 108.683 205.221 109.732 205.221H133.965C135.013 205.221 135.863 204.371 135.863 203.323C135.863 202.274 135.013 201.424 133.965 201.424Z" fill="url(#paint27_linear)"/>
<path d="M126.311 179.241L122.686 182.146L122.686 176.335L126.311 179.241Z" fill="white"/>
<path d="M17 39.6383C17 35.7723 20.134 32.6383 24 32.6383H302.787C306.653 32.6383 309.787 35.7723 309.787 39.6383V47.383H17V39.6383Z" fill="url(#paint28_linear)"/>
<circle cx="33.851" cy="40.0107" r="2.10638" fill="#6AC2FC"/>
<circle cx="41.2236" cy="40.0107" r="2.10638" fill="#F1EE33" fill-opacity="0.8"/>
<circle cx="48.5956" cy="40.0107" r="2.10638" fill="#89E23A"/>
<path d="M279.193 142.625V79.8723C279.193 78.2155 277.85 76.8723 276.193 76.8723L152.702 76.8723C151.045 76.8723 149.702 78.2155 149.702 79.8723V142.625L279.193 142.625Z" fill="url(#paint29_linear)"/>
<path d="M260.354 142.68H240.123L279.18 109.108V126.497L260.354 142.68ZM209.655 142.68H216.532L279.19 88.8205V82.9096L209.655 142.68ZM149.702 101.515V107.425L185.161 76.9458H178.285L149.702 101.515ZM220.662 76.9546H190.696L149.712 112.182V137.94L220.662 76.9546Z" fill="url(#paint30_linear)" fill-opacity="0.3"/>
<path d="M279.245 142.637H149.702V149.016C149.702 150.672 151.045 152.016 152.702 152.016H276.245C277.902 152.016 279.245 150.672 279.245 149.016V142.637Z" fill="#4D2A71"/>
<path d="M275.718 145.818H240.265C239.988 145.818 239.762 145.6 239.762 145.333C239.762 145.065 239.988 144.847 240.265 144.847H275.718C275.995 144.847 276.221 145.065 276.221 145.333C276.21 145.6 275.995 145.818 275.718 145.818Z" fill="white"/>
<path d="M240.254 145.818H153.414C153.137 145.818 152.912 145.6 152.912 145.333C152.912 145.065 153.137 144.847 153.414 144.847H240.254C240.531 144.847 240.757 145.065 240.757 145.333C240.757 145.6 240.531 145.818 240.254 145.818Z" fill="#03D218"/>
<path d="M241.321 145.333C241.321 145.898 240.849 146.354 240.265 146.354C239.68 146.354 239.208 145.898 239.208 145.333C239.208 144.768 239.68 144.312 240.265 144.312C240.839 144.312 241.321 144.768 241.321 145.333Z" fill="#FFFDFF"/>
<path d="M159.452 148.041H160.129V150.281H159.452V148.041ZM158.15 150.281H158.826V148.041H158.15V150.281ZM164.588 148.041V148.943L163.163 148.041V150.281L164.588 149.379V150.281H165.265V148.041H164.588ZM153.013 148.041V150.281H153.69V149.379L155.115 150.281V148.041L153.69 148.943V148.041H153.013Z" fill="white"/>
<path d="M265.691 148.647L265.624 148.491C265.624 148.491 265.781 148.141 265.764 148.13L265.556 147.93C265.539 147.919 265.185 148.074 265.185 148.074L265.022 148.008C265.022 148.008 264.876 147.652 264.859 147.652H264.566C264.544 147.652 264.414 148.008 264.414 148.008L264.251 148.074C264.251 148.074 263.891 147.924 263.875 147.935L263.666 148.135C263.65 148.147 263.818 148.491 263.818 148.491L263.751 148.647C263.751 148.647 263.385 148.785 263.385 148.802V149.085C263.385 149.108 263.751 149.235 263.751 149.235L263.818 149.391C263.818 149.391 263.661 149.741 263.678 149.752L263.886 149.952C263.897 149.963 264.251 149.808 264.251 149.808L264.414 149.874C264.414 149.874 264.561 150.23 264.578 150.23H264.87C264.893 150.23 265.022 149.874 265.022 149.874L265.185 149.808C265.185 149.808 265.545 149.958 265.562 149.947L265.77 149.747C265.787 149.73 265.618 149.391 265.618 149.391L265.686 149.235C265.686 149.235 266.051 149.097 266.051 149.074V148.791C266.057 148.78 265.691 148.647 265.691 148.647ZM265.151 148.947C265.151 149.174 264.96 149.363 264.724 149.363C264.488 149.363 264.296 149.18 264.296 148.947C264.296 148.719 264.488 148.535 264.724 148.535C264.96 148.53 265.151 148.719 265.151 148.947Z" fill="white"/>
<path d="M271.192 149.861H267.955V148.02H271.192V149.861ZM268.194 149.654H270.953V148.222H268.194V149.654Z" fill="white"/>
<path d="M274.487 147.946H275.274V148.713H275.504V147.724H274.487V147.946Z" fill="white"/>
<path d="M273.251 148.713V147.947H274.044V147.724H273.021V148.713H273.251Z" fill="white"/>
<path d="M275.274 149.141V149.908H274.487V150.13H275.504V149.141H275.274Z" fill="white"/>
<path d="M274.044 149.908H273.251V149.141H273.021V150.13H274.044V149.908Z" fill="white"/>
<g clip-path="url(#clip0)">
<path d="M199.468 194.592H194.925C194.187 192.133 191.928 190.327 189.233 190.327C186.538 190.327 184.281 192.133 183.541 194.592H161.94C160.998 194.592 160.234 195.356 160.234 196.297C160.234 197.239 160.998 198.003 161.94 198.003H183.54C184.279 200.461 186.538 202.268 189.233 202.268C191.928 202.268 194.185 200.461 194.925 198.003H199.468C200.411 198.003 201.174 197.239 201.174 196.297C201.174 195.356 200.411 194.592 199.468 194.592ZM189.233 198.856C187.822 198.856 186.674 197.708 186.674 196.297C186.674 194.887 187.822 193.739 189.233 193.739C190.644 193.739 191.792 194.887 191.792 196.297C191.792 197.708 190.644 198.856 189.233 198.856Z" fill="#D2D5F6"/>
<path d="M199.468 167.299H194.925C194.185 164.841 191.928 163.034 189.233 163.034C186.538 163.034 184.281 164.841 183.54 167.299H161.94C160.998 167.299 160.234 168.063 160.234 169.005C160.234 169.946 160.998 170.71 161.94 170.71H183.54C184.281 173.169 186.538 174.975 189.233 174.975C191.928 174.975 194.185 173.169 194.925 170.71H199.468C200.411 170.71 201.174 169.946 201.174 169.005C201.174 168.063 200.411 167.299 199.468 167.299ZM189.233 171.563C187.822 171.563 186.674 170.415 186.674 169.005C186.674 167.594 187.822 166.446 189.233 166.446C190.644 166.446 191.792 167.594 191.792 169.005C191.792 170.415 190.644 171.563 189.233 171.563Z" fill="#D2D5F6"/>
<path d="M199.468 180.945H177.867C177.127 178.487 174.87 176.68 172.175 176.68C169.48 176.68 167.223 178.487 166.482 180.945H161.94C160.998 180.945 160.234 181.709 160.234 182.651C160.234 183.592 160.998 184.356 161.94 184.356H166.482C167.223 186.814 169.479 188.621 172.175 188.621C174.87 188.621 177.127 186.814 177.867 184.356H199.468C200.411 184.356 201.174 183.592 201.174 182.651C201.174 181.709 200.411 180.945 199.468 180.945ZM172.175 185.209C170.764 185.209 169.616 184.061 169.616 182.651C169.616 181.24 170.764 180.092 172.175 180.092C173.585 180.092 174.733 181.24 174.733 182.651C174.733 184.061 173.585 185.209 172.175 185.209Z" fill="#D2D5F6"/>
</g>
<g clip-path="url(#clip1)">
<path d="M257.189 194.592H252.646C251.907 192.133 249.649 190.327 246.954 190.327C244.258 190.327 242.002 192.133 241.261 194.592H219.66C218.719 194.592 217.955 195.356 217.955 196.297C217.955 197.239 218.719 198.003 219.66 198.003H241.261C242 200.461 244.258 202.268 246.953 202.268C249.649 202.268 251.906 200.461 252.646 198.003H257.188C258.132 198.003 258.894 197.239 258.894 196.297C258.894 195.356 258.132 194.592 257.189 194.592ZM246.954 198.856C245.543 198.856 244.395 197.708 244.395 196.297C244.395 194.887 245.543 193.739 246.954 193.739C248.364 193.739 249.512 194.887 249.512 196.297C249.512 197.708 248.364 198.856 246.954 198.856Z" fill="#D2D5F6"/>
<path d="M257.189 167.299H252.646C251.906 164.841 249.649 163.034 246.954 163.034C244.258 163.034 242.002 164.841 241.261 167.299H219.66C218.719 167.299 217.955 168.063 217.955 169.005C217.955 169.946 218.719 170.71 219.66 170.71H241.261C242.002 173.169 244.258 174.975 246.954 174.975C249.649 174.975 251.906 173.169 252.646 170.71H257.189C258.132 170.71 258.894 169.946 258.894 169.005C258.894 168.063 258.132 167.299 257.189 167.299ZM246.954 171.563C245.543 171.563 244.395 170.415 244.395 169.005C244.395 167.594 245.543 166.446 246.954 166.446C248.364 166.446 249.512 167.594 249.512 169.005C249.512 170.415 248.364 171.563 246.954 171.563Z" fill="#D2D5F6"/>
<path d="M257.189 180.945H235.588C234.847 178.487 232.591 176.68 229.895 176.68C227.2 176.68 224.943 178.487 224.203 180.945H219.66C218.719 180.945 217.955 181.709 217.955 182.651C217.955 183.592 218.719 184.356 219.66 184.356H224.203C224.943 186.814 227.2 188.621 229.895 188.621C232.59 188.621 234.847 186.814 235.588 184.356H257.188C258.132 184.356 258.894 183.592 258.894 182.651C258.894 181.709 258.132 180.945 257.189 180.945ZM229.895 185.209C228.485 185.209 227.337 184.061 227.337 182.651C227.337 181.24 228.485 180.092 229.895 180.092C231.306 180.092 232.454 181.24 232.454 182.651C232.454 184.061 231.306 185.209 229.895 185.209Z" fill="#D2D5F6"/>
</g>
<g filter="url(#filter1_d)">
<rect x="202.362" y="20" width="141.128" height="96.8936" rx="6" fill="white"/>
</g>
<rect x="215.124" y="36.912" width="12.0109" height="11.2602" fill="#FF8D7E"/>
<rect x="232.389" y="36.912" width="12.0109" height="11.2602" fill="#FFF97B"/>
<rect x="249.655" y="36.912" width="12.0109" height="11.2602" fill="#7DEA80"/>
<rect x="266.92" y="36.912" width="12.0109" height="11.2602" fill="#00DE7E"/>
<rect x="284.186" y="36.912" width="12.0109" height="11.2602" fill="#00E6FF"/>
<rect x="301.452" y="36.912" width="12.0109" height="11.2602" fill="#FF96BF"/>
<rect x="318.717" y="36.912" width="12.0109" height="11.2602" fill="#FF97FB"/>
<rect x="215.124" y="53.4263" width="12.0109" height="11.2602" fill="#FF1900"/>
<rect x="232.389" y="53.4263" width="12.0109" height="11.2602" fill="#FFF000"/>
<rect x="249.655" y="53.4263" width="12.0109" height="11.2602" fill="#82E300"/>
<rect x="266.92" y="53.4263" width="12.0109" height="11.2602" fill="#00DB3C"/>
<rect x="284.186" y="53.4263" width="12.0109" height="11.2602" fill="#007CF8"/>
<rect x="301.452" y="53.4263" width="12.0109" height="11.2602" fill="#8284BD"/>
<rect x="318.717" y="53.4263" width="12.0109" height="11.2602" fill="#FF2DFF"/>
<rect x="215.124" y="69.9417" width="12.0109" height="11.2602" fill="#890D11"/>
<rect x="232.389" y="69.9417" width="12.0109" height="11.2602" fill="#FF890D"/>
<rect x="249.655" y="69.9417" width="12.0109" height="11.2602" fill="#016C0B"/>
<rect x="266.92" y="69.9417" width="12.0109" height="11.2602" fill="#025B3E"/>
<rect x="299.337" y="68.0167" width="16.541" height="15.4447" stroke="white"/>
<rect x="299.337" y="68.0167" width="16.541" height="15.4447" stroke="#4351FC"/>
<rect x="284.186" y="69.9417" width="12.0109" height="11.2602" fill="#4351FC"/>
<rect x="301.452" y="69.9417" width="12.0109" height="11.2602" fill="#8720FC"/>
<rect x="318.717" y="69.9417" width="12.0109" height="11.2602" fill="#85177E"/>
<rect x="215.124" y="86.4561" width="12.0109" height="11.2602" fill="#460B07"/>
<rect x="232.389" y="86.4561" width="12.0109" height="11.2602" fill="#7C4104"/>
<rect x="249.655" y="86.4561" width="12.0109" height="11.2602" fill="#0A3206"/>
<rect x="266.92" y="86.4561" width="12.0109" height="11.2602" fill="#013133"/>
<rect x="284.186" y="86.4561" width="12.0109" height="11.2602" fill="#0708A5"/>
<rect x="301.452" y="86.4561" width="12.0109" height="11.2602" fill="black"/>
<rect x="319.217" y="86.9561" width="11.0109" height="10.2602" fill="white" stroke="#E3E6F2"/>
<defs>
<filter id="filter0_d" x="-4" y="16.6383" width="333.734" height="227.362" filterUnits="userSpaceOnUse" color-interpolation-filters="sRGB">
<feFlood flood-opacity="0" result="BackgroundImageFix"/>
<feColorMatrix in="SourceAlpha" type="matrix" values="0 0 0 0 0 0 0 0 0 0 0 0 0 0 0 0 0 0 127 0"/>
<feOffset dy="5"/>
<feGaussianBlur stdDeviation="10.5"/>
<feColorMatrix type="matrix" values="0 0 0 0 0.623529 0 0 0 0 0.698039 0 0 0 0 0.686275 0 0 0 0.2 0"/>
<feBlend mode="normal" in2="BackgroundImageFix" result="effect1_dropShadow"/>
<feBlend mode="normal" in="SourceGraphic" in2="effect1_dropShadow" result="shape"/>
</filter>
<filter id="filter1_d" x="178.362" y="0" width="189.128" height="144.894" filterUnits="userSpaceOnUse" color-interpolation-filters="sRGB">
<feFlood flood-opacity="0" result="BackgroundImageFix"/>
<feColorMatrix in="SourceAlpha" type="matrix" values="0 0 0 0 0 0 0 0 0 0 0 0 0 0 0 0 0 0 127 0"/>
<feOffset dy="4"/>
<feGaussianBlur stdDeviation="12"/>
<feColorMatrix type="matrix" values="0 0 0 0 0 0 0 0 0 0 0 0 0 0 0 0 0 0 0.14 0"/>
<feBlend mode="normal" in2="BackgroundImageFix" result="effect1_dropShadow"/>
<feBlend mode="normal" in="SourceGraphic" in2="effect1_dropShadow" result="shape"/>
</filter>
<linearGradient id="paint0_linear" x1="275.071" y1="185.435" x2="282.852" y2="203.303" gradientUnits="userSpaceOnUse">
<stop stop-color="#8720FC"/>
<stop offset="1" stop-color="#8720FC"/>
</linearGradient>
<linearGradient id="paint1_linear" x1="50.437" y1="76.7273" x2="50.437" y2="99.9849" gradientUnits="userSpaceOnUse">
<stop stop-color="#D2D5F7"/>
<stop offset="1" stop-color="#D0D3F2"/>
</linearGradient>
<linearGradient id="paint2_linear" x1="50.5526" y1="104.446" x2="50.5526" y2="108.243" gradientUnits="userSpaceOnUse">
<stop stop-color="#D2D5F7"/>
<stop offset="1" stop-color="#D0D3F2"/>
</linearGradient>
<linearGradient id="paint3_linear" x1="48.4986" y1="110.902" x2="48.4986" y2="114.699" gradientUnits="userSpaceOnUse">
<stop stop-color="#D2D5F7"/>
<stop offset="1" stop-color="#D0D3F2"/>
</linearGradient>
<linearGradient id="paint4_linear" x1="50.437" y1="122.354" x2="50.437" y2="145.612" gradientUnits="userSpaceOnUse">
<stop stop-color="#D2D5F7"/>
<stop offset="1" stop-color="#D0D3F2"/>
</linearGradient>
<linearGradient id="paint5_linear" x1="50.5526" y1="149.986" x2="50.5526" y2="153.783" gradientUnits="userSpaceOnUse">
<stop stop-color="#D2D5F7"/>
<stop offset="1" stop-color="#D0D3F2"/>
</linearGradient>
<linearGradient id="paint6_linear" x1="48.4986" y1="156.442" x2="48.4986" y2="160.239" gradientUnits="userSpaceOnUse">
<stop stop-color="#D2D5F7"/>
<stop offset="1" stop-color="#D0D3F2"/>
</linearGradient>
<linearGradient id="paint7_linear" x1="50.437" y1="167.312" x2="50.437" y2="190.569" gradientUnits="userSpaceOnUse">
<stop stop-color="#D2D5F7"/>
<stop offset="1" stop-color="#D0D3F2"/>
</linearGradient>
<linearGradient id="paint8_linear" x1="50.5526" y1="194.944" x2="50.5526" y2="198.741" gradientUnits="userSpaceOnUse">
<stop stop-color="#D2D5F7"/>
<stop offset="1" stop-color="#D0D3F2"/>
</linearGradient>
<linearGradient id="paint9_linear" x1="48.4986" y1="201.4" x2="48.4986" y2="205.197" gradientUnits="userSpaceOnUse">
<stop stop-color="#D2D5F7"/>
<stop offset="1" stop-color="#D0D3F2"/>
</linearGradient>
<linearGradient id="paint10_linear" x1="87.167" y1="76.7273" x2="87.167" y2="99.9849" gradientUnits="userSpaceOnUse">
<stop stop-color="#D2D5F7"/>
<stop offset="1" stop-color="#D0D3F2"/>
</linearGradient>
<linearGradient id="paint11_linear" x1="87.1617" y1="104.446" x2="87.1617" y2="108.243" gradientUnits="userSpaceOnUse">
<stop stop-color="#D2D5F7"/>
<stop offset="1" stop-color="#D0D3F2"/>
</linearGradient>
<linearGradient id="paint12_linear" x1="84.9869" y1="110.902" x2="84.9869" y2="114.699" gradientUnits="userSpaceOnUse">
<stop stop-color="#D2D5F7"/>
<stop offset="1" stop-color="#D0D3F2"/>
</linearGradient>
<linearGradient id="paint13_linear" x1="87.167" y1="122.354" x2="87.167" y2="145.612" gradientUnits="userSpaceOnUse">
<stop stop-color="#D2D5F7"/>
<stop offset="1" stop-color="#D0D3F2"/>
</linearGradient>
<linearGradient id="paint14_linear" x1="87.1617" y1="150.012" x2="87.1617" y2="153.81" gradientUnits="userSpaceOnUse">
<stop stop-color="#D2D5F7"/>
<stop offset="1" stop-color="#D0D3F2"/>
</linearGradient>
<linearGradient id="paint15_linear" x1="84.9869" y1="156.467" x2="84.9869" y2="160.264" gradientUnits="userSpaceOnUse">
<stop stop-color="#D2D5F7"/>
<stop offset="1" stop-color="#D0D3F2"/>
</linearGradient>
<linearGradient id="paint16_linear" x1="87.167" y1="167.311" x2="87.167" y2="190.569" gradientUnits="userSpaceOnUse">
<stop stop-color="#D2D5F7"/>
<stop offset="1" stop-color="#D0D3F2"/>
</linearGradient>
<linearGradient id="paint17_linear" x1="87.1617" y1="194.97" x2="87.1617" y2="198.767" gradientUnits="userSpaceOnUse">
<stop stop-color="#D2D5F7"/>
<stop offset="1" stop-color="#D0D3F2"/>
</linearGradient>
<linearGradient id="paint18_linear" x1="84.9869" y1="201.424" x2="84.9869" y2="205.221" gradientUnits="userSpaceOnUse">
<stop stop-color="#D2D5F7"/>
<stop offset="1" stop-color="#D0D3F2"/>
</linearGradient>
<linearGradient id="paint19_linear" x1="124.028" y1="76.7273" x2="124.028" y2="99.9849" gradientUnits="userSpaceOnUse">
<stop stop-color="#D2D5F7"/>
<stop offset="1" stop-color="#D0D3F2"/>
</linearGradient>
<linearGradient id="paint20_linear" x1="124.023" y1="104.446" x2="124.023" y2="108.243" gradientUnits="userSpaceOnUse">
<stop stop-color="#D2D5F7"/>
<stop offset="1" stop-color="#D0D3F2"/>
</linearGradient>
<linearGradient id="paint21_linear" x1="121.848" y1="110.902" x2="121.848" y2="114.699" gradientUnits="userSpaceOnUse">
<stop stop-color="#D2D5F7"/>
<stop offset="1" stop-color="#D0D3F2"/>
</linearGradient>
<linearGradient id="paint22_linear" x1="124.028" y1="122.354" x2="124.028" y2="145.612" gradientUnits="userSpaceOnUse">
<stop stop-color="#D2D5F7"/>
<stop offset="1" stop-color="#D0D3F2"/>
</linearGradient>
<linearGradient id="paint23_linear" x1="124.023" y1="150.012" x2="124.023" y2="153.81" gradientUnits="userSpaceOnUse">
<stop stop-color="#D2D5F7"/>
<stop offset="1" stop-color="#D0D3F2"/>
</linearGradient>
<linearGradient id="paint24_linear" x1="121.848" y1="156.467" x2="121.848" y2="160.264" gradientUnits="userSpaceOnUse">
<stop stop-color="#D2D5F7"/>
<stop offset="1" stop-color="#D0D3F2"/>
</linearGradient>
<linearGradient id="paint25_linear" x1="124.028" y1="167.311" x2="124.028" y2="190.569" gradientUnits="userSpaceOnUse">
<stop stop-color="#D2D5F7"/>
<stop offset="1" stop-color="#D0D3F2"/>
</linearGradient>
<linearGradient id="paint26_linear" x1="124.023" y1="194.97" x2="124.023" y2="198.767" gradientUnits="userSpaceOnUse">
<stop stop-color="#D2D5F7"/>
<stop offset="1" stop-color="#D0D3F2"/>
</linearGradient>
<linearGradient id="paint27_linear" x1="121.848" y1="201.424" x2="121.848" y2="205.221" gradientUnits="userSpaceOnUse">
<stop stop-color="#D2D5F7"/>
<stop offset="1" stop-color="#D0D3F2"/>
</linearGradient>
<linearGradient id="paint28_linear" x1="17" y1="47.3829" x2="309.787" y2="47.3829" gradientUnits="userSpaceOnUse">
<stop stop-color="#8720FC"/>
<stop offset="1" stop-color="#AF7AEC"/>
</linearGradient>
<linearGradient id="paint29_linear" x1="189.128" y1="70.8391" x2="293.759" y2="160.861" gradientUnits="userSpaceOnUse">
<stop stop-color="#BABEE8"/>
<stop offset="0.718805" stop-color="#D8DBF8"/>
<stop offset="1" stop-color="#E3E6FE"/>
</linearGradient>
<linearGradient id="paint30_linear" x1="162.724" y1="82.9921" x2="272.817" y2="147.37" gradientUnits="userSpaceOnUse">
<stop stop-color="#A5ADF0"/>
<stop offset="1" stop-color="#8F99F0" stop-opacity="0.96"/>
</linearGradient>
<clipPath id="clip0">
<rect width="40.9397" height="40.9397" fill="white" transform="translate(160.234 162.181)"/>
</clipPath>
<clipPath id="clip1">
<rect width="40.9397" height="40.9397" fill="white" transform="translate(217.955 162.181)"/>
</clipPath>
</defs>
</svg>
