<svg width="36" height="36" viewBox="0 0 36 36" fill="none" xmlns="http://www.w3.org/2000/svg">
<path d="M18 23.9998C17.6925 23.9998 17.3985 23.8738 17.187 23.6518L9.31204 15.4018C8.62954 14.6878 9.13654 13.4998 10.125 13.4998H14.25V4.87476C14.25 3.84126 15.0915 2.99976 16.125 2.99976H19.875C20.9085 2.99976 21.75 3.84126 21.75 4.87476V13.4998H25.875C26.8635 13.4998 27.3705 14.6878 26.688 15.4018L18.813 23.6518C18.6015 23.8738 18.3075 23.9998 18 23.9998V23.9998Z" fill="white"/>
<path d="M33.375 32.9993H2.625C1.1775 32.9993 0 32.018 0 30.8118V30.1868C0 28.9805 1.1775 27.9993 2.625 27.9993H33.375C34.8225 27.9993 36 28.9805 36 30.1868V30.8118C36 32.018 34.8225 32.9993 33.375 32.9993Z" fill="white"/>
</svg>
