<svg width="526" height="505" viewBox="0 0 526 505" fill="none" xmlns="http://www.w3.org/2000/svg">
<path d="M362.891 153.609C312.163 139.123 245.278 170.57 288.282 199.961C330.073 223.019 320.863 238.341 343.536 252.313C373.618 270.912 399.492 245.84 399.534 245.872C433.19 215.417 406.531 166.072 362.891 153.609Z" fill="url(#paint0_linear)" fill-opacity="0.4"/>
<path opacity="0.13" d="M211.676 414.755C302.218 500.125 518.453 375.764 417.926 269.867C314.741 186.421 357.843 132.655 303.322 82.2135C231.044 15.0708 127.895 102.56 127.798 102.444C-4.22313 208.618 71.4788 329.343 211.676 414.755Z" fill="url(#paint1_linear)"/>
<defs>
<linearGradient id="paint0_linear" x1="322.271" y1="131.32" x2="320.517" y2="256.19" gradientUnits="userSpaceOnUse">
<stop stop-color="#FFEC00" stop-opacity="0.75"/>
<stop offset="1" stop-color="#F5F13C" stop-opacity="0.45"/>
</linearGradient>
<linearGradient id="paint1_linear" x1="389.436" y1="427.231" x2="390.257" y2="173.646" gradientUnits="userSpaceOnUse">
<stop stop-color="#28FEFE" stop-opacity="0.3"/>
<stop offset="1" stop-color="#33C9E0"/>
</linearGradient>
</defs>
</svg>
