<svg width="267" height="238" viewBox="0 0 267 238" fill="none" xmlns="http://www.w3.org/2000/svg">
<path opacity="0.21" d="M131.777 39.7353C79.0041 15.8258 2.16949 102.294 62.4279 133.701C120.495 154.893 109.523 184.803 141.156 198.778C183.133 217.425 215.563 163.858 215.624 163.894C258.001 97.872 206.481 56.2976 131.777 39.7353Z" fill="url(#paint0_linear)"/>
<g opacity="0.4">
<mask id="path-2-inside-1" fill="white">
<path d="M130.377 23.5495C74.262 5.48634 6.23428 77.6704 29.6429 121.926C37.4722 136.728 55.1818 141.936 69.7738 149.917C112.609 173.346 106.115 200.586 138.53 215.12C187.973 237.413 227.859 174.614 227.93 174.658C279.022 93.12 218.599 42.841 130.377 23.5495Z"/>
</mask>
<path d="M130.377 23.5495L130.222 24.0248L130.245 24.0321L130.268 24.0373L130.377 23.5495ZM138.53 215.12L138.738 214.665L138.737 214.664L138.53 215.12ZM227.93 174.658L227.664 175.082L228.088 175.346L228.354 174.922L227.93 174.658ZM29.6429 121.926L29.1998 122.16L29.6429 121.926ZM69.7738 149.917L70.016 149.479L69.7738 149.917ZM130.533 23.0743C130.047 22.9177 129.559 22.7679 129.071 22.6247L128.785 23.5829C129.265 23.7236 129.744 23.8709 130.222 24.0248L130.533 23.0743ZM126.134 21.8448C125.144 21.6092 124.152 21.3999 123.157 21.2165L122.971 22.1985C123.949 22.3789 124.925 22.5846 125.898 22.8162L126.134 21.8448ZM120.156 20.7413C119.148 20.6078 118.139 20.4998 117.129 20.4168L117.042 21.4121C118.036 21.4937 119.029 21.5999 120.02 21.7312L120.156 20.7413ZM114.093 20.242C113.079 20.2082 112.064 20.1989 111.05 20.2133L111.06 21.2118C112.059 21.1976 113.057 21.2069 114.055 21.2401L114.093 20.242ZM108.01 20.327C106.998 20.3881 105.988 20.4722 104.978 20.5786L105.079 21.5717C106.074 21.4668 107.07 21.384 108.066 21.3238L108.01 20.327ZM101.961 20.9632C100.959 21.1129 99.9587 21.2841 98.9607 21.4761L99.1465 22.4566C100.131 22.2672 101.117 22.0984 102.105 21.9509L101.961 20.9632ZM95.9883 22.1109C95.0018 22.3423 94.0181 22.5937 93.0377 22.8644L93.3012 23.8268C94.2692 23.5594 95.2402 23.3113 96.2138 23.0829L95.9883 22.1109ZM90.1262 23.7278C89.1606 24.0339 88.1987 24.3585 87.241 24.7009L87.5755 25.6408C88.5218 25.3024 89.4721 24.9818 90.4259 24.6795L90.1262 23.7278ZM84.4004 25.7733C83.4597 26.1473 82.5237 26.5383 81.5929 26.9456L81.9921 27.8598C82.9126 27.457 83.838 27.0705 84.7679 26.7007L84.4004 25.7733ZM78.8307 28.2093C77.9176 28.6453 77.0101 29.0969 76.1087 29.5634L76.5671 30.4494C77.459 29.9878 78.3568 29.541 79.2601 29.1097L78.8307 28.2093ZM73.4326 31.0021C72.5491 31.495 71.672 32.0021 70.802 32.5228L71.3147 33.3785C72.176 32.863 73.0442 32.361 73.9186 31.8732L73.4326 31.0021ZM68.2185 34.1223C67.3663 34.6676 66.5214 35.226 65.6844 35.7969L66.2473 36.6205C67.0762 36.0551 67.9129 35.5021 68.7568 34.9621L68.2185 34.1223ZM63.1997 37.5447C62.3802 38.139 61.569 38.7451 60.7666 39.3626L61.3763 40.1523C62.1711 39.5406 62.9746 38.9402 63.7864 38.3515L63.1997 37.5447ZM58.3867 41.2483C57.6016 41.8886 56.8257 42.5397 56.0597 43.201L56.7133 43.9549C57.4722 43.2997 58.2409 42.6546 59.0187 42.0203L58.3867 41.2483ZM53.7906 45.216C53.0418 45.8998 52.3034 46.5935 51.5757 47.2964L52.2708 48.0123C52.9917 47.3159 53.7233 46.6287 54.4652 45.9512L53.7906 45.216ZM49.4232 49.4346C48.7135 50.1597 48.0152 50.8936 47.3288 51.6357L48.0635 52.3112C48.7435 51.576 49.4352 50.849 50.1383 50.1307L49.4232 49.4346ZM45.3002 53.8926C44.6327 54.6569 43.9778 55.4291 43.336 56.2085L44.1087 56.8404C44.7443 56.0685 45.393 55.3038 46.0542 54.5467L45.3002 53.8926ZM41.4406 58.5805C40.819 59.3823 40.2114 60.191 39.6183 61.0059L40.4277 61.5903C41.0149 60.7837 41.6165 59.9831 42.2319 59.1892L41.4406 58.5805ZM37.8676 63.4904C37.2967 64.328 36.7412 65.1714 36.2016 66.0199L37.0466 66.5522C37.5804 65.7128 38.1301 64.8784 38.695 64.0495L37.8676 63.4904ZM34.6106 68.6149C34.095 69.488 33.5965 70.3658 33.1156 71.2477L33.9948 71.722C34.4702 70.8503 34.963 69.9824 35.4729 69.119L34.6106 68.6149ZM31.7058 73.9457C31.2512 74.8552 30.8157 75.7682 30.3998 76.684L31.3117 77.0929C31.7224 76.1886 32.1525 75.2868 32.6016 74.3883L31.7058 73.9457ZM29.1984 79.4722C28.8134 80.4167 28.4497 81.3634 28.108 82.3116L29.0502 82.6459C29.3871 81.7109 29.7459 80.777 30.1258 79.8451L29.1984 79.4722ZM27.1437 85.1791C26.8388 86.1559 26.5579 87.1335 26.3017 88.111L27.2705 88.3598C27.5227 87.3975 27.7993 86.4347 28.0997 85.4723L27.1437 85.1791ZM25.6035 91.0647C25.3936 92.0617 25.2102 93.0578 25.0541 94.0523L26.0434 94.2027C26.1967 93.2257 26.377 92.2465 26.5834 91.266L25.6035 91.0647ZM24.6644 97.0722C24.5624 98.0841 24.4898 99.0933 24.4474 100.099L25.4479 100.137C25.4894 99.1509 25.5606 98.1611 25.6607 97.168L24.6644 97.0722ZM24.4127 103.144C24.4329 104.162 24.4856 105.175 24.5716 106.182L25.5693 106.093C25.4852 105.108 25.4336 104.116 25.4138 103.12L24.4127 103.144ZM24.9328 109.2C25.0883 110.205 25.2787 111.202 25.505 112.191L26.4813 111.965C26.2604 110.999 26.0744 110.025 25.9225 109.044L24.9328 109.2ZM26.2911 115.129C26.5891 116.098 26.9236 117.058 27.2955 118.008L28.2284 117.641C27.8656 116.715 27.5393 115.778 27.2486 114.833L26.2911 115.129ZM28.5091 120.793C28.73 121.251 28.9602 121.707 29.1998 122.16L30.0859 121.692C29.8521 121.25 29.6276 120.805 29.4122 120.357L28.5091 120.793ZM29.1998 122.16C29.4475 122.629 29.7049 123.087 29.9716 123.537L30.834 123.026C30.5755 122.59 30.326 122.145 30.0859 121.692L29.1998 122.16ZM31.7102 126.17C32.3342 127.023 32.9942 127.841 33.6864 128.626L34.4397 127.965C33.7666 127.201 33.1256 126.407 32.5201 125.579L31.7102 126.17ZM35.8665 130.899C36.6218 131.624 37.4057 132.321 38.2147 132.991L38.8566 132.222C38.0651 131.566 37.2994 130.886 36.5628 130.178L35.8665 130.899ZM40.6963 134.917C41.5383 135.53 42.4011 136.121 43.2813 136.693L43.8309 135.856C42.9639 135.292 42.1155 134.711 41.2889 134.109L40.6963 134.917ZM45.9444 138.343C46.8385 138.872 47.7464 139.387 48.6647 139.889L49.1492 139.013C48.2394 138.515 47.3413 138.007 46.4578 137.484L45.9444 138.343ZM51.4256 141.353C52.3486 141.829 53.2789 142.296 54.2133 142.758L54.6608 141.863C53.7302 141.403 52.8051 140.938 51.8882 140.466L51.4256 141.353ZM57.0159 144.124C57.9511 144.575 58.8882 145.024 59.8229 145.473L60.2602 144.573C59.3245 144.124 58.389 143.676 57.455 143.225L57.0159 144.124ZM62.6242 146.825C63.5584 147.28 64.4877 147.737 65.4094 148.201L65.8631 147.309C64.9365 146.843 64.0032 146.383 63.0663 145.927L62.6242 146.825ZM68.1671 149.621C68.6249 149.864 69.0799 150.108 69.5317 150.355L70.016 149.479C69.5599 149.23 69.1009 148.983 68.6395 148.739L68.1671 149.621ZM69.5317 150.355C69.981 150.601 70.4249 150.847 70.8634 151.094L71.3579 150.223C70.916 149.975 70.4687 149.727 70.016 149.479L69.5317 150.355ZM73.433 152.579C74.312 153.101 75.1681 153.625 76.0023 154.15L76.5394 153.305C75.6979 152.776 74.8344 152.247 73.9481 151.721L73.433 152.579ZM78.5138 155.779C79.3552 156.342 80.1729 156.905 80.968 157.47L81.5511 156.656C80.7482 156.085 79.9228 155.516 79.0736 154.949L78.5138 155.779ZM83.3671 159.228C84.1796 159.842 84.967 160.457 85.7308 161.074L86.3625 160.296C85.5906 159.673 84.7949 159.052 83.9742 158.431L83.3671 159.228ZM88.0277 162.989C88.7954 163.65 89.5379 164.313 90.2569 164.975L90.938 164.24C90.211 163.57 89.4604 162.901 88.6843 162.232L88.0277 162.989ZM92.4166 167.033C93.1368 167.743 93.8323 168.453 94.5054 169.163L95.2342 168.475C94.5536 167.758 93.8503 167.04 93.122 166.322L92.4166 167.033ZM96.5227 171.361C97.1935 172.116 97.8413 172.87 98.4691 173.623L99.2401 172.983C98.6061 172.222 97.9514 171.46 97.2735 170.697L96.5227 171.361ZM100.347 175.945C100.971 176.738 101.574 177.529 102.162 178.317L102.967 177.72C102.374 176.925 101.765 176.127 101.136 175.326L100.347 175.945ZM103.922 180.734C104.507 181.554 105.077 182.371 105.638 183.184L106.464 182.616C105.901 181.8 105.327 180.979 104.739 180.153L103.922 180.734ZM107.323 185.659C107.887 186.493 108.442 187.322 108.995 188.146L109.828 187.588C109.276 186.765 108.719 185.935 108.155 185.099L107.323 185.659ZM110.675 190.636C111.241 191.469 111.809 192.295 112.382 193.113L113.204 192.539C112.634 191.725 112.069 190.903 111.505 190.073L110.675 190.636ZM114.136 195.561C114.732 196.371 115.338 197.172 115.959 197.963L116.748 197.345C116.134 196.563 115.535 195.771 114.945 194.968L114.136 195.561ZM117.87 200.302C118.52 201.065 119.189 201.818 119.883 202.559L120.616 201.876C119.934 201.147 119.275 200.406 118.634 199.654L117.87 200.302ZM122.005 204.713C122.723 205.405 123.467 206.084 124.242 206.751L124.898 205.994C124.138 205.34 123.407 204.672 122.702 203.993L122.005 204.713ZM126.591 208.662C127.379 209.265 128.196 209.857 129.047 210.436L129.613 209.61C128.778 209.042 127.976 208.461 127.204 207.869L126.591 208.662ZM131.597 212.071C132.442 212.581 133.318 213.08 134.228 213.568L134.705 212.687C133.81 212.208 132.948 211.717 132.118 211.216L131.597 212.071ZM136.929 214.932C137.386 215.149 137.85 215.364 138.323 215.575L138.737 214.664C138.271 214.456 137.813 214.244 137.364 214.03L136.929 214.932ZM138.322 215.575C138.787 215.785 139.251 215.987 139.715 216.182L140.107 215.261C139.651 215.07 139.195 214.871 138.738 214.665L138.322 215.575ZM142.485 217.264C143.44 217.609 144.391 217.923 145.338 218.208L145.631 217.251C144.701 216.972 143.767 216.664 142.83 216.325L142.485 217.264ZM148.213 218.985C149.195 219.222 150.173 219.427 151.145 219.602L151.327 218.619C150.374 218.447 149.415 218.246 148.451 218.014L148.213 218.985ZM154.111 220.047C155.108 220.167 156.1 220.255 157.085 220.315L157.15 219.318C156.184 219.26 155.212 219.173 154.234 219.055L154.111 220.047ZM160.083 220.407C161.089 220.408 162.089 220.379 163.081 220.322L163.027 219.325C162.054 219.381 161.074 219.409 160.088 219.408L160.083 220.407ZM166.063 220.063C167.06 219.948 168.048 219.805 169.028 219.635L168.861 218.651C167.899 218.817 166.929 218.958 165.952 219.071L166.063 220.063ZM171.969 219.045C172.945 218.822 173.912 218.573 174.87 218.301L174.6 217.341C173.658 217.608 172.707 217.852 171.749 218.072L171.969 219.045ZM177.729 217.413C178.676 217.092 179.615 216.75 180.543 216.387L180.181 215.458C179.267 215.815 178.343 216.152 177.411 216.467L177.729 217.413ZM183.307 215.236C184.22 214.831 185.124 214.408 186.016 213.968L185.575 213.073C184.695 213.507 183.804 213.925 182.904 214.323L183.307 215.236ZM188.67 212.592C189.549 212.114 190.417 211.621 191.273 211.114L190.764 210.256C189.918 210.757 189.062 211.244 188.194 211.715L188.67 212.592ZM193.818 209.546C194.66 209.007 195.49 208.455 196.306 207.894L195.74 207.072C194.932 207.628 194.112 208.173 193.28 208.706L193.818 209.546ZM198.739 206.164C199.547 205.571 200.342 204.968 201.123 204.359L200.508 203.573C199.734 204.177 198.947 204.774 198.147 205.361L198.739 206.164ZM203.452 202.488C204.225 201.849 204.984 201.205 205.726 200.558L205.069 199.807C204.333 200.449 203.582 201.087 202.815 201.72L203.452 202.488ZM207.945 198.574C208.688 197.893 209.415 197.21 210.123 196.529L209.429 195.812C208.727 196.488 208.006 197.165 207.269 197.84L207.945 198.574ZM212.253 194.433C212.967 193.713 213.661 192.998 214.333 192.29L213.607 191.605C212.94 192.308 212.252 193.017 211.543 193.731L212.253 194.433ZM216.363 190.105C217.051 189.349 217.712 188.605 218.346 187.878L217.591 187.224C216.962 187.947 216.306 188.685 215.623 189.436L216.363 190.105ZM220.282 185.609C220.95 184.809 221.58 184.038 222.171 183.3L221.389 182.679C220.803 183.411 220.177 184.178 219.514 184.972L220.282 185.609ZM224.003 180.961C224.675 180.085 225.273 179.282 225.794 178.569L224.986 177.983C224.468 178.691 223.875 179.487 223.209 180.357L224.003 180.961ZM227.528 176.13C227.795 175.743 227.998 175.444 228.135 175.241C228.204 175.139 228.254 175.065 228.288 175.015C228.306 174.989 228.316 174.974 228.322 174.967C228.325 174.962 228.322 174.966 228.316 174.973C228.315 174.975 228.303 174.99 228.284 175.009C228.278 175.015 228.251 175.043 228.21 175.071C228.192 175.083 228.143 175.115 228.074 175.136C228.008 175.156 227.838 175.191 227.664 175.082L228.196 174.234C228.021 174.126 227.851 174.161 227.786 174.181C227.716 174.202 227.667 174.234 227.649 174.246C227.607 174.274 227.58 174.302 227.573 174.31C227.553 174.33 227.539 174.347 227.535 174.352C227.524 174.366 227.514 174.379 227.509 174.387C227.496 174.405 227.479 174.428 227.462 174.454C227.426 174.507 227.373 174.586 227.305 174.686C227.169 174.887 226.968 175.183 226.704 175.566L227.528 176.13ZM228.354 174.922C228.628 174.484 228.9 174.047 229.168 173.611L228.314 173.092C228.048 173.525 227.778 173.96 227.506 174.395L228.354 174.922ZM230.737 171.005C231.248 170.14 231.746 169.279 232.231 168.421L231.359 167.933C230.877 168.786 230.382 169.642 229.875 170.502L230.737 171.005ZM233.695 165.774C234.18 164.876 234.652 163.981 235.109 163.091L234.219 162.638C233.764 163.522 233.296 164.411 232.814 165.303L233.695 165.774ZM236.442 160.43C236.892 159.508 237.327 158.589 237.747 157.675L236.837 157.262C236.42 158.169 235.988 159.081 235.542 159.997L236.442 160.43ZM238.975 154.92C239.373 153.997 239.756 153.078 240.124 152.163L239.195 151.794C238.83 152.701 238.45 153.613 238.055 154.529L238.975 154.92ZM241.226 149.318C241.578 148.374 241.912 147.436 242.231 146.502L241.283 146.184C240.968 147.109 240.636 148.039 240.288 148.974L241.226 149.318ZM243.171 143.616C243.471 142.645 243.753 141.681 244.018 140.721L243.053 140.459C242.791 141.409 242.511 142.364 242.214 143.325L243.171 143.616ZM244.774 137.812C245.015 136.82 245.237 135.832 245.44 134.851L244.46 134.653C244.259 135.623 244.039 136.599 243.8 137.581L244.774 137.812ZM245.998 131.915C246.171 130.905 246.325 129.901 246.459 128.903L245.466 128.775C245.334 129.76 245.182 130.752 245.011 131.75L245.998 131.915ZM246.802 125.93C246.9 124.912 246.977 123.901 247.033 122.897L246.034 122.845C245.978 123.836 245.902 124.834 245.805 125.839L246.802 125.93ZM247.142 119.897C247.158 118.879 247.153 117.868 247.127 116.864L246.126 116.895C246.152 117.884 246.157 118.881 246.141 119.885L247.142 119.897ZM246.984 113.86C246.914 112.847 246.822 111.842 246.708 110.845L245.714 110.961C245.825 111.944 245.916 112.934 245.985 113.933L246.984 113.86ZM246.302 107.861C246.143 106.861 245.962 105.87 245.759 104.886L244.778 105.091C244.978 106.06 245.156 107.037 245.313 108.022L246.302 107.861ZM245.084 101.949C244.836 100.971 244.566 100 244.274 99.0381L243.316 99.3305C243.603 100.278 243.869 101.234 244.114 102.198L245.084 101.949ZM243.335 96.1724C243 95.2234 242.644 94.2826 242.267 93.3501L241.338 93.7269C241.709 94.6457 242.06 95.5726 242.39 96.5075L243.335 96.1724ZM241.074 90.577C240.657 89.6644 240.22 88.7601 239.764 87.864L238.871 88.3195C239.321 89.203 239.752 90.0945 240.162 90.9939L241.074 90.577ZM238.335 85.2018C237.843 84.3305 237.333 83.4674 236.803 82.6123L235.951 83.1395C236.473 83.9833 236.977 84.8348 237.461 85.6942L238.335 85.2018ZM235.161 80.0745C234.602 79.2473 234.026 78.4281 233.432 77.6166L232.622 78.2078C233.209 79.0092 233.778 79.8182 234.33 80.6347L235.161 80.0745ZM231.6 75.2104C230.982 74.4288 230.348 73.6548 229.697 72.8883L228.932 73.5355C229.575 74.2932 230.202 75.0583 230.813 75.8306L231.6 75.2104ZM227.7 70.6156C227.031 69.8797 226.346 69.1511 225.647 68.4297L224.926 69.1255C225.618 69.8393 226.295 70.5602 226.957 71.288L227.7 70.6156ZM223.505 66.2883C222.792 65.5974 222.065 64.9135 221.325 64.2364L220.646 64.9739C221.38 65.6445 222.1 66.3218 222.805 67.0059L223.505 66.2883ZM219.061 62.226C218.31 61.5771 217.545 60.9349 216.768 60.2993L216.131 61.0725C216.902 61.7026 217.659 62.3392 218.404 62.9822L219.061 62.226ZM214.404 58.4165C213.619 57.8068 212.821 57.2035 212.011 56.6065L211.414 57.4103C212.217 58.0026 213.008 58.601 213.787 59.2056L214.404 58.4165ZM209.564 54.8457C208.748 54.2726 207.92 53.7056 207.082 53.1447L206.522 53.9746C207.354 54.5315 208.175 55.0943 208.985 55.6631L209.564 54.8457ZM204.566 51.4997C203.722 50.9606 202.868 50.4275 202.004 49.9002L201.479 50.7526C202.337 51.2764 203.185 51.806 204.023 52.3412L204.566 51.4997ZM199.431 48.3644C198.564 47.8581 197.688 47.3575 196.802 46.8625L196.31 47.7341C197.19 48.2262 198.061 48.7237 198.923 49.2268L199.431 48.3644ZM194.178 45.4267C193.296 44.9544 192.406 44.4874 191.507 44.0258L191.045 44.914C191.939 45.373 192.824 45.8373 193.701 46.3069L194.178 45.4267ZM188.82 42.674C187.926 42.2335 187.025 41.7981 186.115 41.3679L185.683 42.2704C186.588 42.6985 187.484 43.1315 188.373 43.5696L188.82 42.674ZM183.37 40.0949C182.467 39.6843 181.556 39.2786 180.638 38.8777L180.233 39.7927C181.147 40.1916 182.053 40.5954 182.952 41.004L183.37 40.0949ZM177.864 37.6897C176.944 37.3035 176.018 36.922 175.085 36.5453L174.706 37.4712C175.635 37.8462 176.557 38.2259 177.472 38.6103L177.864 37.6897ZM172.292 35.4393C171.355 35.0755 170.413 34.7164 169.464 34.362L169.109 35.2973C170.054 35.6503 170.993 36.0079 171.925 36.3701L172.292 35.4393ZM166.656 33.3329C165.714 32.9944 164.766 32.6603 163.813 32.3307L163.482 33.2744C164.431 33.6027 165.375 33.9354 166.313 34.2726L166.656 33.3329ZM160.961 31.363C160.016 31.0484 159.065 30.7381 158.109 30.4321L157.8 31.3831C158.752 31.6879 159.699 31.9971 160.641 32.3105L160.961 31.363ZM155.227 29.5269C154.275 29.2335 153.317 28.9443 152.355 28.6593L152.066 29.6167C153.025 29.9007 153.979 30.1889 154.928 30.4812L155.227 29.5269ZM149.468 27.8204C148.502 27.5451 147.531 27.274 146.556 27.0069L146.287 27.97C147.259 28.2361 148.226 28.5064 149.189 28.7807L149.468 27.8204ZM143.664 26.2305C142.696 25.9757 141.724 25.7249 140.748 25.4781L140.498 26.4462C141.471 26.6922 142.44 26.9422 143.405 27.1962L143.664 26.2305ZM137.822 24.753C136.853 24.5178 135.88 24.2865 134.904 24.0591L134.672 25.0316C135.645 25.2583 136.615 25.4889 137.581 25.7234L137.822 24.753ZM131.964 23.3884C131.473 23.2785 130.98 23.1697 130.486 23.0617L130.268 24.0373C130.76 24.1449 131.251 24.2534 131.742 24.3629L131.964 23.3884ZM130.377 23.5495L130.066 24.5L130.112 24.5147L130.159 24.525L130.377 23.5495ZM138.53 215.12L138.945 214.21L138.944 214.209L138.53 215.12ZM227.93 174.658L227.397 175.506L228.246 176.035L228.778 175.185L227.93 174.658ZM29.6429 121.926L28.7568 122.395L29.6429 121.926ZM69.7738 149.917L70.2581 149.041L69.7738 149.917ZM130.688 22.599C130.198 22.4411 129.707 22.29 129.214 22.1456L128.642 24.0619C129.117 24.2015 129.592 24.3475 130.066 24.5L130.688 22.599ZM126.252 21.3591C125.254 21.1215 124.253 20.9105 123.25 20.7254L122.878 22.6895C123.847 22.8683 124.815 23.0723 125.779 23.3019L126.252 21.3591ZM120.224 20.2463C119.208 20.1117 118.19 20.0028 117.172 19.9192L116.999 21.9097C117.985 21.9907 118.969 22.096 119.952 22.2262L120.224 20.2463ZM114.111 19.7429C113.089 19.7089 112.067 19.6995 111.045 19.714L111.065 21.7111C112.056 21.697 113.047 21.7062 114.036 21.7391L114.111 19.7429ZM107.981 19.8286C106.963 19.8901 105.944 19.9749 104.927 20.0821L105.13 22.0683C106.117 21.9642 107.106 21.8819 108.094 21.8222L107.981 19.8286ZM101.889 20.4694C100.88 20.6202 99.8726 20.7925 98.8679 20.9858L99.2394 22.9469C100.217 22.7588 101.196 22.5912 102.177 22.4447L101.889 20.4694ZM95.8756 21.6248C94.8826 21.8578 93.8926 22.1108 92.9059 22.3832L93.4329 24.3079C94.3947 24.0423 95.3594 23.7958 96.3265 23.569L95.8756 21.6248ZM89.9764 23.252C89.0048 23.56 88.0371 23.8865 87.0738 24.2309L87.7427 26.1107C88.6833 25.7744 89.6279 25.4558 90.5758 25.1553L89.9764 23.252ZM84.2167 25.3096C83.2706 25.6857 82.3293 26.0789 81.3934 26.4885L82.1917 28.3169C83.107 27.9164 84.0271 27.532 84.9517 27.1644L84.2167 25.3096ZM78.616 27.7591C77.698 28.1975 76.7857 28.6514 75.8796 29.1204L76.7962 30.8924C77.6834 30.4332 78.5765 29.9889 79.4748 29.5599L78.616 27.7591ZM73.1895 30.5666C72.3015 31.062 71.42 31.5716 70.5457 32.095L71.571 33.8064C72.428 33.2934 73.2917 32.794 74.1617 32.3087L73.1895 30.5666ZM67.9494 33.7023C67.0929 34.2504 66.2439 34.8115 65.4029 35.3851L66.5287 37.0322C67.3536 36.4696 68.1862 35.9194 69.0259 35.3821L67.9494 33.7023ZM62.9063 37.1413C62.0829 37.7384 61.2679 38.3474 60.4618 38.9678L61.6811 40.5471C62.4722 39.9384 63.2719 39.3408 64.0797 38.755L62.9063 37.1413ZM58.0707 40.8623C57.282 41.5055 56.5025 42.1597 55.7329 42.8241L57.0401 44.3319C57.7955 43.6797 58.5605 43.0377 59.3346 42.4063L58.0707 40.8623ZM53.4533 44.8484C52.701 45.5354 51.9592 46.2323 51.2281 46.9384L52.6184 48.3703C53.3359 47.6772 54.0641 46.9932 54.8025 46.3188L53.4533 44.8484ZM49.0656 49.0866C48.3526 49.8151 47.651 50.5524 46.9614 51.298L48.4309 52.6489C49.1076 51.9172 49.7961 51.1937 50.4959 50.4787L49.0656 49.0866ZM44.9233 53.5655C44.2526 54.3335 43.5945 55.1094 42.9496 55.8926L44.4951 57.1563C45.1276 56.3882 45.7731 55.6272 46.4311 54.8737L44.9233 53.5655ZM41.0449 58.2761C40.4203 59.0819 39.8097 59.8946 39.2135 60.7136L40.8325 61.8826C41.4167 61.0801 42.0152 60.2835 42.6275 59.4935L41.0449 58.2761ZM37.4539 63.2109C36.8801 64.0529 36.3216 64.9006 35.7791 65.7537L37.4691 66.8184C38 65.9836 38.5467 65.1536 39.1087 64.329L37.4539 63.2109ZM34.1794 68.3629C33.661 69.2408 33.1597 70.1236 32.676 71.0105L34.4344 71.9591C34.907 71.0926 35.3971 70.2296 35.904 69.371L34.1794 68.3629ZM31.2579 73.7244C30.8006 74.6394 30.3624 75.558 29.9439 76.4796L31.7677 77.2973C32.1757 76.3987 32.6032 75.5026 33.0495 74.6095L31.2579 73.7244ZM28.7347 79.2858C28.3471 80.2365 27.981 81.1896 27.6369 82.1445L29.5213 82.813C29.8558 81.8846 30.2121 80.9572 30.5895 80.0315L28.7347 79.2858ZM26.6657 85.0325C26.3586 86.0165 26.0756 87.0015 25.8174 87.9866L27.7549 88.4842C28.005 87.5295 28.2795 86.5741 28.5777 85.6189L26.6657 85.0325ZM25.1135 90.964C24.9019 91.9693 24.7169 92.9739 24.5595 93.977L26.5381 94.2779C26.69 93.3096 26.8687 92.339 27.0734 91.3667L25.1135 90.964ZM24.1662 97.0243C24.0633 98.0456 23.99 99.0645 23.9472 100.08L25.9481 100.156C25.9892 99.1798 26.0597 98.1996 26.1589 97.2159L24.1662 97.0243ZM23.9121 103.156C23.9325 104.184 23.9858 105.208 24.0727 106.227L26.0682 106.049C25.985 105.075 25.934 104.094 25.9144 103.108L23.9121 103.156ZM24.438 109.278C24.5953 110.294 24.7879 111.303 25.0169 112.304L26.9695 111.852C26.7512 110.898 26.5674 109.936 26.4173 108.966L24.438 109.278ZM25.8124 115.278C26.114 116.258 26.4525 117.23 26.829 118.191L28.6949 117.458C28.3366 116.543 28.0144 115.618 27.7273 114.685L25.8124 115.278ZM28.0576 121.01C28.2812 121.475 28.5142 121.936 28.7568 122.395L30.529 121.457C30.2981 121.021 30.0764 120.582 29.8637 120.14L28.0576 121.01ZM28.7568 122.395C29.0082 122.87 29.2696 123.336 29.5404 123.793L31.2652 122.77C31.0107 122.341 30.7652 121.904 30.529 121.457L28.7568 122.395ZM31.3052 126.465C31.9385 127.331 32.608 128.16 33.3097 128.957L34.8163 127.635C34.1528 126.882 33.5213 126.099 32.925 125.284L31.3052 126.465ZM35.5184 131.259C36.283 131.994 37.076 132.698 37.8937 133.376L39.1776 131.838C38.3948 131.189 37.6382 130.517 36.911 129.818L35.5184 131.259ZM40.4001 135.32C41.2497 135.939 42.1197 136.535 43.0066 137.112L44.1057 135.438C43.2453 134.878 42.4041 134.302 41.5852 133.705L40.4001 135.32ZM45.6876 138.773C46.5872 139.305 47.4999 139.822 48.4224 140.327L49.3915 138.575C48.4859 138.08 47.5926 137.574 46.7146 137.054L45.6876 138.773ZM51.1943 141.797C52.1203 142.274 53.0532 142.743 53.9895 143.205L54.8845 141.415C53.9559 140.956 53.0334 140.493 52.1195 140.022L51.1943 141.797ZM56.7963 144.574C57.7321 145.025 58.67 145.475 59.6042 145.923L60.4789 144.123C59.5427 143.673 58.608 143.226 57.6746 142.775L56.7963 144.574ZM62.4031 147.274C63.3359 147.728 64.2632 148.185 65.1825 148.647L66.09 146.863C65.161 146.395 64.2256 145.935 63.2874 145.478L62.4031 147.274ZM67.931 150.063C68.3869 150.304 68.8399 150.547 69.2895 150.793L70.2581 149.041C69.7999 148.791 69.3389 148.543 68.8756 148.298L67.931 150.063ZM69.2895 150.793C69.7372 151.038 70.1794 151.283 70.6162 151.529L71.6052 149.788C71.1616 149.539 70.7126 149.29 70.2581 149.041L69.2895 150.793ZM73.1754 153.008C74.0507 153.528 74.9032 154.05 75.7338 154.573L76.8079 152.883C75.9627 152.351 75.0957 151.82 74.2057 151.291L73.1754 153.008ZM78.234 156.195C79.0715 156.754 79.8852 157.315 80.6764 157.877L81.8426 156.248C81.0359 155.675 80.2066 155.104 79.3535 154.534L78.234 156.195ZM83.0636 159.626C83.8719 160.237 84.6552 160.849 85.4149 161.462L86.6783 159.907C85.9024 159.281 85.1026 158.656 84.2777 158.033L83.0636 159.626ZM87.6995 163.367C88.463 164.025 89.2013 164.684 89.9163 165.343L91.2786 163.873C90.5476 163.199 89.7928 162.526 89.0125 161.854L87.6995 163.367ZM92.0639 167.389C92.78 168.095 93.4717 168.801 94.141 169.507L95.5985 168.131C94.9142 167.41 94.207 166.688 93.4747 165.966L92.0639 167.389ZM96.1473 171.693C96.8145 172.444 97.459 173.194 98.0836 173.943L99.6257 172.663C98.9884 171.898 98.3304 171.132 97.6489 170.365L96.1473 171.693ZM99.9526 176.254C100.573 177.043 101.174 177.831 101.76 178.616L103.369 177.421C102.774 176.623 102.163 175.821 101.531 175.017L99.9526 176.254ZM103.513 181.024C104.097 181.842 104.666 182.657 105.225 183.468L106.877 182.332C106.313 181.514 105.738 180.691 105.147 179.863L103.513 181.024ZM106.908 185.939C107.47 186.773 108.026 187.601 108.579 188.425L110.245 187.309C109.692 186.486 109.135 185.655 108.57 184.819L106.908 185.939ZM110.26 190.917C110.827 191.751 111.396 192.579 111.971 193.4L113.614 192.252C113.046 191.441 112.483 190.621 111.92 189.792L110.26 190.917ZM113.732 195.857C114.33 196.671 114.94 197.476 115.564 198.272L117.143 197.036C116.533 196.259 115.936 195.471 115.349 194.672L113.732 195.857ZM117.488 200.626C118.142 201.395 118.817 202.153 119.516 202.9L120.983 201.534C120.306 200.812 119.652 200.076 119.016 199.329L117.488 200.626ZM121.656 205.073C122.381 205.771 123.132 206.457 123.914 207.13L125.226 205.616C124.473 204.967 123.749 204.306 123.05 203.633L121.656 205.073ZM126.285 209.058C127.08 209.667 127.905 210.264 128.763 210.848L129.897 209.197C129.069 208.634 128.275 208.059 127.51 207.472L126.285 209.058ZM131.336 212.498C132.189 213.013 133.073 213.516 133.99 214.008L134.943 212.247C134.056 211.772 133.202 211.285 132.378 210.788L131.336 212.498ZM136.712 215.383C137.172 215.601 137.64 215.818 138.116 216.031L138.944 214.209C138.481 214.002 138.027 213.792 137.581 213.579L136.712 215.383ZM138.114 216.03C138.583 216.242 139.051 216.446 139.519 216.642L140.303 214.801C139.852 214.611 139.399 214.414 138.945 214.21L138.114 216.03ZM142.313 217.734C143.276 218.082 144.236 218.399 145.192 218.686L145.777 216.773C144.856 216.497 143.931 216.191 143.002 215.856L142.313 217.734ZM148.093 219.471C149.085 219.709 150.072 219.916 151.054 220.093L151.418 218.128C150.474 217.958 149.525 217.759 148.571 217.529L148.093 219.471ZM154.049 220.543C155.056 220.664 156.057 220.753 157.053 220.813L157.182 218.82C156.226 218.762 155.264 218.676 154.296 218.56L154.049 220.543ZM160.08 220.906C161.097 220.907 162.106 220.878 163.108 220.82L163 218.826C162.037 218.882 161.067 218.91 160.091 218.909L160.08 220.906ZM166.119 220.559C167.125 220.443 168.122 220.298 169.112 220.127L168.778 218.159C167.825 218.324 166.864 218.463 165.897 218.575L166.119 220.559ZM172.079 219.532C173.063 219.306 174.039 219.056 175.005 218.781L174.465 216.861C173.531 217.126 172.589 217.368 171.639 217.585L172.079 219.532ZM177.887 217.886C178.843 217.563 179.789 217.218 180.724 216.852L180 214.993C179.093 215.347 178.177 215.682 177.252 215.994L177.887 217.886ZM183.508 215.692C184.429 215.285 185.338 214.858 186.237 214.415L185.355 212.625C184.48 213.057 183.596 213.471 182.702 213.867L183.508 215.692ZM188.908 213.03C189.793 212.55 190.666 212.054 191.527 211.543L190.51 209.827C189.669 210.325 188.818 210.809 187.956 211.277L188.908 213.03ZM194.088 209.965C194.934 209.423 195.768 208.869 196.59 208.304L195.457 206.661C194.654 207.214 193.838 207.756 193.011 208.286L194.088 209.965ZM199.034 206.566C199.847 205.969 200.646 205.364 201.431 204.751L200.2 203.181C199.431 203.781 198.648 204.375 197.851 204.959L199.034 206.566ZM203.771 202.872C204.547 202.23 205.309 201.583 206.055 200.933L204.741 199.432C204.008 200.07 203.26 200.706 202.497 201.336L203.771 202.872ZM208.283 198.941C209.03 198.257 209.759 197.572 210.47 196.888L209.083 195.453C208.383 196.126 207.665 196.8 206.931 197.473L208.283 198.941ZM212.608 194.783C213.325 194.061 214.021 193.343 214.695 192.633L213.244 191.263C212.579 191.963 211.894 192.67 211.188 193.381L212.608 194.783ZM216.733 190.44C217.424 189.681 218.087 188.934 218.723 188.204L217.214 186.898C216.587 187.617 215.933 188.353 215.252 189.101L216.733 190.44ZM220.666 185.928C221.337 185.125 221.969 184.351 222.561 183.611L220.998 182.369C220.414 183.098 219.791 183.862 219.13 184.653L220.666 185.928ZM224.401 181.263C225.074 180.384 225.675 179.578 226.198 178.862L224.581 177.69C224.066 178.395 223.475 179.188 222.811 180.055L224.401 181.263ZM227.94 176.412C228.208 176.024 228.412 175.722 228.55 175.519C228.619 175.416 228.668 175.343 228.701 175.295C228.709 175.283 228.716 175.274 228.721 175.267C228.723 175.264 228.725 175.261 228.726 175.259C228.728 175.257 228.728 175.256 228.728 175.256C228.728 175.257 228.728 175.257 228.727 175.258C228.726 175.259 228.725 175.26 228.724 175.262C228.722 175.265 228.716 175.273 228.707 175.284C228.703 175.289 228.678 175.321 228.64 175.359C228.627 175.372 228.573 175.427 228.491 175.483C228.454 175.508 228.357 175.571 228.217 175.614C228.087 175.653 227.747 175.724 227.397 175.506L228.463 173.811C228.113 173.593 227.773 173.663 227.642 173.703C227.502 173.745 227.405 173.809 227.368 173.834C227.285 173.89 227.23 173.946 227.217 173.96C227.178 173.999 227.15 174.034 227.144 174.042C227.125 174.066 227.109 174.088 227.102 174.097C227.085 174.12 227.066 174.148 227.049 174.174C227.011 174.228 226.957 174.309 226.89 174.408C226.755 174.608 226.555 174.903 226.292 175.284L227.94 176.412ZM228.778 175.185C229.054 174.746 229.325 174.308 229.594 173.871L227.888 172.832C227.622 173.264 227.353 173.698 227.081 174.132L228.778 175.185ZM231.168 171.257C231.68 170.39 232.18 169.526 232.667 168.665L230.923 167.689C230.443 168.539 229.949 169.392 229.443 170.25L231.168 171.257ZM234.135 166.01C234.622 165.108 235.095 164.211 235.555 163.317L233.773 162.412C233.32 163.293 232.854 164.178 232.373 165.068L234.135 166.01ZM236.892 160.647C237.343 159.721 237.78 158.8 238.202 157.882L236.382 157.056C235.967 157.959 235.536 158.867 235.092 159.78L236.892 160.647ZM239.434 155.116C239.834 154.189 240.219 153.266 240.589 152.347L238.731 151.61C238.367 152.513 237.989 153.421 237.595 154.333L239.434 155.116ZM241.696 149.49C242.048 148.542 242.385 147.599 242.705 146.661L240.81 146.024C240.495 146.945 240.165 147.871 239.819 148.802L241.696 149.49ZM243.649 143.761C243.95 142.786 244.234 141.816 244.501 140.852L242.571 140.328C242.309 141.273 242.031 142.223 241.735 143.179L243.649 143.761ZM245.26 137.928C245.503 136.93 245.726 135.937 245.931 134.95L243.97 134.553C243.769 135.518 243.551 136.489 243.314 137.466L245.26 137.928ZM246.491 131.997C246.666 130.981 246.82 129.971 246.955 128.968L244.97 128.711C244.838 129.69 244.688 130.675 244.517 131.668L246.491 131.997ZM247.3 125.976C247.399 124.951 247.476 123.934 247.533 122.923L245.534 122.819C245.478 123.804 245.403 124.795 245.306 125.793L247.3 125.976ZM247.643 119.903C247.659 118.878 247.654 117.86 247.627 116.849L245.625 116.91C245.651 117.892 245.656 118.882 245.64 119.879L247.643 119.903ZM247.483 113.823C247.413 112.803 247.32 111.791 247.206 110.786L245.216 111.02C245.327 111.995 245.417 112.978 245.485 113.969L247.483 113.823ZM246.796 107.781C246.636 106.774 246.454 105.775 246.25 104.783L244.288 105.193C244.486 106.155 244.663 107.124 244.818 108.102L246.796 107.781ZM245.57 101.825C245.32 100.839 245.047 99.8612 244.754 98.8919L242.836 99.4767C243.121 100.417 243.385 101.366 243.628 102.322L245.57 101.825ZM243.807 96.0049C243.47 95.0488 243.111 94.1011 242.731 93.1618L240.874 93.9152C241.242 94.8272 241.591 95.7472 241.918 96.6751L243.807 96.0049ZM241.53 90.3685C241.11 89.4494 240.67 88.5387 240.21 87.6363L238.424 88.5473C238.871 89.4245 239.299 90.3095 239.706 91.2024L241.53 90.3685ZM238.771 84.9556C238.277 84.0784 237.762 83.2094 237.23 82.3487L235.524 83.4031C236.043 84.2412 236.544 85.087 237.025 85.9403L238.771 84.9556ZM235.577 79.7943C235.015 78.9619 234.434 78.1375 233.836 77.3211L232.217 78.5034C232.801 79.2998 233.366 80.1036 233.914 80.9148L235.577 79.7943ZM231.994 74.9003C231.373 74.114 230.734 73.3355 230.08 72.5647L228.549 73.8591C229.189 74.6125 229.812 75.373 230.419 76.1407L231.994 74.9003ZM228.071 70.2793C227.399 69.5394 226.711 68.807 226.008 68.0819L224.565 69.4733C225.254 70.1834 225.927 70.9004 226.585 71.6242L228.071 70.2793ZM223.855 65.9296C223.138 65.2352 222.408 64.5479 221.664 63.8677L220.307 65.3426C221.037 66.01 221.754 66.684 222.456 67.3646L223.855 65.9296ZM219.39 61.8479C218.635 61.1961 217.867 60.5511 217.087 59.9127L215.813 61.4591C216.58 62.0865 217.334 62.7202 218.075 63.3602L219.39 61.8479ZM214.713 58.0219C213.924 57.4097 213.123 56.8039 212.31 56.2046L211.115 57.8122C211.915 58.4021 212.703 58.9981 213.479 59.6002L214.713 58.0219ZM209.853 54.437C209.034 53.8617 208.204 53.2926 207.362 52.7297L206.242 54.3896C207.071 54.9445 207.889 55.5052 208.696 56.0718L209.853 54.437ZM204.837 51.0789C203.991 50.538 203.134 50.003 202.267 49.474L201.216 51.1788C202.072 51.7009 202.917 52.2286 203.752 52.762L204.837 51.0789ZM199.686 47.9333C198.816 47.4254 197.937 46.9232 197.048 46.4266L196.064 48.17C196.941 48.6605 197.81 49.1565 198.668 49.6579L199.686 47.9333ZM194.416 44.9866C193.532 44.5129 192.639 44.0446 191.738 43.5817L190.815 45.3581C191.706 45.8158 192.589 46.2788 193.463 46.747L194.416 44.9866ZM189.043 42.2261C188.147 41.7845 187.243 41.348 186.331 40.9166L185.467 42.7217C186.369 43.1486 187.263 43.5805 188.15 44.0175L189.043 42.2261ZM183.579 39.6404C182.674 39.2288 181.761 38.822 180.841 38.4202L180.031 40.2502C180.942 40.6482 181.846 41.051 182.743 41.4585L183.579 39.6404ZM178.06 37.2293C177.138 36.8422 176.21 36.4599 175.274 36.0824L174.516 37.9341C175.443 38.3083 176.363 38.6871 177.276 39.0706L178.06 37.2293ZM172.475 34.9739C171.537 34.6094 170.592 34.2495 169.641 33.8943L168.932 35.765C169.875 36.1172 170.811 36.4741 171.742 36.8355L172.475 34.9739ZM166.827 32.8631C165.883 32.5239 164.934 32.1891 163.979 31.8589L163.316 33.7462C164.263 34.0738 165.205 34.4059 166.141 34.7424L166.827 32.8631ZM161.121 30.8893C160.174 30.5741 159.222 30.2632 158.264 29.9566L157.645 31.8585C158.595 32.1628 159.54 32.4714 160.48 32.7842L161.121 30.8893ZM155.377 29.0498C154.422 28.7559 153.463 28.4662 152.5 28.1806L151.922 30.0954C152.879 30.3789 153.831 30.6666 154.779 30.9584L155.377 29.0498ZM149.607 27.3402C148.639 27.0645 147.667 26.7929 146.69 26.5254L146.153 28.4516C147.123 28.7172 148.089 28.987 149.05 29.2608L149.607 27.3402ZM143.794 25.7477C142.825 25.4925 141.851 25.2413 140.873 24.9941L140.373 26.9303C141.345 27.1759 142.312 27.4255 143.276 27.679L143.794 25.7477ZM137.942 24.2678C136.971 24.0322 135.997 23.8006 135.02 23.5728L134.556 25.5178C135.528 25.7442 136.496 25.9745 137.461 26.2085L137.942 24.2678ZM132.076 22.9011C131.583 22.7911 131.09 22.6821 130.596 22.574L130.159 24.525C130.65 24.6325 131.141 24.7409 131.63 24.8502L132.076 22.9011Z" fill="white" mask="url(#path-2-inside-1)"/>
</g>
<path d="M91.0316 9.64014C70.33 19.9909 79.0005 56.1516 100.778 56.1516C122.555 56.1516 142.046 33.6352 132.3 19.386C122.555 5.13687 104.541 2.91884 91.0316 9.64014Z" fill="#FFE048"/>
<path d="M109.852 32.6271L104.139 26.7795L105.685 25.2336C106.895 24.0238 106.895 22.0746 105.685 20.8648L102.795 17.9746C101.585 16.7648 99.6361 16.7648 98.4262 17.9746L97.5524 18.8484C94.9311 21.4697 94.9311 25.7713 97.5524 28.3927L108.239 39.2812C110.861 41.9025 115.162 41.9025 117.784 39.2812L118.657 38.4074C119.867 37.1976 119.867 35.2484 118.657 34.0386L115.767 31.1484C114.557 29.9386 112.608 29.9386 111.398 31.1484L109.852 32.6271Z" fill="white"/>
<path d="M58.1505 43.6847C46.386 46.7934 46.9411 66.3444 58.117 68.6751C69.2929 71.0058 81.7866 61.5128 78.3012 53.1824C74.8736 44.8176 65.8089 41.6964 58.1505 43.6847Z" fill="#EE77A2"/>
<path d="M63.8457 56.7385L64.1446 58.1374C64.2877 58.7618 63.9143 59.2986 63.3188 59.3367C62.7581 59.4329 62.1591 59.079 62.1079 58.4789L61.6752 56.2137C61.6752 56.2137 61.6752 56.2137 61.6973 56.1218C61.6973 56.1218 61.6973 56.1218 61.6624 56.0637C61.5542 55.4974 61.9846 54.9268 62.4883 54.8644C63.8154 54.6286 64.6983 53.3955 64.4342 52.0547C64.1702 50.714 62.8674 49.8319 61.5402 50.0677C60.6818 50.183 59.9886 50.8307 59.7548 51.5999C59.5652 52.1853 58.9603 52.4654 58.3741 52.2615C57.8448 52.0238 57.4959 51.4428 57.7203 50.9155C58.2228 49.4352 59.4732 48.2993 61.1552 48.0106C63.6037 47.5824 66.0476 49.2061 66.5629 51.7375C66.8339 53.8622 65.7521 55.9226 63.8457 56.7385ZM64.7588 61.4771L64.8193 61.8352C64.9624 62.4597 64.589 62.9964 63.9935 63.0345C63.4328 63.1308 62.8338 62.7769 62.7826 62.1768L62.7221 61.8186C62.6139 61.2523 63.0443 60.6817 63.5479 60.6193C64.0737 60.465 64.6157 60.8527 64.7588 61.4771Z" fill="white"/>
<path d="M188.422 156.432C177.066 169.148 192.889 191.574 207.819 185.638C222.688 179.674 229.913 158.967 219.347 151.828C208.781 144.69 195.86 148.141 188.422 156.432Z" fill="#98D3FD"/>
<path d="M214.184 174.767L217.219 162.747L209.854 167.409L214.184 174.767Z" fill="white"/>
<path d="M206.959 169.106C206.13 169.637 205.2 169.747 204.323 169.58C204.111 169.56 203.868 169.452 203.685 169.37C203.076 169.098 202.492 168.611 202.176 168.019L201.171 166.369L193.245 170.71L213.501 175.486C213.562 175.513 213.652 175.478 213.713 175.505L209.154 167.835L206.959 169.106Z" fill="white"/>
<path d="M195.91 157.559L192.733 169.892L200.648 165.621L195.91 157.559Z" fill="white"/>
<path d="M206.568 168.54L216.48 162.25L196.763 157.639L202.699 167.711C203.423 169.009 205.236 169.369 206.568 168.54Z" fill="white"/>
<path d="M189.966 88.8194H78.258V165.98H189.966V88.8194Z" fill="#52BBC2"/>
<path d="M189.966 85.9964H78.258V163.157H189.966V85.9964Z" fill="#76D5DC"/>
<g opacity="0.5">
<g opacity="0.5">
<path opacity="0.5" d="M85.9222 112.008V145.547C85.9222 146.69 85.0484 147.563 83.9058 147.563C82.7632 147.563 81.8894 146.69 81.8894 145.547V112.008C81.8894 110.865 82.7632 109.991 83.9058 109.991C85.0484 109.991 85.9222 110.865 85.9222 112.008Z" fill="#76D5DC"/>
</g>
</g>
<g opacity="0.5">
<g opacity="0.5">
<path opacity="0.5" d="M85.9222 101.724V105.152C85.9222 106.294 85.0484 107.168 83.9058 107.168C82.7632 107.168 81.8894 106.294 81.8894 105.152V101.724C81.8894 100.581 82.7632 99.7075 83.9058 99.7075C85.0484 99.7075 85.9222 100.648 85.9222 101.724Z" fill="#76D5DC"/>
</g>
</g>
<path d="M123.358 125.921L81.4842 163.157H78.258V161.14L120.938 123.232L123.358 125.921Z" fill="#52BBC2"/>
<path d="M189.966 161.409V163.157H186.404L144.53 125.921L146.95 123.232L189.966 161.409Z" fill="#52BBC2"/>
<path d="M189.899 85.9964L172.961 101.052L137.742 132.373C135.658 134.255 132.499 134.255 130.348 132.373L95.1288 101.052L78.1911 85.9964H189.899V85.9964Z" fill="#52BBC2"/>
<path d="M173.029 73.6965V101.052L162.275 110.596L158.578 113.89L152.865 118.998L149.168 122.291L143.455 127.4L139.759 130.693L137.877 132.373C135.793 134.255 132.634 134.255 130.483 132.373L128.601 130.693L124.905 127.4L119.191 122.291L115.495 118.998L109.782 113.89L106.085 110.596L95.3308 101.052V73.6965C95.3308 71.2096 97.3472 69.2604 99.7669 69.2604H168.66C171.013 69.1932 173.029 71.2096 173.029 73.6965Z" fill="#E3F2EF"/>
<path d="M123.358 79.8802H104.538C103.731 79.8802 103.059 79.208 103.059 78.4015V78.0654C103.059 77.2589 103.731 76.5867 104.538 76.5867H123.358C124.164 76.5867 124.836 77.2589 124.836 78.0654V78.4015C124.836 79.208 124.164 79.8802 123.358 79.8802Z" fill="#B3DCD4"/>
<path d="M166.039 88.685H104.673C103.732 88.685 103.06 87.9456 103.06 87.0719C103.06 86.1309 103.799 85.4587 104.673 85.4587H166.039C166.98 85.4587 167.652 86.1981 167.652 87.0719C167.652 87.9456 166.912 88.685 166.039 88.685Z" fill="#B3DCD4"/>
<path d="M166.038 97.0863H104.672C103.731 97.0863 103.059 96.347 103.059 95.4732C103.059 94.5322 103.799 93.8601 104.672 93.8601H166.038C166.979 93.8601 167.651 94.5994 167.651 95.4732C167.651 96.347 166.912 97.0863 166.038 97.0863Z" fill="#B3DCD4"/>
<path d="M166.038 105.488H104.672C103.731 105.488 103.059 104.749 103.059 103.875C103.059 102.934 103.799 102.262 104.672 102.262H166.038C166.979 102.262 167.651 103.001 167.651 103.875C167.651 104.749 166.912 105.488 166.038 105.488Z" fill="#B3DCD4"/>
<path d="M162.273 110.596L158.577 113.89H109.578L105.882 110.596H162.273Z" fill="#B3DCD4"/>
<path d="M152.866 118.998L149.102 122.291H119.058L115.361 118.998H152.866Z" fill="#B3DCD4"/>
<path d="M143.387 127.4L139.691 130.693H128.533L124.769 127.4H143.387Z" fill="#B3DCD4"/>
<path d="M228.823 110.288C226.538 110.288 224.723 108.473 224.723 106.188C224.723 103.903 226.538 102.088 228.823 102.088C231.108 102.088 232.923 103.903 232.923 106.188C232.923 108.473 231.108 110.288 228.823 110.288ZM228.823 103.432C227.277 103.432 226 104.709 226 106.255C226 107.801 227.277 109.078 228.823 109.078C230.369 109.078 231.646 107.801 231.646 106.255C231.646 104.642 230.369 103.432 228.823 103.432Z" fill="#10714E"/>
<path d="M249.593 114.456C247.307 114.456 245.493 112.641 245.493 110.356C245.493 108.07 247.307 106.256 249.593 106.256C251.878 106.256 253.693 108.07 253.693 110.356C253.693 112.641 251.878 114.456 249.593 114.456ZM249.593 107.533C248.047 107.533 246.77 108.81 246.77 110.356C246.77 111.901 248.047 113.178 249.593 113.178C251.139 113.178 252.416 111.901 252.416 110.356C252.416 108.81 251.139 107.533 249.593 107.533Z" fill="#10714E"/>
<path d="M28.8483 137.006C27.7437 139.038 25.2854 139.808 23.2943 138.745C21.3032 137.681 20.5992 135.223 21.7038 133.191C22.8085 131.158 25.2668 130.388 27.2579 131.452C29.1904 132.484 29.9529 134.973 28.8483 137.006ZM22.8165 133.785C22.0693 135.16 22.5647 136.89 23.9116 137.609C25.2585 138.328 26.9884 137.786 27.7357 136.412C28.4829 135.037 27.9875 133.307 26.6406 132.587C25.2937 131.868 23.5638 132.41 22.8165 133.785Z" fill="#10714E"/>
<path d="M42.3607 120.69C41.252 122.727 38.7937 123.503 36.8066 122.444C34.8195 121.384 34.122 118.926 35.2306 116.89C36.3392 114.853 38.7976 114.077 40.7846 115.136C42.7133 116.165 43.4693 118.654 42.3607 120.69ZM36.341 117.481C35.591 118.859 36.0819 120.589 37.4261 121.306C38.7703 122.022 40.5003 121.476 41.2502 120.099C42.0002 118.721 41.5093 116.991 40.1651 116.274C38.8209 115.558 37.091 116.104 36.341 117.481Z" fill="#10714E" fill-opacity="0.84"/>
<path d="M21.4482 122.313C20.3396 124.35 17.8813 125.126 15.8942 124.066C13.9071 123.007 13.2095 120.549 14.3182 118.512C15.4268 116.476 17.8851 115.7 19.8722 116.759C21.8008 117.787 22.5569 120.277 21.4482 122.313ZM15.4286 119.104C14.6786 120.482 15.1695 122.212 16.5137 122.928C17.8579 123.645 19.5879 123.099 20.3378 121.721C21.0878 120.344 20.5969 118.614 19.2527 117.897C17.9085 117.181 16.1785 117.727 15.4286 119.104Z" fill="#10714E" fill-opacity="0.84"/>
<path opacity="0.75" d="M56.4538 180.112C67.3184 178.517 73.7747 158.888 61.3425 158.009C50.8875 157.836 50.8017 151.203 44.9584 150.631C37.1983 149.851 32.8966 158.881 33.0768 162.559C33.726 175.809 49.7259 182.359 56.4538 180.112Z" fill="url(#paint1_linear)"/>
<path d="M236.807 79.327C230.649 78.0424 223.306 87.3268 229.819 90.2511C235.409 92.4061 234.147 95.9906 237.177 97.4506C241.197 99.4 245.291 95.3917 245.92 93.3776C248.183 86.1232 240.869 79.4447 236.807 79.327Z" fill="url(#paint2_linear)"/>
<path d="M208.844 65.0637L232.423 36.0997L187.914 52.9384L208.844 65.0637Z" fill="#E3F2EF"/>
<path d="M196.701 57.9318L198.573 67.8177L199.299 59.4516L232.444 36.1333L196.701 57.9318Z" fill="#9BDACD"/>
<path d="M198.454 67.5114L204.271 62.1368L199.171 59.1813L198.454 67.5114Z" fill="#7FC6B7"/>
<defs>
<linearGradient id="paint0_linear" x1="51.4206" y1="60.646" x2="88.3997" y2="171.904" gradientUnits="userSpaceOnUse">
<stop stop-color="#E1FFFF" stop-opacity="0.3"/>
<stop offset="1" stop-color="#C9F8FF"/>
</linearGradient>
<linearGradient id="paint1_linear" x1="46.5702" y1="182.822" x2="38.6734" y2="148.495" gradientUnits="userSpaceOnUse">
<stop stop-color="#1FF5F5" stop-opacity="0.61"/>
<stop offset="1" stop-color="#76D5DC"/>
</linearGradient>
<linearGradient id="paint2_linear" x1="242.658" y1="79.8183" x2="240.136" y2="99.8387" gradientUnits="userSpaceOnUse">
<stop stop-color="#1FF5F5" stop-opacity="0.61"/>
<stop offset="1" stop-color="#76D5DC"/>
</linearGradient>
</defs>
</svg>
