<svg width="267" height="234" viewBox="0 0 267 234" fill="none" xmlns="http://www.w3.org/2000/svg">
<path opacity="0.21" d="M83.9295 36.14C77.9643 44.6714 84.9595 58.5034 76.1065 64.9146C67.4872 71.1617 56.8964 60.9202 48.7764 66.2965C36.7259 74.2726 38.9249 110.758 56.5426 133.431C61.838 140.252 66.2676 142.902 68.2266 150.613C72.4351 167.171 57.6421 177.022 60.4541 185.212C66.7984 203.657 164.302 219.13 203.424 163.713C221.698 137.829 224.428 100.46 208.106 72.0766C178.609 20.781 97.3197 17.0012 83.9295 36.14Z" fill="url(#paint0_linear)"/>
<path opacity="0.41" d="M72.4451 16.661C73.0687 15.9301 73.778 15.2295 74.5681 14.5605L74.8912 14.9421C75.6064 14.3365 76.3912 13.7557 77.2425 13.2008L76.9694 12.7819C77.7756 12.2563 78.6382 11.7549 79.554 11.2782L79.7849 11.7217C80.6306 11.2815 81.5235 10.8622 82.4612 10.4643L82.2659 10.004C83.1629 9.62348 84.0991 9.26287 85.0724 8.92266L85.2374 9.39466C86.1459 9.07711 87.0877 8.77728 88.0609 8.49563L87.9219 8.01534C88.8538 7.74564 89.8137 7.49264 90.8 7.25669L90.9163 7.74297C91.8621 7.5167 92.8326 7.30612 93.8266 7.11157L93.7305 6.62088C94.6975 6.4316 95.6861 6.25746 96.695 6.09874L96.7727 6.59266C97.7296 6.4421 98.7052 6.30545 99.6982 6.18297L99.637 5.68673C100.616 5.56601 101.611 5.459 102.622 5.36594L102.668 5.86383C103.644 5.774 104.634 5.6972 105.638 5.63366L105.607 5.13466C106.588 5.07259 107.582 5.02311 108.587 4.98642L108.606 5.48608C109.595 5.45001 110.595 5.42634 111.607 5.41526L111.601 4.91529C112.582 4.90455 113.572 4.9056 114.572 4.91859L114.566 5.41855C115.555 5.4314 116.553 5.45599 117.56 5.49248L117.578 4.9928C118.563 5.02851 119.556 5.07556 120.556 5.13411L120.527 5.63326C121.514 5.69102 122.508 5.76001 123.508 5.84038L123.548 5.34199C124.534 5.42122 125.527 5.51148 126.525 5.61288L126.474 6.11032C127.457 6.21025 128.446 6.32104 129.44 6.44283L129.501 5.94655C130.485 6.06721 131.474 6.19864 132.467 6.34095L132.396 6.83589C133.375 6.97617 134.358 7.12706 135.344 7.28868L135.425 6.79527C136.405 6.95589 137.388 7.12708 138.374 7.30896L138.283 7.80067C139.256 7.98017 140.232 8.17011 141.21 8.37062L141.311 7.88081C142.284 8.08044 143.26 8.29051 144.237 8.51112L144.127 8.99884C145.093 9.21695 146.061 9.4454 147.029 9.68429L147.149 9.19884C148.115 9.43696 149.081 9.68544 150.048 9.94436L149.919 10.4273C150.876 10.6838 151.834 10.9506 152.792 11.2277L152.931 10.7474C153.887 11.0239 154.842 11.3106 155.797 11.6078L155.648 12.0852C156.595 12.3801 157.542 12.6852 158.488 13.0007L158.646 12.5264C159.59 12.8413 160.533 13.1666 161.474 13.5022L161.306 13.9731C162.241 14.3066 163.174 14.6505 164.106 15.0047L164.284 14.5373C165.214 14.8911 166.142 15.2551 167.067 15.6297L166.88 16.0931C167.801 16.4657 168.719 16.8487 169.634 17.2421L169.832 16.7827C170.746 17.1758 171.658 17.5792 172.566 17.9932L172.358 18.4482C173.262 18.8603 174.163 19.2829 175.06 19.7161L175.277 19.2659C176.174 19.6989 177.066 20.1424 177.954 20.5966L177.727 21.0418C178.612 21.4941 179.492 21.957 180.368 22.4306L180.605 21.9908C181.481 22.4644 182.352 22.9487 183.218 23.4437L182.97 23.8778C183.833 24.3708 184.69 24.8745 185.541 25.3889L185.8 24.961C186.652 25.476 187.499 26.0018 188.34 26.5385L188.071 26.96C188.908 27.4942 189.739 28.0393 190.564 28.5951L190.843 28.1806C191.669 28.7376 192.489 29.3054 193.302 29.8843L193.012 30.2915C193.82 30.8674 194.622 31.4542 195.416 32.052L195.716 31.6526C196.512 32.2518 197.301 32.862 198.082 33.4834L197.771 33.8746C198.547 34.4924 199.316 35.1211 200.076 35.761L200.398 35.3784C201.16 36.02 201.915 36.6727 202.66 37.3366L202.328 37.71C203.068 38.3694 203.8 39.0398 204.523 39.7214L204.866 39.3577C205.591 40.0414 206.307 40.7364 207.013 41.4427L206.66 41.7963C207.36 42.4965 208.051 43.2078 208.732 43.9304L209.096 43.5874C209.78 44.3129 210.454 45.0496 211.118 45.7978L210.744 46.1296C211.401 46.8693 212.047 47.6201 212.683 48.3821L213.067 48.0618C213.706 48.8277 214.334 49.605 214.952 50.3937L214.558 50.702C215.167 51.4793 215.765 52.2677 216.352 53.0674L216.755 52.7716C217.344 53.5751 217.923 54.3898 218.49 55.2159L218.077 55.4988C218.636 56.3128 219.183 57.1378 219.719 57.974L220.14 57.7044C220.676 58.5422 221.201 59.3913 221.714 60.2515L221.285 60.5075C221.54 60.9354 221.792 61.366 222.041 61.7994C222.284 62.2226 222.523 62.6474 222.76 63.0739L223.197 62.8317C223.672 63.6897 224.133 64.5542 224.58 65.4248L224.136 65.6532C224.581 66.5209 225.013 67.3947 225.431 68.2743L225.882 68.0597C226.303 68.9457 226.71 69.8374 227.103 70.7346L226.645 70.9351C227.036 71.8287 227.413 72.7276 227.777 73.6316L228.241 73.445C228.606 74.3546 228.958 75.2692 229.296 76.1884L228.827 76.3609C229.163 77.2763 229.486 78.1963 229.795 79.1206L230.269 78.9621C230.58 79.8918 230.876 80.8257 231.159 81.7635L230.681 81.908C230.962 82.8417 231.23 83.7793 231.484 84.7205L231.967 84.5901C232.223 85.5362 232.465 86.4859 232.693 87.4387L232.206 87.5551C232.434 88.5036 232.647 89.4551 232.847 90.4095L233.336 90.307C233.537 91.2661 233.724 92.2281 233.898 93.1924L233.406 93.281C233.579 94.2408 233.738 95.203 233.884 96.1672L234.378 96.0925C234.524 97.0614 234.657 98.0324 234.777 99.0049L234.281 99.0659C234.4 100.034 234.505 101.004 234.597 101.975L235.095 101.927C235.188 102.903 235.267 103.88 235.333 104.857L234.834 104.891C234.9 105.864 234.952 106.838 234.991 107.813L235.491 107.793C235.53 108.772 235.556 109.751 235.569 110.731L235.069 110.738C235.082 111.713 235.081 112.689 235.068 113.664L235.568 113.671C235.554 114.651 235.527 115.63 235.488 116.609L234.988 116.589C234.948 117.564 234.896 118.538 234.83 119.511L235.329 119.545C235.263 120.523 235.184 121.499 235.091 122.475L234.594 122.428C234.502 123.399 234.397 124.369 234.28 125.337L234.776 125.397C234.658 126.37 234.527 127.342 234.383 128.311L233.888 128.237C233.745 129.202 233.589 130.165 233.42 131.126L233.912 131.212C233.742 132.178 233.559 133.141 233.364 134.1L232.874 134.001C232.679 134.957 232.471 135.91 232.251 136.859L232.738 136.972C232.517 137.927 232.282 138.879 232.035 139.827L231.551 139.701C231.305 140.645 231.046 141.586 230.775 142.522L231.255 142.661C230.982 143.603 230.697 144.541 230.398 145.473L229.922 145.321C229.625 146.251 229.315 147.176 228.993 148.095L229.465 148.261C229.14 149.186 228.804 150.106 228.454 151.021L227.987 150.842C227.639 151.754 227.278 152.66 226.905 153.561L227.367 153.752C226.992 154.658 226.604 155.558 226.203 156.452L225.747 156.247C225.348 157.138 224.936 158.022 224.512 158.899L224.963 159.117C224.536 160 224.097 160.876 223.646 161.745L223.202 161.515C222.753 162.38 222.291 163.239 221.817 164.09L222.253 164.334C221.776 165.19 221.287 166.039 220.785 166.88L220.355 166.623C219.855 167.461 219.343 168.291 218.819 169.112L219.24 169.381C218.713 170.207 218.173 171.025 217.621 171.834L217.208 171.553C216.933 171.955 216.655 172.355 216.374 172.754C216.082 173.168 215.787 173.579 215.489 173.987L215.893 174.282C215.294 175.102 214.685 175.91 214.066 176.704L213.671 176.396C213.055 177.187 212.429 177.964 211.792 178.728L212.176 179.048C211.525 179.83 210.864 180.598 210.193 181.354L209.819 181.021C209.152 181.773 208.474 182.512 207.786 183.238L208.149 183.582C207.454 184.316 206.749 185.037 206.035 185.745L205.683 185.39C204.967 186.1 204.242 186.796 203.508 187.479L203.849 187.845C203.111 188.533 202.364 189.207 201.608 189.868L201.279 189.492C200.52 190.156 199.753 190.807 198.977 191.445L199.294 191.832C198.515 192.473 197.726 193.102 196.93 193.718L196.624 193.322C195.829 193.938 195.025 194.54 194.214 195.131L194.508 195.535C193.691 196.129 192.866 196.711 192.033 197.281L191.751 196.868C190.922 197.435 190.086 197.99 189.242 198.532L189.513 198.953C188.663 199.5 187.806 200.034 186.942 200.556L186.683 200.128C185.824 200.648 184.957 201.156 184.084 201.652L184.331 202.087C183.453 202.586 182.569 203.073 181.679 203.548L181.443 203.107C180.557 203.58 179.664 204.042 178.766 204.492L178.99 204.939C178.087 205.391 177.179 205.831 176.266 206.26L176.053 205.808C175.143 206.235 174.228 206.651 173.308 207.056L173.509 207.514C172.586 207.92 171.657 208.316 170.724 208.7L170.534 208.237C169.604 208.62 168.669 208.992 167.731 209.353L167.91 209.82C166.968 210.183 166.022 210.534 165.073 210.875L164.904 210.404C163.957 210.744 163.006 211.073 162.053 211.391L162.211 211.865C161.253 212.185 160.292 212.494 159.328 212.793L159.18 212.316C158.22 212.613 157.256 212.901 156.29 213.178L156.428 213.659C155.457 213.937 154.483 214.206 153.507 214.464L153.379 213.981C152.407 214.238 151.432 214.486 150.456 214.723L150.575 215.209C149.592 215.448 148.608 215.677 147.623 215.896L147.514 215.408C146.531 215.627 145.547 215.836 144.562 216.035L144.662 216.525C143.671 216.725 142.68 216.916 141.688 217.097L141.598 216.606C140.606 216.787 139.614 216.959 138.622 217.121L138.702 217.614C137.707 217.777 136.711 217.931 135.716 218.075L135.644 217.58C134.644 217.725 133.644 217.861 132.645 217.988L132.708 218.484C131.706 218.611 130.705 218.729 129.706 218.837L129.652 218.34C128.647 218.45 127.644 218.55 126.642 218.641L126.688 219.139C125.68 219.231 124.674 219.314 123.671 219.389L123.634 218.89C122.628 218.964 121.624 219.03 120.622 219.087L120.651 219.586C119.638 219.644 118.628 219.692 117.621 219.733L117.601 219.233C116.595 219.273 115.593 219.305 114.594 219.328L114.605 219.828C113.588 219.851 112.574 219.866 111.564 219.872L111.561 219.372C110.555 219.379 109.552 219.377 108.555 219.366L108.55 219.866C107.531 219.856 106.516 219.837 105.508 219.809L105.521 219.309C104.513 219.282 103.51 219.246 102.513 219.202L102.491 219.701C101.473 219.657 100.462 219.603 99.4577 219.542L99.4883 219.043C98.4785 218.981 97.4758 218.91 96.4808 218.832L96.4416 219.331C95.4267 219.251 94.4197 219.163 93.4211 219.066L93.4691 218.569C92.4595 218.471 91.4586 218.366 90.4671 218.252L90.4102 218.749C89.3984 218.633 88.3963 218.509 87.4046 218.377L87.4707 217.881C86.4632 217.747 85.4664 217.604 84.4811 217.453L84.4056 217.948C83.3969 217.794 82.4003 217.631 81.4163 217.461L81.5016 216.968C80.4992 216.794 79.51 216.612 78.5349 216.422L78.4393 216.913C77.4335 216.717 76.4426 216.513 75.4672 216.3L75.5736 215.812C74.5812 215.596 73.6051 215.371 72.6464 215.139L72.5286 215.625C71.5253 215.382 70.5407 215.13 69.5759 214.869L69.7061 214.387C68.7308 214.124 67.776 213.852 66.8428 213.573L66.6995 214.052C65.6999 213.753 64.7248 213.445 63.7754 213.128L63.9336 212.654C62.9608 212.33 62.0156 211.997 61.0993 211.655L60.9248 212.124C59.961 211.765 59.0286 211.397 58.1293 211.02L58.3223 210.559C57.359 210.156 56.4346 209.743 55.551 209.322L55.3359 209.774C54.3899 209.323 53.4894 208.862 52.6371 208.393L52.8783 207.955C51.9687 207.454 51.116 206.944 50.323 206.426L50.0495 206.844C49.1622 206.265 48.3468 205.674 47.6074 205.075L47.9222 204.687C47.1014 204.022 46.3804 203.349 45.7633 202.672L45.3937 203.009C44.6582 202.201 44.0609 201.383 43.6111 200.557L44.0502 200.318C43.8169 199.889 43.627 199.462 43.4807 199.036C43.3175 198.56 43.2064 198.08 43.1417 197.592L42.646 197.658C42.5101 196.634 42.5676 195.586 42.7733 194.508L43.2644 194.602C43.4451 193.655 43.7464 192.676 44.1394 191.656L43.6729 191.476C44.0351 190.537 44.4704 189.573 44.953 188.582L45.4026 188.8C45.8454 187.891 46.3294 186.955 46.8361 185.989L46.3934 185.757C46.5443 185.469 46.6971 185.179 46.8512 184.886C47.1845 184.253 47.5238 183.609 47.8636 182.952L48.3076 183.182C48.7851 182.26 49.2649 181.311 49.7316 180.336L49.2805 180.12C49.7296 179.181 50.1658 178.218 50.5758 177.23L51.0377 177.421C51.4411 176.448 51.8199 175.449 52.1614 174.421L51.6869 174.264C52.0157 173.274 52.309 172.26 52.5553 171.219L53.0419 171.334C53.2849 170.306 53.483 169.253 53.6252 168.171L53.1295 168.106C53.2644 167.079 53.3481 166.028 53.3711 164.95L53.871 164.961C53.8934 163.913 53.8593 162.841 53.7603 161.743L53.2623 161.788C53.1701 160.766 53.0207 159.721 52.8069 158.653L53.2972 158.555C53.1932 158.035 53.0743 157.51 52.9397 156.98C52.8025 156.44 52.6553 155.919 52.4986 155.416L52.0212 155.564C51.6874 154.492 51.3099 153.504 50.8923 152.578L51.3481 152.373C50.8859 151.348 50.3757 150.398 49.8226 149.498L49.3966 149.759C48.8344 148.844 48.2267 147.979 47.5784 147.135L47.975 146.83C47.3276 145.987 46.642 145.167 45.925 144.342L45.5476 144.67C44.9119 143.938 44.2487 143.2 43.5616 142.436C43.5159 142.385 43.47 142.334 43.4241 142.283L43.796 141.948C43.1114 141.187 42.4059 140.4 41.681 139.567L41.3038 139.895C40.6343 139.125 39.9481 138.316 39.2476 137.452L39.6361 137.137C39.3099 136.734 38.9806 136.319 38.6486 135.891L38.6484 135.891C38.3502 135.507 38.0556 135.119 37.7646 134.729L37.3636 135.027C36.7784 134.242 36.2078 133.443 35.6519 132.633L36.0642 132.35C35.5132 131.548 34.9766 130.733 34.4544 129.909L34.032 130.176C33.5075 129.348 32.9976 128.509 32.5022 127.662L32.9338 127.41C32.4419 126.568 31.9644 125.717 31.5011 124.858L31.061 125.096C30.5953 124.233 30.1439 123.361 29.707 122.483L30.1546 122.26C29.7198 121.386 29.2993 120.506 28.893 119.619L28.4385 119.827C28.0294 118.935 27.6347 118.036 27.2543 117.133L27.7151 116.939C27.3358 116.038 26.9708 115.132 26.6201 114.223L26.1536 114.403C25.7998 113.485 25.4605 112.564 25.1357 111.641L25.6074 111.475C25.2826 110.552 24.9723 109.626 24.6766 108.698L24.2002 108.85C23.9011 107.912 23.6168 106.973 23.3472 106.034L23.8279 105.896C23.5575 104.953 23.3021 104.011 23.0615 103.07L22.5771 103.193C22.333 102.238 22.1042 101.284 21.8905 100.332L22.3784 100.223C22.1634 99.265 21.9639 98.3095 21.7799 97.3576L21.289 97.4526C21.1015 96.4829 20.93 95.517 20.7744 94.5561L21.268 94.4762C21.1107 93.5052 20.9698 92.5395 20.8452 91.5805L20.3494 91.6449C20.2217 90.6627 20.1111 89.6874 20.0175 88.7204L20.5151 88.6722C20.4201 87.6907 20.3426 86.7181 20.2827 85.7559L19.7836 85.787C19.7219 84.7958 19.6786 83.8155 19.6538 82.8476L20.1536 82.8348C20.1282 81.8458 20.1222 80.8702 20.1355 79.9098L19.6356 79.9029C19.6494 78.9048 19.684 77.9227 19.7392 76.9588L20.2383 76.9874C20.2951 75.996 20.3739 75.0244 20.4745 74.0748L19.9773 74.0221C20.083 73.0246 20.2127 72.0506 20.3663 71.1026L20.8599 71.1826C21.019 70.2005 21.2039 69.2475 21.4145 68.3265L20.927 68.2151C21.1511 67.2347 21.4041 66.2892 21.6858 65.3819L22.1633 65.5301C22.4605 64.5734 22.7895 63.6613 23.1502 62.7979L22.6888 62.6052C23.0799 61.6689 23.5082 60.7868 23.9737 59.9641L24.4089 60.2103C24.8992 59.3435 25.43 58.5471 26.0005 57.8263L25.6084 57.5161C26.2364 56.7225 26.9135 56.0148 27.6393 55.4007L27.9623 55.7824C28.3262 55.4745 28.7022 55.1916 29.0901 54.9346L29.0901 54.9346C29.4825 54.6745 29.8792 54.4462 30.2801 54.2467L30.0573 53.7991C30.9364 53.3615 31.8364 53.0554 32.754 52.855L32.8606 53.3435C33.7545 53.1483 34.67 53.0567 35.6055 53.0447L35.5991 52.5448C36.5394 52.5327 37.4933 52.5988 38.4574 52.7182L38.396 53.2144C39.3132 53.3279 40.2433 53.4909 41.1849 53.682L41.2843 53.1919C42.2123 53.3803 43.1464 53.5946 44.0837 53.8137L43.9698 54.3006C44.1565 54.3442 44.3436 54.3882 44.5311 54.4322C45.2737 54.6064 46.0216 54.782 46.7692 54.9472L46.8771 54.459C47.8154 54.6664 48.7539 54.8578 49.6898 55.0121L49.6084 55.5055C50.5733 55.6646 51.5404 55.7856 52.5052 55.8451L52.536 55.346C53.4975 55.4053 54.4531 55.4018 55.3994 55.3121L55.4465 55.8099C56.423 55.7174 57.3937 55.5356 58.354 55.2392L58.2066 54.7614C59.0927 54.488 59.9674 54.1138 60.8278 53.6185L61.0772 54.0518C61.4975 53.8099 61.914 53.5404 62.3263 53.2413C62.3263 53.2412 62.3264 53.2412 62.3264 53.2411L62.0328 52.8364C62.4674 52.5214 62.8706 52.1916 63.2447 51.8481L72.4451 16.661ZM72.4451 16.661L72.8255 16.9855C72.5107 17.3544 72.2192 17.7306 71.9513 18.1139C71.6607 18.5299 71.3961 18.9569 71.1552 19.394L70.7173 19.1526L72.4451 16.661Z" stroke="#E1FFFF" stroke-dasharray="3 3"/>
<path d="M225.859 115.043C223.616 115.043 221.834 113.261 221.834 111.018C221.834 108.775 223.616 106.994 225.859 106.994C228.102 106.994 229.883 108.775 229.883 111.018C229.883 113.261 228.102 115.043 225.859 115.043ZM225.859 108.313C224.341 108.313 223.088 109.567 223.088 111.084C223.088 112.602 224.341 113.855 225.859 113.855C227.376 113.855 228.63 112.602 228.63 111.084C228.63 109.501 227.376 108.313 225.859 108.313Z" fill="#10714E"/>
<path d="M246.248 119.133C244.005 119.133 242.224 117.352 242.224 115.109C242.224 112.866 244.005 111.084 246.248 111.084C248.491 111.084 250.273 112.866 250.273 115.109C250.273 117.352 248.491 119.133 246.248 119.133ZM246.248 112.338C244.731 112.338 243.477 113.591 243.477 115.109C243.477 116.626 244.731 117.88 246.248 117.88C247.766 117.88 249.019 116.626 249.019 115.109C249.019 113.591 247.766 112.338 246.248 112.338Z" fill="#10714E"/>
<path d="M21.3661 177.487C20.2819 179.482 17.8688 180.238 15.9143 179.194C13.9599 178.15 13.2689 175.737 14.3532 173.742C15.4375 171.747 17.8506 170.992 19.805 172.035C21.7019 173.048 22.4504 175.492 21.3661 177.487ZM15.4454 174.325C14.7119 175.675 15.1981 177.373 16.5203 178.079C17.8424 178.785 19.5405 178.253 20.274 176.904C21.0074 175.554 20.5212 173.856 19.1991 173.15C17.877 172.444 16.1789 172.976 15.4454 174.325Z" fill="#10714E"/>
<path d="M34.6259 161.474C33.5377 163.473 31.1246 164.234 29.1741 163.195C27.2236 162.155 26.5389 159.742 27.6271 157.743C28.7153 155.744 31.1284 154.982 33.0789 156.022C34.9721 157.031 35.7142 159.475 34.6259 161.474ZM28.7171 158.324C27.981 159.676 28.4628 161.374 29.7823 162.077C31.1017 162.781 32.7998 162.245 33.536 160.893C34.2721 159.54 33.7903 157.842 32.4708 157.139C31.1514 156.436 29.4533 156.972 28.7171 158.324Z" fill="#10714E"/>
<path d="M14.0944 163.065C13.0062 165.064 10.5931 165.826 8.64264 164.786C6.69215 163.746 6.00741 161.333 7.09563 159.334C8.18386 157.335 10.597 156.574 12.5474 157.613C14.4406 158.623 15.1827 161.066 14.0944 163.065ZM8.18561 159.915C7.44946 161.267 7.93131 162.966 9.25076 163.669C10.5702 164.372 12.2683 163.836 13.0045 162.484C13.7406 161.132 13.2588 159.434 11.9393 158.73C10.6199 158.027 8.92176 158.563 8.18561 159.915Z" fill="#10714E"/>
<path d="M89.2359 206.458C95.3096 207.572 102.294 198.286 95.8325 195.572C90.2964 193.59 91.4491 190.043 88.4408 188.682C84.4493 186.865 80.5273 190.896 79.9586 192.888C77.9106 200.061 85.2472 206.44 89.2359 206.458Z" fill="url(#paint1_linear)"/>
<path opacity="0.8" d="M35.9602 117.426L32.0221 114.258C32.0967 113.646 32.1527 113.024 32.1527 112.392C32.1527 111.76 32.0967 111.138 32.0221 110.526L35.9696 107.358C36.3241 107.071 36.4269 106.554 36.1935 106.133L32.4607 99.5005C32.2274 99.0889 31.7422 98.9167 31.3222 99.0889L26.6749 101.013C25.7136 100.256 24.6592 99.6153 23.5207 99.1272L22.8208 94.0549C22.7367 93.6051 22.3541 93.251 21.8876 93.251H14.422C13.9554 93.251 13.5727 93.6051 13.4981 94.0549L12.7982 99.1272C11.6597 99.6153 10.6052 100.247 9.64402 101.013L4.99668 99.0889C4.57674 98.9263 4.09144 99.0889 3.8582 99.5005L0.125283 106.133C-0.108046 106.544 -0.00533592 107.061 0.349251 107.358L4.28733 110.526C4.2127 111.138 4.15671 111.76 4.15671 112.392C4.15671 113.024 4.2127 113.646 4.28733 114.258L0.349251 117.426C-0.00533592 117.713 -0.108046 118.23 0.125283 118.651L3.85812 125.283C4.09144 125.695 4.57665 125.867 4.99659 125.695L9.64393 123.771C10.6052 124.527 11.6596 125.169 12.7981 125.657L13.498 130.729C13.5726 131.179 13.9553 131.533 14.4219 131.533H21.8875C22.354 131.533 22.7367 131.179 22.8113 130.729L23.5112 125.657C24.6497 125.169 25.7043 124.537 26.6654 123.771L31.3128 125.695C31.7327 125.858 32.218 125.695 32.4512 125.283L36.1841 118.651C36.4175 118.24 36.3148 117.723 35.9602 117.426ZM18.1547 119.091C14.5432 119.091 11.6223 116.096 11.6223 112.392C11.6223 108.688 14.5432 105.693 18.1547 105.693C21.7662 105.693 24.6872 108.688 24.6872 112.392C24.6872 116.096 21.7662 119.091 18.1547 119.091Z" fill="url(#paint2_linear)"/>
<path d="M132.067 31.7172L127.171 27.8183C127.264 27.0644 127.333 26.2988 127.333 25.5214C127.333 24.7439 127.264 23.9783 127.171 23.2244L132.078 19.3255C132.519 18.9722 132.647 18.3361 132.357 17.8178L127.716 9.65493C127.426 9.1484 126.823 8.93637 126.301 9.1484L120.523 11.516C119.328 10.5854 118.017 9.79628 116.601 9.19555L115.731 2.95267C115.627 2.39909 115.151 1.96322 114.571 1.96322H105.29C104.709 1.96322 104.234 2.39909 104.141 2.95267L103.271 9.19555C101.855 9.79628 100.544 10.5737 99.3494 11.516L93.5716 9.1484C93.0495 8.94819 92.4462 9.1484 92.1562 9.65493L87.5153 17.8178C87.2252 18.3244 87.3529 18.9605 87.7937 19.3255L92.6897 23.2244C92.5969 23.9783 92.5273 24.7439 92.5273 25.5214C92.5273 26.2988 92.5969 27.0644 92.6897 27.8183L87.7937 31.7172C87.3529 32.0706 87.2252 32.7066 87.5153 33.2249L92.1561 41.3878C92.4462 41.8943 93.0494 42.1064 93.5715 41.8943L99.3492 39.5267C100.544 40.4573 101.855 41.2465 103.271 41.8472L104.141 48.0901C104.234 48.6436 104.709 49.0795 105.289 49.0795H114.571C115.151 49.0795 115.627 48.6436 115.72 48.0901L116.59 41.8472C118.005 41.2465 119.316 40.469 120.511 39.5267L126.289 41.8943C126.811 42.0945 127.414 41.8943 127.704 41.3878L132.345 33.2249C132.635 32.7185 132.508 32.0824 132.067 31.7172ZM109.93 33.7668C105.44 33.7668 101.809 30.0799 101.809 25.5214C101.809 20.9629 105.44 17.2761 109.93 17.2761C114.42 17.2761 118.052 20.963 118.052 25.5215C118.052 30.08 114.42 33.7668 109.93 33.7668Z" fill="#FFE048"/>
<path d="M64.379 43.9754C70.0445 43.836 75.2097 48.5121 75.9114 54.4287C75.9758 54.9924 76.0034 55.5486 75.9832 56.0878C76.9296 55.6267 77.9996 55.3576 79.1503 55.3304C83.8248 55.211 88.0842 59.0734 88.6644 63.9551C89.2155 68.5961 86.2447 72.4866 81.9388 72.96C81.7131 72.9827 81.4819 73.0006 81.2499 73.0083L42.4854 73.8477C40.2706 73.4869 38.3933 71.5439 38.1108 69.1671C37.7941 66.4827 39.6171 64.258 42.1917 64.1928C42.7337 64.1818 43.2726 64.2641 43.7767 64.4318C43.4904 63.6061 43.2839 62.7433 43.179 61.8571C42.4515 55.7409 46.6126 50.6673 52.4687 50.5183C53.5573 50.4907 54.6287 50.6403 55.6543 50.933C56.7106 46.9532 60.0654 44.0824 64.379 43.9754Z" fill="#98D3FD"/>
<path d="M70.0141 59.5897L69.2386 59.655C69.1506 59.3206 69.0326 58.9989 68.8901 58.6946L69.5338 58.2621C69.7108 58.145 69.755 57.9141 69.6331 57.7426L68.8846 56.6892C68.7631 56.5228 68.5219 56.4795 68.35 56.5962L67.6961 57.0295C67.45 56.7901 67.1795 56.5681 66.8904 56.3733L67.2351 55.6849C67.3291 55.4967 67.2447 55.2758 67.0518 55.1873L65.8461 54.6398C65.6532 54.5513 65.4216 54.6313 65.3276 54.8195L64.9833 55.5131C64.6456 55.4256 64.2946 55.3649 63.9408 55.3355L63.8814 54.5698C63.8655 54.3642 63.678 54.2133 63.4622 54.2301L62.1162 54.3396C61.9004 54.3563 61.7388 54.5395 61.7547 54.745L61.8141 55.5107C61.4643 55.5999 61.1268 55.7139 60.8019 55.858L60.3497 55.2262C60.2278 55.0547 59.9815 55.0117 59.8049 55.134L58.6834 55.8723C58.5013 55.9898 58.4575 56.2259 58.5794 56.3974L59.0316 57.0292C58.7713 57.2717 58.5382 57.5327 58.3273 57.8127L57.604 57.4862C57.4059 57.3982 57.1692 57.4786 57.0752 57.6668L56.479 58.8452C56.385 59.0334 56.4646 59.2599 56.6627 59.3479L57.3804 59.6697C57.2818 59.9978 57.2152 60.339 57.1751 60.6885L56.379 60.7554C56.1632 60.7722 55.9964 60.9557 56.0128 61.1664L56.1132 62.4613C56.1291 62.6669 56.317 62.8229 56.5376 62.8007L57.3281 62.729C57.4165 63.0685 57.5349 63.3954 57.6829 63.7044L57.0341 64.1373C56.8523 64.26 56.8082 64.4908 56.93 64.6623L57.7 65.7245C57.8218 65.896 58.0677 65.9338 58.2495 65.8111L58.8932 65.3786C59.1448 65.6228 59.4204 65.8444 59.715 66.0438L59.3747 66.7216C59.2807 66.9098 59.3603 67.1363 59.558 67.2192L60.7783 67.7553C60.9713 67.8437 61.2076 67.7582 61.3016 67.57L61.6372 66.8977C61.9851 66.9845 62.3409 67.0396 62.705 67.0683L62.762 67.8031C62.7779 68.0087 62.9654 68.1596 63.1808 68.1377L64.5256 68.0127C64.741 67.9909 64.9026 67.8077 64.8867 67.6022L64.8309 66.8828C65.1854 66.7881 65.5277 66.6685 65.8521 66.5192L66.281 67.1167C66.4025 67.283 66.6432 67.3212 66.8203 67.2041L67.9255 66.4567C68.1025 66.3396 68.1463 66.1036 68.03 65.9368L67.6007 65.3342C67.8555 65.087 68.0882 64.8208 68.2987 64.5357L68.9895 64.844C69.1821 64.9273 69.4137 64.8473 69.5025 64.6595L70.079 63.4929C70.1729 63.3047 70.0886 63.0838 69.9012 63.0001L69.2104 62.6918C69.3039 62.364 69.3705 62.0228 69.4058 61.6789L70.1758 61.6088C70.3865 61.5925 70.5481 61.4094 70.5322 61.2038L70.433 59.9243C70.4123 59.7242 70.23 59.573 70.0141 59.5897ZM63.0336 57.4375C65.2014 57.2591 67.0781 58.7937 67.2386 60.8647C67.3992 62.9356 65.7787 64.7724 63.6177 64.971C61.4412 65.1707 59.5389 63.6381 59.3767 61.5466C59.2201 59.4598 60.8611 57.6214 63.0336 57.4375Z" fill="white"/>
<path d="M121.934 146.592L119.179 165.585H151.111L146.948 146.592H121.934Z" fill="#41A9B0"/>
<path d="M68.3058 85.7856V142.313C68.3058 146.963 72.0132 150.765 76.658 150.885C97.3054 151.42 169.516 152.708 189.169 152.42C192.546 152.367 195.285 149.665 195.379 146.288C195.756 133.155 196.374 101.579 194.096 86.9167C193.615 83.8272 191.012 81.5231 187.886 81.4184C170.585 80.8633 94.0378 79.1091 74.3958 79.549C71.0078 79.6275 68.3058 82.3976 68.3058 85.7856Z" fill="#269EA7"/>
<path d="M71.8491 85.5075V139.213C71.8491 141.925 74.0275 144.14 76.7452 144.182L186.339 145.538C189.031 145.58 191.235 143.412 191.246 140.721L191.429 87.4974C191.434 85.5703 189.905 83.9941 187.978 83.947L75.7712 81.6796C73.6243 81.6273 71.8491 83.3553 71.8491 85.5075Z" fill="#76D5DC"/>
<path d="M157.987 170.637H111.257C109.99 170.637 109.037 169.731 109.277 168.763L109.88 166.39C110.058 165.678 110.843 165.155 111.775 165.123H156.561C157.535 165.092 158.806 165.652 159.015 166.391L159.951 168.721C160.234 169.705 159.275 170.637 157.987 170.637Z" fill="#269EA7"/>
<path d="M168.607 145.324L99.6529 144.35V67.2799C99.6529 65.6147 100.983 64.2689 102.627 64.2689H165.826C167.366 64.2689 168.612 65.5309 168.612 67.0862V145.324H168.607Z" fill="#E3F2EF"/>
<path d="M119.176 80.8483H103.556C103.346 80.8483 103.173 80.6755 103.173 80.466V68.663C103.173 68.4535 103.346 68.2807 103.556 68.2807H119.176C119.385 68.2807 119.558 68.4535 119.558 68.663V80.466C119.558 80.6807 119.385 80.8483 119.176 80.8483Z" fill="#B3DCD4"/>
<path d="M150.987 73.1612H124.355C124.177 73.1612 124.03 73.0145 124.03 72.8365V68.6054C124.03 68.4274 124.177 68.2808 124.355 68.2808H150.987C151.165 68.2808 151.312 68.4274 151.312 68.6054V72.8417C151.307 73.0198 151.165 73.1612 150.987 73.1612Z" fill="#B3DCD4"/>
<path d="M140.112 79.7432H124.313C124.162 79.7432 124.036 79.6175 124.036 79.4656V75.1403C124.036 74.9885 124.162 74.8628 124.313 74.8628H140.112C140.264 74.8628 140.389 74.9885 140.389 75.1403V79.4656C140.389 79.6175 140.264 79.7432 140.112 79.7432Z" fill="#B3DCD4"/>
<path d="M162.515 113.362H107.249C106.998 113.362 106.788 113.158 106.788 112.901V86.6453C106.788 86.394 106.992 86.1845 107.249 86.1845H162.515C162.766 86.1845 162.976 86.3887 162.976 86.6453V112.901C162.97 113.152 162.766 113.362 162.515 113.362Z" fill="#B3DCD4"/>
<path d="M165.371 124.264H103.366C103.241 124.264 103.136 124.159 103.136 124.034V118.473C103.136 118.347 103.241 118.242 103.366 118.242H165.377C165.502 118.242 165.607 118.347 165.607 118.473V124.034C165.602 124.165 165.497 124.264 165.371 124.264Z" fill="#B3DCD4"/>
<path d="M165.114 134.234H103.376C103.172 134.234 103.009 134.072 103.009 133.867V128.584C103.009 128.379 103.172 128.217 103.376 128.217H165.114C165.318 128.217 165.481 128.379 165.481 128.584V133.867C165.481 134.072 165.313 134.234 165.114 134.234Z" fill="#B3DCD4"/>
<path d="M165.204 143.534H103.57C103.34 143.534 103.151 143.346 103.151 143.116V137.937C103.151 137.706 103.34 137.518 103.57 137.518H165.198C165.429 137.518 165.617 137.706 165.617 137.937V143.116C165.617 143.351 165.434 143.534 165.204 143.534Z" fill="#B3DCD4"/>
<path d="M211.349 65.791C210.351 59.6946 205.017 55.1178 199.428 53.3986C194.003 51.7293 187.571 51.4481 182.16 53.2943C178.168 54.6596 173.954 57.227 172.48 61.3911C169.976 68.4673 174.539 75.9426 180.785 79.1178C182.831 80.1566 184.977 80.6918 187.231 81.0638C189.83 81.4947 192.679 83.4361 190.955 86.4526C190.03 88.0719 188.197 88.8022 186.85 89.1334C186.428 89.2377 186.424 89.841 186.85 89.9453C192.665 91.3333 196.004 85.7813 197.401 82.6287C197.986 81.3087 199.029 80.2518 200.34 79.6486C205.044 77.4939 212.542 73.0895 211.349 65.791Z" fill="#BDD0FB"/>
<path d="M195.293 65.618L194.68 68.7841H197.692V70.6575H194.313L193.419 75.316H191.437L192.331 70.6575H189.568L188.675 75.316H186.733L187.581 70.6575H184.796V68.7841H187.953L188.588 65.618H185.644V63.7446H188.91L189.804 59.0408H191.809L190.915 63.7446H193.723L194.617 59.0408H196.558L195.665 63.7446H198.472V65.618H195.293ZM189.908 68.7841H192.693L193.329 65.618H190.543L189.908 68.7841Z" fill="white"/>
<path d="M172.762 125.545L172.893 147.647C174.347 158.924 187.599 168.053 193.372 171.522C195.027 172.515 197.14 172.458 198.782 171.375C204.434 167.656 216.962 158.295 218.298 147.45L218.416 126.284C218.412 110.585 172.762 109.147 172.762 125.545Z" fill="#EE77A2"/>
<path d="M195.537 166.631C193.139 165.152 188.869 162.3 185.146 158.634C181.076 154.63 178.723 150.789 178.171 147.234L178.045 125.626C178.049 124.135 179.417 122.766 182.106 121.577C185.526 120.061 190.43 119.264 195.537 119.379C200.592 119.493 205.36 120.49 208.633 122.112C211.179 123.371 212.466 124.744 212.47 126.198L212.352 147.103C211.833 150.552 209.61 154.323 205.728 158.336C202.124 162.054 197.928 165.05 195.537 166.631Z" fill="#F4F7FA"/>
<path d="M204.125 138.338L187.965 138.481C186.722 138.494 185.709 139.462 185.709 140.643V150.997C185.709 152.174 186.718 153.085 187.956 153.036L204.06 152.378C205.204 152.333 206.136 151.381 206.14 150.258L206.193 140.365C206.197 139.237 205.274 138.326 204.125 138.338Z" fill="#E38DDD"/>
<path d="M198.254 144.275C198.258 143.131 197.277 142.228 196.076 142.302C195.013 142.367 194.135 143.225 194.074 144.255C194.029 145.052 194.458 145.742 195.115 146.094C195.393 146.241 195.532 146.555 195.479 146.866L195.013 149.481C194.952 149.812 195.218 150.106 195.565 150.094L196.746 150.053C197.093 150.041 197.355 149.73 197.297 149.403L196.844 146.813C196.791 146.502 196.95 146.196 197.228 146.028C197.845 145.665 198.254 145.011 198.254 144.275Z" fill="white"/>
<path d="M203.898 137.309C203.412 137.313 203.02 136.925 203.024 136.447L203.032 134.191C203.04 131.927 201.169 130.06 198.836 130.04L193.56 129.986C191.145 129.962 189.16 131.846 189.155 134.183L189.151 136.508C189.151 137.002 188.731 137.407 188.212 137.407C187.693 137.411 187.268 137.01 187.268 136.516V134.179C187.268 130.84 190.112 128.156 193.56 128.205L198.84 128.278C202.154 128.323 204.805 130.979 204.789 134.191L204.777 136.438C204.777 136.916 204.385 137.309 203.898 137.309Z" fill="#EE77A2"/>
<defs>
<linearGradient id="paint0_linear" x1="65.2684" y1="40.7359" x2="212.016" y2="187.484" gradientUnits="userSpaceOnUse">
<stop stop-color="#E1FFFF" stop-opacity="0.29"/>
<stop offset="1" stop-color="#E1FFFF"/>
</linearGradient>
<linearGradient id="paint1_linear" x1="83.4832" y1="206.116" x2="85.4798" y2="186.41" gradientUnits="userSpaceOnUse">
<stop stop-color="#1FF5F5" stop-opacity="0.61"/>
<stop offset="1" stop-color="#76D5DC"/>
</linearGradient>
<linearGradient id="paint2_linear" x1="6.38033" y1="99.1405" x2="39.7544" y2="126.134" gradientUnits="userSpaceOnUse">
<stop stop-color="white" stop-opacity="0.39"/>
<stop offset="1" stop-color="white" stop-opacity="0.25"/>
</linearGradient>
</defs>
</svg>
