<svg width="732" height="539" viewBox="0 0 732 539" fill="none" xmlns="http://www.w3.org/2000/svg">
<path d="M183.408 133.161C138.157 129.366 100.942 193.459 82.3339 242.373C70.0696 278.637 75.5673 325.441 99.2501 352.428C118.196 374.017 169.171 402.185 192.29 413.57C226.122 439.713 232.875 462 303.5 462C351.542 463.687 388.095 429.312 399.937 387.426C407.126 364.656 426.723 352.849 431.232 316.164C441.804 230.144 340.285 215.672 310.182 203.213C280.079 190.754 257.059 139.338 183.408 133.161Z" fill="white"/>
<path d="M640.272 411.398C643.046 358.716 560.989 299.64 548.756 366.594C540.752 423.281 513.91 419.296 507.518 450.659C498.952 492.297 552.69 516.173 552.669 516.235C614.957 541.443 637.051 472.607 640.272 411.398Z" fill="url(#paint0_linear)"/>
<path d="M508.824 417.476C516.678 412.701 510.346 391.834 500.617 398.239C492.731 404.022 489.21 399.423 484.554 402.322C478.361 406.158 483.533 417.33 483.523 417.335C489.809 429.979 500.259 426.022 508.824 417.476Z" fill="url(#paint1_linear)"/>
<path d="M777 74.9285C677.425 7.07139 426.48 228.972 538.728 314.938C650.101 379.031 617.067 437.006 676.88 476.944C756.216 530.151 841.539 430.788 841.649 430.885C951.739 309.261 924.066 135.268 777 74.9285Z" fill="url(#paint2_linear)"/>
<path d="M406.554 249.305C406.554 249.305 411.025 242.529 412.688 236.753C414.813 231.252 416.695 229.918 416.695 229.918C416.695 229.918 418.122 229.068 418.887 230.107C419.652 231.146 419.932 232.859 417.941 238.069C414.968 242.125 411.315 253.356 411.315 253.356L412.944 254.088L418.354 251.038L420.244 251.365C420.244 251.365 426.444 264.585 424.127 269.72L420.89 273.745L408.861 267.908L404.509 255.779L406.554 249.305Z" fill="#F49C6E"/>
<path d="M419.877 251.372C419.877 251.372 417.23 257.099 413.792 261.432C413.792 261.432 413.177 263.576 415.655 264.865L416.542 264.486C416.542 264.486 416.037 267.026 418.208 268.177L421.1 267.144L419.867 268.578C419.867 268.578 419.912 270.673 421.942 271.501C421.942 271.501 426.353 270.547 427.866 267.336L425.646 263.223L426.491 261.183L423.655 256.792L424.183 255.3C424.213 255.227 422.6 252.512 419.877 251.372Z" fill="url(#paint3_linear)"/>
<path d="M401.109 257.591C400.968 259.703 401.149 268.189 401.255 270.151C401.362 272.112 401.279 277.313 401.279 277.313C401.109 279.46 400.402 282.46 400.402 282.46L409.901 285.46C409.901 285.46 412.185 284.893 413.401 283.96L414.937 281.151C415.657 280.082 420.71 274.1 420.71 274.1L414.445 267.894C412.829 262.471 406.876 254.405 406.876 254.405L407.341 252.178C413.426 250.557 416.464 243.746 415.851 242.339C415.315 240.968 413.529 240.166 413.529 240.166C413.529 240.166 408.783 245.604 406.214 248.018C403.861 250.354 401.249 255.479 401.109 257.591Z" fill="url(#paint4_linear)"/>
<path d="M424.404 255.197C424.404 255.197 420.471 262.122 416.535 264.577C416.535 264.577 421.244 262.29 423.833 256.783L424.404 255.197Z" fill="#F49C6E"/>
<path d="M426.471 261.089C426.471 261.089 423.245 266.617 417.971 268.176C417.971 268.176 422.074 268.097 425.615 263.146L426.471 261.089Z" fill="#F49C6E"/>
<path opacity="0.35" d="M174.719 99.1256C121.333 94.4848 77.426 172.862 55.4726 232.676C41.0033 277.021 47.4896 334.257 75.4302 367.257C97.7828 393.658 149.725 419.006 177 432.929C216.915 464.898 250.5 502.336 315 497.429C361 493.929 403.5 463.429 425.5 408.929C433.982 381.084 456.901 361.445 465.5 322.429C477.974 217.238 359.077 191.766 323.562 176.531C288.047 161.296 261.612 106.679 174.719 99.1256Z" stroke="#3CCB21" stroke-linecap="round" stroke-dasharray="3 3"/>
<mask id="mask0" mask-type="alpha" maskUnits="userSpaceOnUse" x="80" y="130" width="356" height="330">
<path d="M187.408 131.09C142.157 127.295 104.942 191.388 86.3339 240.302C74.0696 276.565 79.5673 323.37 103.25 350.356C122.196 371.946 173.171 400.113 196.29 411.498C230.122 437.642 236.875 459.929 307.5 459.929C355.542 461.615 392.095 427.241 403.937 385.355C411.126 362.585 430.723 350.778 435.232 314.093C445.804 228.073 344.285 213.6 314.182 201.141C284.079 188.682 261.059 137.266 187.408 131.09Z" fill="white"/>
</mask>
<g mask="url(#mask0)">
<path d="M391.916 670.732L383.013 675.48C383.013 675.48 334.642 624.289 323.069 575.028C320.991 566.274 320.101 557.52 320.991 549.359C320.991 549.359 320.249 547.133 319.062 543.127C319.062 542.979 318.914 542.83 318.914 542.534C318.32 540.753 317.727 538.824 316.985 536.45C314.611 529.031 311.495 518.793 307.786 507.22C299.328 480.512 280.188 420.419 271.878 395.492L330.933 374.125C330.933 374.125 337.61 389.408 347.254 431.102C348.738 436.592 350.222 442.527 351.557 449.056C353.189 456.475 354.673 464.636 355.86 473.39C357.937 488.228 355.712 471.03 355.86 489.429C355.86 496.848 359.273 538.379 358.827 546.391C358.531 552.178 359.421 560.042 361.053 568.796C368.62 609.303 391.916 670.732 391.916 670.732Z" fill="#205080"/>
<path d="M195.168 320.709C194.871 321.005 180.775 306.464 173.208 298.452L180.775 293.852L222.172 319.818L195.168 320.709Z" fill="#FFB48D"/>
<path d="M310.011 150.224C310.308 148.888 313.721 135.386 334.642 138.354C334.642 138.354 324.107 137.76 321.585 142.063C321.585 142.063 329.597 137.76 334.939 140.431C340.28 143.25 341.913 153.785 341.467 157.049C340.874 160.313 335.977 170.403 332.12 170.7C330.636 170.848 329.152 170.403 327.668 169.958C328.41 171.59 329.004 173.519 329.597 175.448C334.939 193.995 323.514 209.278 316.688 206.162C312.385 204.233 309.715 211.652 309.715 211.652L271.878 168.326C272.027 168.326 293.987 137.76 310.011 150.224Z" fill="#4A2009"/>
<path d="M271.285 266.255C276.181 269.668 282.413 272.487 290.129 274.268C319.211 280.945 330.339 256.463 334.493 239.548C330.487 237.322 326.778 236.728 324.7 236.58C322.623 236.283 320.398 236.135 318.617 236.135C315.353 233.612 310.456 223.374 309.418 207.498L308.082 207.795L285.084 214.027C285.084 214.027 286.122 221.297 286.716 228.271C287.161 233.612 287.161 238.806 286.122 240.141C284.342 240.586 283.303 240.735 283.303 240.735C282.858 241.18 276.329 252.16 271.285 266.255Z" fill="#FFB48D"/>
<path d="M285.084 214.025C285.084 214.025 286.123 221.296 286.716 228.269C299.773 226.934 305.708 214.619 308.082 207.793L285.084 214.025Z" fill="#F6A071"/>
<path d="M281.226 220.85C281.226 220.85 312.089 219.218 310.753 199.929C309.418 180.788 312.534 167.583 292.651 167.88C272.917 168.176 269.653 175.744 268.466 182.272C267.427 188.801 273.214 220.85 281.226 220.85Z" fill="#FFB48D"/>
<path d="M268.614 171.59C272.917 165.507 276.627 166.545 278.852 168.029C295.025 157.494 306.896 170.403 306.896 170.403C310.011 184.054 320.398 191.176 320.398 191.176C320.398 191.176 315.056 195.034 301.851 192.66C297.844 191.918 294.135 189.395 290.871 186.131C296.806 194.589 304.373 200.375 304.373 200.375C288.348 194.292 280.633 173.222 279.891 170.997C278.11 172.777 274.698 176.783 273.807 180.493C272.62 185.538 272.62 195.627 269.653 195.479C269.653 195.627 262.086 180.79 268.614 171.59Z" fill="#4A2009"/>
<path d="M276.181 239.101C276.181 239.101 326.481 226.934 348.293 244.888L336.11 317.429L329.5 337.429L336.11 358.04L337.313 397.123L253.302 378.875C253.302 378.875 245.677 363.407 264.521 337.738C283.365 312.217 271.433 275.009 276.181 239.101Z" fill="#FFB48D"/>
<path d="M305.56 380.209C305.56 380.209 305.56 380.654 305.412 381.692C305.412 382.138 305.263 382.583 305.263 383.176C304.818 387.182 304.076 394.75 303.038 404.543C300.367 430.36 308.083 459.786 305.263 492.429C303.038 517.95 289.536 550.397 290.277 553.662C292.651 563.454 290.277 680.524 290.277 680.524C281.968 684.53 269.208 680.524 269.208 680.524C269.208 680.524 246.951 575.028 250.067 560.487C253.183 545.798 247.99 533.334 247.99 533.334C230.778 452.913 236.713 413.064 240.126 391.697C241.164 385.465 245.467 373.383 246.357 370.713C247.099 368.487 240.126 370.713 240.126 370.713C278.259 360.475 305.56 380.209 305.56 380.209Z" fill="#205080"/>
<path d="M337.713 397.599C326.714 402.486 315.715 404.707 305.411 405.004C295.943 405.3 286.893 404.263 278.818 402.338C261.135 398.191 247.629 390.638 242.617 387.38C243.592 381.16 244.566 377.013 245.402 374.347C256.262 366.054 283.134 374.051 305.133 382.789C305.968 383.085 306.664 383.381 307.5 383.678C324.208 390.638 337.713 397.599 337.713 397.599Z" fill="#284663"/>
<path fill-rule="evenodd" clip-rule="evenodd" d="M358.234 249.785C351.409 239.25 326.778 236.282 326.778 236.282L326.897 236.668C326.522 237.749 322.389 248.392 304.225 250.081C285.084 251.862 277.22 239.25 277.22 239.25C277.22 239.25 258.228 241.179 251.106 254.83C245.301 265.894 239.885 285.272 235.772 299.989C233.155 309.351 231.066 316.827 229.739 319.077L202.586 306.91C202.586 306.91 194.574 307.652 191.161 310.026C185.82 313.587 186.116 317.445 186.116 317.445C186.116 317.445 228.552 349.049 239.235 345.488C249.028 342.224 258.821 323.528 264.014 307.355C267.724 318.483 266.833 323.825 266.092 325.457C265.76 326.204 264.656 328.31 263.087 331.303C256.239 344.365 240.535 374.324 241.5 381.929C249.5 404.429 310.024 408.831 330.5 399.929C330.756 399.819 331.457 399.602 332.376 399.317C335.19 398.444 340.053 396.935 340.5 395.929C340.5 378.929 336 341.429 336 341.429C336 332.576 338.497 324.243 341.127 315.466C343.076 308.96 345.099 302.209 346.232 294.821L360.686 321.177C380.987 369.259 414.645 282.724 414.645 282.724C399.686 283.779 399.152 278.971 399.152 278.971L380.987 304.615C376 288.929 366.84 263.139 358.234 249.785Z" fill="url(#paint5_linear)"/>
<path d="M335.5 338.929C335.5 338.929 341 382.929 339.894 396.043C324.39 390.114 314.015 369.229 318 344.429C323.791 308.604 347.046 292.959 347.046 292.959C340.5 317.929 337.977 326.991 335.5 338.929Z" fill="#37A7F3" fill-opacity="0.7"/>
<path d="M158.052 287.634C158.052 287.634 166.439 299.635 175.286 302.591L178.183 302.25L185.775 311.276C185.775 311.276 189.8 308.162 189.338 299.439C189.338 299.439 187.67 298.066 187.147 296.415C187.147 296.415 189.362 294.299 189.887 292.881C190.411 291.464 190.246 287.415 190.527 285.741C190.807 284.067 194.389 280.149 195.218 279.623C196.046 279.098 199.936 278.426 199.936 278.426C199.936 278.426 200.381 276.947 199.742 276.38C199.102 275.813 194.623 274.349 191.5 276.929C191.5 276.929 189.619 278.498 189.344 279.458C189.069 280.418 186.396 283.872 185.961 283.923C185.527 283.974 183.345 282.59 182.362 281.492C181.452 280.386 176.078 271.599 174.77 268.613L174.763 268.542C174.756 268.472 174.756 268.472 174.677 268.41C174.671 268.339 174.671 268.339 174.671 268.339C174.671 268.339 174.671 268.339 174.664 268.268C172.645 265.358 170.515 262.743 167.652 261.196C167.652 261.196 166.094 261.403 165.642 262.812C165.642 262.812 166.596 266.577 169.09 269.709C169.505 270.231 169.934 270.894 170.436 271.549C172.561 274.653 175.063 278.64 175.413 279.241L175.419 279.312L174.314 280.013L170.926 277.485L167.466 274.967L160.862 283.307L161.674 284.14L164.186 286.699L163.048 287.047L160.094 284.468L158.052 287.634Z" fill="url(#paint6_linear)"/>
<path d="M167.562 274.759C167.562 274.759 165.37 274.732 164.187 277.646L164.563 278.527C164.563 278.527 162.437 279.204 160.737 282.819C160.737 282.819 162.849 285.843 167.536 286.785C167.536 286.785 169.576 285.976 169.77 284.175L169.23 283.1L171.004 284.101C171.004 284.101 173.006 284.434 173.605 281.518L167.562 274.759Z" fill="url(#paint7_linear)"/>
<path d="M157.574 286.522C157.574 286.522 156.946 284.53 159.06 282.927L163.838 287.067C163.838 287.067 163.834 288.564 161.988 289.138C161.995 289.208 158.937 288.57 157.574 286.522Z" fill="url(#paint8_linear)"/>
<path d="M164.634 278.445C164.634 278.445 167.052 281.582 169.311 283.027L169.852 284.104C169.852 284.104 165.547 281.902 163.733 278.978C163.733 278.978 164.134 278.575 164.634 278.445Z" fill="#F49C6E"/>
</g>
<path opacity="0.6" d="M176.991 197.184L173.795 288.866C173.695 292.461 170.699 295.357 167.003 295.357H9.10639C5.41114 295.357 2.41501 292.461 2.31514 288.766L0.117944 195.985C0.0180725 192.19 3.11407 188.994 6.9092 189.094L170.299 190.193C174.094 190.193 177.19 193.389 176.991 197.184Z" fill="#22C1E4" fill-opacity="0.71"/>
<path opacity="0.7" d="M176.791 201.877H0.317565L0.017901 197.083C-0.281714 192.788 3.21379 189.193 7.50827 189.293L170.798 190.591C174.194 190.591 176.891 193.388 176.891 196.783L176.791 201.877Z" fill="url(#paint9_linear)"/>
<path opacity="0.3" d="M167.902 209.269V262.3H113.872V208.969L167.902 209.269Z" fill="url(#paint10_linear)"/>
<path opacity="0.6" d="M38.2689 212.864H61.7388V236.334H38.2689V212.864Z" fill="url(#paint11_linear)"/>
<path d="M10.5045 212.864H33.9744V236.334H10.5045V212.864Z" fill="url(#paint12_linear)"/>
<path d="M66.4325 212.864H89.9023V236.334H66.4325V212.864Z" fill="url(#paint13_linear)"/>
<path d="M10.5049 252.228H85.6084V253.925H10.5049V252.228Z" fill="white"/>
<path d="M70.5277 240.392H84.9092V242.09H70.5277V240.392Z" fill="white"/>
<path d="M42.763 240.392H57.1445V242.09H42.763V240.392Z" fill="white"/>
<path d="M15.0985 240.392H29.48V242.09H15.0985V240.392Z" fill="white"/>
<path d="M10.5049 255.696H85.6084V257.394H10.5049V255.696Z" fill="white"/>
<path d="M10.5044 258.492H89.9023V260.19H10.5044V258.492Z" fill="white"/>
<path d="M10.5044 261.289H89.9023V262.987H10.5044V261.289Z" fill="white"/>
<path d="M10.5049 272.573H85.6084V274.271H10.5049V272.573Z" fill="white"/>
<path d="M10.5044 275.37H89.9023V277.068H10.5044V275.37Z" fill="white"/>
<path d="M10.5044 278.167H89.9023V279.865H10.5044V278.167Z" fill="white"/>
<path d="M13.7002 264.084H89.9023V265.782H13.7002V264.084Z" fill="white"/>
<path d="M10.5049 266.882H85.6084V268.58H10.5049V266.882Z" fill="white"/>
<path d="M25.585 269.678H89.9023V271.376H25.585V269.678Z" fill="white"/>
<path d="M152.822 251.713C161.311 251.713 168.202 244.821 168.202 236.332C168.202 227.843 161.311 220.952 152.822 220.952C144.333 220.952 137.442 227.843 137.442 236.332C137.442 244.821 144.333 251.713 152.822 251.713ZM152.822 221.951C160.712 221.951 167.203 228.443 167.203 236.332C167.203 244.222 160.712 250.714 152.822 250.714C144.932 250.714 138.44 244.222 138.44 236.332C138.44 228.443 144.832 221.951 152.822 221.951Z" fill="#E0FFFF"/>
<path d="M152.822 244.721C148.188 244.721 144.433 240.965 144.433 236.332C144.433 231.699 148.188 227.943 152.822 227.943C157.455 227.943 161.211 231.699 161.211 236.332C161.211 240.965 157.455 244.721 152.822 244.721Z" fill="white"/>
<path d="M113.872 224.349C122.361 224.349 129.252 217.457 129.252 208.968C129.252 200.479 122.361 193.588 113.872 193.588C105.383 193.588 98.4915 200.479 98.4915 208.968C98.5914 217.457 105.483 224.349 113.872 224.349ZM113.872 194.587C121.762 194.587 128.253 201.079 128.253 208.968C128.253 216.858 121.762 223.35 113.872 223.35C105.982 223.35 99.4902 216.858 99.4902 208.968C99.5901 201.079 105.982 194.587 113.872 194.587Z" fill="#E0FFFF"/>
<path d="M106.16 210.173C105.483 205.868 108.424 201.83 112.728 201.153C117.032 200.476 121.07 203.416 121.748 207.721C122.425 212.025 119.484 216.063 115.18 216.74C110.876 217.417 106.837 214.477 106.16 210.173Z" fill="white"/>
<path d="M4.7118 194.086H59.042V196.783H4.7118V194.086Z" fill="white"/>
<g opacity="0.9">
<path opacity="0.81" d="M96.2882 411.953H175.625C179.153 411.953 183.025 409.414 183.107 406.203L183.584 346.978C183.666 343.692 180.712 340.929 177.102 340.929H94.4832C90.7912 340.929 87.9197 343.692 88.0017 346.978L88.8067 406.203C88.8887 409.414 92.7603 411.953 96.2882 411.953Z" fill="url(#paint14_linear)"/>
<path d="M106 353.027H167V354.791H106V353.027Z" fill="white"/>
<path d="M136.5 357.276H167V359.04H136.5V357.276Z" fill="white"/>
<path d="M136.5 360.805H167V362.569H136.5V360.805Z" fill="white"/>
<path d="M108.762 360.805H133.018V362.569H108.762V360.805Z" fill="white"/>
<path d="M117.768 364.332H167V366.096H117.768V364.332Z" fill="white"/>
<path d="M149.468 367.86H167V369.624H149.468V367.86Z" fill="white"/>
<path d="M115.606 378.524H145.866V380.288H115.606V378.524Z" fill="white"/>
<path d="M112.124 371.389H167V373.153H112.124V371.389Z" fill="white"/>
<path d="M124.732 374.996H167V376.76H124.732V374.996Z" fill="white"/>
<path d="M147.187 378.524H167V380.288H147.187V378.524Z" fill="white"/>
<path d="M136.5 382.053H167V383.817H136.5V382.053Z" fill="white"/>
<path d="M158.234 385.581H167V387.345H158.234V385.581Z" fill="white"/>
<path d="M122.811 385.581H154.632V387.345H122.811V385.581Z" fill="white"/>
<path d="M115.606 389.03H145.866V390.794H115.606V389.03Z" fill="white"/>
<path d="M147.187 389.03H167V390.794H147.187V389.03Z" fill="white"/>
<path d="M136.5 392.556H167V394.32H136.5V392.556Z" fill="white"/>
<path d="M158.234 396.165H167V397.929H158.234V396.165Z" fill="white"/>
<path d="M122.811 396.165H154.632V397.929H122.811V396.165Z" fill="white"/>
</g>
<path d="M445.323 227.818H529.509C538.712 227.818 543.556 221.948 543.832 214.574L544 154.075C544 143.516 538.48 139.929 531.441 139.929H443.667C436.629 139.929 431 143.516 431.108 154.075L431 214.574C431.138 221.948 434.532 227.818 445.323 227.818Z" fill="url(#paint15_linear)"/>
<path d="M441.818 147.77H532.414C533.518 147.77 534.414 148.665 534.414 149.77V201.952C534.414 203.057 533.518 203.952 532.414 203.952H441.818C440.713 203.952 439.818 203.057 439.818 201.952V149.77C439.818 148.665 440.713 147.77 441.818 147.77Z" fill="#3ED01F"/>
<path d="M495.584 175.903L479.566 185.151L479.803 165.183L495.584 175.903Z" fill="white"/>
<path d="M439.818 214.275H534.414V219.352H439.818V214.275Z" fill="#3ED01F"/>
<path d="M509.876 214.275H534.414V219.352H509.876V214.275Z" fill="white"/>
<path d="M212.159 105.456C203.097 105.06 193.335 98.5505 190.217 95.4637L180.405 106.02C180.641 108.239 188.598 112.778 192.38 113.488C203.647 114.299 212.099 105.771 212.159 105.456Z" fill="url(#paint16_linear)"/>
<path d="M239.186 98.7848L212.184 80.9909C214.554 84.5897 216.988 93.6383 212.632 102.935C207.123 114.694 192.124 113.114 192.38 113.489C220.523 119.294 235.311 106.105 239.186 98.7848Z" fill="url(#paint17_linear)"/>
<path d="M206.285 104.441C197.43 106.404 186.316 102.643 182.505 100.468L175.759 113.204C176.561 115.287 185.422 117.612 189.259 117.319C200.352 115.185 206.31 104.761 206.285 104.441Z" fill="url(#paint18_linear)"/>
<path d="M230.665 91.0016L199.977 80.8027C203.198 83.6656 207.891 91.776 206.09 101.883C203.812 114.668 188.915 117.024 189.259 117.319C217.946 115.643 228.816 99.0756 230.665 91.0016Z" fill="url(#paint19_linear)"/>
<path d="M216.345 93.9061C216.152 93.8221 216.076 93.5735 216.176 93.3508L217.32 90.7975C217.42 90.5748 217.657 90.4623 217.851 90.5463C218.044 90.6303 218.12 90.8789 218.02 91.1016L216.876 93.6548C216.776 93.8775 216.539 93.9901 216.345 93.9061Z" fill="#53AE12"/>
<path d="M211.73 92.4608C211.474 92.3706 211.33 92.1143 211.408 91.8882L212.301 89.2963C212.379 89.0702 212.65 88.96 212.906 89.0501C213.162 89.1403 213.306 89.3966 213.228 89.6226L212.335 92.2146C212.257 92.4406 211.986 92.5509 211.73 92.4608Z" fill="#53AE12"/>
<path d="M220.623 95.4285L219.443 95.0114C219.197 94.9242 219.059 94.6717 219.137 94.4472L220.017 91.8978C220.094 91.6734 220.357 91.5621 220.604 91.6492L221.784 92.0663C222.03 92.1535 222.168 92.406 222.09 92.6305C222.013 92.8549 221.75 92.9662 221.503 92.8791L220.77 92.6197L220.17 94.3565L220.904 94.6158C221.15 94.7029 221.287 94.9555 221.21 95.1799C221.133 95.4043 220.87 95.5156 220.623 95.4285Z" fill="#53AE12"/>
<path d="M220.968 94.106L219.902 93.7313C219.661 93.6468 219.527 93.4018 219.603 93.184C219.678 92.9663 219.935 92.8583 220.175 92.9428L221.242 93.3175C221.482 93.402 221.616 93.647 221.54 93.8648C221.465 94.0825 221.209 94.1905 220.968 94.106Z" fill="#53AE12"/>
<path d="M214.535 93.3575C213.509 92.9865 212.927 91.9388 213.237 91.0222C213.548 90.1056 214.635 89.6617 215.661 90.0328C216.034 90.1676 216.36 90.396 216.605 90.6933C216.768 90.8906 216.738 91.1581 216.538 91.2908C216.338 91.4235 216.044 91.3711 215.881 91.1738C215.754 91.0196 215.585 90.901 215.391 90.8309C214.857 90.638 214.292 90.8688 214.131 91.3453C213.969 91.8219 214.272 92.3666 214.806 92.5595C214.999 92.6293 215.177 92.6372 215.335 92.583C215.366 92.5724 215.397 92.5593 215.427 92.5438C215.642 92.4323 215.931 92.5122 216.072 92.7221C216.213 92.9321 216.153 93.1927 215.937 93.3042C215.87 93.3391 215.799 93.3692 215.728 93.3938C215.36 93.5193 214.948 93.5068 214.535 93.3575V93.3575Z" fill="#53AE12"/>
<path d="M209.614 91.759C209.362 91.6711 209.222 91.4161 209.301 91.1895L210.179 88.6745C210.258 88.4479 210.526 88.3354 210.778 88.4234C211.03 88.5113 211.17 88.7662 211.091 88.9929L210.214 91.5079C210.135 91.7344 209.866 91.8469 209.614 91.759Z" fill="#53AE12"/>
<path d="M222.605 96.1169C222.353 96.029 222.213 95.774 222.292 95.5474L223.169 93.0324C223.248 92.8058 223.517 92.6933 223.769 92.7813C224.02 92.8692 224.161 93.1241 224.081 93.3508L223.204 95.8658C223.125 96.0924 222.856 96.2048 222.605 96.1169Z" fill="#53AE12"/>
<path d="M211.312 89.397L209.792 88.8651C209.552 88.7811 209.419 88.5375 209.494 88.3209C209.57 88.1045 209.825 87.9971 210.065 88.0811L211.585 88.613C211.825 88.6971 211.958 88.9407 211.883 89.1572C211.808 89.3737 211.552 89.4811 211.312 89.397Z" fill="#53AE12"/>
<path d="M224.302 93.7542L222.782 93.2223C222.542 93.1382 222.409 92.8946 222.484 92.6781C222.56 92.4616 222.815 92.3542 223.055 92.4383L224.575 92.9702C224.815 93.0543 224.948 93.2979 224.873 93.5143C224.797 93.7308 224.542 93.8382 224.302 93.7542Z" fill="#53AE12"/>
<path d="M218.263 94.6484C218.152 94.6091 218.054 94.532 217.993 94.4256L216.931 92.5456C216.869 92.4368 216.857 92.3122 216.897 92.2009C216.937 92.0898 217.026 92.002 217.142 91.9583L218.978 91.2691C219.211 91.1816 219.489 91.292 219.599 91.5156C219.708 91.7392 219.608 91.9914 219.375 92.0789L217.986 92.5999L218.812 94.0608C218.935 94.2788 218.852 94.5371 218.626 94.6379C218.51 94.6893 218.379 94.6896 218.263 94.6484V94.6484Z" fill="#53AE12"/>
<path d="M310.052 150.224C310.349 148.888 313.761 135.386 334.683 138.354C334.683 138.354 324.148 137.76 321.625 142.063C321.625 142.063 329.638 137.76 334.979 140.431C340.321 143.25 341.953 153.785 341.508 157.049C340.914 160.313 336.018 170.403 332.16 170.7C330.676 170.848 329.193 170.403 327.709 169.958C328.451 171.59 329.044 173.519 329.638 175.448C334.979 193.995 323.554 209.278 316.729 206.162C312.426 204.233 309.755 211.652 309.755 211.652L271.919 168.326C272.067 168.326 294.027 137.76 310.052 150.224Z" fill="#1E4843"/>
<path d="M285.125 214.025C285.125 214.025 286.163 221.296 286.757 228.27C299.814 226.934 305.749 214.619 308.123 207.793L285.125 214.025Z" fill="#F6A071"/>
<path d="M281.267 220.85C281.267 220.85 312.129 219.218 310.794 199.929C309.458 180.788 312.574 167.583 292.692 167.88C272.958 168.176 269.693 175.744 268.506 182.272C267.468 188.801 273.255 220.85 281.267 220.85Z" fill="#FFB48D"/>
<path fill-rule="evenodd" clip-rule="evenodd" d="M279.146 197.924C278.752 198.362 278.358 198.799 278.052 199.28C277.483 200.068 277.22 200.987 277.745 201.818C278.402 202.869 279.627 203.787 280.852 204.138C280.94 204.181 280.983 204.05 280.896 204.006C280.152 203.744 279.496 203.35 278.927 202.825C278.446 202.431 277.92 201.818 277.789 201.162C277.583 200.175 278.306 199.303 278.903 198.584C278.94 198.539 278.978 198.494 279.014 198.449C280.633 196.436 281.29 193.898 281.29 191.317C281.246 192.892 280.983 194.555 280.327 195.999C280.021 196.699 279.627 197.355 279.146 197.924ZM285.326 201.413C285.359 201.658 285.352 201.905 285.272 202.125C285.14 202.65 284.834 202.956 284.397 203.262C284.353 203.306 284.397 203.35 284.44 203.35C285.334 203.19 285.459 202.239 285.326 201.413ZM285.199 200.874C285.251 201.04 285.295 201.223 285.326 201.413C285.301 201.228 285.254 201.045 285.199 200.874ZM285.097 200.593C285.133 200.679 285.167 200.773 285.199 200.874C285.167 200.775 285.132 200.681 285.097 200.593Z" fill="url(#paint20_linear)"/>
<path d="M292.587 207.129L293.291 208.661C293.291 208.661 294.368 207.626 292.587 207.129Z" fill="#D78A6F"/>
<path d="M276.894 205.929L276.066 207.129C276.066 207.129 275.652 206.177 276.894 205.929Z" fill="#D78A6F"/>
<path d="M293.208 208.041L292.753 208.62C292.753 208.62 288.943 211.974 285.299 213.134C281.656 214.293 279.447 213.194 278.501 211.775C278.501 211.775 278.028 211.302 277.888 209.987C277.774 208.916 276.728 207.006 276.728 207.006C276.728 207.006 278.053 207.088 278.219 207.171C278.385 207.213 280.372 208.289 280.372 208.289C280.372 208.289 283.063 209.283 283.229 209.242C283.395 209.2 290.144 208.289 290.144 208.289L293.208 208.041Z" fill="#FE56AB"/>
<path d="M292.752 208.082C292.752 208.082 289.191 210.815 284.885 211.353C283.395 211.56 280.206 211.85 279.254 209.987C279.13 209.78 279.006 209.366 278.964 209.117C278.757 208.33 278.302 207.626 277.598 207.212L279.792 207.295L281.656 207.999L282.815 208.248L284.264 208.041H289.854L292.752 208.082Z" fill="white"/>
<path d="M291.593 208.041H292.752C292.752 208.041 291.924 208.662 290.558 209.407C291.096 208.786 291.51 208.165 291.51 208.165L291.593 208.041ZM278.633 207.254L278.716 207.544C278.716 207.544 278.757 208.248 278.84 208.91C278.633 208.206 278.136 207.627 277.556 207.254H278.633Z" fill="black"/>
<path d="M276.397 206.633C277.805 207.71 280.703 208.124 280.703 208.124C282.277 209.117 283.187 208.455 283.187 208.455C286.707 208.579 289.854 208.579 293.332 207.958C293.332 207.958 286.666 207.503 282.815 207.461L281.904 207.917L281.117 207.337C281.117 207.337 278.716 206.84 278.012 206.757C277.308 206.674 276.397 206.633 276.397 206.633Z" fill="#FE56AB"/>
<path d="M293.374 207.998C291.345 208.371 289.316 208.578 287.287 208.62C286.252 208.661 285.175 208.62 284.14 208.62C283.892 208.62 283.643 208.62 283.353 208.578C283.229 208.578 283.271 208.537 283.229 208.578C283.105 208.661 282.981 208.702 282.815 208.744C282.235 208.909 281.614 208.702 281.076 208.454C280.91 208.371 280.786 208.247 280.579 208.205C280.372 208.164 280.207 208.123 280 208.081C278.757 207.833 277.35 207.502 276.397 206.673C276.356 206.632 276.397 206.549 276.48 206.591C277.557 207.295 278.799 207.667 280.082 207.916C280.372 207.957 280.703 207.998 280.952 208.123C281.532 208.495 282.277 208.702 282.981 208.495C283.022 208.495 283.188 208.413 283.188 208.371C283.271 208.288 283.478 208.371 283.56 208.371C283.809 208.371 284.057 208.371 284.347 208.413C285.341 208.454 286.335 208.454 287.328 208.454C289.316 208.413 291.345 208.288 293.374 207.998C293.374 207.998 293.374 207.957 293.374 207.998Z" fill="#EA448A"/>
<path d="M281 183.929C281 183.929 278.698 182.701 277.623 182.013C276.753 181.424 272.558 180.687 270 183.536C270 183.536 269.898 182.504 272.558 180.687C275.219 178.918 280.488 180.343 281 183.929Z" fill="#1E4843"/>
<path d="M304.394 186.117C304.394 186.117 301.549 182.354 295.38 182.485C290.61 182.616 290.304 183.316 288.86 182.091C288.86 182.091 289.297 181.129 292.098 180.91C294.898 180.691 301.331 180.691 304.394 186.117Z" fill="black"/>
<path d="M290.785 192.9C292.667 188.701 296.08 188.365 298.793 189.473C300.368 190.112 301.418 190.952 301.987 191.489C303.693 192.228 304.744 191.052 304.744 191.052C304.175 191.892 303.125 192.127 302.556 192.228C300.28 194.479 296.78 194.815 296.78 194.815C296.78 194.815 291.923 193.471 291.179 193.202C290.479 193.001 290.785 192.9 290.785 192.9Z" fill="#1E4843"/>
<path d="M290.654 193.303C291.748 191.153 293.279 188.802 296.736 189.608C298.53 190.011 300.193 190.851 301.724 192.464C301.724 192.464 299.624 194.412 296.386 194.849C293.148 195.285 291.485 193.639 291.485 193.639L290.523 193.606L290.654 193.303Z" fill="white"/>
<path d="M293.892 191.858C293.892 190.817 294.636 189.91 295.686 189.473C296.036 189.473 296.386 189.541 296.78 189.608C298.093 189.91 299.361 190.414 300.543 191.321C300.587 191.489 300.587 191.657 300.587 191.825C300.587 192.799 299.93 193.672 298.968 194.143C298.793 194.21 298.574 194.311 298.355 194.378C298.005 194.479 297.655 194.546 297.261 194.546C295.38 194.546 293.892 193.337 293.892 191.858Z" fill="url(#paint21_linear)"/>
<path d="M295.248 191.859C295.248 192.733 296.123 193.438 297.217 193.438C298.311 193.438 299.186 192.733 299.186 191.859C299.186 190.986 298.311 190.281 297.217 190.281C296.123 190.281 295.248 190.986 295.248 191.859Z" fill="#1E4843"/>
<path d="M295.423 191.858C295.423 192.665 296.211 193.303 297.217 193.303C298.18 193.303 299.011 192.665 299.011 191.858C299.011 191.052 298.224 190.414 297.217 190.414C296.255 190.414 295.423 191.052 295.423 191.858Z" fill="url(#paint22_linear)"/>
<path d="M301.724 192.463C300.849 191.59 299.799 190.784 298.486 190.246C297.392 189.776 296.08 189.406 294.811 189.574C292.448 189.877 291.485 191.892 290.654 193.337C290.654 193.37 290.566 193.337 290.566 193.303C291.266 191.758 292.492 189.709 294.855 189.406C296.08 189.238 297.392 189.642 298.486 190.078C299.843 190.649 300.893 191.523 301.724 192.463C301.724 192.463 301.768 192.463 301.724 192.463Z" fill="#1E4843"/>
<path d="M269 189.174C269 189.174 270.191 190.257 271.219 189.679C271.652 188.813 272.572 187.369 274.088 186.936C276.308 186.287 279.5 185.929 280.5 190.429C281.125 193.244 274.954 192.603 274.954 192.603C274.954 192.603 272.194 191.664 271.111 190.545C270.624 190.365 269.595 189.896 269 189.174Z" fill="#1E4843"/>
<path d="M271.761 190.437C272.518 188.561 274.467 186.792 277.228 187.225C279.664 187.586 280.259 190.726 280.259 192.458V192.639L279.339 192.458C279.339 192.458 277.607 193.108 275.55 192.747C273.547 192.386 271.761 190.437 271.761 190.437Z" fill="white"/>
<path d="M277.444 192.567C275.712 192.567 274.251 191.268 274.251 189.68C274.251 188.633 274.9 187.695 275.821 187.19C276.254 187.154 276.687 187.154 277.174 187.226C279.123 187.515 279.88 189.536 280.097 191.232C279.556 192.026 278.581 192.567 277.444 192.567Z" fill="url(#paint23_linear)"/>
<path d="M275.604 189.68C275.604 190.618 276.416 191.376 277.445 191.376C278.473 191.376 279.285 190.618 279.285 189.68C279.285 188.742 278.473 187.984 277.445 187.984C276.416 188.02 275.604 188.742 275.604 189.68Z" fill="#1E4843"/>
<path d="M275.767 189.68C275.767 190.51 276.524 191.196 277.445 191.196C278.365 191.196 279.123 190.51 279.123 189.68C279.123 188.85 278.365 188.165 277.445 188.165C276.524 188.165 275.767 188.85 275.767 189.68Z" fill="url(#paint24_linear)"/>
<path d="M280.205 192.494C280.205 191.628 280.097 190.798 279.826 189.968C279.555 189.138 279.122 188.272 278.148 187.694C277.065 187.045 275.441 187.297 274.359 187.802C273.005 188.452 272.41 189.535 271.815 190.509C271.76 190.581 271.652 190.545 271.652 190.473C271.923 189.427 272.789 188.308 274.088 187.658C275.171 187.117 276.741 186.9 277.931 187.405C279.014 187.875 279.447 188.849 279.718 189.607C280.097 190.545 280.259 191.52 280.205 192.494C280.205 192.494 280.259 192.494 280.205 192.494Z" fill="#1E4843"/>
<path d="M268.655 171.59C272.958 165.507 276.667 166.545 278.893 168.029C295.066 157.494 306.936 170.403 306.936 170.403C310.052 184.054 320.438 191.176 320.438 191.176C320.438 191.176 316.206 193.55 303 191.176C298.994 190.434 293.264 188.193 290 184.929C295.935 193.386 304.414 200.375 304.414 200.375C288.389 194.292 280.673 173.222 279.931 170.997C278.151 172.777 274.738 176.783 273.848 180.493C272.661 185.538 272.661 195.627 269.693 195.479C269.693 195.627 262.126 180.79 268.655 171.59Z" fill="#1E4843"/>
<defs>
<linearGradient id="paint0_linear" x1="662.225" y1="387.222" x2="487.145" y2="465.484" gradientUnits="userSpaceOnUse">
<stop stop-color="#6BDD24"/>
<stop offset="1" stop-color="#39CA21"/>
</linearGradient>
<linearGradient id="paint1_linear" x1="514.93" y1="417.965" x2="477.919" y2="407.817" gradientUnits="userSpaceOnUse">
<stop stop-color="#6BDD24"/>
<stop offset="0.807292" stop-color="#6DDE24"/>
</linearGradient>
<linearGradient id="paint2_linear" x1="687.061" y1="58.9917" x2="760.094" y2="482.856" gradientUnits="userSpaceOnUse">
<stop stop-color="#FFEC00" stop-opacity="0.75"/>
<stop offset="1" stop-color="#F5F13C" stop-opacity="0.45"/>
</linearGradient>
<linearGradient id="paint3_linear" x1="418.564" y1="269.91" x2="425.727" y2="254.001" gradientUnits="userSpaceOnUse">
<stop offset="0.0159875" stop-color="#FFB48D"/>
<stop offset="1" stop-color="#FFB48D"/>
</linearGradient>
<linearGradient id="paint4_linear" x1="401.447" y1="283.73" x2="419.8" y2="242.851" gradientUnits="userSpaceOnUse">
<stop offset="0.0159875" stop-color="#FFB48D"/>
<stop offset="1" stop-color="#FFB48D"/>
</linearGradient>
<linearGradient id="paint5_linear" x1="230" y1="271.495" x2="352.081" y2="345.948" gradientUnits="userSpaceOnUse">
<stop offset="0.0789326" stop-color="#1392E8"/>
<stop offset="1" stop-color="#5FBFFF"/>
</linearGradient>
<linearGradient id="paint6_linear" x1="181.868" y1="311.738" x2="175.617" y2="258.595" gradientUnits="userSpaceOnUse">
<stop offset="0.0159875" stop-color="#FFB48D"/>
<stop offset="1" stop-color="#FFB48D"/>
</linearGradient>
<linearGradient id="paint7_linear" x1="167.66" y1="286.673" x2="166.272" y2="274.874" gradientUnits="userSpaceOnUse">
<stop stop-color="#FFB48D"/>
<stop offset="0.984" stop-color="#FFC2A9"/>
</linearGradient>
<linearGradient id="paint8_linear" x1="160.93" y1="289.299" x2="160.167" y2="282.819" gradientUnits="userSpaceOnUse">
<stop stop-color="#FFCEB5"/>
<stop offset="0.984" stop-color="#FFC2A9"/>
</linearGradient>
<linearGradient id="paint9_linear" x1="176.895" y1="195.531" x2="0.0634464" y2="195.531" gradientUnits="userSpaceOnUse">
<stop stop-color="#20B7D9"/>
<stop offset="1" stop-color="#20B7D9"/>
</linearGradient>
<linearGradient id="paint10_linear" x1="140.923" y1="262.32" x2="140.923" y2="208.986" gradientUnits="userSpaceOnUse">
<stop stop-color="#CBF3FC"/>
<stop offset="1" stop-color="#CBF3FC"/>
</linearGradient>
<linearGradient id="paint11_linear" x1="49.9811" y1="236.317" x2="49.9811" y2="212.825" gradientUnits="userSpaceOnUse">
<stop stop-color="white"/>
<stop offset="1" stop-color="white"/>
</linearGradient>
<linearGradient id="paint12_linear" x1="22.2631" y1="236.317" x2="22.2631" y2="212.825" gradientUnits="userSpaceOnUse">
<stop stop-color="#C3F1F2"/>
<stop offset="1" stop-color="#CBF3FC"/>
</linearGradient>
<linearGradient id="paint13_linear" x1="78.1618" y1="236.317" x2="78.1618" y2="212.825" gradientUnits="userSpaceOnUse">
<stop stop-color="#C7F2F7"/>
<stop offset="1" stop-color="#C9F2F9"/>
</linearGradient>
<linearGradient id="paint14_linear" x1="142.155" y1="415.814" x2="133.079" y2="336.428" gradientUnits="userSpaceOnUse">
<stop stop-color="#A1E4F4"/>
<stop offset="1" stop-color="#A1E4F4"/>
</linearGradient>
<linearGradient id="paint15_linear" x1="487.507" y1="227.85" x2="487.507" y2="140" gradientUnits="userSpaceOnUse">
<stop stop-color="#D7F2EC"/>
<stop offset="1" stop-color="#D5F5EE"/>
</linearGradient>
<linearGradient id="paint16_linear" x1="206.563" y1="110.931" x2="188.267" y2="95.4239" gradientUnits="userSpaceOnUse">
<stop stop-color="#B8EBFB"/>
<stop offset="1" stop-color="#BAEFFB"/>
</linearGradient>
<linearGradient id="paint17_linear" x1="220.218" y1="82.4992" x2="213.648" y2="117.494" gradientUnits="userSpaceOnUse">
<stop stop-color="#C7EFFC"/>
<stop offset="1" stop-color="#99E1F8"/>
</linearGradient>
<linearGradient id="paint18_linear" x1="202.297" y1="111.178" x2="180.611" y2="100.935" gradientUnits="userSpaceOnUse">
<stop stop-color="#80E438"/>
<stop offset="1" stop-color="#BDF992"/>
</linearGradient>
<linearGradient id="paint19_linear" x1="208.128" y1="80.1803" x2="210.839" y2="115.683" gradientUnits="userSpaceOnUse">
<stop stop-color="#72DF24"/>
<stop offset="1" stop-color="#C9FDA3"/>
</linearGradient>
<linearGradient id="paint20_linear" x1="281.434" y1="190.81" x2="281.434" y2="200.152" gradientUnits="userSpaceOnUse">
<stop stop-color="#F5C2A4"/>
<stop offset="1" stop-color="#BA523B"/>
</linearGradient>
<linearGradient id="paint21_linear" x1="297.215" y1="189.799" x2="297.215" y2="193.829" gradientUnits="userSpaceOnUse">
<stop stop-color="#0E6299"/>
<stop offset="1" stop-color="#0E6299"/>
</linearGradient>
<linearGradient id="paint22_linear" x1="297.215" y1="191.781" x2="297.215" y2="193.829" gradientUnits="userSpaceOnUse">
<stop stop-color="#132F2B"/>
<stop offset="1" stop-color="#15332F"/>
</linearGradient>
<linearGradient id="paint23_linear" x1="277.207" y1="187.506" x2="277.207" y2="191.806" gradientUnits="userSpaceOnUse">
<stop stop-color="#0E6299"/>
<stop offset="1" stop-color="#0E6299"/>
</linearGradient>
<linearGradient id="paint24_linear" x1="277.455" y1="189.622" x2="277.455" y2="191.807" gradientUnits="userSpaceOnUse">
<stop stop-color="#132D2A"/>
<stop offset="1" stop-color="#2C2E2D"/>
</linearGradient>
</defs>
</svg>
