<svg width="54" height="68" viewBox="0 0 54 68" fill="none" xmlns="http://www.w3.org/2000/svg">
<path fill-rule="evenodd" clip-rule="evenodd" d="M26.867 14.2703H3.19611V14.2704H1.03555C0.419673 14.3335 -0.036438 14.8718 0.00229422 15.4897V51.4676H4.13531C4.70597 51.4676 5.16857 51.9302 5.16857 52.5009C5.16857 53.0715 4.70597 53.5341 4.13531 53.5341H0.00229422V56.4479C-0.036438 57.0658 0.419673 57.604 1.03555 57.6671H52.6983C53.3142 57.604 53.7703 57.0658 53.7316 56.4479V53.5341H8.26833C7.69768 53.5341 7.23508 53.0715 7.23508 52.5009C7.23508 51.9302 7.69768 51.4676 8.26833 51.4676H53.7316V15.4897C53.7703 14.8718 53.3142 14.3335 52.6983 14.2704H26.867V14.2703ZM50.6318 41.135V47.3346C50.6318 48.4759 49.7066 49.4011 48.5653 49.4011H32.0332C30.8919 49.4011 29.9667 48.4759 29.9667 47.3346V41.135C29.9667 39.9937 30.8919 39.0685 32.0332 39.0685H48.5653C49.7066 39.0685 50.6318 39.9937 50.6318 41.135ZM4.13531 32.869C4.13531 31.7277 5.06052 30.8025 6.20182 30.8025H22.7339C23.8752 30.8025 24.8004 31.7277 24.8004 32.869V39.0685C24.8004 40.2098 23.8752 41.135 22.7339 41.135H6.20182C5.06052 41.135 4.13531 40.2098 4.13531 39.0685V32.869ZM37.625 20.3778V20.1248C37.625 19.3654 38.2406 18.7498 39 18.7498C39.7594 18.7498 40.375 19.3654 40.375 20.1248V20.3998C41.2965 20.717 42.0758 21.3503 42.575 22.1873C42.9272 22.8417 42.6956 23.6577 42.052 24.0294C41.4084 24.4012 40.5859 24.1943 40.1949 23.5623C39.8615 22.9848 39.1619 22.7298 38.5351 22.9572C37.9083 23.1846 37.535 23.829 37.6495 24.4858C37.764 25.1427 38.3332 25.6228 39 25.6248C41.0067 25.621 42.7236 27.0651 43.0637 29.0428C43.4037 31.0205 42.2678 32.9551 40.375 33.6218V33.8748C40.375 34.6341 39.7594 35.2498 39 35.2498C38.2406 35.2498 37.625 34.6341 37.625 33.8748V33.5998C36.7035 33.2825 35.9242 32.6493 35.425 31.8123C35.0728 31.1578 35.3044 30.3419 35.948 29.9701C36.5916 29.5983 37.4141 29.8052 37.8051 30.4373C38.1385 31.0147 38.8381 31.2697 39.4649 31.0423C40.0917 30.8149 40.465 30.1705 40.3505 29.5137C40.236 28.8568 39.6668 28.3767 39 28.3748C36.9933 28.3786 35.2764 26.9345 34.9363 24.9568C34.5963 22.979 35.7322 21.0444 37.625 20.3778ZM20.2728 59.7329L18.2063 63.866H35.5278L33.4613 59.7329H20.2728ZM48.5663 41.1339H32.0332V47.3334H48.5663V41.1339ZM41.3324 65.9333H12.4013C11.8306 65.9333 11.368 66.3959 11.368 66.9665C11.368 67.5372 11.8306 67.9998 12.4013 67.9998H41.3324C41.9031 67.9998 42.3657 67.5372 42.3657 66.9665C42.3657 66.3959 41.9031 65.9333 41.3324 65.9333ZM6.20173 32.8684H22.7348V39.0679H6.20173V32.8684Z" fill="url(#paint0_linear)"/>
<path d="M16.5 27C23.9558 27 30 20.9558 30 13.5C30 6.04416 23.9558 0 16.5 0C9.04416 0 3 6.04416 3 13.5C3.00837 20.9524 9.04763 26.9916 16.5 27ZM14.8125 5.373V5.0625C14.8125 4.13052 15.568 3.375 16.5 3.375C17.432 3.375 18.1875 4.13052 18.1875 5.0625V5.4C19.3184 5.78935 20.2749 6.56652 20.8875 7.59375C21.3198 8.39699 21.0355 9.39834 20.2456 9.85462C19.4558 10.3109 18.4463 10.057 17.9664 9.28125C17.5573 8.57258 16.6987 8.25959 15.9294 8.53871C15.1602 8.81782 14.7021 9.60859 14.8426 10.4147C14.9831 11.2209 15.6817 11.8101 16.5 11.8125C18.9628 11.8078 21.0699 13.5801 21.4872 16.0073C21.9045 18.4345 20.5104 20.8088 18.1875 21.627V21.9375C18.1875 22.8695 17.432 23.625 16.5 23.625C15.568 23.625 14.8125 22.8695 14.8125 21.9375V21.6C13.6816 21.2107 12.7251 20.4335 12.1125 19.4062C11.6802 18.603 11.9645 17.6017 12.7544 17.1454C13.5442 16.6891 14.5537 16.943 15.0336 17.7188C15.4427 18.4274 16.3013 18.7404 17.0706 18.4613C17.8398 18.1822 18.2979 17.3914 18.1574 16.5853C18.0169 15.7791 17.3183 15.1899 16.5 15.1875C14.0372 15.1922 11.9301 13.4199 11.5128 10.9927C11.0955 8.56549 12.4896 6.19119 14.8125 5.373V5.373Z" fill="url(#paint1_linear)"/>
<defs>
<linearGradient id="paint0_linear" x1="26.8669" y1="14.2703" x2="26.8669" y2="67.9998" gradientUnits="userSpaceOnUse">
<stop stop-color="#83E94D"/>
<stop offset="1" stop-color="#21C120"/>
</linearGradient>
<linearGradient id="paint1_linear" x1="16.5" y1="0" x2="16.5" y2="27" gradientUnits="userSpaceOnUse">
<stop stop-color="#32D1F4"/>
<stop offset="1" stop-color="#4CB0FD" stop-opacity="0.6"/>
</linearGradient>
</defs>
</svg>
