<svg width="300" height="332" viewBox="0 0 300 332" fill="none" xmlns="http://www.w3.org/2000/svg">
<mask id="mask0" mask-type="alpha" maskUnits="userSpaceOnUse" x="34" y="0" width="266" height="294">
<rect x="300" y="294" width="266" height="294" rx="10" transform="rotate(-180 300 294)" fill="white"/>
</mask>
<g mask="url(#mask0)">
<path opacity="0.1" d="M56.3107 310.689C127.256 343.954 204.354 275.328 138.942 238.904C90.3964 207.568 106.136 181.616 80.1604 162.262C45.7104 136.484 5.93317 180.449 5.88575 180.403C-45.3226 234.117 -8.21651 280.433 56.3107 310.689Z" fill="url(#paint0_linear)"/>
<path d="M108.448 373.075C186.542 367.569 222.58 269.147 147.896 269.147C90.4632 265.351 92.2554 234.722 60.3183 230.408C17.9113 224.59 3.30683 282.92 3.24348 282.902C-16.9026 355.45 37.4189 378.082 108.448 373.075Z" fill="url(#paint1_linear)"/>
</g>
<defs>
<linearGradient id="paint0_linear" x1="57.633" y1="315.74" x2="116.515" y2="134.189" gradientUnits="userSpaceOnUse">
<stop stop-color="#28FEFE" stop-opacity="0.3"/>
<stop offset="1" stop-color="#30B3C7"/>
</linearGradient>
<linearGradient id="paint1_linear" x1="111.969" y1="376.882" x2="74.6158" y2="188.712" gradientUnits="userSpaceOnUse">
<stop stop-color="#ECFFD5"/>
<stop offset="1" stop-color="#ECFFD5"/>
</linearGradient>
</defs>
</svg>
