<svg width="741" height="856" viewBox="0 0 741 856" fill="none" xmlns="http://www.w3.org/2000/svg">
<path d="M640.272 431.469C643.046 378.787 560.989 319.711 548.756 386.665C540.752 443.352 513.91 439.367 507.518 470.73C498.952 512.368 552.69 536.244 552.669 536.306C614.957 561.514 637.05 492.678 640.272 431.469Z" fill="url(#paint0_linear)"/>
<path d="M187.408 151.161C142.157 147.366 104.942 211.459 86.3339 260.373C74.0696 296.637 79.5673 343.441 103.25 370.428C122.196 392.017 173.171 420.185 196.29 431.57C230.122 457.713 236.875 480 307.5 480C355.542 481.687 392.095 447.312 403.937 405.426C411.126 382.656 430.723 370.849 435.232 334.164C445.804 248.144 344.285 233.672 314.182 221.213C284.079 208.754 261.059 157.338 187.408 151.161Z" fill="white"/>
<path d="M508.824 437.547C516.678 432.772 510.346 411.905 500.617 418.31C492.731 424.093 489.21 419.494 484.554 422.393C478.361 426.229 483.533 437.401 483.523 437.406C489.809 450.05 500.259 446.093 508.824 437.547Z" fill="url(#paint1_linear)"/>
<path d="M777 94.9996C677.424 27.1425 426.48 249.043 538.728 335.009C650.1 399.102 617.067 457.077 676.88 497.015C756.216 550.222 841.539 450.859 841.649 450.956C951.739 329.332 924.066 155.339 777 94.9996Z" fill="url(#paint2_linear)"/>
<path d="M406.554 269.376C406.554 269.376 411.025 262.601 412.688 256.825C414.813 251.323 416.695 249.989 416.695 249.989C416.695 249.989 418.122 249.139 418.887 250.178C419.652 251.218 419.932 252.93 417.942 258.14C414.968 262.197 411.315 273.428 411.315 273.428L412.944 274.159L418.354 271.11L420.244 271.436C420.244 271.436 426.444 284.657 424.127 289.791L420.89 293.816L408.861 287.979L404.509 275.85L406.554 269.376Z" fill="#F49C6E"/>
<path d="M419.877 271.444C419.877 271.444 417.23 277.171 413.792 281.503C413.792 281.503 413.177 283.648 415.655 284.937L416.542 284.558C416.542 284.558 416.037 287.098 418.208 288.248L421.1 287.215L419.867 288.649C419.867 288.649 419.912 290.745 421.942 291.572C421.942 291.572 426.353 290.618 427.866 287.408L425.646 283.295L426.491 281.254L423.655 276.864L424.183 275.372C424.213 275.299 422.6 272.583 419.877 271.444Z" fill="url(#paint3_linear)"/>
<path d="M401.109 277.662C400.968 279.774 401.149 288.26 401.255 290.222C401.362 292.184 401.279 297.384 401.279 297.384C401.109 299.532 400.402 302.531 400.402 302.531L409.901 305.532C409.901 305.532 412.184 304.964 413.401 304.032L414.937 301.222C415.657 300.153 420.71 294.171 420.71 294.171L414.445 287.966C412.829 282.542 406.876 274.476 406.876 274.476L407.341 272.249C413.426 270.628 416.464 263.817 415.851 262.411C415.315 261.039 413.529 260.238 413.529 260.238C413.529 260.238 408.783 265.675 406.214 268.089C403.861 270.426 401.249 275.55 401.109 277.662Z" fill="url(#paint4_linear)"/>
<path d="M424.404 275.268C424.404 275.268 420.471 282.193 416.535 284.649C416.535 284.649 421.244 282.362 423.833 276.854L424.404 275.268Z" fill="#F49C6E"/>
<path d="M426.471 281.16C426.471 281.16 423.245 286.688 417.971 288.248C417.971 288.248 422.074 288.169 425.615 283.217L426.471 281.16Z" fill="#F49C6E"/>
<path opacity="0.35" d="M174.719 119.197C121.333 114.556 77.4261 192.933 55.4727 252.747C41.0034 297.093 47.4896 354.328 75.4303 387.329C97.7828 413.729 149.725 439.078 177 453C216.915 484.97 250.5 522.408 315 517.5C361 514 403.5 483.5 425.5 429C433.982 401.155 456.902 381.516 465.5 342.5C477.974 237.31 359.077 211.838 323.562 196.602C288.047 181.367 261.612 126.75 174.719 119.197Z" stroke="#3CCB21" stroke-linecap="round" stroke-dasharray="3 3"/>
<mask id="mask0" mask-type="alpha" maskUnits="userSpaceOnUse" x="80" y="151" width="356" height="330">
<path d="M187.409 151.161C142.158 147.366 104.942 211.459 86.3339 260.373C74.0696 296.637 79.5674 343.441 103.25 370.428C122.196 392.017 173.171 420.185 196.29 431.57C230.122 457.713 236.875 480 307.5 480C355.542 481.687 392.095 447.312 403.937 405.426C411.126 382.656 430.723 370.849 435.232 334.164C445.804 248.144 344.285 233.672 314.182 221.213C284.079 208.754 261.059 157.338 187.409 151.161Z" fill="white"/>
</mask>
<g mask="url(#mask0)">
<path d="M391.916 690.803L383.013 695.551C383.013 695.551 334.642 644.361 323.069 595.1C320.991 586.345 320.101 577.591 320.991 569.43C320.991 569.43 320.249 567.205 319.062 563.198C319.062 563.05 318.914 562.902 318.914 562.605C318.32 560.824 317.727 558.895 316.985 556.521C314.611 549.103 311.495 538.865 307.786 527.291C299.328 500.583 280.188 440.49 271.878 415.563L330.933 394.197C330.933 394.197 337.61 409.48 347.254 451.174C348.738 456.664 350.222 462.599 351.557 469.127C353.189 476.546 354.673 484.707 355.86 493.461C357.937 508.299 355.712 491.102 355.86 509.5C355.86 516.919 359.273 558.45 358.827 566.463C358.531 572.249 359.421 580.113 361.053 588.868C368.62 629.375 391.916 690.803 391.916 690.803Z" fill="#205080"/>
<path d="M195.168 340.78C194.871 341.077 180.775 326.536 173.208 318.524L180.775 313.924L222.172 339.89L195.168 340.78Z" fill="#FFB48D"/>
<path d="M310.011 170.295C310.308 168.96 313.721 155.457 334.642 158.425C334.642 158.425 324.107 157.831 321.585 162.134C321.585 162.134 329.597 157.831 334.939 160.502C340.28 163.321 341.913 173.856 341.467 177.12C340.874 180.385 335.977 190.474 332.12 190.771C330.636 190.92 329.152 190.474 327.668 190.029C328.41 191.661 329.004 193.59 329.597 195.519C334.939 214.066 323.514 229.349 316.688 226.233C312.385 224.304 309.715 231.723 309.715 231.723L271.878 188.397C272.027 188.397 293.987 157.831 310.011 170.295Z" fill="#4A2009"/>
<path d="M271.285 286.327C276.181 289.739 282.413 292.559 290.129 294.339C319.211 301.016 330.339 276.534 334.493 259.619C330.487 257.393 326.778 256.8 324.7 256.651C322.623 256.355 320.398 256.206 318.617 256.206C315.353 253.684 310.456 243.446 309.418 227.569L308.082 227.866L285.084 234.098C285.084 234.098 286.122 241.368 286.716 248.342C287.161 253.684 287.161 258.877 286.122 260.212C284.342 260.657 283.303 260.806 283.303 260.806C282.858 261.251 276.33 272.231 271.285 286.327Z" fill="#FFB48D"/>
<path d="M285.084 234.097C285.084 234.097 286.122 241.367 286.716 248.341C299.773 247.005 305.708 234.69 308.082 227.865L285.084 234.097Z" fill="#F6A071"/>
<path d="M281.226 240.922C281.226 240.922 312.089 239.29 310.753 220.001C309.418 200.86 312.534 187.654 292.651 187.951C272.917 188.248 269.653 195.815 268.466 202.344C267.427 208.872 273.214 240.922 281.226 240.922Z" fill="#FFB48D"/>
<path d="M268.614 191.661C272.917 185.578 276.626 186.617 278.852 188.1C295.025 177.566 306.895 190.474 306.895 190.474C310.011 204.125 320.398 211.247 320.398 211.247C320.398 211.247 315.056 215.105 301.851 212.731C297.844 211.989 294.135 209.467 290.871 206.202C296.806 214.66 304.373 220.447 304.373 220.447C288.348 214.363 280.633 193.294 279.891 191.068C278.11 192.848 274.698 196.855 273.807 200.564C272.62 205.609 272.62 215.699 269.653 215.55C269.653 215.699 262.086 200.861 268.614 191.661Z" fill="#4A2009"/>
<path d="M276.181 259.172C276.181 259.172 326.481 247.005 348.293 264.959L336.11 337.5L329.5 357.5L336.11 378.111L337.313 417.194L253.302 398.946C253.302 398.946 245.677 383.478 264.521 357.809C283.365 332.288 271.433 295.08 276.181 259.172Z" fill="#FFB48D"/>
<path d="M305.56 400.28C305.56 400.28 305.56 400.725 305.412 401.764C305.412 402.209 305.263 402.654 305.263 403.247C304.818 407.254 304.076 414.821 303.038 424.614C300.367 450.431 308.082 479.857 305.263 512.5C303.038 538.021 289.535 570.469 290.277 573.733C292.651 583.526 290.277 700.595 290.277 700.595C281.968 704.602 269.208 700.595 269.208 700.595C269.208 700.595 246.951 595.099 250.067 580.558C253.183 565.869 247.99 553.405 247.99 553.405C230.778 472.985 236.713 433.135 240.126 411.769C241.164 405.537 245.466 393.455 246.357 390.784C247.099 388.558 240.126 390.784 240.126 390.784C278.259 380.546 305.56 400.28 305.56 400.28Z" fill="#205080"/>
<path d="M337.713 417.67C326.714 422.557 315.714 424.779 305.411 425.075C295.943 425.371 286.893 424.334 278.818 422.409C261.135 418.262 247.629 410.709 242.617 407.451C243.591 401.231 244.566 397.085 245.401 394.419C256.262 386.125 283.134 394.123 305.133 402.86C305.968 403.156 306.664 403.453 307.5 403.749C324.208 410.709 337.713 417.67 337.713 417.67Z" fill="#284663"/>
<path fill-rule="evenodd" clip-rule="evenodd" d="M358.234 269.856C351.408 259.321 326.778 256.354 326.778 256.354L326.897 256.739C326.522 257.82 322.389 268.463 304.224 270.153C285.084 271.933 277.22 259.321 277.22 259.321C277.22 259.321 258.227 261.25 251.105 274.901C245.301 285.965 239.885 305.343 235.772 320.06C233.155 329.422 231.066 336.898 229.739 339.148L202.586 326.981C202.586 326.981 194.574 327.723 191.161 330.097C185.819 333.658 186.116 337.516 186.116 337.516C186.116 337.516 228.552 369.12 239.235 365.559C249.028 362.295 258.821 343.599 264.014 327.426C267.724 338.555 266.833 343.896 266.091 345.528C265.76 346.275 264.656 348.381 263.087 351.374C256.239 364.436 240.535 394.395 241.5 402C249.5 424.5 310.024 428.903 330.5 420C330.756 419.89 331.457 419.673 332.376 419.388C335.189 418.515 340.053 417.006 340.5 416C340.5 399 336 361.5 336 361.5C336 352.647 338.497 344.314 341.126 335.537C343.076 329.031 345.098 322.28 346.231 314.892L360.686 341.248C380.987 389.331 414.645 302.796 414.645 302.796C399.686 303.851 399.152 299.042 399.152 299.042L380.987 324.686C376 309 366.84 283.21 358.234 269.856Z" fill="url(#paint5_linear)"/>
<path d="M335.5 359C335.5 359 341 403 339.894 416.114C324.39 410.185 314.014 389.3 318 364.5C323.791 328.675 347.045 313.03 347.045 313.03C340.5 338 337.976 347.063 335.5 359Z" fill="#37A7F3" fill-opacity="0.7"/>
<path d="M158.052 307.706C158.052 307.706 166.44 319.707 175.286 322.662L178.183 322.322L185.776 331.348C185.776 331.348 189.8 328.234 189.338 319.511C189.338 319.511 187.67 318.137 187.147 316.486C187.147 316.486 189.362 314.37 189.887 312.953C190.411 311.535 190.246 307.487 190.527 305.813C190.807 304.139 194.389 300.221 195.218 299.695C196.046 299.17 199.936 298.498 199.936 298.498C199.936 298.498 200.382 297.018 199.742 296.451C199.102 295.884 194.623 294.421 191.5 297C191.5 297 189.62 298.57 189.345 299.53C189.07 300.49 186.396 303.944 185.961 303.995C185.527 304.046 183.345 302.662 182.362 301.564C181.452 300.458 176.078 291.671 174.77 288.685L174.763 288.614C174.757 288.543 174.757 288.543 174.677 288.481C174.671 288.411 174.671 288.411 174.671 288.411C174.671 288.411 174.671 288.411 174.664 288.34C172.645 285.43 170.515 282.815 167.652 281.268C167.652 281.268 166.094 281.475 165.642 282.884C165.642 282.884 166.596 286.649 169.09 289.781C169.505 290.303 169.935 290.966 170.436 291.621C172.561 294.725 175.063 298.712 175.413 299.313L175.419 299.384L174.315 300.084L170.926 297.557L167.466 295.038L160.863 303.379L161.674 304.212L164.186 306.77L163.048 307.118L160.094 304.54L158.052 307.706Z" fill="url(#paint6_linear)"/>
<path d="M167.562 294.831C167.562 294.831 165.37 294.804 164.187 297.718L164.563 298.599C164.563 298.599 162.437 299.275 160.737 302.89C160.737 302.89 162.849 305.914 167.536 306.857C167.536 306.857 169.576 306.048 169.77 304.246L169.23 303.172L171.004 304.172C171.004 304.172 173.006 304.506 173.605 301.59L167.562 294.831Z" fill="url(#paint7_linear)"/>
<path d="M157.574 306.594C157.574 306.594 156.946 304.601 159.06 302.999L163.838 307.139C163.838 307.139 163.834 308.636 161.988 309.209C161.995 309.28 158.937 308.642 157.574 306.594Z" fill="url(#paint8_linear)"/>
<path d="M164.634 298.516C164.634 298.516 167.052 301.654 169.311 303.099L169.852 304.176C169.852 304.176 165.547 301.974 163.733 299.05C163.733 299.05 164.134 298.646 164.634 298.516Z" fill="#F49C6E"/>
</g>
<path opacity="0.6" d="M176.991 217.255L173.795 308.937C173.695 312.533 170.699 315.429 167.004 315.429H9.10646C5.41121 315.429 2.41508 312.533 2.31522 308.837L0.118027 216.057C0.0181427 212.261 3.11415 209.065 6.90927 209.165L170.299 210.264C174.094 210.264 177.19 213.46 176.991 217.255Z" fill="#22C1E4" fill-opacity="0.71"/>
<path opacity="0.7" d="M176.791 221.948H0.31752L0.0178528 217.154C-0.281754 212.86 3.21375 209.264 7.50822 209.364L170.798 210.663C174.194 210.663 176.891 213.459 176.891 216.855L176.791 221.948Z" fill="url(#paint9_linear)"/>
<path opacity="0.3" d="M167.902 229.34V282.372H113.872V229.041L167.902 229.34Z" fill="url(#paint10_linear)"/>
<path opacity="0.6" d="M38.2689 232.935H61.7388V256.405H38.2689V232.935Z" fill="url(#paint11_linear)"/>
<path d="M10.5046 232.935H33.9744V256.405H10.5046V232.935Z" fill="url(#paint12_linear)"/>
<path d="M66.4325 232.935H89.9024V256.405H66.4325V232.935Z" fill="url(#paint13_linear)"/>
<path d="M10.5049 272.299H85.6084V273.997H10.5049V272.299Z" fill="white"/>
<path d="M70.5276 260.463H84.9091V262.161H70.5276V260.463Z" fill="white"/>
<path d="M42.763 260.463H57.1445V262.161H42.763V260.463Z" fill="white"/>
<path d="M15.0986 260.463H29.4801V262.161H15.0986V260.463Z" fill="white"/>
<path d="M10.5049 275.767H85.6084V277.465H10.5049V275.767Z" fill="white"/>
<path d="M10.5044 278.563H89.9024V280.261H10.5044V278.563Z" fill="white"/>
<path d="M10.5044 281.361H89.9024V283.059H10.5044V281.361Z" fill="white"/>
<path d="M10.5049 292.645H85.6084V294.342H10.5049V292.645Z" fill="white"/>
<path d="M10.5044 295.441H89.9024V297.139H10.5044V295.441Z" fill="white"/>
<path d="M10.5044 298.238H89.9024V299.936H10.5044V298.238Z" fill="white"/>
<path d="M13.7003 284.155H89.9024V285.853H13.7003V284.155Z" fill="white"/>
<path d="M10.5049 286.953H85.6084V288.651H10.5049V286.953Z" fill="white"/>
<path d="M25.585 289.749H89.9024V291.447H25.585V289.749Z" fill="white"/>
<path d="M152.822 271.784C161.311 271.784 168.202 264.893 168.202 256.404C168.202 247.915 161.311 241.023 152.822 241.023C144.333 241.023 137.442 247.915 137.442 256.404C137.442 264.893 144.333 271.784 152.822 271.784ZM152.822 242.022C160.712 242.022 167.203 248.514 167.203 256.404C167.203 264.294 160.712 270.785 152.822 270.785C144.932 270.785 138.44 264.294 138.44 256.404C138.44 248.514 144.832 242.022 152.822 242.022Z" fill="#E0FFFF"/>
<path d="M152.822 264.793C148.189 264.793 144.433 261.037 144.433 256.403C144.433 251.77 148.189 248.014 152.822 248.014C157.455 248.014 161.211 251.77 161.211 256.403C161.211 261.037 157.455 264.793 152.822 264.793Z" fill="white"/>
<path d="M113.872 244.42C122.361 244.42 129.252 237.529 129.252 229.04C129.252 220.551 122.361 213.66 113.872 213.66C105.383 213.66 98.4917 220.551 98.4917 229.04C98.5916 237.529 105.483 244.42 113.872 244.42ZM113.872 214.658C121.762 214.658 128.253 221.15 128.253 229.04C128.253 236.93 121.762 243.421 113.872 243.421C105.982 243.421 99.4904 236.93 99.4904 229.04C99.5903 221.15 105.982 214.658 113.872 214.658Z" fill="#E0FFFF"/>
<path d="M106.16 230.244C105.483 225.94 108.424 221.901 112.728 221.224C117.032 220.547 121.07 223.488 121.748 227.792C122.425 232.096 119.484 236.134 115.18 236.812C110.876 237.489 106.837 234.548 106.16 230.244Z" fill="white"/>
<path d="M4.71193 214.158H59.0421V216.854H4.71193V214.158Z" fill="white"/>
<g opacity="0.9">
<path opacity="0.81" d="M96.2883 432.025H175.626C179.153 432.025 183.025 429.485 183.107 426.274L183.584 367.049C183.666 363.763 180.712 361 177.102 361H94.4833C90.7913 361 87.9197 363.763 88.0018 367.049L88.8068 426.274C88.8888 429.485 92.7604 432.025 96.2883 432.025Z" fill="url(#paint14_linear)"/>
<path d="M106 373.099H167V374.863H106V373.099Z" fill="white"/>
<path d="M136.5 377.348H167V379.112H136.5V377.348Z" fill="white"/>
<path d="M136.5 380.876H167V382.64H136.5V380.876Z" fill="white"/>
<path d="M108.762 380.876H133.018V382.64H108.762V380.876Z" fill="white"/>
<path d="M117.768 384.403H167V386.167H117.768V384.403Z" fill="white"/>
<path d="M149.469 387.932H167V389.696H149.469V387.932Z" fill="white"/>
<path d="M115.607 398.596H145.866V400.36H115.607V398.596Z" fill="white"/>
<path d="M112.124 391.46H167V393.224H112.124V391.46Z" fill="white"/>
<path d="M124.732 395.067H167V396.831H124.732V395.067Z" fill="white"/>
<path d="M147.187 398.596H167V400.36H147.187V398.596Z" fill="white"/>
<path d="M136.5 402.124H167V403.888H136.5V402.124Z" fill="white"/>
<path d="M158.234 405.652H167V407.416H158.234V405.652Z" fill="white"/>
<path d="M122.811 405.652H154.632V407.416H122.811V405.652Z" fill="white"/>
<path d="M115.607 409.102H145.866V410.866H115.607V409.102Z" fill="white"/>
<path d="M147.187 409.102H167V410.866H147.187V409.102Z" fill="white"/>
<path d="M136.5 412.627H167V414.391H136.5V412.627Z" fill="white"/>
<path d="M158.234 416.236H167V418H158.234V416.236Z" fill="white"/>
<path d="M122.811 416.236H154.632V418H122.811V416.236Z" fill="white"/>
</g>
<path d="M445.323 247.889H529.509C538.712 247.889 543.556 242.02 543.832 234.645L544 174.146C544 163.587 538.48 160 531.441 160H443.667C436.629 160 431 163.587 431.108 174.146L431 234.645C431.138 242.02 434.532 247.889 445.323 247.889Z" fill="url(#paint15_linear)"/>
<path d="M441.818 167.841H532.414C533.518 167.841 534.414 168.737 534.414 169.841V222.023C534.414 223.128 533.518 224.023 532.414 224.023H441.818C440.713 224.023 439.818 223.128 439.818 222.023V169.841C439.818 168.737 440.713 167.841 441.818 167.841Z" fill="#3ED01F"/>
<path d="M495.584 195.975L479.566 205.223L479.803 185.254L495.584 195.975Z" fill="white"/>
<path d="M439.818 234.346H534.414V239.423H439.818V234.346Z" fill="#3ED01F"/>
<path d="M509.876 234.346H534.414V239.423H509.876V234.346Z" fill="white"/>
<path d="M212.159 125.527C203.098 125.131 193.335 118.622 190.217 115.535L180.405 126.091C180.641 128.31 188.598 132.849 192.38 133.559C203.647 134.37 212.1 125.842 212.159 125.527Z" fill="url(#paint16_linear)"/>
<path d="M239.186 118.856L212.184 101.062C214.554 104.66 216.988 113.709 212.632 123.006C207.123 134.765 192.124 133.185 192.38 133.559C220.523 139.365 235.311 126.176 239.186 118.856Z" fill="url(#paint17_linear)"/>
<path d="M206.285 124.512C197.43 126.475 186.316 122.714 182.505 120.539L175.759 133.275C176.561 135.358 185.422 137.683 189.259 137.39C200.352 135.257 206.31 124.832 206.285 124.512Z" fill="url(#paint18_linear)"/>
<path d="M230.665 111.073L199.978 100.874C203.198 103.737 207.891 111.847 206.09 121.954C203.812 134.739 188.915 137.095 189.259 137.39C217.946 135.714 228.816 119.147 230.665 111.073Z" fill="url(#paint19_linear)"/>
<path d="M216.345 113.977C216.152 113.893 216.076 113.645 216.176 113.422L217.32 110.869C217.42 110.646 217.657 110.533 217.851 110.617C218.044 110.701 218.12 110.95 218.02 111.173L216.876 113.726C216.776 113.949 216.539 114.061 216.345 113.977Z" fill="#53AE12"/>
<path d="M211.73 112.532C211.474 112.442 211.33 112.185 211.408 111.959L212.301 109.367C212.379 109.141 212.65 109.031 212.906 109.121C213.162 109.211 213.306 109.468 213.228 109.694L212.335 112.286C212.257 112.512 211.986 112.622 211.73 112.532Z" fill="#53AE12"/>
<path d="M220.624 115.5L219.443 115.082C219.197 114.995 219.06 114.743 219.137 114.518L220.017 111.969C220.095 111.744 220.357 111.633 220.604 111.72L221.784 112.137C222.031 112.225 222.168 112.477 222.09 112.702C222.013 112.926 221.75 113.037 221.504 112.95L220.77 112.691L220.17 114.428L220.904 114.687C221.151 114.774 221.288 115.027 221.21 115.251C221.133 115.475 220.87 115.587 220.624 115.5Z" fill="#53AE12"/>
<path d="M220.968 114.177L219.902 113.802C219.661 113.718 219.528 113.473 219.603 113.255C219.679 113.037 219.935 112.929 220.176 113.014L221.242 113.389C221.482 113.473 221.616 113.718 221.541 113.936C221.465 114.154 221.209 114.262 220.968 114.177Z" fill="#53AE12"/>
<path d="M214.535 113.429C213.51 113.058 212.927 112.01 213.238 111.093C213.548 110.177 214.635 109.733 215.661 110.104C216.034 110.239 216.361 110.467 216.606 110.765C216.768 110.962 216.738 111.229 216.538 111.362C216.338 111.495 216.044 111.442 215.882 111.245C215.755 111.091 215.585 110.972 215.391 110.902C214.858 110.709 214.292 110.94 214.131 111.417C213.97 111.893 214.272 112.438 214.806 112.631C214.999 112.701 215.177 112.708 215.335 112.654C215.366 112.644 215.397 112.631 215.427 112.615C215.642 112.504 215.932 112.583 216.073 112.793C216.214 113.003 216.153 113.264 215.937 113.376C215.87 113.41 215.8 113.44 215.728 113.465C215.361 113.591 214.948 113.578 214.535 113.429Z" fill="#53AE12"/>
<path d="M209.615 111.83C209.363 111.742 209.223 111.487 209.302 111.26L210.179 108.745C210.258 108.519 210.527 108.406 210.779 108.494C211.03 108.582 211.171 108.837 211.091 109.064L210.214 111.579C210.135 111.805 209.866 111.918 209.615 111.83Z" fill="#53AE12"/>
<path d="M222.605 116.188C222.353 116.1 222.213 115.845 222.292 115.618L223.17 113.103C223.249 112.877 223.517 112.764 223.769 112.852C224.021 112.94 224.161 113.195 224.082 113.422L223.204 115.937C223.125 116.163 222.857 116.276 222.605 116.188Z" fill="#53AE12"/>
<path d="M211.312 109.468L209.793 108.936C209.553 108.852 209.419 108.609 209.495 108.392C209.57 108.175 209.826 108.068 210.066 108.152L211.585 108.684C211.825 108.768 211.958 109.012 211.883 109.228C211.808 109.445 211.552 109.552 211.312 109.468Z" fill="#53AE12"/>
<path d="M224.302 113.826L222.782 113.294C222.542 113.21 222.409 112.966 222.484 112.749C222.56 112.533 222.815 112.426 223.055 112.51L224.575 113.042C224.815 113.126 224.948 113.369 224.873 113.586C224.797 113.802 224.542 113.91 224.302 113.826Z" fill="#53AE12"/>
<path d="M218.263 114.719C218.152 114.68 218.054 114.603 217.994 114.497L216.931 112.617C216.87 112.508 216.857 112.383 216.897 112.272C216.937 112.161 217.026 112.073 217.142 112.029L218.979 111.34C219.212 111.253 219.489 111.363 219.599 111.587C219.708 111.81 219.608 112.062 219.375 112.15L217.987 112.671L218.812 114.132C218.936 114.35 218.852 114.608 218.626 114.709C218.51 114.76 218.38 114.761 218.263 114.719Z" fill="#53AE12"/>
<path d="M310.052 170.295C310.349 168.96 313.761 155.457 334.683 158.425C334.683 158.425 324.148 157.831 321.625 162.134C321.625 162.134 329.638 157.831 334.979 160.502C340.321 163.321 341.953 173.856 341.508 177.12C340.914 180.385 336.018 190.474 332.16 190.771C330.676 190.92 329.193 190.474 327.709 190.029C328.451 191.661 329.044 193.59 329.638 195.519C334.979 214.066 323.554 229.349 316.729 226.233C312.426 224.304 309.755 231.723 309.755 231.723L271.919 188.397C272.067 188.397 294.027 157.831 310.052 170.295Z" fill="#1E4843"/>
<path d="M285.124 234.097C285.124 234.097 286.163 241.367 286.757 248.341C299.814 247.005 305.749 234.69 308.123 227.865L285.124 234.097Z" fill="#F6A071"/>
<path d="M281.267 240.922C281.267 240.922 312.129 239.29 310.794 220.001C309.458 200.86 312.574 187.654 292.692 187.951C272.958 188.248 269.693 195.815 268.506 202.344C267.468 208.872 273.254 240.922 281.267 240.922Z" fill="#FFB48D"/>
<path fill-rule="evenodd" clip-rule="evenodd" d="M279.146 217.995C278.752 218.433 278.358 218.87 278.052 219.352C277.483 220.139 277.22 221.058 277.745 221.889C278.402 222.94 279.627 223.859 280.852 224.209C280.94 224.252 280.983 224.121 280.896 224.077C280.152 223.815 279.496 223.421 278.927 222.896C278.445 222.502 277.92 221.889 277.789 221.233C277.583 220.246 278.306 219.374 278.902 218.655C278.94 218.61 278.978 218.565 279.014 218.52C280.633 216.507 281.29 213.969 281.29 211.388C281.246 212.963 280.983 214.626 280.327 216.07C280.021 216.77 279.627 217.426 279.146 217.995ZM285.326 221.484C285.358 221.729 285.351 221.976 285.272 222.196C285.14 222.721 284.834 223.027 284.396 223.333C284.353 223.377 284.396 223.421 284.44 223.421C285.334 223.261 285.459 222.31 285.326 221.484ZM285.199 220.945C285.251 221.111 285.295 221.294 285.326 221.484C285.301 221.299 285.254 221.116 285.199 220.945ZM285.097 220.664C285.133 220.75 285.167 220.844 285.199 220.945C285.167 220.846 285.132 220.752 285.097 220.664Z" fill="url(#paint20_linear)"/>
<path d="M292.587 227.2L293.291 228.732C293.291 228.732 294.368 227.697 292.587 227.2Z" fill="#D78A6F"/>
<path d="M276.894 226L276.066 227.201C276.066 227.201 275.652 226.248 276.894 226Z" fill="#D78A6F"/>
<path d="M293.208 228.112L292.753 228.692C292.753 228.692 288.943 232.045 285.299 233.205C281.656 234.364 279.447 233.265 278.501 231.846C278.501 231.846 278.028 231.373 277.888 230.058C277.774 228.987 276.728 227.077 276.728 227.077C276.728 227.077 278.053 227.159 278.219 227.242C278.385 227.284 280.372 228.36 280.372 228.36C280.372 228.36 283.063 229.354 283.229 229.313C283.395 229.271 290.144 228.36 290.144 228.36L293.208 228.112Z" fill="#FE56AB"/>
<path d="M292.752 228.153C292.752 228.153 289.191 230.886 284.885 231.424C283.395 231.631 280.206 231.921 279.254 230.058C279.13 229.851 279.006 229.437 278.964 229.188C278.757 228.402 278.302 227.698 277.598 227.284L279.792 227.366L281.656 228.07L282.815 228.319L284.264 228.112H289.854L292.752 228.153Z" fill="white"/>
<path d="M291.593 228.112H292.752C292.752 228.112 291.924 228.733 290.558 229.478C291.096 228.857 291.51 228.236 291.51 228.236L291.593 228.112ZM278.633 227.325L278.716 227.615C278.716 227.615 278.757 228.319 278.84 228.981C278.633 228.278 278.136 227.698 277.556 227.325H278.633Z" fill="black"/>
<path d="M276.397 226.704C277.805 227.781 280.703 228.195 280.703 228.195C282.277 229.188 283.188 228.526 283.188 228.526C286.707 228.65 289.854 228.65 293.332 228.029C293.332 228.029 286.666 227.574 282.815 227.532L281.904 227.988L281.117 227.408C281.117 227.408 278.716 226.911 278.012 226.828C277.308 226.746 276.397 226.704 276.397 226.704Z" fill="#FE56AB"/>
<path d="M293.374 228.069C291.345 228.442 289.316 228.649 287.287 228.691C286.252 228.732 285.175 228.691 284.14 228.691C283.892 228.691 283.643 228.691 283.353 228.649C283.229 228.649 283.271 228.608 283.229 228.649C283.105 228.732 282.981 228.773 282.815 228.815C282.235 228.98 281.614 228.773 281.076 228.525C280.91 228.442 280.786 228.318 280.579 228.277C280.372 228.235 280.207 228.194 279.999 228.152C278.757 227.904 277.349 227.573 276.397 226.744C276.356 226.703 276.397 226.62 276.48 226.662C277.557 227.366 278.799 227.738 280.082 227.987C280.372 228.028 280.703 228.069 280.952 228.194C281.532 228.566 282.277 228.773 282.981 228.566C283.022 228.566 283.188 228.484 283.188 228.442C283.271 228.359 283.478 228.442 283.56 228.442C283.809 228.442 284.057 228.442 284.347 228.484C285.341 228.525 286.335 228.525 287.328 228.525C289.316 228.484 291.345 228.359 293.374 228.069C293.374 228.028 293.374 228.069 293.374 228.069Z" fill="#EA448A"/>
<path d="M281 204C281 204 278.698 202.772 277.623 202.084C276.753 201.495 272.558 200.758 270 203.607C270 203.607 269.898 202.576 272.558 200.758C275.219 198.99 280.488 200.414 281 204Z" fill="#1E4843"/>
<path d="M304.394 206.188C304.394 206.188 301.549 202.425 295.38 202.556C290.61 202.688 290.304 203.388 288.86 202.163C288.86 202.163 289.297 201.2 292.098 200.981C294.898 200.762 301.331 200.762 304.394 206.188Z" fill="black"/>
<path d="M290.785 212.971C292.667 208.772 296.08 208.436 298.793 209.545C300.368 210.183 301.418 211.023 301.987 211.561C303.693 212.3 304.744 211.124 304.744 211.124C304.175 211.964 303.125 212.199 302.556 212.3C300.28 214.55 296.78 214.886 296.78 214.886C296.78 214.886 291.923 213.543 291.179 213.274C290.479 213.072 290.785 212.971 290.785 212.971Z" fill="#1E4843"/>
<path d="M290.654 213.375C291.748 211.225 293.279 208.874 296.736 209.68C298.53 210.083 300.193 210.923 301.724 212.535C301.724 212.535 299.624 214.484 296.386 214.92C293.148 215.357 291.485 213.711 291.485 213.711L290.523 213.677L290.654 213.375Z" fill="white"/>
<path d="M293.892 211.93C293.892 210.889 294.636 209.982 295.686 209.545C296.036 209.545 296.386 209.612 296.78 209.679C298.093 209.982 299.361 210.486 300.543 211.393C300.587 211.56 300.587 211.728 300.587 211.896C300.587 212.871 299.93 213.744 298.968 214.214C298.793 214.281 298.574 214.382 298.355 214.449C298.005 214.55 297.655 214.617 297.261 214.617C295.38 214.617 293.892 213.408 293.892 211.93Z" fill="url(#paint21_linear)"/>
<path d="M295.248 211.931C295.248 212.804 296.123 213.51 297.217 213.51C298.311 213.51 299.186 212.804 299.186 211.931C299.186 211.057 298.311 210.352 297.217 210.352C296.123 210.352 295.248 211.057 295.248 211.931Z" fill="#1E4843"/>
<path d="M295.423 211.93C295.423 212.736 296.211 213.374 297.217 213.374C298.18 213.374 299.011 212.736 299.011 211.93C299.011 211.124 298.224 210.485 297.217 210.485C296.255 210.485 295.423 211.124 295.423 211.93Z" fill="url(#paint22_linear)"/>
<path d="M301.724 212.535C300.849 211.661 299.799 210.855 298.486 210.318C297.392 209.847 296.08 209.478 294.811 209.646C292.448 209.948 291.485 211.964 290.654 213.408C290.654 213.442 290.566 213.408 290.566 213.375C291.266 211.829 292.492 209.78 294.855 209.478C296.08 209.31 297.392 209.713 298.486 210.15C299.843 210.721 300.893 211.594 301.724 212.535C301.768 212.535 301.724 212.535 301.724 212.535Z" fill="#1E4843"/>
<path d="M269 209.245C269 209.245 270.191 210.328 271.219 209.75C271.652 208.884 272.572 207.441 274.088 207.007C276.308 206.358 279.5 206 280.5 210.5C281.125 213.315 274.954 212.674 274.954 212.674C274.954 212.674 272.194 211.735 271.111 210.616C270.624 210.436 269.595 209.967 269 209.245Z" fill="#1E4843"/>
<path d="M271.761 210.509C272.518 208.632 274.467 206.863 277.228 207.297C279.664 207.657 280.259 210.797 280.259 212.53V212.71L279.339 212.53C279.339 212.53 277.607 213.179 275.55 212.818C273.547 212.457 271.761 210.509 271.761 210.509Z" fill="white"/>
<path d="M277.444 212.638C275.712 212.638 274.251 211.339 274.251 209.751C274.251 208.705 274.9 207.766 275.821 207.261C276.254 207.225 276.687 207.225 277.174 207.297C279.123 207.586 279.88 209.607 280.097 211.303C279.556 212.097 278.581 212.638 277.444 212.638Z" fill="url(#paint23_linear)"/>
<path d="M275.604 209.751C275.604 210.69 276.416 211.448 277.445 211.448C278.473 211.448 279.285 210.69 279.285 209.751C279.285 208.813 278.473 208.055 277.445 208.055C276.416 208.091 275.604 208.813 275.604 209.751Z" fill="#1E4843"/>
<path d="M275.767 209.752C275.767 210.582 276.524 211.267 277.445 211.267C278.365 211.267 279.123 210.582 279.123 209.752C279.123 208.922 278.365 208.236 277.445 208.236C276.524 208.236 275.767 208.922 275.767 209.752Z" fill="url(#paint24_linear)"/>
<path d="M280.205 212.565C280.205 211.699 280.097 210.869 279.826 210.039C279.555 209.209 279.122 208.342 278.148 207.765C277.065 207.115 275.441 207.368 274.359 207.873C273.005 208.523 272.41 209.606 271.815 210.58C271.76 210.652 271.652 210.616 271.652 210.544C271.923 209.497 272.789 208.379 274.088 207.729C275.171 207.188 276.741 206.971 277.931 207.476C279.014 207.945 279.447 208.92 279.718 209.678C280.097 210.616 280.259 211.591 280.205 212.565C280.259 212.565 280.205 212.565 280.205 212.565Z" fill="#1E4843"/>
<path d="M268.655 191.661C272.958 185.578 276.667 186.617 278.893 188.1C295.066 177.566 306.936 190.474 306.936 190.474C310.052 204.125 320.438 211.247 320.438 211.247C320.438 211.247 316.206 213.621 303 211.247C298.994 210.505 293.264 208.264 290 205C295.935 213.458 304.414 220.447 304.414 220.447C288.389 214.363 280.673 193.294 279.931 191.068C278.151 192.848 274.738 196.855 273.848 200.564C272.661 205.609 272.661 215.699 269.693 215.55C269.693 215.699 262.126 200.861 268.655 191.661Z" fill="#1E4843"/>
<defs>
<linearGradient id="paint0_linear" x1="662.225" y1="407.293" x2="487.145" y2="485.555" gradientUnits="userSpaceOnUse">
<stop stop-color="#6BDD24"/>
<stop offset="1" stop-color="#39CA21"/>
</linearGradient>
<linearGradient id="paint1_linear" x1="514.93" y1="438.036" x2="477.919" y2="427.888" gradientUnits="userSpaceOnUse">
<stop stop-color="#6BDD24"/>
<stop offset="0.807292" stop-color="#6DDE24"/>
</linearGradient>
<linearGradient id="paint2_linear" x1="662.394" y1="-157.267" x2="803.039" y2="741.196" gradientUnits="userSpaceOnUse">
<stop stop-color="#FFEC00" stop-opacity="0.75"/>
<stop offset="1" stop-color="#F5F13C" stop-opacity="0.45"/>
</linearGradient>
<linearGradient id="paint3_linear" x1="418.564" y1="289.981" x2="425.727" y2="274.073" gradientUnits="userSpaceOnUse">
<stop offset="0.0159875" stop-color="#FFB48D"/>
<stop offset="1" stop-color="#FFB48D"/>
</linearGradient>
<linearGradient id="paint4_linear" x1="401.447" y1="303.801" x2="419.8" y2="262.922" gradientUnits="userSpaceOnUse">
<stop offset="0.0159875" stop-color="#FFB48D"/>
<stop offset="1" stop-color="#FFB48D"/>
</linearGradient>
<linearGradient id="paint5_linear" x1="230" y1="291.566" x2="352.081" y2="366.019" gradientUnits="userSpaceOnUse">
<stop offset="0.0789326" stop-color="#1392E8"/>
<stop offset="1" stop-color="#5FBFFF"/>
</linearGradient>
<linearGradient id="paint6_linear" x1="181.868" y1="331.809" x2="175.617" y2="278.667" gradientUnits="userSpaceOnUse">
<stop offset="0.0159875" stop-color="#FFB48D"/>
<stop offset="1" stop-color="#FFB48D"/>
</linearGradient>
<linearGradient id="paint7_linear" x1="167.66" y1="306.745" x2="166.272" y2="294.946" gradientUnits="userSpaceOnUse">
<stop stop-color="#FFB48D"/>
<stop offset="0.984" stop-color="#FFC2A9"/>
</linearGradient>
<linearGradient id="paint8_linear" x1="160.93" y1="309.371" x2="160.167" y2="302.891" gradientUnits="userSpaceOnUse">
<stop stop-color="#FFCEB5"/>
<stop offset="0.984" stop-color="#FFC2A9"/>
</linearGradient>
<linearGradient id="paint9_linear" x1="176.895" y1="215.603" x2="0.0634006" y2="215.603" gradientUnits="userSpaceOnUse">
<stop stop-color="#20B7D9"/>
<stop offset="1" stop-color="#20B7D9"/>
</linearGradient>
<linearGradient id="paint10_linear" x1="140.923" y1="282.392" x2="140.923" y2="229.058" gradientUnits="userSpaceOnUse">
<stop stop-color="#CBF3FC"/>
<stop offset="1" stop-color="#CBF3FC"/>
</linearGradient>
<linearGradient id="paint11_linear" x1="49.9811" y1="256.388" x2="49.9811" y2="232.896" gradientUnits="userSpaceOnUse">
<stop stop-color="white"/>
<stop offset="1" stop-color="white"/>
</linearGradient>
<linearGradient id="paint12_linear" x1="22.2632" y1="256.388" x2="22.2632" y2="232.896" gradientUnits="userSpaceOnUse">
<stop stop-color="#C3F1F2"/>
<stop offset="1" stop-color="#CBF3FC"/>
</linearGradient>
<linearGradient id="paint13_linear" x1="78.1618" y1="256.388" x2="78.1618" y2="232.896" gradientUnits="userSpaceOnUse">
<stop stop-color="#C7F2F7"/>
<stop offset="1" stop-color="#C9F2F9"/>
</linearGradient>
<linearGradient id="paint14_linear" x1="142.155" y1="435.886" x2="133.079" y2="356.499" gradientUnits="userSpaceOnUse">
<stop stop-color="#A1E4F4"/>
<stop offset="1" stop-color="#A1E4F4"/>
</linearGradient>
<linearGradient id="paint15_linear" x1="487.507" y1="247.921" x2="487.507" y2="160.071" gradientUnits="userSpaceOnUse">
<stop stop-color="#D7F2EC"/>
<stop offset="1" stop-color="#D5F5EE"/>
</linearGradient>
<linearGradient id="paint16_linear" x1="206.563" y1="131.002" x2="188.267" y2="115.495" gradientUnits="userSpaceOnUse">
<stop stop-color="#B8EBFB"/>
<stop offset="1" stop-color="#BAEFFB"/>
</linearGradient>
<linearGradient id="paint17_linear" x1="220.218" y1="102.57" x2="213.648" y2="137.565" gradientUnits="userSpaceOnUse">
<stop stop-color="#C7EFFC"/>
<stop offset="1" stop-color="#99E1F8"/>
</linearGradient>
<linearGradient id="paint18_linear" x1="202.297" y1="131.249" x2="180.611" y2="121.006" gradientUnits="userSpaceOnUse">
<stop stop-color="#80E438"/>
<stop offset="1" stop-color="#BDF992"/>
</linearGradient>
<linearGradient id="paint19_linear" x1="208.128" y1="100.252" x2="210.84" y2="135.754" gradientUnits="userSpaceOnUse">
<stop stop-color="#72DF24"/>
<stop offset="1" stop-color="#C9FDA3"/>
</linearGradient>
<linearGradient id="paint20_linear" x1="281.434" y1="210.881" x2="281.434" y2="220.223" gradientUnits="userSpaceOnUse">
<stop stop-color="#F5C2A4"/>
<stop offset="1" stop-color="#BA523B"/>
</linearGradient>
<linearGradient id="paint21_linear" x1="297.215" y1="209.871" x2="297.215" y2="213.901" gradientUnits="userSpaceOnUse">
<stop stop-color="#0E6299"/>
<stop offset="1" stop-color="#0E6299"/>
</linearGradient>
<linearGradient id="paint22_linear" x1="297.215" y1="211.853" x2="297.215" y2="213.9" gradientUnits="userSpaceOnUse">
<stop stop-color="#132F2B"/>
<stop offset="1" stop-color="#15332F"/>
</linearGradient>
<linearGradient id="paint23_linear" x1="277.207" y1="207.578" x2="277.207" y2="211.878" gradientUnits="userSpaceOnUse">
<stop stop-color="#0E6299"/>
<stop offset="1" stop-color="#0E6299"/>
</linearGradient>
<linearGradient id="paint24_linear" x1="277.455" y1="209.693" x2="277.455" y2="211.878" gradientUnits="userSpaceOnUse">
<stop stop-color="#132D2A"/>
<stop offset="1" stop-color="#2C2E2D"/>
</linearGradient>
</defs>
</svg>
