<svg width="62" height="75" viewBox="0 0 62 75" fill="none" xmlns="http://www.w3.org/2000/svg">
<path fill-rule="evenodd" clip-rule="evenodd" d="M3.5847 18.953H57.5942C59.5705 18.953 61.1788 20.5613 61.1788 22.5377V58.1457C61.1788 60.1221 59.5705 61.7304 57.5942 61.7304H3.5847C1.60833 61.7304 0 60.1221 0 58.1457V22.5377C0 20.5613 1.60833 18.953 3.5847 18.953ZM40.0288 70.5727H49.7075C50.6968 70.5727 51.4998 71.3757 51.4998 72.3651C51.4998 73.3545 50.6968 74.1574 49.7075 74.1574H11.4707C10.4813 74.1574 9.67832 73.3545 9.67832 72.3651C9.67832 71.3757 10.4813 70.5727 11.4707 70.5727H21.1494V65.3152H40.0288V70.5727Z" fill="url(#paint0_linear)"/>
<circle cx="30.8484" cy="26.8107" r="21.2642" fill="#67D9F8" fill-opacity="0.4"/>
<path d="M51.8033 22.5634C50.3313 24.2157 48.8893 25.9957 47.8828 28.4514C47.4248 29.5855 46.3358 30.3215 45.1115 30.3215C43.8799 30.3215 42.7909 29.5855 42.3253 28.444C41.1611 25.59 39.3962 23.6449 37.6839 21.7673C37.2558 21.2942 36.8277 20.821 36.4072 20.3329C36.3847 20.3404 36.3695 20.3479 36.3472 20.3554C34.6799 20.8585 33.3955 23.0665 34.1691 24.8615C34.6949 26.0932 38.3824 25.8604 38.0671 28.5115C37.8042 30.6819 40.6429 31.2527 41.6493 31.1476C42.6558 31.0275 44.2029 32.7999 43.4218 33.581C42.6483 34.3621 41.1837 34.3921 41.409 36.4049C41.469 36.9907 43.2416 36.9156 43.2416 37.8018C43.2416 38.6955 42.3254 39.7094 43.0313 40.7384C43.1816 40.9636 43.3392 41.1364 43.5045 41.2715C40.1098 44.3958 35.5811 46.3109 30.6168 46.3109C20.1249 46.3109 11.5932 37.7792 11.5932 27.2874C11.5932 24.1031 12.3819 21.0989 13.7712 18.4552C13.7637 21.8724 15.5887 24.7113 16.4449 25.5675C19.2387 28.3538 23.2868 27.475 23.8049 29.8107C24.3306 32.1389 21.0261 32.1465 21.2439 33.9263C21.4691 35.7138 25.7726 36.187 24.8113 37.8317C23.542 40.0171 25.6675 40.1749 25.0517 42.871C24.7212 44.3431 26.8466 44.6284 27.6352 43.5094C28.236 42.6533 28.1159 41.6018 29.325 40.3176C30.8045 38.7404 34.2368 38.4851 33.8537 35.8789C33.2003 31.5531 28.9946 30.8771 27.162 29.8631C25.0817 28.7217 25.5924 25.9804 25.1418 24.6736C24.5109 22.8186 22.3704 25.1919 21.2289 24.1104C19.3513 22.3379 21.5668 19.8295 23.144 19.8821C26.471 19.9872 27.4924 23.2242 28.7165 23.1115C29.9107 23.0063 30.6843 21.339 30.8945 20.4529C31.3377 18.5227 30.1435 19.3864 29.6629 18.38C29.017 17.0357 31.931 15.7514 33.0575 14.7601C33.2303 14.6099 33.3579 14.4672 33.4255 14.332C33.7636 13.6711 33.3204 13.1679 32.5694 12.7097C31.0674 11.8009 28.3261 11.08 28.1985 9.66061C28.1233 8.78934 29.7907 8.36883 31.6907 8.29373C32.0061 8.30878 32.314 8.33881 32.6296 8.36883C32.7872 7.47506 33.0425 6.59634 33.388 5.75525C32.4793 5.63508 31.5556 5.57495 30.6167 5.57495C18.6453 5.57495 8.90454 15.3157 8.90454 27.2871C8.90446 39.2589 18.6453 48.9997 30.6167 48.9997C42.5881 48.9997 52.329 39.2588 52.329 27.2874C52.329 25.6652 52.1487 24.0806 51.8033 22.5634ZM44.0899 0.0478626C37.9607 0.627217 33.7627 6.56624 34.8325 12.6292C35.9188 18.7879 41.5972 20.6836 44.4152 27.5968C44.6692 28.2198 45.5463 28.2229 45.8001 27.5999C48.9239 19.9323 55.5661 18.436 55.5661 10.4573C55.566 4.3457 50.3233 -0.54134 44.0899 0.0478626ZM45.1083 15.9801C42.0581 15.9801 39.5854 13.5075 39.5854 10.4573C39.5854 7.40725 42.0581 4.93466 45.1083 4.93466C48.1584 4.93466 50.6309 7.40725 50.6309 10.4573C50.6309 13.5074 48.1583 15.9801 45.1083 15.9801Z" fill="#50B7FC" fill-opacity="0.85"/>
<defs>
<linearGradient id="paint0_linear" x1="30.0332" y1="15.0598" x2="30.0333" y2="80.1319" gradientUnits="userSpaceOnUse">
<stop stop-color="#0DB817"/>
<stop offset="1" stop-color="#93F055"/>
</linearGradient>
</defs>
</svg>
