<svg width="360" height="689" viewBox="0 0 360 689" fill="none" xmlns="http://www.w3.org/2000/svg">
<path opacity="0.7" d="M-26.8084 570.707C-87.1289 565.815 -166.077 587.29 -203.205 604.882C-248.632 633.511 -82.2845 694.861 -45.0115 665.012C-0.649689 629.486 176.459 649.438 149.155 617.859C121.85 586.28 42.5367 576.331 -26.8084 570.707Z" fill="#EBFAFC"/>
<path d="M-103.013 541.846C-233.506 541.846 -392.043 639.949 -455 689V0H985V643.941C925.095 629.302 784.224 598.198 699.976 590.897C594.666 581.771 406.098 621.274 248.402 610.86C153.394 604.586 60.1033 541.846 -103.013 541.846Z" fill="url(#paint0_linear)"/>
<defs>
<linearGradient id="paint0_linear" x1="-455" y1="368.5" x2="984.999" y2="344.967" gradientUnits="userSpaceOnUse">
<stop stop-color="#EBF9FD"/>
<stop offset="1" stop-color="#EBFDF5"/>
</linearGradient>
</defs>
</svg>
