<svg width="1440" height="672" viewBox="0 0 1440 672" fill="none" xmlns="http://www.w3.org/2000/svg">
<path opacity="0.7" d="M368.192 550.707C307.871 545.815 228.923 567.29 191.795 584.882C146.368 613.511 312.716 674.861 349.988 645.012C394.35 609.486 571.459 629.438 544.155 597.859C516.85 566.28 437.537 556.331 368.192 550.707Z" fill="#EBFAFC"/>
<path d="M351.987 524.846C221.494 524.846 62.9571 622.949 0 672V59H1440V626.941C1380.1 612.302 1239.22 581.198 1154.98 573.897C1049.67 564.772 861.098 604.274 703.402 593.86C608.394 587.586 515.103 524.846 351.987 524.846Z" fill="url(#paint0_linear)"/>
<path d="M1339.27 411.469C1342.05 358.788 1259.99 299.711 1247.76 366.666C1239.75 423.352 1212.91 419.367 1206.52 450.73C1197.95 492.368 1251.69 516.245 1251.67 516.306C1313.96 541.515 1336.05 472.678 1339.27 411.469Z" fill="url(#paint1_linear)"/>
<path d="M154.166 202V187.878H168.702V202H175.28V169.8H168.702V181.852H154.166V169.8H147.542V202H154.166ZM188.703 195.1C187.507 193.858 186.909 192.34 186.909 190.5C186.909 188.66 187.507 187.142 188.703 185.946C189.899 184.704 191.417 184.106 193.257 184.106C195.097 184.106 196.615 184.704 197.811 185.946C199.007 187.142 199.605 188.66 199.605 190.5C199.605 192.34 199.007 193.858 197.811 195.1C196.615 196.342 195.097 196.94 193.257 196.94C191.417 196.94 189.899 196.342 188.703 195.1ZM180.515 190.5C180.515 193.95 181.711 196.802 184.103 199.148C186.495 201.448 189.531 202.598 193.257 202.598C196.983 202.598 200.019 201.448 202.411 199.148C204.803 196.802 205.999 193.95 205.999 190.5C205.999 187.142 204.803 184.29 202.411 181.944C200.019 179.598 196.983 178.448 193.257 178.448C189.531 178.448 186.495 179.598 184.103 181.944C181.711 184.244 180.515 187.096 180.515 190.5ZM219.247 202.598C222.329 202.598 224.813 201.954 226.699 200.62C228.585 199.286 229.505 197.584 229.505 195.422C229.505 191.42 226.975 189.304 222.007 188.154L219.569 187.648C219.017 187.464 218.097 187.234 217.591 187.05C216.901 186.636 216.303 186.314 216.303 185.532C216.303 184.29 217.545 183.692 219.983 183.692C222.789 183.692 225.549 184.474 228.309 186.084V180.564C226.055 179.138 223.157 178.448 219.707 178.448C213.405 178.448 209.587 181.116 209.587 185.486C209.587 189.534 211.749 191.19 217.039 192.616C217.453 192.754 218.097 192.892 218.879 193.122L220.581 193.536C220.949 193.628 221.363 193.766 221.777 193.95C222.651 194.318 222.927 194.778 222.927 195.376C222.927 196.664 221.593 197.308 218.971 197.308C215.245 197.308 211.611 196.02 209.587 194.686V200.436C211.933 201.862 215.153 202.598 219.247 202.598ZM236.484 194.87C236.484 200.022 238.968 202.598 243.982 202.598C246.328 202.598 248.122 202.184 249.456 201.356V195.974C248.352 196.526 247.248 196.802 246.098 196.802C243.89 196.802 242.97 195.836 242.97 193.582V184.474H249.502V179.046H242.97V172.744H236.484V179.046H231.976V184.474H236.484V194.87ZM282.543 202V187.418L294.963 169.8H287.373L279.323 181.254L271.319 169.8H263.499L275.965 187.556V202H282.543ZM299.66 195.1C298.464 193.858 297.866 192.34 297.866 190.5C297.866 188.66 298.464 187.142 299.66 185.946C300.856 184.704 302.374 184.106 304.214 184.106C306.054 184.106 307.572 184.704 308.768 185.946C309.964 187.142 310.562 188.66 310.562 190.5C310.562 192.34 309.964 193.858 308.768 195.1C307.572 196.342 306.054 196.94 304.214 196.94C302.374 196.94 300.856 196.342 299.66 195.1ZM291.472 190.5C291.472 193.95 292.668 196.802 295.06 199.148C297.452 201.448 300.488 202.598 304.214 202.598C307.94 202.598 310.976 201.448 313.368 199.148C315.76 196.802 316.956 193.95 316.956 190.5C316.956 187.142 315.76 184.29 313.368 181.944C310.976 179.598 307.94 178.448 304.214 178.448C300.488 178.448 297.452 179.598 295.06 181.944C292.668 184.244 291.472 187.096 291.472 190.5ZM337.38 193.674C336.276 195.376 334.206 196.664 332.182 196.664C329.79 196.664 327.812 195.33 327.812 191.788V179.046H321.326V193.122C321.326 199.01 324.362 202.598 329.698 202.598C332.78 202.598 335.31 201.494 337.38 199.24V202H343.866V179.046H337.38V193.674ZM356.707 202V188.614C357.627 186.544 360.295 184.612 363.423 184.612C364.205 184.612 364.895 184.704 365.447 184.842V178.494C365.263 178.448 365.033 178.448 364.711 178.448C363.009 178.448 361.399 178.908 359.927 179.782C358.455 180.656 357.397 181.714 356.707 182.91V179.046H350.221V202H356.707ZM405.96 202V196.066H388.434V187.786H402.142V181.944H388.434V175.734H405.454V169.8H381.81V202H405.96ZM423.261 202.184L433.243 179.046H426.481L420.455 193.95L414.383 179.046H407.391L417.373 202.184H423.261ZM447.83 202.598C451.602 202.598 454.5 201.816 456.57 200.252V195.054C454.224 196.388 451.786 197.078 449.21 197.078C445.162 197.078 442.218 195.422 441.528 192.294H457.996V190.592C457.996 187.188 456.984 184.336 455.006 181.99C453.028 179.644 450.406 178.448 447.048 178.448C443.506 178.448 440.608 179.598 438.4 181.944C436.192 184.244 435.088 187.096 435.088 190.5C435.088 194.134 436.33 197.078 438.768 199.286C441.206 201.494 444.242 202.598 447.83 202.598ZM441.528 188.154C441.85 185.44 443.828 183.554 446.772 183.554C449.67 183.554 451.464 185.624 451.602 188.154H441.528ZM469.461 187.372C470.565 185.67 472.635 184.382 474.659 184.382C477.051 184.382 479.029 185.716 479.029 189.258V202H485.515V187.924C485.515 182.036 482.479 178.448 477.143 178.448C474.061 178.448 471.531 179.552 469.461 181.806V179.046H462.975V202H469.461V187.372ZM493.572 194.87C493.572 200.022 496.056 202.598 501.07 202.598C503.416 202.598 505.21 202.184 506.544 201.356V195.974C505.44 196.526 504.336 196.802 503.186 196.802C500.978 196.802 500.058 195.836 500.058 193.582V184.474H506.59V179.046H500.058V172.744H493.572V179.046H489.064V184.474H493.572V194.87ZM520.179 202.598C523.261 202.598 525.745 201.954 527.631 200.62C529.517 199.286 530.437 197.584 530.437 195.422C530.437 191.42 527.907 189.304 522.939 188.154L520.501 187.648C519.949 187.464 519.029 187.234 518.523 187.05C517.833 186.636 517.235 186.314 517.235 185.532C517.235 184.29 518.477 183.692 520.915 183.692C523.721 183.692 526.481 184.474 529.241 186.084V180.564C526.987 179.138 524.089 178.448 520.639 178.448C514.337 178.448 510.519 181.116 510.519 185.486C510.519 189.534 512.681 191.19 517.971 192.616C518.385 192.754 519.029 192.892 519.811 193.122L521.513 193.536C521.881 193.628 522.295 193.766 522.709 193.95C523.583 194.318 523.859 194.778 523.859 195.376C523.859 196.664 522.525 197.308 519.903 197.308C516.177 197.308 512.543 196.02 510.519 194.686V200.436C512.865 201.862 516.085 202.598 520.179 202.598Z" fill="#20B7D9"/>
<path d="M154.166 262V248.108H167.276V242.266H154.166V235.734H171.14V229.8H147.542V262H154.166ZM181.062 262V248.614C181.982 246.544 184.65 244.612 187.778 244.612C188.56 244.612 189.25 244.704 189.802 244.842V238.494C189.618 238.448 189.388 238.448 189.066 238.448C187.364 238.448 185.754 238.908 184.282 239.782C182.81 240.656 181.752 241.714 181.062 242.91V239.046H174.576V262H181.062ZM200.698 255.1C199.502 253.858 198.904 252.34 198.904 250.5C198.904 248.66 199.502 247.142 200.698 245.946C201.894 244.704 203.412 244.106 205.252 244.106C207.092 244.106 208.61 244.704 209.806 245.946C211.002 247.142 211.6 248.66 211.6 250.5C211.6 252.34 211.002 253.858 209.806 255.1C208.61 256.342 207.092 256.94 205.252 256.94C203.412 256.94 201.894 256.342 200.698 255.1ZM192.51 250.5C192.51 253.95 193.706 256.802 196.098 259.148C198.49 261.448 201.526 262.598 205.252 262.598C208.978 262.598 212.014 261.448 214.406 259.148C216.798 256.802 217.994 253.95 217.994 250.5C217.994 247.142 216.798 244.29 214.406 241.944C212.014 239.598 208.978 238.448 205.252 238.448C201.526 238.448 198.49 239.598 196.098 241.944C193.706 244.244 192.51 247.096 192.51 250.5ZM229.264 262V247.418C230.184 245.716 232.208 244.382 234.094 244.382C236.624 244.382 237.912 245.946 237.912 249.12V262H244.398V247.51C245.272 245.716 247.204 244.382 249.182 244.382C251.712 244.382 253 245.946 253 249.12V262H259.486V247.648C259.486 241.622 256.22 238.448 251.298 238.448C247.986 238.448 244.904 240.104 243.386 242.358C242.42 240.196 239.706 238.448 236.256 238.448C233.312 238.448 230.966 239.598 229.264 241.852V239.046H222.778V262H229.264ZM281.641 262L284.815 254.548H298.431L301.605 262H308.643L294.843 229.616H288.495L274.695 262H281.641ZM291.623 237.896L296.315 249.074H286.885L291.623 237.896ZM319.017 247.372C320.121 245.67 322.191 244.382 324.215 244.382C326.607 244.382 328.585 245.716 328.585 249.258V262H335.071V247.924C335.071 242.036 332.035 238.448 326.699 238.448C323.617 238.448 321.087 239.552 319.017 241.806V239.046H312.531V262H319.017V247.372ZM343.957 271.476C348.051 271.476 351.087 269.13 353.111 264.392L363.737 239.046H356.883L351.133 254.134L345.061 239.046H338.069L347.959 261.218C346.625 264.392 345.199 265.818 342.853 265.818C341.611 265.818 340.415 265.496 339.357 264.898V270.556C340.507 271.154 342.071 271.476 343.957 271.476ZM378.6 262.184L383.338 248.338L388.122 262.184H393.734L401.6 239.046H395.16L390.698 252.708L386.052 238.954H380.854L376.346 252.708L371.792 239.046H365.306L373.08 262.184H378.6ZM412.14 247.372C413.244 245.67 415.314 244.382 417.338 244.382C419.73 244.382 421.708 245.716 421.708 249.258V262H428.194V247.924C428.194 242.036 425.158 238.448 419.822 238.448C416.786 238.448 414.21 239.598 412.14 241.852V229.8H405.654V262H412.14V247.372ZM445.314 262.598C449.086 262.598 451.984 261.816 454.054 260.252V255.054C451.708 256.388 449.27 257.078 446.694 257.078C442.646 257.078 439.702 255.422 439.012 252.294H455.48V250.592C455.48 247.188 454.468 244.336 452.49 241.99C450.512 239.644 447.89 238.448 444.532 238.448C440.99 238.448 438.092 239.598 435.884 241.944C433.676 244.244 432.572 247.096 432.572 250.5C432.572 254.134 433.814 257.078 436.252 259.286C438.69 261.494 441.726 262.598 445.314 262.598ZM439.012 248.154C439.334 245.44 441.312 243.554 444.256 243.554C447.154 243.554 448.948 245.624 449.086 248.154H439.012ZM466.945 262V248.614C467.865 246.544 470.533 244.612 473.661 244.612C474.443 244.612 475.133 244.704 475.685 244.842V238.494C475.501 238.448 475.271 238.448 474.949 238.448C473.247 238.448 471.637 238.908 470.165 239.782C468.693 240.656 467.635 241.714 466.945 242.91V239.046H460.459V262H466.945ZM491.134 262.598C494.906 262.598 497.804 261.816 499.874 260.252V255.054C497.528 256.388 495.09 257.078 492.514 257.078C488.466 257.078 485.522 255.422 484.832 252.294H501.3V250.592C501.3 247.188 500.288 244.336 498.31 241.99C496.332 239.644 493.71 238.448 490.352 238.448C486.81 238.448 483.912 239.598 481.704 241.944C479.496 244.244 478.392 247.096 478.392 250.5C478.392 254.134 479.634 257.078 482.072 259.286C484.51 261.494 487.546 262.598 491.134 262.598ZM484.832 248.154C485.154 245.44 487.132 243.554 490.076 243.554C492.974 243.554 494.768 245.624 494.906 248.154H484.832ZM154.35 322V289.8H147.772V322H154.35ZM167.765 307.372C168.869 305.67 170.939 304.382 172.963 304.382C175.355 304.382 177.333 305.716 177.333 309.258V322H183.819V307.924C183.819 302.036 180.783 298.448 175.447 298.448C172.365 298.448 169.835 299.552 167.765 301.806V299.046H161.279V322H167.765V307.372ZM197.4 295.734H207.566V322H214.19V295.734H224.402V289.8H197.4V295.734ZM235.463 307.372C236.567 305.67 238.637 304.382 240.661 304.382C243.053 304.382 245.031 305.716 245.031 309.258V322H251.517V307.924C251.517 302.036 248.481 298.448 243.145 298.448C240.109 298.448 237.533 299.598 235.463 301.852V289.8H228.977V322H235.463V307.372ZM268.636 322.598C272.408 322.598 275.306 321.816 277.376 320.252V315.054C275.03 316.388 272.592 317.078 270.016 317.078C265.968 317.078 263.024 315.422 262.334 312.294H278.802V310.592C278.802 307.188 277.79 304.336 275.812 301.99C273.834 299.644 271.212 298.448 267.854 298.448C264.312 298.448 261.414 299.598 259.206 301.944C256.998 304.244 255.894 307.096 255.894 310.5C255.894 314.134 257.136 317.078 259.574 319.286C262.012 321.494 265.048 322.598 268.636 322.598ZM262.334 308.154C262.656 305.44 264.634 303.554 267.578 303.554C270.476 303.554 272.27 305.624 272.408 308.154H262.334ZM309.995 322.184L317.171 300.702L324.209 322.184H330.051L340.907 289.8H333.685L327.061 311.512L319.747 289.708H314.595L307.327 311.512L300.703 289.8H293.343L304.153 322.184H309.995ZM348.446 315.1C347.25 313.858 346.652 312.34 346.652 310.5C346.652 308.66 347.25 307.142 348.446 305.946C349.642 304.704 351.16 304.106 353 304.106C354.84 304.106 356.358 304.704 357.554 305.946C358.75 307.142 359.348 308.66 359.348 310.5C359.348 312.34 358.75 313.858 357.554 315.1C356.358 316.342 354.84 316.94 353 316.94C351.16 316.94 349.642 316.342 348.446 315.1ZM340.258 310.5C340.258 313.95 341.454 316.802 343.846 319.148C346.238 321.448 349.274 322.598 353 322.598C356.726 322.598 359.762 321.448 362.154 319.148C364.546 316.802 365.742 313.95 365.742 310.5C365.742 307.142 364.546 304.29 362.154 301.944C359.762 299.598 356.726 298.448 353 298.448C349.274 298.448 346.238 299.598 343.846 301.944C341.454 304.244 340.258 307.096 340.258 310.5ZM377.012 322V308.614C377.932 306.544 380.6 304.612 383.728 304.612C384.51 304.612 385.2 304.704 385.752 304.842V298.494C385.568 298.448 385.338 298.448 385.016 298.448C383.314 298.448 381.704 298.908 380.232 299.782C378.76 300.656 377.702 301.714 377.012 302.91V299.046H370.526V322H377.012ZM396.095 322.598C397.705 322.598 399.085 322.322 400.189 321.77V316.434C399.729 316.71 399.177 316.848 398.533 316.848C397.153 316.848 396.463 316.066 396.463 314.548V289.8H389.977V316.25C389.977 320.85 392.553 322.598 396.095 322.598ZM413.913 322.598C417.225 322.598 419.755 321.448 421.457 319.194V322H427.943V289.8H421.457V301.852C419.663 299.598 417.179 298.448 413.913 298.448C410.785 298.448 408.209 299.598 406.139 301.944C404.115 304.244 403.103 307.096 403.103 310.5C403.103 313.95 404.115 316.802 406.139 319.148C408.209 321.448 410.785 322.598 413.913 322.598ZM415.753 316.94C413.959 316.94 412.441 316.342 411.291 315.1C410.141 313.858 409.543 312.34 409.543 310.5C409.543 308.706 410.141 307.188 411.291 305.946C412.441 304.704 413.959 304.106 415.753 304.106C418.283 304.106 420.399 305.532 421.457 307.51V313.49C420.399 315.468 418.283 316.94 415.753 316.94Z" fill="#1E4843"/>
<path d="M151.526 380.216C149.642 380.216 148.082 379.772 146.846 378.884V377.264C147.326 377.684 147.986 378.056 148.826 378.38C149.678 378.692 150.548 378.848 151.436 378.848C152.396 378.848 153.188 378.644 153.812 378.236C154.436 377.828 154.748 377.276 154.748 376.58C154.748 376.28 154.682 376.016 154.55 375.788C154.43 375.548 154.286 375.35 154.118 375.194C153.962 375.038 153.704 374.888 153.344 374.744C152.996 374.588 152.69 374.468 152.426 374.384C152.174 374.3 151.79 374.186 151.274 374.042C150.578 373.85 150.026 373.682 149.618 373.538C149.21 373.382 148.784 373.172 148.34 372.908C147.908 372.632 147.59 372.296 147.386 371.9C147.182 371.504 147.08 371.03 147.08 370.478C147.08 369.518 147.47 368.732 148.25 368.12C149.03 367.496 150.11 367.184 151.49 367.184C153.002 367.184 154.316 367.532 155.432 368.228V369.722C154.196 368.942 152.894 368.552 151.526 368.552C150.542 368.552 149.804 368.738 149.312 369.11C148.82 369.482 148.574 369.95 148.574 370.514C148.574 370.67 148.592 370.82 148.628 370.964C148.664 371.096 148.724 371.222 148.808 371.342C148.904 371.45 148.988 371.546 149.06 371.63C149.132 371.714 149.258 371.804 149.438 371.9C149.618 371.984 149.756 372.056 149.852 372.116C149.948 372.164 150.116 372.23 150.356 372.314C150.608 372.386 150.782 372.44 150.878 372.476C150.986 372.5 151.184 372.554 151.472 372.638C151.772 372.722 151.97 372.776 152.066 372.8C152.582 372.956 152.99 373.094 153.29 373.214C153.602 373.322 153.968 373.484 154.388 373.7C154.808 373.916 155.132 374.144 155.36 374.384C155.6 374.624 155.804 374.936 155.972 375.32C156.152 375.692 156.242 376.106 156.242 376.562C156.242 377.702 155.786 378.596 154.874 379.244C153.974 379.892 152.858 380.216 151.526 380.216ZM162.973 380.216C161.617 380.216 160.477 379.79 159.553 378.938C158.629 378.074 158.167 376.976 158.167 375.644C158.167 374.324 158.575 373.232 159.391 372.368C160.219 371.492 161.293 371.054 162.613 371.054C163.297 371.054 163.909 371.198 164.449 371.486C165.001 371.762 165.433 372.128 165.745 372.584C166.057 373.04 166.291 373.526 166.447 374.042C166.615 374.558 166.699 375.08 166.699 375.608V376.004H159.625C159.721 376.904 160.093 377.618 160.741 378.146C161.401 378.674 162.241 378.938 163.261 378.938C164.269 378.938 165.205 378.668 166.069 378.128V379.388C165.337 379.94 164.305 380.216 162.973 380.216ZM159.643 374.852H165.259C165.223 374.216 164.977 373.64 164.521 373.124C164.077 372.596 163.417 372.332 162.541 372.332C161.701 372.332 161.017 372.584 160.489 373.088C159.973 373.58 159.691 374.168 159.643 374.852ZM171.132 380.216C170.556 380.216 170.07 380.048 169.674 379.712C169.278 379.376 169.08 378.818 169.08 378.038V367.4H170.52V377.678C170.52 378.494 170.886 378.902 171.618 378.902C171.93 378.902 172.206 378.83 172.446 378.686V379.964C172.122 380.132 171.684 380.216 171.132 380.216ZM176.441 380.216C175.865 380.216 175.379 380.048 174.983 379.712C174.587 379.376 174.389 378.818 174.389 378.038V367.4H175.829V377.678C175.829 378.494 176.195 378.902 176.927 378.902C177.239 378.902 177.515 378.83 177.755 378.686V379.964C177.431 380.132 176.993 380.216 176.441 380.216ZM187.918 380.216C187.09 380.216 186.466 379.976 186.046 379.496C185.626 379.016 185.416 378.368 185.416 377.552V372.512H183.4V371.27H185.416V368.624H186.856V371.27H189.844V372.512H186.856V377.138C186.856 377.786 186.97 378.242 187.198 378.506C187.426 378.77 187.804 378.902 188.332 378.902C188.896 378.902 189.364 378.782 189.736 378.542V379.82C189.328 380.084 188.722 380.216 187.918 380.216ZM192.376 380V371.27H193.798V380H192.376ZM192.394 369.02C192.214 368.828 192.124 368.594 192.124 368.318C192.124 368.042 192.214 367.814 192.394 367.634C192.586 367.442 192.82 367.346 193.096 367.346C193.372 367.346 193.6 367.442 193.78 367.634C193.972 367.814 194.068 368.042 194.068 368.318C194.068 368.594 193.972 368.828 193.78 369.02C193.6 369.2 193.372 369.29 193.096 369.29C192.82 369.29 192.586 369.2 192.394 369.02ZM201.044 380.216C199.724 380.216 198.614 379.778 197.714 378.902C196.826 378.026 196.382 376.934 196.382 375.626C196.382 374.306 196.826 373.214 197.714 372.35C198.614 371.486 199.73 371.054 201.062 371.054C202.07 371.054 202.946 371.264 203.69 371.684V372.98C202.922 372.548 202.112 372.332 201.26 372.332C200.3 372.332 199.49 372.644 198.83 373.268C198.17 373.892 197.84 374.684 197.84 375.644C197.84 376.592 198.17 377.378 198.83 378.002C199.49 378.626 200.3 378.938 201.26 378.938C202.244 378.938 203.108 378.692 203.852 378.2V379.478C203.036 379.97 202.1 380.216 201.044 380.216ZM207.873 367.4V374.816L211.869 371.27H213.777L209.277 375.212L214.425 380H212.409L207.873 375.77V380H206.433V367.4H207.873ZM219.961 380.216C218.605 380.216 217.465 379.79 216.541 378.938C215.617 378.074 215.155 376.976 215.155 375.644C215.155 374.324 215.563 373.232 216.379 372.368C217.207 371.492 218.281 371.054 219.601 371.054C220.285 371.054 220.897 371.198 221.437 371.486C221.989 371.762 222.421 372.128 222.733 372.584C223.045 373.04 223.279 373.526 223.435 374.042C223.603 374.558 223.687 375.08 223.687 375.608V376.004H216.613C216.709 376.904 217.081 377.618 217.729 378.146C218.389 378.674 219.229 378.938 220.249 378.938C221.257 378.938 222.193 378.668 223.057 378.128V379.388C222.325 379.94 221.293 380.216 219.961 380.216ZM216.631 374.852H222.247C222.211 374.216 221.965 373.64 221.509 373.124C221.065 372.596 220.405 372.332 219.529 372.332C218.689 372.332 218.005 372.584 217.477 373.088C216.961 373.58 216.679 374.168 216.631 374.852ZM229.56 380.216C228.732 380.216 228.108 379.976 227.688 379.496C227.268 379.016 227.058 378.368 227.058 377.552V372.512H225.042V371.27H227.058V368.624H228.498V371.27H231.486V372.512H228.498V377.138C228.498 377.786 228.612 378.242 228.84 378.506C229.068 378.77 229.446 378.902 229.974 378.902C230.538 378.902 231.006 378.782 231.378 378.542V379.82C230.97 380.084 230.364 380.216 229.56 380.216ZM236.826 380.216C236.094 380.216 235.392 380.132 234.72 379.964C234.06 379.784 233.556 379.568 233.208 379.316V377.876C233.556 378.14 234.054 378.386 234.702 378.614C235.362 378.83 236.052 378.938 236.772 378.938C237.492 378.938 238.056 378.824 238.464 378.596C238.872 378.368 239.076 378.044 239.076 377.624C239.076 377.48 239.052 377.354 239.004 377.246C238.968 377.138 238.896 377.048 238.788 376.976C238.692 376.892 238.59 376.82 238.482 376.76C238.386 376.7 238.242 376.646 238.05 376.598C237.87 376.538 237.708 376.49 237.564 376.454C237.432 376.418 237.246 376.37 237.006 376.31C236.766 376.25 236.568 376.202 236.412 376.166C235.38 375.902 234.612 375.584 234.108 375.212C233.616 374.828 233.37 374.258 233.37 373.502C233.37 372.746 233.676 372.152 234.288 371.72C234.912 371.276 235.788 371.054 236.916 371.054C238.224 371.054 239.286 371.312 240.102 371.828V373.214C239.142 372.626 238.098 372.332 236.97 372.332C235.542 372.332 234.828 372.734 234.828 373.538C234.828 374.006 235.182 374.366 235.89 374.618C236.13 374.702 236.64 374.834 237.42 375.014C238.404 375.23 239.166 375.536 239.706 375.932C240.258 376.328 240.534 376.904 240.534 377.66C240.534 378.452 240.186 379.076 239.49 379.532C238.806 379.988 237.918 380.216 236.826 380.216ZM250.694 378.938C251.306 378.938 251.87 378.806 252.386 378.542C252.914 378.278 253.328 377.954 253.628 377.57V376.382C252.812 375.842 251.9 375.572 250.892 375.572C250.124 375.572 249.518 375.722 249.074 376.022C248.642 376.31 248.426 376.718 248.426 377.246C248.426 377.81 248.642 378.236 249.074 378.524C249.506 378.8 250.046 378.938 250.694 378.938ZM250.298 380.216C249.374 380.216 248.588 379.958 247.94 379.442C247.304 378.926 246.986 378.218 246.986 377.318C246.986 376.418 247.322 375.716 247.994 375.212C248.678 374.696 249.53 374.438 250.55 374.438C251.738 374.438 252.764 374.708 253.628 375.248V374.456C253.628 373.04 252.692 372.332 250.82 372.332C249.8 372.332 248.852 372.62 247.976 373.196V371.846C248.852 371.318 249.902 371.054 251.126 371.054C252.302 371.054 253.25 371.33 253.97 371.882C254.69 372.434 255.05 373.244 255.05 374.312V377.75C255.05 378.506 255.32 378.884 255.86 378.884C256.076 378.884 256.244 378.842 256.364 378.758V379.874C256.148 380.018 255.842 380.09 255.446 380.09C254.522 380.09 253.964 379.634 253.772 378.722C252.884 379.718 251.726 380.216 250.298 380.216ZM259.87 380H258.43V371.27H259.87V372.584C260.218 372.152 260.686 371.792 261.274 371.504C261.874 371.204 262.546 371.054 263.29 371.054C264.382 371.054 265.204 371.372 265.756 372.008C266.32 372.644 266.602 373.538 266.602 374.69V380H265.162V374.996C265.162 374.48 265.084 374.042 264.928 373.682C264.784 373.31 264.586 373.04 264.334 372.872C264.082 372.704 263.83 372.584 263.578 372.512C263.338 372.44 263.074 372.404 262.786 372.404C262.222 372.404 261.658 372.584 261.094 372.944C260.53 373.292 260.122 373.694 259.87 374.15V380ZM276.471 367.4H277.911V380H276.471V378.65C275.691 379.694 274.587 380.216 273.159 380.216C271.887 380.216 270.843 379.772 270.027 378.884C269.211 377.984 268.803 376.904 268.803 375.644C268.803 374.372 269.211 373.292 270.027 372.404C270.843 371.504 271.887 371.054 273.159 371.054C274.563 371.054 275.667 371.576 276.471 372.62V367.4ZM276.471 377.048V374.222C276.219 373.67 275.823 373.22 275.283 372.872C274.755 372.512 274.161 372.332 273.501 372.332C272.565 372.332 271.791 372.65 271.179 373.286C270.567 373.922 270.261 374.708 270.261 375.644C270.261 376.58 270.567 377.366 271.179 378.002C271.791 378.626 272.565 378.938 273.501 378.938C274.137 378.938 274.725 378.758 275.265 378.398C275.817 378.038 276.219 377.588 276.471 377.048ZM288.646 380.216C287.914 380.216 287.212 380.132 286.54 379.964C285.88 379.784 285.376 379.568 285.028 379.316V377.876C285.376 378.14 285.874 378.386 286.522 378.614C287.182 378.83 287.872 378.938 288.592 378.938C289.312 378.938 289.876 378.824 290.284 378.596C290.692 378.368 290.896 378.044 290.896 377.624C290.896 377.48 290.872 377.354 290.824 377.246C290.788 377.138 290.716 377.048 290.608 376.976C290.512 376.892 290.41 376.82 290.302 376.76C290.206 376.7 290.062 376.646 289.87 376.598C289.69 376.538 289.528 376.49 289.384 376.454C289.252 376.418 289.066 376.37 288.826 376.31C288.586 376.25 288.388 376.202 288.232 376.166C287.2 375.902 286.432 375.584 285.928 375.212C285.436 374.828 285.19 374.258 285.19 373.502C285.19 372.746 285.496 372.152 286.108 371.72C286.732 371.276 287.608 371.054 288.736 371.054C290.044 371.054 291.106 371.312 291.922 371.828V373.214C290.962 372.626 289.918 372.332 288.79 372.332C287.362 372.332 286.648 372.734 286.648 373.538C286.648 374.006 287.002 374.366 287.71 374.618C287.95 374.702 288.46 374.834 289.24 375.014C290.224 375.23 290.986 375.536 291.526 375.932C292.078 376.328 292.354 376.904 292.354 377.66C292.354 378.452 292.006 379.076 291.31 379.532C290.626 379.988 289.738 380.216 288.646 380.216ZM298.185 380.216C297.357 380.216 296.733 379.976 296.313 379.496C295.893 379.016 295.683 378.368 295.683 377.552V372.512H293.667V371.27H295.683V368.624H297.123V371.27H300.111V372.512H297.123V377.138C297.123 377.786 297.237 378.242 297.465 378.506C297.693 378.77 298.071 378.902 298.599 378.902C299.163 378.902 299.631 378.782 300.003 378.542V379.82C299.595 380.084 298.989 380.216 298.185 380.216ZM302.445 380V371.27H303.885V372.908C304.245 372.32 304.737 371.864 305.361 371.54C305.985 371.216 306.639 371.054 307.323 371.054V372.494C306.567 372.518 305.877 372.71 305.253 373.07C304.641 373.418 304.185 373.904 303.885 374.528V380H302.445ZM313.371 380.216C312.015 380.216 310.875 379.79 309.951 378.938C309.027 378.074 308.565 376.976 308.565 375.644C308.565 374.324 308.973 373.232 309.789 372.368C310.617 371.492 311.691 371.054 313.011 371.054C313.695 371.054 314.307 371.198 314.847 371.486C315.399 371.762 315.831 372.128 316.143 372.584C316.455 373.04 316.689 373.526 316.845 374.042C317.013 374.558 317.097 375.08 317.097 375.608V376.004H310.023C310.119 376.904 310.491 377.618 311.139 378.146C311.799 378.674 312.639 378.938 313.659 378.938C314.667 378.938 315.603 378.668 316.467 378.128V379.388C315.735 379.94 314.703 380.216 313.371 380.216ZM310.041 374.852H315.657C315.621 374.216 315.375 373.64 314.919 373.124C314.475 372.596 313.815 372.332 312.939 372.332C312.099 372.332 311.415 372.584 310.887 373.088C310.371 373.58 310.089 374.168 310.041 374.852ZM322.448 378.938C323.06 378.938 323.624 378.806 324.14 378.542C324.668 378.278 325.082 377.954 325.382 377.57V376.382C324.566 375.842 323.654 375.572 322.646 375.572C321.878 375.572 321.272 375.722 320.828 376.022C320.396 376.31 320.18 376.718 320.18 377.246C320.18 377.81 320.396 378.236 320.828 378.524C321.26 378.8 321.8 378.938 322.448 378.938ZM322.052 380.216C321.128 380.216 320.342 379.958 319.694 379.442C319.058 378.926 318.74 378.218 318.74 377.318C318.74 376.418 319.076 375.716 319.748 375.212C320.432 374.696 321.284 374.438 322.304 374.438C323.492 374.438 324.518 374.708 325.382 375.248V374.456C325.382 373.04 324.446 372.332 322.574 372.332C321.554 372.332 320.606 372.62 319.73 373.196V371.846C320.606 371.318 321.656 371.054 322.88 371.054C324.056 371.054 325.004 371.33 325.724 371.882C326.444 372.434 326.804 373.244 326.804 374.312V377.75C326.804 378.506 327.074 378.884 327.614 378.884C327.83 378.884 327.998 378.842 328.118 378.758V379.874C327.902 380.018 327.596 380.09 327.2 380.09C326.276 380.09 325.718 379.634 325.526 378.722C324.638 379.718 323.48 380.216 322.052 380.216ZM330.183 380V371.27H331.623V372.548C332.307 371.552 333.333 371.054 334.701 371.054C335.421 371.054 336.021 371.204 336.501 371.504C336.981 371.792 337.311 372.206 337.491 372.746C337.815 372.254 338.265 371.852 338.841 371.54C339.417 371.216 340.077 371.054 340.821 371.054C341.793 371.054 342.549 371.354 343.089 371.954C343.629 372.554 343.899 373.424 343.899 374.564V380H342.477V374.888C342.477 373.232 341.781 372.404 340.389 372.404C339.861 372.404 339.345 372.584 338.841 372.944C338.337 373.304 337.971 373.718 337.743 374.186C337.743 374.318 337.743 374.486 337.743 374.69C337.755 374.894 337.761 375.062 337.761 375.194V380H336.339V374.888C336.339 374.372 336.267 373.94 336.123 373.592C335.991 373.232 335.811 372.974 335.583 372.818C335.355 372.662 335.133 372.554 334.917 372.494C334.713 372.434 334.491 372.404 334.251 372.404C333.735 372.404 333.231 372.572 332.739 372.908C332.247 373.244 331.875 373.652 331.623 374.132V380H330.183ZM352.029 383.672C351.345 383.672 350.871 383.588 350.607 383.42V382.106C350.955 382.298 351.357 382.394 351.813 382.394C352.353 382.394 352.803 382.178 353.163 381.746C353.535 381.326 353.919 380.636 354.315 379.676L350.445 371.27H352.029L355.035 378.002L357.933 371.27H359.481L355.197 380.972C354.789 381.872 354.333 382.544 353.829 382.988C353.337 383.444 352.737 383.672 352.029 383.672ZM361.964 372.404C362.852 371.504 363.986 371.054 365.366 371.054C366.746 371.054 367.88 371.504 368.768 372.404C369.656 373.304 370.1 374.384 370.1 375.644C370.1 376.904 369.656 377.984 368.768 378.884C367.88 379.772 366.746 380.216 365.366 380.216C363.986 380.216 362.852 379.772 361.964 378.884C361.076 377.984 360.632 376.904 360.632 375.644C360.632 374.384 361.076 373.304 361.964 372.404ZM363.026 378.002C363.65 378.626 364.43 378.938 365.366 378.938C366.302 378.938 367.082 378.626 367.706 378.002C368.33 377.366 368.642 376.58 368.642 375.644C368.642 374.708 368.33 373.922 367.706 373.286C367.082 372.65 366.302 372.332 365.366 372.332C364.43 372.332 363.65 372.65 363.026 373.286C362.402 373.922 362.09 374.708 362.09 375.644C362.09 376.58 362.402 377.366 363.026 378.002ZM379.011 371.27H380.451V380H379.011V378.686C378.111 379.706 376.971 380.216 375.591 380.216C374.499 380.216 373.671 379.898 373.107 379.262C372.555 378.626 372.279 377.732 372.279 376.58V371.27H373.719V376.274C373.719 378.002 374.511 378.866 376.095 378.866C376.671 378.866 377.229 378.692 377.769 378.344C378.309 377.996 378.723 377.588 379.011 377.12V371.27ZM383.463 380V371.27H384.903V372.908C385.263 372.32 385.755 371.864 386.379 371.54C387.003 371.216 387.657 371.054 388.341 371.054V372.494C387.585 372.518 386.895 372.71 386.271 373.07C385.659 373.418 385.203 373.904 384.903 374.528V380H383.463ZM396.381 380H394.941V371.27H396.381V372.584C396.729 372.152 397.197 371.792 397.785 371.504C398.385 371.204 399.057 371.054 399.801 371.054C400.893 371.054 401.715 371.372 402.267 372.008C402.831 372.644 403.113 373.538 403.113 374.69V380H401.673V374.996C401.673 374.48 401.595 374.042 401.439 373.682C401.295 373.31 401.097 373.04 400.845 372.872C400.593 372.704 400.341 372.584 400.089 372.512C399.849 372.44 399.585 372.404 399.297 372.404C398.733 372.404 398.169 372.584 397.605 372.944C397.041 373.292 396.633 373.694 396.381 374.15V380ZM410.121 380.216C408.765 380.216 407.625 379.79 406.701 378.938C405.777 378.074 405.315 376.976 405.315 375.644C405.315 374.324 405.723 373.232 406.539 372.368C407.367 371.492 408.441 371.054 409.761 371.054C410.445 371.054 411.057 371.198 411.597 371.486C412.149 371.762 412.581 372.128 412.893 372.584C413.205 373.04 413.439 373.526 413.595 374.042C413.763 374.558 413.847 375.08 413.847 375.608V376.004H406.773C406.869 376.904 407.241 377.618 407.889 378.146C408.549 378.674 409.389 378.938 410.409 378.938C411.417 378.938 412.353 378.668 413.217 378.128V379.388C412.485 379.94 411.453 380.216 410.121 380.216ZM406.791 374.852H412.407C412.371 374.216 412.125 373.64 411.669 373.124C411.225 372.596 410.565 372.332 409.689 372.332C408.849 372.332 408.165 372.584 407.637 373.088C407.121 373.58 406.839 374.168 406.791 374.852ZM415.204 380L418.84 375.41L415.636 371.27H417.31L419.704 374.294L422.116 371.27H423.772L420.532 375.374L424.168 380H422.494L419.686 376.454L416.842 380H415.204ZM429.652 380.216C428.824 380.216 428.2 379.976 427.78 379.496C427.36 379.016 427.15 378.368 427.15 377.552V372.512H425.134V371.27H427.15V368.624H428.59V371.27H431.578V372.512H428.59V377.138C428.59 377.786 428.704 378.242 428.932 378.506C429.16 378.77 429.538 378.902 430.066 378.902C430.63 378.902 431.098 378.782 431.47 378.542V379.82C431.062 380.084 430.456 380.216 429.652 380.216ZM442.816 380.216C441.46 380.216 440.32 379.79 439.396 378.938C438.472 378.074 438.01 376.976 438.01 375.644C438.01 374.324 438.418 373.232 439.234 372.368C440.062 371.492 441.136 371.054 442.456 371.054C443.14 371.054 443.752 371.198 444.292 371.486C444.844 371.762 445.276 372.128 445.588 372.584C445.9 373.04 446.134 373.526 446.29 374.042C446.458 374.558 446.542 375.08 446.542 375.608V376.004H439.468C439.564 376.904 439.936 377.618 440.584 378.146C441.244 378.674 442.084 378.938 443.104 378.938C444.112 378.938 445.048 378.668 445.912 378.128V379.388C445.18 379.94 444.148 380.216 442.816 380.216ZM439.486 374.852H445.102C445.066 374.216 444.82 373.64 444.364 373.124C443.92 372.596 443.26 372.332 442.384 372.332C441.544 372.332 440.86 372.584 440.332 373.088C439.816 373.58 439.534 374.168 439.486 374.852ZM451.894 380.054L447.898 371.27H449.5L452.578 378.164L455.656 371.27H457.186L453.19 380.054H451.894ZM463.172 380.216C461.816 380.216 460.676 379.79 459.752 378.938C458.828 378.074 458.366 376.976 458.366 375.644C458.366 374.324 458.774 373.232 459.59 372.368C460.418 371.492 461.492 371.054 462.812 371.054C463.496 371.054 464.108 371.198 464.648 371.486C465.2 371.762 465.632 372.128 465.944 372.584C466.256 373.04 466.49 373.526 466.646 374.042C466.814 374.558 466.898 375.08 466.898 375.608V376.004H459.824C459.92 376.904 460.292 377.618 460.94 378.146C461.6 378.674 462.44 378.938 463.46 378.938C464.468 378.938 465.404 378.668 466.268 378.128V379.388C465.536 379.94 464.504 380.216 463.172 380.216ZM459.842 374.852H465.458C465.422 374.216 465.176 373.64 464.72 373.124C464.276 372.596 463.616 372.332 462.74 372.332C461.9 372.332 461.216 372.584 460.688 373.088C460.172 373.58 459.89 374.168 459.842 374.852ZM470.719 380H469.279V371.27H470.719V372.584C471.067 372.152 471.535 371.792 472.123 371.504C472.723 371.204 473.395 371.054 474.139 371.054C475.231 371.054 476.053 371.372 476.605 372.008C477.169 372.644 477.451 373.538 477.451 374.69V380H476.011V374.996C476.011 374.48 475.933 374.042 475.777 373.682C475.633 373.31 475.435 373.04 475.183 372.872C474.931 372.704 474.679 372.584 474.427 372.512C474.187 372.44 473.923 372.404 473.635 372.404C473.071 372.404 472.507 372.584 471.943 372.944C471.379 373.292 470.971 373.694 470.719 374.15V380ZM483.775 380.216C482.947 380.216 482.323 379.976 481.903 379.496C481.483 379.016 481.273 378.368 481.273 377.552V372.512H479.257V371.27H481.273V368.624H482.713V371.27H485.701V372.512H482.713V377.138C482.713 377.786 482.827 378.242 483.055 378.506C483.283 378.77 483.661 378.902 484.189 378.902C484.753 378.902 485.221 378.782 485.593 378.542V379.82C485.185 380.084 484.579 380.216 483.775 380.216ZM149.546 409.216C148.97 409.216 148.484 409.048 148.088 408.712C147.692 408.376 147.494 407.818 147.494 407.038V396.4H148.934V406.678C148.934 407.494 149.3 407.902 150.032 407.902C150.344 407.902 150.62 407.83 150.86 407.686V408.964C150.536 409.132 150.098 409.216 149.546 409.216ZM153.001 409V400.27H154.423V409H153.001ZM153.019 398.02C152.839 397.828 152.749 397.594 152.749 397.318C152.749 397.042 152.839 396.814 153.019 396.634C153.211 396.442 153.445 396.346 153.721 396.346C153.997 396.346 154.225 396.442 154.405 396.634C154.597 396.814 154.693 397.042 154.693 397.318C154.693 397.594 154.597 397.828 154.405 398.02C154.225 398.2 153.997 398.29 153.721 398.29C153.445 398.29 153.211 398.2 153.019 398.02ZM160.607 409.054L156.611 400.27H158.213L161.291 407.164L164.369 400.27H165.899L161.903 409.054H160.607ZM171.885 409.216C170.529 409.216 169.389 408.79 168.465 407.938C167.541 407.074 167.079 405.976 167.079 404.644C167.079 403.324 167.487 402.232 168.303 401.368C169.131 400.492 170.205 400.054 171.525 400.054C172.209 400.054 172.821 400.198 173.361 400.486C173.913 400.762 174.345 401.128 174.657 401.584C174.969 402.04 175.203 402.526 175.359 403.042C175.527 403.558 175.611 404.08 175.611 404.608V405.004H168.537C168.633 405.904 169.005 406.618 169.653 407.146C170.313 407.674 171.153 407.938 172.173 407.938C173.181 407.938 174.117 407.668 174.981 407.128V408.388C174.249 408.94 173.217 409.216 171.885 409.216ZM168.555 403.852H174.171C174.135 403.216 173.889 402.64 173.433 402.124C172.989 401.596 172.329 401.332 171.453 401.332C170.613 401.332 169.929 401.584 169.401 402.088C168.885 402.58 168.603 403.168 168.555 403.852ZM183.423 401.404C184.311 400.504 185.445 400.054 186.825 400.054C188.205 400.054 189.339 400.504 190.227 401.404C191.115 402.304 191.559 403.384 191.559 404.644C191.559 405.904 191.115 406.984 190.227 407.884C189.339 408.772 188.205 409.216 186.825 409.216C185.445 409.216 184.311 408.772 183.423 407.884C182.535 406.984 182.091 405.904 182.091 404.644C182.091 403.384 182.535 402.304 183.423 401.404ZM184.485 407.002C185.109 407.626 185.889 407.938 186.825 407.938C187.761 407.938 188.541 407.626 189.165 407.002C189.789 406.366 190.101 405.58 190.101 404.644C190.101 403.708 189.789 402.922 189.165 402.286C188.541 401.65 187.761 401.332 186.825 401.332C185.889 401.332 185.109 401.65 184.485 402.286C183.861 402.922 183.549 403.708 183.549 404.644C183.549 405.58 183.861 406.366 184.485 407.002ZM193.9 409V400.27H195.34V401.908C195.7 401.32 196.192 400.864 196.816 400.54C197.44 400.216 198.094 400.054 198.778 400.054V401.494C198.022 401.518 197.332 401.71 196.708 402.07C196.096 402.418 195.64 402.904 195.34 403.528V409H193.9ZM206.081 401.404C206.969 400.504 208.103 400.054 209.483 400.054C210.863 400.054 211.997 400.504 212.885 401.404C213.773 402.304 214.217 403.384 214.217 404.644C214.217 405.904 213.773 406.984 212.885 407.884C211.997 408.772 210.863 409.216 209.483 409.216C208.103 409.216 206.969 408.772 206.081 407.884C205.193 406.984 204.749 405.904 204.749 404.644C204.749 403.384 205.193 402.304 206.081 401.404ZM207.143 407.002C207.767 407.626 208.547 407.938 209.483 407.938C210.419 407.938 211.199 407.626 211.823 407.002C212.447 406.366 212.759 405.58 212.759 404.644C212.759 403.708 212.447 402.922 211.823 402.286C211.199 401.65 210.419 401.332 209.483 401.332C208.547 401.332 207.767 401.65 207.143 402.286C206.519 402.922 206.207 403.708 206.207 404.644C206.207 405.58 206.519 406.366 207.143 407.002ZM217.998 409H216.558V400.27H217.998V401.584C218.346 401.152 218.814 400.792 219.402 400.504C220.002 400.204 220.674 400.054 221.418 400.054C222.51 400.054 223.332 400.372 223.884 401.008C224.448 401.644 224.73 402.538 224.73 403.69V409H223.29V403.996C223.29 403.48 223.212 403.042 223.056 402.682C222.912 402.31 222.714 402.04 222.462 401.872C222.21 401.704 221.958 401.584 221.706 401.512C221.466 401.44 221.202 401.404 220.914 401.404C220.35 401.404 219.786 401.584 219.222 401.944C218.658 402.292 218.25 402.694 217.998 403.15V409ZM227.868 404.752V403.438H232.962V404.752H227.868ZM243.302 396.4H244.742V409H243.302V407.65C242.522 408.694 241.418 409.216 239.99 409.216C238.718 409.216 237.674 408.772 236.858 407.884C236.042 406.984 235.634 405.904 235.634 404.644C235.634 403.372 236.042 402.292 236.858 401.404C237.674 400.504 238.718 400.054 239.99 400.054C241.394 400.054 242.498 400.576 243.302 401.62V396.4ZM243.302 406.048V403.222C243.05 402.67 242.654 402.22 242.114 401.872C241.586 401.512 240.992 401.332 240.332 401.332C239.396 401.332 238.622 401.65 238.01 402.286C237.398 402.922 237.092 403.708 237.092 404.644C237.092 405.58 237.398 406.366 238.01 407.002C238.622 407.626 239.396 407.938 240.332 407.938C240.968 407.938 241.556 407.758 242.096 407.398C242.648 407.038 243.05 406.588 243.302 406.048ZM251.918 409.216C250.562 409.216 249.422 408.79 248.498 407.938C247.574 407.074 247.112 405.976 247.112 404.644C247.112 403.324 247.52 402.232 248.336 401.368C249.164 400.492 250.238 400.054 251.558 400.054C252.242 400.054 252.854 400.198 253.394 400.486C253.946 400.762 254.378 401.128 254.69 401.584C255.002 402.04 255.236 402.526 255.392 403.042C255.56 403.558 255.644 404.08 255.644 404.608V405.004H248.57C248.666 405.904 249.038 406.618 249.686 407.146C250.346 407.674 251.186 407.938 252.206 407.938C253.214 407.938 254.15 407.668 255.014 407.128V408.388C254.282 408.94 253.25 409.216 251.918 409.216ZM248.588 403.852H254.204C254.168 403.216 253.922 402.64 253.466 402.124C253.022 401.596 252.362 401.332 251.486 401.332C250.646 401.332 249.962 401.584 249.434 402.088C248.918 402.58 248.636 403.168 248.588 403.852ZM258.025 409V400.27H259.465V401.548C260.149 400.552 261.175 400.054 262.543 400.054C263.263 400.054 263.863 400.204 264.343 400.504C264.823 400.792 265.153 401.206 265.333 401.746C265.657 401.254 266.107 400.852 266.683 400.54C267.259 400.216 267.919 400.054 268.663 400.054C269.635 400.054 270.391 400.354 270.931 400.954C271.471 401.554 271.741 402.424 271.741 403.564V409H270.319V403.888C270.319 402.232 269.623 401.404 268.231 401.404C267.703 401.404 267.187 401.584 266.683 401.944C266.179 402.304 265.813 402.718 265.585 403.186C265.585 403.318 265.585 403.486 265.585 403.69C265.597 403.894 265.603 404.062 265.603 404.194V409H264.181V403.888C264.181 403.372 264.109 402.94 263.965 402.592C263.833 402.232 263.653 401.974 263.425 401.818C263.197 401.662 262.975 401.554 262.759 401.494C262.555 401.434 262.333 401.404 262.093 401.404C261.577 401.404 261.073 401.572 260.581 401.908C260.089 402.244 259.717 402.652 259.465 403.132V409H258.025ZM277.536 407.938C278.148 407.938 278.712 407.806 279.228 407.542C279.756 407.278 280.17 406.954 280.47 406.57V405.382C279.654 404.842 278.742 404.572 277.734 404.572C276.966 404.572 276.36 404.722 275.916 405.022C275.484 405.31 275.268 405.718 275.268 406.246C275.268 406.81 275.484 407.236 275.916 407.524C276.348 407.8 276.888 407.938 277.536 407.938ZM277.14 409.216C276.216 409.216 275.43 408.958 274.782 408.442C274.146 407.926 273.828 407.218 273.828 406.318C273.828 405.418 274.164 404.716 274.836 404.212C275.52 403.696 276.372 403.438 277.392 403.438C278.58 403.438 279.606 403.708 280.47 404.248V403.456C280.47 402.04 279.534 401.332 277.662 401.332C276.642 401.332 275.694 401.62 274.818 402.196V400.846C275.694 400.318 276.744 400.054 277.968 400.054C279.144 400.054 280.092 400.33 280.812 400.882C281.532 401.434 281.892 402.244 281.892 403.312V406.75C281.892 407.506 282.162 407.884 282.702 407.884C282.918 407.884 283.086 407.842 283.206 407.758V408.874C282.99 409.018 282.684 409.09 282.288 409.09C281.364 409.09 280.806 408.634 280.614 407.722C279.726 408.718 278.568 409.216 277.14 409.216ZM286.711 409H285.271V400.27H286.711V401.584C287.059 401.152 287.527 400.792 288.115 400.504C288.715 400.204 289.387 400.054 290.131 400.054C291.223 400.054 292.045 400.372 292.597 401.008C293.161 401.644 293.443 402.538 293.443 403.69V409H292.003V403.996C292.003 403.48 291.925 403.042 291.769 402.682C291.625 402.31 291.427 402.04 291.175 401.872C290.923 401.704 290.671 401.584 290.419 401.512C290.179 401.44 289.915 401.404 289.627 401.404C289.063 401.404 288.499 401.584 287.935 401.944C287.371 402.292 286.963 402.694 286.711 403.15V409ZM303.313 396.4H304.753V409H303.313V407.65C302.533 408.694 301.429 409.216 300.001 409.216C298.729 409.216 297.685 408.772 296.869 407.884C296.053 406.984 295.645 405.904 295.645 404.644C295.645 403.372 296.053 402.292 296.869 401.404C297.685 400.504 298.729 400.054 300.001 400.054C301.405 400.054 302.509 400.576 303.313 401.62V396.4ZM303.313 406.048V403.222C303.061 402.67 302.665 402.22 302.125 401.872C301.597 401.512 301.003 401.332 300.343 401.332C299.407 401.332 298.633 401.65 298.021 402.286C297.409 402.922 297.103 403.708 297.103 404.644C297.103 405.58 297.409 406.366 298.021 407.002C298.633 407.626 299.407 407.938 300.343 407.938C300.979 407.938 301.567 407.758 302.107 407.398C302.659 407.038 303.061 406.588 303.313 406.048ZM314.75 409.054L311.636 400.27H313.094L315.452 406.894L317.774 400.234H318.962L321.302 406.894L323.642 400.27H325.082L321.968 409.054H320.726L318.332 402.376L315.992 409.054H314.75ZM327.446 409V400.27H328.868V409H327.446ZM327.464 398.02C327.284 397.828 327.194 397.594 327.194 397.318C327.194 397.042 327.284 396.814 327.464 396.634C327.656 396.442 327.89 396.346 328.166 396.346C328.442 396.346 328.67 396.442 328.85 396.634C329.042 396.814 329.138 397.042 329.138 397.318C329.138 397.594 329.042 397.828 328.85 398.02C328.67 398.2 328.442 398.29 328.166 398.29C327.89 398.29 327.656 398.2 327.464 398.02ZM335.574 409.216C334.746 409.216 334.122 408.976 333.702 408.496C333.282 408.016 333.072 407.368 333.072 406.552V401.512H331.056V400.27H333.072V397.624H334.512V400.27H337.5V401.512H334.512V406.138C334.512 406.786 334.626 407.242 334.854 407.506C335.082 407.77 335.46 407.902 335.988 407.902C336.552 407.902 337.02 407.782 337.392 407.542V408.82C336.984 409.084 336.378 409.216 335.574 409.216ZM341.274 409H339.834V396.4H341.274V401.584C341.622 401.152 342.09 400.792 342.678 400.504C343.278 400.204 343.95 400.054 344.694 400.054C345.786 400.054 346.608 400.372 347.16 401.008C347.724 401.644 348.006 402.538 348.006 403.69V409H346.566V403.996C346.566 403.48 346.488 403.042 346.332 402.682C346.188 402.31 345.99 402.04 345.738 401.872C345.486 401.704 345.234 401.584 344.982 401.512C344.742 401.44 344.478 401.404 344.19 401.404C343.626 401.404 343.062 401.584 342.498 401.944C341.934 402.292 341.526 402.694 341.274 403.15V409ZM355.818 409V396.4H361.326C362.454 396.4 363.342 396.67 363.99 397.21C364.638 397.75 364.962 398.5 364.962 399.46C364.962 400.132 364.812 400.696 364.512 401.152C364.212 401.608 363.804 401.932 363.288 402.124C364.128 402.256 364.794 402.622 365.286 403.222C365.778 403.81 366.024 404.566 366.024 405.49C366.024 406.546 365.652 407.398 364.908 408.046C364.164 408.682 363.15 409 361.866 409H355.818ZM357.276 407.668H361.596C362.508 407.668 363.21 407.464 363.702 407.056C364.206 406.648 364.458 406.06 364.458 405.292C364.458 404.536 364.206 403.96 363.702 403.564C363.21 403.168 362.508 402.97 361.596 402.97H357.276V407.668ZM357.276 401.674H361.074C362.694 401.674 363.504 401.026 363.504 399.73C363.504 399.082 363.294 398.59 362.874 398.254C362.466 397.906 361.866 397.732 361.074 397.732H357.276V401.674ZM371.579 407.938C372.191 407.938 372.755 407.806 373.271 407.542C373.799 407.278 374.213 406.954 374.513 406.57V405.382C373.697 404.842 372.785 404.572 371.777 404.572C371.009 404.572 370.403 404.722 369.959 405.022C369.527 405.31 369.311 405.718 369.311 406.246C369.311 406.81 369.527 407.236 369.959 407.524C370.391 407.8 370.931 407.938 371.579 407.938ZM371.183 409.216C370.259 409.216 369.473 408.958 368.825 408.442C368.189 407.926 367.871 407.218 367.871 406.318C367.871 405.418 368.207 404.716 368.879 404.212C369.563 403.696 370.415 403.438 371.435 403.438C372.623 403.438 373.649 403.708 374.513 404.248V403.456C374.513 402.04 373.577 401.332 371.705 401.332C370.685 401.332 369.737 401.62 368.861 402.196V400.846C369.737 400.318 370.787 400.054 372.011 400.054C373.187 400.054 374.135 400.33 374.855 400.882C375.575 401.434 375.935 402.244 375.935 403.312V406.75C375.935 407.506 376.205 407.884 376.745 407.884C376.961 407.884 377.129 407.842 377.249 407.758V408.874C377.033 409.018 376.727 409.09 376.331 409.09C375.407 409.09 374.849 408.634 374.657 407.722C373.769 408.718 372.611 409.216 371.183 409.216ZM379.314 409V400.27H380.754V401.548C381.438 400.552 382.464 400.054 383.832 400.054C384.552 400.054 385.152 400.204 385.632 400.504C386.112 400.792 386.442 401.206 386.622 401.746C386.946 401.254 387.396 400.852 387.972 400.54C388.548 400.216 389.208 400.054 389.952 400.054C390.924 400.054 391.68 400.354 392.22 400.954C392.76 401.554 393.03 402.424 393.03 403.564V409H391.608V403.888C391.608 402.232 390.912 401.404 389.52 401.404C388.992 401.404 388.476 401.584 387.972 401.944C387.468 402.304 387.102 402.718 386.874 403.186C386.874 403.318 386.874 403.486 386.874 403.69C386.886 403.894 386.892 404.062 386.892 404.194V409H385.47V403.888C385.47 403.372 385.398 402.94 385.254 402.592C385.122 402.232 384.942 401.974 384.714 401.818C384.486 401.662 384.264 401.554 384.048 401.494C383.844 401.434 383.622 401.404 383.382 401.404C382.866 401.404 382.362 401.572 381.87 401.908C381.378 402.244 381.006 402.652 380.754 403.132V409H379.314ZM395.855 396.4H397.295V401.62C398.099 400.576 399.203 400.054 400.607 400.054C401.879 400.054 402.923 400.504 403.739 401.404C404.555 402.292 404.963 403.372 404.963 404.644C404.963 405.904 404.555 406.984 403.739 407.884C402.923 408.772 401.879 409.216 400.607 409.216C399.179 409.216 398.075 408.694 397.295 407.65V409H395.855V396.4ZM397.295 403.222V406.048C397.547 406.588 397.943 407.038 398.483 407.398C399.035 407.758 399.629 407.938 400.265 407.938C401.201 407.938 401.975 407.626 402.587 407.002C403.199 406.366 403.505 405.58 403.505 404.644C403.505 403.708 403.199 402.922 402.587 402.286C401.975 401.65 401.201 401.332 400.265 401.332C399.605 401.332 399.005 401.512 398.465 401.872C397.937 402.22 397.547 402.67 397.295 403.222ZM408.001 401.404C408.889 400.504 410.023 400.054 411.403 400.054C412.783 400.054 413.917 400.504 414.805 401.404C415.693 402.304 416.137 403.384 416.137 404.644C416.137 405.904 415.693 406.984 414.805 407.884C413.917 408.772 412.783 409.216 411.403 409.216C410.023 409.216 408.889 408.772 408.001 407.884C407.113 406.984 406.669 405.904 406.669 404.644C406.669 403.384 407.113 402.304 408.001 401.404ZM409.063 407.002C409.687 407.626 410.467 407.938 411.403 407.938C412.339 407.938 413.119 407.626 413.743 407.002C414.367 406.366 414.679 405.58 414.679 404.644C414.679 403.708 414.367 402.922 413.743 402.286C413.119 401.65 412.339 401.332 411.403 401.332C410.467 401.332 409.687 401.65 409.063 402.286C408.439 402.922 408.127 403.708 408.127 404.644C408.127 405.58 408.439 406.366 409.063 407.002ZM419.18 401.404C420.068 400.504 421.202 400.054 422.582 400.054C423.962 400.054 425.096 400.504 425.984 401.404C426.872 402.304 427.316 403.384 427.316 404.644C427.316 405.904 426.872 406.984 425.984 407.884C425.096 408.772 423.962 409.216 422.582 409.216C421.202 409.216 420.068 408.772 419.18 407.884C418.292 406.984 417.848 405.904 417.848 404.644C417.848 403.384 418.292 402.304 419.18 401.404ZM420.242 407.002C420.866 407.626 421.646 407.938 422.582 407.938C423.518 407.938 424.298 407.626 424.922 407.002C425.546 406.366 425.858 405.58 425.858 404.644C425.858 403.708 425.546 402.922 424.922 402.286C424.298 401.65 423.518 401.332 422.582 401.332C421.646 401.332 420.866 401.65 420.242 402.286C419.618 402.922 419.306 403.708 419.306 404.644C419.306 405.58 419.618 406.366 420.242 407.002ZM434.639 409V396.4H443.333V397.732H436.097V401.584H442.019V402.916H436.097V407.668H443.603V409H434.639ZM448.519 409.054L444.523 400.27H446.125L449.203 407.164L452.281 400.27H453.811L449.815 409.054H448.519ZM459.797 409.216C458.441 409.216 457.301 408.79 456.377 407.938C455.453 407.074 454.991 405.976 454.991 404.644C454.991 403.324 455.399 402.232 456.215 401.368C457.043 400.492 458.117 400.054 459.437 400.054C460.121 400.054 460.733 400.198 461.273 400.486C461.825 400.762 462.257 401.128 462.569 401.584C462.881 402.04 463.115 402.526 463.271 403.042C463.439 403.558 463.523 404.08 463.523 404.608V405.004H456.449C456.545 405.904 456.917 406.618 457.565 407.146C458.225 407.674 459.065 407.938 460.085 407.938C461.093 407.938 462.029 407.668 462.893 407.128V408.388C462.161 408.94 461.129 409.216 459.797 409.216ZM456.467 403.852H462.083C462.047 403.216 461.801 402.64 461.345 402.124C460.901 401.596 460.241 401.332 459.365 401.332C458.525 401.332 457.841 401.584 457.313 402.088C456.797 402.58 456.515 403.168 456.467 403.852ZM467.344 409H465.904V400.27H467.344V401.584C467.692 401.152 468.16 400.792 468.748 400.504C469.348 400.204 470.02 400.054 470.764 400.054C471.856 400.054 472.678 400.372 473.23 401.008C473.794 401.644 474.076 402.538 474.076 403.69V409H472.636V403.996C472.636 403.48 472.558 403.042 472.402 402.682C472.258 402.31 472.06 402.04 471.808 401.872C471.556 401.704 471.304 401.584 471.052 401.512C470.812 401.44 470.548 401.404 470.26 401.404C469.696 401.404 469.132 401.584 468.568 401.944C468.004 402.292 467.596 402.694 467.344 403.15V409ZM480.4 409.216C479.572 409.216 478.948 408.976 478.528 408.496C478.108 408.016 477.898 407.368 477.898 406.552V401.512H475.882V400.27H477.898V397.624H479.338V400.27H482.326V401.512H479.338V406.138C479.338 406.786 479.452 407.242 479.68 407.506C479.908 407.77 480.286 407.902 480.814 407.902C481.378 407.902 481.846 407.782 482.218 407.542V408.82C481.81 409.084 481.204 409.216 480.4 409.216ZM487.666 409.216C486.934 409.216 486.232 409.132 485.56 408.964C484.9 408.784 484.396 408.568 484.048 408.316V406.876C484.396 407.14 484.894 407.386 485.542 407.614C486.202 407.83 486.892 407.938 487.612 407.938C488.332 407.938 488.896 407.824 489.304 407.596C489.712 407.368 489.916 407.044 489.916 406.624C489.916 406.48 489.892 406.354 489.844 406.246C489.808 406.138 489.736 406.048 489.628 405.976C489.532 405.892 489.43 405.82 489.322 405.76C489.226 405.7 489.082 405.646 488.89 405.598C488.71 405.538 488.548 405.49 488.404 405.454C488.272 405.418 488.086 405.37 487.846 405.31C487.606 405.25 487.408 405.202 487.252 405.166C486.22 404.902 485.452 404.584 484.948 404.212C484.456 403.828 484.21 403.258 484.21 402.502C484.21 401.746 484.516 401.152 485.128 400.72C485.752 400.276 486.628 400.054 487.756 400.054C489.064 400.054 490.126 400.312 490.942 400.828V402.214C489.982 401.626 488.938 401.332 487.81 401.332C486.382 401.332 485.668 401.734 485.668 402.538C485.668 403.006 486.022 403.366 486.73 403.618C486.97 403.702 487.48 403.834 488.26 404.014C489.244 404.23 490.006 404.536 490.546 404.932C491.098 405.328 491.374 405.904 491.374 406.66C491.374 407.452 491.026 408.076 490.33 408.532C489.646 408.988 488.758 409.216 487.666 409.216Z" fill="#1E4843"/>
<path d="M886.408 131.161C841.157 127.366 803.942 191.46 785.334 240.373C773.07 276.637 778.567 323.441 802.25 350.428C821.196 372.017 872.171 400.185 895.29 411.57C929.122 437.713 935.875 460 1006.5 460C1054.54 461.687 1091.1 427.312 1102.94 385.426C1110.13 362.656 1129.72 350.85 1134.23 314.165C1144.8 228.144 1043.28 213.672 1013.18 201.213C983.079 188.754 960.059 137.338 886.408 131.161Z" fill="white"/>
<path d="M1207.82 417.547C1215.68 412.772 1209.35 391.905 1199.62 398.31C1191.73 404.093 1188.21 399.494 1183.55 402.393C1177.36 406.23 1182.53 417.402 1182.52 417.406C1188.81 430.051 1199.26 426.093 1207.82 417.547Z" fill="url(#paint2_linear)"/>
<path d="M1476 74.9998C1376.42 7.14268 1125.48 229.043 1237.73 315.01C1349.1 379.102 1316.07 437.078 1375.88 477.015C1455.22 530.222 1540.54 430.86 1540.65 430.956C1650.74 309.332 1623.07 135.34 1476 74.9998Z" fill="url(#paint3_linear)"/>
<defs>
<linearGradient id="paint0_linear" x1="3.35508e-06" y1="351.5" x2="1440" y2="327.967" gradientUnits="userSpaceOnUse">
<stop stop-color="#EBF9FD"/>
<stop offset="1" stop-color="#EBFDF5"/>
</linearGradient>
<linearGradient id="paint1_linear" x1="1361.23" y1="387.294" x2="1186.15" y2="465.556" gradientUnits="userSpaceOnUse">
<stop stop-color="#6BDD24"/>
<stop offset="1" stop-color="#39CA21"/>
</linearGradient>
<linearGradient id="paint2_linear" x1="1213.93" y1="418.036" x2="1176.92" y2="407.888" gradientUnits="userSpaceOnUse">
<stop stop-color="#6BDD24"/>
<stop offset="0.807292" stop-color="#6DDE24"/>
</linearGradient>
<linearGradient id="paint3_linear" x1="1386.06" y1="59.0629" x2="1459.09" y2="482.928" gradientUnits="userSpaceOnUse">
<stop stop-color="#FFEC00" stop-opacity="0.75"/>
<stop offset="1" stop-color="#F5F13C" stop-opacity="0.45"/>
</linearGradient>
</defs>
</svg>
