<svg width="65" height="66" viewBox="0 0 65 66" fill="none" xmlns="http://www.w3.org/2000/svg">
<g clip-path="url(#clip0)">
<path d="M62.4067 44.6676H56.7562V39.3641C56.7562 38.3871 55.9135 37.5962 54.8727 37.5962H34.0286V34.0605H39.6791C40.7199 34.0605 41.5626 33.2696 41.5626 32.2927C41.5626 31.3158 40.7199 30.5249 39.6791 30.5249H34.0286V26.9892H47.2131C48.2539 26.9892 49.0966 26.1982 49.0966 25.2213V7.42507C49.0966 6.44815 48.2539 5.65723 47.2131 5.65723H17.0771C16.0362 5.65723 15.1936 6.44815 15.1936 7.42507V25.2213C15.1936 26.1982 16.0362 26.9892 17.0771 26.9892H30.2616V30.5249H24.6111C23.5702 30.5249 22.7276 31.3158 22.7276 32.2927C22.7276 33.2696 23.5702 34.0605 24.6111 34.0605H30.2616V37.5962H9.4175C8.37667 37.5962 7.534 38.3871 7.534 39.3641V44.6676H1.8835C0.842671 44.6676 0 45.4585 0 46.4354V61.4888C0 62.4658 0.842671 63.2567 1.8835 63.2567H16.9515C17.9923 63.2567 18.835 62.4658 18.835 61.4888V46.4354C18.835 45.4585 17.9923 44.6676 16.9515 44.6676H11.301V41.1319H30.2616V44.6676H24.6111C23.5702 44.6676 22.7276 45.4585 22.7276 46.4354V61.4888C22.7276 62.4658 23.5702 63.2567 24.6111 63.2567H39.6791C40.7199 63.2567 41.5626 62.4658 41.5626 61.4888V46.4354C41.5626 45.4585 40.7199 44.6676 39.6791 44.6676H34.0286V41.1319H52.9892V44.6676H47.3387C46.2978 44.6676 45.4552 45.4585 45.4552 46.4354V61.4888C45.4552 62.4658 46.2978 63.2567 47.3387 63.2567H62.4067C63.4475 63.2567 64.2902 62.4658 64.2902 61.4888V46.4354C64.2902 45.4585 63.4475 44.6676 62.4067 44.6676ZM9.4175 58.9282C8.37716 58.9282 7.534 58.1368 7.534 57.1603C7.534 56.1839 8.37716 55.3925 9.4175 55.3925C10.4578 55.3925 11.301 56.1839 11.301 57.1603C11.301 58.1368 10.4578 58.9282 9.4175 58.9282ZM32.1451 58.9282C31.1047 58.9282 30.2616 58.1368 30.2616 57.1603C30.2616 56.1839 31.1047 55.3925 32.1451 55.3925C33.1854 55.3925 34.0286 56.1839 34.0286 57.1603C34.0286 58.1368 33.1854 58.9282 32.1451 58.9282ZM54.8727 58.9282C53.8323 58.9282 52.9892 58.1368 52.9892 57.1603C52.9892 56.1839 53.8323 55.3925 54.8727 55.3925C55.913 55.3925 56.7562 56.1839 56.7562 57.1603C56.7562 58.1368 55.913 58.9282 54.8727 58.9282Z" fill="url(#paint0_linear)"/>
<path d="M9.4175 58.9282C8.37716 58.9282 7.534 58.1368 7.534 57.1603C7.534 56.1839 8.37716 55.3925 9.4175 55.3925C10.4578 55.3925 11.301 56.1839 11.301 57.1603C11.301 58.1368 10.4578 58.9282 9.4175 58.9282Z" fill="url(#paint1_linear)"/>
<path d="M32.1451 58.9282C31.1047 58.9282 30.2616 58.1368 30.2616 57.1603C30.2616 56.1839 31.1047 55.3925 32.1451 55.3925C33.1854 55.3925 34.0286 56.1839 34.0286 57.1603C34.0286 58.1368 33.1854 58.9282 32.1451 58.9282Z" fill="url(#paint2_linear)"/>
<path d="M54.8727 58.9282C53.8323 58.9282 52.9892 58.1368 52.9892 57.1603C52.9892 56.1839 53.8323 55.3925 54.8727 55.3925C55.913 55.3925 56.7562 56.1839 56.7562 57.1603C56.7562 58.1368 55.913 58.9282 54.8727 58.9282Z" fill="url(#paint3_linear)"/>
</g>
<rect x="21.4302" width="32.1451" height="18.2855" rx="2" fill="url(#paint4_linear)"/>
<path d="M40.3696 8.59299C40.6684 8.79068 40.6684 9.22934 40.3696 9.42703L36.5259 11.9696C36.1935 12.1894 35.75 11.9511 35.75 11.5525L35.75 6.46747C35.75 6.06894 36.1935 5.83058 36.5259 6.05045L40.3696 8.59299Z" fill="white"/>
<defs>
<linearGradient id="paint0_linear" x1="32.1451" y1="5.65723" x2="32.1451" y2="63.2567" gradientUnits="userSpaceOnUse">
<stop stop-color="#90EF54"/>
<stop offset="1" stop-color="#37CA2B"/>
</linearGradient>
<linearGradient id="paint1_linear" x1="32.1451" y1="5.65723" x2="32.1451" y2="63.2567" gradientUnits="userSpaceOnUse">
<stop stop-color="#90EF54"/>
<stop offset="1" stop-color="#37CA2B"/>
</linearGradient>
<linearGradient id="paint2_linear" x1="32.1451" y1="5.65723" x2="32.1451" y2="63.2567" gradientUnits="userSpaceOnUse">
<stop stop-color="#90EF54"/>
<stop offset="1" stop-color="#37CA2B"/>
</linearGradient>
<linearGradient id="paint3_linear" x1="32.1451" y1="5.65723" x2="32.1451" y2="63.2567" gradientUnits="userSpaceOnUse">
<stop stop-color="#90EF54"/>
<stop offset="1" stop-color="#37CA2B"/>
</linearGradient>
<linearGradient id="paint4_linear" x1="37.5027" y1="0" x2="37.5027" y2="18.2855" gradientUnits="userSpaceOnUse">
<stop stop-color="#4CB0FD" stop-opacity="0.53"/>
<stop offset="1" stop-color="#32D1F4"/>
</linearGradient>
<clipPath id="clip0">
<rect width="64.2902" height="60.3423" fill="white" transform="translate(0 5.65723)"/>
</clipPath>
</defs>
</svg>
