<svg width="72" height="64" viewBox="0 0 72 64" fill="none" xmlns="http://www.w3.org/2000/svg">
<path d="M42.2858 32.0006C42.2858 26.3198 37.6809 21.7148 32.0001 21.7148C26.3193 21.7148 21.7144 26.3198 21.7144 32.0006C21.7144 37.6814 26.3193 42.2863 32.0001 42.2863C37.6781 42.2796 42.2791 37.6786 42.2858 32.0006ZM37.7144 37.7148C37.7144 38.346 37.2026 38.8577 36.5715 38.8577H27.4286C26.7975 38.8577 26.2858 38.346 26.2858 37.7148V28.572C26.2858 27.9408 26.7975 27.4291 27.4286 27.4291H29.865L28.7635 25.7779C28.413 25.2528 28.5548 24.543 29.0799 24.1925C29.605 23.8421 30.3148 23.9838 30.6652 24.5089L32.0001 26.5151L33.3349 24.5128C33.6853 23.9872 34.3952 23.8454 34.9203 24.1959C35.4454 24.5463 35.5871 25.2561 35.2367 25.7813L34.1351 27.4291H36.5715C37.2026 27.4291 37.7144 27.9408 37.7144 28.572V37.7148Z" fill="url(#paint0_linear)"/>
<path d="M8 17.1429H19.4286C19.606 17.1429 19.7807 17.1836 19.9392 17.2628L25.1429 19.865V8C25.1378 3.5837 21.5592 0.00502231 17.1429 0H8C3.5837 0.00502231 0.00502231 3.5837 0 8V9.14286C0.00502231 13.5592 3.5837 17.1378 8 17.1429ZM16 8H18.2857V10.2857H16V8ZM11.4286 8H13.7143V10.2857H11.4286V8ZM6.85714 8H9.14286V10.2857H6.85714V8Z" fill="url(#paint1_linear)"/>
<path d="M6.85714 8H9.14286V10.2857H6.85714V8Z" fill="url(#paint2_linear)"/>
<path d="M11.4286 8H13.7143V10.2857H11.4286V8Z" fill="url(#paint3_linear)"/>
<path d="M16 8H18.2857V10.2857H16V8Z" fill="url(#paint4_linear)"/>
<path d="M19.4286 46.8569H8C3.58371 46.8619 0.00502231 50.4406 0 54.8569V55.9997C0.00502231 60.416 3.58371 63.9947 8 63.9997H17.1429C21.5592 63.9947 25.1378 60.416 25.1429 55.9997V44.1348L19.9392 46.7425C19.7801 46.8195 19.6055 46.8585 19.4286 46.8569ZM13.2288 61.0042C13.1507 60.9026 13.0558 60.8145 12.9487 60.7436C12.4587 60.4417 11.8203 60.5539 11.4626 61.0053L9.67745 59.579C10.76 58.2179 12.692 57.8859 14.1669 58.8078C14.4922 59.0131 14.7796 59.2737 15.0162 59.5767L13.2288 61.0042ZM16.8013 58.147C15.721 56.7888 14.0798 55.9969 12.3437 55.9969C10.6083 55.9969 8.96708 56.7888 7.88672 58.147L6.10045 56.7207C7.61496 54.8195 9.91295 53.7118 12.3432 53.7118C14.774 53.7118 17.072 54.8195 18.5865 56.7207L16.8013 58.147ZM22.1529 53.8658L20.3677 55.2932C18.4235 52.8474 15.4699 51.4222 12.3449 51.4222C9.22042 51.4222 6.26674 52.8474 4.32254 55.2932L2.5346 53.868C4.91295 50.8797 8.52455 49.1381 12.3437 49.1381C16.1635 49.1381 19.7746 50.8797 22.1529 53.868V53.8658Z" fill="url(#paint5_linear)"/>
<path d="M55.1289 51.4287H47.7283L51.4286 54.5124L55.1289 51.4287Z" fill="url(#paint6_linear)"/>
<path d="M51.4286 57.143C51.1613 57.1436 50.9024 57.0498 50.6971 56.8779L45.7144 52.7256V59.4287H57.1429V52.7256L52.1602 56.8779C51.9549 57.0498 51.6959 57.1436 51.4286 57.143V57.143Z" fill="url(#paint7_linear)"/>
<path d="M56 46.8569H44.5715C44.3946 46.8585 44.2199 46.8195 44.0609 46.7425L38.8572 44.1348V55.9997C38.8622 60.416 42.4409 63.9947 46.8572 63.9997H56C60.4163 63.9947 63.995 60.416 64 55.9997V54.8569C63.995 50.4406 60.4163 46.8619 56 46.8569ZM59.4286 60.5712C59.4286 61.2023 58.9169 61.714 58.2857 61.714H44.5715C43.9403 61.714 43.4286 61.2023 43.4286 60.5712V50.267C43.4292 50.1409 43.4515 50.0159 43.4939 49.897C43.4939 49.8853 43.5051 49.8775 43.5095 49.8658C43.5235 49.8318 43.5464 49.8033 43.5637 49.7687C43.6072 49.6816 43.6624 49.6002 43.7272 49.5265C43.7567 49.4941 43.7891 49.4634 43.8231 49.435C43.8923 49.3736 43.9688 49.3217 44.0514 49.2799C44.0888 49.2592 44.1267 49.2402 44.1658 49.2235C44.2947 49.1722 44.4325 49.1443 44.5715 49.1426H58.2857C58.4236 49.1448 58.5597 49.1722 58.6881 49.2235C58.7272 49.2402 58.7651 49.2592 58.8025 49.2799C58.8851 49.3217 58.9615 49.3736 59.0307 49.435C59.0648 49.4634 59.0971 49.4941 59.1267 49.5265C59.1914 49.6002 59.2467 49.6816 59.2902 49.7687C59.3075 49.8033 59.3304 49.8318 59.3438 49.8658C59.3438 49.8775 59.3566 49.8853 59.36 49.897C59.4024 50.0159 59.4241 50.1409 59.4253 50.267L59.4286 50.2854V60.5712Z" fill="url(#paint8_linear)"/>
<path d="M11.4285 33.1429V36.5714H8.33025C7.78896 35.3315 6.45246 34.6412 5.12768 34.9174C3.80347 35.1936 2.85425 36.361 2.85425 37.7143C2.85425 39.0675 3.80347 40.2349 5.12768 40.5112C6.45246 40.7874 7.78896 40.0971 8.33025 38.8571H12.5713C13.2025 38.8571 13.7142 38.3454 13.7142 37.7143V34.2857H19.4285V32H12.5713C11.9402 32 11.4285 32.5117 11.4285 33.1429Z" fill="url(#paint9_linear)"/>
<path d="M19.4285 27.4293H8.33025C7.78896 26.1894 6.45246 25.4991 5.12768 25.7753C3.80347 26.0516 2.85425 27.219 2.85425 28.5722C2.85425 29.9254 3.80347 31.0929 5.12768 31.3691C6.45246 31.6453 7.78896 30.955 8.33025 29.7151H19.4285V27.4293Z" fill="url(#paint10_linear)"/>
<circle cx="32" cy="32" r="10" fill="white"/>
<mask id="mask0" mask-type="alpha" maskUnits="userSpaceOnUse" x="21" y="21" width="22" height="22">
<circle cx="31.9999" cy="32" r="10.3529" fill="#C4C4C4"/>
</mask>
<g mask="url(#mask0)">
<path d="M32 27.3125C30.9653 27.3125 30.125 28.1538 30.125 29.1875C30.125 30.2212 30.9653 31.0625 32 31.0625C33.0347 31.0625 33.875 30.2212 33.875 29.1875C33.875 28.1538 33.0347 27.3125 32 27.3125Z" fill="url(#paint11_linear)"/>
<path d="M32 34.8125C29.9329 34.8125 28.25 36.4944 28.25 38.5625V41.5962C29.4141 42.0527 30.676 42.3125 32 42.3125C33.324 42.3125 34.5859 42.0527 35.75 41.5962V38.5625C35.75 36.4944 34.0671 34.8125 32 34.8125Z" fill="url(#paint12_linear)"/>
<path d="M44.25 40.5C43.5566 40.5 42.9148 40.7021 42.3572 41.0315L39.9043 38.5793C41.3975 36.7917 42.3125 34.5063 42.3125 32C42.3125 29.4934 41.4119 27.1946 39.9194 25.4055L42.3572 22.9685C42.9148 23.2979 43.5566 23.5 44.25 23.5C46.3171 23.5 48 21.8181 48 19.75C48 17.6819 46.3171 16 44.25 16C42.1829 16 40.5 17.6819 40.5 19.75C40.5 20.4434 40.7019 21.0852 41.0315 21.6428L38.5935 24.0801C36.8044 22.5881 34.5059 21.6875 32 21.6875C29.4941 21.6875 27.1956 22.5881 25.4065 24.0801L22.9685 21.6428C23.2981 21.0852 23.5 20.4434 23.5 19.75C23.5 17.6819 21.8171 16 19.75 16C17.6829 16 16 17.6819 16 19.75C16 21.8181 17.6829 23.5 19.75 23.5C20.4434 23.5 21.0852 23.2979 21.6428 22.9685L24.0806 25.4055C22.5881 27.1946 21.6875 29.4934 21.6875 32C21.6875 34.5063 22.6025 36.7917 24.0957 38.5793C23.5378 38.25 20.4434 40.5 19.75 40.5C17.6829 40.5 16 42.1819 16 44.25C16 46.3181 17.6829 48 19.75 48C21.8171 48 23.5 46.3181 23.5 44.25C23.5 43.5566 23.2981 42.9148 22.9685 42.3572L25.4116 39.915C25.719 40.1709 26.0391 40.4121 26.375 40.6318V38.5625C26.375 35.4607 28.8982 32.9375 32 32.9375C29.9329 32.9375 28.25 31.2556 28.25 29.1875C28.25 27.1194 29.9329 25.4375 32 25.4375C34.0671 25.4375 35.75 27.1194 35.75 29.1875C35.75 31.2556 34.0671 32.9375 32 32.9375C35.1018 32.9375 37.625 35.4607 37.625 38.5625V40.6318C37.9609 40.4121 38.281 40.1709 38.5884 39.915L41.0315 42.3572C40.7019 42.9148 40.5 43.5566 40.5 44.25C40.5 46.3181 42.1829 48 44.25 48C46.3171 48 48 46.3181 48 44.25C48 42.1819 46.3171 40.5 44.25 40.5Z" fill="url(#paint13_linear)"/>
</g>
<path d="M53 20L59 15.5562L53 12V20Z" fill="url(#paint14_linear)"/>
<path d="M60.8636 4H48.1364C41.9887 4.00708 37.007 9.0513 37 15.2761V32L44.2438 28.3323C44.4644 28.2206 44.7075 28.1632 44.9545 28.1632H60.8636C67.0113 28.1561 71.993 23.1119 72 16.887V15.2761C71.993 9.0513 67.0113 4.00708 60.8636 4V4ZM63.379 16.5873L52.2426 24.6417C51.7579 24.9925 51.1201 25.0389 50.5903 24.7629C50.0605 24.4868 49.7273 23.9338 49.7273 23.3305V8.83263C49.7265 8.25687 50.0287 7.72358 50.5212 7.43491C51.0137 7.14703 51.6211 7.14624 52.1136 7.43413L63.25 13.8776C63.7207 14.1506 64.0222 14.6469 64.0493 15.1951C64.0765 15.7434 63.8264 16.268 63.3852 16.5873H63.379Z" fill="url(#paint15_linear)"/>
<defs>
<linearGradient id="paint0_linear" x1="32.0001" y1="21.7148" x2="32.0001" y2="42.2863" gradientUnits="userSpaceOnUse">
<stop stop-color="#79E549"/>
<stop offset="1" stop-color="#21C020"/>
</linearGradient>
<linearGradient id="paint1_linear" x1="12.5714" y1="0" x2="12.5714" y2="19.865" gradientUnits="userSpaceOnUse">
<stop stop-color="#7BE64A"/>
<stop offset="1" stop-color="#74E347"/>
</linearGradient>
<linearGradient id="paint2_linear" x1="12.5714" y1="0" x2="12.5714" y2="19.865" gradientUnits="userSpaceOnUse">
<stop stop-color="#7BE64A"/>
<stop offset="1" stop-color="#74E347"/>
</linearGradient>
<linearGradient id="paint3_linear" x1="12.5714" y1="0" x2="12.5714" y2="19.865" gradientUnits="userSpaceOnUse">
<stop stop-color="#7BE64A"/>
<stop offset="1" stop-color="#74E347"/>
</linearGradient>
<linearGradient id="paint4_linear" x1="12.5714" y1="0" x2="12.5714" y2="19.865" gradientUnits="userSpaceOnUse">
<stop stop-color="#7BE64A"/>
<stop offset="1" stop-color="#74E347"/>
</linearGradient>
<linearGradient id="paint5_linear" x1="12.5714" y1="44.1348" x2="12.5714" y2="63.9997" gradientUnits="userSpaceOnUse">
<stop stop-color="#33C829"/>
<stop offset="1" stop-color="#21C020"/>
</linearGradient>
<linearGradient id="paint6_linear" x1="51.4286" y1="51.4287" x2="51.4286" y2="54.5124" gradientUnits="userSpaceOnUse">
<stop stop-color="#79E549"/>
<stop offset="1" stop-color="#21C020"/>
</linearGradient>
<linearGradient id="paint7_linear" x1="51.4286" y1="52.7256" x2="51.4286" y2="59.4287" gradientUnits="userSpaceOnUse">
<stop stop-color="#79E549"/>
<stop offset="1" stop-color="#21C020"/>
</linearGradient>
<linearGradient id="paint8_linear" x1="51.4286" y1="44.1348" x2="51.4286" y2="63.9997" gradientUnits="userSpaceOnUse">
<stop stop-color="#33C829"/>
<stop offset="1" stop-color="#21C020"/>
</linearGradient>
<linearGradient id="paint9_linear" x1="11.1414" y1="32" x2="11.1414" y2="40.5716" gradientUnits="userSpaceOnUse">
<stop stop-color="#79E549"/>
<stop offset="1" stop-color="#21C020"/>
</linearGradient>
<linearGradient id="paint10_linear" x1="11.1414" y1="25.7148" x2="11.1414" y2="31.4296" gradientUnits="userSpaceOnUse">
<stop stop-color="#79E549"/>
<stop offset="1" stop-color="#21C020"/>
</linearGradient>
<linearGradient id="paint11_linear" x1="32" y1="27.3125" x2="32" y2="31.0625" gradientUnits="userSpaceOnUse">
<stop stop-color="#79E549"/>
<stop offset="1" stop-color="#21C020"/>
</linearGradient>
<linearGradient id="paint12_linear" x1="32" y1="34.8125" x2="32" y2="42.3125" gradientUnits="userSpaceOnUse">
<stop stop-color="#79E549"/>
<stop offset="1" stop-color="#21C020"/>
</linearGradient>
<linearGradient id="paint13_linear" x1="32" y1="16" x2="32" y2="48" gradientUnits="userSpaceOnUse">
<stop stop-color="#79E549"/>
<stop offset="1" stop-color="#21C020"/>
</linearGradient>
<linearGradient id="paint14_linear" x1="56" y1="12" x2="56" y2="20" gradientUnits="userSpaceOnUse">
<stop stop-color="#35D1F4"/>
<stop offset="1" stop-color="#86CEFD"/>
</linearGradient>
<linearGradient id="paint15_linear" x1="54.5" y1="4" x2="54.5" y2="32" gradientUnits="userSpaceOnUse">
<stop stop-color="#32D1F4"/>
<stop offset="1" stop-color="#4CB0FD" stop-opacity="0.61"/>
</linearGradient>
</defs>
</svg>
