<svg width="1440" height="613" viewBox="0 0 1440 613" fill="none" xmlns="http://www.w3.org/2000/svg">
<path opacity="0.7" d="M368.192 491.707C307.871 486.815 228.923 508.29 191.795 525.882C146.368 554.511 312.716 615.861 349.988 586.012C394.35 550.486 571.459 570.438 544.155 538.859C516.85 507.28 437.537 497.331 368.192 491.707Z" fill="#EBFAFC"/>
<path d="M351.987 465.846C221.494 465.846 62.9571 563.949 0 613V0H1440V567.941C1380.1 553.302 1239.22 522.198 1154.98 514.897C1049.67 505.772 861.098 545.274 703.402 534.86C608.394 528.586 515.103 465.846 351.987 465.846Z" fill="url(#paint0_linear)"/>
<defs>
<linearGradient id="paint0_linear" x1="3.35508e-06" y1="292.5" x2="1440" y2="268.967" gradientUnits="userSpaceOnUse">
<stop stop-color="#EBF9FD"/>
<stop offset="1" stop-color="#EBFDF5"/>
</linearGradient>
</defs>
</svg>
