<svg width="75" height="73" viewBox="0 0 75 73" fill="none" xmlns="http://www.w3.org/2000/svg">
<path fill-rule="evenodd" clip-rule="evenodd" d="M3.89643 12.9904H62.6026C64.7508 12.9904 66.499 14.7386 66.499 16.8869V55.5913C66.499 57.7396 64.7508 59.4878 62.6026 59.4878H3.89643C1.7482 59.4878 0 57.7396 0 55.5913V16.8869C0 14.7386 1.7482 12.9904 3.89643 12.9904ZM43.5119 69.0992H54.0322C55.1076 69.0992 55.9804 69.972 55.9804 71.0474C55.9804 72.1228 55.1076 72.9956 54.0322 72.9956H12.4704C11.3949 72.9956 10.5221 72.1228 10.5221 71.0474C10.5221 69.972 11.3949 69.0992 12.4704 69.0992H22.9907V63.3844H43.5119V69.0992Z" fill="url(#paint0_linear)"/>
<g clip-path="url(#clip0)">
<path d="M33.6963 5.60132L33.6963 35.7023C33.6963 38.796 36.2042 41.3039 39.298 41.3039L69.3989 41.3039C72.4926 41.304 75.0005 38.796 75.0005 35.7023L75.0005 5.60132C75.0005 2.5076 72.4926 -0.000274196 69.3989 -0.000274232L39.2979 -0.000274591C36.2042 -0.000354737 33.6963 2.5076 33.6963 5.60132Z" fill="url(#paint1_linear)"/>
<path d="M67.3908 30.9784C67.3908 31.8789 66.4562 32.6089 65.3034 32.6089L42.3042 32.6089C41.1514 32.6089 40.2168 31.8789 40.2168 30.9784C40.2168 30.078 41.1514 29.348 42.3042 29.348L65.3034 29.348C66.4562 29.348 67.3908 30.078 67.3908 30.9784Z" fill="white"/>
<path d="M48.6559 28.728L48.6559 33.8171C48.6559 34.9502 47.645 35.8687 46.3978 35.8687C45.1506 35.8687 44.1396 34.9502 44.1396 33.8171L44.1396 28.7279C44.1396 27.5949 45.1506 26.6764 46.3978 26.6764C47.645 26.6764 48.6559 27.5949 48.6559 28.728Z" fill="white"/>
<path d="M67.3908 20.1088C67.3908 21.0093 66.4562 21.7393 65.3034 21.7393L42.3042 21.7393C41.1514 21.7393 40.2168 21.0093 40.2168 20.1088C40.2168 19.2084 41.1514 18.4784 42.3042 18.4784L65.3034 18.4784C66.4562 18.4784 67.3908 19.2084 67.3908 20.1088Z" fill="white"/>
<path d="M60.8693 18.2453L60.8693 23.0594C60.8693 24.1313 59.896 25.0002 58.6954 25.0002C57.4948 25.0002 56.5215 24.1313 56.5215 23.0594L56.5215 18.2452C56.5215 17.1734 57.4948 16.3045 58.6954 16.3045C59.896 16.3046 60.8693 17.1734 60.8693 18.2453Z" fill="white"/>
<path d="M67.3908 10.3262C67.3908 11.2267 66.4562 11.9567 65.3034 11.9567L42.3042 11.9567C41.1514 11.9567 40.2168 11.2267 40.2168 10.3262C40.2168 9.42578 41.1514 8.69579 42.3042 8.69579L65.3034 8.69579C66.4562 8.69579 67.3908 9.42578 67.3908 10.3262Z" fill="white"/>
<path d="M54.2321 7.48676L54.2321 12.576C54.2321 13.709 53.2211 14.6275 51.974 14.6275C50.7268 14.6275 49.7158 13.709 49.7158 12.576L49.7158 7.48676C49.7158 6.35369 50.7268 5.43517 51.974 5.43517C53.2211 5.43517 54.2321 6.35369 54.2321 7.48676Z" fill="white"/>
</g>
<defs>
<linearGradient id="paint0_linear" x1="32.645" y1="8.75866" x2="32.645" y2="79.4897" gradientUnits="userSpaceOnUse">
<stop stop-color="#0DB817"/>
<stop offset="1" stop-color="#93F055"/>
</linearGradient>
<linearGradient id="paint1_linear" x1="31.5213" y1="39.6745" x2="74.9997" y2="0.000458631" gradientUnits="userSpaceOnUse">
<stop stop-color="#32D1F4" stop-opacity="0.69"/>
<stop offset="1" stop-color="#4CB0FD"/>
</linearGradient>
<clipPath id="clip0">
<rect width="41.3045" height="41.3045" fill="white" transform="translate(33.6953 41.3045) rotate(-90)"/>
</clipPath>
</defs>
</svg>
