<svg width="658" height="646" viewBox="0 0 658 646" fill="none" xmlns="http://www.w3.org/2000/svg">
<path fill-rule="evenodd" clip-rule="evenodd" d="M289.895 40.4679C267.936 51.6673 246.234 64.8633 225.177 79.634C226.747 115.728 228.487 151.523 230.226 179.251C234.985 260.144 247.275 398.686 249.373 422.127C251.735 425.261 251.068 432.4 249.708 434.869C250.057 446.092 253.331 550.797 256.959 645.355C266.751 645.498 276.646 645.319 286.607 644.829C287.706 644.775 288.807 644.716 289.909 644.652C289.304 567.526 288.263 489.462 288.263 489.462L288.463 489.38C288.31 487.172 287.677 476.827 288.494 467.577L288.835 467.626C288.747 467.164 288.725 466.882 288.725 466.882C288.725 466.882 290.105 342.52 290.105 209.821C290.105 158.19 290.035 97.2019 289.895 40.4679ZM307.855 470.587C308.72 475.604 308.267 487.778 307.814 491.199L307.808 491.203C307.762 494.253 307.433 517.466 307.066 573.438C314.229 556.313 324.28 535.467 335.113 519.047C351.394 494.371 381.75 463.754 400.614 448.121C394.301 469.782 380.291 510.193 361.333 537.78C346.263 559.71 323.281 580.287 310.615 591.628L310.583 591.657C309.243 592.857 308.02 593.952 306.933 594.935C306.92 597.249 306.906 599.609 306.893 602.014C306.838 611.807 306.812 625.975 306.81 643.326C447.492 629.366 605.907 541.286 647.853 373.083C691.821 196.774 583.24 -0.000488281 438.397 -0.000488281C430.735 -0.000488281 422.991 0.388098 415.183 1.14511C385.106 56.4406 357.273 108.843 328.273 163.989C323.557 172.763 318.89 181.661 314.203 190.598L314.199 190.605L314.199 190.606C312.007 194.786 309.81 198.974 307.601 203.163C307.595 207.337 307.59 211.525 307.585 215.726C307.52 264.553 307.528 306.022 307.573 340.412C313.096 327.077 322.225 308.208 332.07 294.015C344.418 276.214 367.178 254.298 381.265 243.166C376.271 258.928 365.32 288.297 350.961 308.186C339.547 323.997 322.36 338.681 312.887 346.775L312.886 346.776C310.615 348.716 308.788 350.278 307.589 351.385C307.718 431.827 308.045 470.008 308.045 470.008C308.045 470.008 307.999 470.231 307.855 470.587ZM307.631 182.88C311.719 175.089 315.798 167.335 319.915 159.675C347.821 106.66 374.804 55.8096 403.744 2.50922C372.311 6.94753 340.001 17.1121 308.003 31.7167C307.855 76.9715 307.718 128.441 307.631 182.88ZM196.253 439.111L196.383 439.143C196.246 439.333 196.18 439.438 196.18 439.438C196.18 439.438 197.861 463.562 200.441 501.001C195.828 486.854 191.353 473.028 188.034 462.771C183.452 448.499 180.316 439.081 179.635 437.201C168.347 405.497 146.038 334.922 145.976 334.101L145.547 334.268C142.554 322.36 137.171 302.688 131.735 287.344C124.564 267.099 105.927 241.545 95.3381 229.47C97.508 246.774 104.278 276.707 112.864 295.919C120.572 313.165 132.797 331.89 141.056 342.68L141.315 343.497L141.315 343.497C144.967 355.049 152.729 379.602 160.349 402.746C147.787 393.022 124.292 375.64 104.775 363.403C96.0598 357.938 85.2307 352.984 73.9553 348.7C71.1068 338.18 68.239 327.558 65.3466 316.814C60.6106 299.237 56.119 282.045 51.4952 264.346L51.2112 263.259C83.5501 209.871 128.974 157.658 180.655 113.992C185.944 223.164 194.614 398.952 195.995 426.944L195.943 426.941L195.833 426.934C195.833 426.587 194.096 434.229 196.18 439.092C196.18 439.092 196.205 439.099 196.253 439.111ZM67.2665 346.253C49.2119 339.889 30.8601 335.291 18.862 333.101C32.016 346.003 54.7626 364.802 76.017 378.493C89.3068 427.315 102.298 474.409 115.502 521.924C109.621 519.416 104.275 517.304 99.8494 515.652C105.118 523.057 112.632 532.464 121.093 542.022C124.727 555.07 128.381 568.172 132.068 581.372C135.218 592.851 138.458 604.419 141.713 616.039L141.74 616.133L141.751 616.174C142.752 619.748 143.754 623.326 144.756 626.908C60.1969 597.344 0.261719 530.884 0.261719 417.161C0.261719 371.538 17.7323 320.555 47.0143 270.321C51.1599 286.177 55.2485 301.754 59.5897 317.812C62.1657 327.381 64.7235 336.856 67.2665 346.253ZM137.825 580.374C135.119 570.694 132.434 561.076 129.764 551.501C138.679 560.924 148.108 569.888 156.762 576.562C172.122 588.407 192.517 599.739 207.698 607.088C208.475 618.538 209.267 630.23 210.064 642.047C189.644 639.389 169.976 635.123 151.416 629.144C150.102 624.436 148.785 619.734 147.47 615.041L147.469 615.036L147.467 615.03C144.213 603.414 140.974 591.85 137.825 580.374ZM174.56 555.175C187.586 565.617 198.385 577.638 206.353 587.303C204.975 567.073 203.662 547.874 202.464 530.417C197.651 515.842 191.631 497.362 184.459 475.346L184.447 475.308L184.439 475.283L184.311 474.889C183.305 471.802 182.276 468.645 181.226 465.42C179.561 460.226 178.052 455.448 176.795 451.465L176.793 451.462C174.857 445.327 173.516 441.08 173.115 440.106C170.55 433.073 167.468 424.11 164.221 414.412C147.205 410.497 116.234 400.513 92.1683 387.978C89.284 386.476 86.3058 384.803 83.2685 382.993C96.398 431.193 109.243 477.744 122.365 524.929C139.48 532.621 159.539 543.133 174.56 555.175Z" fill="url(#paint0_linear)" fill-opacity="0.16"/>
<defs>
<linearGradient id="paint0_linear" x1="20.5" y1="523" x2="658" y2="424.499" gradientUnits="userSpaceOnUse">
<stop stop-color="#3FC400" stop-opacity="0.79"/>
<stop offset="1" stop-color="#6BD518" stop-opacity="0.15"/>
</linearGradient>
</defs>
</svg>
