<svg width="362" height="249" viewBox="0 0 362 249" fill="none" xmlns="http://www.w3.org/2000/svg">
<g filter="url(#filter0_d)">
<rect x="21" y="16" width="277" height="176" rx="7" fill="white"/>
</g>
<path d="M281.096 141.504V66.3041C281.096 62.9904 278.41 60.3041 275.096 60.3041L151.679 60.3041C148.365 60.3041 145.679 62.9904 145.679 66.3041L145.679 141.504L281.096 141.504Z" fill="url(#paint0_linear)"/>
<path d="M261.395 141.572H240.239L281.082 100.114V121.588L261.395 141.572ZM208.376 141.572H215.567L281.093 75.06V67.7604L208.376 141.572ZM145.679 90.7362V98.0358L182.761 60.3955H175.57L145.679 90.7362ZM219.886 60.4064H188.549L145.69 103.91V135.72L219.886 60.4064Z" fill="url(#paint1_linear)" fill-opacity="0.3"/>
<rect x="153.067" y="66.8719" width="120.672" height="64.0298" rx="8" fill="#FBFBFB"/>
<path d="M39.1436 45.9269C38.6261 45.9269 38.1749 45.8196 37.7899 45.605C37.4112 45.3904 37.1177 45.0875 36.9095 44.6962C36.7012 44.2986 36.5971 43.8347 36.5971 43.3046V38.9026H37.894V41.5817H37.9035C38.0486 41.3608 38.2506 41.1872 38.5094 41.061C38.7744 40.9348 39.0584 40.8717 39.3614 40.8717C39.8347 40.8717 40.2449 40.9758 40.592 41.1841C40.9391 41.3923 41.2074 41.6795 41.3967 42.0455C41.5923 42.4053 41.6902 42.825 41.6902 43.3046C41.6902 43.8095 41.5892 44.2608 41.3872 44.6584C41.1916 45.0496 40.9044 45.3589 40.5258 45.5861C40.1471 45.8133 39.6864 45.9269 39.1436 45.9269ZM39.1436 44.8193C39.5286 44.8193 39.8284 44.6836 40.043 44.4122C40.2639 44.1345 40.3743 43.7969 40.3743 43.3993C40.3743 43.0017 40.2639 42.6672 40.043 42.3958C39.8284 42.1181 39.5286 41.9793 39.1436 41.9793C38.7586 41.9793 38.4557 42.1181 38.2348 42.3958C38.0202 42.6672 37.9129 43.0017 37.9129 43.3993C37.9129 43.7969 38.0202 44.1345 38.2348 44.4122C38.4557 44.6836 38.7586 44.8193 39.1436 44.8193ZM45.1058 45.9269C44.664 45.9269 44.2791 45.8133 43.9509 45.5861C43.6227 45.3589 43.3671 45.056 43.1841 44.6773C43.0074 44.2923 42.919 43.8695 42.919 43.4087C42.919 42.9354 43.02 42.5063 43.2219 42.1213C43.4302 41.7363 43.7268 41.4334 44.1118 41.2125C44.4968 40.9853 44.9575 40.8717 45.494 40.8717C46.0367 40.8717 46.4943 40.9853 46.8666 41.2125C47.239 41.4397 47.523 41.7458 47.7186 42.1307C47.9143 42.5157 48.0121 42.9417 48.0121 43.4087V45.8133H46.7152V45.0086H46.6962C46.5511 45.2611 46.3523 45.4788 46.0998 45.6618C45.8537 45.8385 45.5224 45.9269 45.1058 45.9269ZM45.475 44.8193C45.8537 44.8193 46.1503 44.6804 46.3649 44.4028C46.5858 44.1251 46.6962 43.7874 46.6962 43.3898C46.6962 42.9985 46.5858 42.6672 46.3649 42.3958C46.1503 42.1181 45.8537 41.9793 45.475 41.9793C45.09 41.9793 44.7871 42.1181 44.5662 42.3958C44.3453 42.6672 44.2349 42.9985 44.2349 43.3898C44.2349 43.7874 44.3453 44.1251 44.5662 44.4028C44.7871 44.6804 45.09 44.8193 45.475 44.8193ZM49.8079 45.8133V42.9449C49.8079 42.5662 49.8994 42.2191 50.0824 41.9035C50.2654 41.588 50.5274 41.3387 50.8682 41.1557C51.2153 40.9663 51.6318 40.8717 52.1178 40.8717C52.4649 40.8717 52.7773 40.9316 53.055 41.0515C53.3327 41.1714 53.5693 41.3355 53.765 41.5438H53.7744C53.9764 41.3355 54.2162 41.1714 54.4939 41.0515C54.7779 40.9316 55.0935 40.8717 55.4406 40.8717C55.9265 40.8717 56.3399 40.9663 56.6807 41.1557C57.0278 41.3387 57.2929 41.588 57.4759 41.9035C57.6589 42.2191 57.7505 42.5662 57.7505 42.9449V45.8133H56.4535V42.9449C56.4535 42.6798 56.3525 42.4526 56.1506 42.2633C55.9549 42.0739 55.7183 41.9793 55.4406 41.9793C55.1629 41.9793 54.9231 42.0739 54.7211 42.2633C54.5255 42.4526 54.4276 42.6798 54.4276 42.9449V45.8133H53.1307V42.9449C53.1307 42.6798 53.0297 42.4526 52.8278 42.2633C52.6321 42.0739 52.3955 41.9793 52.1178 41.9793C51.8401 41.9793 51.6002 42.0739 51.3983 42.2633C51.2026 42.4526 51.1048 42.6798 51.1048 42.9449V45.8133H49.8079ZM62.046 45.9269C61.5285 45.9269 61.0772 45.8196 60.6922 45.605C60.3136 45.3904 60.0201 45.0875 59.8118 44.6962C59.6036 44.2986 59.4994 43.8347 59.4994 43.3046V38.9026H60.7964V41.5817H60.8058C60.951 41.3608 61.153 41.1872 61.4117 41.061C61.6768 40.9348 61.9608 40.8717 62.2637 40.8717C62.7371 40.8717 63.1473 40.9758 63.4944 41.1841C63.8415 41.3923 64.1097 41.6795 64.2991 42.0455C64.4947 42.4053 64.5925 42.825 64.5925 43.3046C64.5925 43.8095 64.4916 44.2608 64.2896 44.6584C64.094 45.0496 63.8068 45.3589 63.4281 45.5861C63.0495 45.8133 62.5887 45.9269 62.046 45.9269ZM62.046 44.8193C62.431 44.8193 62.7307 44.6836 62.9453 44.4122C63.1662 44.1345 63.2767 43.7969 63.2767 43.3993C63.2767 43.0017 63.1662 42.6672 62.9453 42.3958C62.7307 42.1181 62.431 41.9793 62.046 41.9793C61.661 41.9793 61.3581 42.1181 61.1372 42.3958C60.9226 42.6672 60.8153 43.0017 60.8153 43.3993C60.8153 43.7969 60.9226 44.1345 61.1372 44.4122C61.3581 44.6836 61.661 44.8193 62.046 44.8193ZM68.4248 45.9269C67.9263 45.9269 67.4813 45.8164 67.09 45.5956C66.6987 45.3684 66.3895 45.0654 66.1623 44.6868C65.9351 44.3018 65.8215 43.8726 65.8215 43.3993C65.8215 42.9259 65.9351 42.4999 66.1623 42.1213C66.3895 41.7363 66.6987 41.4334 67.09 41.2125C67.4813 40.9853 67.9263 40.8717 68.4248 40.8717C68.9234 40.8717 69.3684 40.9853 69.7597 41.2125C70.1509 41.4334 70.4602 41.7363 70.6874 42.1213C70.9146 42.4999 71.0282 42.9259 71.0282 43.3993C71.0282 43.8726 70.9146 44.3018 70.6874 44.6868C70.4602 45.0654 70.1509 45.3684 69.7597 45.5956C69.3684 45.8164 68.9234 45.9269 68.4248 45.9269ZM68.4248 44.8193C68.8224 44.8193 69.1348 44.6836 69.362 44.4122C69.5956 44.1345 69.7123 43.7969 69.7123 43.3993C69.7123 43.0017 69.5956 42.6672 69.362 42.3958C69.1348 42.1181 68.8224 41.9793 68.4248 41.9793C68.0272 41.9793 67.7117 42.1181 67.4782 42.3958C67.251 42.6672 67.1374 43.0017 67.1374 43.3993C67.1374 43.7969 67.251 44.1345 67.4782 44.4122C67.7117 44.6836 68.0272 44.8193 68.4248 44.8193ZM74.8633 45.9269C74.3647 45.9269 73.9198 45.8164 73.5285 45.5956C73.1372 45.3684 72.8279 45.0654 72.6007 44.6868C72.3735 44.3018 72.2599 43.8726 72.2599 43.3993C72.2599 42.9259 72.3735 42.4999 72.6007 42.1213C72.8279 41.7363 73.1372 41.4334 73.5285 41.2125C73.9198 40.9853 74.3647 40.8717 74.8633 40.8717C75.3618 40.8717 75.8068 40.9853 76.1981 41.2125C76.5894 41.4334 76.8986 41.7363 77.1258 42.1213C77.353 42.4999 77.4666 42.9259 77.4666 43.3993C77.4666 43.8726 77.353 44.3018 77.1258 44.6868C76.8986 45.0654 76.5894 45.3684 76.1981 45.5956C75.8068 45.8164 75.3618 45.9269 74.8633 45.9269ZM74.8633 44.8193C75.2609 44.8193 75.5733 44.6836 75.8005 44.4122C76.034 44.1345 76.1507 43.7969 76.1507 43.3993C76.1507 43.0017 76.034 42.6672 75.8005 42.3958C75.5733 42.1181 75.2609 41.9793 74.8633 41.9793C74.4657 41.9793 74.1501 42.1181 73.9166 42.3958C73.6894 42.6672 73.5758 43.0017 73.5758 43.3993C73.5758 43.7969 73.6894 44.1345 73.9166 44.4122C74.1501 44.6836 74.4657 44.8193 74.8633 44.8193Z" fill="#009F10" fill-opacity="0.27"/>
<rect x="93.2388" y="40.1345" width="188.396" height="5.33582" rx="2.66791" fill="#DBEEEB"/>
<g filter="url(#filter1_d)">
<rect x="153.376" y="67.0801" width="119.821" height="66.5227" rx="4" fill="white"/>
<rect x="153.876" y="67.5801" width="118.821" height="65.5227" rx="3.5" stroke="#3CC932" stroke-dasharray="6 6"/>
</g>
<path d="M78.0704 57.8623H39.3707C38.2662 57.8623 37.3707 58.7577 37.3707 59.8623V77.9452C37.3707 79.0498 38.2662 79.9452 39.3707 79.9452H78.0704C79.175 79.9452 80.0704 79.0498 80.0704 77.9452V59.8623C80.0704 58.7577 79.175 57.8623 78.0704 57.8623Z" fill="#DBEEEB"/>
<path d="M78.2537 84.1809H39.492C38.4964 84.1809 37.6893 84.988 37.6893 85.9836C37.6893 86.9792 38.4964 87.7863 39.492 87.7863H78.2537C79.2493 87.7863 80.0564 86.9792 80.0564 85.9836C80.0564 84.988 79.2493 84.1809 78.2537 84.1809Z" fill="#DBEEEB"/>
<path d="M72.8384 90.3104H39.492C38.4964 90.3104 37.6893 91.1175 37.6893 92.1131C37.6893 93.1087 38.4964 93.9158 39.492 93.9158H72.8384C73.834 93.9158 74.6411 93.1087 74.6411 92.1131C74.6411 91.1175 73.834 90.3104 72.8384 90.3104Z" fill="#DBEEEB"/>
<path d="M126.49 57.8627H87.7904C86.6858 57.8627 85.7904 58.7581 85.7904 59.8627V77.9456C85.7904 79.0502 86.6858 79.9456 87.7904 79.9456H126.49C127.595 79.9456 128.49 79.0502 128.49 77.9456V59.8627C128.49 58.7581 127.595 57.8627 126.49 57.8627Z" fill="#DBEEEB"/>
<path d="M126.673 84.1818H87.593C86.5974 84.1818 85.7903 84.9889 85.7903 85.9845C85.7903 86.9801 86.5974 87.7872 87.593 87.7872H126.673C127.669 87.7872 128.476 86.9801 128.476 85.9845C128.476 84.9889 127.669 84.1818 126.673 84.1818Z" fill="#DBEEEB"/>
<path d="M120.939 90.3113H87.593C86.5974 90.3113 85.7903 91.1184 85.7903 92.114C85.7903 93.1096 86.5974 93.9167 87.593 93.9167H120.939C121.935 93.9167 122.742 93.1096 122.742 92.114C122.742 91.1184 121.935 90.3113 120.939 90.3113Z" fill="#DBEEEB"/>
<path d="M61.7293 69.6005L56.9511 72.3593L56.9511 66.8418L61.7293 69.6005Z" fill="white"/>
<path d="M110.149 69.6005L105.371 72.3593L105.371 66.8418L110.149 69.6005Z" fill="white"/>
<path d="M78.0704 101.184H39.3707C38.2662 101.184 37.3707 102.08 37.3707 103.184V121.267C37.3707 122.372 38.2662 123.267 39.3707 123.267H78.0704C79.175 123.267 80.0704 122.372 80.0704 121.267V103.184C80.0704 102.08 79.175 101.184 78.0704 101.184Z" fill="#DBEEEB"/>
<path d="M78.2537 127.421H39.492C38.4964 127.421 37.6893 128.228 37.6893 129.224C37.6893 130.219 38.4964 131.026 39.492 131.026H78.2537C79.2493 131.026 80.0564 130.219 80.0564 129.224C80.0564 128.228 79.2493 127.421 78.2537 127.421Z" fill="#DBEEEB"/>
<path d="M72.8384 133.55H39.492C38.4964 133.55 37.6893 134.358 37.6893 135.353C37.6893 136.349 38.4964 137.156 39.492 137.156H72.8384C73.834 137.156 74.6411 136.349 74.6411 135.353C74.6411 134.358 73.834 133.55 72.8384 133.55Z" fill="#DBEEEB"/>
<path d="M126.49 101.185H87.7904C86.6858 101.185 85.7904 102.08 85.7904 103.185V121.268C85.7904 122.372 86.6858 123.268 87.7904 123.268H126.49C127.595 123.268 128.49 122.372 128.49 121.268V103.185C128.49 102.08 127.595 101.185 126.49 101.185Z" fill="#DBEEEB"/>
<path d="M126.673 127.446H87.593C86.5974 127.446 85.7903 128.253 85.7903 129.249C85.7903 130.245 86.5974 131.052 87.593 131.052H126.673C127.669 131.052 128.476 130.245 128.476 129.249C128.476 128.253 127.669 127.446 126.673 127.446Z" fill="#DBEEEB"/>
<path d="M120.939 133.575H87.593C86.5974 133.575 85.7903 134.382 85.7903 135.378C85.7903 136.373 86.5974 137.18 87.593 137.18H120.939C121.935 137.18 122.742 136.373 122.742 135.378C122.742 134.382 121.935 133.575 120.939 133.575Z" fill="#DBEEEB"/>
<path d="M61.7293 112.512L56.9511 115.27L56.9511 109.753L61.7293 112.512Z" fill="white"/>
<path d="M110.149 112.512L105.371 115.27L105.371 109.753L110.149 112.512Z" fill="white"/>
<path d="M78.0704 143.872H39.3707C38.2662 143.872 37.3707 144.768 37.3707 145.872V163.955C37.3707 165.06 38.2662 165.955 39.3707 165.955H78.0704C79.175 165.955 80.0704 165.06 80.0704 163.955V145.872C80.0704 144.768 79.175 143.872 78.0704 143.872Z" fill="#DBEEEB"/>
<path d="M78.2538 170.109H39.4921C38.4965 170.109 37.6894 170.916 37.6894 171.911C37.6894 172.907 38.4965 173.714 39.4921 173.714H78.2538C79.2494 173.714 80.0565 172.907 80.0565 171.911C80.0565 170.916 79.2494 170.109 78.2538 170.109Z" fill="#DBEEEB"/>
<path d="M72.8384 176.238H39.4921C38.4965 176.238 37.6894 177.045 37.6894 178.041C37.6894 179.036 38.4965 179.844 39.4921 179.844H72.8384C73.834 179.844 74.6411 179.036 74.6411 178.041C74.6411 177.045 73.834 176.238 72.8384 176.238Z" fill="#DBEEEB"/>
<path d="M126.49 143.871H87.7904C86.6858 143.871 85.7904 144.767 85.7904 145.871V163.954C85.7904 165.059 86.6858 165.954 87.7904 165.954H126.49C127.595 165.954 128.49 165.059 128.49 163.954V145.871C128.49 144.767 127.595 143.871 126.49 143.871Z" fill="#DBEEEB"/>
<path d="M126.673 170.133H87.593C86.5974 170.133 85.7903 170.94 85.7903 171.936C85.7903 172.931 86.5974 173.739 87.593 173.739H126.673C127.669 173.739 128.476 172.931 128.476 171.936C128.476 170.94 127.669 170.133 126.673 170.133Z" fill="#DBEEEB"/>
<path d="M120.939 176.262H87.593C86.5974 176.262 85.7903 177.069 85.7903 178.065C85.7903 179.06 86.5974 179.867 87.593 179.867H120.939C121.935 179.867 122.742 179.06 122.742 178.065C122.742 177.069 121.935 176.262 120.939 176.262Z" fill="#DBEEEB"/>
<path d="M61.7293 155.198L56.9511 157.957L56.9511 152.44L61.7293 155.198Z" fill="white"/>
<path d="M110.149 155.198L105.371 157.957L105.371 152.44L110.149 155.198Z" fill="white"/>
<path d="M21 23C21 19.134 24.134 16 28 16H292C295.866 16 299 19.134 299 23V30H21V23Z" fill="url(#paint2_linear)"/>
<circle cx="37" cy="23" r="2" fill="#6AC2FC"/>
<circle cx="44" cy="23" r="2" fill="#F1EE33" fill-opacity="0.8"/>
<circle cx="51" cy="23" r="2" fill="#89E23A"/>
<path d="M184.39 104H181.77V97H184.39C185.523 97 186.447 97.3267 187.16 97.98C187.873 98.6333 188.23 99.4733 188.23 100.5C188.23 101.533 187.873 102.377 187.16 103.03C186.453 103.677 185.53 104 184.39 104ZM183.21 98.29V102.71H184.27C185.05 102.71 185.657 102.517 186.09 102.13C186.53 101.737 186.75 101.193 186.75 100.5C186.75 99.8067 186.53 99.2667 186.09 98.88C185.657 98.4867 185.05 98.29 184.27 98.29H183.21ZM190.864 104H189.454V99.01H190.864V99.85C191.017 99.5833 191.25 99.3567 191.564 99.17C191.89 98.9767 192.237 98.88 192.604 98.88C192.684 98.88 192.737 98.8833 192.764 98.89V100.27C192.63 100.237 192.484 100.22 192.324 100.22C191.997 100.22 191.697 100.307 191.424 100.48C191.157 100.647 190.97 100.85 190.864 101.09V104ZM194.742 101.5C194.742 101.9 194.872 102.233 195.132 102.5C195.392 102.767 195.722 102.9 196.122 102.9C196.522 102.9 196.852 102.767 197.112 102.5C197.372 102.227 197.502 101.893 197.502 101.5C197.502 101.1 197.372 100.77 197.112 100.51C196.852 100.243 196.522 100.11 196.122 100.11C195.722 100.11 195.392 100.243 195.132 100.51C194.872 100.77 194.742 101.1 194.742 101.5ZM193.352 101.5C193.352 100.76 193.612 100.14 194.132 99.64C194.646 99.1333 195.309 98.88 196.122 98.88C196.936 98.88 197.599 99.1333 198.112 99.64C198.632 100.147 198.892 100.767 198.892 101.5C198.892 102.247 198.632 102.873 198.112 103.38C197.592 103.88 196.929 104.13 196.122 104.13C195.316 104.13 194.652 103.88 194.132 103.38C193.612 102.873 193.352 102.247 193.352 101.5ZM202.982 98.88C203.662 98.88 204.222 99.1333 204.662 99.64C205.109 100.133 205.332 100.757 205.332 101.51C205.332 102.25 205.109 102.873 204.662 103.38C204.222 103.88 203.662 104.13 202.982 104.13C202.282 104.13 201.736 103.883 201.342 103.39V106H199.932V99.01H201.342V99.62C201.716 99.1267 202.262 98.88 202.982 98.88ZM202.582 100.11C202.316 100.11 202.072 100.18 201.852 100.32C201.632 100.46 201.462 100.64 201.342 100.86V102.16C201.462 102.38 201.632 102.56 201.852 102.7C202.072 102.833 202.316 102.9 202.582 102.9C202.982 102.9 203.306 102.767 203.552 102.5C203.806 102.227 203.932 101.897 203.932 101.51C203.932 101.117 203.806 100.783 203.552 100.51C203.306 100.243 202.982 100.11 202.582 100.11ZM210.446 104H209.006V97H210.446V99.62H213.606V97H215.036V104H213.606V100.93H210.446V104ZM218.944 104.13C218.164 104.13 217.508 103.89 216.974 103.41C216.441 102.93 216.174 102.293 216.174 101.5C216.174 100.76 216.414 100.14 216.894 99.64C217.374 99.1333 218.001 98.88 218.774 98.88C219.494 98.88 220.071 99.1367 220.504 99.65C220.938 100.163 221.154 100.787 221.154 101.52V101.89H217.574C217.648 102.223 217.831 102.48 218.124 102.66C218.424 102.84 218.798 102.93 219.244 102.93C219.798 102.93 220.331 102.783 220.844 102.49V103.62C220.398 103.96 219.764 104.13 218.944 104.13ZM217.574 100.99H219.764C219.751 100.703 219.648 100.467 219.454 100.28C219.268 100.087 219.021 99.99 218.714 99.99C218.401 99.99 218.141 100.083 217.934 100.27C217.728 100.45 217.608 100.69 217.574 100.99ZM223.647 104H222.237V99.01H223.647V99.85C223.8 99.5833 224.034 99.3567 224.347 99.17C224.674 98.9767 225.02 98.88 225.387 98.88C225.467 98.88 225.52 98.8833 225.547 98.89V100.27C225.414 100.237 225.267 100.22 225.107 100.22C224.78 100.22 224.48 100.307 224.207 100.48C223.94 100.647 223.754 100.85 223.647 101.09V104ZM228.905 104.13C228.125 104.13 227.469 103.89 226.935 103.41C226.402 102.93 226.135 102.293 226.135 101.5C226.135 100.76 226.375 100.14 226.855 99.64C227.335 99.1333 227.962 98.88 228.735 98.88C229.455 98.88 230.032 99.1367 230.465 99.65C230.899 100.163 231.115 100.787 231.115 101.52V101.89H227.535C227.609 102.223 227.792 102.48 228.085 102.66C228.385 102.84 228.759 102.93 229.205 102.93C229.759 102.93 230.292 102.783 230.805 102.49V103.62C230.359 103.96 229.725 104.13 228.905 104.13ZM227.535 100.99H229.725C229.712 100.703 229.609 100.467 229.415 100.28C229.229 100.087 228.982 99.99 228.675 99.99C228.362 99.99 228.102 100.083 227.895 100.27C227.689 100.45 227.569 100.69 227.535 100.99Z" fill="#1E4843" fill-opacity="0.6"/>
<path d="M361.951 100.432V41C361.951 39.3431 360.608 38 358.951 38L242 38C240.343 38 239 39.3431 239 41V100.432L361.951 100.432Z" fill="url(#paint3_linear)"/>
<path d="M344.063 100.485H324.855L361.939 68.6084V85.1195L344.063 100.485ZM295.925 100.485H302.455L361.949 49.3456V43.7332L295.925 100.485ZM239 61.3984V67.0109L272.669 38.0706H266.139L239 61.3984ZM306.376 38.0789H277.923L239.01 71.5276V95.9846L306.376 38.0789Z" fill="url(#paint4_linear)" fill-opacity="0.3"/>
<path d="M245.971 95.7821C245.636 95.7821 245.344 95.7161 245.095 95.5843C244.85 95.4524 244.66 95.2662 244.526 95.0257C244.391 94.7813 244.323 94.4962 244.323 94.1704V91.465H245.163V93.1115H245.169C245.263 92.9758 245.393 92.8691 245.561 92.7915C245.732 92.7139 245.916 92.6752 246.112 92.6752C246.418 92.6752 246.684 92.7392 246.908 92.8672C247.133 92.9952 247.307 93.1716 247.429 93.3966C247.556 93.6177 247.619 93.8756 247.619 94.1704C247.619 94.4807 247.554 94.7581 247.423 95.0024C247.296 95.2429 247.111 95.433 246.865 95.5726C246.62 95.7123 246.322 95.7821 245.971 95.7821ZM245.971 95.1013C246.22 95.1013 246.414 95.0179 246.553 94.8512C246.696 94.6805 246.767 94.473 246.767 94.2286C246.767 93.9842 246.696 93.7787 246.553 93.6119C246.414 93.4412 246.22 93.3559 245.971 93.3559C245.722 93.3559 245.526 93.4412 245.383 93.6119C245.244 93.7787 245.175 93.9842 245.175 94.2286C245.175 94.473 245.244 94.6805 245.383 94.8512C245.526 95.0179 245.722 95.1013 245.971 95.1013ZM249.829 95.7821C249.543 95.7821 249.294 95.7123 249.082 95.5726C248.869 95.433 248.704 95.2468 248.586 95.0141C248.471 94.7775 248.414 94.5176 248.414 94.2344C248.414 93.9435 248.479 93.6798 248.61 93.4432C248.745 93.2065 248.937 93.0204 249.186 92.8846C249.435 92.745 249.733 92.6752 250.08 92.6752C250.431 92.6752 250.727 92.745 250.968 92.8846C251.209 93.0242 251.393 93.2124 251.52 93.449C251.646 93.6856 251.71 93.9474 251.71 94.2344V95.7123H250.87V95.2177H250.858C250.764 95.3729 250.636 95.5067 250.472 95.6192C250.313 95.7278 250.099 95.7821 249.829 95.7821ZM250.068 95.1013C250.313 95.1013 250.505 95.016 250.644 94.8453C250.787 94.6747 250.858 94.4672 250.858 94.2228C250.858 93.9823 250.787 93.7787 250.644 93.6119C250.505 93.4412 250.313 93.3559 250.068 93.3559C249.819 93.3559 249.623 93.4412 249.48 93.6119C249.337 93.7787 249.265 93.9823 249.265 94.2228C249.265 94.4672 249.337 94.6747 249.48 94.8453C249.623 95.016 249.819 95.1013 250.068 95.1013ZM252.872 95.7123V93.9493C252.872 93.7166 252.931 93.5033 253.049 93.3093C253.168 93.1154 253.337 92.9622 253.558 92.8497C253.782 92.7333 254.052 92.6752 254.366 92.6752C254.591 92.6752 254.793 92.712 254.973 92.7857C255.152 92.8594 255.305 92.9602 255.432 93.0882H255.438C255.569 92.9602 255.724 92.8594 255.904 92.7857C256.087 92.712 256.292 92.6752 256.516 92.6752C256.831 92.6752 257.098 92.7333 257.319 92.8497C257.543 92.9622 257.715 93.1154 257.833 93.3093C257.952 93.5033 258.011 93.7166 258.011 93.9493V95.7123H257.172V93.9493C257.172 93.7864 257.106 93.6468 256.976 93.5304C256.849 93.4141 256.696 93.3559 256.516 93.3559C256.336 93.3559 256.181 93.4141 256.051 93.5304C255.924 93.6468 255.861 93.7864 255.861 93.9493V95.7123H255.022V93.9493C255.022 93.7864 254.956 93.6468 254.826 93.5304C254.699 93.4141 254.546 93.3559 254.366 93.3559C254.186 93.3559 254.031 93.4141 253.901 93.5304C253.774 93.6468 253.711 93.7864 253.711 93.9493V95.7123H252.872ZM260.79 95.7821C260.455 95.7821 260.163 95.7161 259.914 95.5843C259.669 95.4524 259.479 95.2662 259.345 95.0257C259.21 94.7813 259.142 94.4962 259.142 94.1704V91.465H259.982V93.1115H259.988C260.082 92.9758 260.212 92.8691 260.38 92.7915C260.551 92.7139 260.735 92.6752 260.931 92.6752C261.237 92.6752 261.503 92.7392 261.727 92.8672C261.952 92.9952 262.126 93.1716 262.248 93.3966C262.375 93.6177 262.438 93.8756 262.438 94.1704C262.438 94.4807 262.373 94.7581 262.242 95.0024C262.115 95.2429 261.93 95.433 261.685 95.5726C261.44 95.7123 261.141 95.7821 260.79 95.7821ZM260.79 95.1013C261.039 95.1013 261.233 95.0179 261.372 94.8512C261.515 94.6805 261.587 94.473 261.587 94.2286C261.587 93.9842 261.515 93.7787 261.372 93.6119C261.233 93.4412 261.039 93.3559 260.79 93.3559C260.541 93.3559 260.345 93.4412 260.202 93.6119C260.063 93.7787 259.994 93.9842 259.994 94.2286C259.994 94.473 260.063 94.6805 260.202 94.8512C260.345 95.0179 260.541 95.1013 260.79 95.1013ZM264.918 95.7821C264.595 95.7821 264.307 95.7142 264.054 95.5784C263.801 95.4388 263.601 95.2526 263.454 95.0199C263.307 94.7833 263.233 94.5195 263.233 94.2286C263.233 93.9377 263.307 93.6759 263.454 93.4432C263.601 93.2065 263.801 93.0204 264.054 92.8846C264.307 92.745 264.595 92.6752 264.918 92.6752C265.24 92.6752 265.528 92.745 265.781 92.8846C266.035 93.0204 266.235 93.2065 266.382 93.4432C266.529 93.6759 266.602 93.9377 266.602 94.2286C266.602 94.5195 266.529 94.7833 266.382 95.0199C266.235 95.2526 266.035 95.4388 265.781 95.5784C265.528 95.7142 265.24 95.7821 264.918 95.7821ZM264.918 95.1013C265.175 95.1013 265.377 95.0179 265.524 94.8512C265.675 94.6805 265.751 94.473 265.751 94.2286C265.751 93.9842 265.675 93.7787 265.524 93.6119C265.377 93.4412 265.175 93.3559 264.918 93.3559C264.66 93.3559 264.456 93.4412 264.305 93.6119C264.158 93.7787 264.085 93.9842 264.085 94.2286C264.085 94.473 264.158 94.6805 264.305 94.8512C264.456 95.0179 264.66 95.1013 264.918 95.1013ZM269.084 95.7821C268.761 95.7821 268.473 95.7142 268.22 95.5784C267.967 95.4388 267.767 95.2526 267.62 95.0199C267.473 94.7833 267.399 94.5195 267.399 94.2286C267.399 93.9377 267.473 93.6759 267.62 93.4432C267.767 93.2065 267.967 93.0204 268.22 92.8846C268.473 92.745 268.761 92.6752 269.084 92.6752C269.406 92.6752 269.694 92.745 269.947 92.8846C270.201 93.0204 270.401 93.2065 270.548 93.4432C270.695 93.6759 270.768 93.9377 270.768 94.2286C270.768 94.5195 270.695 94.7833 270.548 95.0199C270.401 95.2526 270.201 95.4388 269.947 95.5784C269.694 95.7142 269.406 95.7821 269.084 95.7821ZM269.084 95.1013C269.341 95.1013 269.543 95.0179 269.69 94.8512C269.841 94.6805 269.917 94.473 269.917 94.2286C269.917 93.9842 269.841 93.7787 269.69 93.6119C269.543 93.4412 269.341 93.3559 269.084 93.3559C268.826 93.3559 268.622 93.4412 268.471 93.6119C268.324 93.7787 268.251 93.9842 268.251 94.2286C268.251 94.473 268.324 94.6805 268.471 94.8512C268.622 95.0179 268.826 95.1013 269.084 95.1013Z" fill="#7BE159" fill-opacity="0.8"/>
<path d="M362 100.443H239V106.348C239 108.005 240.343 109.348 242 109.348H359C360.657 109.348 362 108.005 362 106.348V100.443Z" fill="#1E4843"/>
<path d="M358.652 103.464H324.988C324.726 103.464 324.511 103.257 324.511 103.003C324.511 102.749 324.726 102.542 324.988 102.542H358.652C358.914 102.542 359.129 102.749 359.129 103.003C359.119 103.257 358.914 103.464 358.652 103.464Z" fill="white"/>
<path d="M324.979 103.464H242.524C242.261 103.464 242.047 103.257 242.047 103.003C242.047 102.749 242.261 102.542 242.524 102.542H324.979C325.241 102.542 325.456 102.749 325.456 103.003C325.456 103.257 325.241 103.464 324.979 103.464Z" fill="#03D218"/>
<path d="M325.991 103.003C325.991 103.54 325.543 103.973 324.988 103.973C324.433 103.973 323.985 103.54 323.985 103.003C323.985 102.467 324.433 102.034 324.988 102.034C325.533 102.034 325.991 102.467 325.991 103.003Z" fill="#FFFDFF"/>
<path d="M248.257 105.574H248.9V107.701H248.257V105.574ZM247.021 107.701H247.663V105.574H247.021V107.701ZM253.134 105.574V106.43L251.781 105.574V107.701L253.134 106.845V107.701H253.777V105.574H253.134ZM242.144 105.574V107.701H242.786V106.845L244.139 107.701V105.574L242.786 106.43V105.574H242.144Z" fill="white"/>
<path d="M349.131 106.149L349.067 106.002C349.067 106.002 349.216 105.669 349.2 105.659L349.003 105.469C348.987 105.458 348.65 105.606 348.65 105.606L348.495 105.543C348.495 105.543 348.356 105.205 348.34 105.205H348.063C348.041 105.205 347.919 105.543 347.919 105.543L347.764 105.606C347.764 105.606 347.422 105.464 347.406 105.474L347.208 105.664C347.192 105.675 347.353 106.002 347.353 106.002L347.288 106.149C347.288 106.149 346.941 106.281 346.941 106.297V106.566C346.941 106.587 347.288 106.708 347.288 106.708L347.353 106.856C347.353 106.856 347.203 107.188 347.219 107.199L347.417 107.389C347.427 107.399 347.764 107.252 347.764 107.252L347.919 107.315C347.919 107.315 348.057 107.653 348.073 107.653H348.351C348.373 107.653 348.495 107.315 348.495 107.315L348.65 107.252C348.65 107.252 348.992 107.394 349.008 107.384L349.206 107.194C349.222 107.178 349.061 106.856 349.061 106.856L349.125 106.708C349.125 106.708 349.473 106.577 349.473 106.555V106.286C349.478 106.276 349.131 106.149 349.131 106.149ZM348.618 106.434C348.618 106.65 348.437 106.83 348.212 106.83C347.988 106.83 347.806 106.656 347.806 106.434C347.806 106.218 347.988 106.044 348.212 106.044C348.437 106.039 348.618 106.218 348.618 106.434Z" fill="white"/>
<path d="M354.354 107.303H351.281V105.554H354.354V107.303ZM351.508 107.106H354.128V105.746H351.508V107.106Z" fill="white"/>
<path d="M357.482 105.484H358.23V106.212H358.448V105.273H357.482V105.484Z" fill="white"/>
<path d="M356.309 106.213V105.485H357.062V105.274H356.091V106.213H356.309Z" fill="white"/>
<path d="M358.23 106.619V107.346H357.482V107.557H358.448V106.619H358.23Z" fill="white"/>
<path d="M357.062 107.346H356.309V106.619H356.091V107.557H357.062V107.346Z" fill="white"/>
<path d="M298.509 84.5974L298.521 84.8471L298.509 84.5974ZM315.067 72.3149C313.06 80.0983 305.193 84.0287 298.497 84.3477L298.521 84.8471C305.344 84.5222 313.469 80.5132 315.551 72.4398L315.067 72.3149ZM298.497 84.3477C295.02 84.5133 291.75 83.8792 289.358 82.2787C286.979 80.687 285.442 78.1239 285.442 74.3595H284.942C284.942 78.2823 286.555 81.0052 289.08 82.6943C291.591 84.3745 294.98 85.0157 298.521 84.8471L298.497 84.3477ZM285.442 74.3595C285.442 72.4962 286.135 70.4061 287.332 68.3093C288.527 66.215 290.217 64.1295 292.188 62.2795C296.139 58.5713 301.174 55.8503 305.568 55.8503V55.3503C300.993 55.3503 295.841 58.1654 291.846 61.9149C289.844 63.7938 288.121 65.9177 286.898 68.0614C285.676 70.2025 284.942 72.3792 284.942 74.3595H285.442ZM305.568 55.8503C308.819 55.8503 311.695 57.9871 313.515 61.1407C315.334 64.2913 316.072 68.4186 315.067 72.3149L315.551 72.4398C316.591 68.4077 315.827 64.1465 313.948 60.8907C312.071 57.6379 309.054 55.3503 305.568 55.3503V55.8503Z" fill="white" fill-opacity="0.2"/>
<path d="M299.118 80.2903L299.13 80.54L299.118 80.2903ZM310.486 71.7831C309.11 77.1171 303.714 79.8211 299.106 80.0406L299.13 80.54C303.864 80.3145 309.52 77.532 310.97 71.908L310.486 71.7831ZM299.106 80.0406C296.713 80.1545 294.472 79.7175 292.837 78.6237C291.215 77.5389 290.165 75.7922 290.165 73.2153H289.665C289.665 75.9507 290.792 77.857 292.559 79.0393C294.313 80.2128 296.673 80.657 299.13 80.54L299.106 80.0406ZM290.165 73.2153C290.165 71.9457 290.638 70.5147 291.461 69.0725C292.283 67.6328 293.445 66.1976 294.803 64.9236C297.526 62.3674 300.988 60.5016 303.996 60.5016V60.0016C300.807 60.0016 297.228 61.9615 294.461 64.559C293.072 65.8619 291.877 67.3356 291.027 68.8246C290.178 70.3111 289.665 71.8287 289.665 73.2153H290.165ZM303.996 60.5016C306.207 60.5016 308.172 61.9549 309.421 64.1189C310.669 66.28 311.175 69.1115 310.486 71.7831L310.97 71.908C311.694 69.1006 311.162 66.1351 309.854 63.869C308.548 61.6057 306.441 60.0016 303.996 60.0016V60.5016Z" fill="white"/>
<path d="M308.355 71.6215C307.293 75.7398 303.139 77.8017 299.628 77.9689C295.983 78.1426 292.711 76.644 292.711 72.6511C292.711 68.6582 298.636 62.9071 303.295 62.9071C306.794 62.9071 309.417 67.5033 308.355 71.6215Z" fill="url(#paint5_linear)"/>
<path d="M302.18 70.7652L299.931 72.0207L299.931 69.5098L302.18 70.7652Z" fill="#05B514"/>
<g clip-path="url(#clip0)">
<path d="M336.497 78.8652L329.253 68.9258L326.388 81.7218L329.977 79.0813L330.96 84.4653L333.142 83.7767L331.83 78.3288L336.497 78.8652Z" fill="white"/>
<path d="M337.646 79.8979L328.709 66.5943L325.455 83.0495L329.528 80.1891L330.541 85.4965L333.929 84.6207L332.915 79.3133L337.646 79.8979ZM332.768 83.8364L331.307 84.2139L330.209 78.4628L326.901 80.7861L329.2 69.1638L335.512 78.5601L331.67 78.0853L332.768 83.8364Z" fill="#6B6B6B"/>
</g>
<path d="M347.337 82.3742L345.121 82.3742C344.9 82.3742 344.721 82.1951 344.721 81.9742L344.721 79.7584C344.721 79.3603 344.398 79.0376 344 79.0376C343.602 79.0376 343.279 79.3603 343.279 79.7584L343.279 81.9742C343.279 82.1951 343.1 82.3742 342.879 82.3742L340.663 82.3742C340.265 82.3742 339.943 82.6969 339.943 83.095C339.943 83.4931 340.265 83.8158 340.663 83.8158L342.879 83.8158C343.1 83.8158 343.279 83.9949 343.279 84.2158L343.279 86.4316C343.279 86.8297 343.602 87.1524 344 87.1524C344.398 87.1524 344.721 86.8297 344.721 86.4316L344.721 84.2158C344.721 83.9949 344.9 83.8158 345.121 83.8158L347.337 83.8158C347.735 83.8158 348.057 83.4931 348.057 83.095C348.057 82.6969 347.735 82.3742 347.337 82.3742Z" fill="white" stroke="#6B6B6B" stroke-width="0.6"/>
<g filter="url(#filter2_d)">
<rect x="133" y="209" width="214.667" height="28" rx="4" fill="white"/>
<rect x="142.643" y="219.81" width="168.119" height="6.57143" rx="3.28571" fill="#42F4DF" fill-opacity="0.15"/>
<rect x="142.643" y="219.81" width="78.3095" height="6.57143" rx="3.28571" fill="url(#paint6_linear)"/>
<path d="M329 218.597C328.616 218.597 328.323 218.303 328.323 217.919V216.677C328.323 216.294 328.616 216 329 216C329.384 216 329.677 216.294 329.677 216.677V217.919C329.677 218.281 329.384 218.597 329 218.597Z" fill="#82E828" fill-opacity="0.5"/>
<path d="M329 230C328.616 230 328.323 229.706 328.323 229.323V228.081C328.323 227.697 328.616 227.403 329 227.403C329.384 227.403 329.677 227.697 329.677 228.081V229.323C329.677 229.706 329.384 230 329 230Z" fill="#3ED01F"/>
<path d="M326.449 219.274C326.223 219.274 325.997 219.161 325.861 218.935L325.252 217.874C325.071 217.558 325.184 217.129 325.5 216.948C325.816 216.768 326.245 216.881 326.426 217.197L327.036 218.258C327.216 218.574 327.103 219.003 326.787 219.184C326.697 219.229 326.561 219.274 326.449 219.274Z" fill="#82E828" fill-opacity="0.38"/>
<path d="M332.161 229.142C331.935 229.142 331.71 229.029 331.574 228.803L330.964 227.742C330.784 227.426 330.897 226.997 331.213 226.816C331.529 226.636 331.958 226.749 332.139 227.065L332.748 228.126C332.929 228.442 332.816 228.871 332.5 229.052C332.387 229.12 332.274 229.142 332.161 229.142Z" fill="#3ED01F"/>
<path d="M324.597 221.126C324.484 221.126 324.371 221.103 324.258 221.035L323.197 220.426C322.881 220.245 322.768 219.816 322.948 219.5C323.129 219.184 323.558 219.071 323.874 219.252L324.935 219.861C325.252 220.042 325.364 220.471 325.184 220.787C325.048 221.013 324.823 221.126 324.597 221.126Z" fill="#82E828" fill-opacity="0.3"/>
<path d="M334.487 226.839C334.374 226.839 334.261 226.816 334.148 226.748L333.065 226.139C332.748 225.958 332.636 225.529 332.816 225.213C332.997 224.897 333.426 224.784 333.742 224.965L334.803 225.574C335.119 225.755 335.232 226.184 335.052 226.5C334.939 226.726 334.713 226.839 334.487 226.839Z" fill="#82E828"/>
<path d="M323.919 223.677H322.677C322.294 223.677 322 223.384 322 223C322 222.616 322.294 222.322 322.677 222.322H323.919C324.303 222.322 324.597 222.616 324.597 223C324.597 223.384 324.281 223.677 323.919 223.677Z" fill="#82E828" fill-opacity="0.3"/>
<path d="M335.323 223.677H334.081C333.697 223.677 333.403 223.384 333.403 223C333.403 222.616 333.697 222.322 334.081 222.322H335.323C335.706 222.322 336 222.616 336 223C336 223.384 335.706 223.677 335.323 223.677Z" fill="#82E828"/>
<path d="M323.513 226.839C323.287 226.839 323.061 226.726 322.926 226.5C322.745 226.184 322.858 225.755 323.174 225.574L324.235 224.965C324.551 224.784 324.981 224.897 325.161 225.213C325.342 225.529 325.229 225.958 324.913 226.139L323.851 226.748C323.761 226.816 323.648 226.839 323.513 226.839Z" fill="#3ED01F"/>
<path d="M333.403 221.126C333.177 221.126 332.952 221.013 332.816 220.787C332.636 220.471 332.748 220.042 333.065 219.861L334.126 219.252C334.442 219.071 334.871 219.184 335.052 219.5C335.232 219.816 335.119 220.245 334.803 220.426L333.742 221.035C333.629 221.103 333.516 221.126 333.403 221.126Z" fill="#82E828"/>
<path d="M325.839 229.142C325.726 229.142 325.613 229.12 325.5 229.052C325.184 228.871 325.071 228.442 325.252 228.126L325.861 227.065C326.042 226.749 326.471 226.636 326.787 226.816C327.103 226.997 327.216 227.426 327.036 227.742L326.426 228.803C326.29 229.029 326.065 229.142 325.839 229.142Z" fill="#3ED01F"/>
<path d="M331.552 219.274C331.439 219.274 331.326 219.252 331.213 219.184C330.897 219.003 330.784 218.574 330.964 218.258L331.574 217.197C331.755 216.881 332.184 216.768 332.5 216.948C332.816 217.129 332.929 217.558 332.748 217.874L332.139 218.935C332.003 219.139 331.777 219.274 331.552 219.274Z" fill="#82E828" fill-opacity="0.7"/>
</g>
<defs>
<filter id="filter0_d" x="0" y="0" width="319" height="218" filterUnits="userSpaceOnUse" color-interpolation-filters="sRGB">
<feFlood flood-opacity="0" result="BackgroundImageFix"/>
<feColorMatrix in="SourceAlpha" type="matrix" values="0 0 0 0 0 0 0 0 0 0 0 0 0 0 0 0 0 0 127 0"/>
<feOffset dy="5"/>
<feGaussianBlur stdDeviation="10.5"/>
<feColorMatrix type="matrix" values="0 0 0 0 0.623529 0 0 0 0 0.698039 0 0 0 0 0.686275 0 0 0 0.2 0"/>
<feBlend mode="normal" in2="BackgroundImageFix" result="effect1_dropShadow"/>
<feBlend mode="normal" in="SourceGraphic" in2="effect1_dropShadow" result="shape"/>
</filter>
<filter id="filter1_d" x="123.376" y="32.0801" width="209.821" height="156.523" filterUnits="userSpaceOnUse" color-interpolation-filters="sRGB">
<feFlood flood-opacity="0" result="BackgroundImageFix"/>
<feColorMatrix in="SourceAlpha" type="matrix" values="0 0 0 0 0 0 0 0 0 0 0 0 0 0 0 0 0 0 127 0"/>
<feOffset dx="15" dy="10"/>
<feGaussianBlur stdDeviation="22.5"/>
<feColorMatrix type="matrix" values="0 0 0 0 0.624167 0 0 0 0 0.7 0 0 0 0 0.686212 0 0 0 0.27 0"/>
<feBlend mode="normal" in2="BackgroundImageFix" result="effect1_dropShadow"/>
<feBlend mode="normal" in="SourceGraphic" in2="effect1_dropShadow" result="shape"/>
</filter>
<filter id="filter2_d" x="123" y="205" width="230.667" height="44" filterUnits="userSpaceOnUse" color-interpolation-filters="sRGB">
<feFlood flood-opacity="0" result="BackgroundImageFix"/>
<feColorMatrix in="SourceAlpha" type="matrix" values="0 0 0 0 0 0 0 0 0 0 0 0 0 0 0 0 0 0 127 0"/>
<feOffset dx="-2" dy="4"/>
<feGaussianBlur stdDeviation="4"/>
<feColorMatrix type="matrix" values="0 0 0 0 0.623529 0 0 0 0 0.698039 0 0 0 0 0.686275 0 0 0 0.25 0"/>
<feBlend mode="normal" in2="BackgroundImageFix" result="effect1_dropShadow"/>
<feBlend mode="normal" in="SourceGraphic" in2="effect1_dropShadow" result="shape"/>
</filter>
<linearGradient id="paint0_linear" x1="186.909" y1="52.8535" x2="311.297" y2="143.48" gradientUnits="userSpaceOnUse">
<stop stop-color="#DFF2EE"/>
<stop offset="1" stop-color="#E2F2EF"/>
</linearGradient>
<linearGradient id="paint1_linear" x1="159.296" y1="67.8622" x2="283.372" y2="129.303" gradientUnits="userSpaceOnUse">
<stop stop-color="white"/>
<stop offset="1" stop-color="white" stop-opacity="0.96"/>
</linearGradient>
<linearGradient id="paint2_linear" x1="21" y1="29.9999" x2="299" y2="29.9999" gradientUnits="userSpaceOnUse">
<stop stop-color="#39CA21"/>
<stop offset="1" stop-color="#6BDD24"/>
</linearGradient>
<linearGradient id="paint3_linear" x1="276.435" y1="32.2715" x2="375.782" y2="117.747" gradientUnits="userSpaceOnUse">
<stop stop-color="#01B213"/>
<stop offset="1" stop-color="#78EE1B" stop-opacity="0.52"/>
</linearGradient>
<linearGradient id="paint4_linear" x1="251.364" y1="43.8115" x2="355.897" y2="104.938" gradientUnits="userSpaceOnUse">
<stop stop-color="#30CE2D"/>
<stop offset="1" stop-color="#3DCA33" stop-opacity="0.96"/>
</linearGradient>
<linearGradient id="paint5_linear" x1="300.652" y1="62.9071" x2="297.199" y2="79.406" gradientUnits="userSpaceOnUse">
<stop stop-color="white"/>
<stop offset="1" stop-color="white"/>
</linearGradient>
<linearGradient id="paint6_linear" x1="142.643" y1="223.096" x2="211.095" y2="223.096" gradientUnits="userSpaceOnUse">
<stop stop-color="#42F4DF" stop-opacity="0.38"/>
<stop offset="0.984375" stop-color="#20B7D9" stop-opacity="0.63"/>
</linearGradient>
<clipPath id="clip0">
<rect width="16.7231" height="18.1598" fill="white" transform="matrix(0.981547 0.191223 -0.193194 0.981161 326.155 65.835)"/>
</clipPath>
</defs>
</svg>
