<svg width="20" height="19" viewBox="0 0 20 19" fill="none" xmlns="http://www.w3.org/2000/svg">
<g clip-path="url(#clip0)">
<path d="M15.1205 5.08838C14.7248 5.08838 14.4023 4.76588 14.4023 4.37012V2.93359C14.4023 2.53783 14.7248 2.21533 15.1205 2.21533H16.5571C16.9528 2.21533 17.2753 2.53783 17.2753 2.93359V4.37012C17.2753 4.76588 16.9528 5.08838 16.5571 5.08838H15.1205Z" fill="#99FF1E"/>
<path d="M10.0927 6.65942C9.5712 6.65942 9.08996 6.81241 8.67553 7.06381C8.80481 7.02358 8.93913 6.99701 9.08063 6.99701C9.84773 6.99701 10.469 7.6183 10.469 8.38612C10.469 9.15179 9.84773 9.77452 9.08063 9.77452C8.31352 9.77452 7.69223 9.15251 7.69223 8.38612C7.69223 8.24319 7.72024 8.10888 7.75974 7.98031C7.50692 8.39474 7.35464 8.87598 7.35464 9.39744C7.35464 10.9108 8.57928 12.1362 10.0934 12.1362C11.6053 12.1362 12.8321 10.9115 12.8321 9.39744C12.8321 7.88334 11.6046 6.65942 10.0927 6.65942Z" fill="#99FF1E"/>
<path d="M10.0927 5.08838C12.4723 5.08838 14.4022 7.01763 14.4022 9.39794C14.4022 11.7783 12.4716 13.7075 10.0927 13.7075C7.71308 13.7075 5.78311 11.7783 5.78311 9.39794C5.78311 7.01763 7.71308 5.08838 10.0927 5.08838ZM10.0927 3.65186C6.92443 3.65186 4.34659 6.22969 4.34659 9.39794C4.34659 12.5662 6.92443 15.144 10.0927 15.144C13.2609 15.144 15.8388 12.5662 15.8388 9.39794C15.8388 6.22969 13.2609 3.65186 10.0927 3.65186Z" fill="#99FF1E"/>
<path d="M15.9285 0.0605469H4.2568C2.32253 0.0605469 0.75528 1.62779 0.75528 3.56207V15.2338C0.75528 17.1681 2.32253 18.7353 4.2568 18.7353H15.9285C17.8628 18.7353 19.4301 17.1681 19.4301 15.2338V3.56207C19.4301 1.62779 17.8628 0.0605469 15.9285 0.0605469ZM17.9935 6.5249H13.2983C13.9828 7.28841 14.4022 8.29254 14.4022 9.39794C14.4022 11.7783 12.4716 13.7075 10.0927 13.7075C7.71307 13.7075 5.78311 11.7783 5.78311 9.39794C5.78311 8.29254 6.20257 7.28769 6.88707 6.5249H2.1918V3.56207C2.1918 2.42363 3.11836 1.49707 4.2568 1.49707H15.9285C17.0677 1.49707 17.9935 2.42363 17.9935 3.56207V6.5249Z" fill="#99FF1E"/>
</g>
<defs>
<clipPath id="clip0">
<rect width="18.6748" height="18.6748" fill="white" transform="translate(0.75528 0.0605469)"/>
</clipPath>
</defs>
</svg>
