<svg width="356" height="232" viewBox="0 0 356 232" fill="none" xmlns="http://www.w3.org/2000/svg">
<g filter="url(#filter0_d)">
<rect x="40.9736" y="16.0759" width="297.641" height="189.36" rx="7" fill="white"/>
</g>
<path d="M320.812 148.955V67.5913C320.812 64.2776 318.126 61.5913 314.812 61.5913L181.116 61.5913C177.803 61.5913 175.116 64.2776 175.116 67.5913L175.116 148.955L320.812 148.955Z" fill="url(#paint0_linear)"/>
<path d="M299.616 149.029H276.854L320.798 104.423V127.528L299.616 149.029ZM242.572 149.029H250.31L320.81 77.4681V69.6144L242.572 149.029ZM175.117 94.3342V102.188L215.014 61.6904H207.276L175.117 94.3342ZM254.957 61.7021H221.24L175.128 108.508V142.732L254.957 61.7021Z" fill="url(#paint1_linear)" fill-opacity="0.3"/>
<rect x="183.065" y="68.6576" width="129.832" height="68.8902" rx="8" fill="#FBFBFB"/>
<rect x="173.792" y="155.654" width="147.054" height="33.5619" fill="url(#paint2_linear)" fill-opacity="0.8"/>
<path d="M60.4947 46.1227C59.9379 46.1227 59.4524 46.0073 59.0382 45.7764C58.6308 45.5455 58.3151 45.2196 58.091 44.7986C57.8669 44.3708 57.7549 43.8717 57.7549 43.3014V38.5652H59.1503V41.4476H59.1605C59.3166 41.21 59.5339 41.0232 59.8123 40.8874C60.0975 40.7516 60.4031 40.6837 60.729 40.6837C61.2383 40.6837 61.6796 40.7958 62.0531 41.0198C62.4265 41.2439 62.7151 41.5529 62.9188 41.9467C63.1293 42.3338 63.2346 42.7853 63.2346 43.3014C63.2346 43.8446 63.1259 44.3301 62.9087 44.7579C62.6982 45.1789 62.3892 45.5116 61.9818 45.756C61.5744 46.0005 61.0787 46.1227 60.4947 46.1227ZM60.4947 44.931C60.9089 44.931 61.2315 44.785 61.4623 44.493C61.7 44.1943 61.8188 43.831 61.8188 43.4032C61.8188 42.9754 61.7 42.6155 61.4623 42.3236C61.2315 42.0248 60.9089 41.8754 60.4947 41.8754C60.0805 41.8754 59.7546 42.0248 59.5169 42.3236C59.2861 42.6155 59.1706 42.9754 59.1706 43.4032C59.1706 43.831 59.2861 44.1943 59.5169 44.493C59.7546 44.785 60.0805 44.931 60.4947 44.931ZM66.9095 46.1227C66.4342 46.1227 66.02 46.0005 65.6669 45.756C65.3138 45.5116 65.0388 45.1856 64.8419 44.7782C64.6518 44.364 64.5567 43.9091 64.5567 43.4134C64.5567 42.9041 64.6653 42.4424 64.8826 42.0282C65.1067 41.614 65.4258 41.2881 65.84 41.0504C66.2542 40.806 66.7499 40.6837 67.3271 40.6837C67.9111 40.6837 68.4033 40.806 68.804 41.0504C69.2046 41.2949 69.5102 41.6242 69.7206 42.0384C69.9311 42.4526 70.0364 42.9109 70.0364 43.4134V46.0005H68.641V45.1347H68.6206C68.4645 45.4063 68.2506 45.6406 67.979 45.8375C67.7141 46.0276 67.3577 46.1227 66.9095 46.1227ZM67.3067 44.931C67.7141 44.931 68.0333 44.7816 68.2641 44.4829C68.5018 44.1841 68.6206 43.8208 68.6206 43.393C68.6206 42.972 68.5018 42.6155 68.2641 42.3236C68.0333 42.0248 67.7141 41.8754 67.3067 41.8754C66.8925 41.8754 66.5666 42.0248 66.3289 42.3236C66.0913 42.6155 65.9725 42.972 65.9725 43.393C65.9725 43.8208 66.0913 44.1841 66.3289 44.4829C66.5666 44.7816 66.8925 44.931 67.3067 44.931ZM71.9685 46.0005V42.9143C71.9685 42.5069 72.0669 42.1334 72.2639 41.7939C72.4608 41.4544 72.7426 41.1862 73.1092 40.9893C73.4827 40.7856 73.9309 40.6837 74.4537 40.6837C74.8272 40.6837 75.1633 40.7482 75.4621 40.8773C75.7608 41.0063 76.0155 41.1828 76.226 41.4069H76.2361C76.4534 41.1828 76.7115 41.0063 77.0102 40.8773C77.3158 40.7482 77.6553 40.6837 78.0288 40.6837C78.5516 40.6837 78.9964 40.7856 79.363 40.9893C79.7365 41.1862 80.0217 41.4544 80.2186 41.7939C80.4155 42.1334 80.514 42.5069 80.514 42.9143V46.0005H79.1186V42.9143C79.1186 42.6291 79.0099 42.3847 78.7927 42.181C78.5822 41.9773 78.3275 41.8754 78.0288 41.8754C77.73 41.8754 77.472 41.9773 77.2547 42.181C77.0442 42.3847 76.9389 42.6291 76.9389 42.9143V46.0005H75.5435V42.9143C75.5435 42.6291 75.4349 42.3847 75.2176 42.181C75.0071 41.9773 74.7525 41.8754 74.4537 41.8754C74.1549 41.8754 73.8969 41.9773 73.6796 42.181C73.4691 42.3847 73.3639 42.6291 73.3639 42.9143V46.0005H71.9685ZM85.1356 46.1227C84.5788 46.1227 84.0933 46.0073 83.6791 45.7764C83.2716 45.5455 82.9559 45.2196 82.7318 44.7986C82.5077 44.3708 82.3957 43.8717 82.3957 43.3014V38.5652H83.7911V41.4476H83.8013C83.9575 41.21 84.1747 41.0232 84.4531 40.8874C84.7383 40.7516 85.0439 40.6837 85.3698 40.6837C85.8791 40.6837 86.3204 40.7958 86.6939 41.0198C87.0674 41.2439 87.356 41.5529 87.5597 41.9467C87.7702 42.3338 87.8754 42.7853 87.8754 43.3014C87.8754 43.8446 87.7668 44.3301 87.5495 44.7579C87.339 45.1789 87.03 45.5116 86.6226 45.756C86.2152 46.0005 85.7195 46.1227 85.1356 46.1227ZM85.1356 44.931C85.5498 44.931 85.8723 44.785 86.1032 44.493C86.3408 44.1943 86.4596 43.831 86.4596 43.4032C86.4596 42.9754 86.3408 42.6155 86.1032 42.3236C85.8723 42.0248 85.5498 41.8754 85.1356 41.8754C84.7214 41.8754 84.3954 42.0248 84.1578 42.3236C83.9269 42.6155 83.8115 42.9754 83.8115 43.4032C83.8115 43.831 83.9269 44.1943 84.1578 44.493C84.3954 44.785 84.7214 44.931 85.1356 44.931ZM91.9986 46.1227C91.4622 46.1227 90.9835 46.0039 90.5625 45.7662C90.1415 45.5218 89.8088 45.1958 89.5643 44.7884C89.3199 44.3742 89.1977 43.9125 89.1977 43.4032C89.1977 42.8939 89.3199 42.4356 89.5643 42.0282C89.8088 41.614 90.1415 41.2881 90.5625 41.0504C90.9835 40.806 91.4622 40.6837 91.9986 40.6837C92.535 40.6837 93.0138 40.806 93.4348 41.0504C93.8557 41.2881 94.1885 41.614 94.4329 42.0282C94.6774 42.4356 94.7996 42.8939 94.7996 43.4032C94.7996 43.9125 94.6774 44.3742 94.4329 44.7884C94.1885 45.1958 93.8557 45.5218 93.4348 45.7662C93.0138 46.0039 92.535 46.1227 91.9986 46.1227ZM91.9986 44.931C92.4264 44.931 92.7625 44.785 93.007 44.493C93.2582 44.1943 93.3838 43.831 93.3838 43.4032C93.3838 42.9754 93.2582 42.6155 93.007 42.3236C92.7625 42.0248 92.4264 41.8754 91.9986 41.8754C91.5708 41.8754 91.2313 42.0248 90.9801 42.3236C90.7356 42.6155 90.6134 42.9754 90.6134 43.4032C90.6134 43.831 90.7356 44.1943 90.9801 44.493C91.2313 44.785 91.5708 44.931 91.9986 44.931ZM98.9258 46.1227C98.3893 46.1227 97.9106 46.0039 97.4896 45.7662C97.0686 45.5218 96.7359 45.1958 96.4915 44.7884C96.247 44.3742 96.1248 43.9125 96.1248 43.4032C96.1248 42.8939 96.247 42.4356 96.4915 42.0282C96.7359 41.614 97.0686 41.2881 97.4896 41.0504C97.9106 40.806 98.3893 40.6837 98.9258 40.6837C99.4622 40.6837 99.9409 40.806 100.362 41.0504C100.783 41.2881 101.116 41.614 101.36 42.0282C101.605 42.4356 101.727 42.8939 101.727 43.4032C101.727 43.9125 101.605 44.3742 101.36 44.7884C101.116 45.1958 100.783 45.5218 100.362 45.7662C99.9409 46.0039 99.4622 46.1227 98.9258 46.1227ZM98.9258 44.931C99.3535 44.931 99.6897 44.785 99.9341 44.493C100.185 44.1943 100.311 43.831 100.311 43.4032C100.311 42.9754 100.185 42.6155 99.9341 42.3236C99.6897 42.0248 99.3535 41.8754 98.9258 41.8754C98.498 41.8754 98.1585 42.0248 97.9072 42.3236C97.6628 42.6155 97.5406 42.9754 97.5406 43.4032C97.5406 43.831 97.6628 44.1943 97.9072 44.493C98.1585 44.785 98.498 44.931 98.9258 44.931Z" fill="#009F10" fill-opacity="0.27"/>
<rect x="118.696" y="39.8906" width="202.696" height="5.74085" rx="2.87043" fill="#DBEEEB"/>
<circle cx="312.56" cy="178.554" r="9.71528" fill="url(#paint3_linear)"/>
<path d="M315.634 173.549H308.863C307.98 173.549 307.685 174.432 307.685 174.727C307.587 176.689 307.45 180.85 307.685 181.792C307.921 182.734 308.667 182.97 308.863 182.97H314.162L317.106 184.147V174.727C317.106 173.784 316.125 173.549 315.634 173.549Z" fill="white"/>
<path d="M309.157 180.32C309.648 180.713 310.983 181.498 312.396 181.498C313.809 181.498 314.947 180.713 315.34 180.32" stroke="#27B9ED"/>
<g filter="url(#filter1_d)">
<rect x="183.397" y="68.8816" width="128.916" height="71.5723" rx="4" fill="white"/>
</g>
<path d="M305.847 128.733V73.6313L189.866 73.6313V128.733H305.847Z" fill="#EAF5F3"/>
<path d="M288.974 128.726H270.854L305.836 100.584V115.161L288.974 128.726ZM243.564 128.726H249.723L305.845 83.578V78.6232L243.564 128.726ZM189.865 94.2188V99.1736L221.625 73.624H215.466L189.865 94.2188ZM253.422 73.6314H226.582L189.874 103.161V124.753L253.422 73.6314Z" fill="white" fill-opacity="0.4"/>
<path d="M305.845 128.726H189.865V135.711H305.845V128.726Z" fill="#1E4843"/>
<path d="M302.687 131.094H270.945C270.698 131.094 270.496 130.932 270.496 130.732C270.496 130.533 270.698 130.371 270.945 130.371H302.687C302.935 130.371 303.137 130.533 303.137 130.732C303.128 130.932 302.935 131.094 302.687 131.094Z" fill="white"/>
<path d="M270.936 131.095H193.188C192.94 131.095 192.738 130.933 192.738 130.733C192.738 130.534 192.94 130.372 193.188 130.372H270.936C271.184 130.372 271.386 130.534 271.386 130.733C271.386 130.933 271.184 131.095 270.936 131.095Z" fill="#03D218"/>
<path d="M271.891 130.733C271.891 131.154 271.469 131.494 270.945 131.494C270.422 131.494 270 131.154 270 130.733C270 130.312 270.422 129.973 270.945 129.973C271.46 129.973 271.891 130.312 271.891 130.733Z" fill="#FFFDFF"/>
<path d="M198.594 132.748H199.2V134.417H198.594V132.748ZM197.428 134.417H198.034V132.748H197.428V134.417ZM203.193 132.748V133.42L201.917 132.748V134.417L203.193 133.745V134.417H203.799V132.748H203.193ZM192.83 132.748V134.417H193.435V133.745L194.711 134.417V132.748L193.435 133.42V132.748H192.83Z" fill="white"/>
<path d="M300.975 133.369V133.044H301.596V132.748H300.673V133.369H300.975Z" fill="#FFFDFF"/>
<path d="M302.095 133.044H302.716V133.369H303.018V132.749H302.095V133.044Z" fill="#FFFDFF"/>
<path d="M301.596 134.174H300.975V133.857H300.673V134.47H301.596V134.174Z" fill="#FFFDFF"/>
<path d="M302.716 133.857V134.174H302.095V134.47H303.018V133.857H302.716Z" fill="white"/>
<path d="M107.908 58.9639H65.9668C64.8622 58.9639 63.9668 59.8593 63.9668 60.9639V80.7231C63.9668 81.8276 64.8622 82.7231 65.9668 82.7231H107.908C109.012 82.7231 109.908 81.8276 109.908 80.7231V60.9639C109.908 59.8593 109.012 58.9639 107.908 58.9639Z" fill="#DBEEEB"/>
<path d="M107.953 87.2805H66.2491C65.1779 87.2805 64.3096 88.1489 64.3096 89.2201C64.3096 90.2912 65.1779 91.1596 66.2491 91.1596H107.953C109.024 91.1596 109.893 90.2912 109.893 89.2201C109.893 88.1489 109.024 87.2805 107.953 87.2805Z" fill="#DBEEEB"/>
<path d="M102.127 93.8752H66.2491C65.1779 93.8752 64.3096 94.7436 64.3096 95.8148C64.3096 96.886 65.1779 97.7543 66.2491 97.7543H102.127C103.198 97.7543 104.066 96.886 104.066 95.8148C104.066 94.7436 103.198 93.8752 102.127 93.8752Z" fill="#DBEEEB"/>
<path d="M160.002 58.9644H118.062C116.957 58.9644 116.062 59.8598 116.062 60.9644V80.7236C116.062 81.8281 116.957 82.7236 118.062 82.7236H160.002C161.107 82.7236 162.002 81.8281 162.002 80.7236V60.9644C162.002 59.8598 161.107 58.9644 160.002 58.9644Z" fill="#DBEEEB"/>
<path d="M160.048 87.2812H118.001C116.93 87.2812 116.062 88.1496 116.062 89.2208C116.062 90.292 116.93 91.1603 118.001 91.1603H160.048C161.119 91.1603 161.987 90.292 161.987 89.2208C161.987 88.1496 161.119 87.2812 160.048 87.2812Z" fill="#DBEEEB"/>
<path d="M153.879 93.876H118.001C116.93 93.876 116.062 94.7443 116.062 95.8155C116.062 96.8867 116.93 97.7551 118.001 97.7551H153.879C154.95 97.7551 155.818 96.8867 155.818 95.8155C155.818 94.7443 154.95 93.876 153.879 93.876Z" fill="#DBEEEB"/>
<path d="M90.1743 71.5932L85.0334 74.5613L85.0334 68.6251L90.1743 71.5932Z" fill="white"/>
<path d="M142.27 71.5932L137.129 74.5613L137.129 68.6251L142.27 71.5932Z" fill="white"/>
<path d="M107.908 105.574H65.9668C64.8622 105.574 63.9668 106.47 63.9668 107.574V127.334C63.9668 128.438 64.8622 129.334 65.9668 129.334H107.908C109.012 129.334 109.908 128.438 109.908 127.334V107.574C109.908 106.47 109.012 105.574 107.908 105.574Z" fill="#DBEEEB"/>
<path d="M107.953 133.802H66.2491C65.1779 133.802 64.3096 134.671 64.3096 135.742C64.3096 136.813 65.1779 137.682 66.2491 137.682H107.953C109.024 137.682 109.893 136.813 109.893 135.742C109.893 134.671 109.024 133.802 107.953 133.802Z" fill="#DBEEEB"/>
<path d="M102.127 140.397H66.2491C65.1779 140.397 64.3096 141.266 64.3096 142.337C64.3096 143.408 65.1779 144.277 66.2491 144.277H102.127C103.198 144.277 104.066 143.408 104.066 142.337C104.066 141.266 103.198 140.397 102.127 140.397Z" fill="#DBEEEB"/>
<path d="M160.002 105.575H118.062C116.957 105.575 116.062 106.47 116.062 107.575V127.334C116.062 128.439 116.957 129.334 118.062 129.334H160.002C161.107 129.334 162.002 128.439 162.002 127.334V107.575C162.002 106.47 161.107 105.575 160.002 105.575Z" fill="#DBEEEB"/>
<path d="M160.048 133.83H118.001C116.93 133.83 116.062 134.698 116.062 135.769C116.062 136.841 116.93 137.709 118.001 137.709H160.048C161.119 137.709 161.987 136.841 161.987 135.769C161.987 134.698 161.119 133.83 160.048 133.83Z" fill="#DBEEEB"/>
<path d="M153.879 140.424H118.001C116.93 140.424 116.062 141.292 116.062 142.363C116.062 143.435 116.93 144.303 118.001 144.303H153.879C154.95 144.303 155.818 143.435 155.818 142.363C155.818 141.292 154.95 140.424 153.879 140.424Z" fill="#DBEEEB"/>
<path d="M90.1743 117.762L85.0334 120.73L85.0334 114.794L90.1743 117.762Z" fill="white"/>
<path d="M142.27 117.762L137.129 120.73L137.129 114.794L142.27 117.762Z" fill="white"/>
<path d="M107.908 151.503H65.9668C64.8622 151.503 63.9668 152.398 63.9668 153.503V173.262C63.9668 174.366 64.8622 175.262 65.9668 175.262H107.908C109.012 175.262 109.908 174.366 109.908 173.262V153.503C109.908 152.398 109.012 151.503 107.908 151.503Z" fill="#DBEEEB"/>
<path d="M107.953 179.731H66.2491C65.1779 179.731 64.3096 180.599 64.3096 181.67C64.3096 182.741 65.1779 183.61 66.2491 183.61H107.953C109.024 183.61 109.893 182.741 109.893 181.67C109.893 180.599 109.024 179.731 107.953 179.731Z" fill="#DBEEEB"/>
<path d="M102.127 186.325H66.2491C65.1779 186.325 64.3096 187.194 64.3096 188.265C64.3096 189.336 65.1779 190.205 66.2491 190.205H102.127C103.198 190.205 104.066 189.336 104.066 188.265C104.066 187.194 103.198 186.325 102.127 186.325Z" fill="#DBEEEB"/>
<path d="M160.002 151.502H118.062C116.957 151.502 116.062 152.397 116.062 153.502V173.261C116.062 174.366 116.957 175.261 118.062 175.261H160.002C161.107 175.261 162.002 174.366 162.002 173.261V153.502C162.002 152.397 161.107 151.502 160.002 151.502Z" fill="#DBEEEB"/>
<path d="M160.048 179.757H118.001C116.93 179.757 116.062 180.625 116.062 181.697C116.062 182.768 116.93 183.636 118.001 183.636H160.048C161.119 183.636 161.987 182.768 161.987 181.697C161.987 180.625 161.119 179.757 160.048 179.757Z" fill="#DBEEEB"/>
<path d="M153.879 186.351H118.001C116.93 186.351 116.062 187.219 116.062 188.291C116.062 189.362 116.93 190.23 118.001 190.23H153.879C154.95 190.23 155.818 189.362 155.818 188.291C155.818 187.219 154.95 186.351 153.879 186.351Z" fill="#DBEEEB"/>
<path d="M90.1743 163.689L85.0334 166.657L85.0334 160.721L90.1743 163.689Z" fill="white"/>
<path d="M142.27 163.689L137.129 166.657L137.129 160.721L142.27 163.689Z" fill="white"/>
<path d="M314.201 133.815V69.6436C314.201 67.9867 312.858 66.6436 311.201 66.6436L184.917 66.6436C183.26 66.6436 181.917 67.9867 181.917 69.6436V133.815L314.201 133.815Z" fill="url(#paint4_linear)"/>
<path d="M294.956 133.872H274.29L314.189 99.5762V117.34L294.956 133.872ZM243.164 133.872H250.189L314.199 78.8511V72.8126L243.164 133.872ZM181.918 91.8189V97.8573L218.142 66.7202H211.117L181.918 91.8189ZM254.408 66.7292H223.796L181.928 102.717V129.03L254.408 66.7292Z" fill="url(#paint5_linear)" fill-opacity="0.3"/>
<path d="M189.418 128.812C189.058 128.812 188.743 128.741 188.475 128.599C188.212 128.457 188.007 128.257 187.863 127.998C187.718 127.735 187.645 127.428 187.645 127.078V124.167H188.548V125.939H188.555C188.656 125.792 188.796 125.678 188.976 125.594C189.161 125.511 189.359 125.469 189.569 125.469C189.899 125.469 190.185 125.538 190.426 125.676C190.668 125.813 190.855 126.003 190.986 126.245C191.123 126.483 191.191 126.761 191.191 127.078C191.191 127.412 191.12 127.71 190.98 127.973C190.844 128.232 190.644 128.436 190.38 128.586C190.116 128.737 189.796 128.812 189.418 128.812ZM189.418 128.079C189.686 128.079 189.895 127.99 190.044 127.81C190.198 127.627 190.275 127.403 190.275 127.14C190.275 126.878 190.198 126.656 190.044 126.477C189.895 126.293 189.686 126.201 189.418 126.201C189.15 126.201 188.939 126.293 188.785 126.477C188.636 126.656 188.561 126.878 188.561 127.14C188.561 127.403 188.636 127.627 188.785 127.81C188.939 127.99 189.15 128.079 189.418 128.079ZM193.569 128.812C193.261 128.812 192.993 128.737 192.765 128.586C192.536 128.436 192.358 128.236 192.231 127.985C192.108 127.731 192.046 127.451 192.046 127.147C192.046 126.834 192.116 126.55 192.257 126.295C192.402 126.041 192.609 125.84 192.877 125.694C193.145 125.544 193.465 125.469 193.839 125.469C194.217 125.469 194.535 125.544 194.794 125.694C195.054 125.845 195.251 126.047 195.388 126.302C195.524 126.556 195.592 126.838 195.592 127.147V128.737H194.689V128.205H194.676C194.575 128.372 194.436 128.515 194.261 128.637C194.089 128.753 193.859 128.812 193.569 128.812ZM193.826 128.079C194.089 128.079 194.296 127.988 194.445 127.804C194.599 127.62 194.676 127.397 194.676 127.134C194.676 126.875 194.599 126.656 194.445 126.477C194.296 126.293 194.089 126.201 193.826 126.201C193.558 126.201 193.347 126.293 193.193 126.477C193.039 126.656 192.962 126.875 192.962 127.134C192.962 127.397 193.039 127.62 193.193 127.804C193.347 127.988 193.558 128.079 193.826 128.079ZM196.842 128.737V126.84C196.842 126.59 196.906 126.36 197.033 126.151C197.161 125.943 197.343 125.778 197.58 125.657C197.822 125.532 198.112 125.469 198.45 125.469C198.692 125.469 198.909 125.509 199.102 125.588C199.296 125.667 199.461 125.776 199.597 125.913H199.603C199.744 125.776 199.911 125.667 200.104 125.588C200.302 125.509 200.522 125.469 200.763 125.469C201.102 125.469 201.389 125.532 201.627 125.657C201.868 125.778 202.053 125.943 202.18 126.151C202.308 126.36 202.371 126.59 202.371 126.84V128.737H201.468V126.84C201.468 126.665 201.398 126.514 201.258 126.389C201.121 126.264 200.957 126.201 200.763 126.201C200.57 126.201 200.403 126.264 200.262 126.389C200.126 126.514 200.058 126.665 200.058 126.84V128.737H199.155V126.84C199.155 126.665 199.085 126.514 198.944 126.389C198.808 126.264 198.643 126.201 198.45 126.201C198.257 126.201 198.09 126.264 197.949 126.389C197.813 126.514 197.745 126.665 197.745 126.84V128.737H196.842ZM205.362 128.812C205.001 128.812 204.687 128.741 204.419 128.599C204.156 128.457 203.951 128.257 203.806 127.998C203.661 127.735 203.589 127.428 203.589 127.078V124.167H204.492V125.939H204.498C204.599 125.792 204.74 125.678 204.92 125.594C205.105 125.511 205.302 125.469 205.513 125.469C205.843 125.469 206.128 125.538 206.37 125.676C206.612 125.813 206.798 126.003 206.93 126.245C207.066 126.483 207.135 126.761 207.135 127.078C207.135 127.412 207.064 127.71 206.924 127.973C206.787 128.232 206.588 128.436 206.324 128.586C206.06 128.737 205.74 128.812 205.362 128.812ZM205.362 128.079C205.63 128.079 205.838 127.99 205.988 127.81C206.142 127.627 206.219 127.403 206.219 127.14C206.219 126.878 206.142 126.656 205.988 126.477C205.838 126.293 205.63 126.201 205.362 126.201C205.094 126.201 204.883 126.293 204.729 126.477C204.58 126.656 204.505 126.878 204.505 127.14C204.505 127.403 204.58 127.627 204.729 127.81C204.883 127.99 205.094 128.079 205.362 128.079ZM209.803 128.812C209.455 128.812 209.146 128.739 208.873 128.593C208.601 128.442 208.386 128.242 208.227 127.992C208.069 127.737 207.99 127.453 207.99 127.14C207.99 126.827 208.069 126.546 208.227 126.295C208.386 126.041 208.601 125.84 208.873 125.694C209.146 125.544 209.455 125.469 209.803 125.469C210.15 125.469 210.459 125.544 210.732 125.694C211.004 125.84 211.219 126.041 211.378 126.295C211.536 126.546 211.615 126.827 211.615 127.14C211.615 127.453 211.536 127.737 211.378 127.992C211.219 128.242 211.004 128.442 210.732 128.593C210.459 128.739 210.15 128.812 209.803 128.812ZM209.803 128.079C210.079 128.079 210.297 127.99 210.455 127.81C210.618 127.627 210.699 127.403 210.699 127.14C210.699 126.878 210.618 126.656 210.455 126.477C210.297 126.293 210.079 126.201 209.803 126.201C209.526 126.201 209.306 126.293 209.143 126.477C208.985 126.656 208.906 126.878 208.906 127.14C208.906 127.403 208.985 127.627 209.143 127.81C209.306 127.99 209.526 128.079 209.803 128.079ZM214.285 128.812C213.938 128.812 213.628 128.739 213.356 128.593C213.083 128.442 212.868 128.242 212.71 127.992C212.551 127.737 212.472 127.453 212.472 127.14C212.472 126.827 212.551 126.546 212.71 126.295C212.868 126.041 213.083 125.84 213.356 125.694C213.628 125.544 213.938 125.469 214.285 125.469C214.632 125.469 214.942 125.544 215.214 125.694C215.486 125.84 215.702 126.041 215.86 126.295C216.018 126.546 216.097 126.827 216.097 127.14C216.097 127.453 216.018 127.737 215.86 127.992C215.702 128.242 215.486 128.442 215.214 128.593C214.942 128.739 214.632 128.812 214.285 128.812ZM214.285 128.079C214.562 128.079 214.779 127.99 214.937 127.81C215.1 127.627 215.181 127.403 215.181 127.14C215.181 126.878 215.1 126.656 214.937 126.477C214.779 126.293 214.562 126.201 214.285 126.201C214.008 126.201 213.788 126.293 213.626 126.477C213.468 126.656 213.388 126.878 213.388 127.14C213.388 127.403 213.468 127.627 213.626 127.81C213.788 127.99 214.008 128.079 214.285 128.079Z" fill="#7BE159" fill-opacity="0.8"/>
<path d="M314.254 133.827H181.917V140.408C181.917 142.064 183.261 143.408 184.917 143.408H311.254C312.911 143.408 314.254 142.064 314.254 140.408V133.827Z" fill="#1E4843"/>
<path d="M310.651 137.077H274.433C274.15 137.077 273.919 136.854 273.919 136.581C273.919 136.307 274.15 136.084 274.433 136.084H310.651C310.934 136.084 311.164 136.307 311.164 136.581C311.154 136.854 310.934 137.077 310.651 137.077Z" fill="white"/>
<path d="M274.422 137.077H185.709C185.426 137.077 185.196 136.854 185.196 136.581C185.196 136.307 185.426 136.084 185.709 136.084H274.422C274.705 136.084 274.935 136.307 274.935 136.581C274.935 136.854 274.705 137.077 274.422 137.077Z" fill="#03D218"/>
<path d="M275.511 136.581C275.511 137.158 275.029 137.624 274.432 137.624C273.835 137.624 273.354 137.158 273.354 136.581C273.354 136.004 273.835 135.538 274.432 135.538C275.019 135.538 275.511 136.004 275.511 136.581Z" fill="#FFFDFF"/>
<path d="M191.877 139.347H192.569V141.636H191.877V139.347ZM190.547 141.636H191.238V139.347H190.547V141.636ZM197.125 139.347V140.269L195.669 139.347V141.636L197.125 140.714V141.636H197.816V139.347H197.125ZM185.3 139.347V141.636H185.991V140.714L187.447 141.636V139.347L185.991 140.269V139.347H185.3Z" fill="white"/>
<path d="M300.408 139.966L300.339 139.807C300.339 139.807 300.5 139.449 300.483 139.438L300.27 139.234C300.253 139.222 299.891 139.381 299.891 139.381L299.724 139.313C299.724 139.313 299.575 138.95 299.558 138.95H299.259C299.236 138.95 299.104 139.313 299.104 139.313L298.937 139.381C298.937 139.381 298.569 139.228 298.552 139.239L298.34 139.444C298.322 139.455 298.495 139.807 298.495 139.807L298.426 139.966C298.426 139.966 298.052 140.108 298.052 140.125V140.414C298.052 140.437 298.426 140.567 298.426 140.567L298.495 140.726C298.495 140.726 298.334 141.084 298.351 141.095L298.564 141.3C298.575 141.311 298.937 141.152 298.937 141.152L299.104 141.22C299.104 141.22 299.253 141.583 299.27 141.583H299.569C299.592 141.583 299.724 141.22 299.724 141.22L299.891 141.152C299.891 141.152 300.259 141.305 300.276 141.294L300.488 141.09C300.506 141.073 300.333 140.726 300.333 140.726L300.402 140.567C300.402 140.567 300.776 140.426 300.776 140.403V140.113C300.781 140.102 300.408 139.966 300.408 139.966ZM299.856 140.272C299.856 140.505 299.661 140.698 299.42 140.698C299.178 140.698 298.983 140.511 298.983 140.272C298.983 140.04 299.178 139.852 299.42 139.852C299.661 139.847 299.856 140.04 299.856 140.272Z" fill="white"/>
<path d="M306.028 141.207H302.721V139.326H306.028V141.207ZM302.965 140.995H305.784V139.532H302.965V140.995Z" fill="white"/>
<path d="M309.394 139.25H310.198V140.034H310.432V139.023H309.394V139.25Z" fill="white"/>
<path d="M308.131 140.034V139.251H308.941V139.024H307.896V140.034H308.131Z" fill="white"/>
<path d="M310.198 140.471V141.254H309.394V141.481H310.432V140.471H310.198Z" fill="white"/>
<path d="M308.941 141.254H308.131V140.471H307.896V141.481H308.941V141.254Z" fill="white"/>
<path d="M245.944 116.778L245.956 117.028L245.944 116.778ZM263.777 103.568C261.614 111.953 253.141 116.185 245.932 116.528L245.956 117.028C253.291 116.678 262.024 112.368 264.261 103.693L263.777 103.568ZM245.932 116.528C242.188 116.707 238.666 116.024 236.087 114.299C233.522 112.583 231.866 109.819 231.866 105.763H231.366C231.366 109.978 233.098 112.901 235.809 114.715C238.507 116.519 242.148 117.209 245.956 117.028L245.932 116.528ZM231.866 105.763C231.866 103.754 232.613 101.502 233.902 99.244C235.189 96.9889 237.008 94.7437 239.13 92.7521C243.382 88.7609 248.805 85.8298 253.539 85.8298V85.3298C248.623 85.3298 243.084 88.355 238.788 92.3876C236.635 94.408 234.783 96.6916 233.468 98.9962C232.154 101.298 231.366 103.637 231.366 105.763H231.866ZM253.539 85.8298C257.045 85.8298 260.145 88.1345 262.105 91.5312C264.064 94.925 264.86 99.3707 263.777 103.568L264.261 103.693C265.379 99.3598 264.558 94.7802 262.538 91.2813C260.52 87.7853 257.28 85.3298 253.539 85.3298V85.8298Z" fill="white" fill-opacity="0.2"/>
<path d="M246.599 112.144L246.611 112.394L246.599 112.144ZM258.848 102.996C257.365 108.746 251.55 111.658 246.587 111.894L246.611 112.394C251.7 112.151 257.774 109.161 259.332 103.121L258.848 102.996ZM246.587 111.894C244.01 112.017 241.594 111.547 239.83 110.367C238.08 109.196 236.948 107.311 236.948 104.532H236.448C236.448 107.469 237.657 109.514 239.552 110.782C241.435 112.042 243.97 112.52 246.611 112.394L246.587 111.894ZM236.948 104.532C236.948 103.162 237.458 101.619 238.344 100.065C239.23 98.5145 240.482 96.9688 241.943 95.597C244.875 92.8452 248.604 90.8342 251.848 90.8342V90.3342C248.423 90.3342 244.577 92.4393 241.601 95.2325C240.109 96.6332 238.823 98.2172 237.91 99.8174C236.998 101.415 236.448 103.045 236.448 104.532H236.948ZM251.848 90.8342C254.234 90.8342 256.355 92.4036 257.701 94.7356C259.045 97.0647 259.591 100.116 258.848 102.996L259.332 103.121C260.11 100.105 259.539 96.9199 258.134 94.4857C256.73 92.0544 254.469 90.3342 251.848 90.3342V90.8342Z" fill="white"/>
<path d="M256.537 102.817C255.394 107.248 250.925 109.466 247.148 109.646C243.225 109.833 239.706 108.221 239.706 103.925C239.706 99.6288 246.081 93.4412 251.093 93.4412C254.857 93.4412 257.679 98.3863 256.537 102.817Z" fill="url(#paint6_linear)"/>
<path d="M249.893 101.896L247.474 103.247L247.474 100.545L249.893 101.896Z" fill="#05B514"/>
<g filter="url(#filter2_d)">
<rect x="13" y="56.9604" width="133.651" height="122.653" rx="4" fill="white"/>
</g>
<g clip-path="url(#clip0)">
<path d="M82.1074 109.781L84.3477 114.262H103.818L101.578 109.781H82.1074Z" fill="#F0DE00"/>
<path d="M78.4818 109.781H59.0113L56.771 114.262H76.2415L78.4818 109.781Z" fill="#F0DE00"/>
<path d="M81.4149 113.407V123.224H79.1746V113.407L77.6267 116.503H61.252V134.425H79.1746V126.584H81.4149V134.425H99.3375V116.503H82.9628L81.4149 113.407ZM70.2133 132.185H63.4923V129.945H70.2133V132.185ZM70.2133 127.704H63.4923V125.464H70.2133V127.704ZM74.6939 132.185H72.4536V129.945H74.6939V132.185Z" fill="url(#paint7_linear)"/>
<path d="M55.8775 86.7207L57.1124 84.6095L54.9254 83.6609L53.3467 81.7063L51.7681 83.6609L49.5811 84.6095L50.816 86.7207L50.9976 89.2377L53.3467 88.6387L55.6959 89.2377L55.8775 86.7207Z" fill="#FFEC00"/>
<path d="M104.793 89.2377L107.142 88.6387L109.491 89.2377L109.673 86.7207L110.908 84.6095L108.721 83.6609L107.142 81.7063L105.563 83.6609L103.376 84.6095L104.611 86.7207L104.793 89.2377Z" fill="#FFEC00"/>
<path d="M59.5102 93.9116C61.6428 95.3342 63.538 97.0708 65.139 99.0732L69.5758 104.617L68.6586 97.2776C68.1789 93.4456 66.1322 89.9183 63.043 87.6019L61.9699 86.7974L58.6865 93.363L59.5102 93.9116Z" fill="#4CB0FD" fill-opacity="0.3"/>
<path d="M91.931 97.2771L91.0132 104.617L95.4506 99.0716C97.0521 97.0692 98.9462 95.3326 101.079 93.91L101.901 93.3614L98.618 86.7958L97.5449 87.6025C94.4568 89.9189 92.409 93.4451 91.931 97.2771Z" fill="#4CB0FD" fill-opacity="0.3"/>
<path d="M84.7754 105.302H87.0157V100.608C87.0157 95.2286 88.912 89.9904 92.3578 85.8559L90.636 84.4224C86.8565 88.9577 84.7754 94.7062 84.7754 100.608V105.302Z" fill="#4CB0FD" fill-opacity="0.3"/>
<path d="M73.5734 105.302H75.8138V100.608C75.8138 94.7051 73.7326 88.9577 69.9542 84.4224L68.2324 85.8559C71.6771 89.9904 73.5734 95.2286 73.5734 100.608V105.302Z" fill="#4CB0FD" fill-opacity="0.3"/>
<path d="M79.1743 90.7397H81.4146V105.302H79.1743V90.7397Z" fill="#4CB0FD" fill-opacity="0.3"/>
</g>
<path d="M75.9 82.7822L80.2444 81.6737L84.5888 82.7822L84.9291 78.1127L87.2378 74.1665L83.1561 72.3982L80.2444 68.7954L77.3331 72.3982L73.251 74.1665L75.5596 78.1127L75.9 82.7822Z" fill="#FFEC00"/>
<rect x="36.6699" y="146.261" width="87.1485" height="19.5271" rx="9.76353" fill="url(#paint8_linear)"/>
<path d="M64.4807 158.413H63.1847V152.113H65.9387C66.6167 152.113 67.1507 152.29 67.5407 152.644C67.9367 152.992 68.1347 153.448 68.1347 154.012C68.1347 154.582 67.9367 155.041 67.5407 155.389C67.1507 155.743 66.6167 155.92 65.9387 155.92H64.4807V158.413ZM64.4807 153.247V154.813H65.8487C66.1607 154.813 66.4037 154.747 66.5777 154.615C66.7517 154.477 66.8387 154.282 66.8387 154.03C66.8387 153.778 66.7517 153.586 66.5777 153.454C66.4037 153.316 66.1607 153.247 65.8487 153.247H64.4807ZM72.1053 156.784V153.922H73.3743V158.413H72.1053V157.873C71.7033 158.311 71.2023 158.53 70.6023 158.53C70.0863 158.53 69.6843 158.368 69.3963 158.044C69.1083 157.714 68.9643 157.258 68.9643 156.676V153.922H70.2333V156.415C70.2333 156.739 70.3113 156.979 70.4673 157.135C70.6293 157.291 70.8363 157.369 71.0883 157.369C71.2803 157.369 71.4693 157.315 71.6553 157.207C71.8473 157.093 71.9973 156.952 72.1053 156.784ZM77.3626 158.53C76.7146 158.53 76.2226 158.308 75.8866 157.864V158.413H74.6176V152.113H75.8866V154.471C76.2406 154.027 76.7326 153.805 77.3626 153.805C77.9746 153.805 78.4786 154.033 78.8746 154.489C79.2766 154.933 79.4776 155.491 79.4776 156.163C79.4776 156.835 79.2766 157.399 78.8746 157.855C78.4786 158.305 77.9746 158.53 77.3626 158.53ZM77.0026 157.423C77.3626 157.423 77.6536 157.303 77.8756 157.063C78.1036 156.817 78.2176 156.517 78.2176 156.163C78.2176 155.815 78.1036 155.518 77.8756 155.272C77.6536 155.032 77.3626 154.912 77.0026 154.912C76.7626 154.912 76.5436 154.975 76.3456 155.101C76.1476 155.221 75.9946 155.38 75.8866 155.578V156.748C75.9946 156.946 76.1476 157.108 76.3456 157.234C76.5436 157.36 76.7626 157.423 77.0026 157.423ZM81.6066 158.53C81.2346 158.53 80.9406 158.431 80.7246 158.233C80.5146 158.029 80.4096 157.714 80.4096 157.288V152.113H81.6786V156.955C81.6786 157.255 81.8136 157.405 82.0836 157.405C82.2096 157.405 82.3176 157.378 82.4076 157.324V158.368C82.1916 158.476 81.9246 158.53 81.6066 158.53ZM84.6068 158.413H83.3378V153.922H84.6068V158.413ZM83.2118 152.734C83.2118 152.518 83.2838 152.338 83.4278 152.194C83.5778 152.044 83.7578 151.969 83.9678 151.969C84.1778 151.969 84.3548 152.044 84.4988 152.194C84.6488 152.338 84.7238 152.518 84.7238 152.734C84.7238 152.944 84.6488 153.124 84.4988 153.274C84.3548 153.418 84.1778 153.49 83.9678 153.49C83.7578 153.49 83.5778 153.418 83.4278 153.274C83.2838 153.124 83.2118 152.944 83.2118 152.734ZM87.5675 158.53C86.7695 158.53 86.1395 158.389 85.6775 158.107V156.982C85.8935 157.126 86.1665 157.249 86.4965 157.351C86.8325 157.447 87.1715 157.495 87.5135 157.495C88.0295 157.495 88.2875 157.369 88.2875 157.117C88.2875 156.997 88.2125 156.904 88.0625 156.838C87.9845 156.802 87.9065 156.775 87.8285 156.757L87.4955 156.676C87.4475 156.664 87.3815 156.649 87.2975 156.631C87.2195 156.607 87.1655 156.589 87.1355 156.577C86.6015 156.433 86.2235 156.262 86.0015 156.064C85.7855 155.86 85.6775 155.566 85.6775 155.182C85.6775 154.756 85.8515 154.42 86.1995 154.174C86.5535 153.928 87.0395 153.805 87.6575 153.805C88.3415 153.805 88.9025 153.943 89.3405 154.219V155.299C88.8065 154.987 88.2635 154.831 87.7115 154.831C87.2315 154.831 86.9915 154.951 86.9915 155.191C86.9915 155.239 87.0035 155.284 87.0275 155.326C87.0575 155.362 87.0845 155.389 87.1085 155.407C87.1385 155.425 87.1835 155.452 87.2435 155.488C87.2795 155.5 87.3455 155.521 87.4415 155.551C87.5375 155.575 87.6005 155.593 87.6305 155.605L88.1075 155.704C88.6055 155.818 88.9745 155.989 89.2145 156.217C89.4545 156.439 89.5745 156.742 89.5745 157.126C89.5745 157.546 89.3915 157.885 89.0255 158.143C88.6595 158.401 88.1735 158.53 87.5675 158.53ZM91.786 155.551V158.413H90.517V152.113H91.786V154.471C92.194 154.027 92.695 153.805 93.289 153.805C93.805 153.805 94.207 153.97 94.495 154.3C94.783 154.624 94.927 155.077 94.927 155.659V158.413H93.658V155.92C93.658 155.596 93.577 155.356 93.415 155.2C93.259 155.044 93.055 154.966 92.803 154.966C92.611 154.966 92.419 155.023 92.227 155.137C92.041 155.245 91.894 155.383 91.786 155.551Z" fill="white"/>
<path d="M39.8975 22C39.8975 18.134 43.0315 15 46.8975 15H332C335.866 15 339 18.134 339 22V30.0627H39.8975V22Z" fill="url(#paint9_linear)"/>
<circle cx="57.1118" cy="22.5313" r="2.15182" fill="#6AC2FC"/>
<circle cx="64.6435" cy="22.5313" r="2.15182" fill="#F1EE33" fill-opacity="0.8"/>
<circle cx="72.1748" cy="22.5313" r="2.15182" fill="#89E23A"/>
<defs>
<filter id="filter0_d" x="19.9736" y="0.0759277" width="339.641" height="231.36" filterUnits="userSpaceOnUse" color-interpolation-filters="sRGB">
<feFlood flood-opacity="0" result="BackgroundImageFix"/>
<feColorMatrix in="SourceAlpha" type="matrix" values="0 0 0 0 0 0 0 0 0 0 0 0 0 0 0 0 0 0 127 0"/>
<feOffset dy="5"/>
<feGaussianBlur stdDeviation="10.5"/>
<feColorMatrix type="matrix" values="0 0 0 0 0.623529 0 0 0 0 0.698039 0 0 0 0 0.686275 0 0 0 0.2 0"/>
<feBlend mode="normal" in2="BackgroundImageFix" result="effect1_dropShadow"/>
<feBlend mode="normal" in="SourceGraphic" in2="effect1_dropShadow" result="shape"/>
</filter>
<filter id="filter1_d" x="153.397" y="33.8816" width="218.916" height="161.572" filterUnits="userSpaceOnUse" color-interpolation-filters="sRGB">
<feFlood flood-opacity="0" result="BackgroundImageFix"/>
<feColorMatrix in="SourceAlpha" type="matrix" values="0 0 0 0 0 0 0 0 0 0 0 0 0 0 0 0 0 0 127 0"/>
<feOffset dx="15" dy="10"/>
<feGaussianBlur stdDeviation="22.5"/>
<feColorMatrix type="matrix" values="0 0 0 0 0.624167 0 0 0 0 0.7 0 0 0 0 0.686212 0 0 0 0.27 0"/>
<feBlend mode="normal" in2="BackgroundImageFix" result="effect1_dropShadow"/>
<feBlend mode="normal" in="SourceGraphic" in2="effect1_dropShadow" result="shape"/>
</filter>
<filter id="filter2_d" x="0" y="45.9604" width="163.651" height="152.653" filterUnits="userSpaceOnUse" color-interpolation-filters="sRGB">
<feFlood flood-opacity="0" result="BackgroundImageFix"/>
<feColorMatrix in="SourceAlpha" type="matrix" values="0 0 0 0 0 0 0 0 0 0 0 0 0 0 0 0 0 0 127 0"/>
<feOffset dx="2" dy="4"/>
<feGaussianBlur stdDeviation="7.5"/>
<feColorMatrix type="matrix" values="0 0 0 0 0.45098 0 0 0 0 0.694118 0 0 0 0 0.658824 0 0 0 0.3 0"/>
<feBlend mode="normal" in2="BackgroundImageFix" result="effect1_dropShadow"/>
<feBlend mode="normal" in="SourceGraphic" in2="effect1_dropShadow" result="shape"/>
</filter>
<linearGradient id="paint0_linear" x1="219.476" y1="53.5752" x2="353.306" y2="151.081" gradientUnits="userSpaceOnUse">
<stop stop-color="#DFF2EE"/>
<stop offset="1" stop-color="#E2F2EF"/>
</linearGradient>
<linearGradient id="paint1_linear" x1="189.768" y1="69.7239" x2="323.262" y2="135.828" gradientUnits="userSpaceOnUse">
<stop stop-color="white"/>
<stop offset="1" stop-color="white" stop-opacity="0.96"/>
</linearGradient>
<linearGradient id="paint2_linear" x1="247.319" y1="155.654" x2="247.319" y2="189.215" gradientUnits="userSpaceOnUse">
<stop stop-color="#E1F1EE"/>
<stop offset="1" stop-color="#E1F1EE" stop-opacity="0"/>
</linearGradient>
<linearGradient id="paint3_linear" x1="304.611" y1="170.016" x2="312.56" y2="188.269" gradientUnits="userSpaceOnUse">
<stop stop-color="#6DEEFF"/>
<stop offset="1" stop-color="#31C0FA"/>
</linearGradient>
<linearGradient id="paint4_linear" x1="222.194" y1="60.4803" x2="329.082" y2="152.444" gradientUnits="userSpaceOnUse">
<stop stop-color="#01B213"/>
<stop offset="1" stop-color="#78EE1B" stop-opacity="0.52"/>
</linearGradient>
<linearGradient id="paint5_linear" x1="195.22" y1="72.8969" x2="307.688" y2="138.663" gradientUnits="userSpaceOnUse">
<stop stop-color="#30CE2D"/>
<stop offset="1" stop-color="#3DCA33" stop-opacity="0.96"/>
</linearGradient>
<linearGradient id="paint6_linear" x1="248.249" y1="93.4412" x2="244.534" y2="111.192" gradientUnits="userSpaceOnUse">
<stop stop-color="white"/>
<stop offset="1" stop-color="white"/>
</linearGradient>
<linearGradient id="paint7_linear" x1="58.7261" y1="124.743" x2="103.914" y2="127.433" gradientUnits="userSpaceOnUse">
<stop stop-color="#FFEC00"/>
<stop offset="1" stop-color="#F5F13C" stop-opacity="0.39"/>
</linearGradient>
<linearGradient id="paint8_linear" x1="28.5337" y1="146.261" x2="121.413" y2="164.542" gradientUnits="userSpaceOnUse">
<stop stop-color="#7FE425"/>
<stop offset="1" stop-color="#21C11F"/>
</linearGradient>
<linearGradient id="paint9_linear" x1="39.8975" y1="30.0626" x2="339" y2="30.0626" gradientUnits="userSpaceOnUse">
<stop stop-color="#39CA21"/>
<stop offset="1" stop-color="#6BDD24"/>
</linearGradient>
<clipPath id="clip0">
<rect width="65.6304" height="65.6304" fill="white" transform="translate(47.4292 68.7954)"/>
</clipPath>
</defs>
</svg>
