<svg width="75" height="74" viewBox="0 0 75 74" fill="none" xmlns="http://www.w3.org/2000/svg">
<path fill-rule="evenodd" clip-rule="evenodd" d="M0 2.64526V10.8448V10.8455V49.1193C0 50.4082 1.36494 51.4531 3.04878 51.453H71.9512C73.6351 51.453 75 50.4082 75 49.1192V10.8455V10.8448V2.64526C75 1.18429 73.6351 0 71.9512 0H3.04878C1.36494 0 0 1.18429 0 2.64526Z" fill="url(#paint0_linear)"/>
<path d="M37.4996 68.8436C47.434 68.8436 55.4874 60.7902 55.4874 50.8558C55.4874 40.9214 47.434 32.8679 37.4996 32.8679C27.5651 32.8679 19.5117 40.9214 19.5117 50.8558C19.5117 60.7902 27.5651 68.8436 37.4996 68.8436Z" fill="#25C222"/>
<path fill-rule="evenodd" clip-rule="evenodd" d="M37.4991 27.9906C31.1855 27.9906 25.4693 30.5495 21.3315 34.6868L21.3311 34.6863C17.1932 38.8242 14.6338 44.5406 14.6338 50.8549H19.5119C19.5119 45.8961 21.5288 41.3996 24.7852 38.1426L24.7857 38.1431C28.0428 34.8861 32.5399 32.8687 37.4991 32.8687V27.9906ZM37.4997 73.7219C50.1281 73.7219 60.3656 63.4846 60.3656 50.856H14.6338C14.6338 63.4846 24.8713 73.7219 37.4997 73.7219ZM53.6676 34.6876C49.5297 30.5499 43.8133 27.9906 37.4992 27.9906V32.8687C42.4584 32.8687 46.9555 34.8861 50.2126 38.1431L50.2139 38.1418C53.4708 41.3989 55.4881 45.8957 55.4881 50.8549H60.3662C60.3662 44.5406 57.8068 38.8242 53.6689 34.6863L53.6676 34.6876Z" fill="url(#paint1_linear)"/>
<path d="M67.069 9.82177C68.3627 9.82177 69.4115 8.77301 69.4115 7.47931C69.4115 6.1856 68.3627 5.13684 67.069 5.13684C65.7753 5.13684 64.7266 6.1856 64.7266 7.47931C64.7266 8.77301 65.7753 9.82177 67.069 9.82177Z" fill="white"/>
<path d="M59.8776 9.82178C61.1713 9.82178 62.2201 8.77302 62.2201 7.47931C62.2201 6.1856 61.1713 5.13684 59.8776 5.13684C58.5839 5.13684 57.5352 6.1856 57.5352 7.47931C57.5352 8.77302 58.5839 9.82178 59.8776 9.82178Z" fill="white"/>
<path d="M52.6843 9.82178C53.978 9.82178 55.0267 8.77302 55.0267 7.47931C55.0267 6.1856 53.978 5.13684 52.6843 5.13684C51.3906 5.13684 50.3418 6.1856 50.3418 7.47931C50.3418 8.77302 51.3906 9.82178 52.6843 9.82178Z" fill="white"/>
<path d="M39.1368 50.4566C38.7922 50.4566 38.4474 50.325 38.1846 50.0621C37.6585 49.5361 37.6585 48.6835 38.1846 48.1573L46.9067 39.4353C47.4328 38.9094 48.2855 38.9098 48.8114 39.4353C49.3375 39.9614 49.3375 40.8139 48.8114 41.3402L40.0893 50.0621C39.8262 50.3252 39.4815 50.4566 39.1368 50.4566Z" fill="white"/>
<path d="M36.8275 55.369C39.0094 55.369 40.7781 53.6003 40.7781 51.4185C40.7781 49.2366 39.0094 47.4679 36.8275 47.4679C34.6457 47.4679 32.877 49.2366 32.877 51.4185C32.877 53.6003 34.6457 55.369 36.8275 55.369Z" fill="white"/>
<defs>
<linearGradient id="paint0_linear" x1="37.5" y1="51.4529" x2="37.5" y2="-1.10813e-06" gradientUnits="userSpaceOnUse">
<stop stop-color="#0DB817"/>
<stop offset="1" stop-color="#93F055"/>
</linearGradient>
<linearGradient id="paint1_linear" x1="37.5" y1="27.9906" x2="37.5" y2="73.7219" gradientUnits="userSpaceOnUse">
<stop stop-color="#32D1F4" stop-opacity="0.51"/>
<stop offset="1" stop-color="#4CB0FD"/>
</linearGradient>
</defs>
</svg>
