<svg width="19" height="19" viewBox="0 0 19 19" fill="none" xmlns="http://www.w3.org/2000/svg">
<g clip-path="url(#clip0)">
<path d="M3.02288 1.05493C1.73909 1.05493 0.899719 1.89793 0.899719 3.00595C0.899719 4.08949 1.71408 4.95653 2.97362 4.95653H2.99798C4.30689 4.95653 5.12146 4.08949 5.12146 3.00595C5.09699 1.89793 4.30689 1.05493 3.02288 1.05493Z" fill="white" fill-opacity="0.9"/>
<path d="M1.12155 6.49854H4.87462V17.7898H1.12155V6.49854Z" fill="white" fill-opacity="0.9"/>
<path d="M14.0867 6.23315C12.062 6.23315 10.7044 8.13565 10.7044 8.13565V6.49816H6.95123V17.7894H10.7042V11.4839C10.7042 11.1464 10.7287 10.8093 10.8278 10.568C11.0991 9.89389 11.7166 9.19558 12.7534 9.19558C14.1115 9.19558 14.6546 10.231 14.6546 11.7489V17.7894H18.4074V11.3152C18.4074 7.84703 16.5557 6.23315 14.0867 6.23315Z" fill="white" fill-opacity="0.9"/>
</g>
<defs>
<clipPath id="clip0">
<rect width="18.6748" height="18.6748" fill="white" transform="translate(0.325226 0.106934)"/>
</clipPath>
</defs>
</svg>
