<svg width="14" height="13" viewBox="0 0 14 13" fill="none" xmlns="http://www.w3.org/2000/svg">
<g clip-path="url(#clip0)">
<path d="M2.02229 0.659668C1.05986 0.659668 0.430611 1.2465 0.430611 2.01782C0.430611 2.7721 1.04112 3.37567 1.98536 3.37567H2.00362C2.98487 3.37567 3.59554 2.7721 3.59554 2.01782C3.5772 1.2465 2.98487 0.659668 2.02229 0.659668Z" fill="#1E4843" fill-opacity="0.3"/>
<path d="M0.596916 4.44934H3.41049V12.3095H0.596916V4.44934Z" fill="#1E4843" fill-opacity="0.3"/>
<path d="M10.3165 4.26477C8.79871 4.26477 7.78093 5.58915 7.78093 5.58915V4.44925H4.96728V12.3094H7.78077V7.91998C7.78077 7.68499 7.79912 7.45038 7.87346 7.28234C8.07685 6.81311 8.53972 6.32699 9.31702 6.32699C10.3351 6.32699 10.7423 7.0478 10.7423 8.10446V12.3094H13.5556V7.80252C13.5556 5.38823 12.1675 4.26477 10.3165 4.26477Z" fill="#1E4843" fill-opacity="0.3"/>
</g>
<defs>
<clipPath id="clip0">
<rect width="14" height="13" fill="white"/>
</clipPath>
</defs>
</svg>
