<svg width="18" height="14" viewBox="0 0 18 14" fill="none" xmlns="http://www.w3.org/2000/svg">
<path d="M12.1571 0.936287L12.1571 0.93633L17.1898 6.37344C17.4095 6.61086 17.4095 6.98821 17.1897 7.22563L12.1571 12.6627C11.927 12.9112 11.5457 12.9113 11.3157 12.6627C11.0959 12.4253 11.0959 12.0479 11.3157 11.8105L15.3871 7.412L1.33552 7.412C0.994153 7.412 0.750001 7.1194 0.750001 6.79952C0.750001 6.47964 0.994154 6.18703 1.33552 6.18703L15.3871 6.18703L11.3157 1.78852C11.0959 1.55109 11.0959 1.17373 11.3157 0.936308C11.4283 0.8147 11.5805 0.749959 11.7364 0.749959C11.8923 0.749959 12.0445 0.814732 12.1571 0.936287Z" fill="#009F10" stroke="#009F10" stroke-width="0.5"/>
</svg>
