<svg width="150" height="65" viewBox="0 0 150 65" fill="none" xmlns="http://www.w3.org/2000/svg">
<path fill-rule="evenodd" clip-rule="evenodd" d="M16.3171 6.38354C11.2442 8.58385 5.64625 13.0612 2.84475 19.6033C-1.99849 30.9133 0.216476 39.4671 3.05086 40.6661C7.23922 42.4381 8.23753 36.8833 9.36236 30.625C9.91834 27.5314 10.5052 24.2659 11.5235 21.6281C12.4359 20.128 14.6848 18.8231 16.3171 17.7127V8.38543V6.38354ZM20.3972 15.1502C24.2548 12.941 27.2636 10.7963 27.4948 7.04778C27.6242 4.94954 24.5223 4.28042 20.3972 5.21124V8.38543V15.1502Z" fill="url(#paint0_linear)" fill-opacity="0.65"/>
<path fill-rule="evenodd" clip-rule="evenodd" d="M24.2101 64.181C36.0151 63.4919 53.6355 55.3238 57.4803 37.8437C61.3251 20.3635 51.8302 0.854248 39.1641 0.854248C34.14 0.854248 27.0734 4.69529 20.3749 10.388V19.1884L20.7907 20.3158H15.8557L16.272 19.1871H16.2725V14.1549C7.81241 22.5287 0.851318 33.3841 0.851318 42.2138C0.851318 59.1622 11.5163 64.9223 24.2101 64.181ZM20.8058 21.9253H15.8406L16.272 23.095H16.2725V34.476H16.2661L15.8858 35.4824H21.0658L20.7664 34.5728C21.6146 30.9504 24.8644 28.287 28.7955 28.287C32.7626 28.287 36.0783 31.0368 36.8893 34.7088L36.5363 35.4824H41.5256L41.1981 34.7347C40.3496 28.7289 35.1201 24.106 28.7955 24.106C25.5534 24.106 22.6385 25.3343 20.4145 27.3277L20.3749 23.0938L20.8058 21.9253ZM16.5134 38.8779L15.9447 37.9141H16.3589H20.6442H21.2959L20.8867 38.8898C21.9373 42.2116 25.0809 44.6229 28.7955 44.6229C32.5183 44.6229 35.6678 42.2011 36.7117 38.8679L36.3795 37.9141H36.947H41.2323H41.5215L41.1029 38.7506C40.0117 44.4737 34.9165 48.8039 28.7955 48.8039C22.7202 48.8039 17.6553 44.5379 16.5134 38.8779Z" fill="url(#paint1_linear)" fill-opacity="0.4"/>
<path d="M61.164 38.6735C58.5097 50.7582 44.0057 58.219 42.2551 56.4506C38.7441 52.904 47.2543 49.6215 49.5012 42.3946C50.2083 35.2718 47.2894 25.1209 53.4938 22.0621C57.0445 20.3118 63.1458 26.4795 61.164 38.6735Z" fill="url(#paint2_linear)"/>
<path fill-rule="evenodd" clip-rule="evenodd" d="M16.2729 16.048C8.20758 22.7643 2.07843 32.0901 2.07843 39.5617C2.07843 52.8179 12.731 57.7927 24.6021 57.2163C36.0346 56.6614 49.559 49.8156 53.0175 36.1435C56.476 22.4714 47.9351 7.2124 36.5419 7.2124C31.3232 7.2124 25.6166 9.47195 20.3753 12.9761V19.1881L20.7911 20.3156H15.8561L16.2724 19.1868H16.2729V16.048ZM20.8062 21.925H15.841L16.2724 23.0947H16.2729V34.4757H16.2665L15.8862 35.4821H21.0662L20.7668 34.5725C21.615 30.9502 24.8648 28.2867 28.7961 28.2867C32.763 28.2867 36.0786 31.0365 36.8896 34.7085L36.5367 35.4821H41.526L41.1988 34.7344C40.35 28.7286 35.1204 24.1058 28.7961 24.1058C25.5538 24.1058 22.6389 25.334 20.4149 27.3274L20.3753 23.0934L20.8062 21.925ZM16.5138 38.8776L15.9451 37.9138H16.3593H20.6446H21.2963L20.8871 38.8895C21.9377 42.2113 25.0813 44.6226 28.7961 44.6226C32.5186 44.6226 35.6682 42.2008 36.712 38.8676L36.3799 37.9138H36.9476H41.2327H41.5219L41.1033 38.7503C40.0124 44.4734 34.9171 48.8036 28.7961 48.8036C22.7207 48.8036 17.6557 44.5376 16.5138 38.8776Z" fill="url(#paint3_linear)"/>
<path d="M72.3563 51.2074C71.4075 51.2074 70.5608 51.006 69.816 50.6035C69.0712 50.201 68.4828 49.6622 68.0504 48.9873C67.618 48.3006 67.4018 47.5308 67.4018 46.6783C67.4018 45.8258 67.618 45.062 68.0504 44.3871C68.4828 43.7004 69.0712 43.1556 69.816 42.7531C70.5608 42.3506 71.4075 42.1492 72.3563 42.1492H73.4012V43.2326H72.2662C71.6057 43.2326 70.999 43.3865 70.4466 43.6944C69.9061 43.9903 69.4737 44.3988 69.1494 44.9199C68.837 45.441 68.681 46.0271 68.681 46.6783C68.681 47.3295 68.837 47.9156 69.1494 48.4367C69.4737 48.9577 69.9061 49.372 70.4466 49.6799C70.999 49.9759 71.6057 50.124 72.2662 50.124H73.4012V51.2074H72.3563ZM77.0047 51.2074V38.2417H78.2659V51.2074H77.0047Z" fill="#74D61D"/>
<path d="M85.6882 51.1771C84.7633 51.1771 83.9406 50.9699 83.22 50.5554C82.4993 50.1292 81.9347 49.5548 81.5264 48.8326C81.1182 48.1104 80.9139 47.3051 80.9139 46.4171C80.9139 45.529 81.1182 44.7297 81.5264 44.0193C81.9347 43.2971 82.4993 42.7227 83.22 42.2965C83.9406 41.8702 84.7633 41.657 85.6882 41.657C86.6131 41.657 87.4357 41.8702 88.1564 42.2965C88.877 42.711 89.4416 43.2793 89.8499 44.0015C90.2582 44.7237 90.4625 45.529 90.4625 46.4171C90.4625 47.3051 90.2582 48.1104 89.8499 48.8326C89.4416 49.5548 88.877 50.1292 88.1564 50.5554C87.4357 50.9699 86.6131 51.1771 85.6882 51.1771ZM85.6882 50.0936C86.3728 50.0936 86.9792 49.9338 87.5078 49.6141C88.0364 49.2826 88.4446 48.8386 88.7329 48.282C89.0331 47.7254 89.1833 47.1037 89.1833 46.4171C89.1833 45.7304 89.0331 45.1087 88.7329 44.5521C88.4446 43.9955 88.0364 43.5575 87.5078 43.2378C86.9792 42.9063 86.3728 42.7405 85.6882 42.7405C84.9916 42.7405 84.3791 42.9063 83.8505 43.2378C83.3341 43.5575 82.9256 43.9955 82.6254 44.5521C82.3372 45.1087 82.193 45.7304 82.193 46.4171C82.193 47.1037 82.3372 47.7254 82.6254 48.282C82.9256 48.8386 83.3341 49.2826 83.8505 49.6141C84.3791 49.9338 84.9916 50.0936 85.6882 50.0936ZM97.5047 51.1771C96.7239 51.1771 96.0154 51.0172 95.3787 50.6975C94.7421 50.3661 94.2318 49.9043 93.8474 49.3121C93.4751 48.7083 93.2889 47.9918 93.2889 47.163V41.8879H94.55V47.1097C94.55 47.7492 94.688 48.2937 94.9644 48.7438C95.2526 49.1818 95.619 49.5193 96.0634 49.7562C96.5077 49.9811 96.9822 50.0936 97.4866 50.0936C98.003 50.0936 98.4836 49.9753 98.9279 49.7384C99.3844 49.5015 99.7506 49.164 100.027 48.726C100.303 48.276 100.441 47.7374 100.441 47.1097V41.8879H101.702V47.163C101.702 47.9918 101.51 48.7083 101.126 49.3121C100.754 49.9043 100.249 50.3661 99.6126 50.6975C98.9881 51.0172 98.2854 51.1771 97.5047 51.1771ZM109.199 51.1771C110.052 51.1771 110.826 50.9935 111.523 50.6265C112.232 50.2595 112.796 49.7267 113.216 49.028C113.637 48.3175 113.847 47.4532 113.847 46.4348V37.9805H112.586V43.7529H112.55C112.238 43.149 111.763 42.6517 111.126 42.2609C110.49 41.8702 109.793 41.6748 109.037 41.6748C108.208 41.6748 107.451 41.8642 106.767 42.2432C106.082 42.6222 105.536 43.1607 105.127 43.8594C104.731 44.5461 104.533 45.3752 104.533 46.346C104.533 47.3644 104.743 48.2347 105.163 48.9569C105.584 49.6674 106.142 50.218 106.839 50.6087C107.547 50.9877 108.334 51.1771 109.199 51.1771ZM109.217 50.0936C108.616 50.0936 108.052 49.9515 107.523 49.6674C107.007 49.3714 106.592 48.9509 106.28 48.4063C105.968 47.8497 105.812 47.1868 105.812 46.4171C105.812 45.6711 105.962 45.0257 106.262 44.4811C106.574 43.9245 106.989 43.4982 107.505 43.2023C108.022 42.9063 108.58 42.7582 109.181 42.7582C109.793 42.7582 110.358 42.9063 110.874 43.2023C111.391 43.4865 111.799 43.9067 112.099 44.4633C112.412 45.0079 112.568 45.6651 112.568 46.4348C112.568 47.2163 112.412 47.8795 112.099 48.4241C111.799 48.9687 111.391 49.3832 110.874 49.6674C110.37 49.9515 109.817 50.0936 109.217 50.0936Z" fill="#74D61D"/>
<path d="M72.7772 31.582C71.7344 31.582 70.8251 31.3689 70.0493 30.9426C69.2863 30.5163 68.6949 29.9145 68.2753 29.1372C67.8556 28.3474 67.6458 27.4259 67.6458 26.3727V17.6279H70.2592V22.95H70.2782C70.5707 22.5112 70.9777 22.1665 71.4991 21.9157C72.0332 21.665 72.6055 21.5396 73.2159 21.5396C74.1697 21.5396 74.9963 21.7465 75.6958 22.1602C76.3952 22.5739 76.9357 23.1444 77.3173 23.8715C77.7115 24.5862 77.9086 25.4199 77.9086 26.3727C77.9086 27.3757 77.7051 28.2721 77.2982 29.062C76.9039 29.8393 76.3253 30.4536 75.5623 30.905C74.7992 31.3563 73.8709 31.582 72.7772 31.582ZM72.7772 29.3817C73.5529 29.3817 74.157 29.1122 74.5894 28.573C75.0345 28.0214 75.2571 27.3507 75.2571 26.5608C75.2571 25.7709 75.0345 25.1065 74.5894 24.5674C74.157 24.0157 73.5529 23.7399 72.7772 23.7399C72.0014 23.7399 71.391 24.0157 70.9459 24.5674C70.5135 25.1065 70.2973 25.7709 70.2973 26.5608C70.2973 27.3507 70.5135 28.0214 70.9459 28.573C71.391 29.1122 72.0014 29.3817 72.7772 29.3817ZM84.7913 31.582C83.9011 31.582 83.1254 31.3563 82.4641 30.905C81.8028 30.4536 81.2877 29.8519 80.9189 29.0996C80.5628 28.3348 80.3848 27.4948 80.3848 26.5796C80.3848 25.6393 80.5883 24.7868 80.9952 24.022C81.4149 23.2572 82.0126 22.6554 82.7883 22.2166C83.5641 21.7653 84.4925 21.5396 85.5734 21.5396C86.6671 21.5396 87.5891 21.7653 88.3394 22.2166C89.0898 22.6679 89.662 23.276 90.0563 24.0408C90.4505 24.8056 90.6476 25.6518 90.6476 26.5796V31.3563H88.0342V29.7578H87.9961C87.7036 30.2593 87.303 30.6919 86.7943 31.0554C86.2983 31.4065 85.6307 31.582 84.7913 31.582ZM85.5353 29.3817C86.2983 29.3817 86.896 29.1059 87.3284 28.5542C87.7735 28.0026 87.9961 27.3318 87.9961 26.542C87.9961 25.7647 87.7735 25.1065 87.3284 24.5674C86.896 24.0157 86.2983 23.7399 85.5353 23.7399C84.7595 23.7399 84.1491 24.0157 83.704 24.5674C83.2589 25.1065 83.0363 25.7647 83.0363 26.542C83.0363 27.3318 83.2589 28.0026 83.704 28.5542C84.1491 29.1059 84.7595 29.3817 85.5353 29.3817ZM94.2665 31.3563V25.6581C94.2665 24.9059 94.4509 24.2163 94.8197 23.5894C95.1885 22.9626 95.7163 22.4673 96.403 22.1038C97.1025 21.7276 97.9418 21.5396 98.921 21.5396C99.6205 21.5396 100.25 21.6587 100.81 21.8969C101.369 22.1351 101.846 22.4611 102.24 22.8748H102.259C102.666 22.4611 103.15 22.1351 103.709 21.8969C104.281 21.6587 104.917 21.5396 105.617 21.5396C106.596 21.5396 107.429 21.7276 108.116 22.1038C108.815 22.4673 109.349 22.9626 109.718 23.5894C110.087 24.2163 110.271 24.9059 110.271 25.6581V31.3563H107.658V25.6581C107.658 25.1315 107.454 24.6802 107.047 24.3041C106.653 23.928 106.176 23.7399 105.617 23.7399C105.057 23.7399 104.574 23.928 104.167 24.3041C103.773 24.6802 103.576 25.1315 103.576 25.6581V31.3563H100.962V25.6581C100.962 25.1315 100.759 24.6802 100.352 24.3041C99.9575 23.928 99.4806 23.7399 98.921 23.7399C98.3615 23.7399 97.8782 23.928 97.4713 24.3041C97.077 24.6802 96.8799 25.1315 96.8799 25.6581V31.3563H94.2665ZM118.927 31.582C117.884 31.582 116.975 31.3689 116.199 30.9426C115.436 30.5163 114.845 29.9145 114.425 29.1372C114.005 28.3474 113.795 27.4259 113.795 26.3727V17.6279H116.409V22.95H116.428C116.72 22.5112 117.127 22.1665 117.649 21.9157C118.183 21.665 118.755 21.5396 119.366 21.5396C120.319 21.5396 121.146 21.7465 121.846 22.1602C122.545 22.5739 123.085 23.1444 123.467 23.8715C123.861 24.5862 124.058 25.4199 124.058 26.3727C124.058 27.3757 123.855 28.2721 123.448 29.062C123.054 29.8393 122.475 30.4536 121.712 30.905C120.949 31.3563 120.021 31.582 118.927 31.582ZM118.927 29.3817C119.703 29.3817 120.307 29.1122 120.739 28.573C121.184 28.0214 121.407 27.3507 121.407 26.5608C121.407 25.7709 121.184 25.1065 120.739 24.5674C120.307 24.0157 119.703 23.7399 118.927 23.7399C118.151 23.7399 117.541 24.0157 117.096 24.5674C116.663 25.1065 116.447 25.7709 116.447 26.5608C116.447 27.3507 116.663 28.0214 117.096 28.573C117.541 29.1122 118.151 29.3817 118.927 29.3817ZM131.78 31.582C130.776 31.582 129.879 31.3626 129.091 30.9238C128.302 30.4725 127.679 29.8707 127.221 29.1184C126.763 28.3536 126.535 27.5011 126.535 26.5608C126.535 25.6205 126.763 24.7742 127.221 24.022C127.679 23.2572 128.302 22.6554 129.091 22.2166C129.879 21.7653 130.776 21.5396 131.78 21.5396C132.785 21.5396 133.682 21.7653 134.47 22.2166C135.259 22.6554 135.882 23.2572 136.34 24.022C136.797 24.7742 137.026 25.6205 137.026 26.5608C137.026 27.5011 136.797 28.3536 136.34 29.1184C135.882 29.8707 135.259 30.4725 134.47 30.9238C133.682 31.3626 132.785 31.582 131.78 31.582ZM131.78 29.3817C132.582 29.3817 133.211 29.1122 133.669 28.573C134.139 28.0214 134.375 27.3507 134.375 26.5608C134.375 25.7709 134.139 25.1065 133.669 24.5674C133.211 24.0157 132.582 23.7399 131.78 23.7399C130.979 23.7399 130.343 24.0157 129.873 24.5674C129.415 25.1065 129.186 25.7709 129.186 26.5608C129.186 27.3507 129.415 28.0214 129.873 28.573C130.343 29.1122 130.979 29.3817 131.78 29.3817ZM144.754 31.582C143.749 31.582 142.853 31.3626 142.064 30.9238C141.276 30.4725 140.653 29.8707 140.195 29.1184C139.737 28.3536 139.508 27.5011 139.508 26.5608C139.508 25.6205 139.737 24.7742 140.195 24.022C140.653 23.2572 141.276 22.6554 142.064 22.2166C142.853 21.7653 143.749 21.5396 144.754 21.5396C145.759 21.5396 146.655 21.7653 147.444 22.2166C148.232 22.6554 148.855 23.2572 149.313 24.022C149.771 24.7742 150 25.6205 150 26.5608C150 27.5011 149.771 28.3536 149.313 29.1184C148.855 29.8707 148.232 30.4725 147.444 30.9238C146.655 31.3626 145.759 31.582 144.754 31.582ZM144.754 29.3817C145.555 29.3817 146.185 29.1122 146.643 28.573C147.113 28.0214 147.349 27.3507 147.349 26.5608C147.349 25.7709 147.113 25.1065 146.643 24.5674C146.185 24.0157 145.555 23.7399 144.754 23.7399C143.953 23.7399 143.317 24.0157 142.847 24.5674C142.389 25.1065 142.16 25.7709 142.16 26.5608C142.16 27.3507 142.389 28.0214 142.847 28.573C143.317 29.1122 143.953 29.3817 144.754 29.3817Z" fill="#009F10"/>
<path d="M69.816 50.6035L69.9434 50.3744L69.816 50.6035ZM68.0504 48.9872L67.8252 49.1249L67.8265 49.1267L68.0504 48.9872ZM68.0504 44.3871L68.2745 44.5265L68.2756 44.5247L68.0504 44.3871ZM69.816 42.753L69.9434 42.9821L69.816 42.753ZM73.4012 42.1491H73.6661V41.8879H73.4012V42.1491ZM73.4012 43.2326V43.4938H73.6661V43.2326H73.4012ZM70.4465 43.6944L70.5753 43.9227L70.5769 43.9219L70.4465 43.6944ZM69.1494 44.9199L68.9236 44.7833L68.9223 44.7851L68.9212 44.787L69.1494 44.9199ZM69.1494 48.4366L68.9212 48.5696L68.9223 48.5714L68.9236 48.5732L69.1494 48.4366ZM70.4465 49.6799L70.314 49.9061L70.317 49.9077L70.3199 49.9095L70.4465 49.6799ZM73.4012 50.1239H73.6661V49.8628H73.4012V50.1239ZM73.4012 51.2074V51.4686H73.6661V51.2074H73.4012ZM72.3562 50.9462C71.4467 50.9462 70.6444 50.7537 69.9434 50.3744L69.6885 50.8326C70.4767 51.2586 71.3683 51.4686 72.3562 51.4686V50.9462ZM69.9434 50.3744C69.236 49.992 68.6815 49.4835 68.2742 48.8477L67.8265 49.1267C68.284 49.8408 68.9064 50.4097 69.6885 50.8326L69.9434 50.3744ZM68.2756 48.8496C67.8705 48.2063 67.6667 47.4848 67.6667 46.6783H67.1368C67.1368 47.5768 67.3655 48.3946 67.8252 49.1249L68.2756 48.8496ZM67.6667 46.6783C67.6667 45.8717 67.8705 45.1568 68.2742 44.5265L67.8265 44.2476C67.3655 44.9672 67.1368 45.7798 67.1368 46.6783H67.6667ZM68.2756 44.5247C68.6831 43.8777 69.2371 43.3637 69.9434 42.9821L69.6885 42.524C68.9053 42.9474 68.2825 43.523 67.8252 44.2494L68.2756 44.5247ZM69.9434 42.9821C70.6444 42.6028 71.4467 42.4103 72.3562 42.4103V41.8879C71.3683 41.8879 70.4767 42.0979 69.6885 42.524L69.9434 42.9821ZM72.3562 42.4103H73.4012V41.8879H72.3562V42.4103ZM73.1362 42.1491V43.2326H73.6661V42.1491H73.1362ZM73.4012 42.9714H72.2662V43.4938H73.4012V42.9714ZM72.2662 42.9714C71.5619 42.9714 70.9102 43.1359 70.3162 43.4669L70.5769 43.9219C71.0879 43.6369 71.6494 43.4938 72.2662 43.4938V42.9714ZM70.3178 43.4661C69.7375 43.784 69.2715 44.2241 68.9236 44.7833L69.3751 45.0565C69.6758 44.5738 70.0745 44.1969 70.5753 43.9227L70.3178 43.4661ZM68.9212 44.787C68.5829 45.3514 68.416 45.984 68.416 46.6783H68.9459C68.9459 46.0702 69.0911 45.5306 69.3775 45.0528L68.9212 44.787ZM68.416 46.6783C68.416 47.3725 68.5829 48.0051 68.9212 48.5696L69.3775 48.3037C69.0911 47.826 68.9459 47.2863 68.9459 46.6783H68.416ZM68.9236 48.5732C69.271 49.1314 69.7357 49.5767 70.314 49.9061L70.579 49.4537C70.0764 49.1674 69.6763 48.7838 69.3751 48.3L68.9236 48.5732ZM70.3199 49.9095C70.9134 50.2274 71.5638 50.3851 72.2662 50.3851V49.8628C71.6475 49.8628 71.0848 49.7246 70.5732 49.4503L70.3199 49.9095ZM72.2662 50.3851H73.4012V49.8628H72.2662V50.3851ZM73.1362 50.1239V51.2074H73.6661V50.1239H73.1362ZM73.4012 50.9462H72.3562V51.4686H73.4012V50.9462ZM77.0047 51.2074H76.7397V51.4686H77.0047V51.2074ZM77.0047 38.2417V37.9805H76.7397V38.2417H77.0047ZM78.2658 38.2417H78.5307V37.9805H78.2658V38.2417ZM78.2658 51.2074V51.4686H78.5307V51.2074H78.2658ZM77.2696 51.2074V38.2417H76.7397V51.2074H77.2696ZM77.0047 38.5029H78.2658V37.9805H77.0047V38.5029ZM78.0009 38.2417V51.2074H78.5307V38.2417H78.0009ZM78.2658 50.9462H77.0047V51.4686H78.2658V50.9462Z" fill="#74D61D"/>
<path d="M83.22 50.5554L83.0836 50.7795L83.0865 50.7811L83.22 50.5554ZM81.5265 48.8326L81.7578 48.7054L81.5265 48.8326ZM81.5265 44.0193L81.757 44.148L81.7578 44.1465L81.5265 44.0193ZM83.22 42.2964L83.0838 42.0726L83.22 42.2964ZM88.1565 42.2964L88.02 42.5205L88.0229 42.5221L88.1565 42.2964ZM89.85 44.0015L89.6187 44.1287L89.85 44.0015ZM89.85 48.8326L89.6187 48.7054L89.85 48.8326ZM88.1565 50.5554L88.29 50.7811L88.2926 50.7793L88.1565 50.5554ZM87.5079 49.6141L87.6464 49.8366L87.6483 49.8356L87.6502 49.8345L87.5079 49.6141ZM88.733 48.282L88.499 48.1592L88.498 48.1613L88.4969 48.1631L88.733 48.282ZM88.733 44.5521L88.4969 44.6709L88.498 44.6728L88.499 44.6749L88.733 44.5521ZM87.5079 43.2378L87.3656 43.4582L87.3675 43.4593L87.3693 43.4603L87.5079 43.2378ZM83.8506 43.2378L83.9915 43.459L83.9929 43.4582L83.8506 43.2378ZM82.6255 44.5521L82.3916 44.4293L82.3905 44.4314L82.3894 44.4333L82.6255 44.5521ZM82.6255 48.282L82.3894 48.4008L82.3905 48.4026L82.3916 48.4047L82.6255 48.282ZM83.8506 49.6141L83.7059 49.8329L83.7091 49.8348L83.712 49.8366L83.8506 49.6141ZM85.6882 50.9159C84.8052 50.9159 84.0294 50.7184 83.3536 50.3297L83.0865 50.7811C83.8519 51.2212 84.7217 51.4382 85.6882 51.4382V50.9159ZM83.3562 50.3316C82.6753 49.9285 82.1436 49.3876 81.7578 48.7054L81.2952 48.9598C81.726 49.7219 82.3235 50.3297 83.0838 50.7793L83.3562 50.3316ZM81.7578 48.7054C81.3731 48.025 81.1789 47.2641 81.1789 46.417H80.649C80.649 47.3461 80.8631 48.1958 81.2952 48.9598L81.7578 48.7054ZM81.1789 46.417C81.1789 45.57 81.3731 44.8159 81.757 44.148L81.296 43.8905C80.8631 44.6435 80.649 45.488 80.649 46.417H81.1789ZM81.7578 44.1465C82.1436 43.4642 82.6753 42.9233 83.3562 42.5203L83.0838 42.0726C82.3235 42.5221 81.726 43.1299 81.2952 43.8921L81.7578 44.1465ZM83.3562 42.5203C84.0318 42.1209 84.8065 41.9182 85.6882 41.9182V41.3958C84.7204 41.3958 83.8495 41.6194 83.0838 42.0726L83.3562 42.5203ZM85.6882 41.9182C86.57 41.9182 87.3447 42.1209 88.0203 42.5203L88.2926 42.0726C87.527 41.6194 86.6561 41.3958 85.6882 41.3958V41.9182ZM88.0229 42.5221C88.7025 42.9128 89.2332 43.447 89.6187 44.1287L90.0813 43.8743C89.65 43.1113 89.0517 42.509 88.29 42.0707L88.0229 42.5221ZM89.6187 44.1287C90.0034 44.8091 90.1976 45.57 90.1976 46.417H90.7275C90.7275 45.488 90.5134 44.6383 90.0813 43.8743L89.6187 44.1287ZM90.1976 46.417C90.1976 47.2641 90.0034 48.025 89.6187 48.7054L90.0813 48.9598C90.5134 48.1958 90.7275 47.3461 90.7275 46.417H90.1976ZM89.6187 48.7054C89.2329 49.3876 88.7012 49.9285 88.0203 50.3316L88.2926 50.7793C89.053 50.3297 89.6505 49.7219 90.0813 48.9598L89.6187 48.7054ZM88.0229 50.3297C87.3471 50.7184 86.5713 50.9159 85.6882 50.9159V51.4382C86.6548 51.4382 87.5246 51.2212 88.29 50.7811L88.0229 50.3297ZM85.6882 50.3548C86.4166 50.3548 87.072 50.1842 87.6464 49.8366L87.3693 49.3915C86.8869 49.6833 86.3291 49.8324 85.6882 49.8324V50.3548ZM87.6502 49.8345C88.219 49.4775 88.6596 48.9982 88.969 48.4008L88.4969 48.1631C88.2298 48.6787 87.8536 49.0875 87.3656 49.3936L87.6502 49.8345ZM88.9669 48.4047C89.2894 47.8071 89.4483 47.1426 89.4483 46.417H88.9184C88.9184 47.0651 88.7772 47.6439 88.499 48.1592L88.9669 48.4047ZM89.4483 46.417C89.4483 45.6914 89.2894 45.027 88.9669 44.4293L88.499 44.6749C88.7772 45.1902 88.9184 45.769 88.9184 46.417H89.4483ZM88.969 44.4333C88.6591 43.8351 88.2174 43.3605 87.6464 43.0152L87.3693 43.4603C87.8552 43.7544 88.2304 44.1561 88.4969 44.6709L88.969 44.4333ZM87.6502 43.0173C87.0752 42.6566 86.4184 42.4793 85.6882 42.4793V43.0016C86.3273 43.0016 86.8837 43.1558 87.3656 43.4582L87.6502 43.0173ZM85.6882 42.4793C84.9472 42.4793 84.284 42.6563 83.7083 43.0173L83.9929 43.4582C84.474 43.1563 85.0362 43.0016 85.6882 43.0016V42.4793ZM83.7096 43.0165C83.1522 43.3618 82.7124 43.8346 82.3916 44.4293L82.8594 44.6749C83.139 44.1564 83.5162 43.7531 83.9915 43.459L83.7096 43.0165ZM82.3894 44.4333C82.0805 45.0301 81.9282 45.693 81.9282 46.417H82.4581C82.4581 45.7674 82.594 45.1871 82.8616 44.6709L82.3894 44.4333ZM81.9282 46.417C81.9282 47.1411 82.0805 47.804 82.3894 48.4008L82.8616 48.1631C82.594 47.647 82.4581 47.0666 82.4581 46.417H81.9282ZM82.3916 48.4047C82.7121 48.9987 83.1506 49.4764 83.7059 49.8329L83.9953 49.3952C83.5178 49.0885 83.1395 48.6785 82.8594 48.1592L82.3916 48.4047ZM83.712 49.8366C84.2872 50.1845 84.9488 50.3548 85.6882 50.3548V49.8324C85.0344 49.8324 84.4708 49.683 83.9892 49.3915L83.712 49.8366ZM95.3788 50.6975L95.2551 50.9284L95.2567 50.9294L95.2585 50.9302L95.3788 50.6975ZM93.8475 49.3121L93.6212 49.4477L93.6228 49.4503L93.6244 49.4529L93.8475 49.3121ZM93.2889 41.8879V41.6267H93.024V41.8879H93.2889ZM94.5501 41.8879H94.815V41.6267H94.5501V41.8879ZM94.9645 48.7438L94.7379 48.8791L94.74 48.8825L94.7422 48.8858L94.9645 48.7438ZM96.0634 49.7562L95.9376 49.986L95.94 49.9873L95.9424 49.9886L96.0634 49.7562ZM98.928 49.7384L98.8045 49.5072L98.8022 49.5085L98.928 49.7384ZM100.027 48.726L100.252 48.8639L100.254 48.8613L100.027 48.726ZM100.441 41.8879V41.6267H100.176V41.8879H100.441ZM101.703 41.8879H101.967V41.6267H101.703V41.8879ZM101.126 49.3121L100.902 49.1734L100.901 49.1745L101.126 49.3121ZM99.6126 50.6975L99.7348 50.9294L99.7363 50.9284L99.6126 50.6975ZM97.5047 50.9159C96.7618 50.9159 96.095 50.7641 95.4991 50.4648L95.2585 50.9302C95.9357 51.2703 96.6861 51.4382 97.5047 51.4382V50.9159ZM95.5026 50.4666C94.9062 50.1558 94.4301 49.7251 94.0705 49.1713L93.6244 49.4529C94.0337 50.0834 94.5784 50.576 95.2551 50.9284L95.5026 50.4666ZM94.074 49.1766C93.7309 48.62 93.5539 47.9523 93.5539 47.163H93.024C93.024 48.0312 93.2195 48.7965 93.6212 49.4477L94.074 49.1766ZM93.5539 47.163V41.8879H93.024V47.163H93.5539ZM93.2889 42.1491H94.5501V41.6267H93.2889V42.1491ZM94.2851 41.8879V47.1097H94.815V41.8879H94.2851ZM94.2851 47.1097C94.2851 47.7865 94.4316 48.3802 94.7379 48.8791L95.1912 48.6085C94.9448 48.2073 94.815 47.7118 94.815 47.1097H94.2851ZM94.7422 48.8858C95.0535 49.3589 95.4522 49.7272 95.9376 49.986L96.1896 49.5263C95.786 49.3113 95.4519 49.005 95.1867 48.6017L94.7422 48.8858ZM95.9424 49.9886C96.4246 50.2326 96.9407 50.3548 97.4867 50.3548V49.8324C97.0239 49.8324 96.5909 49.7295 96.1845 49.5237L95.9424 49.9886ZM97.4867 50.3548C98.0463 50.3548 98.5701 50.226 99.0541 49.9682L98.8022 49.5085C98.3973 49.7243 97.9602 49.8324 97.4867 49.8324V50.3548ZM99.0515 49.9695C99.5501 49.7107 99.9512 49.3409 100.252 48.8639L99.8021 48.5881C99.5501 48.9875 99.2186 49.2923 98.8045 49.5072L99.0515 49.9695ZM100.254 48.8613C100.56 48.3632 100.706 47.7758 100.706 47.1097H100.176C100.176 47.699 100.047 48.189 99.8005 48.5907L100.254 48.8613ZM100.706 47.1097V41.8879H100.176V47.1097H100.706ZM100.441 42.1491H101.703V41.6267H100.441V42.1491ZM101.438 41.8879V47.163H101.967V41.8879H101.438ZM101.438 47.163C101.438 47.9508 101.255 48.6173 100.902 49.1734L101.35 49.4508C101.765 48.7991 101.967 48.0328 101.967 47.163H101.438ZM100.901 49.1745C100.554 49.7264 100.085 50.1563 99.4889 50.4666L99.7363 50.9284C100.414 50.5758 100.954 50.0821 101.351 49.4498L100.901 49.1745ZM99.4905 50.4658C98.9076 50.7641 98.2476 50.9159 97.5047 50.9159V51.4382C98.3231 51.4382 99.0684 51.2703 99.7348 50.9292L99.4905 50.4658ZM111.523 50.6265L111.4 50.3953L111.398 50.3961L111.523 50.6265ZM113.216 49.0279L113.444 49.1611L113.445 49.1596L113.216 49.0279ZM113.847 37.9804H114.112V37.7192H113.847V37.9804ZM112.586 37.9804V37.7192H112.321V37.9804H112.586ZM112.586 43.7528V44.014H112.851V43.7528H112.586ZM112.55 43.7528L112.314 43.8714L112.388 44.014H112.55V43.7528ZM111.127 42.2609L111.267 42.0391L111.127 42.2609ZM106.767 42.2431L106.896 42.4709L106.767 42.2431ZM105.127 43.8594L104.898 43.7291L104.897 43.7301L105.127 43.8594ZM105.163 48.9569L104.933 49.087L104.935 49.0885L105.163 48.9569ZM106.839 50.6087L106.708 50.8357L106.71 50.837L106.713 50.8383L106.839 50.6087ZM107.523 49.6673L107.39 49.8933L107.393 49.8948L107.397 49.8967L107.523 49.6673ZM106.28 48.4063L106.048 48.5327L106.05 48.5348L106.28 48.4063ZM106.262 44.4811L106.03 44.3546L106.03 44.3562L106.262 44.4811ZM107.505 43.2022L107.372 42.9763L107.505 43.2022ZM110.874 43.2022L110.741 43.4282L110.743 43.4292L110.745 43.4303L110.874 43.2022ZM112.099 44.4633L111.866 44.5861L111.867 44.5889L111.869 44.5918L112.099 44.4633ZM112.099 48.4241L111.869 48.2956L111.868 48.2974L111.867 48.2992L112.099 48.4241ZM110.874 49.6673L110.745 49.4393L110.743 49.4406L110.874 49.6673ZM109.199 51.4382C110.092 51.4382 110.91 51.2457 111.648 50.8568L111.398 50.3961C110.743 50.7414 110.012 50.9159 109.199 50.9159V51.4382ZM111.646 50.8576C112.4 50.4674 113 49.9001 113.444 49.1611L112.989 48.8947C112.592 49.5529 112.064 50.0513 111.4 50.3953L111.646 50.8576ZM113.445 49.1596C113.894 48.4005 114.112 47.4885 114.112 46.4348H113.582C113.582 47.4177 113.379 48.2344 112.988 48.8963L113.445 49.1596ZM114.112 46.4348V37.9804H113.582V46.4348H114.112ZM113.847 37.7192H112.586V38.2416H113.847V37.7192ZM112.321 37.9804V43.7528H112.851V37.9804H112.321ZM112.586 43.4917H112.55V44.014H112.586V43.4917ZM112.786 43.6343C112.45 42.9841 111.94 42.4526 111.267 42.0391L110.987 42.4827C111.586 42.8507 112.025 43.3138 112.314 43.8714L112.786 43.6343ZM111.267 42.0391C110.588 41.6223 109.842 41.4136 109.037 41.4136V41.936C109.744 41.936 110.392 42.118 110.987 42.4827L111.267 42.0391ZM109.037 41.4136C108.165 41.4136 107.364 41.6134 106.637 42.0154L106.896 42.4709C107.539 42.1152 108.251 41.936 109.037 41.936V41.4136ZM106.637 42.0154C105.909 42.4184 105.329 42.9915 104.898 43.7291L105.357 43.9897C105.742 43.3302 106.255 42.8259 106.896 42.4709L106.637 42.0154ZM104.897 43.7301C104.473 44.4643 104.268 45.3401 104.268 46.346H104.798C104.798 45.4101 104.989 44.6278 105.358 43.9887L104.897 43.7301ZM104.268 46.346C104.268 47.3999 104.485 48.3172 104.933 49.087L105.393 48.8268C105 48.1522 104.798 47.3289 104.798 46.346H104.268ZM104.935 49.0885C105.377 49.8371 105.969 50.4212 106.708 50.8357L106.97 50.3817C106.315 50.0147 105.79 49.4976 105.392 48.8253L104.935 49.0885ZM106.713 50.8383C107.463 51.2395 108.293 51.4382 109.199 51.4382V50.9159C108.375 50.9159 107.632 50.7359 106.965 50.3791L106.713 50.8383ZM109.217 49.8324C108.661 49.8324 108.14 49.7013 107.65 49.438L107.397 49.8967C107.964 50.2017 108.572 50.3548 109.217 50.3548V49.8324ZM107.657 49.4414C107.183 49.1703 106.802 48.7848 106.511 48.2778L106.05 48.5348C106.384 49.1173 106.83 49.5723 107.39 49.8933L107.657 49.4414ZM106.512 48.2799C106.226 47.7695 106.077 47.1518 106.077 46.417H105.547C105.547 47.2218 105.71 47.9301 106.048 48.5327L106.512 48.2799ZM106.077 46.417C106.077 45.7058 106.22 45.1051 106.495 44.6059L106.03 44.3562C105.704 44.9462 105.547 45.6363 105.547 46.417H106.077ZM106.494 44.6075C106.785 44.0887 107.167 43.6985 107.639 43.4282L107.372 42.9763C106.811 43.2981 106.364 43.7602 106.03 44.3546L106.494 44.6075ZM107.639 43.4282C108.114 43.1552 108.627 43.0194 109.181 43.0194V42.497C108.534 42.497 107.929 42.6571 107.372 42.9763L107.639 43.4282ZM109.181 43.0194C109.748 43.0194 110.266 43.1558 110.741 43.4282L111.008 42.9763C110.45 42.6566 109.839 42.497 109.181 42.497V43.0194ZM110.745 43.4303C111.214 43.6881 111.587 44.0699 111.866 44.5861L112.333 44.3405C112.011 43.7434 111.568 43.2848 111.004 42.9742L110.745 43.4303ZM111.869 44.5918C112.154 45.0891 112.303 45.6998 112.303 46.4348H112.833C112.833 45.6303 112.67 44.9267 112.33 44.3348L111.869 44.5918ZM112.303 46.4348C112.303 47.1823 112.154 47.7988 111.869 48.2956L112.33 48.5526C112.67 47.9602 112.833 47.2502 112.833 46.4348H112.303ZM111.867 48.2992C111.589 48.8036 111.215 49.1807 110.745 49.4393L111.004 49.8954C111.567 49.5856 112.01 49.134 112.332 48.5489L111.867 48.2992ZM110.743 49.4406C110.28 49.7013 109.773 49.8324 109.217 49.8324V50.3548C109.862 50.3548 110.46 50.2017 111.006 49.8941L110.743 49.4406Z" fill="#74D61D"/>
<defs>
<linearGradient id="paint0_linear" x1="15.7984" y1="-1.57253" x2="-3.93849" y2="28.4483" gradientUnits="userSpaceOnUse">
<stop stop-color="#4AFFD4"/>
<stop offset="1" stop-color="#30B3C7"/>
</linearGradient>
<linearGradient id="paint1_linear" x1="54.563" y1="12.4532" x2="6.01633" y2="61.8334" gradientUnits="userSpaceOnUse">
<stop stop-color="#88DE20" stop-opacity="0.75"/>
<stop offset="0.325126" stop-color="#8ADD25"/>
<stop offset="1" stop-color="#99FF1E" stop-opacity="0.43"/>
</linearGradient>
<linearGradient id="paint2_linear" x1="55.2471" y1="21.8941" x2="49.3921" y2="56.7185" gradientUnits="userSpaceOnUse">
<stop stop-color="#FFEC00" stop-opacity="0.75"/>
<stop offset="0.414068" stop-color="#F5F13C" stop-opacity="0.6"/>
<stop offset="1" stop-color="#F5F13C" stop-opacity="0.46"/>
</linearGradient>
<linearGradient id="paint3_linear" x1="27.9367" y1="7.2124" x2="16.2655" y2="61.8966" gradientUnits="userSpaceOnUse">
<stop stop-color="#01B313"/>
<stop offset="1" stop-color="#78EE1B" stop-opacity="0.6"/>
</linearGradient>
</defs>
</svg>
