<svg width="70" height="69" viewBox="0 0 70 69" fill="none" xmlns="http://www.w3.org/2000/svg">
<path d="M55.2669 42.801C67.7609 32.6196 54.0472 0.391166 38.6445 13.8049C26.2451 25.6449 19.651 19.1837 12.2558 25.331C2.4158 33.4759 12.7512 50.193 12.7345 50.2035C25.1589 68.9937 42.1351 59.3661 55.2669 42.801Z" fill="url(#paint0_linear)" fill-opacity="0.2"/>
<path d="M46.3168 16.7686H19.8891C18.8156 16.7686 17.9458 16.0077 17.9458 15.0687C17.9458 14.1296 18.8156 13.3687 19.8891 13.3687H46.3168C47.3903 13.3687 48.26 14.1295 48.26 15.0687C48.26 16.0078 47.3903 16.7686 46.3168 16.7686Z" fill="#0EB818"/>
<path d="M35.4348 26.9684H19.889C18.8156 26.9684 17.9458 26.2074 17.9458 25.2684C17.9458 24.3293 18.8156 23.5684 19.889 23.5684H35.4348C36.5082 23.5684 37.3781 24.3293 37.3781 25.2684C37.3781 26.2075 36.5082 26.9684 35.4348 26.9684Z" fill="#0EB818"/>
<path d="M46.3173 26.9679H43.2081C42.1347 26.9679 41.2649 26.207 41.2649 25.2679C41.2649 24.3288 42.1347 23.5679 43.2081 23.5679H46.3173C47.3907 23.5679 48.2605 24.3288 48.2605 25.2679C48.2605 26.207 47.3907 26.9679 46.3173 26.9679Z" fill="#7EDEDD"/>
<path d="M46.3168 37.1691H19.8891C18.8156 37.1691 17.9458 36.4081 17.9458 35.4691C17.9458 34.53 18.8156 33.769 19.8891 33.769H46.3168C47.3903 33.769 48.26 34.5299 48.26 35.4691C48.26 36.4081 47.3903 37.1691 46.3168 37.1691Z" fill="#0EB818"/>
<defs>
<linearGradient id="paint0_linear" x1="64.145" y1="45.5758" x2="4.13964" y2="26.7329" gradientUnits="userSpaceOnUse">
<stop stop-color="#99FF1E"/>
<stop offset="0.963542" stop-color="#99FF1E" stop-opacity="0.44"/>
</linearGradient>
</defs>
</svg>
