<svg width="321" height="88" viewBox="0 0 321 88" fill="none" xmlns="http://www.w3.org/2000/svg">
<path d="M0 16C0 7.16344 7.16344 0 16 0H304.997C313.834 0 320.997 7.16344 320.997 16V87.9997H0V16Z" fill="url(#paint0_linear)"/>
<path d="M266.878 33.6924C272.354 30.6606 267.939 17.4111 261.156 21.4779C255.657 25.1496 253.202 22.2297 249.956 24.0704C245.638 26.5064 249.244 33.5999 249.237 33.6028C253.62 41.6314 260.906 39.1186 266.878 33.6924Z" fill="url(#paint1_linear)" fill-opacity="0.6"/>
<mask id="mask0" mask-type="alpha" maskUnits="userSpaceOnUse" x="0" y="0" width="321" height="88">
<path d="M0 16C0 7.16344 7.16344 0 16 0H304.997C313.834 0 320.997 7.16344 320.997 16V87.9997H0V16Z" fill="url(#paint2_linear)"/>
</mask>
<g mask="url(#mask0)">
<path d="M331.65 63.1903C333.184 36.6441 287.779 6.87534 281.01 40.6139C276.581 69.1781 261.728 67.1702 258.191 82.974C253.451 103.956 283.187 115.987 283.175 116.018C317.642 128.72 329.867 94.0336 331.65 63.1903Z" fill="url(#paint3_linear)" fill-opacity="0.6"/>
</g>
<mask id="mask1" mask-type="alpha" maskUnits="userSpaceOnUse" x="0" y="0" width="321" height="88">
<path d="M321 72C321 80.8366 313.837 88 305 88L16.003 88C7.16643 88 0.00299754 80.8365 0.0029983 72L0.00300313 16.0002C0.00300389 7.16367 7.16645 0.000228463 16.003 0.000229247L321 0.0002563L321 72Z" fill="url(#paint4_linear)"/>
</mask>
<g mask="url(#mask1)">
<path d="M-10.6498 24.8097C-12.1843 51.3559 33.2211 81.1247 39.9902 47.3861C44.419 18.8219 59.2718 20.8298 62.8087 5.026C67.549 -15.9556 37.8134 -27.9868 37.8248 -28.0178C3.35825 -40.7204 -8.86697 -6.03358 -10.6498 24.8097Z" fill="url(#paint5_linear)" fill-opacity="0.4"/>
</g>
<defs>
<linearGradient id="paint0_linear" x1="31.208" y1="-11.9252" x2="266.907" y2="109.052" gradientUnits="userSpaceOnUse">
<stop stop-color="#40F8CC"/>
<stop offset="1" stop-color="#1FC0D9"/>
</linearGradient>
<linearGradient id="paint1_linear" x1="271.135" y1="34.0028" x2="245.696" y2="26.3434" gradientUnits="userSpaceOnUse">
<stop stop-color="#2BD4D4"/>
<stop offset="0.807292" stop-color="#32DFD2"/>
</linearGradient>
<linearGradient id="paint2_linear" x1="31.208" y1="-11.9252" x2="266.907" y2="109.052" gradientUnits="userSpaceOnUse">
<stop stop-color="#40F8CC"/>
<stop offset="1" stop-color="#1FC0D9"/>
</linearGradient>
<linearGradient id="paint3_linear" x1="343.797" y1="51.0084" x2="250.129" y2="96.9868" gradientUnits="userSpaceOnUse">
<stop stop-color="#40F8CC"/>
<stop offset="1" stop-color="#23C7D7"/>
</linearGradient>
<linearGradient id="paint4_linear" x1="289.792" y1="99.9252" x2="54.0929" y2="-21.0523" gradientUnits="userSpaceOnUse">
<stop stop-color="#40F8CC"/>
<stop offset="1" stop-color="#1FC0D9"/>
</linearGradient>
<linearGradient id="paint5_linear" x1="-22.7972" y1="36.9916" x2="70.8706" y2="-8.98676" gradientUnits="userSpaceOnUse">
<stop stop-color="#40F8CC"/>
<stop offset="1" stop-color="#23C7D7"/>
</linearGradient>
</defs>
</svg>
