<svg width="1440" height="626" viewBox="0 0 1440 626" fill="none" xmlns="http://www.w3.org/2000/svg">
<path d="M-184.002 68.9995C-123 86.8148 71.998 303.999 759.498 127.093C997.026 65.9729 1309.04 -20.505 1444.07 5.50064C1466.94 9.90556 1444.07 304 1444.07 304V530.648C1083.5 456.501 948.296 528.208 759.498 579C476.998 655 316.183 621.214 174.998 598.5C16.498 573 -184.002 598.5 -184.002 598.5V68.9995Z" fill="url(#paint0_linear)"/>
<mask id="mask0" mask-type="alpha" maskUnits="userSpaceOnUse" x="-185" y="0" width="1640" height="626">
<path d="M-184.004 68.9995C-123.001 86.8148 71.9961 303.999 759.496 127.093C997.024 65.9729 1309.04 -20.505 1444.07 5.50064C1466.94 9.90556 1444.07 304 1444.07 304V530.648C1083.5 456.501 948.294 528.208 759.496 579C476.996 655 316.181 621.214 174.996 598.5C16.4961 573 -184.004 598.5 -184.004 598.5V68.9995Z" fill="url(#paint1_linear)"/>
</mask>
<g mask="url(#mask0)">
<mask id="mask1" mask-type="alpha" maskUnits="userSpaceOnUse" x="-86" y="57" width="1042" height="600">
<path d="M416.91 130.429C59.2844 252.509 -86 134.023 -86 87.6573L-86 557.063C77.8966 644.9 266.426 675.506 449.692 644.027L956 557.063L956 116.411C956 116.411 873.87 -25.5606 416.91 130.429Z" fill="url(#paint2_linear)"/>
</mask>
<g mask="url(#mask1)">
<path fill-rule="evenodd" clip-rule="evenodd" d="M179.709 179.723C163.13 188.179 146.745 198.142 130.847 209.294C132.032 236.545 133.346 263.569 134.659 284.504C138.252 345.578 147.531 450.176 149.115 467.876C150.898 470.242 150.395 475.63 149.367 477.495C149.631 485.965 152.103 565.021 154.842 636.415C162.236 636.524 169.706 636.389 177.227 636.018C178.057 635.977 178.888 635.933 179.72 635.885C179.263 577.654 178.477 518.715 178.477 518.715L178.628 518.653C178.512 516.985 178.035 509.175 178.651 502.192L178.909 502.229C178.843 501.879 178.826 501.666 178.826 501.666C178.826 501.666 179.868 407.773 179.868 307.584C179.868 268.603 179.815 222.557 179.709 179.723ZM193.269 504.464C193.922 508.252 193.58 517.444 193.238 520.026L193.233 520.03C193.199 522.333 192.951 539.859 192.674 582.116C198.081 569.187 205.67 553.448 213.849 541.051C226.141 522.421 249.06 499.305 263.302 487.502C258.536 503.856 247.959 534.366 233.645 555.195C222.267 571.752 204.916 587.288 195.353 595.85C194.332 596.764 193.4 597.599 192.573 598.347L192.558 601.071L192.543 603.691C192.501 611.086 192.482 621.783 192.48 634.884C298.696 624.343 418.299 557.843 449.969 430.849C483.165 297.735 401.186 149.17 291.828 149.17C286.044 149.17 280.197 149.463 274.301 150.035C251.593 191.782 230.58 231.346 208.684 272.981C205.123 279.607 201.599 286.326 198.059 293.076C196.404 296.232 194.745 299.394 193.077 302.557C193.073 305.708 193.069 308.87 193.065 312.043C193.016 348.907 193.023 380.216 193.056 406.181C197.226 396.113 204.119 381.867 211.552 371.151C220.874 357.71 238.058 341.164 248.694 332.759C244.924 344.66 236.655 366.833 225.814 381.85C217.197 393.786 204.221 404.873 197.069 410.984L197.069 410.984C195.354 412.45 193.973 413.629 193.069 414.465C193.166 475.199 193.413 504.027 193.413 504.027C193.413 504.027 193.378 504.195 193.269 504.464ZM193.1 287.243C196.187 281.361 199.266 275.507 202.374 269.724C223.443 229.697 243.815 191.306 265.664 151.065C241.933 154.416 217.539 162.09 193.381 173.116C193.269 207.283 193.166 246.142 193.1 287.243ZM108.954 480.684C108.954 480.684 109.006 480.698 109.107 480.722C109.003 480.866 108.954 480.945 108.954 480.945C108.954 480.945 110.137 497.922 111.971 524.531C108.677 514.698 105.509 505.166 103.133 498.02C99.7222 487.658 97.3745 480.827 96.8591 479.466C88.3356 456.511 71.7618 405.252 71.7372 404.645L71.5125 404.735C69.5234 396.473 64.9359 379.207 60.298 366.115C54.8836 350.83 40.8131 331.536 32.8182 322.42C34.4565 335.484 39.5677 358.084 46.0504 372.589C51.6061 385.02 60.2706 398.469 66.4705 406.751L65.8505 406.999C65.8967 407.104 66.4765 408.897 67.4469 411.898C70.023 419.864 75.3519 436.342 80.7579 452.361C71.0418 444.887 54.1048 432.419 39.9427 423.539C33.3629 419.413 25.1866 415.673 16.6735 412.439C14.5229 404.496 12.3579 396.477 10.1742 388.365C6.59845 375.095 3.20724 362.114 -0.283806 348.752L-0.498062 347.932C23.918 307.623 58.2133 268.202 97.233 235.234C101.226 317.658 107.771 450.375 108.814 471.512C108.772 471.509 108.732 471.507 108.692 471.505C108.692 471.242 107.38 477.012 108.954 480.684ZM11.6235 410.591C-2.00768 405.786 -15.8631 402.315 -24.9217 400.661C-14.9905 410.402 2.18304 424.596 18.2301 434.932C28.264 471.793 38.0722 507.35 48.0421 543.224C43.6015 541.33 39.5651 539.736 36.2237 538.489C40.2012 544.079 45.8748 551.182 52.2632 558.398C55.0063 568.25 57.7655 578.142 60.5489 588.108C62.9276 596.775 65.3739 605.508 67.8313 614.281C68.5965 617.013 69.3628 619.749 70.1285 622.488C6.2861 600.167 -38.9653 549.989 -38.9653 464.128C-38.9653 429.683 -25.7749 391.19 -3.66677 353.263C-0.536835 365.234 2.55008 376.995 5.82772 389.119C7.77248 396.343 9.70353 403.497 11.6235 410.591ZM64.8954 587.354C62.8527 580.046 60.8253 572.784 58.8095 565.555C65.5407 572.669 72.6589 579.437 79.1929 584.476C90.7897 593.419 106.189 601.975 117.65 607.523C118.237 616.168 118.835 624.996 119.437 633.918C104.02 631.911 89.1699 628.691 75.1572 624.176C74.1648 620.622 73.1704 617.072 72.1778 613.528C69.7204 604.755 67.274 596.021 64.8954 587.354ZM92.6304 568.328C102.465 576.212 110.619 585.289 116.635 592.586C115.583 577.148 114.581 562.505 113.669 549.211C109.976 538.383 105.288 524.384 99.6441 507.531L99.6438 507.531C98.8631 505.199 98.064 502.813 97.2468 500.373C96.0069 496.602 94.8862 493.131 93.952 490.238C92.5133 485.782 91.5171 482.696 91.2096 481.994C89.1279 476.541 86.6162 469.472 83.9935 461.857C70.9889 458.775 48.2096 451.357 30.4249 442.093C28.2471 440.959 25.9984 439.696 23.705 438.33C33.618 474.721 43.3158 509.867 53.223 545.493C66.145 551.3 81.2896 559.237 92.6304 568.328Z" fill="url(#paint3_linear)" fill-opacity="0.52"/>
</g>
</g>
<defs>
<linearGradient id="paint0_linear" x1="15.9982" y1="338" x2="1434" y2="301.5" gradientUnits="userSpaceOnUse">
<stop stop-color="#01B213"/>
<stop offset="1" stop-color="#91ED58"/>
</linearGradient>
<linearGradient id="paint1_linear" x1="15.9963" y1="338" x2="1434" y2="301.5" gradientUnits="userSpaceOnUse">
<stop stop-color="#01B213"/>
<stop offset="1" stop-color="#91ED58"/>
</linearGradient>
<linearGradient id="paint2_linear" x1="-93.2361" y1="321.641" x2="1052.41" y2="321.459" gradientUnits="userSpaceOnUse">
<stop offset="0.60067" stop-color="#01B213"/>
<stop offset="1" stop-color="#74D355"/>
</linearGradient>
<linearGradient id="paint3_linear" x1="5.66792" y1="601.038" x2="457.19" y2="232.208" gradientUnits="userSpaceOnUse">
<stop stop-color="white" stop-opacity="0.66"/>
<stop offset="0.921875" stop-color="white" stop-opacity="0"/>
</linearGradient>
</defs>
</svg>
