<svg width="1440" height="923" viewBox="0 0 1440 923" fill="none" xmlns="http://www.w3.org/2000/svg">
<path d="M-185 364.999C-123.998 382.815 71 599.999 758.5 423.093C996.028 361.973 1308.04 275.495 1443.07 301.501C1465.94 305.906 1443.07 600 1443.07 600V826.648C1082.5 752.501 947.298 824.208 758.5 875C476 951 315.185 917.214 174 894.5C15.5 869 -185 894.5 -185 894.5V364.999Z" fill="url(#paint0_linear)"/>
<mask id="mask0" mask-type="alpha" maskUnits="userSpaceOnUse" x="-184" y="297" width="1639" height="626">
<path d="M-184 365.999C-122.997 383.815 72.0002 600.999 759.5 424.093C997.028 362.973 1309.04 276.495 1444.07 302.501C1466.95 306.906 1444.07 601 1444.07 601V827.648C1083.5 753.501 948.298 825.208 759.5 876C477 952 316.185 918.214 175 895.5C16.5002 870 -184 895.5 -184 895.5V365.999Z" fill="url(#paint1_linear)"/>
</mask>
<g mask="url(#mask0)">
<mask id="mask1" mask-type="alpha" maskUnits="userSpaceOnUse" x="-86" y="354" width="1043" height="600">
<path d="M416.91 427.429C59.2847 549.509 -85.9998 431.023 -85.9998 384.657L-85.9997 854.063C77.8969 941.9 266.426 972.506 449.693 941.027L956 854.063L956 413.411C956 413.411 873.87 271.439 416.91 427.429Z" fill="url(#paint2_linear)"/>
</mask>
<g mask="url(#mask1)">
<path fill-rule="evenodd" clip-rule="evenodd" d="M179.71 476.723C163.131 485.179 146.745 495.142 130.848 506.294C132.032 533.545 133.346 560.569 134.659 581.504C138.252 642.578 147.531 747.176 149.115 764.876C150.898 767.242 150.395 772.63 149.368 774.495C149.631 782.965 152.103 862.021 154.843 933.416C162.236 933.524 169.706 933.389 177.227 933.018C178.057 932.977 178.888 932.933 179.72 932.885C179.263 874.654 178.477 815.715 178.477 815.715L178.628 815.653C178.513 813.985 178.035 806.175 178.651 799.192L178.91 799.229C178.843 798.88 178.826 798.667 178.826 798.667C178.826 798.667 179.868 704.773 179.868 604.584C179.868 565.603 179.815 519.557 179.71 476.723ZM193.269 801.464C193.922 805.252 193.58 814.444 193.238 817.026L193.234 817.03C193.199 819.334 192.951 836.859 192.674 879.116C198.082 866.187 205.67 850.448 213.849 838.051C226.142 819.421 249.06 796.305 263.302 784.502C258.536 800.856 247.959 831.366 233.645 852.195C222.267 868.752 204.916 884.288 195.353 892.85C194.332 893.764 193.4 894.599 192.574 895.347L192.558 898.071L192.543 900.692C192.501 908.086 192.482 918.783 192.481 931.884C298.696 921.344 418.299 854.843 449.969 727.85C483.165 594.735 401.186 446.17 291.829 446.17C286.044 446.17 280.197 446.463 274.301 447.035C251.593 488.782 230.58 528.346 208.685 569.981C205.123 576.607 201.599 583.326 198.06 590.075L198.059 590.077C196.404 593.232 194.745 596.395 193.078 599.557C193.073 602.708 193.069 605.87 193.066 609.043C193.017 645.907 193.023 677.216 193.057 703.181C197.226 693.113 204.119 678.867 211.552 668.151C220.875 654.71 238.059 638.164 248.694 629.759C244.924 641.66 236.656 663.833 225.815 678.85C217.197 690.786 204.221 701.873 197.069 707.984L197.069 707.984C195.354 709.45 193.974 710.629 193.069 711.465C193.166 772.199 193.413 801.027 193.413 801.027C193.413 801.027 193.378 801.195 193.269 801.464ZM193.1 584.243C196.187 578.361 199.266 572.507 202.375 566.724C223.443 526.698 243.816 488.306 265.665 448.065C241.933 451.416 217.539 459.09 193.381 470.116C193.269 504.283 193.166 543.142 193.1 584.243ZM108.954 777.684C108.954 777.684 109.007 777.698 109.107 777.722C109.004 777.866 108.954 777.945 108.954 777.945C108.954 777.945 110.111 794.539 111.909 820.629C108.653 811.047 105.527 801.774 103.178 794.806C99.7726 784.607 97.4276 777.886 96.9121 776.549C88.3884 753.98 71.8504 703.519 71.8287 702.917L71.7972 702.93C69.9926 695.249 65.1733 676.877 60.2983 663.115C54.8839 647.83 40.8134 628.536 32.8185 619.42C34.4567 632.484 39.568 655.084 46.0507 669.589C51.8509 682.567 61.0392 696.654 67.2742 704.813L65.843 705.409C65.8893 705.513 66.4678 707.278 67.4361 710.232C69.9531 717.91 75.104 733.624 80.3854 749.074C70.6133 741.571 53.9257 729.306 39.943 720.539C33.3632 716.414 25.1869 712.673 16.6738 709.439C14.5232 701.496 12.3582 693.477 10.1745 685.365C6.59987 672.099 3.20967 659.122 -0.280209 645.764L-0.28054 645.763L-0.280804 645.762L-0.282291 645.756L-0.283253 645.753L-0.283459 645.752L-0.497765 644.932C23.9183 604.623 58.2136 565.202 97.2333 532.234C101.226 614.658 107.772 747.375 108.815 768.512C108.773 768.51 108.732 768.507 108.692 768.505C108.692 768.242 107.381 774.012 108.954 777.684ZM11.6238 707.591C-2.00738 702.786 -15.8628 699.315 -24.9214 697.661C-14.9902 707.402 2.18334 721.596 18.2304 731.932C28.2643 768.793 38.0725 804.35 48.0424 840.224C43.6018 838.33 39.5654 836.736 36.224 835.489C40.2015 841.08 45.8751 848.182 52.2635 855.398C55.0066 865.25 57.7658 875.142 60.5492 885.108C62.9274 893.773 65.3732 902.505 67.83 911.276L67.8301 911.276L67.8303 911.277L67.8304 911.277L67.8305 911.277L67.8316 911.282L67.8442 911.327C68.6052 914.043 69.3673 916.764 70.1288 919.488C6.2864 897.167 -38.965 846.989 -38.965 761.128C-38.965 726.683 -25.7746 688.19 -3.66647 650.263C-0.536541 662.234 2.55037 673.995 5.82801 686.119C7.77278 693.343 9.70382 700.497 11.6238 707.591ZM64.8957 884.354C62.853 877.046 60.8256 869.784 58.8098 862.555C65.541 869.669 72.6592 876.437 79.1932 881.476C90.79 890.419 106.189 898.975 117.651 904.523C118.237 913.168 118.835 921.996 119.437 930.918C104.02 928.911 89.1702 925.691 75.1575 921.176C74.1651 917.622 73.1707 914.072 72.1781 910.528C69.7207 901.755 67.2743 893.021 64.8957 884.354ZM92.6307 865.328C102.466 873.212 110.619 882.289 116.635 889.586C115.563 873.847 114.543 858.936 113.616 845.438C109.926 834.779 105.24 820.986 99.5965 804.376L99.5883 804.352L99.5857 804.344L99.5856 804.344C98.8059 802.049 98.008 799.7 97.1919 797.299C95.9542 793.586 94.8358 790.169 93.9037 787.32L93.9035 787.32L93.9027 787.317C92.4677 782.933 91.4742 779.897 91.1661 779.208C89.0275 773.704 86.4381 766.52 83.742 758.797C70.6968 755.68 48.0957 748.297 30.4252 739.094C28.2474 737.959 25.9987 736.696 23.7053 735.33C33.6182 771.721 43.3161 806.867 53.2233 842.493C66.1452 848.3 81.2899 856.237 92.6307 865.328Z" fill="url(#paint3_linear)" fill-opacity="0.52"/>
</g>
</g>
<path d="M1344.83 614.39C1347.47 626.05 1348.79 636.17 1348.79 644.75C1348.79 657.07 1345.93 666.31 1340.21 672.47C1334.49 678.85 1326.13 682.04 1315.13 682.04L1315.13 668.84C1320.85 668.84 1325.03 667.3 1327.67 664.22C1330.09 661.14 1331.3 656.52 1331.3 650.36L1331.3 642.77L1314.8 642.77L1314.8 614.39L1344.83 614.39ZM1300.28 614.39C1302.92 626.05 1304.24 636.17 1304.24 644.75C1304.24 657.07 1301.38 666.31 1295.66 672.47C1289.94 678.85 1281.58 682.04 1270.58 682.04L1270.58 668.84C1276.3 668.84 1280.48 667.3 1283.12 664.22C1285.54 661.14 1286.75 656.52 1286.75 650.36L1286.75 642.77L1270.25 642.77L1270.25 614.39L1300.28 614.39Z" fill="white" fill-opacity="0.6"/>
<defs>
<linearGradient id="paint0_linear" x1="15.0002" y1="634" x2="1433" y2="597.5" gradientUnits="userSpaceOnUse">
<stop stop-color="#01B213"/>
<stop offset="1" stop-color="#91ED58"/>
</linearGradient>
<linearGradient id="paint1_linear" x1="16.0004" y1="635" x2="1434" y2="598.5" gradientUnits="userSpaceOnUse">
<stop stop-color="#01B213"/>
<stop offset="1" stop-color="#91ED58"/>
</linearGradient>
<linearGradient id="paint2_linear" x1="-93.2359" y1="618.641" x2="1052.41" y2="618.459" gradientUnits="userSpaceOnUse">
<stop offset="0.60067" stop-color="#01B213"/>
<stop offset="1" stop-color="#74D355"/>
</linearGradient>
<linearGradient id="paint3_linear" x1="5.66822" y1="898.038" x2="457.191" y2="529.208" gradientUnits="userSpaceOnUse">
<stop stop-color="white" stop-opacity="0.66"/>
<stop offset="0.921875" stop-color="white" stop-opacity="0"/>
</linearGradient>
</defs>
</svg>
