<svg width="75" height="77" viewBox="0 0 75 77" fill="none" xmlns="http://www.w3.org/2000/svg">
<path fill-rule="evenodd" clip-rule="evenodd" d="M57.4896 13.6365C57.8986 13.8354 58.1731 14.2346 58.2125 14.6879C58.2479 15.0951 59.0439 24.7992 55.9776 36.6517C54.1715 43.6337 51.39 49.897 47.7109 55.2679C43.0964 62.004 37.0572 67.3384 29.7613 71.1232C29.5746 71.2202 29.37 71.2685 29.1656 71.2685C28.9612 71.2685 28.7566 71.2202 28.5699 71.1232C21.2738 67.3384 15.235 62.0038 10.6205 55.2679C6.94138 49.897 4.15991 43.6337 2.35358 36.6517C-0.712919 24.7992 0.0830642 15.0949 0.118494 14.6877C0.157706 14.2344 0.432389 13.8354 0.841428 13.6363L28.5993 0.130474C28.9566 -0.0434914 29.3742 -0.0434914 29.7315 0.130474L57.4896 13.6365Z" fill="url(#paint0_linear)"/>
<path d="M18.3095 34.7994C18.474 34.7996 18.637 34.7673 18.789 34.7043C18.941 34.6413 19.0791 34.549 19.1953 34.4325L26.2436 27.3841L29.1161 30.2566C29.2324 30.3729 29.3705 30.4652 29.5225 30.5282C29.6745 30.5911 29.8374 30.6235 30.0019 30.6235C30.1664 30.6235 30.3294 30.5911 30.4814 30.5282C30.6334 30.4652 30.7715 30.3729 30.8878 30.2566L38.7708 22.3735L38.7703 25.1948C38.7703 25.5271 38.9023 25.8457 39.1373 26.0807C39.3722 26.3156 39.6909 26.4476 40.0231 26.4476C40.3554 26.4476 40.674 26.3156 40.909 26.0807C41.1439 25.8457 41.2759 25.5271 41.2759 25.1948L41.2768 19.3486C41.2768 19.0163 41.1448 18.6977 40.9099 18.4628C40.6749 18.2278 40.3563 18.0958 40.0241 18.0958H34.1778C33.8456 18.0958 33.5269 18.2278 33.292 18.4628C33.057 18.6977 32.925 19.0163 32.925 19.3486C32.925 19.6808 33.057 19.9995 33.292 20.2344C33.5269 20.4694 33.8456 20.6014 34.1778 20.6014H36.9996L30.0019 27.599L27.1295 24.7266C27.0132 24.6102 26.8751 24.5179 26.7231 24.455C26.5711 24.392 26.4082 24.3596 26.2436 24.3596C26.0791 24.3596 25.9162 24.392 25.7642 24.455C25.6122 24.5179 25.4741 24.6102 25.3578 24.7266L17.4236 32.6607C17.2484 32.8359 17.1291 33.0592 17.0807 33.3022C17.0324 33.5452 17.0572 33.7971 17.152 34.026C17.2468 34.2549 17.4074 34.4506 17.6134 34.5882C17.8195 34.7259 18.0617 34.7994 18.3095 34.7994Z" fill="white"/>
<path d="M40.024 37.3051H18.3094C17.9772 37.3051 17.6585 37.437 17.4236 37.672C17.1886 37.9069 17.0566 38.2256 17.0566 38.5578C17.0566 38.8901 17.1886 39.2087 17.4236 39.4437C17.6585 39.6786 17.9772 39.8106 18.3094 39.8106H40.024C40.3563 39.8106 40.6749 39.6786 40.9098 39.4437C41.1448 39.2087 41.2768 38.8901 41.2768 38.5578C41.2768 38.2256 41.1448 37.9069 40.9098 37.672C40.6749 37.437 40.3563 37.3051 40.024 37.3051Z" fill="white"/>
<path d="M75 76.4692H62.9145V48.2697H75V76.4692ZM69.6287 69.755H66.943V72.4407H69.6287V69.755Z" fill="#4CB0FD"/>
<path d="M29.3443 52.969C29.3443 51.1149 30.8473 49.6119 32.7014 49.6119H48.144V41.8683C48.144 38.7287 50.6891 36.1836 53.8287 36.1836H54.8582L55.9739 43.9935C56.3321 46.501 57.6451 47.4808 60.2295 51.6262V73.0156L52.1725 76.4686H32.7014C30.8473 76.4686 29.3443 74.9656 29.3443 73.1115C29.3443 72.8816 29.3676 72.6571 29.4116 72.4401C29.7226 70.9079 31.077 69.7546 32.701 69.7544C32.7011 69.7544 32.7012 69.7544 32.7014 69.7544C30.8473 69.7544 29.3443 68.2514 29.3443 66.3973C29.3443 66.1675 29.3676 65.9429 29.4116 65.7259C29.7226 64.1938 31.077 63.0404 32.701 63.0403C32.7011 63.0403 32.7012 63.0403 32.7014 63.0403C30.8473 63.0403 29.3443 61.5373 29.3443 59.6832C29.3443 59.4533 29.3676 59.2288 29.4116 59.0118C29.7226 57.4796 31.077 56.3263 32.701 56.3261C32.7011 56.3261 32.7012 56.3261 32.7014 56.3261C30.8473 56.3261 29.3443 54.8231 29.3443 52.969Z" fill="url(#paint1_linear)"/>
<defs>
<linearGradient id="paint0_linear" x1="29.1655" y1="0" x2="29.1655" y2="71.2685" gradientUnits="userSpaceOnUse">
<stop stop-color="#93F055"/>
<stop offset="1" stop-color="#0DB817"/>
</linearGradient>
<linearGradient id="paint1_linear" x1="24.8889" y1="56.8814" x2="60.5231" y2="56.8814" gradientUnits="userSpaceOnUse">
<stop stop-color="#32D1F4" stop-opacity="0.63"/>
<stop offset="1" stop-color="#4CB0FD"/>
</linearGradient>
</defs>
</svg>
