<svg width="14" height="14" viewBox="0 0 14 14" fill="none" xmlns="http://www.w3.org/2000/svg">
<g clip-path="url(#clip0)">
<path d="M12.5614 4.14922C13.1308 3.74497 13.6097 3.24039 13.9999 2.65939V2.6588C13.479 2.88689 12.9249 3.03855 12.3462 3.11205C12.9412 2.7568 13.3956 2.19855 13.6091 1.52597C13.0544 1.85672 12.4419 2.09005 11.7891 2.22072C11.2624 1.65955 10.5116 1.31247 9.69261 1.31247C8.10361 1.31247 6.82436 2.60222 6.82436 4.18305C6.82436 4.41055 6.84361 4.6293 6.89086 4.83755C4.50502 4.72089 2.39336 3.57755 0.974689 1.83514C0.727356 2.26505 0.581522 2.7568 0.581522 3.28589C0.581522 4.27989 1.09311 5.16072 1.85669 5.67114C1.39527 5.66239 0.943189 5.52822 0.559939 5.31764V5.34914C0.559939 6.74389 1.55452 7.90239 2.85944 8.16955C2.62552 8.23372 2.37119 8.26405 2.10694 8.26405C1.92319 8.26405 1.73769 8.25355 1.56386 8.21505C1.93544 9.35139 2.99127 10.1873 4.24544 10.2147C3.26894 10.9783 2.02877 11.4386 0.686522 11.4386C0.451439 11.4386 0.225689 11.4281 -6.10352e-05 11.3995C1.27161 12.2191 2.77777 12.6875 4.40294 12.6875C9.46802 12.6875 12.7691 8.4618 12.5614 4.14922Z" fill="#1E4843" fill-opacity="0.3"/>
</g>
<defs>
<clipPath id="clip0">
<rect width="14" height="14" fill="white"/>
</clipPath>
</defs>
</svg>
