<svg width="19" height="19" viewBox="0 0 19 19" fill="none" xmlns="http://www.w3.org/2000/svg">
<g clip-path="url(#clip0)">
<path d="M17.0078 5.59526C17.7672 5.05602 18.4061 4.38295 18.9266 3.60795V3.60717C18.2318 3.91141 17.4925 4.11372 16.7207 4.21177C17.5143 3.73789 18.1205 2.99324 18.4053 2.09607C17.6653 2.53726 16.8483 2.84851 15.9776 3.02281C15.2749 2.27426 14.2735 1.81128 13.181 1.81128C11.0614 1.81128 9.35501 3.53169 9.35501 5.64039C9.35501 5.94385 9.38069 6.23565 9.44372 6.51344C6.26122 6.35781 3.44444 4.8327 1.55206 2.50847C1.22214 3.08194 1.02761 3.73789 1.02761 4.44365C1.02761 5.76956 1.71002 6.94451 2.72857 7.62536C2.11308 7.61369 1.51004 7.43472 0.998822 7.15382V7.19584C0.998822 9.05632 2.32551 10.6017 4.06616 10.958C3.75413 11.0436 3.41487 11.0841 3.06239 11.0841C2.81728 11.0841 2.56984 11.0701 2.33796 11.0187C2.83362 12.5345 4.24201 13.6495 5.91496 13.6861C4.61239 14.7047 2.95812 15.3186 1.16767 15.3186C0.854093 15.3186 0.552962 15.3046 0.251831 15.2665C1.94812 16.3597 3.95722 16.9845 6.12505 16.9845C12.8814 16.9845 17.2848 11.3479 17.0078 5.59526Z" fill="white" fill-opacity="0.9"/>
</g>
<defs>
<clipPath id="clip0">
<rect width="18.6748" height="18.6748" fill="white" transform="translate(0.251831 0.0605469)"/>
</clipPath>
</defs>
</svg>
