<svg width="344" height="241" viewBox="0 0 344 241" fill="none" xmlns="http://www.w3.org/2000/svg">
<g filter="url(#filter0_d)">
<rect x="16" y="16" width="266.44" height="169.29" rx="7" fill="white"/>
</g>
<path d="M266.18 136.72V64.6151C266.18 61.3014 263.494 58.6151 260.18 58.6151L141.926 58.6151C138.612 58.6151 135.926 61.3014 135.926 64.6151L135.926 136.72L266.18 136.72Z" fill="url(#paint0_linear)"/>
<path d="M247.23 136.785H226.88L266.167 96.907V117.563L247.23 136.785ZM196.232 136.785H203.149L266.177 72.8084V65.7871L196.232 136.785ZM135.926 87.887V94.9083L171.594 58.703H164.677L135.926 87.887ZM207.304 58.7135H177.161L135.936 100.559V131.156L207.304 58.7135Z" fill="url(#paint1_linear)" fill-opacity="0.3"/>
<rect x="143.032" y="64.9326" width="116.071" height="61.5888" rx="8" fill="#FBFBFB"/>
<path d="M33.4519 44.786C32.9541 44.786 32.5201 44.6828 32.1498 44.4764C31.7855 44.27 31.5033 43.9786 31.3029 43.6022C31.1026 43.2198 31.0024 42.7736 31.0024 42.2637V38.0295H32.2499V40.6064H32.259C32.3987 40.394 32.5929 40.227 32.8418 40.1056C33.0968 39.9842 33.37 39.9235 33.6613 39.9235C34.1166 39.9235 34.5112 40.0237 34.8451 40.224C35.179 40.4243 35.437 40.7005 35.6191 41.0526C35.8073 41.3986 35.9014 41.8023 35.9014 42.2637C35.9014 42.7493 35.8042 43.1834 35.61 43.5658C35.4218 43.9422 35.1456 44.2396 34.7814 44.4582C34.4171 44.6767 33.974 44.786 33.4519 44.786ZM33.4519 43.7206C33.8222 43.7206 34.1106 43.5901 34.317 43.3291C34.5294 43.062 34.6357 42.7372 34.6357 42.3547C34.6357 41.9723 34.5294 41.6506 34.317 41.3895C34.1106 41.1224 33.8222 40.9889 33.4519 40.9889C33.0816 40.9889 32.7902 41.1224 32.5777 41.3895C32.3714 41.6506 32.2681 41.9723 32.2681 42.3547C32.2681 42.7372 32.3714 43.062 32.5777 43.3291C32.7902 43.5901 33.0816 43.7206 33.4519 43.7206ZM39.1868 44.786C38.7619 44.786 38.3916 44.6767 38.0759 44.4582C37.7602 44.2396 37.5144 43.9483 37.3383 43.584C37.1683 43.2137 37.0834 42.807 37.0834 42.3638C37.0834 41.9086 37.1805 41.4958 37.3747 41.1255C37.5751 40.7552 37.8604 40.4638 38.2307 40.2513C38.601 40.0328 39.0441 39.9235 39.5601 39.9235C40.0822 39.9235 40.5223 40.0328 40.8805 40.2513C41.2386 40.4698 41.5118 40.7643 41.7 41.1346C41.8882 41.5049 41.9823 41.9146 41.9823 42.3638V44.6767H40.7348V43.9027H40.7166C40.577 44.1456 40.3857 44.355 40.1429 44.531C39.9062 44.701 39.5875 44.786 39.1868 44.786ZM39.5419 43.7206C39.9062 43.7206 40.1915 43.5871 40.3979 43.32C40.6103 43.0529 40.7166 42.7281 40.7166 42.3456C40.7166 41.9693 40.6103 41.6506 40.3979 41.3895C40.1915 41.1224 39.9062 40.9889 39.5419 40.9889C39.1716 40.9889 38.8802 41.1224 38.6678 41.3895C38.4553 41.6506 38.3491 41.9693 38.3491 42.3456C38.3491 42.7281 38.4553 43.0529 38.6678 43.32C38.8802 43.5871 39.1716 43.7206 39.5419 43.7206ZM43.7096 44.6767V41.9177C43.7096 41.5534 43.7976 41.2196 43.9737 40.916C44.1497 40.6125 44.4017 40.3727 44.7295 40.1967C45.0633 40.0145 45.464 39.9235 45.9314 39.9235C46.2653 39.9235 46.5658 39.9812 46.8329 40.0965C47.1 40.2118 47.3277 40.3697 47.5158 40.57H47.525C47.7192 40.3697 47.9499 40.2118 48.217 40.0965C48.4902 39.9812 48.7937 39.9235 49.1276 39.9235C49.595 39.9235 49.9926 40.0145 50.3204 40.1967C50.6543 40.3727 50.9093 40.6125 51.0853 40.916C51.2614 41.2196 51.3494 41.5534 51.3494 41.9177V44.6767H50.1019V41.9177C50.1019 41.6627 50.0048 41.4442 49.8105 41.262C49.6223 41.0799 49.3947 40.9889 49.1276 40.9889C48.8605 40.9889 48.6298 41.0799 48.4355 41.262C48.2473 41.4442 48.1533 41.6627 48.1533 41.9177V44.6767H46.9058V41.9177C46.9058 41.6627 46.8086 41.4442 46.6144 41.262C46.4262 41.0799 46.1985 40.9889 45.9314 40.9889C45.6643 40.9889 45.4336 41.0799 45.2394 41.262C45.0512 41.4442 44.9571 41.6627 44.9571 41.9177V44.6767H43.7096ZM55.4812 44.786C54.9834 44.786 54.5493 44.6828 54.179 44.4764C53.8148 44.27 53.5325 43.9786 53.3322 43.6022C53.1319 43.2198 53.0317 42.7736 53.0317 42.2637V38.0295H54.2792V40.6064H54.2883C54.4279 40.394 54.6222 40.227 54.8711 40.1056C55.126 39.9842 55.3992 39.9235 55.6906 39.9235C56.1459 39.9235 56.5405 40.0237 56.8743 40.224C57.2082 40.4243 57.4662 40.7005 57.6483 41.0526C57.8365 41.3986 57.9306 41.8023 57.9306 42.2637C57.9306 42.7493 57.8335 43.1834 57.6392 43.5658C57.4511 43.9422 57.1748 44.2396 56.8106 44.4582C56.4464 44.6767 56.0032 44.786 55.4812 44.786ZM55.4812 43.7206C55.8515 43.7206 56.1398 43.5901 56.3462 43.3291C56.5587 43.062 56.6649 42.7372 56.6649 42.3547C56.6649 41.9723 56.5587 41.6506 56.3462 41.3895C56.1398 41.1224 55.8515 40.9889 55.4812 40.9889C55.1109 40.9889 54.8195 41.1224 54.607 41.3895C54.4006 41.6506 54.2974 41.9723 54.2974 42.3547C54.2974 42.7372 54.4006 43.062 54.607 43.3291C54.8195 43.5901 55.1109 43.7206 55.4812 43.7206ZM61.6168 44.786C61.1373 44.786 60.7093 44.6798 60.3329 44.4673C59.9565 44.2488 59.6591 43.9574 59.4405 43.5931C59.222 43.2228 59.1127 42.81 59.1127 42.3547C59.1127 41.8995 59.222 41.4897 59.4405 41.1255C59.6591 40.7552 59.9565 40.4638 60.3329 40.2513C60.7093 40.0328 61.1373 39.9235 61.6168 39.9235C62.0964 39.9235 62.5244 40.0328 62.9008 40.2513C63.2771 40.4638 63.5746 40.7552 63.7931 41.1255C64.0117 41.4897 64.1209 41.8995 64.1209 42.3547C64.1209 42.81 64.0117 43.2228 63.7931 43.5931C63.5746 43.9574 63.2771 44.2488 62.9008 44.4673C62.5244 44.6798 62.0964 44.786 61.6168 44.786ZM61.6168 43.7206C61.9993 43.7206 62.2998 43.5901 62.5183 43.3291C62.7429 43.062 62.8552 42.7372 62.8552 42.3547C62.8552 41.9723 62.7429 41.6506 62.5183 41.3895C62.2998 41.1224 61.9993 40.9889 61.6168 40.9889C61.2344 40.9889 60.9309 41.1224 60.7063 41.3895C60.4877 41.6506 60.3784 41.9723 60.3784 42.3547C60.3784 42.7372 60.4877 43.062 60.7063 43.3291C60.9309 43.5901 61.2344 43.7206 61.6168 43.7206ZM67.8098 44.786C67.3302 44.786 66.9023 44.6798 66.5259 44.4673C66.1495 44.2488 65.8521 43.9574 65.6335 43.5931C65.415 43.2228 65.3057 42.81 65.3057 42.3547C65.3057 41.8995 65.415 41.4897 65.6335 41.1255C65.8521 40.7552 66.1495 40.4638 66.5259 40.2513C66.9023 40.0328 67.3302 39.9235 67.8098 39.9235C68.2894 39.9235 68.7174 40.0328 69.0937 40.2513C69.4701 40.4638 69.7676 40.7552 69.9861 41.1255C70.2046 41.4897 70.3139 41.8995 70.3139 42.3547C70.3139 42.81 70.2046 43.2228 69.9861 43.5931C69.7676 43.9574 69.4701 44.2488 69.0937 44.4673C68.7174 44.6798 68.2894 44.786 67.8098 44.786ZM67.8098 43.7206C68.1922 43.7206 68.4927 43.5901 68.7113 43.3291C68.9359 43.062 69.0482 42.7372 69.0482 42.3547C69.0482 41.9723 68.9359 41.6506 68.7113 41.3895C68.4927 41.1224 68.1922 40.9889 67.8098 40.9889C67.4274 40.9889 67.1238 41.1224 66.8992 41.3895C66.6807 41.6506 66.5714 41.9723 66.5714 42.3547C66.5714 42.7372 66.6807 43.062 66.8992 43.3291C67.1238 43.5901 67.4274 43.7206 67.8098 43.7206Z" fill="#009F10" fill-opacity="0.27"/>
<rect x="85.4849" y="39.2144" width="181.213" height="5.1324" rx="2.5662" fill="#DBEEEB"/>
<g filter="url(#filter1_d)">
<rect x="143.329" y="65.1328" width="115.253" height="63.9867" rx="4" fill="white"/>
<rect x="143.829" y="65.6328" width="114.253" height="62.9867" rx="3.5" stroke="#3CC932" stroke-dasharray="6 6"/>
</g>
<path d="M70.8185 56.2664H33.7466C32.642 56.2664 31.7466 57.1618 31.7466 58.2664V75.5074C31.7466 76.612 32.642 77.5074 33.7466 77.5074H70.8184C71.923 77.5074 72.8184 76.612 72.8184 75.5074V58.2664C72.8184 57.1618 71.923 56.2664 70.8185 56.2664Z" fill="#DBEEEB"/>
<path d="M71.0712 81.5817H33.7872C32.8296 81.5817 32.0532 82.358 32.0532 83.3156C32.0532 84.2733 32.8295 85.0496 33.7872 85.0496H71.0712C72.0288 85.0496 72.8052 84.2733 72.8052 83.3156C72.8052 82.358 72.0288 81.5817 71.0712 81.5817Z" fill="#DBEEEB"/>
<path d="M65.8623 87.4775H33.7872C32.8296 87.4775 32.0532 88.2539 32.0532 89.2115C32.0532 90.1692 32.8296 90.9455 33.7872 90.9455H65.8623C66.8199 90.9455 67.5963 90.1692 67.5963 89.2115C67.5963 88.2539 66.8199 87.4775 65.8623 87.4775Z" fill="#DBEEEB"/>
<path d="M117.392 56.2667H80.3203C79.2157 56.2667 78.3203 57.1622 78.3203 58.2667V75.5078C78.3203 76.6124 79.2157 77.5078 80.3203 77.5078H117.392C118.497 77.5078 119.392 76.6124 119.392 75.5078V58.2667C119.392 57.1622 118.497 56.2667 117.392 56.2667Z" fill="#DBEEEB"/>
<path d="M117.645 81.5825H80.0543C79.0966 81.5825 78.3203 82.3588 78.3203 83.3165C78.3203 84.2741 79.0966 85.0505 80.0543 85.0505H117.645C118.602 85.0505 119.379 84.2741 119.379 83.3165C119.379 82.3588 118.602 81.5825 117.645 81.5825Z" fill="#DBEEEB"/>
<path d="M112.129 87.4783H80.0543C79.0966 87.4783 78.3203 88.2546 78.3203 89.2122C78.3203 90.1699 79.0966 90.9462 80.0543 90.9462H112.129C113.087 90.9462 113.863 90.1699 113.863 89.2122C113.863 88.2546 113.087 87.4783 112.129 87.4783Z" fill="#DBEEEB"/>
<path d="M55.1768 67.5571L50.5807 70.2106L50.5807 64.9035L55.1768 67.5571Z" fill="white"/>
<path d="M101.75 67.5571L97.1544 70.2106L97.1544 64.9035L101.75 67.5571Z" fill="white"/>
<path d="M70.8184 97.9369H33.7466C32.642 97.9369 31.7466 98.8323 31.7466 99.9369V117.178C31.7466 118.283 32.642 119.178 33.7466 119.178H70.8184C71.923 119.178 72.8184 118.283 72.8184 117.178V99.9369C72.8184 98.8323 71.923 97.9369 70.8184 97.9369Z" fill="#DBEEEB"/>
<path d="M71.0712 123.173H33.7872C32.8296 123.173 32.0532 123.95 32.0532 124.907C32.0532 125.865 32.8295 126.641 33.7872 126.641H71.0712C72.0288 126.641 72.8052 125.865 72.8052 124.907C72.8052 123.95 72.0288 123.173 71.0712 123.173Z" fill="#DBEEEB"/>
<path d="M65.8623 129.069H33.7872C32.8296 129.069 32.0532 129.846 32.0532 130.803C32.0532 131.761 32.8296 132.537 33.7872 132.537H65.8623C66.8199 132.537 67.5963 131.761 67.5963 130.803C67.5963 129.846 66.8199 129.069 65.8623 129.069Z" fill="#DBEEEB"/>
<path d="M117.392 97.9373H80.3203C79.2157 97.9373 78.3203 98.8327 78.3203 99.9373V117.178C78.3203 118.283 79.2157 119.178 80.3203 119.178H117.392C118.497 119.178 119.392 118.283 119.392 117.178V99.9373C119.392 98.8327 118.497 97.9373 117.392 97.9373Z" fill="#DBEEEB"/>
<path d="M117.645 123.198H80.0543C79.0966 123.198 78.3203 123.974 78.3203 124.932C78.3203 125.889 79.0966 126.666 80.0543 126.666H117.645C118.602 126.666 119.379 125.889 119.379 124.932C119.379 123.974 118.602 123.198 117.645 123.198Z" fill="#DBEEEB"/>
<path d="M112.129 129.093H80.0543C79.0966 129.093 78.3203 129.869 78.3203 130.827C78.3203 131.785 79.0966 132.561 80.0543 132.561H112.129C113.087 132.561 113.863 131.785 113.863 130.827C113.863 129.869 113.087 129.093 112.129 129.093Z" fill="#DBEEEB"/>
<path d="M55.1768 108.832L50.5807 111.486L50.5807 106.179L55.1768 108.832Z" fill="white"/>
<path d="M101.75 108.832L97.1539 111.486L97.1539 106.179L101.75 108.832Z" fill="white"/>
<path d="M70.8185 138.997H33.7466C32.642 138.997 31.7466 139.893 31.7466 140.997V158.238C31.7466 159.343 32.642 160.238 33.7466 160.238H70.8184C71.923 160.238 72.8184 159.343 72.8184 158.238V140.997C72.8184 139.893 71.923 138.997 70.8185 138.997Z" fill="#DBEEEB"/>
<path d="M71.0712 164.233H33.7872C32.8296 164.233 32.0532 165.01 32.0532 165.967C32.0532 166.925 32.8295 167.701 33.7872 167.701H71.0712C72.0288 167.701 72.8052 166.925 72.8052 165.967C72.8052 165.01 72.0288 164.233 71.0712 164.233Z" fill="#DBEEEB"/>
<path d="M65.8623 170.129H33.7872C32.8296 170.129 32.0532 170.906 32.0532 171.863C32.0532 172.821 32.8296 173.597 33.7872 173.597H65.8623C66.8199 173.597 67.5963 172.821 67.5963 171.863C67.5963 170.906 66.8199 170.129 65.8623 170.129Z" fill="#DBEEEB"/>
<path d="M117.392 138.997H80.3203C79.2157 138.997 78.3203 139.892 78.3203 140.997V158.238C78.3203 159.342 79.2157 160.238 80.3203 160.238H117.392C118.497 160.238 119.392 159.342 119.392 158.238V140.997C119.392 139.892 118.497 138.997 117.392 138.997Z" fill="#DBEEEB"/>
<path d="M117.645 164.257H80.0543C79.0966 164.257 78.3203 165.033 78.3203 165.991C78.3203 166.949 79.0966 167.725 80.0543 167.725H117.645C118.602 167.725 119.379 166.949 119.379 165.991C119.379 165.033 118.602 164.257 117.645 164.257Z" fill="#DBEEEB"/>
<path d="M112.129 170.152H80.0543C79.0966 170.152 78.3203 170.928 78.3203 171.886C78.3203 172.844 79.0966 173.62 80.0543 173.62H112.129C113.087 173.62 113.863 172.844 113.863 171.886C113.863 170.928 113.087 170.152 112.129 170.152Z" fill="#DBEEEB"/>
<path d="M55.1768 149.892L50.5807 152.545L50.5807 147.238L55.1768 149.892Z" fill="white"/>
<path d="M101.75 149.892L97.1539 152.545L97.1539 147.238L101.75 149.892Z" fill="white"/>
<path d="M16 23C16 19.134 19.134 16 23 16H276.402C280.268 16 283.402 19.134 283.402 23V29.4663H16V23Z" fill="url(#paint2_linear)"/>
<circle cx="31.3901" cy="22.7331" r="1.92375" fill="#6AC2FC"/>
<circle cx="38.123" cy="22.7331" r="1.92375" fill="#F1EE33" fill-opacity="0.8"/>
<circle cx="44.8564" cy="22.7331" r="1.92375" fill="#89E23A"/>
<path d="M173.29 92.0645H170.67V85.0645H173.29C174.424 85.0645 175.347 85.3912 176.06 86.0445C176.774 86.6978 177.13 87.5378 177.13 88.5645C177.13 89.5978 176.774 90.4412 176.06 91.0945C175.354 91.7412 174.43 92.0645 173.29 92.0645ZM172.11 86.3545V90.7745H173.17C173.95 90.7745 174.557 90.5812 174.99 90.1945C175.43 89.8012 175.65 89.2578 175.65 88.5645C175.65 87.8712 175.43 87.3312 174.99 86.9445C174.557 86.5512 173.95 86.3545 173.17 86.3545H172.11ZM179.764 92.0645H178.354V87.0745H179.764V87.9145C179.917 87.6478 180.151 87.4212 180.464 87.2345C180.791 87.0412 181.137 86.9445 181.504 86.9445C181.584 86.9445 181.637 86.9478 181.664 86.9545V88.3345C181.531 88.3012 181.384 88.2845 181.224 88.2845C180.897 88.2845 180.597 88.3712 180.324 88.5445C180.057 88.7112 179.871 88.9145 179.764 89.1545V92.0645ZM183.643 89.5645C183.643 89.9645 183.773 90.2978 184.033 90.5645C184.293 90.8312 184.623 90.9645 185.023 90.9645C185.423 90.9645 185.753 90.8312 186.013 90.5645C186.273 90.2912 186.403 89.9578 186.403 89.5645C186.403 89.1645 186.273 88.8345 186.013 88.5745C185.753 88.3078 185.423 88.1745 185.023 88.1745C184.623 88.1745 184.293 88.3078 184.033 88.5745C183.773 88.8345 183.643 89.1645 183.643 89.5645ZM182.253 89.5645C182.253 88.8245 182.513 88.2045 183.033 87.7045C183.546 87.1978 184.209 86.9445 185.023 86.9445C185.836 86.9445 186.499 87.1978 187.013 87.7045C187.533 88.2112 187.793 88.8312 187.793 89.5645C187.793 90.3112 187.533 90.9378 187.013 91.4445C186.493 91.9445 185.829 92.1945 185.023 92.1945C184.216 92.1945 183.553 91.9445 183.033 91.4445C182.513 90.9378 182.253 90.3112 182.253 89.5645ZM191.883 86.9445C192.563 86.9445 193.123 87.1978 193.563 87.7045C194.009 88.1978 194.233 88.8212 194.233 89.5745C194.233 90.3145 194.009 90.9378 193.563 91.4445C193.123 91.9445 192.563 92.1945 191.883 92.1945C191.183 92.1945 190.636 91.9478 190.243 91.4545V94.0645H188.833V87.0745H190.243V87.6845C190.616 87.1912 191.163 86.9445 191.883 86.9445ZM191.483 88.1745C191.216 88.1745 190.973 88.2445 190.753 88.3845C190.533 88.5245 190.363 88.7045 190.243 88.9245V90.2245C190.363 90.4445 190.533 90.6245 190.753 90.7645C190.973 90.8978 191.216 90.9645 191.483 90.9645C191.883 90.9645 192.206 90.8312 192.453 90.5645C192.706 90.2912 192.833 89.9612 192.833 89.5745C192.833 89.1812 192.706 88.8478 192.453 88.5745C192.206 88.3078 191.883 88.1745 191.483 88.1745ZM172.11 108.065H170.67V101.065H172.11V103.685H175.27V101.065H176.7V108.065H175.27V104.995H172.11V108.065ZM180.609 108.195C179.829 108.195 179.172 107.955 178.639 107.475C178.105 106.995 177.839 106.358 177.839 105.565C177.839 104.825 178.079 104.205 178.559 103.705C179.039 103.198 179.665 102.945 180.439 102.945C181.159 102.945 181.735 103.201 182.169 103.715C182.602 104.228 182.819 104.851 182.819 105.585V105.955H179.239C179.312 106.288 179.495 106.545 179.789 106.725C180.089 106.905 180.462 106.995 180.909 106.995C181.462 106.995 181.995 106.848 182.509 106.555V107.685C182.062 108.025 181.429 108.195 180.609 108.195ZM179.239 105.055H181.429C181.415 104.768 181.312 104.531 181.119 104.345C180.932 104.151 180.685 104.055 180.379 104.055C180.065 104.055 179.805 104.148 179.599 104.335C179.392 104.515 179.272 104.755 179.239 105.055ZM185.311 108.065H183.901V103.075H185.311V103.915C185.464 103.648 185.698 103.421 186.011 103.235C186.338 103.041 186.684 102.945 187.051 102.945C187.131 102.945 187.184 102.948 187.211 102.955V104.335C187.078 104.301 186.931 104.285 186.771 104.285C186.444 104.285 186.144 104.371 185.871 104.545C185.604 104.711 185.418 104.915 185.311 105.155V108.065ZM190.569 108.195C189.789 108.195 189.133 107.955 188.599 107.475C188.066 106.995 187.799 106.358 187.799 105.565C187.799 104.825 188.039 104.205 188.519 103.705C188.999 103.198 189.626 102.945 190.399 102.945C191.119 102.945 191.696 103.201 192.129 103.715C192.563 104.228 192.779 104.851 192.779 105.585V105.955H189.199C189.273 106.288 189.456 106.545 189.749 106.725C190.049 106.905 190.423 106.995 190.869 106.995C191.423 106.995 191.956 106.848 192.469 106.555V107.685C192.023 108.025 191.389 108.195 190.569 108.195ZM189.199 105.055H191.389C191.376 104.768 191.273 104.531 191.079 104.345C190.893 104.151 190.646 104.055 190.339 104.055C190.026 104.055 189.766 104.148 189.559 104.335C189.353 104.515 189.233 104.755 189.199 105.055Z" fill="#1E4843" fill-opacity="0.6"/>
<path d="M343.953 97.2132V40.1614C343.953 38.5045 342.609 37.1614 340.953 37.1614L228.689 37.1614C227.032 37.1614 225.689 38.5045 225.689 40.1614V97.2132L343.953 97.2132Z" fill="url(#paint3_linear)"/>
<path d="M326.747 97.2646H308.271L343.941 66.6037V82.4852L326.747 97.2646ZM280.444 97.2646H286.724L343.95 48.0752V42.6767L280.444 97.2646ZM225.689 59.6685V65.067L258.074 37.23H251.793L225.689 59.6685ZM290.496 37.238H263.128L225.698 69.4115V92.9362L290.496 37.238Z" fill="url(#paint4_linear)" fill-opacity="0.3"/>
<path d="M232.395 92.7405C232.072 92.7405 231.792 92.6771 231.552 92.5503C231.316 92.4234 231.134 92.2443 231.004 92.013C230.874 91.778 230.81 91.5037 230.81 91.1903V88.588H231.617V90.1718H231.623C231.713 90.0412 231.839 89.9386 232 89.864C232.165 89.7894 232.341 89.7521 232.53 89.7521C232.825 89.7521 233.08 89.8136 233.296 89.9367C233.512 90.0599 233.679 90.2296 233.797 90.446C233.919 90.6587 233.979 90.9068 233.979 91.1903C233.979 91.4888 233.917 91.7556 233.791 91.9906C233.669 92.2219 233.49 92.4048 233.255 92.5391C233.019 92.6734 232.732 92.7405 232.395 92.7405ZM232.395 92.0858C232.634 92.0858 232.821 92.0055 232.954 91.8451C233.092 91.681 233.16 91.4813 233.16 91.2463C233.16 91.0113 233.092 90.8135 232.954 90.6531C232.821 90.4889 232.634 90.4068 232.395 90.4068C232.155 90.4068 231.966 90.4889 231.829 90.6531C231.695 90.8135 231.629 91.0113 231.629 91.2463C231.629 91.4813 231.695 91.681 231.829 91.8451C231.966 92.0055 232.155 92.0858 232.395 92.0858ZM236.105 92.7405C235.83 92.7405 235.591 92.6734 235.386 92.5391C235.182 92.4048 235.023 92.2257 234.909 92.0018C234.799 91.7742 234.744 91.5243 234.744 91.2519C234.744 90.9721 234.807 90.7184 234.933 90.4908C235.062 90.2632 235.247 90.0841 235.487 89.9535C235.726 89.8192 236.013 89.7521 236.347 89.7521C236.685 89.7521 236.969 89.8192 237.201 89.9535C237.433 90.0878 237.61 90.2688 237.731 90.4964C237.853 90.724 237.914 90.9758 237.914 91.2519V92.6734H237.107V92.1977H237.095C237.005 92.3469 236.881 92.4756 236.724 92.5838C236.571 92.6883 236.365 92.7405 236.105 92.7405ZM236.335 92.0858C236.571 92.0858 236.755 92.0037 236.889 91.8395C237.026 91.6754 237.095 91.4758 237.095 91.2407C237.095 91.0094 237.026 90.8135 236.889 90.6531C236.755 90.4889 236.571 90.4068 236.335 90.4068C236.095 90.4068 235.907 90.4889 235.769 90.6531C235.632 90.8135 235.563 91.0094 235.563 91.2407C235.563 91.4758 235.632 91.6754 235.769 91.8395C235.907 92.0037 236.095 92.0858 236.335 92.0858ZM239.032 92.6734V90.9777C239.032 90.7538 239.089 90.5486 239.203 90.3621C239.317 90.1755 239.48 90.0282 239.692 89.92C239.908 89.808 240.167 89.7521 240.469 89.7521C240.685 89.7521 240.88 89.7875 241.053 89.8584C241.226 89.9293 241.373 90.0263 241.495 90.1494H241.501C241.626 90.0263 241.775 89.9293 241.948 89.8584C242.125 89.7875 242.321 89.7521 242.537 89.7521C242.84 89.7521 243.097 89.808 243.309 89.92C243.525 90.0282 243.69 90.1755 243.804 90.3621C243.918 90.5486 243.975 90.7538 243.975 90.9777V92.6734H243.168V90.9777C243.168 90.821 243.105 90.6867 242.979 90.5747C242.858 90.4628 242.71 90.4068 242.537 90.4068C242.365 90.4068 242.215 90.4628 242.09 90.5747C241.968 90.6867 241.907 90.821 241.907 90.9777V92.6734H241.1V90.9777C241.1 90.821 241.037 90.6867 240.911 90.5747C240.79 90.4628 240.642 90.4068 240.469 90.4068C240.297 90.4068 240.147 90.4628 240.022 90.5747C239.9 90.6867 239.839 90.821 239.839 90.9777V92.6734H239.032ZM246.649 92.7405C246.327 92.7405 246.046 92.6771 245.806 92.5503C245.57 92.4234 245.388 92.2443 245.258 92.013C245.128 91.778 245.064 91.5037 245.064 91.1903V88.588H245.871V90.1718H245.877C245.967 90.0412 246.093 89.9386 246.254 89.864C246.419 89.7894 246.596 89.7521 246.784 89.7521C247.079 89.7521 247.334 89.8136 247.55 89.9367C247.766 90.0599 247.933 90.2296 248.051 90.446C248.173 90.6587 248.234 90.9068 248.234 91.1903C248.234 91.4888 248.171 91.7556 248.045 91.9906C247.923 92.2219 247.744 92.4048 247.509 92.5391C247.273 92.6734 246.986 92.7405 246.649 92.7405ZM246.649 92.0858C246.888 92.0858 247.075 92.0055 247.208 91.8451C247.346 91.681 247.415 91.4813 247.415 91.2463C247.415 91.0113 247.346 90.8135 247.208 90.6531C247.075 90.4889 246.888 90.4068 246.649 90.4068C246.409 90.4068 246.22 90.4889 246.083 90.6531C245.949 90.8135 245.883 91.0113 245.883 91.2463C245.883 91.4813 245.949 91.681 246.083 91.8451C246.22 92.0055 246.409 92.0858 246.649 92.0858ZM250.619 92.7405C250.308 92.7405 250.031 92.6752 249.788 92.5447C249.544 92.4103 249.352 92.2313 249.211 92.0074C249.069 91.7798 248.998 91.5261 248.998 91.2463C248.998 90.9665 249.069 90.7146 249.211 90.4908C249.352 90.2632 249.544 90.0841 249.788 89.9535C250.031 89.8192 250.308 89.7521 250.619 89.7521C250.929 89.7521 251.206 89.8192 251.449 89.9535C251.693 90.0841 251.885 90.2632 252.027 90.4908C252.168 90.7146 252.239 90.9665 252.239 91.2463C252.239 91.5261 252.168 91.7798 252.027 92.0074C251.885 92.2313 251.693 92.4103 251.449 92.5447C251.206 92.6752 250.929 92.7405 250.619 92.7405ZM250.619 92.0858C250.866 92.0858 251.061 92.0055 251.202 91.8451C251.347 91.681 251.42 91.4813 251.42 91.2463C251.42 91.0113 251.347 90.8135 251.202 90.6531C251.061 90.4889 250.866 90.4068 250.619 90.4068C250.371 90.4068 250.175 90.4889 250.03 90.6531C249.888 90.8135 249.817 91.0113 249.817 91.2463C249.817 91.4813 249.888 91.681 250.03 91.8451C250.175 92.0055 250.371 92.0858 250.619 92.0858ZM254.626 92.7405C254.316 92.7405 254.039 92.6752 253.795 92.5447C253.552 92.4103 253.359 92.2313 253.218 92.0074C253.076 91.7798 253.006 91.5261 253.006 91.2463C253.006 90.9665 253.076 90.7146 253.218 90.4908C253.359 90.2632 253.552 90.0841 253.795 89.9535C254.039 89.8192 254.316 89.7521 254.626 89.7521C254.936 89.7521 255.213 89.8192 255.457 89.9535C255.7 90.0841 255.893 90.2632 256.034 90.4908C256.175 90.7146 256.246 90.9665 256.246 91.2463C256.246 91.5261 256.175 91.7798 256.034 92.0074C255.893 92.2313 255.7 92.4103 255.457 92.5447C255.213 92.6752 254.936 92.7405 254.626 92.7405ZM254.626 92.0858C254.873 92.0858 255.068 92.0055 255.209 91.8451C255.355 91.681 255.427 91.4813 255.427 91.2463C255.427 91.0113 255.355 90.8135 255.209 90.6531C255.068 90.4889 254.873 90.4068 254.626 90.4068C254.378 90.4068 254.182 90.4889 254.037 90.6531C253.895 90.8135 253.825 91.0113 253.825 91.2463C253.825 91.4813 253.895 91.681 254.037 91.8451C254.182 92.0055 254.378 92.0858 254.626 92.0858Z" fill="#7BE159" fill-opacity="0.8"/>
<path d="M344 97.2242H225.689V102.79C225.689 104.446 227.032 105.79 228.689 105.79H341C342.657 105.79 344 104.446 344 102.79V97.2242Z" fill="#1E4843"/>
<path d="M340.779 100.13H308.399C308.146 100.13 307.94 99.9306 307.94 99.6861C307.94 99.4416 308.146 99.2424 308.399 99.2424H340.779C341.032 99.2424 341.238 99.4416 341.238 99.6861C341.229 99.9306 341.032 100.13 340.779 100.13Z" fill="white"/>
<path d="M308.39 100.13H229.079C228.826 100.13 228.62 99.9306 228.62 99.6861C228.62 99.4416 228.826 99.2424 229.079 99.2424H308.39C308.643 99.2424 308.849 99.4416 308.849 99.6861C308.849 99.9306 308.643 100.13 308.39 100.13Z" fill="#03D218"/>
<path d="M309.363 99.6864C309.363 100.202 308.933 100.619 308.399 100.619C307.865 100.619 307.435 100.202 307.435 99.6864C307.435 99.1703 307.865 98.7538 308.399 98.7538C308.923 98.7538 309.363 99.1703 309.363 99.6864Z" fill="#FFFDFF"/>
<path d="M234.593 102.159H235.211V104.205H234.593V102.159ZM233.404 104.205H234.022V102.159H233.404V104.205ZM239.285 102.159V102.983L237.983 102.159V104.205L239.285 103.381V104.205H239.903V102.159H239.285ZM228.713 102.159V104.205H229.331V103.381L230.632 104.205V102.159L229.331 102.983V102.159H228.713Z" fill="white"/>
<path d="M331.621 102.713L331.559 102.571C331.559 102.571 331.703 102.251 331.688 102.241L331.498 102.058C331.482 102.048 331.159 102.19 331.159 102.19L331.01 102.129C331.01 102.129 330.876 101.804 330.861 101.804H330.594C330.573 101.804 330.455 102.129 330.455 102.129L330.306 102.19C330.306 102.19 329.977 102.053 329.962 102.063L329.772 102.246C329.757 102.256 329.911 102.571 329.911 102.571L329.849 102.713C329.849 102.713 329.515 102.839 329.515 102.855V103.113C329.515 103.134 329.849 103.25 329.849 103.25L329.911 103.393C329.911 103.393 329.767 103.712 329.782 103.722L329.972 103.905C329.983 103.915 330.306 103.773 330.306 103.773L330.455 103.834C330.455 103.834 330.589 104.159 330.604 104.159H330.871C330.892 104.159 331.01 103.834 331.01 103.834L331.159 103.773C331.159 103.773 331.488 103.91 331.503 103.9L331.693 103.717C331.708 103.702 331.554 103.393 331.554 103.393L331.616 103.25C331.616 103.25 331.95 103.124 331.95 103.103V102.845C331.955 102.834 331.621 102.713 331.621 102.713ZM331.128 102.987C331.128 103.195 330.953 103.367 330.738 103.367C330.522 103.367 330.347 103.2 330.347 102.987C330.347 102.779 330.522 102.611 330.738 102.611C330.953 102.606 331.128 102.779 331.128 102.987Z" fill="white"/>
<path d="M336.645 103.822H333.689V102.14H336.645V103.822ZM333.907 103.633H336.427V102.325H333.907V103.633Z" fill="white"/>
<path d="M339.654 102.073H340.373V102.773H340.583V101.87H339.654V102.073Z" fill="white"/>
<path d="M338.526 102.773V102.073H339.25V101.87H338.316V102.773H338.526Z" fill="white"/>
<path d="M340.373 103.164V103.864H339.654V104.067H340.583V103.164H340.373Z" fill="white"/>
<path d="M339.25 103.864H338.526V103.164H338.316V104.067H339.25V103.864Z" fill="white"/>
<path d="M282.93 81.9823L282.942 82.232L282.93 81.9823ZM298.847 70.1657C296.918 77.6468 289.356 81.4259 282.918 81.7325L282.942 82.232C289.507 81.9193 297.327 78.0617 299.331 70.2906L298.847 70.1657ZM282.918 81.7325C279.574 81.8918 276.431 81.282 274.133 79.7441C271.847 78.2149 270.371 75.7525 270.371 72.1347H269.871C269.871 75.911 271.423 78.5331 273.855 80.1596C276.272 81.7773 279.534 82.3943 282.942 82.232L282.918 81.7325ZM270.371 72.1347C270.371 70.3446 271.036 68.3359 272.187 66.3198C273.336 64.3063 274.961 62.3011 276.856 60.5222C280.656 56.9561 285.497 54.3407 289.72 54.3407V53.8407C285.316 53.8407 280.357 56.5502 276.514 60.1576C274.588 61.9654 272.93 64.009 271.753 66.072C270.577 68.1323 269.871 70.2277 269.871 72.1347H270.371ZM289.72 54.3407C292.842 54.3407 295.606 56.3931 297.355 59.4246C299.103 62.4531 299.813 66.4205 298.847 70.1657L299.331 70.2906C300.332 66.4096 299.597 62.3083 297.788 59.1746C295.981 56.0439 293.077 53.8407 289.72 53.8407V54.3407Z" fill="white" fill-opacity="0.2"/>
<path d="M283.515 77.8393L283.527 78.0891L283.515 77.8393ZM294.441 69.6541C293.119 74.7792 287.933 77.3787 283.504 77.5896L283.527 78.0891C288.084 77.8721 293.528 75.1941 294.925 69.779L294.441 69.6541ZM283.504 77.5896C281.203 77.6992 279.049 77.2789 277.479 76.2284C275.922 75.1867 274.914 73.5097 274.914 71.0341H274.414C274.414 73.6682 275.498 75.5049 277.201 76.644C278.89 77.7742 281.163 78.2017 283.527 78.0891L283.504 77.5896ZM274.914 71.0341C274.914 69.8151 275.367 68.4403 276.159 67.0539C276.949 65.6701 278.066 64.2903 279.371 63.0654C281.99 60.6074 285.317 58.8146 288.208 58.8146V58.3146C285.136 58.3146 281.692 60.2016 279.029 62.7009C277.693 63.9546 276.542 65.3728 275.724 66.8061C274.908 68.2367 274.414 69.6981 274.414 71.0341H274.914ZM288.208 58.8146C290.329 58.8146 292.217 60.2096 293.417 62.2892C294.616 64.3659 295.103 67.0869 294.441 69.6541L294.925 69.779C295.622 67.076 295.11 64.2211 293.851 62.0393C292.593 59.8604 290.564 58.3146 288.208 58.3146V58.8146Z" fill="white"/>
<path d="M292.4 69.5011C291.378 73.4623 287.383 75.4456 284.006 75.6065C280.499 75.7735 277.353 74.3321 277.353 70.4914C277.353 66.6506 283.052 61.1188 287.533 61.1188C290.898 61.1188 293.421 65.5398 292.4 69.5011Z" fill="url(#paint5_linear)"/>
<path d="M286.46 68.6774L284.297 69.8849L284.297 67.4698L286.46 68.6774Z" fill="#05B514"/>
<g clip-path="url(#clip0)">
<path d="M319.469 76.4686L312.501 66.9081L309.745 79.2163L313.197 76.6765L314.143 81.8552L316.241 81.1928L314.98 75.9526L319.469 76.4686Z" fill="white"/>
<path d="M320.574 77.4619L311.978 64.6656L308.848 80.4934L312.765 77.742L313.74 82.8471L316.999 82.0047L316.024 76.8996L320.574 77.4619ZM315.882 81.2503L314.477 81.6134L313.421 76.0815L310.239 78.3163L312.45 67.1371L318.521 76.1752L314.826 75.7184L315.882 81.2503Z" fill="#6B6B6B"/>
</g>
<path d="M329.895 79.8324L327.791 79.8324C327.57 79.8324 327.391 79.6533 327.391 79.4324L327.391 77.3278C327.391 76.9385 327.075 76.623 326.686 76.623C326.297 76.623 325.981 76.9385 325.981 77.3278V79.4324C325.981 79.6533 325.802 79.8324 325.581 79.8324L323.477 79.8324C323.087 79.8324 322.772 80.148 322.772 80.5372C322.772 80.9264 323.087 81.242 323.477 81.242L325.581 81.242C325.802 81.242 325.981 81.421 325.981 81.642L325.981 83.7466C325.981 84.1358 326.297 84.4514 326.686 84.4514C327.075 84.4514 327.391 84.1358 327.391 83.7466V81.642C327.391 81.421 327.57 81.242 327.791 81.242L329.895 81.242C330.285 81.242 330.6 80.9264 330.6 80.5372C330.6 80.148 330.285 79.8324 329.895 79.8324Z" fill="white" stroke="#6B6B6B" stroke-width="0.6"/>
<g filter="url(#filter2_d)">
<rect x="123.73" y="201.642" width="206.483" height="26.9326" rx="4" fill="white"/>
<rect x="133.005" y="212.04" width="161.71" height="6.3209" rx="3.16045" fill="#42F4DF" fill-opacity="0.15"/>
<rect x="133.005" y="212.04" width="75.3241" height="6.3209" rx="3.16045" fill="url(#paint6_linear)"/>
<g clip-path="url(#clip1)">
<path d="M312.258 210.873C311.889 210.873 311.606 210.591 311.606 210.222V209.027C311.606 208.658 311.889 208.375 312.258 208.375C312.627 208.375 312.91 208.658 312.91 209.027V210.222C312.91 210.569 312.627 210.873 312.258 210.873Z" fill="#82E828" fill-opacity="0.5"/>
<path d="M312.258 221.842C311.889 221.842 311.606 221.559 311.606 221.19V219.995C311.606 219.626 311.889 219.344 312.258 219.344C312.627 219.344 312.91 219.626 312.91 219.995V221.19C312.91 221.559 312.627 221.842 312.258 221.842Z" fill="#3ED01F"/>
<path d="M309.804 211.525C309.587 211.525 309.37 211.416 309.239 211.199L308.653 210.178C308.479 209.874 308.588 209.461 308.892 209.288C309.196 209.114 309.608 209.222 309.782 209.526L310.369 210.547C310.542 210.851 310.434 211.264 310.13 211.438C310.043 211.481 309.912 211.525 309.804 211.525Z" fill="#82E828" fill-opacity="0.38"/>
<path d="M315.299 221.017C315.081 221.017 314.864 220.908 314.734 220.691L314.147 219.67C313.974 219.366 314.082 218.953 314.386 218.779C314.69 218.606 315.103 218.714 315.277 219.018L315.863 220.039C316.037 220.343 315.928 220.756 315.624 220.93C315.516 220.995 315.407 221.017 315.299 221.017Z" fill="#3ED01F"/>
<path d="M308.022 213.306C307.914 213.306 307.805 213.284 307.697 213.219L306.676 212.632C306.372 212.459 306.263 212.046 306.437 211.742C306.611 211.438 307.023 211.329 307.327 211.503L308.348 212.089C308.652 212.263 308.761 212.676 308.587 212.98C308.457 213.197 308.24 213.306 308.022 213.306Z" fill="#82E828" fill-opacity="0.3"/>
<path d="M317.536 218.801C317.427 218.801 317.319 218.779 317.21 218.714L316.168 218.128C315.863 217.954 315.755 217.541 315.929 217.237C316.102 216.933 316.515 216.824 316.819 216.998L317.84 217.585C318.144 217.758 318.253 218.171 318.079 218.475C317.97 218.692 317.753 218.801 317.536 218.801Z" fill="#82E828"/>
<path d="M307.371 215.76H306.176C305.807 215.76 305.525 215.478 305.525 215.108C305.525 214.739 305.807 214.457 306.176 214.457H307.371C307.74 214.457 308.023 214.739 308.023 215.108C308.023 215.478 307.719 215.76 307.371 215.76Z" fill="#82E828" fill-opacity="0.3"/>
<path d="M318.339 215.76H317.145C316.776 215.76 316.493 215.478 316.493 215.108C316.493 214.739 316.776 214.457 317.145 214.457H318.339C318.709 214.457 318.991 214.739 318.991 215.108C318.991 215.478 318.709 215.76 318.339 215.76Z" fill="#82E828"/>
<path d="M306.98 218.801C306.763 218.801 306.546 218.692 306.415 218.475C306.242 218.171 306.35 217.758 306.654 217.585L307.675 216.998C307.979 216.824 308.392 216.933 308.566 217.237C308.739 217.541 308.631 217.954 308.327 218.128L307.306 218.714C307.219 218.779 307.11 218.801 306.98 218.801Z" fill="#3ED01F"/>
<path d="M316.493 213.306C316.276 213.306 316.059 213.197 315.929 212.98C315.755 212.676 315.863 212.263 316.168 212.089L317.188 211.503C317.492 211.329 317.905 211.438 318.079 211.742C318.253 212.046 318.144 212.459 317.84 212.632L316.819 213.219C316.711 213.284 316.602 213.306 316.493 213.306Z" fill="#82E828"/>
<path d="M309.217 221.017C309.109 221.017 309 220.995 308.892 220.93C308.588 220.756 308.479 220.343 308.653 220.039L309.239 219.018C309.413 218.714 309.826 218.606 310.13 218.779C310.434 218.953 310.542 219.366 310.369 219.67L309.782 220.691C309.652 220.908 309.435 221.017 309.217 221.017Z" fill="#3ED01F"/>
<path d="M314.712 211.525C314.603 211.525 314.495 211.503 314.386 211.438C314.082 211.264 313.974 210.851 314.147 210.547L314.734 209.526C314.908 209.222 315.32 209.114 315.624 209.288C315.928 209.461 316.037 209.874 315.863 210.178L315.277 211.199C315.146 211.394 314.929 211.525 314.712 211.525Z" fill="#82E828" fill-opacity="0.7"/>
</g>
</g>
<defs>
<filter id="filter0_d" x="-5" y="0" width="308.44" height="211.29" filterUnits="userSpaceOnUse" color-interpolation-filters="sRGB">
<feFlood flood-opacity="0" result="BackgroundImageFix"/>
<feColorMatrix in="SourceAlpha" type="matrix" values="0 0 0 0 0 0 0 0 0 0 0 0 0 0 0 0 0 0 127 0"/>
<feOffset dy="5"/>
<feGaussianBlur stdDeviation="10.5"/>
<feColorMatrix type="matrix" values="0 0 0 0 0.623529 0 0 0 0 0.698039 0 0 0 0 0.686275 0 0 0 0.2 0"/>
<feBlend mode="normal" in2="BackgroundImageFix" result="effect1_dropShadow"/>
<feBlend mode="normal" in="SourceGraphic" in2="effect1_dropShadow" result="shape"/>
</filter>
<filter id="filter1_d" x="113.329" y="30.1328" width="205.253" height="153.987" filterUnits="userSpaceOnUse" color-interpolation-filters="sRGB">
<feFlood flood-opacity="0" result="BackgroundImageFix"/>
<feColorMatrix in="SourceAlpha" type="matrix" values="0 0 0 0 0 0 0 0 0 0 0 0 0 0 0 0 0 0 127 0"/>
<feOffset dx="15" dy="10"/>
<feGaussianBlur stdDeviation="22.5"/>
<feColorMatrix type="matrix" values="0 0 0 0 0.624167 0 0 0 0 0.7 0 0 0 0 0.686212 0 0 0 0.27 0"/>
<feBlend mode="normal" in2="BackgroundImageFix" result="effect1_dropShadow"/>
<feBlend mode="normal" in="SourceGraphic" in2="effect1_dropShadow" result="shape"/>
</filter>
<filter id="filter2_d" x="113.73" y="197.642" width="222.483" height="42.9326" filterUnits="userSpaceOnUse" color-interpolation-filters="sRGB">
<feFlood flood-opacity="0" result="BackgroundImageFix"/>
<feColorMatrix in="SourceAlpha" type="matrix" values="0 0 0 0 0 0 0 0 0 0 0 0 0 0 0 0 0 0 127 0"/>
<feOffset dx="-2" dy="4"/>
<feGaussianBlur stdDeviation="4"/>
<feColorMatrix type="matrix" values="0 0 0 0 0.623529 0 0 0 0 0.698039 0 0 0 0 0.686275 0 0 0 0.25 0"/>
<feBlend mode="normal" in2="BackgroundImageFix" result="effect1_dropShadow"/>
<feBlend mode="normal" in="SourceGraphic" in2="effect1_dropShadow" result="shape"/>
</filter>
<linearGradient id="paint0_linear" x1="175.584" y1="51.4486" x2="295.23" y2="138.62" gradientUnits="userSpaceOnUse">
<stop stop-color="#DFF2EE"/>
<stop offset="1" stop-color="#E2F2EF"/>
</linearGradient>
<linearGradient id="paint1_linear" x1="149.024" y1="65.8851" x2="268.369" y2="124.983" gradientUnits="userSpaceOnUse">
<stop stop-color="white"/>
<stop offset="1" stop-color="white" stop-opacity="0.96"/>
</linearGradient>
<linearGradient id="paint2_linear" x1="16" y1="29.4662" x2="283.402" y2="29.4662" gradientUnits="userSpaceOnUse">
<stop stop-color="#39CA21"/>
<stop offset="1" stop-color="#6BDD24"/>
</linearGradient>
<linearGradient id="paint3_linear" x1="261.697" y1="31.6513" x2="357.256" y2="113.868" gradientUnits="userSpaceOnUse">
<stop stop-color="#01B213"/>
<stop offset="1" stop-color="#78EE1B" stop-opacity="0.52"/>
</linearGradient>
<linearGradient id="paint4_linear" x1="237.581" y1="42.752" x2="338.129" y2="101.548" gradientUnits="userSpaceOnUse">
<stop stop-color="#30CE2D"/>
<stop offset="1" stop-color="#3DCA33" stop-opacity="0.96"/>
</linearGradient>
<linearGradient id="paint5_linear" x1="284.991" y1="61.1188" x2="281.669" y2="76.9887" gradientUnits="userSpaceOnUse">
<stop stop-color="white"/>
<stop offset="1" stop-color="white"/>
</linearGradient>
<linearGradient id="paint6_linear" x1="133.005" y1="215.2" x2="198.848" y2="215.2" gradientUnits="userSpaceOnUse">
<stop stop-color="#42F4DF" stop-opacity="0.38"/>
<stop offset="0.984375" stop-color="#20B7D9" stop-opacity="0.63"/>
</linearGradient>
<clipPath id="clip0">
<rect width="16.0856" height="17.4675" fill="white" transform="matrix(0.981547 0.191223 -0.193194 0.981161 309.521 63.9352)"/>
</clipPath>
<clipPath id="clip1">
<rect width="13.4663" height="13.4663" fill="white" transform="translate(305.525 208.375)"/>
</clipPath>
</defs>
</svg>
