<svg width="996" height="1030" viewBox="0 0 996 1030" fill="none" xmlns="http://www.w3.org/2000/svg">
<path opacity="0.35" d="M174.417 450.856C77.412 603.456 475.805 938.415 589.596 740.31C674.193 568.775 804.987 625.239 861.59 533.514C937.141 411.869 687.816 247.081 687.967 246.914C397.031 63.9348 236.935 222.583 174.417 450.856Z" fill="url(#paint0_linear)"/>
<path d="M57.7822 808.424C-21.0156 813.072 -111.772 758.543 -136.025 738.393L-1.5012 20.5072C160.656 205.633 408.443 155.545 566.207 214.095C742.677 279.587 829.348 367.459 867.176 449.897C905.005 532.334 914.433 704.807 805.756 784.869C697.08 864.931 559.514 765.633 416.328 759.115C273.142 752.598 136.58 803.777 57.7822 808.424Z" fill="url(#paint1_linear)"/>
<defs>
<linearGradient id="paint0_linear" x1="139.951" y1="354.377" x2="920.415" y2="395.419" gradientUnits="userSpaceOnUse">
<stop stop-color="#28FEFE" stop-opacity="0.3"/>
<stop offset="1" stop-color="#30B3C7"/>
</linearGradient>
<linearGradient id="paint1_linear" x1="544.999" y1="889.507" x2="263.934" y2="215.946" gradientUnits="userSpaceOnUse">
<stop stop-color="#01B213"/>
<stop offset="1" stop-color="#91ED58"/>
</linearGradient>
</defs>
</svg>
